<?xml version="1.0" encoding="UTF-8"?>
<svg width="1440px" height="1024px" viewBox="0 0 1440 1024" version="1.1" xmlns="http://www.w3.org/2000/svg" xmlns:xlink="http://www.w3.org/1999/xlink">
    <!-- Generator: Sketch 53 (72520) - https://sketchapp.com -->
    <title>background</title>
    <desc>Created with Sketch.</desc>
    <g id="background" stroke="none" stroke-width="1" fill="none" fill-rule="evenodd">
        <rect id="Rectangle" fill="#FFFAF2" x="0" y="0" width="1440" height="745"></rect>
        <path d="M785,504.490234 L914.329612,504.490234 C915.434182,504.490234 916.329612,505.385665 916.329612,506.490234 L916.329612,520.990743 C916.329612,522.095312 917.225043,522.990743 918.329612,522.990743 L936.986886,522.990743 C938.091456,522.990743 938.986886,523.886173 938.986886,524.990743 L938.986886,553.459128 C938.986886,554.563697 939.882317,555.459128 940.986886,555.459128 L967.796839,555.459128 C968.901409,555.459128 969.796839,554.563697 969.796839,553.459128 L969.796839,477.109714 C969.796839,476.005145 970.69227,475.109714 971.796839,475.109714 L987.4511,475.109714 C988.55567,475.109714 989.4511,474.214284 989.4511,473.109714 L989.4511,455.280886 C989.4511,454.176317 990.346531,453.280886 991.4511,453.280886 L999.229689,453.280886 C1000.33426,453.280886 1001.22969,452.385456 1001.22969,451.280886 L1001.22969,408.005371 C1001.22969,406.900802 1002.12512,406.005371 1003.22969,406.005371 L1023.13954,406.005371 C1024.20653,406.005371 1025.08563,405.167786 1025.13721,404.102046 L1030.42885,294.757176 C1030.48224,293.653898 1031.41991,292.802797 1032.52319,292.856189 C1033.53533,292.905171 1034.3509,293.703389 1034.42164,294.714244 L1042.07899,404.144979 C1042.15231,405.192808 1043.02372,406.005371 1044.07411,406.005371 L1063.58615,406.005371 C1064.69072,406.005371 1065.58615,406.900802 1065.58615,408.005371 L1065.58615,451.280886 C1065.58615,452.385456 1066.48158,453.280886 1067.58615,453.280886 L1076.38076,453.280886 C1077.48533,453.280886 1078.38076,454.176317 1078.38076,455.280886 L1078.38076,474.041923 C1078.38076,475.146493 1079.27619,476.041923 1080.38076,476.041923 C1080.40314,476.041923 1080.42551,476.041548 1080.44788,476.040797 L1094.77619,475.559649 C1095.88014,475.522578 1096.80512,476.387452 1096.84219,477.4914 C1096.84294,477.513766 1096.84332,477.536143 1096.84332,477.558522 L1096.84332,553.459128 C1096.84332,554.563697 1097.73875,555.459128 1098.84332,555.459128 L1122.99559,555.459128 C1124.10016,555.459128 1124.99559,556.354558 1124.99559,557.459128 L1124.99559,575.231529 C1124.99559,576.336099 1125.89102,577.231529 1126.99559,577.231529 L1209.42299,577.231529 C1210.52756,577.231529 1211.42299,576.336099 1211.42299,575.231529 L1211.42299,537.33635 C1211.42299,536.238699 1212.30765,535.34616 1213.40526,535.336428 L1257.43211,534.946072 C1258.52972,534.93634 1259.41438,534.043802 1259.41438,532.946151 L1259.41438,509.990743 C1259.41438,508.886173 1260.30981,507.990743 1261.41438,507.990743 L1302.88133,507.990743 C1303.9859,507.990743 1304.88133,507.095312 1304.88133,505.990743 L1304.88133,440.112902 C1304.88133,439.008333 1305.77676,438.112902 1306.88133,438.112902 C1306.88445,438.112902 1306.88757,438.112909 1306.89069,438.112924 L1330.22471,438.22218 C1331.32926,438.227352 1332.22888,437.336124 1332.23405,436.231567 C1332.23406,436.228445 1332.23407,436.225324 1332.23407,436.222202 L1332.23407,427.023438 C1332.23407,425.918868 1331.33864,425.023438 1330.23407,425.023438 L1315.73104,425.023438 C1314.62647,425.023438 1313.73104,424.128007 1313.73104,423.023438 L1313.73104,408.005371 C1313.73104,406.900802 1314.62647,406.005371 1315.73104,406.005371 L1331.17105,406.005371 C1331.83571,406.005371 1332.45694,405.67518 1332.82878,405.124271 L1355.12624,372.089039 C1355.74419,371.173501 1356.98733,370.932259 1357.90287,371.550211 C1358.08328,371.671981 1358.2426,371.822384 1358.37455,371.995487 L1383.69886,405.217823 C1384.07716,405.714104 1384.66542,406.005371 1385.28944,406.005371 L1401.28427,406.005371 C1402.38883,406.005371 1403.28427,406.900802 1403.28427,408.005371 L1403.28427,423.115765 C1403.28427,424.220334 1402.38883,425.115765 1401.28427,425.115765 L1386.29918,425.115765 C1385.19461,425.115765 1384.29918,426.011195 1384.29918,427.115765 L1384.29918,436.231589 C1384.29918,437.336158 1385.19461,438.231589 1386.29918,438.231589 L1409,438.231589 C1410.10457,438.231589 1411,439.127019 1411,440.231589 L1411,507.024884 C1411,508.129454 1411.89543,509.024884 1413,509.024884 L1440,509.024884 L1440,887.490234 L608.943359,888.490234 L608.943359,534.928497 L738.339844,535.354004 L738.339844,522.990743 L783,522.990743 L783,506.490234 C783,505.385665 783.895431,504.490234 785,504.490234 Z" id="Path-17" fill="#F0E0CC"></path>
        <path d="M-3,552.082031 L34,552.082031 C35.1045695,552.082031 36,551.186601 36,550.082031 L36,526.316406 C36,525.211837 36.8954305,524.316406 38,524.316406 L76,524.316406 C77.1045695,524.316406 78,523.420976 78,522.316406 L78,418.96875 C78,417.864181 77.1045695,416.96875 76,416.96875 L67,416.96875 C65.8954305,416.96875 65,416.073319 65,414.96875 L65,387.265625 C65,386.161056 65.8954305,385.265625 67,385.265625 L75.1917153,385.265625 C76.2962848,385.265625 77.1917153,384.370194 77.1917153,383.265625 C77.1917153,383.04305 77.1545623,382.822036 77.0817879,382.611694 L65.9182121,350.345337 C65.557056,349.301479 66.1104955,348.16249 67.1543537,347.801334 C67.3646954,347.728559 67.5857095,347.691406 67.8082847,347.691406 L85.5,347.691406 C86.6045695,347.691406 87.5,346.795976 87.5,345.691406 L87.5,340.710937 C87.5,339.606368 86.6045695,338.710937 85.5,338.710937 L80,338.710937 C78.8954305,338.710937 78,337.815507 78,336.710937 L78,336.384766 C78,335.280196 78.8954305,334.384766 80,334.384766 L158.890625,334.384766 C159.995194,334.384766 160.890625,335.280196 160.890625,336.384766 L160.890625,336.710937 C160.890625,337.815507 159.995194,338.710937 158.890625,338.710937 L153.300781,338.710937 C152.196212,338.710937 151.300781,339.606368 151.300781,340.710937 L151.300781,345.691406 C151.300781,346.795976 152.196212,347.691406 153.300781,347.691406 L171.724627,347.691406 C172.829197,347.691406 173.724627,348.586837 173.724627,349.691406 C173.724627,349.924954 173.683721,350.156697 173.603763,350.376131 L161.868893,382.5809 C161.49073,383.618718 162.025486,384.766598 163.063304,385.144761 C163.282738,385.224719 163.514481,385.265625 163.748029,385.265625 L172.582031,385.265625 C173.686601,385.265625 174.582031,386.161056 174.582031,387.265625 L174.582031,414.96875 C174.582031,416.073319 173.686601,416.96875 172.582031,416.96875 L162.890625,416.96875 C161.786056,416.96875 160.890625,417.864181 160.890625,418.96875 L160.890625,522.316406 C160.890625,523.420976 161.786056,524.316406 162.890625,524.316406 L268.001995,524.316406 C269.106565,524.316406 270.001995,523.420976 270.001995,522.316406 L270.001995,424.083984 C270.001995,422.979415 270.897426,422.083984 272.001995,422.083984 L275.044219,422.083984 C276.148789,422.083984 277.044219,422.979415 277.044219,424.083984 L277.044219,522.316406 C277.044219,523.420976 277.93965,524.316406 279.044219,524.316406 L290.681641,524.316406 C291.78621,524.316406 292.681641,523.420976 292.681641,522.316406 L292.681641,424.083984 C292.681641,422.979415 293.577071,422.083984 294.681641,422.083984 L296.974609,422.083984 C298.079179,422.083984 298.974609,422.979415 298.974609,424.083984 L298.974609,522.316406 C298.974609,523.420976 299.87004,524.316406 300.974609,524.316406 L313.535156,524.316406 C314.639726,524.316406 315.535156,523.420976 315.535156,522.316406 L315.535156,424.083984 C315.535156,422.979415 316.430587,422.083984 317.535156,422.083984 L319.3125,422.083984 C320.417069,422.083984 321.3125,422.979415 321.3125,424.083984 L321.3125,522.316406 C321.3125,523.420976 322.207931,524.316406 323.3125,524.316406 L333.570312,524.316406 C334.674882,524.316406 335.570312,523.420976 335.570312,522.316406 L335.570312,424.083984 C335.570312,422.979415 336.465743,422.083984 337.570312,422.083984 L339.642578,422.083984 C340.747148,422.083984 341.642578,422.979415 341.642578,424.083984 L341.642578,522.316406 C341.642578,523.420976 342.538009,524.316406 343.642578,524.316406 L373.765625,524.316406 C374.870194,524.316406 375.765625,523.420976 375.765625,522.316406 L375.765625,479.404297 C375.765625,478.299727 376.661056,477.404297 377.765625,477.404297 L402.25,477.404297 C403.354569,477.404297 404.25,476.508866 404.25,475.404297 L404.25,461.875 C404.25,460.770431 403.354569,459.875 402.25,459.875 L395.777344,459.875 C394.672774,459.875 393.777344,458.979569 393.777344,457.875 L393.777344,445.233398 C393.777344,444.128829 394.672774,443.233398 395.777344,443.233398 L473.960938,443.233398 C475.065507,443.233398 475.960938,444.128829 475.960938,445.233398 L475.960937,457.875 C475.960937,458.979569 475.065507,459.875 473.960938,459.875 L466.833984,459.875 C465.729415,459.875 464.833984,460.770431 464.833984,461.875 L464.833984,475.404297 C464.833984,476.508866 465.729415,477.404297 466.833984,477.404297 L488.957031,477.404297 C490.061601,477.404297 490.957031,478.299727 490.957031,479.404297 L490.957031,550.082031 C490.957031,551.186601 491.852462,552.082031 492.957031,552.082031 L786.623047,552.082031 L786.623047,749 L-5,749 L-5,554.082031 C-5,552.977462 -4.1045695,552.082031 -3,552.082031 Z" id="Path-11" fill="#F0E0CC"></path>
        <g id="Group-5" transform="translate(-26.679688, 350.601563)">
            <path d="M308.383711,347.028509 L302.685884,335.878194 C302.379492,335.278602 301.791955,334.873429 301.122615,334.800143 L230.764003,327.09656 C230.323236,327.0483 229.911003,326.854938 229.592104,326.546868 L224.371496,321.503549 C223.577075,320.736106 223.555205,319.469965 224.322648,318.675543 C224.699511,318.285433 225.218662,318.065122 225.761075,318.065122 L294.909478,318.065124 C296.014048,318.065124 296.90948,317.169693 296.90948,316.065122 C296.90948,315.984342 296.904586,315.903637 296.894824,315.823449 C290.515567,263.417735 299.014169,223.850025 322.390629,197.120321 C345.622005,170.556512 371.104864,156.312563 398.839208,154.388473 L398.839207,154.388464 C399.824712,154.320094 400.612669,153.54243 400.693991,152.557909 L413.110885,2.23379658 C413.196559,1.19659282 414.063361,0.3984375 415.104097,0.3984375 L420.02918,0.3984375 C421.072517,0.3984375 421.940569,1.20046278 422.022938,2.24054315 L433.944806,152.780172 C434.029681,153.851907 434.946632,154.664807 436.020814,154.620605 C466.639911,153.360654 492.647624,167.527225 514.043952,197.120321 C535.56804,226.890121 543.848576,266.471735 538.885559,315.865165 L538.885553,315.865164 C538.775123,316.964203 539.576548,317.944671 540.675586,318.055102 C540.742028,318.061778 540.808762,318.065122 540.875539,318.065122 L606.383143,318.065122 C607.487712,318.065122 608.383143,318.960553 608.383143,320.065122 C608.383143,320.647331 608.129443,321.20064 607.688288,321.580574 L601.833438,326.62292 C601.531335,326.883099 601.158364,327.047048 600.762408,327.093718 L535.419036,334.795597 C534.770575,334.87203 534.200254,335.260193 533.891264,335.835404 L527.89814,346.992133 C527.375434,347.965196 527.740521,349.177757 528.713584,349.700463 C529.004562,349.85677 529.329724,349.938576 529.660027,349.938576 L788.100836,349.938576 C789.205406,349.938576 790.100836,350.834007 790.100836,351.938576 C790.100836,352.536538 789.833282,353.103132 789.371516,353.483042 L779.521618,361.586856 C779.224369,361.831412 778.862864,361.984995 778.480486,362.029174 L489.776654,395.385221 C489.700455,395.394025 489.623813,395.398437 489.547107,395.398437 L341.738082,395.398437 C341.670922,395.398437 341.603803,395.395055 341.536983,395.388302 L11.4023253,362.024285 C10.9977531,361.983399 10.6152553,361.820163 10.3058243,361.556339 L0.810442477,353.460494 C-0.0300894579,352.743849 -0.13051978,351.481508 0.586125073,350.640976 C0.966114471,350.195297 1.52236257,349.938576 2.10804277,349.938576 L306.602762,349.938576 C307.707332,349.938576 308.602762,349.043146 308.602762,347.938576 C308.602762,347.622164 308.527689,347.310266 308.383711,347.028509 Z" id="Path-40" fill="#FFFFFF"></path>
            <circle id="Oval" fill="#FFFFFF" cx="415.679688" cy="280.398437" r="134"></circle>
            <path d="M356.561938,220.763444 L364.597633,196.763444 C364.870641,195.948058 365.634276,195.398437 366.494152,195.398437 L410.679688,195.398437 C411.784257,195.398437 412.679688,196.293868 412.679688,197.398437 L412.679688,221.398437 C412.679688,222.503007 411.784257,223.398437 410.679688,223.398437 L358.458456,223.398437 C357.353887,223.398437 356.458456,222.503007 356.458456,221.398437 C356.458456,221.182575 356.493402,220.968137 356.561938,220.763444 Z" id="Path-42" fill="#F0E0CC"></path>
            <path d="M347.516156,222.572275 L356.343803,198.97014 C356.730753,197.935567 356.20575,196.783193 355.171176,196.396243 C354.790668,196.253926 354.375842,196.23086 353.981901,196.330116 L347.992487,197.839182 C347.492364,197.965191 347.060254,198.279532 346.786387,198.716565 L329.02677,227.057195 C328.44024,227.993174 328.723524,229.227411 329.659503,229.813941 C330.210266,230.159076 330.894396,230.215047 331.493933,229.964022 L346.415317,223.71646 C346.924421,223.503299 347.322806,223.089228 347.516156,222.572275 Z" id="Path-43" fill="#F0E0CC"></path>
            <path d="M318.202978,233.542024 L337.705005,202.53778 C338.065988,201.96389 337.893393,201.206026 337.319504,200.845043 C336.990896,200.638345 336.583882,200.599263 336.221945,200.739653 L333.37651,201.843363 C332.978753,201.997648 332.640756,202.275082 332.411896,202.635133 L312.186373,234.45481 C311.822939,235.02658 311.991829,235.784713 312.5636,236.148147 C312.937225,236.385634 313.409826,236.403382 313.800211,236.194586 L317.453296,234.240742 C317.759633,234.076899 318.018009,233.836087 318.202978,233.542024 Z" id="Path-44" fill="#F0E0CC"></path>
            <path d="M424.561938,220.763444 L432.597633,196.763444 C432.870641,195.948058 433.634276,195.398437 434.494152,195.398437 L478.679688,195.398437 C479.784257,195.398437 480.679688,196.293868 480.679688,197.398437 L480.679688,221.398437 C480.679688,222.503007 479.784257,223.398437 478.679688,223.398437 L426.458456,223.398437 C425.353887,223.398437 424.458456,222.503007 424.458456,221.398437 C424.458456,221.182575 424.493402,220.968137 424.561938,220.763444 Z" id="Path-42" fill="#F0E0CC" transform="translate(452.179688, 209.398437) scale(-1, 1) translate(-452.179688, -209.398437) "></path>
            <path d="M500.516156,222.572275 L509.343803,198.97014 C509.730753,197.935567 509.20575,196.783193 508.171176,196.396243 C507.790668,196.253926 507.375842,196.23086 506.981901,196.330116 L500.992487,197.839182 C500.492364,197.965191 500.060254,198.279532 499.786387,198.716565 L482.02677,227.057195 C481.44024,227.993174 481.723524,229.227411 482.659503,229.813941 C483.210266,230.159076 483.894396,230.215047 484.493933,229.964022 L499.415317,223.71646 C499.924421,223.503299 500.322806,223.089228 500.516156,222.572275 Z" id="Path-43" fill="#F0E0CC" transform="translate(494.679688, 213.898437) scale(-1, 1) translate(-494.679688, -213.898437) "></path>
            <path d="M505.202978,233.542024 L524.705005,202.53778 C525.065988,201.96389 524.893393,201.206026 524.319504,200.845043 C523.990896,200.638345 523.583882,200.599263 523.221945,200.739653 L520.37651,201.843363 C519.978753,201.997648 519.640756,202.275082 519.411896,202.635133 L499.186373,234.45481 C498.822939,235.02658 498.991829,235.784713 499.5636,236.148147 C499.937225,236.385634 500.409826,236.403382 500.800211,236.194586 L504.453296,234.240742 C504.759633,234.076899 505.018009,233.836087 505.202978,233.542024 Z" id="Path-44" fill="#F0E0CC" transform="translate(511.679688, 218.898437) scale(-1, 1) translate(-511.679688, -218.898437) "></path>
            <ellipse id="Oval" fill="#F0E0CC" cx="418.199067" cy="302.398437" rx="67.5193798" ry="67"></ellipse>
        </g>
        <rect id="Rectangle" fill="#FCF6EC" x="0" y="747" width="1440" height="277"></rect>
        <g id="Group-2" transform="translate(1011.333395, 369.660156)">
            <path d="M439.666605,212.391021 L260.999617,212.391021 L145.240044,0.33984375 L54.422502,0.33984375 L104.110514,212.391021 C55.1479081,216.90114 30.6666053,242.509533 30.6666053,289.2162 C30.6666053,335.922867 55.1479081,362.630748 104.110514,369.339844 L439.666605,369.339844 L439.666605,212.391021 Z" id="Path-39" fill="#FFFFFF"></path>
            <ellipse id="Oval" fill="#F0E0CC" cx="152.166605" cy="151.339844" rx="30.5" ry="30"></ellipse>
            <polygon id="Path-41" fill="#F0E0CC" points="101.002208 287.339844 297.666605 287.339844 38.1139759 201.339844 0.666605302 201.339844"></polygon>
            <rect id="Rectangle" fill="#F0E0CC" x="349.666605" y="247.339844" width="30" height="49" rx="14"></rect>
            <rect id="Rectangle-Copy-11" fill="#F0E0CC" x="391.666605" y="247.339844" width="30" height="49" rx="14"></rect>
        </g>
        <path d="M-13,738.030273 L94,738.030273 C95.1045695,738.030273 96,737.134843 96,736.030273 L96,604.240689 C96,603.13612 95.1045695,602.240689 94,602.240689 L-13,602.240689 C-14.1045695,602.240689 -15,601.345259 -15,600.240689 L-15,593.398438 C-15,592.293868 -14.1045695,591.398438 -13,591.398438 L94,591.398438 C95.1045695,591.398438 96,590.503007 96,589.398438 L96,291.191406 C96,290.086837 95.1045695,289.191406 94,289.191406 L-13,289.191406 C-14.1045695,289.191406 -15,288.295976 -15,287.191406 L-15,278.625 C-15,277.520431 -14.1045695,276.625 -13,276.625 L94,276.625 C95.1045695,276.625 96,275.729569 96,274.625 L96,-12.578125 C96,-13.6826945 96.8954305,-14.578125 98,-14.578125 L126.297453,-14.578125 C127.402023,-14.578125 128.297453,-13.6826945 128.297453,-12.578125 L128.297453,274.625 C128.297453,275.729569 129.192884,276.625 130.297453,276.625 L482.699219,276.625 C483.803788,276.625 484.699219,275.729569 484.699219,274.625 L484.699219,-12.578125 C484.699219,-13.6826945 485.594649,-14.578125 486.699219,-14.578125 L496.832031,-14.578125 C497.936601,-14.578125 498.832031,-13.6826945 498.832031,-12.578125 L498.832031,274.625 C498.832031,275.729569 499.727462,276.625 500.832031,276.625 L878.2469,276.625 C879.351469,276.625 880.2469,275.729569 880.2469,274.625 L880.2469,-12.578125 C880.2469,-13.6826945 881.142331,-14.578125 882.2469,-14.578125 L892.334381,-14.578125 C893.43895,-14.578125 894.334381,-13.6826945 894.334381,-12.578125 L894.334381,274.625 C894.334381,275.729569 895.229811,276.625 896.334381,276.625 L1243.11328,276.625 C1244.21785,276.625 1245.11328,275.729569 1245.11328,274.625 L1245.11328,-12.578125 C1245.11328,-13.6826945 1246.00871,-14.578125 1247.11328,-14.578125 L1272.93359,-14.578125 C1274.03816,-14.578125 1274.93359,-13.6826945 1274.93359,-12.578125 L1274.93359,274.625 C1274.93359,275.729569 1275.82902,276.625 1276.93359,276.625 L1449,276.625 C1450.10457,276.625 1451,277.520431 1451,278.625 L1451,287.191406 C1451,288.295976 1450.10457,289.191406 1449,289.191406 L1276.93359,289.191406 C1275.82902,289.191406 1274.93359,290.086837 1274.93359,291.191406 L1274.93359,589.398438 C1274.93359,590.503007 1275.82902,591.398438 1276.93359,591.398438 L1449,591.398438 C1450.10457,591.398438 1451,592.293868 1451,593.398438 L1451,600.240689 C1451,601.345259 1450.10457,602.240689 1449,602.240689 L1276.93359,602.240689 C1275.82902,602.240689 1274.93359,603.13612 1274.93359,604.240689 L1274.93359,736.030273 C1274.93359,737.134843 1275.82902,738.030273 1276.93359,738.030273 L1449,738.030273 C1450.10457,738.030273 1451,738.925704 1451,740.030273 L1451,747.640045 C1451,748.744614 1450.10457,749.640045 1449,749.640045 C1448.99925,749.640045 1448.99851,749.640044 1448.99776,749.640043 L-13.0022405,748.002238 C-14.1059344,748.001002 -15,747.105934 -15,746.002239 L-15,740.030273 C-15,738.925704 -14.1045695,738.030273 -13,738.030273 Z M130.285156,289.691406 C129.180587,289.691406 128.285156,290.586837 128.285156,291.691406 L128.285156,589.535156 C128.285156,590.639726 129.180587,591.535156 130.285156,591.535156 L482.285156,591.535156 C483.389726,591.535156 484.285156,590.639726 484.285156,589.535156 L484.285156,291.691406 C484.285156,290.586837 483.389726,289.691406 482.285156,289.691406 L130.285156,289.691406 Z M501,289.691406 C499.895431,289.691406 499,290.586837 499,291.691406 L499,589.535156 C499,590.639726 499.895431,591.535156 501,591.535156 L879,591.535156 C880.104569,591.535156 881,590.639726 881,589.535156 L881,291.691406 C881,290.586837 880.104569,289.691406 879,289.691406 L501,289.691406 Z M896,289.691406 C894.895431,289.691406 894,290.586837 894,291.691406 L894,589.535156 C894,590.639726 894.895431,591.535156 896,591.535156 L1243,591.535156 C1244.10457,591.535156 1245,590.639726 1245,589.535156 L1245,291.691406 C1245,290.586837 1244.10457,289.691406 1243,289.691406 L896,289.691406 Z M130.285156,602 C129.180587,602 128.285156,602.895431 128.285156,604 L128.285156,736 C128.285156,737.104569 129.180587,738 130.285156,738 L482.28125,738 C483.38582,738 484.28125,737.104569 484.28125,736 L484.28125,604 C484.28125,602.895431 483.38582,602 482.28125,602 L130.285156,602 Z M501,602 C499.895431,602 499,602.895431 499,604 L499,736 C499,737.104569 499.895431,738 501,738 L879,738 C880.104569,738 881,737.104569 881,736 L881,604 C881,602.895431 880.104569,602 879,602 L501,602 Z M896,602 C894.895431,602 894,602.895431 894,604 L894,736 C894,737.104569 894.895431,738 896,738 L1243,738 C1244.10457,738 1245,737.104569 1245,736 L1245,604 C1245,602.895431 1244.10457,602 1243,602 L896,602 Z" id="Combined-Shape" fill="#FCF6ED"></path>
        <g id="Group-7" transform="translate(32.000000, 569.527277)">
            <ellipse id="Oval" fill="#F4E6D4" cx="198" cy="262.972723" rx="198" ry="13.5"></ellipse>
            <path d="M95,179.472723 L360.685471,179.472723 C370.226997,178.589299 374.997761,171.35272 374.997761,157.762989 C374.997761,144.173257 374.997761,123.368457 374.997761,95.3485899 C375.145449,85.5229524 367.987812,80.6101337 353.524851,80.6101337 C331.830409,80.6101337 317.238407,80.6101337 299.45993,80.6101337 C281.681452,80.6101337 277.463399,80.6101337 259.916523,80.6101337 C248.218605,80.6101337 199.554358,80.6101337 113.923782,80.6101337 C101.307927,79.6814799 95,83.4598824 95,91.9453414 C95,100.4308 95,124.985643 95,165.609868 L95,179.472723 Z" id="Path-9" fill="#FEDEA6"></path>
            <polyline id="Path-10" fill="#FEDEA6" points="354 172.472723 354 243.472723 78 243.472723 78 172.472723 89.6529943 172.472723 89.6529943 234.257643 342.733304 234.257643 342.733304 172.472723"></polyline>
            <path d="M36.422336,249.472723 C25.474112,248.195686 20,240.094979 20,225.170604 C20,210.246229 20,187.926268 20,158.210722 C20.6433546,146.711482 25.4688876,140.961863 34.4765988,140.961863 C42.6842216,140.961863 44.8016196,140.961863 40.8287928,140.961863 L40.8287928,87.7696954 C40.5108472,83.571714 42.3181364,81.4727233 46.2506602,81.4727233 C50.1831841,81.4727233 59.7189387,81.4727233 74.857924,81.4727233 C78.3120368,82.6589638 80.0390932,84.7579545 80.0390932,87.7696954 C80.0390932,90.7814363 80.0390932,108.512159 80.0390932,140.961863 L86.0386364,140.961863 C95.3292147,141.447075 99.9745038,147.196695 99.9745038,158.210722 C99.9745038,169.224748 99.9745038,191.544709 99.9745038,225.170604 C100.467096,241.372017 93.8219587,249.472723 80.0390932,249.472723 C66.2562278,249.472723 51.7173087,249.472723 36.422336,249.472723 Z M47.0717987,87.2394593 C45.9672292,87.2394593 45.0717987,88.1348898 45.0717987,89.2394593 L45.0717987,138.964095 C45.0717987,140.068665 45.9672292,140.964095 47.0717987,140.964095 L72.8780755,140.964095 C73.982645,140.964095 74.8780755,140.068665 74.8780755,138.964095 L74.8780755,89.2394593 C74.8780755,88.1348898 73.982645,87.2394593 72.8780755,87.2394593 L47.0717987,87.2394593 Z" id="Combined-Shape" fill="#F58B44"></path>
            <circle id="Oval" fill="#F58B44" cx="39" cy="252" r="8"></circle>
            <circle id="Oval" fill="#F58B44" cx="80" cy="252" r="8"></circle>
            <path d="M104.163845,257.094153 C104.163845,257.094153 95.0244647,257.852431 95.0244647,245.535818 L95.0244647,224.125558 C95.0244647,224.125558 93.8820422,211.620229 107.210685,211.620229 L112.637192,211.620229 L112.719446,197.978052 C112.719446,197.978052 113.494009,185.472723 130.630346,185.472723 C147.766683,185.472723 148.718321,198.356623 148.718321,198.356623 L148.718321,211.620229 L156.715279,211.620229 C156.715279,211.620229 166.997081,211.241659 166.997081,224.504129 L166.997081,244.588824 C166.997081,244.588824 167.563722,257.472723 152.907584,257.472723 C138.250304,257.472723 104.163845,257.094153 104.163845,257.094153 Z M116.730492,209.620229 C116.730492,210.724799 117.625922,211.620229 118.730492,211.620229 L141.580847,211.620742 C141.581018,211.620742 141.581189,211.620742 141.58136,211.620742 C142.68593,211.620459 143.581131,210.724799 143.580847,209.620229 L143.57742,198.262264 C143.57742,198.262264 144.153201,189.735904 131.000491,189.735904 C117.846639,189.735904 116.730492,197.978052 116.730492,197.978052 L116.730492,209.620229 Z" id="Combined-Shape" fill="#F58B44"></path>
            <path d="M223.178235,48.1752278 C217.742591,37.993124 207.683303,37.1608207 209.432054,22.8360909 C210.939246,11.1538409 206.568503,8.86028398 211.189878,2.88525705 C214.045491,-0.941782706 222.958223,2.58856146 227.888068,1.45067275 C232.817912,0.312784042 243.513418,-1.42849682 246.611724,6.82564118 C249.71003,15.0797792 243.490737,26.1208555 255.332797,31.1080084 C267.174858,36.0951612 267.567249,42.4224447 264.100368,46.0161284 C260.633486,49.6098121 259.41435,57.357234 261.757359,61.9832405 C264.61902,65.3554211 263.686051,71.1852487 258.95845,79.4727233 C238.728736,65.3957954 226.801997,54.9632969 223.178235,48.1752278 Z" id="Path-2" fill="#49515E"></path>
            <path d="M198.600213,84.443418 C186.773127,93.9969107 179.39416,98.773657 176.46331,98.773657 C172.067036,98.773657 165.662283,100.176025 168.864659,89.133213 C172.067036,78.0904011 177.707696,73.9267727 189.371282,62.0757597 C201.034867,50.2247468 199.061212,43.0696218 201.56202,37.8074358 C204.062827,32.5452498 211.130016,26.7166891 214.927634,26.7166891 C216.77661,26.7166891 216.800659,28.6884866 217.29135,32.6320816 C217.412148,33.6029119 217.882665,35.3280299 218.702902,37.8074358 C213.895235,43.2898252 210.694723,46.9952872 209.101367,48.9238219 C207.508011,50.8523566 205.895634,53.0354282 204.264235,55.4730366 C207.889566,54.784115 211.444033,53.9473018 214.927634,52.9625972 C220.153035,51.4855403 225.832162,52.5562672 223.890819,45.5773126 C221.949476,38.598358 221.949476,43.2006444 218.702902,37.8074358 C216.538519,34.2119634 215.697084,26.4337259 216.178597,14.4727233 C218.425034,16.8282111 221.343016,17.6808166 224.932542,17.03054 C230.316832,16.0551251 233.084504,15.9614852 233.084504,18.1675951 C233.084504,20.3737051 232.547418,25.851078 237.161883,24.4436936 C241.776349,23.0363092 239.763395,28.4139112 237.161883,31.7966502 C234.560372,35.1793892 235.981413,53.1643688 245.481125,54.3187027 C254.980837,55.4730366 259.059335,61.2970999 261.127677,68.8657625 C263.196018,76.4344252 265.743917,98.2263099 267.722136,104.222604 C269.700356,110.218897 273.767665,122.928275 275.71684,134.560795 C277.666016,146.193315 281.941446,157.475801 286.991175,157.475801 C290.357661,157.475801 293.693936,160.141442 297,165.472723 L284.220705,165.471974 C280.754229,165.347864 277.137849,161.781747 273.371564,154.773623 C269.605279,147.765499 262.832025,130.915159 253.051803,104.222604 L250.799397,130.255593 L207.492346,127.731776 C209.293823,111.269744 208.217786,101.617038 204.264235,98.773657 C200.310683,95.930276 198.422676,91.1535296 198.600213,84.443418 Z" id="Path-3" fill="#F8C37C"></path>
            <rect id="Rectangle" fill="#F8C37C" x="214" y="27" width="9" height="11"></rect>
            <path d="M206.433068,54.1916231 C206.200206,62.109606 204.406268,68.3968736 201.051253,73.053426 C196.018731,80.0382546 194.933621,86.128015 196.968169,92.3680709 C199.002716,98.6081268 206.917644,98.5218047 206.917644,108.769833 C206.917644,115.601852 206.756119,121.992855 206.433068,127.942843 L249.747225,130.472723 L252,104.377182 C245.343142,88.8680673 241.839944,78.4268152 241.490408,73.053426 C240.966104,64.9933422 241.679538,59.0164431 249.747225,55.9546616 C247.729184,55.1235668 245.537121,54.6089863 243.252452,54.1916231 C233.393344,63.1657716 229.460781,70.2743565 220.486052,69.2583256 C214.5029,68.5809716 213.19904,62.9857708 216.574472,52.4727233 L206.433068,54.1916231 Z" id="Path-4" fill="#FCF6ED"></path>
            <path d="M205.688086,127.472723 C180.71111,142.464455 164.079803,153.524137 155.794166,160.651771 C143.36571,171.343221 158.04371,186.10691 166.629523,193.858856 C175.215336,201.610802 214.478815,233.721041 214.478815,242.439737 C214.478815,251.158434 211.482076,257.663241 214.478815,260.593782 C216.47664,262.547475 219.846493,259.71975 224.588374,252.110604 C221.840904,259.68535 222.42348,263.472723 226.336102,263.472723 C232.205034,263.472723 239.163117,248.342297 239.163117,240.933536 C239.163117,233.524775 243.258142,234.673212 234.996744,227.469689 C232.487288,225.281569 226.402086,221.872877 222.693879,217.70667 C216.727902,211.003834 214.75969,201.756587 209.641284,193.858856 C204.108085,185.321098 198.301525,178.415526 192.221604,173.142139 C208.327595,174.02814 222.740533,169.864684 235.460416,160.651771 C248.1803,151.438858 252.554238,141.225549 248.582229,130.011845 L205.688086,127.472723 Z" id="Path-5" fill="#808CAB"></path>
            <path d="M249.114164,55.4164637 C244.907491,56.6252666 242.193935,62.590089 240.973498,73.3109308 C239.210363,88.7990671 237.380681,103.48918 235.484453,117.381271 L257.161703,117.381271 L275,159.16499 C272.993601,163.364905 267.740294,165.464863 259.240079,165.464863 C250.739864,165.464863 243.769436,165.464863 238.328795,165.464863 C226.10787,165.735965 221.19432,158.994491 223.588146,145.240441 C225.981972,131.486391 229.947407,107.509888 235.484453,73.3109308 C237.42977,64.5662365 239.837345,59.0043264 242.707179,56.6252006 C247.01193,53.0565119 250.984769,54.8789388 249.114164,55.4164637 Z" id="Path-8" fill="#F58B44"></path>
            <path d="M340.560421,259.443632 C335.029077,259.847567 331.743582,256.045027 330.703934,248.036012 C329.144463,236.022488 328.579827,227.322885 328.579827,224.444001 C328.579827,221.565117 324,221.76746 324,217.52726 C324,213.287061 327.003551,211.472723 330.703934,211.472723 C334.404318,211.472723 374.884475,211.472723 377.07244,211.472723 C379.260406,211.472723 383,212.446216 383,217.52726 C383,222.608305 377.07244,222.22273 377.07244,226.339276 C377.07244,230.455821 376.433864,240.399831 374.687301,248.036012 C372.940738,255.672193 373.300357,259.443632 364.651565,259.443632 C358.885703,259.443632 350.855322,259.443632 340.560421,259.443632 Z" id="Path-6" fill="#F8C37C"></path>
            <path d="M345.634413,211.513055 C344.80252,209.478127 341.026491,208.460663 334.306325,208.460663 C324.226076,208.460663 331.799436,199.810356 329.902453,195.405009 C328.005469,190.999661 323.294402,195.910201 321.345845,188.107657 C319.397288,180.305112 326.416801,180.305112 324.226076,172.423212 C322.035351,164.541312 318.859137,160.85743 324.226076,157.732388 C329.593016,154.607347 331.78374,162.818231 334.306325,165.477564 C336.82891,168.136898 335.000316,173.986851 338.822312,173.986851 C342.644309,173.986851 338.024055,167.173841 343.229548,165.477564 C348.435042,163.781288 351.933027,160.750132 350.184034,153.294069 C348.435042,145.838006 353.762741,142.024472 356.824599,146.191194 C359.886456,150.357916 357.275301,160.428239 361.662356,163.050323 C366.049411,165.672408 370.679756,166.442491 367.43403,172.423212 C364.188304,178.403934 366.829731,180.014515 369.657268,180.014515 C372.484805,180.014515 379.554454,166.838151 386.050706,169.67483 C392.546958,172.511509 380.489808,180.970134 383.270257,184.538895 C386.050706,188.107657 389.868218,192.476679 381.388969,193.940844 C372.909721,195.405009 386.047342,202.706831 381.388969,205.583747 C376.730596,208.460663 373.205704,203.936282 367.43403,211.513055 C361.662356,219.089827 368.045056,210.27578 363.483102,205.583747 C360.441799,202.455725 358.222298,204.432161 356.824599,211.513055 L354.5,211.513055 C354.655771,205.353132 353.217116,202.27317 350.184034,202.27317 C347.150953,206.398165 346.663627,209.478127 348.722056,211.513055 L345.634413,211.513055 Z" id="Path-7" fill="#FA8F59"></path>
        </g>
        <g id="Group-9" transform="translate(1009.000000, 496.000000)">
            <ellipse id="Oval-Copy-2" fill="#F4E6D4" cx="88" cy="297" rx="88" ry="12"></ellipse>
            <g id="Group" transform="translate(12.000000, 0.000000)">
                <path d="M73.1280596,46.9387175 C65.2088397,36.6583178 62.8768055,25.4828731 66.1319569,13.4123835 C71.0146841,-4.69335099 92.7624405,-2.38969985 101.031449,8.07947532 C109.300458,18.5486505 105.952246,28.6127449 118.525122,40.8428416 C131.097998,53.0729383 136.549824,66.248879 130.939861,80.1828714 C125.329898,94.1168637 109.892984,98.8392011 101.031449,98.8392011 C95.1237593,98.8392011 85.8226295,81.5390399 73.1280596,46.9387175 Z" id="Path-24" fill="#49515E"></path>
                <rect id="Rectangle" fill="#616A7F" x="61.3077991" y="71.8393871" width="44.9812207" height="30.2040816"></rect>
                <path d="M60.3472626,96.0026524 L106.28902,96.0026524 C114.425597,117.808846 118.063076,135.522281 117.201456,149.142959 C116.339837,162.763636 115.274526,170.850831 114.005525,173.404544 L56.7540362,173.404544 C53.781319,165.494326 52.2949604,154.855384 52.2949604,141.487718 C52.2949604,128.120052 54.9790611,112.958364 60.3472626,96.0026524 Z" id="Path-21" fill="#808CAB"></path>
                <path d="M60.3472626,49.750686 C68.8372077,46.1980358 74.1553,42.6834028 76.3015393,39.2067872 C78.4477787,35.7301715 78.9400862,32.3505655 77.7784618,29.0679692 C75.4877515,27.2188868 74.3423963,24.4724653 74.3423963,20.8287047 C74.3423963,17.1849441 77.4944007,12.9352009 83.7984095,8.07947532 L93.6517176,16.6805595 C93.5593083,23.0818846 92.3404161,27.2110212 89.9950412,29.0679692 C86.4769787,31.8533911 89.2560918,38.4870806 96.0149888,42.3235495 C100.52092,44.8811955 104.278791,47.6925086 107.288602,50.7574887 C100.940341,54.8640115 93.110277,56.9172729 83.7984095,56.9172729 C74.4865419,56.9172729 66.6694929,54.5284106 60.3472626,49.750686 Z" id="Path-19" fill="#F8C37C"></path>
                <path d="M67.102255,102.26764 L61.3468453,79.5477204 C63.845802,83.4975858 67.6319817,85.4725185 72.7053845,85.4725185 C80.3154885,85.4725185 79.0191548,82.5681286 84.4817179,82.5681286 C89.9442811,82.5681286 90.8833422,85.4725185 94.7957713,85.4725185 C97.4040573,85.4725185 100.517992,83.4975858 104.137574,79.5477204 L100.348141,102.26764 L123.305353,102.26764 C123.305353,88.4634305 121.84047,77.0641426 118.910703,68.0697761 C115.980937,59.0754096 111.929894,52.9690463 106.757574,49.750686 C99.7578923,54.0025189 92.3326069,56.1284354 84.4817179,56.1284354 C76.630829,56.1284354 68.5860105,54.0025189 60.3472626,49.750686 C53.3189469,54.3114499 47.8960807,60.4178133 44.078664,68.0697761 C40.2612474,75.721739 39.5948589,87.1210268 42.0794987,102.26764 L67.102255,102.26764 Z" id="Path-18" fill="#808CAB"></path>
                <path d="M67.1168973,227.663739 C69.5774586,240.547667 71.7233726,251.718851 73.5546393,261.177291 C76.3015393,275.36495 71.2240693,286.446663 67.1168973,289.432659 C63.0097253,292.418655 59.4277247,292.313452 65.42034,292.313452 C71.4129553,292.313452 75.2248404,291.234875 78.0537375,286.446663 C80.8826346,281.658451 82.0437709,289.432659 82.0437709,292.313452 C82.9945458,292.313452 83.4603345,292.313452 83.4411367,292.313452 C82.8853792,285.884925 83.2420011,280.997736 84.5110026,277.651887 C86.4145048,272.633113 82.1296725,273.623201 83.4411367,258.534925 C84.3154462,248.476075 85.3524482,237.724556 86.5521426,226.280368 C88.853916,242.510474 90.36598,254.733033 91.0883347,262.948045 C92.1718667,275.270563 91.5441991,285.606513 94.8172467,290.201526 C96.9992784,293.264867 98.3245714,295.105265 98.7931258,295.722718 C101.227331,292.809479 102.444433,288.411436 102.444433,282.528588 C102.444433,273.704316 98.9546795,268.488901 100.224657,258.534925 C101.071309,251.898942 102.571496,240.481793 104.72522,224.283477 L67.1168973,224.283477 L67.1168973,227.663739 Z" id="Path-22" fill="#F8C37C"></path>
                <path d="M56.6993715,229.048092 C50.6901616,229.550838 47.6855566,226.507161 47.6855566,219.91706 C47.6855566,213.32696 47.6855566,198.503166 47.6855566,175.44568 C47.3517116,170.247143 50.3563166,167.647875 56.6993715,167.647875 C63.0424265,167.647875 69.5764824,167.647875 76.3015393,167.647875 L76.3015393,161.197061 C75.980059,157.637856 77.7468995,155.858254 81.6020608,155.858254 C87.3848028,155.858254 95.2243033,155.858254 100.062127,155.858254 C104.899951,155.858254 105.362649,157.641789 105.362649,162.615827 C105.362649,165.931853 105.362649,167.609202 105.362649,167.647875 L126.957149,167.647875 C131.622519,167.799944 133.955204,170.399212 133.955204,175.44568 C133.955204,180.492147 133.955204,195.315941 133.955204,219.91706 C133.949347,226.004415 131.135743,229.048092 125.514392,229.048092 C119.893041,229.048092 96.9547006,229.048092 56.6993715,229.048092 Z M82.2998701,159.431224 C81.1953006,159.431224 80.2998701,160.326654 80.2998701,161.431224 L80.2998701,165.485646 C80.2998701,166.590215 81.1953006,167.485646 82.2998701,167.485646 L99.2911064,167.485646 C100.395676,167.485646 101.291106,166.590215 101.291106,165.485646 L101.291106,161.431224 C101.291106,160.326654 100.395676,159.431224 99.2911064,159.431224 L82.2998701,159.431224 Z" id="Combined-Shape" fill="#F58B44"></path>
                <path d="M49.0668159,102.26764 C54.7031347,114.134933 61.1499874,124.910213 68.4073742,134.593479 C75.6647609,144.276745 80.1815472,153.617528 81.957733,162.615827 L99.3592957,162.615827 C100.602266,152.414084 102.912174,144.097146 106.28902,137.665014 C109.665865,131.232882 113.744566,119.433757 118.525122,102.26764 L103.414243,102.26764 C98.3278253,124.423854 95.3121572,137.387095 94.3672392,141.157361 C93.4223212,144.927628 92.4617847,151.068731 91.4856298,159.580671 C84.2659877,144.84045 78.7080867,133.145873 74.8119269,124.496939 C70.915767,115.848006 67.7442396,108.438239 65.2973445,102.26764 L49.0668159,102.26764 Z" id="Path-20" fill="#F8C37C"></path>
                <path d="M50.5398337,292.688053 C27.4095165,292.688053 13.1944226,292.688053 7.8945519,292.688053 C2.59468123,292.688053 -0.0367071641,289.612585 0.000386724481,283.46165 C0.000386724481,240.975362 0.000386724481,217.253228 0.000386724481,212.295249 C0.000386724481,207.539104 1.94639573,205.1544 5.83841374,205.141136 C6.55443332,205.138696 7.27040243,205.128161 7.98618382,205.109532 L17.640483,204.858281 L17.640483,197.788744 C17.640483,196.8647 16.8913974,196.115615 15.9673534,196.115615 C15.0433095,196.115615 14.2942238,195.366529 14.2942238,194.442485 L14.2942238,194.297757 C14.2942238,193.293782 15.1081064,192.479899 16.1120815,192.479899 L41.4808586,192.479899 C42.4848336,192.479899 43.2987162,193.293782 43.2987162,194.297757 L43.2987162,194.501543 C43.2987162,195.39297 42.5760715,196.115615 41.684644,196.115615 C40.7932165,196.115615 40.0705718,196.83826 40.0705718,197.729687 L40.0705718,204.858281 C42.2226681,204.858281 45.7124221,204.858281 50.5398337,204.858281 C55.3672454,204.858281 57.8492821,207.33727 57.9859438,212.295249 C57.9859438,253.943846 57.9859438,277.66598 57.9859438,283.46165 C57.9859438,289.25732 55.5039071,292.332788 50.5398337,292.688053 Z M22.3249092,195.676122 C21.2203397,195.676122 20.3249092,196.571552 20.3249092,197.676122 L20.3249092,203.152259 C20.3249092,204.256829 21.2203397,205.152259 22.3249092,205.152259 L35.3178148,205.152259 C36.4223843,205.152259 37.3178148,204.256829 37.3178148,203.152259 L37.3178148,197.676122 C37.3178148,196.571552 36.4223843,195.676122 35.3178148,195.676122 L22.3249092,195.676122 Z" id="Combined-Shape" fill="#F58B44"></path>
            </g>
        </g>
        <g id="Group-8" transform="translate(1220.000000, 539.638153)">
            <ellipse id="Oval-Copy-3" fill="#F4E6D4" cx="93" cy="325.361847" rx="93" ry="13"></ellipse>
            <path d="M67.6783076,133.361847 C68.4869728,140.629015 66.4987171,153.63949 61.7135403,172.393271 C54.5357752,200.523942 55.3489177,260.772049 55.3489177,271.315467 C55.3489177,281.858886 57.474247,309.978131 49.614558,312.545947 C41.754869,315.113763 33.1605621,314.19446 29.0535207,317.473826 C26.3154931,319.660071 26.3154931,321.956078 29.0535207,324.361847 L67.0032687,324.361847 C67.9979031,324.361847 68.8413924,323.630941 68.9829188,322.646427 L82.4646898,228.861847 L98.161337,308.278719 C92.4049353,312.220469 86.5242031,314.738424 80.5191404,315.832585 C74.5140776,316.926746 73.0207332,319.769833 76.0391073,324.361847 L110.770006,324.361847 C111.874575,324.361847 112.770006,323.466416 112.770006,322.361847 C112.770006,304.817312 112.770006,287.272776 112.770006,269.728241 C112.770006,254.034648 114.180004,222.057447 117,173.796636 L117,141.76438 L67.6783076,133.361847 Z" id="Path-30" fill="#616A7F"></path>
            <path d="M76.132785,52.3618469 L76.132785,41.5398472 C76.132785,39.8829929 74.7896392,38.5398472 73.132785,38.5398472 L71.5663925,38.5398472 C69.0444436,38.5398472 67,36.4954036 67,33.9734547 L67,21.3618469 C67,18.0481384 69.6862915,15.3618469 73,15.3618469 L93.7814336,15.3618469 L97.4383079,25.1057394 C95.4383079,30.1176606 94.4383079,34.5956966 94.4383079,38.5398472 C94.4383079,42.4839978 94.9588719,47.091331 96,52.3618469 L76.132785,52.3618469 Z" id="Path-26" fill="#F8C37C"></path>
            <path d="M71.0309082,17.4547585 C63.7287318,15.1475443 58,14.9561413 58,7.19599795 C58,-0.564145421 64.5008546,-1.68773434 71.0309082,3.683064 C77.5609617,9.05386235 82.0891351,5.14598875 89.1330902,7.19280962 C96.1770454,9.2396305 99,17.8317659 99,24.4024647 C99,28.7829306 98.3334853,34.1027246 97.0004558,40.3618469 C93.4919098,39.3042962 91.7376367,37.1964967 91.7376367,34.0384485 C91.7376367,29.3013761 94.3421832,28.5592887 91.7376367,26.2556272 C89.1330902,23.9519656 86.6435876,28.6461962 82.6001168,26.2556272 C78.556646,23.8650581 88.2927444,22.3362688 85.296348,17.4547585 C82.2999516,12.5732483 78.3330845,19.7619728 71.0309082,17.4547585 Z" id="Path-27" fill="#49515E"></path>
            <polygon id="Path-28" fill="#FCF6ED" points="75.5964025 52.122875 71.7189621 45.3618469 94.8544256 45.3618469 98.8496774 52.122875 102.519398 53.0405841 106 139.361847 69 133.165882 69 52.122875"></polygon>
            <path d="M83.1182887,44.3618469 L88.6663846,51.1793557 L86.661354,55.0987163 C90.2204513,61.5157703 92,71.3511797 92,84.6049448 C92,104.485592 92,137.055458 92,139.651956 C92,141.382954 90.8887949,143.952918 88.6663846,147.361847 C84.967654,144.556917 83.1182887,141.25587 83.1182887,137.458706 C83.1182887,131.762959 83.1182887,87.8592081 83.1182887,80.6237878 C83.1182887,75.8001742 83.1182887,67.2918171 83.1182887,55.0987163 L81,51.1793557 L83.1182887,44.3618469 Z" id="Path-29" fill="#808CAB"></path>
            <path d="M47.7856672,170.361847 C47.6420468,173.053871 46.9100129,175.809658 45.5895656,178.629206 C43.6088947,182.85853 46.9414915,185.361847 50.7910562,185.361847 C54.6406209,185.361847 58.3691357,183.052028 56.5048783,178.629206 C55.26204,175.680659 54.4276109,172.924872 54.0015911,170.361847 L47.7856672,170.361847 Z" id="Path-33" fill="#F8C37C"></path>
            <path d="M101.610069,151.273809 C101.950111,160.231574 105.404067,165.966321 111.971939,168.47805 C118.539811,170.989779 127.549164,170.989779 139,168.47805 L139,130.716348 L122.845956,61.2721398 C118.014688,57.8603018 114.609553,55.6000794 112.630552,54.4914724 C110.549683,54.3521985 108.424367,53.9756567 106.254605,53.3618469 L98,81.9236359 L101.610069,151.273809 Z" id="Path-36" fill="#808CAB"></path>
            <path d="M109,198.886568 L127.125311,198.886568 L127.125311,189.361847 C127.125311,187.152708 128.916172,185.361847 131.125311,185.361847 L147.778573,185.361847 C149.987712,185.361847 151.778573,187.152708 151.778573,189.361847 L151.778573,198.886568 L169,198.886568 C171.209139,198.886568 173,200.677429 173,202.886568 L173,246.361847 C173,248.570986 171.209139,250.361847 169,250.361847 L109,250.361847 C106.790861,250.361847 105,248.570986 105,246.361847 L105,202.886568 C105,200.677429 106.790861,198.886568 109,198.886568 Z M131.424497,189.427245 L131.424497,198.990334 L147.456424,198.990334 L147.456424,189.427245 L131.424497,189.427245 Z" id="Combined-Shape" fill="#49515E"></path>
            <path d="M134.350034,176.361847 C133.441481,181.515111 134.301617,185.894804 136.930442,189.500925 C139.559268,193.107047 141.915787,194.187066 144,192.740982 L144,179.396878" id="Path-37" fill="#F8C37C"></path>
            <path d="M65.0355182,127.612448 C63.5851684,134.884867 61.8208207,143.272984 59.7424751,152.776799 C57.6641295,162.280614 56.6249567,168.784479 56.6249567,172.288393 C50.8355567,172.662135 47.1507744,171.609648 45.5706097,169.130932 C43.2003626,165.412859 48.9807471,141.235021 48.9807471,112.03654 C48.9807471,82.8380597 48.5083516,78.7655882 50.4413485,68.7066873 C51.7300132,62.0007533 54.8303887,57.2191399 59.7424751,54.3618469 L67,71.761559 L65.0355182,127.612448 Z" id="Path-32" fill="#808CAB"></path>
            <path d="M73,52.5969078 C69.624289,71.3088868 67.9364335,87.0793465 67.9364335,99.9082868 C67.9364335,112.737227 68.2930178,128.55508 69.0061864,147.361847 C62.6036877,137.492296 58.4740655,125.689313 56.61732,111.9529 C54.7605745,98.2164858 57.0923014,89.2796589 63.6125008,85.1424189 C60.6379471,80.6866309 58.6628045,75.7471936 57.6870729,70.3241072 C56.7113413,64.9010208 56.7113413,60.1826248 57.6870729,56.1689193 C60.0680208,54.3186697 62.6813135,53.1725324 65.5269512,52.7305075 C68.3725888,52.2884826 70.8636051,52.2439494 73,52.5969078 Z" id="Path-31" fill="#616A7F"></path>
            <path d="M97.3888354,51.3618469 C95.7962785,60.3808151 95,69.128139 95,77.6038185 C95,86.079498 97.0546893,111.332174 101.164068,153.361847 C107.853534,133.646811 111.198268,117.372915 111.198268,104.540159 C111.198268,91.7074026 107.853534,84.0571857 101.164068,81.5895081 C108.388023,75.5383517 112,69.755557 112,64.241124 C112,58.726691 112,55.1369631 112,53.4719404 C110.438093,52.9771672 108.30823,52.5251531 105.610411,52.1158981 C102.912592,51.706643 100.172067,51.4552926 97.3888354,51.3618469 Z" id="Path-34" fill="#616A7F"></path>
            <path d="M112,54.3618469 C124.705683,58.1192351 132.940119,67.6008565 136.703308,82.8067111 C140.466497,98.0125657 142.898728,130.864278 144,181.361847 L131.099237,177.1536 C131.616285,137.386156 128.593045,109.880343 122.029517,94.636162 C115.465988,79.3919809 112.122816,65.9672092 112,54.3618469 Z" id="Path-35" fill="#808CAB"></path>
        </g>
    </g>
</svg>