<?xml version="1.0" encoding="UTF-8"?>
<svg width="1440px" height="1024px" viewBox="0 0 1440 1024" version="1.1" xmlns="http://www.w3.org/2000/svg" xmlns:xlink="http://www.w3.org/1999/xlink">
    <!-- Generator: Sketch 53 (72520) - https://sketchapp.com -->
    <title>Desktop HD Copy 6</title>
    <desc>Created with Sketch.</desc>
    <defs>
        <linearGradient x1="84.1883344%" y1="8.22115385%" x2="32.3634285%" y2="69.2460664%" id="linearGradient-1">
            <stop stop-color="#FFFFFF" offset="0%"></stop>
            <stop stop-color="#FFFFFF" stop-opacity="0" offset="100%"></stop>
        </linearGradient>
        <linearGradient x1="79.7720365%" y1="10.2229021%" x2="24.3017476%" y2="77.0979021%" id="linearGradient-2">
            <stop stop-color="#FFFFFF" offset="0%"></stop>
            <stop stop-color="#FFFFFF" stop-opacity="0" offset="100%"></stop>
        </linearGradient>
        <linearGradient x1="86.7611516%" y1="8.59132356%" x2="35.3661381%" y2="64.3775406%" id="linearGradient-3">
            <stop stop-color="#FFFFFF" offset="0%"></stop>
            <stop stop-color="#FFFFFF" stop-opacity="0" offset="100%"></stop>
        </linearGradient>
        <linearGradient x1="82.9673736%" y1="4.61875873%" x2="36.9535322%" y2="63.7646212%" id="linearGradient-4">
            <stop stop-color="#FFFFFF" offset="0%"></stop>
            <stop stop-color="#FFFFFF" stop-opacity="0" offset="100%"></stop>
        </linearGradient>
    </defs>
    <g id="Desktop-HD-Copy-6" stroke="none" stroke-width="1" fill="none" fill-rule="evenodd">
        <polygon id="Rectangle" fill="url(#linearGradient-1)" points="534.51377 3 619 3 -8.51377033 718 -93 718"></polygon>
        <polygon id="Rectangle-Copy-10" fill="url(#linearGradient-2)" points="649.714245 3 699 3 69.2857549 718 20 718"></polygon>
        <polygon id="Rectangle-Copy-12" fill="url(#linearGradient-3)" points="1254.82056 2 1363 2 734.179441 718 626 718"></polygon>
        <polygon id="Rectangle-Copy-13" fill="url(#linearGradient-4)" points="1157.35118 2 1195 2 564.64882 718 527 718"></polygon>
        <path d="M96,577.6875 L96,291.191406 C96,290.086837 95.1045695,289.191406 94,289.191406 L-13,289.191406 C-14.1045695,289.191406 -15,288.295976 -15,287.191406 L-15,278.625 C-15,277.520431 -14.1045695,276.625 -13,276.625 L94,276.625 C95.1045695,276.625 96,275.729569 96,274.625 L96,-12.578125 C96,-13.6826945 96.8954305,-14.578125 98,-14.578125 L126.297453,-14.578125 C127.402023,-14.578125 128.297453,-13.6826945 128.297453,-12.578125 L128.297453,274.625 C128.297453,275.729569 129.192884,276.625 130.297453,276.625 L482.699219,276.625 C483.803788,276.625 484.699219,275.729569 484.699219,274.625 L484.699219,-12.578125 C484.699219,-13.6826945 485.594649,-14.578125 486.699219,-14.578125 L496.832031,-14.578125 C497.936601,-14.578125 498.832031,-13.6826945 498.832031,-12.578125 L498.832031,274.625 C498.832031,275.729569 499.727462,276.625 500.832031,276.625 L878.2469,276.625 C879.351469,276.625 880.2469,275.729569 880.2469,274.625 L880.2469,-12.578125 C880.2469,-13.6826945 881.142331,-14.578125 882.2469,-14.578125 L892.334381,-14.578125 C893.43895,-14.578125 894.334381,-13.6826945 894.334381,-12.578125 L894.334381,274.625 C894.334381,275.729569 895.229811,276.625 896.334381,276.625 L1243.11328,276.625 C1244.21785,276.625 1245.11328,275.729569 1245.11328,274.625 L1245.11328,-12.578125 C1245.11328,-13.6826945 1246.00871,-14.578125 1247.11328,-14.578125 L1272.93359,-14.578125 C1274.03816,-14.578125 1274.93359,-13.6826945 1274.93359,-12.578125 L1274.93359,274.625 C1274.93359,275.729569 1275.82902,276.625 1276.93359,276.625 L1449,276.625 C1450.10457,276.625 1451,277.520431 1451,278.625 L1451,287.191406 C1451,288.295976 1450.10457,289.191406 1449,289.191406 L1276.93359,289.191406 C1275.82902,289.191406 1274.93359,290.086837 1274.93359,291.191406 L1274.93359,575.6875 C1274.93359,576.792069 1274.03816,577.6875 1272.93359,577.6875 L1245.11328,577.6875 L1245.11328,289.191406 L894.334381,289.191406 L894.334381,577.6875 L880.2469,577.6875 L880.2469,289.191406 L498.832031,289.191406 L498.832031,577.6875 L484.699219,577.6875 L484.699219,289.191406 L128.297453,289.191406 L128.297453,577.6875 L96,577.6875 Z" id="Combined-Shape" fill="#FCF6ED"></path>
    </g>
</svg>