<svg id="Layer_1" data-name="Layer 1" xmlns="http://www.w3.org/2000/svg" viewBox="0 0 35.92 46"><defs><style>.cls-1{fill:#f58b44;}.cls-2{fill:#fff;}</style></defs><title>passport</title><g id="Page-1"><g id="Desktop-HD-Copy-3"><g id="Group-13"><g id="Group-17"><g id="Rectangle"><path class="cls-1" d="M6,0H30.08A6,6,0,0,1,36,6V40a6,6,0,0,1-5.92,6H6A6,6,0,0,1,.08,40V6A6,6,0,0,1,6,0Z" transform="translate(-0.08)"/></g></g></g></g></g><line class="cls-2" x1="18.13" y1="27.75" x2="18.13" y2="8.67"/><rect class="cls-2" x="17.13" y="8.67" width="2" height="19.08"/><path class="cls-2" d="M18,28.75A10.54,10.54,0,1,1,28.58,18.21,10.55,10.55,0,0,1,18,28.75ZM18,9.67a8.54,8.54,0,1,0,8.54,8.54A8.55,8.55,0,0,0,18,9.67Z" transform="translate(-0.08)"/><line class="cls-2" x1="27.67" y1="18.21" x2="8.58" y2="18.21"/><rect class="cls-2" x="8.58" y="17.21" width="19.08" height="2"/><path class="cls-2" d="M17.62,28.24c-.22-.1-5.29-2.52-5.29-10,0-7.93,5.25-10.36,5.47-10.46l.81,1.83-.41-.91.41.91c-.18.08-4.29,2-4.29,8.63,0,6.18,4,8.14,4.13,8.22Z" transform="translate(-0.08)"/><path class="cls-2" d="M18.81,28.22l-.91-1.78c.16-.08,4.1-2.23,4.1-8.44,0-6.63-4.13-8.39-4.17-8.41l.76-1.85C18.81,7.83,24,10,24,18,24,25.48,19,28.12,18.81,28.22Z" transform="translate(-0.08)"/><rect class="cls-2" x="6.08" y="35.42" width="23.83" height="2"/></svg>