<?xml version="1.0" encoding="UTF-8"?>
<svg width="134px" height="119px" viewBox="0 0 134 119" version="1.1" xmlns="http://www.w3.org/2000/svg" xmlns:xlink="http://www.w3.org/1999/xlink">
    <!-- Generator: Sketch 53 (72520) - https://sketchapp.com -->
    <title>Group 6</title>
    <desc>Created with Sketch.</desc>
    <g id="Page-1" stroke="none" stroke-width="1" fill="none" fill-rule="evenodd">
        <g id="Desktop-HD-Copy-8" transform="translate(-195.000000, -118.000000)">
            <g id="Group-6" transform="translate(194.730508, 117.201172)">
                <path d="M77.2723692,3.31668919 L77.2723692,116.45585 C77.3393473,118.684502 78.519928,119.798828 80.8141114,119.798828 C83.1082947,119.798828 84.5096823,118.684502 85.0182741,116.45585 L109.269492,57.1084475 L83.0243881,3.31668919 C82.411649,1.63811515 81.285534,0.798828125 79.646043,0.798828125 C78.006552,0.798828125 77.2153274,1.63811515 77.2723692,3.31668919 Z" id="Path-15" fill="#F0E0CC"></path>
                <path d="M133.355517,58.9704449 C129.88033,61.9079217 122.454633,65.7988281 109.65572,65.7988281 C96.8568075,65.7988281 82.0587105,65.7988281 61.5980709,65.7988281 C41.1374312,65.7988281 12.5854249,64.12788 11.0648267,61.5491625 C9.54422839,58.9704449 -1.50458227,37.8645332 0.515268228,37.8645332 C2.53511873,37.8645332 7.90072052,37.3927105 11.0648267,38.9777738 C14.2289328,40.5628371 18.7711491,51.8249197 27.1931752,50.3504401 C35.6152013,48.8759604 84.4994991,46.8316441 107.670676,48.0054596 C130.841853,49.179275 136.830704,56.0329682 133.355517,58.9704449 Z" id="Path-14" fill="#F0E0CC"></path>
                <path d="M125.269492,50.7988281 L125.269492,54.7988281 L133.269492,54.7988281 C132.144025,53.9390276 131.107758,53.2723609 130.160693,52.7988281 C129.213627,52.3252953 127.583227,51.6586287 125.269492,50.7988281 Z" id="Path-16" fill="#FCF6EC"></path>
                <rect id="Rectangle" fill="#FCF6EC" x="115.269492" y="50.7988281" width="4" height="7" rx="2"></rect>
                <rect id="Rectangle-Copy-3" fill="#FCF6EC" x="92.2694924" y="50.7988281" width="4" height="7" rx="2"></rect>
                <rect id="Rectangle-Copy-6" fill="#FCF6EC" x="68.2694924" y="50.7988281" width="4" height="7" rx="2"></rect>
                <rect id="Rectangle-Copy" fill="#FCF6EC" x="107.269492" y="50.7988281" width="4" height="7" rx="2"></rect>
                <rect id="Rectangle-Copy-4" fill="#FCF6EC" x="84.2694924" y="50.7988281" width="4" height="7" rx="2"></rect>
                <rect id="Rectangle-Copy-7" fill="#FCF6EC" x="61.2694924" y="50.7988281" width="4" height="7" rx="2"></rect>
                <rect id="Rectangle-Copy-2" fill="#FCF6EC" x="100.269492" y="50.7988281" width="4" height="7" rx="2"></rect>
                <rect id="Rectangle-Copy-5" fill="#FCF6EC" x="76.2694924" y="50.7988281" width="4" height="7" rx="2"></rect>
                <rect id="Rectangle-Copy-8" fill="#FCF6EC" x="53.2694924" y="50.7988281" width="4" height="7" rx="2"></rect>
                <rect id="Rectangle-Copy-9" fill="#FCF6EC" x="45.2694924" y="50.7988281" width="4" height="7" rx="2"></rect>
            </g>
        </g>
    </g>
</svg>