<svg width="1445" height="406" viewBox="0 0 1445 406" fill="none" xmlns="http://www.w3.org/2000/svg">
<path d="M919.33 211.636H790C788.895 211.636 788 212.532 788 213.636V230.137H743.34V242.5L613.943 242.075V259.228H497.957C496.852 259.228 495.957 258.333 495.957 257.228V186.551C495.957 185.446 495.062 184.551 493.957 184.551H471.834C470.729 184.551 469.834 183.655 469.834 182.551V169.021C469.834 167.917 470.729 167.021 471.834 167.021H478.961C480.066 167.021 480.961 166.126 480.961 165.021V152.38C480.961 151.275 480.066 150.38 478.961 150.38H400.777C399.673 150.38 398.777 151.275 398.777 152.38V165.021C398.777 166.126 399.673 167.021 400.777 167.021H407.25C408.355 167.021 409.25 167.917 409.25 169.021V182.551C409.25 183.655 408.355 184.551 407.25 184.551H382.766C381.661 184.551 380.766 185.446 380.766 186.551V229.463C380.766 230.567 379.87 231.463 378.766 231.463H348.643C347.538 231.463 346.643 230.567 346.643 229.463V131.23C346.643 130.126 345.747 129.23 344.643 129.23H342.57C341.466 129.23 340.57 130.126 340.57 131.23V229.463C340.57 230.567 339.675 231.463 338.57 231.463H328.312C327.208 231.463 326.312 230.567 326.312 229.463V131.23C326.312 130.126 325.417 129.23 324.312 129.23H322.535C321.431 129.23 320.535 130.126 320.535 131.23V229.463C320.535 230.567 319.64 231.463 318.535 231.463H305.975C304.87 231.463 303.975 230.567 303.975 229.463V131.23C303.975 130.126 303.079 129.23 301.975 129.23H299.682C298.577 129.23 297.682 130.126 297.682 131.23V229.463C297.682 230.567 296.786 231.463 295.682 231.463H284.044C282.94 231.463 282.044 230.567 282.044 229.463V131.23C282.044 130.126 281.149 129.23 280.044 129.23H277.002C275.897 129.23 275.002 130.126 275.002 131.23V229.463C275.002 230.567 274.107 231.463 273.002 231.463H167.891C166.786 231.463 165.891 230.567 165.891 229.463V126.115C165.891 125.01 166.786 124.115 167.891 124.115H177.582C178.687 124.115 179.582 123.22 179.582 122.115V94.4119C179.582 93.3073 178.687 92.4119 177.582 92.4119H168.748C168.514 92.4119 168.283 92.371 168.063 92.291C167.025 91.9128 166.491 90.765 166.869 89.7271L178.604 57.5224C178.684 57.3029 178.725 57.0712 178.725 56.8376C178.725 55.7331 177.829 54.8376 176.725 54.8376H158.301C157.196 54.8376 156.301 53.9422 156.301 52.8376V47.8572C156.301 46.7526 157.196 45.8572 158.301 45.8572H163.891C164.995 45.8572 165.891 44.9617 165.891 43.8572V43.531C165.891 42.4264 164.995 41.531 163.891 41.531H85C83.8954 41.531 83 42.4264 83 43.531V43.8572C83 44.9617 83.8954 45.8572 85 45.8572H90.5C91.6046 45.8572 92.5 46.7526 92.5 47.8572V52.8376C92.5 53.9422 91.6046 54.8376 90.5 54.8376H72.8083C72.5857 54.8376 72.3647 54.8748 72.1544 54.9476C71.1105 55.3087 70.5571 56.4477 70.9182 57.4916L82.0818 89.7579C82.1546 89.9683 82.1917 90.1893 82.1917 90.4119C82.1917 91.5164 81.2963 92.4119 80.1917 92.4119H72C70.8954 92.4119 70 93.3073 70 94.4119V122.115C70 123.22 70.8954 124.115 72 124.115H81C82.1046 124.115 83 125.01 83 126.115V229.463C83 230.567 82.1046 231.463 81 231.463H43C41.8954 231.463 41 232.358 41 233.463V257.228C41 258.333 40.1046 259.228 39 259.228H2C0.89543 259.228 0 260.124 0 261.228V404.5H613.943V405.636L1445 404.636V216.171H1418C1416.9 216.171 1416 215.276 1416 214.171V147.378C1416 146.273 1415.1 145.378 1414 145.378H1391.3C1390.19 145.378 1389.3 144.482 1389.3 143.378V134.262C1389.3 133.157 1390.19 132.262 1391.3 132.262H1406.28C1407.39 132.262 1408.28 131.367 1408.28 130.262V115.152C1408.28 114.047 1407.39 113.152 1406.28 113.152H1390.29C1389.67 113.152 1389.08 112.86 1388.7 112.364L1363.37 79.1417C1363.24 78.9686 1363.08 78.8182 1362.9 78.6964C1361.99 78.0784 1360.74 78.3197 1360.13 79.2352L1337.83 112.27C1337.46 112.821 1336.84 113.152 1336.17 113.152H1320.73C1319.63 113.152 1318.73 114.047 1318.73 115.152V130.17C1318.73 131.274 1319.63 132.17 1320.73 132.17H1335.23C1336.34 132.17 1337.23 133.065 1337.23 134.17V143.368L1337.23 143.378C1337.23 144.482 1336.33 145.374 1335.22 145.368L1311.89 145.259H1311.88C1310.78 145.259 1309.88 146.155 1309.88 147.259V213.137C1309.88 214.242 1308.99 215.137 1307.88 215.137H1266.41C1265.31 215.137 1264.41 216.032 1264.41 217.137V240.092C1264.41 241.19 1263.53 242.082 1262.43 242.092L1218.41 242.483C1217.31 242.492 1216.42 243.385 1216.42 244.483V282.378C1216.42 283.482 1215.53 284.378 1214.42 284.378H1132C1130.89 284.378 1130 283.482 1130 282.378V264.605C1130 263.501 1129.1 262.605 1128 262.605H1103.84C1102.74 262.605 1101.84 261.71 1101.84 260.605V184.705C1101.84 184.682 1101.84 184.66 1101.84 184.638C1101.81 183.534 1100.88 182.669 1099.78 182.706L1085.45 183.187C1085.43 183.188 1085.4 183.188 1085.38 183.188C1084.28 183.188 1083.38 182.293 1083.38 181.188V162.427C1083.38 161.322 1082.49 160.427 1081.38 160.427H1072.59C1071.48 160.427 1070.59 159.532 1070.59 158.427V115.152C1070.59 114.047 1069.69 113.152 1068.59 113.152H1049.07C1048.02 113.152 1047.15 112.339 1047.08 111.291L1039.42 1.86041C1039.35 0.849558 1038.54 0.0513629 1037.52 0.00238088C1036.42 -0.0510111 1035.48 0.800073 1035.43 1.90335L1030.14 111.248C1030.09 112.314 1029.21 113.152 1028.14 113.152H1008.23C1007.13 113.152 1006.23 114.047 1006.23 115.152V158.427C1006.23 159.532 1005.33 160.427 1004.23 160.427H996.451C995.347 160.427 994.451 161.322 994.451 162.427V180.256C994.451 181.36 993.556 182.256 992.451 182.256H976.797C975.692 182.256 974.797 183.151 974.797 184.256V260.605C974.797 261.71 973.901 262.605 972.797 262.605H945.987C944.882 262.605 943.987 261.71 943.987 260.605V232.137C943.987 231.032 943.091 230.137 941.987 230.137H923.33C922.225 230.137 921.33 229.241 921.33 228.137V213.636C921.33 212.532 920.434 211.636 919.33 211.636Z" fill="#F0E0CC" fill-opacity="0.5"/>
</svg>
