<svg id="Layer_1" data-name="Layer 1" xmlns="http://www.w3.org/2000/svg" viewBox="0 0 36.42 46"><defs><style>.cls-1{fill:#fff;}.cls-2{fill:#808cab;}.cls-3{fill:#f0e0cc;}</style></defs><title>reservation</title><g id="Page-1"><g id="Desktop-HD-Copy-3"><g id="Group-13"><g id="Group-19"><g id="Group-18"><g id="Rectangle"><path class="cls-1" d="M6,0H21.5L36.42,14.94V40a6,6,0,0,1-6,6H6a6,6,0,0,1-6-6V6A6,6,0,0,1,6,0Z"/></g><g id="Group-15"><g id="Rectangle-2" data-name="Rectangle"><path class="cls-2" d="M26,35.15H10a2,2,0,0,1-2-2V18.64a2,2,0,0,1,1.42-1.91l8.49-2.57,8.66,2.57A2,2,0,0,1,28,18.65V33.15A2,2,0,0,1,26,35.15ZM17.91,16.24,10,18.64V33.15H26V18.65Z"/></g><g id="Rectangle-3" data-name="Rectangle"><path class="cls-2" d="M18,28h0a2,2,0,0,1,2,2v4H16V30A2,2,0,0,1,18,28Z"/></g><g id="Group-14"><g id="Rectangle-4" data-name="Rectangle"><rect class="cls-2" x="16.62" y="23.62" width="2.77" height="2.77" rx="1" ry="1"/></g><g id="Rectangle-5" data-name="Rectangle"><rect class="cls-2" x="12" y="23.62" width="2.77" height="2.77" rx="1" ry="1"/></g><g id="Rectangle-6" data-name="Rectangle"><rect class="cls-2" x="21.23" y="23.62" width="2.77" height="2.77" rx="1" ry="1"/></g><g id="Rectangle-7" data-name="Rectangle"><rect class="cls-2" x="12" y="28.23" width="2.77" height="2.77" rx="1" ry="1"/></g><g id="Rectangle-8" data-name="Rectangle"><rect class="cls-2" x="21.23" y="28.23" width="2.77" height="2.77" rx="1" ry="1"/></g><g id="Rectangle-9" data-name="Rectangle"><rect class="cls-2" x="16.62" y="19" width="2.77" height="2.77" rx="1" ry="1"/></g><g id="Rectangle-10" data-name="Rectangle"><rect class="cls-2" x="12" y="19" width="2.77" height="2.77" rx="1" ry="1"/></g><g id="Rectangle-11" data-name="Rectangle"><rect class="cls-2" x="21.23" y="19" width="2.77" height="2.77" rx="1" ry="1"/></g></g></g></g><g id="Path-49"><polygon class="cls-3" points="21.42 0 21.42 15 36.42 15 21.42 0"/></g></g></g></g></g></svg>