<?xml version="1.0" encoding="UTF-8"?>
<svg width="723px" height="866px" viewBox="0 0 723 866" version="1.1" xmlns="http://www.w3.org/2000/svg" xmlns:xlink="http://www.w3.org/1999/xlink">
    <!-- Generator: Sketch 53 (72520) - https://sketchapp.com -->
    <title>uniform</title>
    <desc>Created with Sketch.</desc>
    <g id="uniform" stroke="none" stroke-width="1" fill="none" fill-rule="evenodd">
        <g id="Group">
            <g id="Group-3">
                <path d="M722.4841,865.104797 C722.4841,865.104797 693.574823,638.898627 690.11291,618.713442 C690.11291,618.713442 682.095121,610.162998 661.323646,606.70268 C630.166434,601.512204 593.239367,596.898447 551.119432,587.094215 C508.999497,577.289982 480.727212,566.909029 480.727212,566.909029 C459.903537,611.160432 439.363737,634.027286 419.107813,635.509592 C389.904528,637.646657 336.013209,611.511725 257.433857,557.104797 C257.433857,557.104797 245.894149,569.792627 186.464651,586.517495 C186.464651,586.517495 84.9152183,614.200035 77.4144079,616.506913 C69.9135976,618.813791 68.1826413,621.697389 64.1437434,632.655061 L0.4841,865.104797 L722.4841,865.104797 Z" id="Fill-2" fill="#3E93CC"></path>
                <path d="M556.869706,112.542704 C556.869706,112.542704 572.24443,155.549242 528.425369,180.892606 C482.476471,207.46858 444.631793,213.532556 391.587666,221.211595 C391.587666,221.211595 324.705941,225.435874 317.317817,276.00395 C310.868343,329.113274 348.483547,349.848755 343.924059,400.535484 C339.430299,450.488408 303.180404,501.140578 220.154814,481.941827 C137.129225,462.741925 123.291626,388.247408 149.429696,311.450101 C175.566613,234.651643 197.541872,240.376939 240.142072,127.901935 C272.429801,42.6560716 319.018688,-16.4423509 430.025055,4.25741819 C545.338374,25.7612631 556.869706,112.542704 556.869706,112.542704" id="Fill-12" fill="#49515E"></path>
                <path d="M398.653763,675.221592 C389.66461,663.259372 380.4841,649.163756 380.4841,649.163756 L420.107813,636.509592 L444.644455,630.104797 L464.428478,642.397445 C464.428478,642.397445 462.803628,669.842622 460.428478,687.49697 C458.052168,705.150167 458.439522,709.953476 458.439522,709.953476 C458.439522,709.953476 452.289415,708.43143 442.589341,708.802156 C427.532423,709.377816 425.21294,711.104797 425.21294,711.104797 C425.21294,711.104797 407.641757,687.183811 398.653763,675.221592 Z" id="Fill-36" fill="#49515E"></path>
                <path d="M370.696533,680.903577 C385.773575,667.851053 405.740812,645.177967 422.4841,635.382236 C422.4841,635.382236 384.956041,636.534675 341.077079,595.04687 C297.198118,553.559065 278.722766,516.104797 278.722766,516.104797 C278.722766,516.104797 259.092704,540.306016 253.896511,553.559065 C252.666745,556.694851 253.908058,571.276662 261.457549,586.082047 C272.155933,607.063351 292.029638,631.982541 305.360759,655.502669 C322.378868,685.527162 331.839403,705.104797 331.839403,705.104797 C331.839403,705.104797 347.566547,700.927205 370.696533,680.903577 Z" id="Fill-38" fill="#6EB6E7"></path>
                <path d="M504.70732,681.177625 C504.70732,681.177625 474.668064,654.239007 453.101034,642.69372 C431.535159,631.148434 422.4841,635.189284 422.4841,635.189284 C422.4841,635.189284 451.496244,604.795162 461.056815,574.190916 C470.617386,543.587824 466.239742,526.104797 466.239742,526.104797 C466.239742,526.104797 479.956129,541.656298 491.613671,558.797585 C509.932995,585.736203 510.4841,688.104797 510.4841,688.104797" id="Fill-40" fill="#6EB6E7"></path>
                <path d="M424.4841,865.104797 L425.625167,710.688868 C425.625167,710.688868 432.316196,708.406175 441.422034,707.528833 C451.331664,706.574752 458.006687,707.528833 458.006687,707.528833 L487.4841,865.104797 L424.4841,865.104797 Z" id="Fill-42" fill="#565D68"></path>
                <path d="M11.9958188,822.104797 L56.6497118,660.104797 C56.6497118,660.104797 77.7035049,705.306331 72.0231463,753.798688 C68.2362405,786.126114 48.2271314,808.894817 11.9958188,822.104797 Z" id="Fill-44" fill="#F8C37C"></path>
            </g>
            <polygon id="Rectangle" fill="#F8C37C" transform="translate(582.976573, 776.894643) rotate(3.000000) translate(-582.976573, -776.894643) " points="540.976573 769.894643 624.976573 769.894643 624.976573 783.894643 540.976573 783.894643"></polygon>
            <path d="M219.128906,751.974609 C221.050781,745.059245 217.948568,738.545573 209.822266,732.433594 L217.751278,723.328125 C225.191181,725.21224 231.52474,725.21224 236.751953,723.328125 C241.979167,721.44401 245.728516,718.559245 248,714.673828 L258.083984,714.673828 C260.91862,720.443359 265.205078,723.328125 270.943359,723.328125 C276.681641,723.328125 282.233724,722.491536 287.599609,720.818359 L295.361328,729.330078 C290.186849,735.567057 287.599609,741.944661 287.599609,748.462891 C287.599609,758.240234 298.322266,765.098459 298.322266,782.695312 C298.322266,795.357269 291.749315,803.661945 270.224906,811.961888 C262.130958,815.082964 257.279132,818.443324 255.669428,822.042969 C252.560409,817.941323 248.488285,814.855295 243.453059,812.784883 C231.583602,807.904335 218.205369,801.017707 213.318359,794.125 C202.515625,778.888672 216.246094,762.347656 219.128906,751.974609 Z" id="Path-45" fill="#F8C37C" transform="translate(253.779259, 768.358398) rotate(-3.000000) translate(-253.779259, -768.358398) "></path>
        </g>
    </g>
</svg>