<svg width="396" height="276" viewBox="0 0 396 276" fill="none" xmlns="http://www.w3.org/2000/svg">
<path d="M198 276C307.352 276 396 269.956 396 262.5C396 255.044 307.352 249 198 249C88.6476 249 0 255.044 0 262.5C0 269.956 88.6476 276 198 276Z" fill="#F4E6D4"/>
<path fill-rule="evenodd" clip-rule="evenodd" d="M95 179H360.685C370.227 178.117 374.998 170.88 374.998 157.29C374.998 143.701 374.998 122.896 374.998 94.8759C375.145 85.0502 367.988 80.1374 353.525 80.1374C331.83 80.1374 317.238 80.1374 299.46 80.1374C281.681 80.1374 277.463 80.1374 259.917 80.1374C248.219 80.1374 199.554 80.1374 113.924 80.1374C101.308 79.2088 95 82.9872 95 91.4726C95 99.9581 95 124.513 95 165.137V179Z" fill="#FEDEA6"/>
<path fill-rule="evenodd" clip-rule="evenodd" d="M354 172V243H78V172H89.653V233.785H342.733V172" fill="#FEDEA6"/>
<path fill-rule="evenodd" clip-rule="evenodd" d="M36.4223 249C25.4741 247.723 20 239.622 20 224.698C20 209.774 20 187.454 20 157.738C20.6434 146.239 25.4689 140.489 34.4766 140.489C42.6842 140.489 44.8016 140.489 40.8288 140.489V87.297C40.5108 83.099 42.3181 81 46.2507 81C50.1832 81 59.7189 81 74.8579 81C78.312 82.1862 80.0391 84.2852 80.0391 87.297C80.0391 90.3087 80.0391 108.039 80.0391 140.489H86.0386C95.3292 140.974 99.9745 146.724 99.9745 157.738C99.9745 168.752 99.9745 191.072 99.9745 224.698C100.467 240.899 93.822 249 80.0391 249C66.2562 249 51.7173 249 36.4223 249ZM47.0718 86.7667C45.9672 86.7667 45.0718 87.6622 45.0718 88.7667V138.491C45.0718 139.596 45.9672 140.491 47.0718 140.491H72.8781C73.9826 140.491 74.8781 139.596 74.8781 138.491V88.7667C74.8781 87.6622 73.9826 86.7667 72.8781 86.7667H47.0718Z" fill="#F58B44"/>
<path d="M39 259.527C43.4183 259.527 47 255.946 47 251.527C47 247.109 43.4183 243.527 39 243.527C34.5817 243.527 31 247.109 31 251.527C31 255.946 34.5817 259.527 39 259.527Z" fill="#F58B44"/>
<path d="M80 259.527C84.4183 259.527 88 255.946 88 251.527C88 247.109 84.4183 243.527 80 243.527C75.5817 243.527 72 247.109 72 251.527C72 255.946 75.5817 259.527 80 259.527Z" fill="#F58B44"/>
<path fill-rule="evenodd" clip-rule="evenodd" d="M104.164 256.621C104.164 256.621 95.0245 257.38 95.0245 245.063V223.653C95.0245 223.653 93.882 211.148 107.211 211.148H112.637L112.719 197.505C112.719 197.505 113.494 185 130.63 185C147.767 185 148.718 197.884 148.718 197.884V211.148H156.715C156.715 211.148 166.997 210.769 166.997 224.031V244.116C166.997 244.116 167.564 257 152.908 257C138.25 257 104.164 256.621 104.164 256.621ZM116.73 209.148C116.73 210.252 117.626 211.148 118.73 211.148L141.581 211.148C141.581 211.148 141.581 211.148 141.581 211.148C142.686 211.148 143.581 210.252 143.581 209.148L143.577 197.79C143.577 197.79 144.153 189.263 131 189.263C117.847 189.263 116.73 197.505 116.73 197.505V209.148Z" fill="#F58B44"/>
<path fill-rule="evenodd" clip-rule="evenodd" d="M223.178 47.7025C217.743 37.5204 207.683 36.6881 209.432 22.3634C210.939 10.6811 206.569 8.38756 211.19 2.41253C214.045 -1.41451 222.958 2.11584 227.888 0.977949C232.818 -0.159939 243.513 -1.90122 246.612 6.35292C249.71 14.6071 243.491 25.6481 255.333 30.6353C267.175 35.6224 267.567 41.9497 264.1 45.5434C260.633 49.1371 259.414 56.8845 261.757 61.5105C264.619 64.8827 263.686 70.7125 258.958 79C238.729 64.9231 226.802 54.4906 223.178 47.7025Z" fill="#49515E"/>
<path fill-rule="evenodd" clip-rule="evenodd" d="M198.6 83.9707C186.773 93.5242 179.394 98.3009 176.463 98.3009C172.067 98.3009 165.662 99.7033 168.865 88.6605C172.067 77.6177 177.708 73.454 189.371 61.603C201.035 49.752 199.061 42.5969 201.562 37.3347C204.063 32.0725 211.13 26.244 214.928 26.244C216.777 26.244 216.801 28.2158 217.291 32.1594C217.412 33.1302 217.883 34.8553 218.703 37.3347C213.895 42.8171 210.695 46.5226 209.101 48.4511C207.508 50.3796 205.896 52.5627 204.264 55.0003C207.89 54.3114 211.444 53.4746 214.928 52.4899C220.153 51.0128 225.832 52.0835 223.891 45.1046C221.949 38.1256 221.949 42.7279 218.703 37.3347C216.539 33.7392 215.697 25.961 216.179 14C218.425 16.3555 221.343 17.2081 224.933 16.5578C230.317 15.5824 233.085 15.4888 233.085 17.6949C233.085 19.901 232.547 25.3784 237.162 23.971C241.776 22.5636 239.763 27.9412 237.162 31.3239C234.56 34.7067 235.981 52.6916 245.481 53.846C254.981 55.0003 259.059 60.8244 261.128 68.393C263.196 75.9617 265.744 97.7536 267.722 103.75C269.7 109.746 273.768 122.456 275.717 134.088C277.666 145.721 281.941 157.003 286.991 157.003C290.358 157.003 293.694 159.669 297 165L284.221 164.999C280.754 164.875 277.138 161.309 273.372 154.301C269.605 147.293 262.832 130.442 253.052 103.75L250.799 129.783L207.492 127.259C209.294 110.797 208.218 101.144 204.264 98.3009C200.311 95.4576 198.423 90.6808 198.6 83.9707Z" fill="#F8C37C"/>
<path d="M223 26.5273H214V37.5273H223V26.5273Z" fill="#F8C37C"/>
<path fill-rule="evenodd" clip-rule="evenodd" d="M206.433 53.7189C206.2 61.6369 204.406 67.9242 201.051 72.5807C196.019 79.5655 194.934 85.6553 196.968 91.8953C199.003 98.1354 206.918 98.0491 206.918 108.297C206.918 115.129 206.756 121.52 206.433 127.47L249.747 130L252 103.904C245.343 88.3953 241.84 77.9541 241.49 72.5807C240.966 64.5206 241.68 58.5437 249.747 55.4819C247.729 54.6508 245.537 54.1363 243.252 53.7189C233.393 62.693 229.461 69.8016 220.486 68.7856C214.503 68.1082 213.199 62.513 216.574 52L206.433 53.7189Z" fill="#FCF6ED"/>
<path fill-rule="evenodd" clip-rule="evenodd" d="M205.688 127C180.711 141.992 164.08 153.051 155.794 160.179C143.366 170.87 158.044 185.634 166.63 193.386C175.215 201.138 214.479 233.248 214.479 241.967C214.479 250.686 211.482 257.191 214.479 260.121C216.477 262.075 219.847 259.247 224.588 251.638C221.841 259.213 222.423 263 226.336 263C232.205 263 239.163 247.87 239.163 240.461C239.163 233.052 243.258 234.2 234.997 226.997C232.487 224.809 226.402 221.4 222.694 217.234C216.728 210.531 214.76 201.284 209.641 193.386C204.108 184.848 198.302 177.943 192.222 172.669C208.328 173.555 222.741 169.392 235.46 160.179C248.18 150.966 252.554 140.753 248.582 129.539L205.688 127Z" fill="#808CAB"/>
<path fill-rule="evenodd" clip-rule="evenodd" d="M249.114 54.9437C244.907 56.1525 242.194 62.1174 240.973 72.8382C239.21 88.3263 237.381 103.016 235.484 116.909H257.162L275 158.692C272.994 162.892 267.74 164.992 259.24 164.992C250.74 164.992 243.769 164.992 238.329 164.992C226.108 165.263 221.194 158.522 223.588 144.768C225.982 131.014 229.947 107.037 235.484 72.8382C237.43 64.0935 239.837 58.5316 242.707 56.1525C247.012 52.5838 250.985 54.4062 249.114 54.9437Z" fill="#F58B44"/>
<path fill-rule="evenodd" clip-rule="evenodd" d="M340.56 258.971C335.029 259.375 331.744 255.572 330.704 247.563C329.144 235.55 328.58 226.85 328.58 223.971C328.58 221.092 324 221.295 324 217.055C324 212.814 327.004 211 330.704 211C334.404 211 374.884 211 377.072 211C379.26 211 383 211.974 383 217.055C383 222.136 377.072 221.75 377.072 225.867C377.072 229.983 376.434 239.927 374.687 247.563C372.941 255.199 373.3 258.971 364.652 258.971C358.886 258.971 350.855 258.971 340.56 258.971Z" fill="#F8C37C"/>
<path fill-rule="evenodd" clip-rule="evenodd" d="M345.634 211.04C344.802 209.005 341.026 207.988 334.306 207.988C324.226 207.988 331.799 199.338 329.902 194.932C328.005 190.527 323.294 195.437 321.346 187.635C319.397 179.832 326.417 179.832 324.226 171.95C322.035 164.069 318.859 160.385 324.226 157.26C329.593 154.135 331.784 162.346 334.306 165.005C336.829 167.664 335 173.514 338.822 173.514C342.644 173.514 338.024 166.701 343.23 165.005C348.435 163.309 351.933 160.277 350.184 152.821C348.435 145.365 353.763 141.552 356.825 145.718C359.886 149.885 357.275 159.956 361.662 162.578C366.049 165.2 370.68 165.97 367.434 171.95C364.188 177.931 366.83 179.542 369.657 179.542C372.485 179.542 379.554 166.365 386.051 169.202C392.547 172.039 380.49 180.497 383.27 184.066C386.051 187.635 389.868 192.004 381.389 193.468C372.91 194.932 386.047 202.234 381.389 205.111C376.731 207.988 373.206 203.464 367.434 211.04C361.662 218.617 368.045 209.803 363.483 205.111C360.442 201.983 358.222 203.959 356.825 211.04H354.5C354.656 204.88 353.217 201.8 350.184 201.8C347.151 205.925 346.664 209.005 348.722 211.04H345.634Z" fill="#FA8F59"/>
</svg>
