<svg width="176" height="309" viewBox="0 0 176 309" fill="none" xmlns="http://www.w3.org/2000/svg">
<path d="M88 309C136.601 309 176 303.627 176 297C176 290.373 136.601 285 88 285C39.3989 285 0 290.373 0 297C0 303.627 39.3989 309 88 309Z" fill="#F4E6D4"/>
<path fill-rule="evenodd" clip-rule="evenodd" d="M85.1284 46.9387C77.2092 36.6583 74.8772 25.4829 78.1323 13.4124C83.0151 -4.69335 104.763 -2.3897 113.032 8.07948C121.301 18.5487 117.953 28.6127 130.525 40.8428C143.098 53.0729 148.55 66.2489 142.94 80.1829C137.33 94.1169 121.893 98.8392 113.032 98.8392C107.124 98.8392 97.823 81.539 85.1284 46.9387Z" fill="#49515E"/>
<path d="M118.289 71.8394H73.3076V102.043H118.289V71.8394Z" fill="#616A7F"/>
<path fill-rule="evenodd" clip-rule="evenodd" d="M72.3472 96.0027H118.289C126.426 117.809 130.063 135.522 129.201 149.143C128.34 162.764 127.274 170.851 126.005 173.405H68.754C65.7813 165.494 64.2949 154.855 64.2949 141.488C64.2949 128.12 66.979 112.958 72.3472 96.0027Z" fill="#808CAB"/>
<path fill-rule="evenodd" clip-rule="evenodd" d="M72.3477 49.7508C80.8376 46.1982 86.1557 42.6835 88.3019 39.2069C90.4482 35.7303 90.9405 32.3507 89.7789 29.0681C87.4881 27.219 86.3428 24.4726 86.3428 20.8288C86.3428 17.1851 89.4948 12.9353 95.7988 8.07959L105.652 16.6807C105.56 23.082 104.341 27.2111 101.995 29.0681C98.4774 31.8535 101.256 38.4872 108.015 42.3237C112.521 44.8813 116.279 47.6926 119.289 50.7576C112.941 54.8641 105.111 56.9174 95.7988 56.9174C86.4869 56.9174 78.6699 54.5285 72.3477 49.7508Z" fill="#F8C37C"/>
<path fill-rule="evenodd" clip-rule="evenodd" d="M79.1025 102.268L73.3471 79.5478C75.846 83.4976 79.6322 85.4726 84.7056 85.4726C92.3157 85.4726 91.0194 82.5682 96.482 82.5682C101.945 82.5682 102.884 85.4726 106.796 85.4726C109.404 85.4726 112.518 83.4976 116.138 79.5478L112.348 102.268H135.306C135.306 88.4635 133.841 77.0642 130.911 68.0698C127.981 59.0755 123.93 52.9691 118.758 49.7507C111.758 54.0026 104.333 56.1285 96.482 56.1285C88.6311 56.1285 80.5863 54.0026 72.3475 49.7507C65.3192 54.3115 59.8963 60.4179 56.0789 68.0698C52.2615 75.7218 51.5951 87.1211 54.0797 102.268H79.1025Z" fill="#808CAB"/>
<path fill-rule="evenodd" clip-rule="evenodd" d="M79.1173 227.664C81.5778 240.548 83.7237 251.719 85.555 261.177C88.3019 275.365 83.2244 286.447 79.1173 289.433C75.0101 292.419 71.4281 292.313 77.4207 292.313C83.4133 292.313 87.2252 291.235 90.0541 286.447C92.883 281.658 94.0441 289.433 94.0441 292.313C94.9949 292.313 95.4607 292.313 95.4415 292.313C94.8858 285.885 95.2424 280.998 96.5114 277.652C98.4149 272.633 94.1301 273.623 95.4415 258.535C96.3158 248.476 97.3528 237.725 98.5525 226.28C100.854 242.51 102.366 254.733 103.089 262.948C104.172 275.271 103.545 285.606 106.818 290.202C109 293.265 110.325 295.105 110.794 295.723C113.228 292.809 114.445 288.411 114.445 282.529C114.445 273.704 110.955 268.489 112.225 258.535C113.072 251.899 114.572 240.482 116.726 224.283H79.1173V227.664Z" fill="#F8C37C"/>
<path fill-rule="evenodd" clip-rule="evenodd" d="M68.699 229.048C62.6898 229.551 59.6852 226.507 59.6852 219.917C59.6852 213.327 59.6852 198.503 59.6852 175.446C59.3513 170.247 62.356 167.648 68.699 167.648C75.0421 167.648 81.5761 167.648 88.3012 167.648V161.197C87.9797 157.638 89.7465 155.858 93.6017 155.858C99.3844 155.858 107.224 155.858 112.062 155.858C116.9 155.858 117.362 157.642 117.362 162.616C117.362 165.932 117.362 167.609 117.362 167.648H138.957C143.622 167.8 145.955 170.399 145.955 175.446C145.955 180.492 145.955 195.316 145.955 219.917C145.949 226.004 143.135 229.048 137.514 229.048C131.893 229.048 108.954 229.048 68.699 229.048ZM94.2995 159.431C93.1949 159.431 92.2995 160.327 92.2995 161.431V165.486C92.2995 166.59 93.1949 167.486 94.2995 167.486H111.291C112.395 167.486 113.291 166.59 113.291 165.486V161.431C113.291 160.327 112.395 159.431 111.291 159.431H94.2995Z" fill="#F58B44"/>
<path fill-rule="evenodd" clip-rule="evenodd" d="M61.0664 102.268C66.7027 114.135 73.1496 124.91 80.407 134.593C87.6644 144.277 92.1811 153.617 93.9573 162.616H111.359C112.602 152.414 114.912 144.097 118.289 137.665C121.665 131.233 125.744 119.434 130.525 102.268H115.414C110.327 124.424 107.312 137.387 106.367 141.157C105.422 144.928 104.461 151.069 103.485 159.581C96.2656 144.84 90.7077 133.146 86.8115 124.497C82.9154 115.848 79.7438 108.438 77.2969 102.268H61.0664Z" fill="#F8C37C"/>
<path fill-rule="evenodd" clip-rule="evenodd" d="M62.5398 292.688C39.4095 292.688 25.1944 292.688 19.8946 292.688C14.5947 292.688 11.9633 289.613 12.0004 283.462C12.0004 240.975 12.0004 217.253 12.0004 212.295C12.0004 207.539 13.9464 205.154 17.8384 205.141C18.5544 205.139 19.2704 205.128 19.9862 205.11L29.6405 204.858V197.789C29.6405 196.865 28.8914 196.116 27.9674 196.116C27.0433 196.116 26.2942 195.367 26.2942 194.443V194.298C26.2942 193.294 27.1081 192.48 28.1121 192.48H53.4809C54.4848 192.48 55.2987 193.294 55.2987 194.298V194.502C55.2987 195.393 54.5761 196.116 53.6846 196.116C52.7932 196.116 52.0706 196.838 52.0706 197.73V204.858C54.2227 204.858 57.7124 204.858 62.5398 204.858C67.3672 204.858 69.8493 207.337 69.9859 212.295C69.9859 253.944 69.9859 277.666 69.9859 283.462C69.9859 289.257 67.5039 292.333 62.5398 292.688ZM34.3249 195.676C33.2203 195.676 32.3249 196.572 32.3249 197.676V203.152C32.3249 204.257 33.2203 205.152 34.3249 205.152H47.3178C48.4224 205.152 49.3178 204.257 49.3178 203.152V197.676C49.3178 196.572 48.4224 195.676 47.3178 195.676H34.3249Z" fill="#F58B44"/>
</svg>
