<svg width="1440" height="1024" viewBox="0 0 1440 1024" fill="none" xmlns="http://www.w3.org/2000/svg">
<g clip-path="url(#clip0)">
<path d="M1440 0H0V1043H1440V0Z" fill="#FFFAF2"/>
<path d="M827 0H0V1024H827V0Z" fill="#F8F1E7"/>
<path d="M822 150H514V291H822V150Z" fill="#FFFAF2"/>
<path d="M822 300H253V441H822V300Z" fill="#FFFAF2"/>
<path d="M746 450H177V591H746V450Z" fill="#FFFAF2"/>
<path d="M168 450H0V591H168V450Z" fill="#FFFAF2"/>
<path d="M822 600H350V741H822V600Z" fill="#FFFAF2"/>
<path d="M517 750H202V891H517V750Z" fill="#FFFAF2"/>
<path d="M192 750H0V891H192V750Z" fill="#FFFAF2"/>
<path d="M192 902H0V1043H192V902Z" fill="#FFFAF2"/>
<path d="M822 750H526V891H822V750Z" fill="#FFFAF2"/>
<path d="M341 600H0V741H341V600Z" fill="#FFFAF2"/>
<path d="M822 450H755V591H822V450Z" fill="#FFFAF2"/>
<path d="M505 150H197V291H505V150Z" fill="#FFFAF2"/>
<path d="M187 150H0V291H187V150Z" fill="#FFFAF2"/>
<path d="M700 0H254V141H700V0Z" fill="#FFFAF2"/>
<path d="M822 0H708V141H822V0Z" fill="#FFFAF2"/>
<path d="M245 0H0V141H245V0Z" fill="#FFFAF2"/>
<path d="M243 300H0V441H243V300Z" fill="#FFFAF2"/>
<path d="M154 196L289.2 106L420 196L415 201L289.2 116L159 201L154 196Z" fill="white"/>
<path d="M290 125C295.523 125 300 120.523 300 115C300 109.477 295.523 105 290 105C284.477 105 280 109.477 280 115C280 120.523 284.477 125 290 125Z" fill="#49515E"/>
<path d="M435 195H139V395H435V195Z" fill="#FA8F59"/>
<path d="M424.9 205.3H149V384.8H424.9V205.3Z" fill="white"/>
<path d="M194 255H174V275H194V255Z" fill="#F8F1E7"/>
<path d="M194 285H174V305H194V285Z" fill="#F8F1E7"/>
<path d="M194 315H174V335H194V315Z" fill="#F8F1E7"/>
<path d="M194 345H174V365H194V345Z" fill="#F8F1E7"/>
<path d="M315 255H295V275H315V255Z" fill="#F8F1E7"/>
<path d="M315 285H295V305H315V285Z" fill="#F8F1E7"/>
<path d="M315 315H295V335H315V315Z" fill="#F8F1E7"/>
<path d="M254 255H234V275H254V255Z" fill="#F8F1E7"/>
<path d="M370 220H209V235H370V220Z" fill="#F8F1E7"/>
<path d="M254 285H234V305H254V285Z" fill="#F8F1E7"/>
<path d="M254 315H234V335H254V315Z" fill="#F8F1E7"/>
<path d="M254 345H234V365H254V345Z" fill="#F8F1E7"/>
<path d="M375 255H355V275H375V255Z" fill="#F8F1E7"/>
<path d="M375 285H355V305H375V285Z" fill="#F8F1E7"/>
<path d="M375 315H355V335H375V315Z" fill="#F8F1E7"/>
<path d="M224 255H204V275H224V255Z" fill="#F8F1E7"/>
<path d="M224 285H204V305H224V285Z" fill="#F8F1E7"/>
<path d="M224 315H204V335H224V315Z" fill="#F8F1E7"/>
<path d="M224 345H204V365H224V345Z" fill="#F8F1E7"/>
<path d="M345 255H325V275H345V255Z" fill="#F8F1E7"/>
<path d="M345 285H325V305H345V285Z" fill="#F8F1E7"/>
<path d="M345 315H325V335H345V315Z" fill="#F8F1E7"/>
<path d="M285 255H265V275H285V255Z" fill="#F8F1E7"/>
<path d="M285 285H265V305H285V285Z" fill="#F8F1E7"/>
<path d="M285 315H265V335H285V315Z" fill="#F8F1E7"/>
<path d="M285 345H265V365H285V345Z" fill="#F8F1E7"/>
<path d="M405 255H385V275H405V255Z" fill="#F8F1E7"/>
<path d="M405 285H385V305H405V285Z" fill="#F8F1E7"/>
<path d="M405 315H385V335H405V315Z" fill="#F8F1E7"/>
<path d="M867 -10H822V1028H867V-10Z" fill="#F8F1E7"/>
<path d="M1206 0H1344L1034 891H896L1206 0Z" fill="white"/>
<path d="M1378 0H1416L1106 891H1068L1378 0Z" fill="white"/>
<path d="M1130.5 288C1149.55 288 1165 272.554 1165 253.5C1165 234.446 1149.55 219 1130.5 219C1111.45 219 1096 234.446 1096 253.5C1096 272.554 1111.45 288 1130.5 288Z" fill="#FFDDAD"/>
<path d="M1137 -2H1125V128H1137V-2Z" fill="#49515E"/>
<path d="M1019 245H1239C1233.8 166.3 1197.1 127 1129 127C1060.9 127 1024.2 166.3 1019 245Z" fill="#808CAB"/>
<path d="M1225 732C1217.4 687.5 1213.5 643.7 1213.5 600.6C1213.5 557.5 1232 517.2 1269 479.7L1261.4 473.2C1221.8 515 1202 560.4 1202 609.4C1202 658.4 1203.6 699.3 1206.9 732H1225Z" fill="#F47C30"/>
<path d="M1120 726H1271L1257.3 882H1136.9L1120 726Z" fill="#73B5EC"/>
<path d="M1392.7 615.7C1395.7 609.3 1399 599.9 1402.6 587.7C1408.1 569.4 1409.8 558.2 1409.8 558.2C1409.8 558.2 1375 544.1 1366.7 531.5C1358.4 519 1371.1 515.2 1384.5 523.3C1393.4 528.7 1401.9 535 1409.8 542C1414.3 529.4 1416.5 520.2 1416.5 514.4C1416.5 505.7 1370.5 501 1360.1 491.8C1349.7 482.7 1359.4 470.5 1381.4 481.2C1396.1 488.3 1408.8 495.7 1419.7 503.6C1422 486.9 1421 474.7 1416.5 467C1409.8 455.5 1355 458.7 1340.9 451.5C1326.8 444.3 1328 428.3 1349.1 428.3C1363.2 428.3 1385.6 434.5 1416.5 446.9C1402.6 417 1386 395.5 1366.6 382.4C1337.6 362.8 1307.2 366.3 1290.2 382.4C1278.9 393.1 1274.4 405.5 1276.8 419.4C1240.4 387.7 1212.2 386.3 1192 415.1C1171.8 443.9 1170.6 476.1 1188.2 511.5C1203.1 473.6 1217.1 452.1 1230.2 447C1249.7 439.3 1265.8 448.9 1242.1 470.4C1226.3 484.8 1210.7 502.4 1195.5 523.4L1230.2 568.4C1233.6 540.2 1240.2 518.6 1249.8 503.7C1264.3 481.3 1283 487.1 1270.3 511.5C1257.6 535.9 1240.2 568.3 1245 579.4C1248.2 586.8 1258.8 594.1 1276.7 601.5C1274.3 568.9 1277.3 549.1 1285.7 542.1C1298.3 531.6 1313.8 542.8 1301.9 558.3C1294 568.6 1288.6 584.5 1285.7 605.9C1294.4 610.1 1302.8 613.4 1310.8 615.7C1318.8 618 1325.1 619.8 1329.6 621C1318.2 590.4 1315.9 572.9 1322.6 568.3C1332.7 561.5 1341.1 579.3 1341.1 594.4C1341.1 604.5 1339.5 613.3 1336.4 621C1346.1 621.4 1355.7 621.2 1364.9 620.3C1374.4 619.4 1383.6 617.9 1392.7 615.7Z" fill="#F58B44"/>
<path d="M1057 546.6C1061.9 523.3 1061.9 507.2 1057 498.1C1049.7 484.6 1037.1 488.7 1040.7 504.2C1044.3 519.6 1049 544.4 1040.7 553.7C1035.2 559.9 1027.5 561.9 1017.7 559.7C1025.6 542 1029.6 530.5 1029.6 525.2C1029.6 517.3 1018.6 503.9 1013.9 525.2C1009.3 546.5 1011.6 559.7 1003 559.7C997.3 559.7 992 559.7 987.1 559.7C999.5 540.7 1003.5 529.2 999 525.2C992.3 519.3 981.8 527.7 981.8 540.7C981.8 549.4 980.4 555.7 977.6 559.7H934C958.8 518.3 990.7 486.3 1029.6 463.8C1088 430.1 1153.3 455.8 1169.4 517.5C1180.1 558.7 1183.4 630.1 1179.3 731.8H1169.4C1173.1 620.6 1169.4 549.2 1158.4 517.5C1147.4 485.8 1127.6 467.9 1099.2 463.8C1098.4 490.3 1095.6 508.2 1090.8 517.5C1086 527 1074.7 536.7 1057 546.6Z" fill="#F47C30"/>
<path d="M1221.4 714.4C1232.3 683.6 1233.9 660.4 1226.2 644.6C1214.5 621 1202.2 621 1190.2 621C1182.2 621 1174.8 624 1168 629.9C1163.2 600 1151.3 585 1132.2 585C1113.1 585 1094.4 600 1076.1 629.9C1095.5 621.7 1110.4 617.6 1120.8 617.6C1136.4 617.6 1147.7 629.9 1132.2 635.5C1121.9 639.2 1103.2 640.4 1076.1 638.9C1070.7 646.1 1068 654.1 1068 663C1068 671.9 1068 677.8 1068 680.7C1081.4 664.9 1095.3 657.1 1109.6 657.1C1131 657.1 1137 667.6 1115.5 674.2C1094 680.8 1068 687.6 1068 695C1068 699.9 1069.7 709.3 1073.1 723.3C1089.9 701.3 1102.1 691.9 1109.6 695C1120.8 699.8 1120.9 707.2 1109.6 710.8C1102.1 713.2 1089.9 720.3 1073.1 732.1C1078.3 741.1 1082.4 747.3 1085.4 750.6C1089.9 755.6 1101.6 740 1107.5 731.1C1113.4 722.2 1125.5 731.3 1115.4 740.9C1108.7 747.3 1101.8 753.7 1094.7 759.9C1105 770.4 1111.9 777.5 1115.4 781.2C1118.9 784.9 1122.9 787.8 1127.1 790L1164.2 767.9C1152.3 741.2 1150 727.9 1157.1 727.9C1164.2 727.9 1169.8 738.6 1174 759.9C1184.7 756.9 1190 753.8 1190 750.6C1190 745.7 1180.2 720.8 1174 710.8C1167.8 700.8 1185.6 698.4 1190 710.8C1192.9 719.1 1196.3 729.1 1200.1 740.9C1208.2 735 1212.2 729.1 1212.2 723.2C1212.2 714.4 1174.9 685.2 1182.5 674.1C1190 663 1200.1 677.7 1203.3 680.6C1205.5 682.6 1211.5 693.9 1221.4 714.4Z" fill="#F6914D"/>
</g>
<defs>
<clipPath id="clip0">
<rect width="1440" height="1024" fill="white"/>
</clipPath>
</defs>
</svg>
