<svg width="1371" height="410" viewBox="0 0 1371 410" fill="none" xmlns="http://www.w3.org/2000/svg">
<path d="M220.6 0H513.1C519.7 0 525.4 4.6 526.8 11.1L574 233H256.6L206.9 17.1C205.2 9.6 209.9 2.1 217.4 0.3C218.5 0.1 219.5 0 220.6 0Z" fill="white"/>
<path d="M777 232H574V249H777V232Z" fill="white"/>
<path d="M575 232H255V249H575V232Z" fill="#F8F1E7"/>
<path d="M382 157C399.121 157 413 142.449 413 124.5C413 106.551 399.121 92 382 92C364.879 92 351 106.551 351 124.5C351 142.449 364.879 157 382 157Z" fill="#F8F1E7"/>
<path d="M1300 294H70V410H1300V294Z" fill="#808CAB"/>
<path d="M7 249H1364C1367.9 249 1371 252.1 1371 256V288C1371 291.9 1367.9 295 1364 295H7C3.1 295 0 291.9 0 288V256C0 252.1 3.1 249 7 249Z" fill="#616A7F"/>
</svg>
