<?xml version="1.0" encoding="UTF-8"?>
<svg width="389px" height="480px" viewBox="0 0 389 480" version="1.1" xmlns="http://www.w3.org/2000/svg" xmlns:xlink="http://www.w3.org/1999/xlink">
    <!-- Generator: Sketch 53 (72520) - https://sketchapp.com -->
    <title>eyes-1</title>
    <desc>Created with Sketch.</desc>
    <g id="eyes-1" stroke="none" stroke-width="1" fill="none" fill-rule="evenodd">
        <g id="Group-43-Copy-2" transform="translate(166.000000, 162.000000)">
            <path d="M34.1713556,14.9292052 C25.1149395,19.7476418 8.00978419,18.171384 1.97549317,15.1383055 C-4.05879785,12.105227 4.80749052,4.91605512 14.0784793,3.39099288 C23.349468,1.86593063 28.2900721,5.1992131 31.0116143,6.58564307 C33.7331565,7.97207305 43.2277716,10.1107687 34.1713556,14.9292052 Z" id="Path-150" fill="#FFFAF2"></path>
            <path d="M130.021986,13.3922608 C121.489786,18.0536145 105.375649,16.5304139 99.6911775,13.597192 C94.0067059,10.66397 102.359995,3.70955471 111.094056,2.23367691 C119.828117,0.757799114 124.482232,3.98148238 127.045999,5.32227069 C129.609767,6.66305899 138.554186,8.73090724 130.021986,13.3922608 Z" id="Path-150-Copy" fill="#FFFAF2" transform="translate(115.729754, 9.109440) scale(-1, 1) rotate(5.000000) translate(-115.729754, -9.109440) "></path>
            <circle id="Oval" fill="#616A7F" cx="20" cy="10" r="6"></circle>
            <circle id="Oval-Copy-7" fill="#616A7F" cx="117" cy="9" r="6"></circle>
        </g>
    </g>
</svg>