<?xml version="1.0" encoding="UTF-8"?>
<svg width="553px" height="650px" viewBox="0 0 553 650" version="1.1" xmlns="http://www.w3.org/2000/svg" xmlns:xlink="http://www.w3.org/1999/xlink">
    <!-- Generator: Sketch 53 (72520) - https://sketchapp.com -->
    <title>Group 43 Copy</title>
    <desc>Created with Sketch.</desc>
    <g id="Page-1" stroke="none" stroke-width="1" fill="none" fill-rule="evenodd">
        <g id="Group-43-Copy">
            <path d="M26.9657687,238 C31.6756882,324.391743 32.3254226,386.443635 28.9149719,424.155675 C26.987398,445.470377 21.2041848,474.786926 17.2143436,512.105322 C13.2179328,549.485165 10.4798183,592.783391 9,642 L85.931003,642 C112.643668,486.279395 126,395.087555 126,368.424481 C126,341.761407 120.953286,298.28658 110.859859,238 L26.9657687,238 Z" id="Path-148" fill="#FDC982"></path>
            <path d="M535.207772,184 C539.255387,279.949056 539.667667,351.565303 536.444614,398.848741 C534.753161,423.663002 542.092557,490.573168 545.623224,536.299192 C547.334003,558.455663 549.126261,589.355932 551,629 L472.241844,629 C468.925,533.492587 467.266577,456.775501 467.266577,398.848741 C467.266577,340.92198 463.844385,287.492206 457,238.559417 L535.207772,184 Z" id="Path-149" fill="#FDC982"></path>
            <path d="M453.113818,31.012083 C469.234076,32.4183652 488.95559,45.6200988 512.278361,70.617284 C535.601133,95.6144691 549.175012,150.697562 553,235.866562 C520.839578,251.970616 487.544185,260.844159 453.113818,262.48719 C418.683452,264.130222 304.260138,326.634492 109.843878,450 C116.661007,369.71881 116.48287,311.274052 109.309468,274.665725 C107.645357,266.173199 108.591412,263.629837 95.7876843,259.865713 C80.4932157,255.369344 48.5639876,251.997068 0,249.748884 C5.65435156,172.515794 16.5016753,116.275535 32.5419712,81.0281061 C48.5822671,45.7806776 81.6886918,25.1399519 131.861245,19.105929 C178.758838,6.57154592 230.042547,0.382868043 285.712373,0.539895381 C341.3822,0.696922718 397.182681,10.8543186 453.113818,31.012083 Z" id="Path-142" fill="#616A7F"></path>
            <path d="M82,643.572269 C100.538668,546.976564 113.955095,428.37664 122.249281,287.772497 C126.706881,236.029075 115.981005,194.951414 163.089456,194.1113 C184.963088,193.721214 249.993182,204.235302 309.496409,206.582681 C378.143129,209.290767 441.41956,204.107914 455,207.389831 C480.352014,213.516523 482,255.181273 482,311.819178 C482,368.457082 478.050838,592.077715 472.576168,627.104464 C468.926389,650.455631 338.734333,655.944899 82,643.572269 Z" id="Path-143" fill="#73B5EC"></path>
            <path d="M469.13499,186.020446 C458.304591,189.934542 449.782583,194.21713 458.886772,210.291504 C467.99096,226.365878 459.3174,238 444.042103,238 C428.766805,238 423.048503,222.028291 430.914403,210.291504 C438.780303,198.554718 438.08908,188.979149 426.587788,185.176885 C415.086496,181.374621 408.806344,167.120957 423.919001,161.133399 C439.031657,155.145842 471.901387,155.215507 481.37631,164.310508 C490.851232,173.405509 479.965388,182.106351 469.13499,186.020446 Z" id="Path-144" fill="#FFFFFF"></path>
            <path d="M147.517448,188.734321 C142.106653,180.390059 135.948144,182.440211 128.275791,178.457541 C120.603438,174.474871 120.621855,159.795075 132.850473,156.508971 C145.079091,153.222867 169.149578,148 181.173772,148 C193.197966,148 195.310349,166.283055 181.173772,174.474871 C167.037195,182.666687 166.792254,190.745235 171.646868,201.438889 C173.458584,205.429703 181.173772,215.985418 168.306098,225.389884 C159.906093,231.52911 144.254027,226.367633 144.254027,214.832127 C144.254027,196.428479 152.928243,197.078583 147.517448,188.734321 Z" id="Path-146" fill="#FFFFFF"></path>
            <path d="M473,177 C470.859817,126.685316 469.789725,96.8150753 469.789725,87.3892792 C469.789725,63.8784577 468.111053,45.7199746 464.75371,32.9138299 C460.917903,26.7551308 454.527344,21.9589523 445.582031,18.5252944 C432.164062,13.3748075 421,8.19671977 421,18.5252944 C421,28.8538689 423.482422,47.4765625 426.33194,94.0551364 C427.589092,114.604703 427.589092,141.733193 426.33194,175.440606 L473,177 Z" id="Path-145" fill="#73B5EC"></path>
            <path d="M134.716837,172 L179,167.611271 C174.764323,134.341778 171.694853,105.816421 169.791591,82.0352008 C167.888329,58.2539804 166.888329,36.9271427 166.791591,18.0546875 C167.470306,9.58779882 164.301998,5.35435448 157.286668,5.35435448 C146.763672,5.35435448 126.1429,10.3692833 122.642377,20.6258775 C120.308695,27.4636069 124.333515,77.9216478 134.716837,172 Z" id="Path-147" fill="#73B5EC"></path>
        </g>
    </g>
</svg>