<?xml version="1.0" encoding="UTF-8"?>
<svg width="389px" height="480px" viewBox="0 0 389 480" version="1.1" xmlns="http://www.w3.org/2000/svg" xmlns:xlink="http://www.w3.org/1999/xlink">
    <!-- Generator: Sketch 53 (72520) - https://sketchapp.com -->
    <title>talk-1</title>
    <desc>Created with Sketch.</desc>
    <g id="talk-1" stroke="none" stroke-width="1" fill="none" fill-rule="evenodd">
        <g id="Group-43-Copy-2" transform="translate(0.000000, -36.000000)">
            <path d="M126,427.198868 C152.328402,486.399623 179.832475,516 208.512219,516 C237.191964,516 254.745945,493.489581 261.174162,448.468744 L268,329.725433 L148.278549,297 L126,427.198868 Z" id="Path-141" fill="#FDC982"></path>
            <path d="M148.037022,298.407177 C156.054007,334.47532 158.009407,364.979691 153.903222,389.920288 C147.743944,427.331184 120.282346,469.101491 71.983533,464.044851 C23.6847202,458.988212 -17.0228708,417.626236 7.20984455,340.615455 C31.4425599,263.604675 97.3919186,256.953538 97.3919186,187.764609 C97.3919186,141.638656 100.873405,121.59455 107.836379,127.632292 L309.006585,116 L334.07161,156.469648 C328.726663,197.049798 329.632014,231.746999 336.787663,260.56125 C347.521135,303.782627 396.705408,375.482942 379.311671,426.093421 C361.917934,476.7039 309.691322,478.584757 279.778269,460.77723 C249.865216,442.969703 236.861904,406.948722 266.628796,341.555884 C286.473391,297.960658 246.942799,283.577756 148.037022,298.407177 Z" id="Path-140" fill="#FFFFFF"></path>
            <path d="M107.596796,182.65414 C114.380753,196.570699 117.771663,206.664615 117.769525,212.93589 C117.766319,222.342801 120.877403,235.097375 126.731488,243.824712 C132.585574,252.552049 132.657621,253.803487 122.475844,250.070166 C112.294066,246.336846 97.1975464,250.212976 102.851456,265.411106 C106.879712,276.239359 109.37806,278.411079 114.703047,285.801008 C116.852013,288.783307 118.672518,293.403677 122.459315,298.567143 C135.629527,316.525316 147.040497,319.569438 152.310078,318.043639 C155.823133,317.02644 157.961538,313.439676 158.725296,307.283346 C169.467185,324.785819 181.095989,336.445055 193.611708,342.261054 C212.385285,350.985053 243.75646,362.795052 286.511464,349.321826 C329.266468,335.8486 327.351471,259.721664 324.973707,240.47388 C322.595943,221.226095 309.504788,181.414339 302.041966,157.102674 C297.066751,140.894896 290.730799,120.608865 283.03411,96.2445794 L191.243711,116.220255 L107.596796,182.65414 Z" id="Path-139" fill="#FFDDAD" transform="translate(213.813218, 225.832550) rotate(21.000000) translate(-213.813218, -225.832550) "></path>
            <path d="M120.964368,196.063845 C121.635168,203.546985 122.82813,210.195943 124.543254,216.010718 C127.11594,224.732881 133.091484,234.180038 124.537061,234.182952 C115.982637,234.185865 105.254185,186.752365 102.462863,155.572817 C99.6715409,124.39327 105.444475,90.3742721 122.901115,81.9412648 C140.357755,73.5082574 147.757765,77.4085848 158.039949,61.8359752 C168.322134,46.2633657 166.443392,47.2953279 182.872754,40.8977398 C199.302117,34.5001516 203.373767,33.7064299 210.662882,33.7039475 C217.951996,33.7014651 227.168792,37.7703033 245.012554,33.6922493 C262.856316,29.6141953 278.853964,26.7703126 286.899098,37.9172526 C292.262521,45.3485459 298.859219,57.0621746 306.689192,73.0581385 L179.342469,134.335898 L129.01647,181.365218 L120.964368,196.063845 Z" id="Path-133" fill="#73B5EC" transform="translate(204.241331, 132.133216) rotate(21.000000) translate(-204.241331, -132.133216) "></path>
            <path d="M127.689864,208.057876 C121.962606,213.738534 112.120759,222.047616 117.045034,208.061501 C121.969308,194.075386 147.008828,145.050064 184.505848,120.667936 C222.002868,96.2858077 272.291552,77.3148721 313.663459,68.0685165 C355.035366,58.822161 383.395946,77.847685 375.088794,95.9565647 C366.781643,114.065445 355.063952,125.621774 344.338298,130.65703 C333.612644,135.692286 327.824995,124.312886 316.226462,120.998588 C304.62793,117.684291 278.996243,107.490098 220.364541,135.993683 C161.732838,164.497268 133.417121,202.377218 127.689864,208.057876 Z" id="Path-132" fill="#5196D0" transform="translate(246.122290, 140.696346) rotate(21.000000) translate(-246.122290, -140.696346) "></path>
            <path d="M178.26498,177.321104 C169.998255,179.379211 161.344255,184.151794 155.878338,192.255327 C150.41242,200.358861 147.814102,202.807529 146.629345,201.93287 C145.444589,201.058211 150.677938,193.221321 157.550334,182.463629 C164.422729,171.705938 176.133015,168.30741 187.515401,163.453929 C198.897786,158.600447 212.080263,156.768623 212.077268,165.555087 C212.074273,174.34155 186.531706,175.262997 178.26498,177.321104 Z" id="Path-134" fill="#F8C37C" transform="translate(179.269311, 180.744786) rotate(21.000000) translate(-179.269311, -180.744786) "></path>
            <path d="M275.599847,184.40639 C271.631801,188.900704 265.189274,198.820874 257.909682,192.475481 C250.63009,186.130088 278.321299,166.884932 285.354144,163.077122 C292.38699,159.269313 296.791846,157.859631 305.160009,160.463579 C313.528172,163.067527 320.027276,165.279624 315.499636,165.281166 C310.971996,165.282708 304.188226,161.612589 296.134744,166.86355 C288.081262,172.114512 279.567893,179.912076 275.599847,184.40639 Z" id="Path-135" fill="#F8C37C" transform="translate(286.843277, 176.835775) rotate(21.000000) translate(-286.843277, -176.835775) "></path>
            <path d="M238.755842,263.730007 C235.887041,263.730266 233.669781,264.307387 232.104062,265.46137 C229.755483,267.192344 228.349032,269.800154 226.316337,269.110081 C224.283642,268.420008 225.951222,263.487108 230.117353,262.128057 C232.894773,261.222023 235.77427,261.756007 238.755842,263.730007 Z" id="Path-136" fill="#F8C37C" transform="translate(232.103985, 265.462110) rotate(21.000000) translate(-232.103985, -265.462110) "></path>
            <path d="M252.125327,268.659164 C253.056255,265.927037 254.272646,264.560718 255.7745,264.560207 C258.027282,264.55944 259.797247,265.557069 259.797943,263.514186 C259.79864,261.471303 255.939276,260.168298 253.903349,262.211874 C252.546064,263.574258 251.95339,265.723354 252.125327,268.659164 Z" id="Path-137" fill="#F8C37C" transform="translate(255.947137, 264.921631) rotate(21.000000) translate(-255.947137, -264.921631) "></path>
            <path d="M211.804202,319.730309 C207.648076,316.925912 207.893127,313.628625 212.539354,309.838448 C215.427382,307.482529 217.201528,305.571856 219.198195,301.714139 C222.01985,296.262481 224.912407,288.88808 228.784032,287.90978 C235.395305,286.239213 236.340133,289.792449 238.603088,289.791679 C240.866044,289.790908 240.894768,276.717639 251.565907,282.971507 C262.237046,289.225374 267.858352,286.139022 269.157497,288.023822 C270.456643,289.908622 274.273588,312.942462 256.365375,322.468071 C244.426567,328.818477 229.572842,327.90589 211.804202,319.730309 Z" id="Path-138" fill="#FA8F59" transform="translate(239.634593, 303.954889) rotate(21.000000) translate(-239.634593, -303.954889) "></path>
        </g>
    </g>
</svg>