<?xml version="1.0" encoding="UTF-8"?>
<svg width="389px" height="480px" viewBox="0 0 389 480" version="1.1" xmlns="http://www.w3.org/2000/svg" xmlns:xlink="http://www.w3.org/1999/xlink">
    <!-- Generator: Sketch 53 (72520) - https://sketchapp.com -->
    <title>talk-3</title>
    <desc>Created with Sketch.</desc>
    <g id="talk-3" stroke="none" stroke-width="1" fill="none" fill-rule="evenodd">
        <g id="Group-43-Copy-2" transform="translate(0.000000, -36.000000)">
            <path d="M126,427.198868 C152.328402,486.399623 179.832475,516 208.512219,516 C237.191964,516 254.745945,493.489581 261.174162,448.468744 L268,329.725433 L148.278549,297 L126,427.198868 Z" id="Path-141" fill="#FDC982"></path>
            <path d="M148.037022,298.407177 C156.054007,334.47532 158.009407,364.979691 153.903222,389.920288 C147.743944,427.331184 120.282346,469.101491 71.983533,464.044851 C23.6847202,458.988212 -17.0228708,417.626236 7.20984455,340.615455 C31.4425599,263.604675 97.3919186,256.953538 97.3919186,187.764609 C97.3919186,141.638656 100.873405,121.59455 107.836379,127.632292 L309.006585,116 L334.07161,156.469648 C328.726663,197.049798 329.632014,231.746999 336.787663,260.56125 C347.521135,303.782627 396.705408,375.482942 379.311671,426.093421 C361.917934,476.7039 309.691322,478.584757 279.778269,460.77723 C249.865216,442.969703 236.861904,406.948722 266.628796,341.555884 C286.473391,297.960658 246.942799,283.577756 148.037022,298.407177 Z" id="Path-140" fill="#FFFFFF"></path>
            <path d="M106.88615,182.598778 C113.670106,196.515337 117.061016,206.609253 117.058879,212.880528 C117.055673,222.287439 120.166756,235.042014 126.020842,243.76935 C131.874927,252.496687 131.946975,253.748125 121.765197,250.014804 C111.58342,246.281484 96.4868998,250.157614 102.14081,265.355744 C106.169066,276.183997 108.667414,278.355717 113.9924,285.745646 C116.141366,288.727945 117.961872,293.348315 121.748668,298.511781 C134.918881,316.469954 146.32985,319.514076 151.599432,317.988278 C155.112486,316.971078 157.250892,313.384314 158.014649,307.227984 C173.68542,326.40892 187.778665,338.907388 200.294383,344.723387 C219.067961,353.447386 245.771234,367.049225 288.526238,353.575998 C331.281242,340.102772 326.640824,259.666302 324.263061,240.418518 C321.885297,221.170734 308.794142,181.358977 301.331319,157.047312 C296.356104,140.839535 290.020153,120.553503 282.323464,96.1892174 L190.533064,116.164893 L106.88615,182.598778 Z" id="Path-139" fill="#FFDDAD" transform="translate(213.308541, 227.722022) rotate(21.000000) translate(-213.308541, -227.722022) "></path>
            <path d="M120.964368,196.063845 C121.635168,203.546985 122.82813,210.195943 124.543254,216.010718 C127.11594,224.732881 133.091484,234.180038 124.537061,234.182952 C115.982637,234.185865 105.254185,186.752365 102.462863,155.572817 C99.6715409,124.39327 105.444475,90.3742721 122.901115,81.9412648 C140.357755,73.5082574 147.757765,77.4085848 158.039949,61.8359752 C168.322134,46.2633657 166.443392,47.2953279 182.872754,40.8977398 C199.302117,34.5001516 203.373767,33.7064299 210.662882,33.7039475 C217.951996,33.7014651 227.168792,37.7703033 245.012554,33.6922493 C262.856316,29.6141953 278.853964,26.7703126 286.899098,37.9172526 C292.262521,45.3485459 298.859219,57.0621746 306.689192,73.0581385 L179.342469,134.335898 L129.01647,181.365218 L120.964368,196.063845 Z" id="Path-133" fill="#73B5EC" transform="translate(204.241331, 132.133216) rotate(21.000000) translate(-204.241331, -132.133216) "></path>
            <path d="M127.689864,208.057876 C121.962606,213.738534 112.120759,222.047616 117.045034,208.061501 C121.969308,194.075386 147.008828,145.050064 184.505848,120.667936 C222.002868,96.2858077 272.291552,77.3148721 313.663459,68.0685165 C355.035366,58.822161 383.395946,77.847685 375.088794,95.9565647 C366.781643,114.065445 355.063952,125.621774 344.338298,130.65703 C333.612644,135.692286 327.824995,124.312886 316.226462,120.998588 C304.62793,117.684291 278.996243,107.490098 220.364541,135.993683 C161.732838,164.497268 133.417121,202.377218 127.689864,208.057876 Z" id="Path-132" fill="#5196D0" transform="translate(246.122290, 140.696346) rotate(21.000000) translate(-246.122290, -140.696346) "></path>
            <path d="M178.26498,169.321104 C169.998255,171.379211 161.344255,176.151794 155.878338,184.255327 C150.41242,192.358861 147.814102,194.807529 146.629345,193.93287 C145.444589,193.058211 150.677938,185.221321 157.550334,174.463629 C164.422729,163.705938 176.133015,160.30741 187.515401,155.453929 C198.897786,150.600447 212.080263,148.768623 212.077268,157.555087 C212.074273,166.34155 186.531706,167.262997 178.26498,169.321104 Z" id="Path-134" fill="#F8C37C" transform="translate(179.269311, 172.744786) rotate(19.000000) translate(-179.269311, -172.744786) "></path>
            <path d="M275.599847,182.40639 C271.631801,186.900704 265.189274,196.820874 257.909682,190.475481 C250.63009,184.130088 278.321299,164.884932 285.354144,161.077122 C292.38699,157.269313 296.791846,155.859631 305.160009,158.463579 C313.528172,161.067527 320.027276,163.279624 315.499636,163.281166 C310.971996,163.282708 304.188226,159.612589 296.134744,164.86355 C288.081262,170.114512 279.567893,177.912076 275.599847,182.40639 Z" id="Path-135" fill="#F8C37C" transform="translate(286.843277, 174.835775) rotate(42.000000) translate(-286.843277, -174.835775) "></path>
            <path d="M239.755842,263.730007 C236.887041,263.730266 234.669781,264.307387 233.104062,265.46137 C230.755483,267.192344 229.349032,269.800154 227.316337,269.110081 C225.283642,268.420008 226.951222,263.487108 231.117353,262.128057 C233.894773,261.222023 236.77427,261.756007 239.755842,263.730007 Z" id="Path-136" fill="#F8C37C" transform="translate(233.103985, 265.462110) rotate(21.000000) translate(-233.103985, -265.462110) "></path>
            <path d="M253.125327,268.659164 C254.056255,265.927037 255.272646,264.560718 256.7745,264.560207 C259.027282,264.55944 260.797247,265.557069 260.797943,263.514186 C260.79864,261.471303 256.939276,260.168298 254.903349,262.211874 C253.546064,263.574258 252.95339,265.723354 253.125327,268.659164 Z" id="Path-137" fill="#F8C37C" transform="translate(256.947137, 264.921631) rotate(21.000000) translate(-256.947137, -264.921631) "></path>
            <path d="M213.620512,309.924387 C208.869979,305.241254 216.044384,296.580147 218.539273,292.283764 C223.545905,283.661975 231.410805,279.702436 238.662064,280.679904 C245.913324,281.657372 243.041815,282.816218 248.603752,282.679904 C253.956136,282.548726 259.412623,280.188436 263.612828,283.661975 C272.177681,290.745044 263.550087,296.78037 268.348987,303.974852 C273.147888,311.169334 268.348987,334.242187 245.369461,334.242187 C222.389934,334.242187 218.371045,314.607519 213.620512,309.924387 Z" id="Path-138" fill="#FA8F59"></path>
            <path d="M219.032949,304.735837 C227.746973,297.740071 236.453063,294.242187 245.151218,294.242187 C253.849374,294.242187 259.862564,296.545895 263.190787,301.153311 C265.9837,308.911709 261.829885,314.293971 250.729341,317.300097 C239.628797,320.306224 229.063333,316.118137 219.032949,304.735837 Z" id="Path" fill="#F47C30"></path>
        </g>
    </g>
</svg>