<svg width="99" height="97" viewBox="0 0 99 97" fill="none" xmlns="http://www.w3.org/2000/svg">
<path fill-rule="evenodd" clip-rule="evenodd" d="M24.638 19.1003L12.7762 59.1834L73.8867 77.8814L85.6436 37.7415L24.638 19.1003Z" fill="#FAF0E4"/>
<path fill-rule="evenodd" clip-rule="evenodd" d="M9.28491 40.9714L25.9632 79.3014L84.7954 54.3439L68.0002 16.0377L9.28491 40.9714Z" fill="white"/>
<rect x="23.3528" y="42.0581" width="47.335" height="13.5638" rx="6.78192" fill="#F5DEAA"/>
<path fill-rule="evenodd" clip-rule="evenodd" d="M25.971 47.2586C25.971 47.2586 25.7282 51.6795 33.0011 51.6795C40.2739 51.6795 40.515 49.469 40.515 49.469C40.515 49.469 42.0921 51.6795 48.1582 51.6795C54.2243 51.6795 55.1007 49.469 55.1007 49.469C55.1007 49.469 56.9135 51.6795 62.4406 51.6795C67.9676 51.6795 68.697 49.186 67.5189 46.4822C66.3408 43.7784 25.971 47.2586 25.971 47.2586Z" fill="#FA8F59"/>
<path fill-rule="evenodd" clip-rule="evenodd" d="M26.24 45.8759C26.24 45.8759 24.1482 48.2597 25.1941 49.4967C26.24 50.7337 28.9657 49.4967 28.9657 49.4967C28.9657 49.4967 29.0111 51.5236 30.7293 51.5236C32.4475 51.5236 34.3251 47.8839 34.3251 47.8839H35.8568C35.8568 47.8839 35.4448 51.2468 38.3952 51.2468C41.3455 51.2468 40.515 49.4967 40.515 49.4967C40.515 49.4967 41.1271 51.2468 43.5308 51.2468C45.9345 51.2468 46.9817 47.8839 46.9817 47.8839H49.8018C49.8018 47.8839 49.206 51.2468 51.6162 51.2468C54.0264 51.2468 54.4757 48.6997 54.4757 48.6997C54.4757 48.6997 54.0421 51.2468 55.9241 51.2468C57.8061 51.2468 58.809 47.8839 58.809 47.8839C58.809 47.8839 58.7517 51.2468 60.4434 51.2468C62.1351 51.2468 62.9942 47.8839 62.9942 47.8839C62.9942 47.8839 65.4159 51.2468 68.0002 51.2468C70.5845 51.2468 70.6829 46.868 66.8442 45.8759C63.0054 44.8838 26.24 45.8759 26.24 45.8759Z" fill="#8ACD3F"/>
<path fill-rule="evenodd" clip-rule="evenodd" d="M28.9658 48.5585L38.6175 51.0952L39.2917 49.3889L47.9151 51.0952L48.6266 49.3889L57.1629 51.0952L57.9847 49.3889L66.0642 51.0952L68.0004 46.5056L28.9658 48.5585Z" fill="white"/>
<rect x="23.3528" y="35.4146" width="47.335" height="13.5638" rx="6.78192" fill="#FEE7B5"/>
<path d="M32.4474 45.3145C32.4474 45.3145 30.7292 44.157 30.7292 41.6587C30.7292 39.1603 31.5883 38.7365 31.5883 38.7365" stroke="#BF8756" stroke-width="3" stroke-linecap="round"/>
<path d="M42.2333 45.3145C42.2333 45.3145 40.5151 44.157 40.5151 41.6587C40.5151 39.1603 41.3742 38.7365 41.3742 38.7365" stroke="#BF8756" stroke-width="3" stroke-linecap="round"/>
<path d="M52.4755 45.3145C52.4755 45.3145 50.7573 44.157 50.7573 41.6587C50.7573 39.1603 51.6164 38.7365 51.6164 38.7365" stroke="#BF8756" stroke-width="3" stroke-linecap="round"/>
<path d="M62.9943 45.3145C62.9943 45.3145 61.2761 44.157 61.2761 41.6587C61.2761 39.1603 62.1352 38.7365 62.1352 38.7365" stroke="#BF8756" stroke-width="3" stroke-linecap="round"/>
</svg>
