<?xml version="1.0" encoding="UTF-8"?>
<svg width="705px" height="697px" viewBox="0 0 705 697" version="1.1" xmlns="http://www.w3.org/2000/svg" xmlns:xlink="http://www.w3.org/1999/xlink">
    <!-- Generator: Sketch 53 (72520) - https://sketchapp.com -->
    <title>Group 6</title>
    <desc>Created with Sketch.</desc>
    <defs>
        <rect id="path-1" x="0" y="0" width="216" height="180"></rect>
        <rect id="path-3" x="0" y="0" width="216" height="180"></rect>
        <rect id="path-5" x="0" y="0" width="232" height="135"></rect>
        <ellipse id="path-7" cx="60.6825781" cy="61.7267316" rx="60.68" ry="61.6666667"></ellipse>
    </defs>
    <g id="Page-1" stroke="none" stroke-width="1" fill="none" fill-rule="evenodd">
        <g id="Landing-sign-up" transform="translate(-80.000000, -103.000000)">
            <g id="Group-6" transform="translate(80.000000, 103.000000)">
                <g id="Group-5" transform="translate(0.000000, 48.000000)">
                    <rect id="Rectangle" fill="#FFFFFF" opacity="0.751046317" x="0" y="0" width="249" height="406"></rect>
                    <g id="Path-328" transform="translate(17.000000, 15.000000)">
                        <mask id="mask-2" fill="white">
                            <use xlink:href="#path-1"></use>
                        </mask>
                        <use id="Mask" fill="#FBF4E9" xlink:href="#path-1"></use>
                        <path d="M194.862408,78.2404438 C194.914569,85.2732071 198.021404,88.7895887 204.182911,88.7895887 C210.344419,88.7895887 229.896431,88.7895887 262.838945,88.7895887 C269.612982,89.7938563 273,93.1716996 273,98.9231186 C273,104.674538 269.612982,107.700165 262.838945,108 L117.077446,108 C111.966401,106.597638 109.410878,103.572011 109.410878,98.9231186 C109.410878,91.9497805 112.575307,88.7895887 117.077446,88.7895887 C120.078872,88.7895887 135.735477,88.7895887 164.047262,88.7895887 C170.146466,87.8098859 173.196069,84.2935043 173.196069,78.2404438 C173.196069,72.1873833 170.146466,69.0972735 164.047262,68.9701144 L100.034954,68.9701144 C94.678318,67.6269968 92,64.104474 92,58.4025459 C92,52.7006178 94.678318,49.5664358 100.034954,49 L244.172945,49 C250.660459,49.3915921 253.904216,52.5257741 253.904216,58.4025459 C253.904216,64.2793177 250.660459,67.8018405 244.172945,68.9701144 C223.726591,68.9701144 210.39658,68.9701144 204.182911,68.9701144 C197.969243,68.9701144 194.862408,72.0602242 194.862408,78.2404438 Z" fill="#FFFAF2" mask="url(#mask-2)"></path>
                    </g>
                    <g id="Path-327" transform="translate(17.000000, 210.000000)">
                        <mask id="mask-4" fill="white">
                            <use xlink:href="#path-3"></use>
                        </mask>
                        <use id="Mask" fill="#FBF4E9" xlink:href="#path-3"></use>
                        <path d="M-37.7318476,115 C-43.7332854,113.83797 -46.7340043,110.840248 -46.7340043,106.006835 C-46.7340043,101.173422 -43.7332854,98.0026172 -37.7318476,96.49442 L11.6808052,96.49442 C18.3048167,95.2691893 21.6168224,92.0667839 21.6168224,86.8872037 C21.6168224,79.1178334 16.5981308,75.7868721 11.6808052,75.7868721 C8.40258807,75.7868721 -16.7936736,75.7868721 -63.9079799,75.7868721 C-69.30266,76.424624 -72,73.7299783 -72,67.7029349 C-72,61.6758915 -69.30266,58.6623698 -63.9079799,58.6623698 C3.56737158,58.8419307 38.3168324,58.8419307 40.3404026,58.6623698 C43.3757579,58.3930285 49.5571531,56.0639615 49.5571531,48.5940761 C49.5571531,41.1241907 45.8767074,39.1161338 40.3404026,39.1161338 C36.6495327,39.1161338 27.736161,39.1161338 13.6002876,39.1161338 C7.64485981,37.9497946 4.66714594,34.5671237 4.66714594,28.968121 C4.66714594,23.3691183 7.64485981,20.0474935 13.6002876,19.0032465 L106.880661,19.0032465 C113.530554,18.8811543 116.8555,22.2027791 116.8555,28.968121 C116.8555,35.7334628 113.530554,39.1161338 106.880661,39.1161338 C88.4255931,39.1161338 78.0682962,39.1161338 75.8087707,39.1161338 C72.4194824,39.1161338 68.1826024,41.660678 68.1826024,48.5940761 C68.1826024,55.5274742 72.0571531,58.6623698 75.8087707,58.6623698 C78.309849,58.6623698 98.0237239,58.6623698 134.950395,58.6623698 C140.983465,59.3001218 144,62.3136435 144,67.7029349 C144,73.0922264 140.983465,75.7868721 134.950395,75.7868721 L50.8360891,75.7868721 C44.2580877,76.7822822 40.969087,80.4823928 40.969087,86.8872037 C40.969087,93.2920146 44.2580877,96.49442 50.8360891,96.49442 L96.6211359,96.49442 C103.46082,96.8405872 106.880661,100.011392 106.880661,106.006835 C106.880661,112.002278 103.46082,115 96.6211359,115 L-37.7318476,115 Z" fill="#FFFAF2" mask="url(#mask-4)"></path>
                    </g>
                </g>
                <g id="Group-4" transform="translate(251.000000, 361.000000)">
                    <rect id="Rectangle" fill="#596175" x="20" y="0" width="267" height="174" rx="20"></rect>
                    <g id="Group-43" transform="translate(37.000000, 17.000000)">
                        <mask id="mask-6" fill="white">
                            <use xlink:href="#path-5"></use>
                        </mask>
                        <use id="Mask" fill="#FFFFFF" xlink:href="#path-5"></use>
                        <g mask="url(#mask-6)">
                            <g transform="translate(12.000000, -6.000000)">
                                <path d="M6.79569673,194 C8.44618134,223.510051 8.67386604,244.705994 7.47875083,257.58783 C6.80327623,264.868594 4.77668014,274.882663 3.37853067,287.630036 C1.97807903,300.398398 1.01856881,315.188386 0.5,332 L27.4587276,332 C36.8195759,278.808308 41.5,247.65862 41.5,238.550937 C41.5,229.443253 39.7314935,214.592941 36.1944806,194 L6.79569673,194 Z" id="Path-148" fill="#FDC982"></path>
                                <path d="M180.95592,176 C182.376891,208.77361 182.521628,233.235789 181.39013,249.386536 C180.796323,257.862419 183.372919,280.717127 184.612408,296.335904 C185.213001,303.903957 185.842198,314.458656 186.5,328 L158.85086,328 C157.686436,295.377243 157.104224,269.172755 157.104224,249.386536 C157.104224,229.600317 155.902816,211.350147 153.5,194.636026 L180.95592,176 Z" id="Path-149" fill="#FDC982"></path>
                                <path d="M159.181059,120.258092 C164.719664,123.240659 171.495591,128.997335 179.50884,137.528121 C187.522089,146.058906 192.185809,164.857104 193.5,193.922715 C182.450307,199.418543 171.01066,202.446816 159.181059,203.007533 C147.351457,203.56825 108.037841,224.899073 41.2402112,267 C43.9080369,244.437644 43.0112974,223.247001 38.5499927,203.428071 C30.5582381,200.249579 18.8749072,198.660333 3.5,198.660333 C5.44272477,172.303009 9.16965336,153.109905 14.6807858,141.08102 C20.1919182,129.052136 31.5666392,122.008079 48.8049487,119.948849 L81.5795756,97.1473018 L139.893323,95 L159.181059,120.258092 Z" id="Path-142" fill="#FA8F59"></path>
                                <path d="M22.5,332.801039 C30.7096394,299.75514 36.2406546,259.181482 39.0930455,211.080065 C40.626025,193.378368 39.548161,178.136379 52.4502762,179.038076 C65.3523913,179.939774 90.5778786,182.753572 104.184625,185.676705 C117.791371,188.599839 137.115423,180.986622 149.593082,183.331664 C162.070741,185.676705 163.5,199.930436 163.5,219.306561 C163.5,238.682686 162.141874,315.184482 160.259121,327.167317 C159.003953,335.155874 113.084246,337.033781 22.5,332.801039 Z" id="Path-143" fill="#73B5EC"></path>
                                <path d="M156.060568,177.031759 C152.347288,178.38478 149.425457,179.865181 152.546893,185.421755 C155.668329,190.978328 152.694537,195 147.457292,195 C142.220047,195 140.259487,189.478915 142.956367,185.421755 C145.653247,181.364594 145.416256,178.054521 141.472956,176.740158 C137.529656,175.425795 135.376461,170.498602 140.557943,168.428829 C145.739425,166.359056 157.009047,166.383138 160.257592,169.527089 C163.506137,172.67104 159.773847,175.678739 156.060568,177.031759 Z" id="Path-144" fill="#F8F1E7"></path>
                                <path d="M48.1532168,177.747833 C46.2435244,174.931645 44.0699331,175.623571 41.3620439,174.27942 C38.6541547,172.935269 38.6606546,167.980838 42.9766375,166.871778 C47.2926203,165.762718 55.7880864,164 60.0319195,164 C64.2757526,164 65.0212997,170.170531 60.0319195,172.935269 C55.0425394,175.700007 54.9560898,178.426517 56.6694829,182.035625 C57.308912,183.382525 60.0319195,186.945079 55.4903876,190.119086 C52.5256798,192.191075 47.0014214,190.449076 47.0014214,186.555843 C47.0014214,180.344612 50.0629092,180.564022 48.1532168,177.747833 Z" id="Path-146" fill="#F8F1E7"></path>
                                <path d="M78.5,133.588654 C87.5851528,153.862885 97.0759949,164 106.972526,164 C116.869058,164 122.926417,156.290952 125.144605,140.872857 L127.5,100.20734 L86.1876684,89 L78.5,133.588654 Z" id="Path-141" fill="#FFDDAD"></path>
                                <path d="M87.2706763,89.5427402 C90.7571749,100.686854 92.5004242,110.678223 92.5004242,119.516847 C92.5004242,132.774782 97.6545387,152.731949 81,151 C64.3454613,149.268051 30.1440038,170.376954 38.5,144 C43.4566658,128.353541 42.5569274,88.7917542 63.5,30 C67.6506541,18.3482123 74.9841288,11.515357 85.5004242,9.50143384 C88.32064,4.17041132 97.9129238,1.03495466 114.277276,0.095063869 C177.898835,-3.55905694 161.5,126.5 161.5,155 C161.5,183.5 136.352298,157.099254 126.037591,151 C115.722884,144.900746 121.037591,133.619052 126.439726,104.664109 C130.041149,85.3608139 116.984799,80.3203576 87.2706763,89.5427402 Z" id="Path-140" fill="#596175"></path>
                                <path d="M78.1066144,52.1519019 C74.6596412,58.8972055 74.4337793,67.5121564 76.4367236,70.4888029 C78.4396679,73.4654495 78.4634424,73.8928669 74.9710351,72.6254175 C71.4786278,71.3579681 66.2932281,72.6935591 68.2224991,77.8806869 C69.5970519,81.5763736 70.4530376,82.3162878 72.2753738,84.8365007 C73.0108006,85.8535646 73.632217,87.4304207 74.9282185,89.1912847 C79.4356207,95.3154459 83.3505208,96.3465339 85.1606655,95.8213076 C86.3674285,95.4711568 87.1042613,94.2443331 87.3711638,92.1408364 C91.0453047,98.111197 95.0283864,102.084914 99.3204089,104.061989 C105.758443,107.0276 116.518698,111.037696 131.206232,106.402695 C145.893765,101.767694 145.294676,75.7653186 144.493163,69.1923794 C143.69165,62.6194402 142.385619,56.7706819 139.842352,48.4718898 C137.299086,40.1730978 135.461054,33.279158 126.81462,31.0348477 C118.168186,28.7905373 103.788019,39.0571187 90.6795853,39.2371928 C85.7542749,39.3048532 81.1502177,37.5857063 76.8674137,34.0797523 C79.9915296,41.630983 80.4045965,47.6550329 78.1066144,52.1519019 Z" id="Path-139" fill="#FFDDAD" transform="translate(106.318527, 69.614725) rotate(21.000000) translate(-106.318527, -69.614725) "></path>
                                <path d="M96.0442543,48.0824091 C93.2048229,48.7917593 90.2303667,50.4286316 88.3477849,53.2008656 C86.465203,55.9730997 85.57136,56.8115188 85.165319,56.5136554 C84.7592781,56.2157921 86.5618181,53.5348176 88.9292577,49.854885 C91.2966972,46.1749524 95.3192829,45.0050966 99.230419,43.3385012 C103.141555,41.6719057 107.668324,41.0360856 107.660567,44.0374147 C107.652809,47.0387438 98.8836856,47.3730588 96.0442543,48.0824091 Z" id="Path-134" fill="#596175" transform="translate(96.384281, 49.253970) rotate(21.000000) translate(-96.384281, -49.253970) "></path>
                                <path d="M129.480285,50.5120875 C128.114667,52.0503181 125.895437,55.4438365 123.401311,53.2819187 C120.907185,51.120001 130.427942,44.5249305 132.845139,43.2188526 C135.262336,41.9127746 136.775544,41.4278743 139.646226,42.3109358 C142.516909,43.1939973 144.74627,43.9446395 143.191991,43.9486338 C141.637712,43.9526281 139.311747,42.7041648 136.543073,44.5039841 C133.7744,46.3038034 130.845904,48.9738569 129.480285,50.5120875 Z" id="Path-135" fill="#596175" transform="translate(133.345370, 47.922564) rotate(21.000000) translate(-133.345370, -47.922564) "></path>
                                <path d="M116.824468,77.568426 C115.839647,77.5707116 115.07805,77.7695457 114.539676,78.1649284 C113.732115,78.7580024 113.247302,79.6498692 112.550034,79.4157071 C111.852765,79.1815451 112.429001,77.495262 113.860218,77.0278394 C114.814363,76.7162244 115.802446,76.8964199 116.824468,77.568426 Z" id="Path-136" fill="#F8C37C" transform="translate(114.539475, 78.166885) rotate(21.000000) translate(-114.539475, -78.166885) "></path>
                                <path d="M121.417038,79.2602362 C121.738706,78.326269 122.157323,77.8586229 122.67289,77.8572979 C123.44624,77.8553105 124.053081,78.1947304 124.054884,77.4969112 C124.056688,76.799092 122.732818,76.3569603 122.032347,77.056575 C121.565366,77.5229848 121.360263,78.2575386 121.417038,79.2602362 Z" id="Path-137" fill="#F8C37C" transform="translate(122.731347, 77.981873) rotate(21.000000) translate(-122.731347, -77.981873) "></path>
                                <path d="M107.562694,96.7121755 C106.1381,95.7574176 106.224748,94.6309252 107.822638,93.3326982 C108.815863,92.5257388 109.426367,91.8717223 110.11475,90.5524538 C111.087561,88.6880864 112.086185,86.1668842 113.41601,85.8297461 C115.68685,85.2540415 116.008476,86.4670513 116.785319,86.4650549 C117.562161,86.4630585 117.582034,81.9974001 121.240502,84.1254565 C124.89897,86.2535129 126.831052,85.1949551 127.275588,85.8377801 C127.720123,86.4806052 129.012788,94.3457032 122.857845,97.6132267 C118.75455,99.7915757 113.656167,99.4912253 107.562694,96.7121755 Z" id="Path-138" fill="#FA8F59" transform="translate(117.127021, 91.299832) rotate(21.000000) translate(-117.127021, -91.299832) "></path>
                                <path d="M103.190201,59.9764017 C100.091953,61.5825473 94.2401893,61.057128 92.1758266,60.0461018 C90.1114639,59.0350757 93.1446678,56.638685 96.3163219,56.130331 C99.4879759,55.6219769 101.178183,56.733071 102.109236,57.1952144 C103.04029,57.6573577 106.288448,58.3702562 103.190201,59.9764017 Z" id="Path-150" fill="#FCF6ED"></path>
                                <path d="M136.500651,59.7089978 C133.568376,61.3016542 128.032456,60.7849753 126.080064,59.784971 C124.127673,58.7849666 126.998936,56.4097039 129.999931,55.904238 C133.000925,55.3987722 134.599266,56.4981183 135.479816,56.9552315 C136.360365,57.4123446 139.432926,58.1163415 136.500651,59.7089978 Z" id="Path-150-Copy" fill="#FCF6ED" transform="translate(131.590959, 58.250152) scale(-1, 1) rotate(5.000000) translate(-131.590959, -58.250152) "></path>
                                <circle id="Oval" fill="#49515E" cx="98.5" cy="59" r="2"></circle>
                                <circle id="Oval-Copy-7" fill="#49515E" cx="132.5" cy="58" r="2"></circle>
                            </g>
                        </g>
                    </g>
                    <path d="M6,150 L300,150 C303.313708,150 306,152.686292 306,156 L306,174 L0,174 L0,156 C-4.05812251e-16,152.686292 2.6862915,150 6,150 Z" id="Rectangle" fill="#F9F7F1"></path>
                    <rect id="Rectangle" fill="#ECEAE4" x="123" y="150" width="60" height="13"></rect>
                </g>
                <g id="Group-3" transform="translate(41.000000, 534.000000)" fill="#F8F0E4">
                    <rect id="Rectangle" x="1" y="0" width="663" height="31"></rect>
                    <polygon id="Rectangle" points="56.2962963 30 76 30 19.7037037 254 0 254"></polygon>
                    <polygon id="Rectangle-Copy-451" transform="translate(632.000000, 142.000000) scale(-1, 1) translate(-632.000000, -142.000000) " points="650.296296 30 670 30 613.703704 254 594 254"></polygon>
                </g>
                <polygon id="Rectangle" fill="#808CAB" points="604 461 660 461 656 534 608 534"></polygon>
                <rect id="Rectangle" fill="#ECEAE4" x="120" y="505" width="17" height="22"></rect>
                <path d="M99,526 L155,526 C159.970563,526 164,530.029437 164,535 L164,535 L90,535 L90,535 C90,530.029437 94.0294373,526 99,526 Z" id="Rectangle" fill="#ECEAE4"></path>
                <g id="Group-77" transform="translate(106.220982, 455.964155) rotate(-225.000000) translate(-106.220982, -455.964155) translate(64.720982, 360.464155)" fill="#ECEAE4">
                    <path d="M8.2583649,172.949233 L8.2583649,164.949233 C47.0954027,164.949233 78.583649,133.371536 78.583649,94.4128069 C78.583649,55.4540781 47.0954027,23.8763804 8.2583649,23.8763804 L8.2583649,15.8763804 C51.5187689,15.8763804 86.583649,51.0408724 86.583649,94.4128069 C86.583649,137.784741 51.5187689,172.949233 8.2583649,172.949233 Z" id="Oval" fill-rule="nonzero"></path>
                    <polygon id="Rectangle" points="1.65167298 9.9381902 13.2133838 9.9381902 13.2133838 178.887424 1.65167298 178.887424"></polygon>
                    <ellipse id="Oval" cx="7.43252841" cy="7.45364265" rx="7.43252841" ry="7.45364265"></ellipse>
                    <ellipse id="Oval-Copy-11" cx="7.43252841" cy="183.028336" rx="7.43252841" ry="7.45364265"></ellipse>
                </g>
                <g id="Path-331-+-Path-332-Mask" transform="translate(69.000000, 372.000000)">
                    <mask id="mask-8" fill="white">
                        <use xlink:href="#path-7"></use>
                    </mask>
                    <use id="Mask" fill="#62ADDF" xlink:href="#path-7"></use>
                    <path d="M44.9648438,60.383688 C44.9648438,64.1518618 45.9225781,75.2553774 50.8425781,75.2553774 C55.7625781,75.2553774 67.2425781,63.4891567 67.2425781,67.8195327 C67.2425781,72.1499087 66.0205859,78.8100649 74.7523047,78.8100649 C83.4840234,78.8100649 81.1649609,70.717617 77.9586328,63.8409894 C74.7523047,56.9643618 67.88,50.0812238 69.9860547,45.3595441 C72.0921094,40.6378644 78.9548047,43.2241274 84.4978125,40.2260806 C90.0408203,37.2280337 84.4978125,26.6665103 84.4978125,18.6294009 C84.4978125,13.271328 84.4978125,7.08154932 84.4978125,0.0600649489 L53.4050781,-2.66666667 C47.7782552,0.536788091 44.9648438,5.82612398 44.9648438,13.201341 C44.9648438,24.2641665 44.4984075,30.7208722 38.2741256,30.7208722 C32.0498438,30.7208722 28.6667338,43.7042707 33.4704297,47.9881248 C38.2741256,52.271979 44.9648438,56.6155142 44.9648438,60.383688 Z" id="Path-331" fill="#71BBED" mask="url(#mask-8)"></path>
                    <path d="M-2.64,55.9568748 C5.53864583,54.9202733 11.5770703,56.3958777 15.4752734,60.383688 C21.3225781,66.3654035 24.5593359,65.3237368 24.5593359,78.8100649 C24.5593359,92.2963931 26.8687891,93.8937028 33.7843359,90.6915754 C40.6998828,87.4894479 53.3025781,84.2873205 55.7625781,87.4894479 C58.2225781,90.6915754 58.0111882,103.272956 62.6268832,109.303229 C67.2425781,115.333502 67.0311882,121.563971 62.6268832,118.448737 C58.2225781,115.333502 53.8689213,107.545417 46.0715234,103.961432 C38.2741256,100.377448 32.2932813,96.9073957 26.8079297,96.9073957 C23.1510286,96.9073957 15.3407422,97.6468705 3.37707031,99.1258202 L-2.64,55.9568748 Z" id="Path-332" fill="#71BBED" mask="url(#mask-8)"></path>
                </g>
                <path d="M208.245716,82 L463.756935,82 C487.63942,82 507,101.36058 507,125.243065 L507,125.243065 C507,149.12555 487.63942,168.48613 463.756935,168.48613 C396.118697,168.48613 328.480459,168.48613 260.84222,168.48613 C240.478935,168.48613 224.026971,173.965626 211.486331,184.924619 L211.486337,184.924626 C210.654598,185.651466 209.39112,185.566427 208.664281,184.734687 C208.439633,184.477617 208.284529,184.167321 208.213738,183.833344 C207.115193,178.650638 208.785951,173.534899 213.226013,168.48613 C211.246709,168.48613 209.267405,168.48613 207.288101,168.48613 L207.288101,168.48613 C183.667142,168.48613 164.518571,149.337559 164.518571,125.7166 C164.518571,125.558751 164.519445,125.400904 164.521193,125.243065 L164.521193,125.243065 C164.786484,101.283522 184.284704,82 208.245716,82 Z" id="Rectangle-Copy-2" fill="#596175"></path>
                <path d="M440.728719,-2.38807662e-17 L610.239141,7.10542736e-15 C628.598779,3.73281662e-15 643.482206,14.8834271 643.482206,33.2430649 L643.482206,33.2430649 C643.482206,51.6027026 628.598779,66.4861297 610.239141,66.4861297 C571.267569,66.4861297 532.295998,66.4861297 493.324426,66.4861297 C472.919526,66.4861297 456.441951,71.6908669 443.891701,82.1003413 L443.891709,82.1003511 C443.041518,82.8055202 441.780649,82.6879562 441.07548,81.8377646 C440.871937,81.5923617 440.730012,81.3018531 440.661541,80.9904627 C439.633569,76.3155078 441.315795,71.4807302 445.708219,66.4861297 C443.729181,66.4861297 441.750143,66.4861297 439.771104,66.4861297 L439.771104,66.4861297 C421.672123,66.4861297 407,51.8140065 407,33.7150253 C407,33.5576991 407.001133,33.4003748 407.003399,33.2430649 L407.003399,33.2430649 C407.268945,14.8064886 422.29023,-1.08237593e-14 440.728719,-1.42108547e-14 Z" id="Rectangle-Copy-4" fill="#596175" transform="translate(525.241103, 41.280504) scale(-1, 1) translate(-525.241103, -41.280504) "></path>
                <path d="M424.728719,184 L607.239141,184 C625.598779,184 640.482206,198.883427 640.482206,217.243065 L640.482206,217.243065 C640.482206,235.602703 625.598779,250.48613 607.239141,250.48613 C563.934236,250.48613 520.629331,250.48613 477.324426,250.48613 C456.919526,250.48613 440.441951,255.690867 427.891701,266.100341 L427.891709,266.100351 C427.041518,266.80552 425.780649,266.687956 425.07548,265.837765 C424.871937,265.592362 424.730012,265.301853 424.661541,264.990463 C423.633569,260.315508 425.315795,255.48073 429.708219,250.48613 C427.729181,250.48613 425.750143,250.48613 423.771104,250.48613 L423.771104,250.48613 C405.672123,250.48613 391,235.814007 391,217.715025 C391,217.557699 391.001133,217.400375 391.003399,217.243065 L391.003399,217.243065 C391.268945,198.806489 406.29023,184 424.728719,184 Z" id="Rectangle-Copy-5" fill="#596175" transform="translate(515.741103, 225.280504) scale(-1, 1) translate(-515.741103, -225.280504) "></path>
                <path d="M198.728719,266 L513.239141,266 C531.598779,266 546.482206,280.883427 546.482206,299.243065 L546.482206,299.243065 C546.482206,317.602703 531.598779,332.48613 513.239141,332.48613 C425.934236,332.48613 338.629331,332.48613 251.324426,332.48613 C231.08173,332.48613 214.704169,337.608448 202.191742,347.853084 L202.191734,347.853075 C201.337091,348.55282 200.07701,348.42725 199.377265,347.572607 C199.121013,347.25963 198.965686,346.876308 198.931783,346.473233 C198.552103,341.959131 200.477582,337.296763 204.708219,332.48613 C202.395847,332.48613 200.083476,332.48613 197.771104,332.48613 L197.771104,332.48613 C179.672123,332.48613 165,317.814007 165,299.715025 C165,299.557699 165.001133,299.400375 165.003399,299.243065 L165.003399,299.243065 C165.268945,280.806489 180.29023,266 198.728719,266 Z" id="Rectangle-Copy-6" fill="#596175"></path>
                <text id="Anna:" opacity="0.502162388" font-family="MicrosoftSansSerif, Microsoft Sans Serif" font-size="16" font-weight="normal" letter-spacing="0.285714298" fill="#FFFFFF">
                    <tspan x="186" y="117">Anna:</tspan>
                </text>
                <text id="Anna:-Copy" opacity="0.502162388" font-family="MicrosoftSansSerif, Microsoft Sans Serif" font-size="16" font-weight="normal" letter-spacing="0.285714298" fill="#FFFFFF">
                    <tspan x="183" y="305">Anna:</tspan>
                </text>
                <text id="Me:" opacity="0.502162388" font-family="MicrosoftSansSerif, Microsoft Sans Serif" font-size="16" font-weight="normal" letter-spacing="0.285714298" fill="#FFFFFF">
                    <tspan x="429" y="38">Me:</tspan>
                </text>
                <text id="Me:-Copy" opacity="0.502162388" font-family="MicrosoftSansSerif, Microsoft Sans Serif" font-size="16" font-weight="normal" letter-spacing="0.285714298" fill="#FFFFFF">
                    <tspan x="409" y="222">Me:</tspan>
                </text>
                <text id="Hi,-everything's-jus" font-family="MicrosoftSansSerif, Microsoft Sans Serif" font-size="16" font-weight="normal" line-spacing="23" letter-spacing="0.285714298" fill="#FFFFFF">
                    <tspan x="234" y="116">Hi, everything's just great!</tspan>
                    <tspan x="234" y="139">Do you still want to go to America?</tspan>
                </text>
                <text id="Come-on,-I'll-help-y" font-family="MicrosoftSansSerif, Microsoft Sans Serif" font-size="16" font-weight="normal" line-spacing="24" letter-spacing="0.285714298" fill="#FFFFFF">
                    <tspan x="231" y="302">Come on, I'll help you with the transition!</tspan>
                </text>
                <text id="Hi,-Anna.-What's-new" font-family="MicrosoftSansSerif, Microsoft Sans Serif" font-size="16" font-weight="normal" letter-spacing="0.285714298" fill="#FFFFFF">
                    <tspan x="462" y="38">Hi, Anna. What's new?</tspan>
                </text>
                <text id="Yes,-I'm-thinking-ab" font-family="MicrosoftSansSerif, Microsoft Sans Serif" font-size="16" font-weight="normal" letter-spacing="0.285714298" fill="#FFFFFF">
                    <tspan x="442" y="222">Yes, I'm thinking about it</tspan>
                </text>
                <path d="M649,469 L649,461 L665.147718,461 L665.295033,461.010895 C673.699297,461.632472 678.480469,466.750512 678.480469,475.148437 C678.480469,483.546363 673.699297,488.664403 665.295033,489.28598 L665.147718,489.296875 L649,489.296875 L649,481.296875 L664.844641,481.296875 C668.97521,480.957668 670.480469,479.300398 670.480469,475.148437 C670.480469,470.996477 668.97521,469.339207 664.844641,469 L649,469 Z" id="Path-336" fill="#808CAB" fill-rule="nonzero"></path>
            </g>
        </g>
    </g>
</svg>