<?xml version="1.0" encoding="UTF-8"?>
<svg width="92px" height="92px" viewBox="0 0 92 92" version="1.1" xmlns="http://www.w3.org/2000/svg" xmlns:xlink="http://www.w3.org/1999/xlink">
    <!-- Generator: Sketch 53 (72520) - https://sketchapp.com -->
    <title>fact-1</title>
    <desc>Created with Sketch.</desc>
    <g id="Page-1" stroke="none" stroke-width="1" fill="none" fill-rule="evenodd">
        <g id="Landing" transform="translate(-259.000000, -1169.000000)">
            <g id="fact-1" transform="translate(259.000000, 1169.000000)">
                <circle id="Oval-Copy-2" fill="#FFFFFF" cx="46" cy="46" r="46"></circle>
                <path d="M29,31 C26.790861,31 25,32.790861 25,35 L25,65.0328568 C25,65.4784839 25.1488277,65.9113468 25.4228654,66.2627537 C26.1021188,67.1337811 27.3588696,67.2892447 28.229897,66.6099913 L38.4020536,58.6774377 L65,58.6774377 C67.209139,58.6774377 69,56.8865767 69,54.6774377 L69,35 C69,32.790861 67.209139,31 65,31 L29,31 Z" id="Rectangle" stroke="#596175" stroke-width="2"></path>
                <path d="M27.9458008,43 L27.9458008,33.6943359 L34.8457031,33.6943359 L34.8457031,35.2685547 L29.824707,35.2685547 L29.824707,37.331543 L34.496582,37.331543 L34.496582,38.8994141 L29.824707,38.8994141 L29.824707,41.4321289 L35.0234375,41.4321289 L35.0234375,43 L27.9458008,43 Z M38.5857422,43 L38.5857422,33.6943359 L40.4138672,33.6943359 L44.2224609,39.9086914 L44.2224609,33.6943359 L45.9680664,33.6943359 L45.9680664,43 L44.0828125,43 L40.3313477,36.9316406 L40.3313477,43 L38.5857422,43 Z" id="EN" fill="#596175" fill-rule="nonzero"></path>
                <path d="M46.9521484,56 L46.9521484,46.6943359 L50.9067383,46.6943359 C51.9012094,46.6943359 52.623777,46.7779126 53.0744629,46.9450684 C53.5251487,47.1122241 53.8859036,47.4095031 54.1567383,47.8369141 C54.427573,48.2643251 54.5629883,48.7530897 54.5629883,49.3032227 C54.5629883,50.0014683 54.3577494,50.5780413 53.9472656,51.032959 C53.5367818,51.4878766 52.9231812,51.7745762 52.1064453,51.8930664 C52.5126973,52.1300468 52.8480618,52.3902981 53.1125488,52.6738281 C53.3770358,52.9573582 53.733559,53.4609339 54.1821289,54.1845703 L55.3183594,56 L53.0712891,56 L51.7128906,53.9750977 C51.2304663,53.2514612 50.9003915,52.7954925 50.7226563,52.6071777 C50.544921,52.418863 50.3566091,52.2897953 50.1577148,52.2199707 C49.9588206,52.1501461 49.6435568,52.1152344 49.2119141,52.1152344 L48.8310547,52.1152344 L48.8310547,56 L46.9521484,56 Z M48.8310547,50.6298828 L50.2211914,50.6298828 C51.1225631,50.6298828 51.685383,50.5917973 51.909668,50.515625 C52.1339529,50.4394527 52.3095697,50.3082692 52.4365234,50.1220703 C52.5634772,49.9358715 52.6269531,49.7031264 52.6269531,49.4238281 C52.6269531,49.1106755 52.5433765,48.8578297 52.3762207,48.6652832 C52.2090649,48.4727367 51.9731461,48.3510745 51.668457,48.300293 C51.5161125,48.279134 51.0590858,48.2685547 50.2973633,48.2685547 L48.8310547,48.2685547 L48.8310547,50.6298828 Z M58.2712891,46.6943359 L60.1501953,46.6943359 L60.1501953,51.734375 C60.1501953,52.5341837 60.1734698,53.0525704 60.2200195,53.2895508 C60.3004236,53.6704121 60.4919093,53.9761544 60.7944824,54.2067871 C61.0970555,54.4374198 61.510707,54.5527344 62.0354492,54.5527344 C62.568655,54.5527344 62.9706692,54.4437674 63.2415039,54.2258301 C63.5123386,54.0078928 63.6752601,53.740236 63.7302734,53.4228516 C63.7852867,53.1054672 63.812793,52.578617 63.812793,51.8422852 L63.812793,46.6943359 L65.6916992,46.6943359 L65.6916992,51.5820312 C65.6916992,52.6992243 65.6409185,53.4884417 65.5393555,53.949707 C65.4377925,54.4109724 65.2505385,54.8002914 64.9775879,55.1176758 C64.7046373,55.4350602 64.3396507,55.687906 63.8826172,55.8762207 C63.4255837,56.0645354 62.8289099,56.1586914 62.0925781,56.1586914 C61.2039018,56.1586914 60.529999,56.056072 60.0708496,55.8508301 C59.6117002,55.6455882 59.2488295,55.3789893 58.9822266,55.0510254 C58.7156237,54.7230615 58.5400069,54.3792336 58.4553711,54.0195312 C58.3326491,53.4863255 58.2712891,52.699224 58.2712891,51.6582031 L58.2712891,46.6943359 Z" id="RU" fill="#596175" fill-rule="nonzero"></path>
            </g>
        </g>
    </g>
</svg>