<?xml version="1.0" encoding="UTF-8"?>
<svg width="92px" height="92px" viewBox="0 0 92 92" version="1.1" xmlns="http://www.w3.org/2000/svg" xmlns:xlink="http://www.w3.org/1999/xlink">
    <!-- Generator: Sketch 53 (72520) - https://sketchapp.com -->
    <title>fact-2</title>
    <desc>Created with Sketch.</desc>
    <g id="Page-1" stroke="none" stroke-width="1" fill="none" fill-rule="evenodd">
        <g id="Landing" transform="translate(-594.000000, -1170.000000)">
            <g id="fact-2" transform="translate(594.000000, 1170.000000)">
                <g>
                    <circle id="Oval" fill="#FFFFFF" cx="46" cy="46" r="46"></circle>
                    <path d="M46.5,70 C33.5213084,70 23,59.4786916 23,46.5 C23,33.5213084 33.5213084,23 46.5,23 C59.4786916,23 70,33.5213084 70,46.5 C70,59.4786916 59.4786916,70 46.5,70 Z M46.5,68 C58.3741221,68 68,58.3741221 68,46.5 C68,34.6258779 58.3741221,25 46.5,25 C34.6258779,25 25,34.6258779 25,46.5 C25,58.3741221 34.6258779,68 46.5,68 Z" id="Oval" fill="#596175" fill-rule="nonzero"></path>
                    <g id="Group-16" transform="translate(39.289014, 35.700000)" fill="#596175">
                        <path d="M7.66098633,-5.86197757e-14 L7.66098633,-5.86197757e-14 C9.89773956,-5.90306606e-14 11.7109863,1.81324676 11.7109863,4.05 L11.7109863,12.15 C11.7109863,14.3867532 9.89773956,16.2 7.66098633,16.2 L7.66098633,16.2 C5.42423309,16.2 3.61098633,14.3867532 3.61098633,12.15 L3.61098633,4.05 C3.61098633,1.81324676 5.42423309,-5.82088908e-14 7.66098633,-5.86197757e-14 Z" id="Rectangle"></path>
                        <path d="M-0.993820889,11.3609957 L0.993820889,11.1390043 C1.54829469,16.103591 3.71142789,18.4066895 7.66098633,18.4066895 C11.6101712,18.4066895 13.7706949,16.104124 14.3205811,11.1399035 L16.3084229,11.3600965 C15.6536215,17.271462 12.7118015,20.4066895 7.66098633,20.4066895 C2.61054477,20.4066895 -0.333646251,17.2719949 -0.993820889,11.3609957 Z" id="Path-46" fill-rule="nonzero"></path>
                        <polygon id="Path-47" fill-rule="nonzero" points="2.26098633 23.95 2.26098633 21.95 12.6109863 21.95 12.6109863 23.95"></polygon>
                        <polygon id="Path-48" fill-rule="nonzero" points="6.66098633 19.4066895 8.66098633 19.4066895 8.66098633 22.95 6.66098633 22.95"></polygon>
                    </g>
                </g>
                <g id="Group-12" transform="translate(23.000000, 23.000000)"></g>
            </g>
        </g>
    </g>
</svg>