<svg width="1440" height="961" viewBox="0 0 1440 961" fill="none" xmlns="http://www.w3.org/2000/svg">
<g clip-path="url(#clip0)">
<path d="M1440 0H0V493H1440V0Z" fill="url(#paint0_radial)"/>
<path fill-rule="evenodd" clip-rule="evenodd" d="M415.258 493.715V479.73H437.906V474.512C437.906 468.385 442.873 463.418 449 463.418V434.566L479.781 421.695V347.93H524V405.039L548.355 396.555V310.43L591.629 277.344L608.102 310.43V381.594H652.945V375.193H661.453V347.93H665.805L672.383 333.348V326.123L676.553 319.963L678.553 293.189L681.482 319.963L685.131 326.123V333.348L691.947 347.93H697.84V375.193H705.059V381.594H713.871V298.434H717V286.77L730.191 293.189V303.01L757.709 313.32L767.906 326.123V375.193L787.373 386.982V365.324H795.756V336.898H801.727V365.324H806.082V356.58H811.996V396.555L817.383 401.623V274.812H823.688V267.146H831.641V262.773H844.969V252H848.061V262.773H865.217V267.146H873.287V274.812H879.346V386.982L899.977 401.623H906.688L924.258 359.668H949.094V293.189H1000.81V375.193H1058.54V475.885C1061.6 469.718 1065.58 466.635 1070.46 466.635C1075.33 466.635 1079.38 467.835 1082.6 470.236C1085.39 460.192 1091.35 456.053 1100.49 457.82C1109.64 459.587 1114.21 466.891 1114.21 479.73C1119.85 478.082 1124.31 479.281 1127.61 483.328C1130.9 487.375 1132.07 490.837 1131.12 493.715H415.258Z" fill="#FAF0E4"/>
<path fill-rule="evenodd" clip-rule="evenodd" d="M1063.96 397.34C1063.96 408.279 1076.6 409.365 1072.38 416.906C1068.17 424.447 1053.94 425.34 1030.94 425.34C1007.94 425.34 993.687 419.219 997.671 408.279C1001.66 397.34 999.863 392.24 994.818 382.549C989.773 372.857 995.119 361.105 1012.23 357.225C1029.34 353.344 1013.67 338.256 1030.94 338.256C1048.21 338.256 1046.46 357.225 1057.77 357.225C1069.07 357.225 1077.38 367.082 1077.38 378.314C1077.38 389.547 1063.96 386.4 1063.96 397.34Z" fill="#F1E5D7"/>
<path fill-rule="evenodd" clip-rule="evenodd" d="M1035.19 500.006L1037.98 420.812C1032.68 415.949 1029.42 412.581 1028.22 410.708C1026.42 407.898 1026 402.384 1022.27 400.488C1019.78 399.225 1017.02 397.873 1014 396.433C1014.1 396.433 1015.5 396.433 1018.21 396.433C1020.92 396.433 1022.27 397.048 1022.27 398.278C1022.89 395.528 1022.37 392.094 1020.7 387.976C1019.04 383.857 1017.64 381.034 1016.5 379.506C1019.97 383.141 1022.42 386.585 1023.85 389.838C1025.99 394.717 1026.93 401.789 1030.25 407.461C1032.47 411.242 1035.05 414.151 1037.98 416.187C1037.88 402.675 1037.39 392.076 1036.51 384.389C1035.63 376.701 1034.71 368.407 1033.75 359.507C1036.86 370.679 1038.88 378.973 1039.81 384.389C1040.75 389.805 1041.25 394.435 1041.33 398.278C1046.02 389.832 1048.36 382.404 1048.36 375.994C1048.36 369.584 1048.36 365.7 1048.36 364.343C1049.79 370.657 1050.51 374.54 1050.51 375.994C1050.51 377.448 1050.51 379.382 1050.51 381.798L1056.4 375.994C1051.49 383.578 1048.33 388.881 1046.91 391.901C1045.49 394.922 1043.63 399.524 1041.33 405.708C1041.33 441.091 1041.33 461.6 1041.33 467.234C1041.33 472.869 1041.33 483.793 1041.33 500.006H1035.19Z" fill="#FFFAF2"/>
<path fill-rule="evenodd" clip-rule="evenodd" d="M1194.05 377.311C1194.05 389.621 1208.13 390.843 1203.43 399.33C1198.74 407.816 1182.89 408.82 1157.26 408.82C1131.64 408.82 1115.77 401.932 1120.2 389.621C1124.64 377.31 1122.64 371.572 1117.03 360.665C1111.41 349.759 1117.36 336.534 1136.42 332.167C1155.48 327.799 1138.02 310.82 1157.26 310.82C1176.5 310.82 1174.55 332.167 1187.15 332.167C1199.74 332.167 1209 343.26 1209 355.9C1209 368.541 1194.05 365 1194.05 377.311Z" fill="#FAF0E4"/>
<path fill-rule="evenodd" clip-rule="evenodd" d="M1162.49 492.82L1165.58 403.761C1159.7 398.293 1156.1 394.506 1154.77 392.399C1152.77 389.24 1152.31 383.038 1148.17 380.907C1145.41 379.485 1142.35 377.965 1139 376.346C1139.11 376.346 1140.67 376.346 1143.67 376.346C1146.67 376.346 1148.17 377.038 1148.17 378.421C1148.86 375.329 1148.28 371.467 1146.43 366.835C1144.59 362.204 1143.04 359.029 1141.78 357.31C1145.62 361.399 1148.34 365.272 1149.92 368.929C1152.29 374.416 1153.34 382.369 1157.02 388.748C1159.48 393 1162.33 396.271 1165.58 398.56C1165.47 383.366 1164.93 371.447 1163.95 362.802C1162.98 354.156 1161.96 344.829 1160.89 334.82C1164.34 347.384 1166.58 356.711 1167.61 362.802C1168.65 368.892 1169.21 374.099 1169.3 378.421C1174.49 368.923 1177.08 360.57 1177.08 353.361C1177.08 346.153 1177.08 341.785 1177.08 340.259C1178.68 347.359 1179.47 351.726 1179.47 353.361C1179.47 354.996 1179.47 357.172 1179.47 359.888L1186 353.361C1180.56 361.89 1177.05 367.853 1175.48 371.25C1173.9 374.647 1171.84 379.823 1169.3 386.776C1169.3 426.567 1169.3 449.63 1169.3 455.967C1169.3 462.303 1169.3 474.588 1169.3 492.82H1162.49Z" fill="white"/>
<path fill-rule="evenodd" clip-rule="evenodd" d="M1273.66 342.496C1277.71 353.672 1291.82 349.756 1286.49 359.051C1283.1 364.977 1277.71 367.98 1273.66 372.857C1268.91 378.584 1283 386.333 1276.77 392.004C1269.58 398.541 1241.91 402.82 1231.08 402.82C1198.69 402.82 1182.12 400.26 1191.99 376.82C1201.86 353.381 1184.97 338.1 1177.87 322.186C1170.77 306.271 1183.91 298.713 1208 292.34C1232.09 285.967 1206.76 259.82 1231.08 259.82C1255.4 259.82 1249.03 281.241 1264.96 281.241C1280.88 281.241 1295.72 300.424 1292.58 315.872C1289.43 331.32 1269.62 331.32 1273.66 342.496Z" fill="#FAF0E4"/>
<path fill-rule="evenodd" clip-rule="evenodd" d="M1237.49 493.82L1241.37 382.215C1233.99 375.362 1229.46 370.616 1227.79 367.976C1225.28 364.017 1224.71 356.245 1219.51 353.574C1216.05 351.793 1212.21 349.888 1208 347.858C1208.14 347.858 1210.1 347.858 1213.86 347.858C1217.63 347.858 1219.51 348.725 1219.51 350.46C1220.37 346.584 1219.65 341.744 1217.33 335.94C1215.02 330.136 1213.07 326.158 1211.48 324.004C1216.32 329.127 1219.72 333.981 1221.71 338.565C1224.69 345.44 1226 355.407 1230.62 363.4C1233.7 368.729 1237.29 372.828 1241.37 375.697C1241.23 356.656 1240.55 341.719 1239.32 330.885C1238.1 320.052 1236.82 308.363 1235.48 295.82C1239.81 311.564 1242.62 323.253 1243.92 330.885C1245.22 338.518 1245.92 345.043 1246.03 350.46C1252.55 338.557 1255.81 328.089 1255.81 319.055C1255.81 310.022 1255.81 304.548 1255.81 302.635C1257.81 311.533 1258.81 317.007 1258.81 319.055C1258.81 321.104 1258.81 323.83 1258.81 327.234L1267 319.055C1260.17 329.743 1255.77 337.216 1253.79 341.473C1251.82 345.73 1249.23 352.216 1246.03 360.93C1246.03 410.794 1246.03 439.696 1246.03 447.637C1246.03 455.578 1246.03 470.972 1246.03 493.82H1237.49Z" fill="#F1E5D7"/>
<path fill-rule="evenodd" clip-rule="evenodd" d="M224.14 345.464C227.458 354.608 239.036 351.404 234.664 359.009C231.877 363.858 227.458 366.315 224.14 370.305C220.245 374.99 231.797 381.331 226.685 385.971C220.792 391.319 198.097 394.82 189.217 394.82C162.654 394.82 149.058 392.725 157.154 373.548C165.249 354.37 151.403 341.867 145.577 328.846C139.751 315.826 150.528 309.641 170.287 304.427C190.046 299.213 169.273 277.82 189.217 277.82C209.161 277.82 203.941 295.346 217 295.346C230.058 295.346 242.229 311.042 239.652 323.681C237.076 336.32 220.823 336.32 224.14 345.464Z" fill="#FAF0E4"/>
<path fill-rule="evenodd" clip-rule="evenodd" d="M186.489 504.82L190.24 394.906C183.108 388.157 178.735 383.483 177.12 380.883C174.699 376.984 174.139 369.33 169.12 366.699C165.774 364.945 162.067 363.069 158 361.07C158.137 361.07 160.024 361.07 163.662 361.07C167.301 361.07 169.12 361.924 169.12 363.632C169.953 359.815 169.252 355.048 167.016 349.332C164.78 343.616 162.897 339.698 161.367 337.577C166.034 342.623 169.327 347.403 171.244 351.917C174.12 358.689 175.385 368.504 179.853 376.376C182.832 381.624 186.294 385.661 190.24 388.487C190.103 369.734 189.443 355.024 188.261 344.354C187.08 333.685 185.843 322.173 184.552 309.82C188.734 325.326 191.451 336.837 192.703 344.354C193.955 351.871 194.635 358.297 194.743 363.632C201.038 351.909 204.186 341.6 204.186 332.703C204.186 323.806 204.186 318.416 204.186 316.532C206.118 325.295 207.084 330.685 207.084 332.703C207.084 334.721 207.084 337.406 207.084 340.758L215 332.703C208.402 343.229 204.148 350.588 202.239 354.781C200.33 358.974 197.831 365.361 194.743 373.943C194.743 423.052 194.743 451.516 194.743 459.336C194.743 467.157 194.743 482.318 194.743 504.82H186.489Z" fill="#F1E5D7"/>
<path fill-rule="evenodd" clip-rule="evenodd" d="M253.457 420.821C241 412.321 256.484 403.843 252.457 394.321C248.43 384.798 236.309 379.041 244.383 365.297C252.457 351.553 262.027 354.93 265.701 345.625C269.375 336.321 278.535 325.756 290 332.006C301.465 338.256 290.041 343.137 303.996 348.159C317.951 353.18 326.676 356.895 324 372.858C321.324 388.821 308.687 385.307 308.687 394.821C308.687 404.334 319.119 399.065 319.119 411C319.119 422.936 265.914 429.321 253.457 420.821Z" fill="#F1E5D7"/>
<path fill-rule="evenodd" clip-rule="evenodd" d="M285.744 407.32H290C289.334 420.996 289 435.148 289 449.775C289 464.403 289.334 479.049 290 493.715H283.075C282.868 479.508 283.001 464.741 283.475 449.413C283.948 434.085 284.705 420.054 285.744 407.32Z" fill="#F1E5D7"/>
<path fill-rule="evenodd" clip-rule="evenodd" d="M273.787 490.788C259.008 485.641 263.103 480.979 270.422 480.979C277.74 480.979 266.07 471.584 278.035 471.584C290 471.584 283.154 472.639 293.277 463.092C303.4 453.545 306.976 458.202 309.556 463.092C312.137 467.983 312.056 458.202 321.017 463.092C329.978 467.983 318.941 480.343 330.592 475.964C342.242 471.584 347.5 470.949 351 475.964C354.5 480.979 340.166 487.86 330.592 490.788C321.017 493.715 288.566 495.934 273.787 490.788Z" fill="white"/>
<path fill-rule="evenodd" clip-rule="evenodd" d="M674.971 490.788C660.192 485.641 664.288 480.979 671.606 480.979C678.925 480.979 667.255 471.584 679.22 471.584C691.184 471.584 684.339 472.639 694.462 463.092C704.585 453.545 708.161 458.202 710.741 463.092C713.321 467.983 713.241 458.202 722.202 463.092C731.163 467.983 720.126 480.343 731.776 475.964C743.427 471.584 748.684 470.949 752.184 475.964C755.684 480.979 741.35 487.86 731.776 490.788C722.202 493.715 689.751 495.934 674.971 490.788Z" fill="white"/>
<path fill-rule="evenodd" clip-rule="evenodd" d="M306.176 493.87C299.146 491.501 295.187 489.801 294.3 488.772C293.412 487.742 290.341 485.087 285.087 480.807C288.224 483.539 291.738 485.717 295.631 487.339C299.524 488.961 303.039 490.286 306.176 491.316C308.175 489.758 308.175 487.186 306.176 483.6C304.176 480.013 303.076 477.382 302.876 475.707C304.555 478.476 306.155 481.107 307.677 483.6C309.96 487.339 311.967 486.393 313.928 483.6C315.235 481.738 317.05 479.107 319.374 475.707L317.878 480.807L324 478.107C316.206 481.61 311.759 484.687 310.659 487.339C309.56 489.99 308.566 492.115 307.677 493.715L306.176 493.87Z" fill="#FAF0E4"/>
<path fill-rule="evenodd" clip-rule="evenodd" d="M707.36 493.87C700.331 491.501 696.372 489.801 695.484 488.772C694.597 487.742 691.526 485.087 686.271 480.807C689.408 483.539 692.923 485.717 696.816 487.339C700.709 488.961 704.224 490.286 707.36 491.316C709.36 489.758 709.36 487.186 707.36 483.6C705.361 480.013 704.261 477.382 704.061 475.707C705.74 478.476 707.34 481.107 708.862 483.6C711.145 487.339 713.151 486.393 715.112 483.6C716.42 481.738 718.235 479.107 720.559 475.707L719.062 480.807L725.185 478.107C717.39 481.61 712.943 484.687 711.844 487.339C710.744 489.99 709.75 492.115 708.862 493.715L707.36 493.87Z" fill="#FAF0E4"/>
<path fill-rule="evenodd" clip-rule="evenodd" d="M386 753H398V846L392.199 859.277L386 846V753Z" fill="#F4EA79"/>
<path fill-rule="evenodd" clip-rule="evenodd" d="M386 753H392.199V859.277L386 846V753Z" fill="#F2D379"/>
<path fill-rule="evenodd" clip-rule="evenodd" d="M398 846L392.199 859.277L386 846H398Z" fill="#999999"/>
<path d="M398 753H386V759H398V753Z" fill="#EC9A99"/>
<path d="M398 759H386V762H398V759Z" fill="#EFEFEF"/>
<path d="M352 741H269C266.791 741 265 742.791 265 745V863C265 865.209 266.791 867 269 867H352C354.209 867 356 865.209 356 863V745C356 742.791 354.209 741 352 741Z" fill="#D8B69A"/>
<path fill-rule="evenodd" clip-rule="evenodd" d="M269 741H283V867H269C266.791 867 265 865.209 265 863V745C265 742.791 266.791 741 269 741Z" fill="#887360"/>
<path fill-rule="evenodd" clip-rule="evenodd" d="M1060.06 227C1052.17 225.475 1048.22 221.54 1048.22 215.196C1048.22 208.853 1052.17 204.691 1060.06 202.711H1125.02C1133.73 201.103 1138.09 196.9 1138.09 190.102C1138.09 179.905 1131.49 175.533 1125.02 175.533C1120.71 175.533 1087.59 175.533 1025.64 175.533C1018.55 176.37 1015 172.833 1015 164.923C1015 157.012 1018.55 153.057 1025.64 153.057C1114.36 153.293 1160.05 153.293 1162.71 153.057C1166.7 152.703 1174.83 149.646 1174.83 139.842C1174.83 130.038 1169.99 127.402 1162.71 127.402C1157.85 127.402 1146.13 127.402 1127.55 127.402C1119.72 125.872 1115.8 121.432 1115.8 114.083C1115.8 106.734 1119.72 102.375 1127.55 101.004H1250.19C1258.94 100.844 1263.31 105.204 1263.31 114.083C1263.31 122.963 1258.94 127.402 1250.19 127.402C1225.93 127.402 1212.31 127.402 1209.34 127.402C1204.88 127.402 1199.31 130.742 1199.31 139.842C1199.31 148.942 1204.41 153.057 1209.34 153.057C1212.63 153.057 1238.55 153.057 1287.1 153.057C1295.03 153.894 1299 157.849 1299 164.923C1299 171.996 1295.03 175.533 1287.1 175.533H1176.51C1167.86 176.839 1163.53 181.696 1163.53 190.102C1163.53 198.508 1167.86 202.711 1176.51 202.711H1236.71C1245.7 203.166 1250.19 207.327 1250.19 215.196C1250.19 223.065 1245.7 227 1236.71 227H1060.06Z" fill="#FAF0E4"/>
<path fill-rule="evenodd" clip-rule="evenodd" d="M315.119 161.666C315.187 170.725 319.238 175.254 327.272 175.254C335.305 175.254 360.799 175.254 403.751 175.254C412.584 176.548 417 180.899 417 188.308C417 195.716 412.584 199.614 403.751 200H213.698C207.034 198.194 203.701 194.296 203.701 188.308C203.701 179.325 207.827 175.254 213.698 175.254C217.611 175.254 238.025 175.254 274.94 175.254C282.893 173.992 286.869 169.463 286.869 161.666C286.869 153.868 282.893 149.888 274.94 149.724H191.477C184.492 147.994 181 143.457 181 136.112C181 128.767 184.492 124.73 191.477 124H379.413C387.872 124.504 392.102 128.542 392.102 136.112C392.102 143.682 387.872 148.219 379.413 149.724C352.754 149.724 335.373 149.724 327.272 149.724C319.17 149.724 315.119 153.705 315.119 161.666Z" fill="#FAF0E4"/>
<path fill-rule="evenodd" clip-rule="evenodd" d="M511.92 374H929C940.046 374 949 382.954 949 394V694H491.92V394C491.92 382.954 500.874 374 511.92 374Z" fill="#596175"/>
<mask id="mask0" mask-type="alpha" maskUnits="userSpaceOnUse" x="521" y="406" width="397" height="252">
<path d="M917.811 406H521.43V658H917.811V406Z" fill="white"/>
</mask>
<g mask="url(#mask0)">
<path d="M917.811 406H521.43V658H917.811V406Z" fill="white"/>
<path fill-rule="evenodd" clip-rule="evenodd" d="M833.119 640.37C835.106 687.326 835.309 722.375 833.726 745.515C832.896 757.658 836.5 790.403 838.233 812.781C839.073 823.624 839.953 838.747 840.873 858.148H802.2C800.571 811.408 799.757 773.863 799.757 745.515C799.757 717.166 798.077 691.018 794.716 667.071L833.119 640.37Z" fill="#FDC982"/>
<path fill-rule="evenodd" clip-rule="evenodd" d="M802.774 561.351C810.578 565.613 820.125 573.839 831.416 586.029C842.707 598.219 849.278 625.08 851.13 666.613C835.561 674.467 819.442 678.794 802.774 679.595C786.106 680.396 730.712 710.877 636.593 771.037C640.352 738.796 639.088 708.516 632.802 680.196C621.542 675.654 605.08 673.383 583.416 673.383C586.153 635.72 591.405 608.294 599.17 591.106C606.935 573.917 622.963 563.852 647.252 560.909L693.432 528.327L775.597 525.259L802.774 561.351Z" fill="#FA8F59"/>
<path fill-rule="evenodd" clip-rule="evenodd" d="M689.066 580.466C701.809 609.34 715.12 623.778 729 623.778C742.88 623.778 751.375 612.799 754.486 590.84L757.79 532.924L699.849 516.963L689.066 580.466Z" fill="#FFDDAD"/>
<path fill-rule="evenodd" clip-rule="evenodd" d="M701.001 517.638C705.903 533.601 708.355 547.912 708.355 560.573C708.355 579.563 715.602 608.149 692.183 605.668C668.763 603.188 620.669 633.424 632.42 595.642C639.39 573.23 638.124 516.563 667.574 432.351C673.411 415.661 683.723 405.874 698.511 402.989C702.477 395.353 715.966 390.862 738.977 389.515C828.442 384.281 805.382 570.575 805.382 611.398C805.382 652.221 770.019 614.405 755.515 605.668C741.01 596.932 748.484 580.772 756.08 539.298C761.144 511.648 742.785 504.428 701.001 517.638Z" fill="#49515E"/>
<path fill-rule="evenodd" clip-rule="evenodd" d="M699.566 450.882C691.625 458.121 686.977 469.508 688.109 474.509C689.241 479.51 689.056 480.093 685.101 476.611C681.147 473.129 673.65 472.254 673.569 480.169C673.511 485.808 674.263 487.234 675.388 491.533C675.842 493.268 675.863 495.692 676.679 498.707C679.516 509.195 684.146 512.578 686.793 512.804C688.557 512.955 690.146 511.695 691.56 509.023C693.378 518.878 696.612 526.225 701.26 531.064C708.232 538.324 720.364 549.193 742.028 550.532C763.692 551.871 776.035 516.846 778.3 507.659C780.565 498.472 781.801 489.994 782.646 477.61C783.491 465.226 784.554 455.079 774.312 447.651C764.07 440.223 739.967 446.56 722.63 440.082C716.116 437.648 710.927 432.993 707.063 426.117C707.359 437.8 704.861 446.055 699.566 450.882Z" fill="#FFDDAD"/>
<path fill-rule="evenodd" clip-rule="evenodd" d="M714.008 457.8C709.915 457.291 705.175 457.952 701.298 460.689C697.421 463.426 695.822 464.087 695.438 463.481C695.054 462.875 698.78 460.22 703.753 456.52C708.726 452.82 714.609 453.319 720.596 453.099C726.583 452.878 732.86 454.349 731.334 458.353C729.808 462.356 718.102 458.308 714.008 457.8Z" fill="#49515E"/>
<path fill-rule="evenodd" clip-rule="evenodd" d="M759.557 459.111C756.984 460.465 752.35 463.858 750.161 459.693C747.971 455.528 763.828 451.602 767.667 451.097C771.507 450.592 773.743 450.721 777.074 453.371C780.404 456.021 782.958 458.166 780.911 457.375C778.865 456.584 776.435 453.724 771.884 454.709C767.332 455.693 762.131 457.757 759.557 459.111Z" fill="#49515E"/>
<path fill-rule="evenodd" clip-rule="evenodd" d="M742.757 501.261C741.46 500.759 740.358 500.634 739.45 500.886C738.088 501.264 737 502.206 736.201 501.536C735.402 500.866 737.011 498.91 739.13 499.02C740.543 499.093 741.752 499.84 742.757 501.261Z" fill="#F8C37C"/>
<path fill-rule="evenodd" clip-rule="evenodd" d="M748.618 501.658C749.513 500.576 750.3 500.166 750.979 500.428C751.998 500.822 752.625 501.586 752.979 500.655C753.334 499.725 751.816 498.456 750.541 499.031C749.691 499.414 749.05 500.29 748.618 501.658Z" fill="#F8C37C"/>
<path fill-rule="evenodd" clip-rule="evenodd" d="M727.779 521.996C726.387 519.991 727.07 518.531 729.827 517.617C731.542 517.048 732.675 516.488 734.247 515.079C736.468 513.089 739.056 510.234 740.975 510.466C744.254 510.861 744.064 512.645 745.087 513.041C746.11 513.436 748.392 507.484 752.13 512.2C755.869 516.917 758.945 516.494 759.205 517.58C759.466 518.666 757.194 529.83 747.446 531.038C740.948 531.844 734.392 528.829 727.779 521.996Z" fill="#FA8F59"/>
<path fill-rule="evenodd" clip-rule="evenodd" d="M723.106 475.032C718.706 477.364 710.395 476.601 707.463 475.133C704.531 473.665 708.839 470.186 713.343 469.448C717.848 468.71 720.248 470.323 721.571 470.994C722.893 471.665 727.506 472.7 723.106 475.032Z" fill="#FCF6ED"/>
<path fill-rule="evenodd" clip-rule="evenodd" d="M756.765 475.095C761.077 476.999 768.785 475.573 771.403 473.905C774.021 472.236 769.699 469.21 765.424 468.864C761.149 468.518 759.04 470.284 757.86 471.045C756.68 471.806 752.453 473.192 756.765 475.095Z" fill="#FCF6ED"/>
<path d="M717.273 476.518C718.69 476.518 719.838 475.125 719.838 473.407C719.838 471.689 718.69 470.296 717.273 470.296C715.857 470.296 714.709 471.689 714.709 473.407C714.709 475.125 715.857 476.518 717.273 476.518Z" fill="#49515E"/>
<path d="M764.457 475.481C765.873 475.481 767.021 474.088 767.021 472.37C767.021 470.652 765.873 469.259 764.457 469.259C763.041 469.259 761.893 470.652 761.893 472.37C761.893 474.088 763.041 475.481 764.457 475.481Z" fill="#49515E"/>
</g>
<path fill-rule="evenodd" clip-rule="evenodd" d="M491 686H949V941C949 952.046 940.046 961 929 961H511C499.954 961 491 952.046 491 941V686Z" fill="white"/>
<path d="M928 719C933.523 719 938 714.523 938 709C938 703.477 933.523 699 928 699C922.477 699 918 703.477 918 709C918 714.523 922.477 719 928 719Z" fill="#ECEAE4"/>
<path d="M762 870H678C673.582 870 670 873.582 670 878V932C670 936.418 673.582 940 678 940H762C766.418 940 770 936.418 770 932V878C770 873.582 766.418 870 762 870Z" fill="#ECEAE4"/>
<path d="M907 730H533C528.582 730 525 733.582 525 738V846C525 850.418 528.582 854 533 854H907C911.418 854 915 850.418 915 846V738C915 733.582 911.418 730 907 730Z" fill="#ECEAE4"/>
<path d="M771 841H671C668.791 841 667 839.209 667 837V828C667 825.791 668.791 824 671 824H771C773.209 824 775 825.791 775 828V837C775 839.209 773.209 841 771 841Z" fill="#596175"/>
<path d="M802 841H784C781.791 841 780 839.209 780 837V828C780 825.791 781.791 824 784 824H802C804.209 824 806 825.791 806 828V837C806 839.209 804.209 841 802 841Z" fill="#596175"/>
<path d="M626 841H608C605.791 841 604 839.209 604 837V828C604 825.791 605.791 824 608 824H626C628.209 824 630 825.791 630 828V837C630 839.209 628.209 841 626 841Z" fill="#596175"/>
<path d="M562 841H544C541.791 841 540 839.209 540 837V828C540 825.791 541.791 824 544 824H562C564.209 824 566 825.791 566 828V837C566 839.209 564.209 841 562 841Z" fill="#596175"/>
<path d="M603 820H544C541.791 820 540 818.209 540 816V807C540 804.791 541.791 803 544 803H603C605.209 803 607 804.791 607 807V816C607 818.209 605.209 820 603 820Z" fill="#596175"/>
<path d="M593 799H544C541.791 799 540 797.209 540 795V786C540 783.791 541.791 782 544 782H593C595.209 782 597 783.791 597 786V795C597 797.209 595.209 799 593 799Z" fill="#596175"/>
<path fill-rule="evenodd" clip-rule="evenodd" d="M544 778H588C590.209 778 592 776.209 592 774V765C592 762.791 590.209 761 588 761H544C541.791 761 540 762.791 540 765V774C540 776.209 541.791 778 544 778Z" fill="#596175"/>
<path d="M896 820H837C834.791 820 833 818.209 833 816V807C833 804.791 834.791 803 837 803H896C898.209 803 900 804.791 900 807V816C900 818.209 898.209 820 896 820Z" fill="#596175"/>
<path fill-rule="evenodd" clip-rule="evenodd" d="M858 799H896C898.209 799 900 797.209 900 795V786C900 783.791 898.209 782 896 782H858C855.791 782 854 783.791 854 786V795C854 797.209 855.791 799 858 799Z" fill="#596175"/>
<path fill-rule="evenodd" clip-rule="evenodd" d="M859 757H896C898.209 757 900 755.209 900 753V744C900 741.791 898.209 740 896 740H859C856.791 740 855 741.791 855 744V753C855 755.209 856.791 757 859 757Z" fill="#596175"/>
<path fill-rule="evenodd" clip-rule="evenodd" d="M853 778H896C898.209 778 900 776.209 900 774V765C900 762.791 898.209 761 896 761H853C850.791 761 849 762.791 849 765V774C849 776.209 850.791 778 853 778Z" fill="#596175"/>
<path d="M834 841H816C813.791 841 812 839.209 812 837V828C812 825.791 813.791 824 816 824H834C836.209 824 838 825.791 838 828V837C838 839.209 836.209 841 834 841Z" fill="#596175"/>
<path fill-rule="evenodd" clip-rule="evenodd" d="M846 841H858C859.105 841 860 840.105 860 839V836C860 834.895 859.105 834 858 834H846C844.895 834 844 834.895 844 836V839C844 840.105 844.895 841 846 841Z" fill="#596175"/>
<path fill-rule="evenodd" clip-rule="evenodd" d="M866 841H878C879.105 841 880 840.105 880 839V836C880 834.895 879.105 834 878 834H866C864.895 834 864 834.895 864 836V839C864 840.105 864.895 841 866 841Z" fill="#596175"/>
<path fill-rule="evenodd" clip-rule="evenodd" d="M866 831H878C879.105 831 880 830.105 880 829V826C880 824.895 879.105 824 878 824H866C864.895 824 864 824.895 864 826V829C864 830.105 864.895 831 866 831Z" fill="#596175"/>
<path fill-rule="evenodd" clip-rule="evenodd" d="M886 841H898C899.105 841 900 840.105 900 839V836C900 834.895 899.105 834 898 834H886C884.895 834 884 834.895 884 836V839C884 840.105 884.895 841 886 841Z" fill="#596175"/>
<path d="M657 841H639C636.791 841 635 839.209 635 837V828C635 825.791 636.791 824 639 824H657C659.209 824 661 825.791 661 828V837C661 839.209 659.209 841 657 841Z" fill="#596175"/>
<path d="M594 841H576C573.791 841 572 839.209 572 837V828C572 825.791 573.791 824 576 824H594C596.209 824 598 825.791 598 828V837C598 839.209 596.209 841 594 841Z" fill="#596175"/>
<path d="M697 820H679C676.791 820 675 818.209 675 816V807C675 804.791 676.791 803 679 803H697C699.209 803 701 804.791 701 807V816C701 818.209 699.209 820 697 820Z" fill="#596175"/>
<path d="M792 820H774C771.791 820 770 818.209 770 816V807C770 804.791 771.791 803 774 803H792C794.209 803 796 804.791 796 807V816C796 818.209 794.209 820 792 820Z" fill="#596175"/>
<path d="M635 820H617C614.791 820 613 818.209 613 816V807C613 804.791 614.791 803 617 803H635C637.209 803 639 804.791 639 807V816C639 818.209 637.209 820 635 820Z" fill="#596175"/>
<path d="M729 820H711C708.791 820 707 818.209 707 816V807C707 804.791 708.791 803 711 803H729C731.209 803 733 804.791 733 807V816C733 818.209 731.209 820 729 820Z" fill="#596175"/>
<path d="M823 820H805C802.791 820 801 818.209 801 816V807C801 804.791 802.791 803 805 803H823C825.209 803 827 804.791 827 807V816C827 818.209 825.209 820 823 820Z" fill="#596175"/>
<path d="M666 820H648C645.791 820 644 818.209 644 816V807C644 804.791 645.791 803 648 803H666C668.209 803 670 804.791 670 807V816C670 818.209 668.209 820 666 820Z" fill="#596175"/>
<path d="M761 820H743C740.791 820 739 818.209 739 816V807C739 804.791 740.791 803 743 803H761C763.209 803 765 804.791 765 807V816C765 818.209 763.209 820 761 820Z" fill="#596175"/>
<path d="M687 799H669C666.791 799 665 797.209 665 795V786C665 783.791 666.791 782 669 782H687C689.209 782 691 783.791 691 786V795C691 797.209 689.209 799 687 799Z" fill="#596175"/>
<path d="M781 799H763C760.791 799 759 797.209 759 795V786C759 783.791 760.791 782 763 782H781C783.209 782 785 783.791 785 786V795C785 797.209 783.209 799 781 799Z" fill="#596175"/>
<path d="M625 799H607C604.791 799 603 797.209 603 795V786C603 783.791 604.791 782 607 782H625C627.209 782 629 783.791 629 786V795C629 797.209 627.209 799 625 799Z" fill="#596175"/>
<path d="M718 799H700C697.791 799 696 797.209 696 795V786C696 783.791 697.791 782 700 782H718C720.209 782 722 783.791 722 786V795C722 797.209 720.209 799 718 799Z" fill="#596175"/>
<path d="M812 799H794C791.791 799 790 797.209 790 795V786C790 783.791 791.791 782 794 782H812C814.209 782 816 783.791 816 786V795C816 797.209 814.209 799 812 799Z" fill="#596175"/>
<path d="M844 799H826C823.791 799 822 797.209 822 795V786C822 783.791 823.791 782 826 782H844C846.209 782 848 783.791 848 786V795C848 797.209 846.209 799 844 799Z" fill="#596175"/>
<path d="M656 799H638C635.791 799 634 797.209 634 795V786C634 783.791 635.791 782 638 782H656C658.209 782 660 783.791 660 786V795C660 797.209 658.209 799 656 799Z" fill="#596175"/>
<path d="M750 799H732C729.791 799 728 797.209 728 795V786C728 783.791 729.791 782 732 782H750C752.209 782 754 783.791 754 786V795C754 797.209 752.209 799 750 799Z" fill="#596175"/>
<path d="M683 778H665C662.791 778 661 776.209 661 774V765C661 762.791 662.791 761 665 761H683C685.209 761 687 762.791 687 765V774C687 776.209 685.209 778 683 778Z" fill="#596175"/>
<path d="M776 778H758C755.791 778 754 776.209 754 774V765C754 762.791 755.791 761 758 761H776C778.209 761 780 762.791 780 765V774C780 776.209 778.209 778 776 778Z" fill="#596175"/>
<path d="M620 778H602C599.791 778 598 776.209 598 774V765C598 762.791 599.791 761 602 761H620C622.209 761 624 762.791 624 765V774C624 776.209 622.209 778 620 778Z" fill="#596175"/>
<path d="M714 778H696C693.791 778 692 776.209 692 774V765C692 762.791 693.791 761 696 761H714C716.209 761 718 762.791 718 765V774C718 776.209 716.209 778 714 778Z" fill="#596175"/>
<path d="M807 778H789C786.791 778 785 776.209 785 774V765C785 762.791 786.791 761 789 761H807C809.209 761 811 762.791 811 765V774C811 776.209 809.209 778 807 778Z" fill="#596175"/>
<path d="M839 778H821C818.791 778 817 776.209 817 774V765C817 762.791 818.791 761 821 761H839C841.209 761 843 762.791 843 765V774C843 776.209 841.209 778 839 778Z" fill="#596175"/>
<path d="M652 778H634C631.791 778 630 776.209 630 774V765C630 762.791 631.791 761 634 761H652C654.209 761 656 762.791 656 765V774C656 776.209 654.209 778 652 778Z" fill="#596175"/>
<path d="M745 778H727C724.791 778 723 776.209 723 774V765C723 762.791 724.791 761 727 761H745C747.209 761 749 762.791 749 765V774C749 776.209 747.209 778 745 778Z" fill="#596175"/>
<path d="M624 757H606C603.791 757 602 755.209 602 753V744C602 741.791 603.791 740 606 740H624C626.209 740 628 741.791 628 744V753C628 755.209 626.209 757 624 757Z" fill="#596175"/>
<path d="M717 757H699C696.791 757 695 755.209 695 753V744C695 741.791 696.791 740 699 740H717C719.209 740 721 741.791 721 744V753C721 755.209 719.209 757 717 757Z" fill="#596175"/>
<path d="M562 757H544C541.791 757 540 755.209 540 753V744C540 741.791 541.791 740 544 740H562C564.209 740 566 741.791 566 744V753C566 755.209 564.209 757 562 757Z" fill="#596175"/>
<path d="M655 757H637C634.791 757 633 755.209 633 753V744C633 741.791 634.791 740 637 740H655C657.209 740 659 741.791 659 744V753C659 755.209 657.209 757 655 757Z" fill="#596175"/>
<path d="M749 757H731C728.791 757 727 755.209 727 753V744C727 741.791 728.791 740 731 740H749C751.209 740 753 741.791 753 744V753C753 755.209 751.209 757 749 757Z" fill="#596175"/>
<path d="M781 757H763C760.791 757 759 755.209 759 753V744C759 741.791 760.791 740 763 740H781C783.209 740 785 741.791 785 744V753C785 755.209 783.209 757 781 757Z" fill="#596175"/>
<path d="M812 757H794C791.791 757 790 755.209 790 753V744C790 741.791 791.791 740 794 740H812C814.209 740 816 741.791 816 744V753C816 755.209 814.209 757 812 757Z" fill="#596175"/>
<path d="M844 757H826C823.791 757 822 755.209 822 753V744C822 741.791 823.791 740 826 740H844C846.209 740 848 741.791 848 744V753C848 755.209 846.209 757 844 757Z" fill="#596175"/>
<path d="M593 757H575C572.791 757 571 755.209 571 753V744C571 741.791 572.791 740 575 740H593C595.209 740 597 741.791 597 744V753C597 755.209 595.209 757 593 757Z" fill="#596175"/>
<path d="M687 757H669C666.791 757 665 755.209 665 753V744C665 741.791 666.791 740 669 740H687C689.209 740 691 741.791 691 744V753C691 755.209 689.209 757 687 757Z" fill="#596175"/>
<path fill-rule="evenodd" clip-rule="evenodd" d="M563.128 572H875C888.254 572 899 582.745 899 596V614C899 627.255 888.254 638 875 638H562.882C549.627 638 538.882 627.255 538.882 614C538.882 613.89 538.883 613.781 538.884 613.671L539.131 595.671C539.31 582.546 550.002 572 563.128 572Z" fill="#596175"/>
<path opacity="0.502162" d="M564.753 605.605L562.863 600.625L561.062 605.605H564.753ZM568.02 610H566.416L565.17 606.733H560.673L559.487 610H557.985L562.109 599.263H563.64L568.02 610ZM570.675 603.218C571.364 602.441 572.138 602.053 572.997 602.053C574.75 602.053 575.626 603.008 575.626 604.917V610H574.242V604.976C574.242 604.341 574.128 603.884 573.901 603.606C573.674 603.328 573.302 603.188 572.784 603.188C572.081 603.188 571.378 603.604 570.675 604.434V610H569.291V602.229H570.675V603.218ZM579.285 603.218C579.974 602.441 580.748 602.053 581.607 602.053C583.36 602.053 584.236 603.008 584.236 604.917V610H582.852V604.976C582.852 604.341 582.739 603.884 582.512 603.606C582.284 603.328 581.912 603.188 581.395 603.188C580.691 603.188 579.988 603.604 579.285 604.434V610H577.901V602.229H579.285V603.218ZM591.433 607.957V606.235H590.488C588.486 606.235 587.485 606.78 587.485 607.869C587.485 608.264 587.632 608.568 587.925 608.781C588.218 608.993 588.613 609.099 589.111 609.099C589.565 609.099 590.005 608.997 590.43 608.792C590.854 608.586 591.189 608.308 591.433 607.957ZM591.433 609.202C590.73 609.856 589.824 610.183 588.716 610.183C587.944 610.183 587.309 609.974 586.811 609.557C586.313 609.139 586.064 608.601 586.064 607.942C586.064 606.125 587.629 605.217 590.759 605.217H591.433C591.433 604.661 591.404 604.257 591.345 604.005C591.286 603.754 591.123 603.545 590.854 603.379C590.586 603.213 590.159 603.13 589.573 603.13C588.342 603.13 587.707 603.569 587.668 604.448H586.291C586.394 602.852 587.512 602.053 589.646 602.053C590.642 602.053 591.418 602.251 591.975 602.646C592.532 603.042 592.81 603.818 592.81 604.976V610H591.433V609.202ZM596.938 610H595.436V608.499H596.938V610ZM596.938 603.73H595.436V602.229H596.938V603.73Z" fill="white"/>
<path fill-rule="evenodd" clip-rule="evenodd" d="M555 684H885V704H555V684Z" fill="#596175"/>
<path fill-rule="evenodd" clip-rule="evenodd" d="M1043 559H1122L1116.36 662H1048.64L1043 559Z" fill="#808CAB"/>
<path d="M1106 564H1128.61C1137.54 564.668 1142 569.501 1142 578.5C1142 587.499 1137.54 592.332 1128.61 593H1106" stroke="#808CAB" stroke-width="10"/>
<path fill-rule="evenodd" clip-rule="evenodd" d="M1048.46 694.063L1005.61 838.865L1226.38 906.413L1268.85 761.405L1048.46 694.063Z" fill="#FAF0E4"/>
<path fill-rule="evenodd" clip-rule="evenodd" d="M993 773.074L1053.25 911.543L1265.79 821.383L1205.11 683L993 773.074Z" fill="white"/>
<path d="M1190.32 777H1068.32C1054.79 777 1043.82 787.969 1043.82 801.5C1043.82 815.031 1054.79 826 1068.32 826H1190.32C1203.85 826 1214.82 815.031 1214.82 801.5C1214.82 787.969 1203.85 777 1190.32 777Z" fill="#F5DEAA"/>
<path fill-rule="evenodd" clip-rule="evenodd" d="M1053.28 795.787C1052.69 806.434 1061.16 811.758 1078.68 811.758C1096.19 811.758 1105.24 809.096 1105.82 803.773C1109.62 809.096 1118.82 811.758 1133.43 811.758C1148.04 811.758 1156.4 809.096 1158.51 803.773C1162.88 809.096 1171.72 811.758 1185.03 811.758C1204.99 811.758 1207.63 802.75 1203.37 792.983C1200.54 786.471 1150.5 787.406 1053.28 795.787Z" fill="#FA8F59"/>
<path fill-rule="evenodd" clip-rule="evenodd" d="M1054.25 790.792C1049.21 796.533 1047.95 800.893 1050.47 803.872C1052.99 806.851 1057.53 806.851 1064.1 803.872C1064.21 808.754 1066.33 811.194 1070.47 811.194C1074.61 811.194 1078.94 806.812 1083.46 798.046H1088.99C1088 806.145 1091.06 810.194 1098.16 810.194C1105.27 810.194 1107.82 808.087 1105.82 803.872C1107.29 808.087 1110.93 810.194 1116.71 810.194C1122.5 810.194 1126.66 806.145 1129.18 798.046H1139.37C1137.93 806.145 1140.12 810.194 1145.92 810.194C1151.73 810.194 1155.17 807.127 1156.25 800.993C1155.21 807.127 1156.95 810.194 1161.49 810.194C1166.02 810.194 1169.49 806.145 1171.91 798.046C1171.77 806.145 1173.74 810.194 1177.81 810.194C1181.89 810.194 1184.96 806.145 1187.03 798.046C1192.86 806.145 1198.89 810.194 1205.11 810.194C1214.45 810.194 1214.8 794.376 1200.94 790.792C1191.69 788.403 1142.8 788.403 1054.25 790.792Z" fill="#8ACD3F"/>
<path fill-rule="evenodd" clip-rule="evenodd" d="M1064.1 800.482L1098.96 809.646L1101.4 803.482L1132.55 809.646L1135.12 803.482L1165.96 809.646L1168.93 803.482L1198.12 809.646L1205.11 793.066L1064.1 800.482Z" fill="white"/>
<path d="M1190.32 753H1068.32C1054.79 753 1043.82 763.969 1043.82 777.5C1043.82 791.031 1054.79 802 1068.32 802H1190.32C1203.85 802 1214.82 791.031 1214.82 777.5C1214.82 763.969 1203.85 753 1190.32 753Z" fill="#FEE7B5"/>
<path d="M1077.51 787.52C1078.2 787.983 1078.38 788.915 1077.92 789.602C1077.46 790.289 1076.52 790.471 1075.84 790.008C1071.26 786.925 1068.97 782.048 1068.97 775.557C1068.97 769.002 1070.14 765.022 1072.91 763.655C1073.65 763.289 1074.55 763.594 1074.92 764.337C1075.28 765.08 1074.98 765.979 1074.24 766.345C1072.87 767.021 1071.97 770.078 1071.97 775.557C1071.97 781.1 1073.81 785.028 1077.51 787.52Z" fill="#BF8756"/>
<path d="M1112.87 787.52C1113.55 787.983 1113.73 788.915 1113.27 789.602C1112.81 790.289 1111.88 790.471 1111.19 790.008C1106.61 786.925 1104.32 782.048 1104.32 775.557C1104.32 769.002 1105.49 765.022 1108.26 763.655C1109 763.289 1109.9 763.594 1110.27 764.337C1110.64 765.08 1110.33 765.979 1109.59 766.345C1108.22 767.021 1107.32 770.078 1107.32 775.557C1107.32 781.1 1109.17 785.028 1112.87 787.52Z" fill="#BF8756"/>
<path d="M1149.87 787.52C1150.55 787.983 1150.73 788.915 1150.27 789.602C1149.81 790.289 1148.88 790.471 1148.19 790.008C1143.61 786.925 1141.32 782.048 1141.32 775.557C1141.32 769.002 1142.49 765.022 1145.26 763.655C1146 763.289 1146.9 763.594 1147.27 764.337C1147.64 765.08 1147.33 765.979 1146.59 766.345C1145.22 767.021 1144.32 770.078 1144.32 775.557C1144.32 781.1 1146.17 785.028 1149.87 787.52Z" fill="#BF8756"/>
<path d="M1187.87 787.52C1188.55 787.983 1188.73 788.915 1188.27 789.602C1187.81 790.289 1186.88 790.471 1186.19 790.008C1181.61 786.925 1179.32 782.048 1179.32 775.557C1179.32 769.002 1180.49 765.022 1183.26 763.655C1184 763.289 1184.9 763.594 1185.27 764.337C1185.64 765.08 1185.33 765.979 1184.59 766.345C1183.22 767.021 1182.32 770.078 1182.32 775.557C1182.32 781.1 1184.17 785.028 1187.87 787.52Z" fill="#BF8756"/>
<path fill-rule="evenodd" clip-rule="evenodd" d="M391.578 353.988C391.578 372.454 411 372.454 411 392.199C411 411.944 381.111 416 347.852 416C314.593 416 293.993 405.667 299.753 387.201C305.514 368.735 299.922 357.127 292.628 340.768C285.334 324.408 295.063 307.571 319.802 301.02C344.542 294.469 322.881 269 347.852 269C372.823 269 366.287 291.02 382.637 291.02C398.987 291.02 414.226 310.74 411 326.62C407.773 342.5 391.578 335.522 391.578 353.988Z" fill="#FAF0E4"/>
<path fill-rule="evenodd" clip-rule="evenodd" d="M354.488 509L358.502 394.576C350.87 387.55 346.19 382.684 344.462 379.978C341.87 375.919 341.272 367.951 335.901 365.212C332.319 363.386 328.353 361.433 324 359.352C324.146 359.352 326.166 359.352 330.06 359.352C333.954 359.352 335.901 360.241 335.901 362.019C336.792 358.046 336.041 353.084 333.649 347.133C331.256 341.182 329.241 337.103 327.603 334.896C332.598 340.148 336.122 345.124 338.173 349.824C341.251 356.873 342.605 367.091 347.387 375.286C350.574 380.75 354.279 384.952 358.502 387.894C358.356 368.372 357.65 353.058 356.385 341.951C355.12 330.843 353.797 318.86 352.415 306C356.891 322.142 359.798 334.125 361.139 341.951C362.479 349.776 363.206 356.465 363.321 362.019C370.058 349.816 373.427 339.083 373.427 329.822C373.427 320.56 373.427 314.948 373.427 312.987C375.494 322.11 376.528 327.721 376.528 329.822C376.528 331.922 376.528 334.717 376.528 338.207L385 329.822C377.939 340.779 373.387 348.441 371.344 352.805C369.3 357.17 366.626 363.819 363.321 372.754C363.321 423.877 363.321 453.509 363.321 461.65C363.321 469.792 363.321 485.575 363.321 509H354.488Z" fill="white"/>
<path d="M338 622H315V652H338V622Z" fill="#ECEAE4"/>
<path fill-rule="evenodd" clip-rule="evenodd" d="M286 650H362C368.627 650 374 655.373 374 662H274C274 655.373 279.373 650 286 650Z" fill="#ECEAE4"/>
<path d="M254.619 450.215L261.69 457.286C224.498 494.479 224.583 554.874 261.892 592.183C299.2 629.491 359.596 629.577 396.788 592.384L403.859 599.455C362.757 640.558 296.03 640.463 254.821 599.254C213.611 558.044 213.517 491.318 254.619 450.215Z" fill="#ECEAE4"/>
<path fill-rule="evenodd" clip-rule="evenodd" d="M416.103 599.097L405.076 610.123L243.951 448.998L254.978 437.972L416.103 599.097Z" fill="#ECEAE4"/>
<path d="M405.85 599.87C401.935 603.785 401.944 610.141 405.87 614.067C409.796 617.993 416.152 618.002 420.067 614.087C423.982 610.173 423.973 603.816 420.047 599.891C416.121 595.965 409.765 595.956 405.85 599.87Z" fill="#ECEAE4"/>
<path d="M238.407 432.427C234.492 436.342 234.501 442.698 238.427 446.624C242.353 450.55 248.709 450.559 252.624 446.644C256.538 442.729 256.529 436.373 252.603 432.447C248.678 428.521 242.321 428.512 238.407 432.427Z" fill="#ECEAE4"/>
<mask id="mask1" mask-type="alpha" maskUnits="userSpaceOnUse" x="246" y="443" width="164" height="167">
<path d="M327.574 609.183C372.624 609.183 409.144 572 409.144 526.132C409.144 480.264 372.624 443.081 327.574 443.081C282.524 443.081 246.004 480.264 246.004 526.132C246.004 572 282.524 609.183 327.574 609.183Z" fill="white"/>
</mask>
<g mask="url(#mask1)">
<path d="M327.574 609.183C372.624 609.183 409.144 572 409.144 526.132C409.144 480.264 372.624 443.081 327.574 443.081C282.524 443.081 246.004 480.264 246.004 526.132C246.004 572 282.524 609.183 327.574 609.183Z" fill="#62ADDF"/>
<path fill-rule="evenodd" clip-rule="evenodd" d="M306.445 524.324C306.445 529.399 307.732 544.353 314.346 544.353C320.96 544.353 336.392 528.506 336.392 534.338C336.392 540.17 334.749 549.14 346.487 549.14C358.225 549.14 355.107 538.241 350.797 528.98C346.487 519.719 337.249 510.449 340.08 504.09C342.911 497.731 352.136 501.214 359.587 497.176C367.039 493.138 359.587 478.914 359.587 468.09C359.587 460.874 359.587 452.538 359.587 443.081L317.791 439.409C310.227 443.724 306.445 450.847 306.445 460.78C306.445 475.679 305.818 484.375 297.451 484.375C289.084 484.375 284.536 501.86 290.993 507.63C297.451 513.399 306.445 519.249 306.445 524.324Z" fill="#71BBED"/>
<path fill-rule="evenodd" clip-rule="evenodd" d="M242.451 518.362C253.445 516.966 261.563 518.953 266.803 524.324C274.663 532.38 279.014 530.977 279.014 549.14C279.014 567.303 282.119 569.454 291.415 565.142C300.711 560.829 317.653 556.516 320.96 560.829C324.266 565.142 323.982 582.086 330.187 590.207C336.392 598.329 336.108 606.72 330.187 602.524C324.266 598.329 318.414 587.84 307.932 583.013C297.45 578.186 289.411 573.513 282.037 573.513C277.121 573.513 266.622 574.509 250.54 576.501L242.451 518.362Z" fill="#71BBED"/>
</g>
<path d="M614.805 610H613.485V605.399H608.468V610H607.155V600.047H608.468V604.326H613.485V600.047H614.805V610Z" fill="white"/>
<path d="M616.603 606.233C616.603 605.509 616.744 604.857 617.026 604.278C617.313 603.7 617.71 603.253 618.216 602.938C618.726 602.624 619.307 602.467 619.959 602.467C620.966 602.467 621.78 602.815 622.399 603.513C623.024 604.21 623.336 605.137 623.336 606.295V606.384C623.336 607.104 623.197 607.751 622.919 608.325C622.646 608.895 622.251 609.339 621.736 609.658C621.226 609.977 620.638 610.137 619.973 610.137C618.97 610.137 618.157 609.788 617.532 609.091C616.912 608.394 616.603 607.471 616.603 606.322V606.233ZM617.874 606.384C617.874 607.204 618.063 607.863 618.441 608.359C618.824 608.856 619.335 609.104 619.973 609.104C620.615 609.104 621.126 608.854 621.504 608.353C621.882 607.847 622.071 607.14 622.071 606.233C622.071 605.422 621.878 604.766 621.49 604.265C621.107 603.759 620.597 603.506 619.959 603.506C619.335 603.506 618.831 603.754 618.448 604.251C618.065 604.748 617.874 605.459 617.874 606.384Z" fill="white"/>
<path d="M631.471 608.257L632.893 602.604H634.157L632.004 610H630.979L629.181 604.395L627.431 610H626.405L624.259 602.604H625.517L626.973 608.141L628.695 602.604H629.714L631.471 608.257Z" fill="white"/>
<path d="M643.488 610C643.415 609.854 643.356 609.594 643.311 609.221C642.723 609.831 642.021 610.137 641.205 610.137C640.476 610.137 639.877 609.932 639.407 609.521C638.942 609.107 638.71 608.583 638.71 607.949C638.71 607.179 639.002 606.582 639.585 606.158C640.173 605.73 640.998 605.516 642.06 605.516H643.29V604.935C643.29 604.493 643.158 604.142 642.894 603.882C642.629 603.618 642.24 603.485 641.725 603.485C641.273 603.485 640.895 603.599 640.59 603.827C640.285 604.055 640.132 604.331 640.132 604.654H638.86C638.86 604.285 638.99 603.93 639.25 603.588C639.514 603.242 639.87 602.968 640.316 602.768C640.768 602.567 641.262 602.467 641.8 602.467C642.652 602.467 643.32 602.681 643.803 603.109C644.286 603.533 644.536 604.119 644.555 604.866V608.271C644.555 608.95 644.641 609.49 644.814 609.891V610H643.488ZM641.39 609.036C641.786 609.036 642.162 608.934 642.518 608.729C642.873 608.523 643.131 608.257 643.29 607.929V606.411H642.299C640.749 606.411 639.975 606.865 639.975 607.771C639.975 608.168 640.107 608.478 640.371 608.701C640.635 608.924 640.975 609.036 641.39 609.036Z" fill="white"/>
<path d="M650.112 603.738C649.921 603.706 649.714 603.69 649.49 603.69C648.661 603.69 648.098 604.044 647.802 604.75V610H646.537V602.604H647.768L647.788 603.458C648.203 602.797 648.791 602.467 649.552 602.467C649.798 602.467 649.985 602.499 650.112 602.562V603.738Z" fill="white"/>
<path d="M654.214 610.137C653.211 610.137 652.396 609.809 651.767 609.152C651.138 608.492 650.823 607.61 650.823 606.507V606.274C650.823 605.541 650.962 604.887 651.24 604.312C651.523 603.734 651.915 603.283 652.416 602.959C652.922 602.631 653.469 602.467 654.057 602.467C655.018 602.467 655.766 602.784 656.299 603.417C656.832 604.05 657.099 604.957 657.099 606.138V606.664H652.088C652.106 607.393 652.318 607.983 652.724 608.435C653.134 608.881 653.653 609.104 654.282 609.104C654.729 609.104 655.107 609.013 655.417 608.831C655.727 608.649 655.998 608.407 656.23 608.106L657.003 608.708C656.383 609.66 655.453 610.137 654.214 610.137ZM654.057 603.506C653.546 603.506 653.118 603.693 652.771 604.066C652.425 604.436 652.211 604.955 652.129 605.625H655.834V605.529C655.798 604.887 655.624 604.39 655.314 604.039C655.005 603.684 654.585 603.506 654.057 603.506Z" fill="white"/>
<path d="M664.461 608.147L666.184 602.604H667.537L664.563 611.142C664.103 612.372 663.372 612.987 662.369 612.987L662.13 612.967L661.658 612.878V611.853L662 611.88C662.428 611.88 662.761 611.793 662.998 611.62C663.24 611.447 663.438 611.13 663.593 610.67L663.873 609.918L661.234 602.604H662.615L664.461 608.147Z" fill="white"/>
<path d="M668.228 606.233C668.228 605.509 668.369 604.857 668.651 604.278C668.938 603.7 669.335 603.253 669.841 602.938C670.351 602.624 670.932 602.467 671.584 602.467C672.591 602.467 673.405 602.815 674.024 603.513C674.649 604.21 674.961 605.137 674.961 606.295V606.384C674.961 607.104 674.822 607.751 674.544 608.325C674.271 608.895 673.876 609.339 673.361 609.658C672.851 609.977 672.263 610.137 671.598 610.137C670.595 610.137 669.782 609.788 669.157 609.091C668.537 608.394 668.228 607.471 668.228 606.322V606.233ZM669.499 606.384C669.499 607.204 669.688 607.863 670.066 608.359C670.449 608.856 670.96 609.104 671.598 609.104C672.24 609.104 672.751 608.854 673.129 608.353C673.507 607.847 673.696 607.14 673.696 606.233C673.696 605.422 673.503 604.766 673.115 604.265C672.732 603.759 672.222 603.506 671.584 603.506C670.96 603.506 670.456 603.754 670.073 604.251C669.69 604.748 669.499 605.459 669.499 606.384Z" fill="white"/>
<path d="M681.113 609.269C680.621 609.847 679.899 610.137 678.946 610.137C678.158 610.137 677.556 609.909 677.142 609.453C676.731 608.993 676.524 608.314 676.52 607.416V602.604H677.784V607.382C677.784 608.503 678.24 609.063 679.151 609.063C680.118 609.063 680.76 608.703 681.079 607.983V602.604H682.344V610H681.141L681.113 609.269Z" fill="white"/>
<path d="M685.755 607.197C685.764 606.655 685.826 606.227 685.939 605.912C686.053 605.598 686.286 605.249 686.637 604.866L687.532 603.943C687.915 603.51 688.106 603.046 688.106 602.549C688.106 602.07 687.981 601.697 687.73 601.428C687.48 601.154 687.115 601.018 686.637 601.018C686.172 601.018 685.798 601.141 685.516 601.387C685.233 601.633 685.092 601.963 685.092 602.378H683.827C683.836 601.64 684.098 601.045 684.613 600.594C685.133 600.138 685.807 599.91 686.637 599.91C687.498 599.91 688.168 600.143 688.646 600.607C689.13 601.068 689.371 601.701 689.371 602.508C689.371 603.305 689.002 604.091 688.264 604.866L687.519 605.604C687.186 605.974 687.02 606.505 687.02 607.197H685.755ZM685.7 609.364C685.7 609.159 685.762 608.988 685.885 608.852C686.012 608.71 686.199 608.64 686.445 608.64C686.691 608.64 686.878 608.71 687.006 608.852C687.133 608.988 687.197 609.159 687.197 609.364C687.197 609.569 687.133 609.74 687.006 609.877C686.878 610.009 686.691 610.075 686.445 610.075C686.199 610.075 686.012 610.009 685.885 609.877C685.762 609.74 685.7 609.569 685.7 609.364Z" fill="white"/>
<path d="M695.879 608.927H700.596V610H694.56V600.047H695.879V608.927Z" fill="white"/>
<path d="M704.964 610.137C703.961 610.137 703.146 609.809 702.517 609.152C701.888 608.492 701.573 607.61 701.573 606.507V606.274C701.573 605.541 701.712 604.887 701.99 604.312C702.273 603.734 702.665 603.283 703.166 602.959C703.672 602.631 704.219 602.467 704.807 602.467C705.768 602.467 706.516 602.784 707.049 603.417C707.582 604.05 707.849 604.957 707.849 606.138V606.664H702.838C702.856 607.393 703.068 607.983 703.474 608.435C703.884 608.881 704.403 609.104 705.032 609.104C705.479 609.104 705.857 609.013 706.167 608.831C706.477 608.649 706.748 608.407 706.98 608.106L707.753 608.708C707.133 609.66 706.203 610.137 704.964 610.137ZM704.807 603.506C704.296 603.506 703.868 603.693 703.521 604.066C703.175 604.436 702.961 604.955 702.879 605.625H706.584V605.529C706.548 604.887 706.374 604.39 706.064 604.039C705.755 603.684 705.335 603.506 704.807 603.506Z" fill="white"/>
<path d="M711.034 600.812V602.604H712.415V603.581H711.034V608.168C711.034 608.464 711.096 608.688 711.219 608.838C711.342 608.984 711.551 609.057 711.848 609.057C711.993 609.057 712.194 609.029 712.449 608.975V610C712.117 610.091 711.793 610.137 711.479 610.137C710.913 610.137 710.487 609.966 710.2 609.624C709.913 609.282 709.77 608.797 709.77 608.168V603.581H708.423V602.604H709.77V600.812H711.034Z" fill="white"/>
<path d="M713.987 602.85L713.27 602.357C713.693 601.765 713.912 601.141 713.926 600.484V599.5H715.177V600.389C715.172 600.844 715.058 601.3 714.835 601.756C714.616 602.207 714.334 602.572 713.987 602.85Z" fill="white"/>
<path d="M720.242 608.038C720.242 607.696 720.112 607.432 719.853 607.245C719.597 607.054 719.148 606.89 718.506 606.753C717.868 606.616 717.36 606.452 716.981 606.261C716.608 606.069 716.33 605.841 716.147 605.577C715.97 605.313 715.881 604.998 715.881 604.634C715.881 604.028 716.136 603.515 716.646 603.096C717.161 602.676 717.818 602.467 718.615 602.467C719.454 602.467 720.133 602.683 720.652 603.116C721.176 603.549 721.438 604.103 721.438 604.777H720.167C720.167 604.431 720.019 604.132 719.723 603.882C719.431 603.631 719.062 603.506 718.615 603.506C718.155 603.506 717.795 603.606 717.535 603.807C717.275 604.007 717.146 604.269 717.146 604.593C717.146 604.898 717.266 605.128 717.508 605.283C717.749 605.438 718.185 605.586 718.813 605.728C719.447 605.869 719.96 606.037 720.352 606.233C720.743 606.429 721.033 606.666 721.22 606.944C721.411 607.218 721.507 607.553 721.507 607.949C721.507 608.61 721.243 609.141 720.714 609.542C720.185 609.938 719.499 610.137 718.656 610.137C718.064 610.137 717.54 610.032 717.084 609.822C716.628 609.613 716.271 609.321 716.011 608.947C715.756 608.569 715.628 608.161 715.628 607.724H716.893C716.915 608.147 717.084 608.485 717.398 608.735C717.717 608.981 718.137 609.104 718.656 609.104C719.135 609.104 719.518 609.009 719.805 608.817C720.096 608.621 720.242 608.362 720.242 608.038Z" fill="white"/>
<path d="M726.326 606.24C726.326 605.087 726.593 604.171 727.126 603.492C727.659 602.809 728.366 602.467 729.245 602.467C730.147 602.467 730.852 602.786 731.357 603.424L731.419 602.604H732.574V609.822C732.574 610.779 732.289 611.534 731.72 612.085C731.155 612.636 730.394 612.912 729.437 612.912C728.903 612.912 728.382 612.798 727.871 612.57C727.361 612.342 726.971 612.03 726.702 611.634L727.358 610.875C727.901 611.545 728.564 611.88 729.348 611.88C729.963 611.88 730.441 611.707 730.783 611.36C731.13 611.014 731.303 610.526 731.303 609.897V609.262C730.797 609.845 730.106 610.137 729.231 610.137C728.366 610.137 727.664 609.788 727.126 609.091C726.593 608.394 726.326 607.443 726.326 606.24ZM727.598 606.384C727.598 607.218 727.769 607.874 728.11 608.353C728.452 608.826 728.931 609.063 729.546 609.063C730.343 609.063 730.929 608.701 731.303 607.977V604.6C730.915 603.893 730.334 603.54 729.56 603.54C728.944 603.54 728.464 603.779 728.117 604.258C727.771 604.736 727.598 605.445 727.598 606.384Z" fill="white"/>
<path d="M734.153 606.233C734.153 605.509 734.295 604.857 734.577 604.278C734.864 603.7 735.261 603.253 735.767 602.938C736.277 602.624 736.858 602.467 737.51 602.467C738.517 602.467 739.33 602.815 739.95 603.513C740.575 604.21 740.887 605.137 740.887 606.295V606.384C740.887 607.104 740.748 607.751 740.47 608.325C740.196 608.895 739.802 609.339 739.287 609.658C738.777 609.977 738.189 610.137 737.523 610.137C736.521 610.137 735.707 609.788 735.083 609.091C734.463 608.394 734.153 607.471 734.153 606.322V606.233ZM735.425 606.384C735.425 607.204 735.614 607.863 735.992 608.359C736.375 608.856 736.885 609.104 737.523 609.104C738.166 609.104 738.676 608.854 739.055 608.353C739.433 607.847 739.622 607.14 739.622 606.233C739.622 605.422 739.428 604.766 739.041 604.265C738.658 603.759 738.148 603.506 737.51 603.506C736.885 603.506 736.382 603.754 735.999 604.251C735.616 604.748 735.425 605.459 735.425 606.384Z" fill="white"/>
<path d="M747.661 600.812V602.604H749.042V603.581H747.661V608.168C747.661 608.464 747.723 608.688 747.846 608.838C747.969 608.984 748.178 609.057 748.475 609.057C748.62 609.057 748.821 609.029 749.076 608.975V610C748.743 610.091 748.42 610.137 748.105 610.137C747.54 610.137 747.114 609.966 746.827 609.624C746.54 609.282 746.396 608.797 746.396 608.168V603.581H745.05V602.604H746.396V600.812H747.661Z" fill="white"/>
<path d="M750.054 606.233C750.054 605.509 750.195 604.857 750.478 604.278C750.765 603.7 751.161 603.253 751.667 602.938C752.177 602.624 752.758 602.467 753.41 602.467C754.417 602.467 755.231 602.815 755.851 603.513C756.475 604.21 756.787 605.137 756.787 606.295V606.384C756.787 607.104 756.648 607.751 756.37 608.325C756.097 608.895 755.702 609.339 755.188 609.658C754.677 609.977 754.089 610.137 753.424 610.137C752.421 610.137 751.608 609.788 750.983 609.091C750.364 608.394 750.054 607.471 750.054 606.322V606.233ZM751.325 606.384C751.325 607.204 751.514 607.863 751.893 608.359C752.275 608.856 752.786 609.104 753.424 609.104C754.066 609.104 754.577 608.854 754.955 608.353C755.333 607.847 755.522 607.14 755.522 606.233C755.522 605.422 755.329 604.766 754.941 604.265C754.559 603.759 754.048 603.506 753.41 603.506C752.786 603.506 752.282 603.754 751.899 604.251C751.517 604.748 751.325 605.459 751.325 606.384Z" fill="white"/>
<path d="M763.562 600.812V602.604H764.942V603.581H763.562V608.168C763.562 608.464 763.623 608.688 763.746 608.838C763.869 608.984 764.079 609.057 764.375 609.057C764.521 609.057 764.721 609.029 764.977 608.975V610C764.644 610.091 764.32 610.137 764.006 610.137C763.441 610.137 763.015 609.966 762.728 609.624C762.44 609.282 762.297 608.797 762.297 608.168V603.581H760.95V602.604H762.297V600.812H763.562Z" fill="white"/>
<path d="M767.69 603.499C768.251 602.811 768.98 602.467 769.878 602.467C771.441 602.467 772.229 603.349 772.243 605.112V610H770.979V605.105C770.974 604.572 770.851 604.178 770.609 603.923C770.372 603.668 770.001 603.54 769.495 603.54C769.085 603.54 768.725 603.649 768.415 603.868C768.105 604.087 767.864 604.374 767.69 604.729V610H766.426V599.5H767.69V603.499Z" fill="white"/>
<path d="M777.206 610.137C776.203 610.137 775.388 609.809 774.759 609.152C774.13 608.492 773.815 607.61 773.815 606.507V606.274C773.815 605.541 773.954 604.887 774.232 604.312C774.515 603.734 774.907 603.283 775.408 602.959C775.914 602.631 776.461 602.467 777.049 602.467C778.01 602.467 778.758 602.784 779.291 603.417C779.824 604.05 780.091 604.957 780.091 606.138V606.664H775.08C775.098 607.393 775.31 607.983 775.716 608.435C776.126 608.881 776.646 609.104 777.274 609.104C777.721 609.104 778.099 609.013 778.409 608.831C778.719 608.649 778.99 608.407 779.223 608.106L779.995 608.708C779.375 609.66 778.446 610.137 777.206 610.137ZM777.049 603.506C776.538 603.506 776.11 603.693 775.764 604.066C775.417 604.436 775.203 604.955 775.121 605.625H778.826V605.529C778.79 604.887 778.617 604.39 778.307 604.039C777.997 603.684 777.577 603.506 777.049 603.506Z" fill="white"/>
<path d="M786.229 602.604L786.271 603.533C786.836 602.822 787.574 602.467 788.485 602.467C790.049 602.467 790.837 603.349 790.851 605.112V610H789.586V605.105C789.581 604.572 789.458 604.178 789.217 603.923C788.98 603.668 788.608 603.54 788.103 603.54C787.692 603.54 787.332 603.649 787.022 603.868C786.713 604.087 786.471 604.374 786.298 604.729V610H785.033V602.604H786.229Z" fill="white"/>
<path d="M794.132 610H792.867V602.604H794.132V610ZM792.765 600.642C792.765 600.437 792.826 600.263 792.949 600.122C793.077 599.981 793.264 599.91 793.51 599.91C793.756 599.91 793.943 599.981 794.07 600.122C794.198 600.263 794.262 600.437 794.262 600.642C794.262 600.847 794.198 601.018 794.07 601.154C793.943 601.291 793.756 601.359 793.51 601.359C793.264 601.359 793.077 601.291 792.949 601.154C792.826 601.018 792.765 600.847 792.765 600.642Z" fill="white"/>
<path d="M795.861 606.24C795.861 605.087 796.128 604.171 796.661 603.492C797.194 602.809 797.901 602.467 798.78 602.467C799.683 602.467 800.387 602.786 800.893 603.424L800.954 602.604H802.109V609.822C802.109 610.779 801.825 611.534 801.255 612.085C800.69 612.636 799.929 612.912 798.972 612.912C798.438 612.912 797.917 612.798 797.406 612.57C796.896 612.342 796.506 612.03 796.237 611.634L796.894 610.875C797.436 611.545 798.099 611.88 798.883 611.88C799.498 611.88 799.977 611.707 800.318 611.36C800.665 611.014 800.838 610.526 800.838 609.897V609.262C800.332 609.845 799.642 610.137 798.767 610.137C797.901 610.137 797.199 609.788 796.661 609.091C796.128 608.394 795.861 607.443 795.861 606.24ZM797.133 606.384C797.133 607.218 797.304 607.874 797.646 608.353C797.987 608.826 798.466 609.063 799.081 609.063C799.879 609.063 800.464 608.701 800.838 607.977V604.6C800.451 603.893 799.869 603.54 799.095 603.54C798.479 603.54 797.999 603.779 797.652 604.258C797.306 604.736 797.133 605.445 797.133 606.384Z" fill="white"/>
<path d="M805.288 603.499C805.849 602.811 806.578 602.467 807.476 602.467C809.039 602.467 809.827 603.349 809.841 605.112V610H808.576V605.105C808.572 604.572 808.449 604.178 808.207 603.923C807.97 603.668 807.599 603.54 807.093 603.54C806.683 603.54 806.323 603.649 806.013 603.868C805.703 604.087 805.461 604.374 805.288 604.729V610H804.023V599.5H805.288V603.499Z" fill="white"/>
<path d="M813.45 600.812V602.604H814.831V603.581H813.45V608.168C813.45 608.464 813.512 608.688 813.635 608.838C813.758 608.984 813.967 609.057 814.264 609.057C814.41 609.057 814.61 609.029 814.865 608.975V610C814.533 610.091 814.209 610.137 813.895 610.137C813.329 610.137 812.903 609.966 812.616 609.624C812.329 609.282 812.186 608.797 812.186 608.168V603.581H810.839V602.604H812.186V600.812H813.45Z" fill="white"/>
<path d="M826.035 606.384C826.035 607.509 825.778 608.416 825.263 609.104C824.748 609.793 824.05 610.137 823.171 610.137C822.273 610.137 821.567 609.852 821.052 609.282V612.844H819.787V602.604H820.942L821.004 603.424C821.519 602.786 822.234 602.467 823.15 602.467C824.039 602.467 824.741 602.802 825.256 603.472C825.775 604.142 826.035 605.074 826.035 606.268V606.384ZM824.771 606.24C824.771 605.406 824.593 604.748 824.237 604.265C823.882 603.782 823.394 603.54 822.774 603.54C822.009 603.54 821.435 603.88 821.052 604.559V608.093C821.43 608.767 822.009 609.104 822.788 609.104C823.394 609.104 823.875 608.865 824.23 608.387C824.59 607.904 824.771 607.188 824.771 606.24Z" fill="white"/>
<path d="M832.215 610C832.142 609.854 832.083 609.594 832.037 609.221C831.449 609.831 830.747 610.137 829.932 610.137C829.202 610.137 828.603 609.932 828.134 609.521C827.669 609.107 827.437 608.583 827.437 607.949C827.437 607.179 827.728 606.582 828.312 606.158C828.899 605.73 829.724 605.516 830.786 605.516H832.017V604.935C832.017 604.493 831.884 604.142 831.62 603.882C831.356 603.618 830.966 603.485 830.451 603.485C830 603.485 829.622 603.599 829.316 603.827C829.011 604.055 828.858 604.331 828.858 604.654H827.587C827.587 604.285 827.717 603.93 827.977 603.588C828.241 603.242 828.596 602.968 829.043 602.768C829.494 602.567 829.989 602.467 830.526 602.467C831.379 602.467 832.046 602.681 832.529 603.109C833.012 603.533 833.263 604.119 833.281 604.866V608.271C833.281 608.95 833.368 609.49 833.541 609.891V610H832.215ZM830.116 609.036C830.513 609.036 830.889 608.934 831.244 608.729C831.6 608.523 831.857 608.257 832.017 607.929V606.411H831.025C829.476 606.411 828.701 606.865 828.701 607.771C828.701 608.168 828.833 608.478 829.098 608.701C829.362 608.924 829.701 609.036 830.116 609.036Z" fill="white"/>
<path d="M838.839 603.738C838.647 603.706 838.44 603.69 838.217 603.69C837.387 603.69 836.825 604.044 836.528 604.75V610H835.264V602.604H836.494L836.515 603.458C836.929 602.797 837.517 602.467 838.278 602.467C838.524 602.467 838.711 602.499 838.839 602.562V603.738Z" fill="white"/>
<path d="M842.065 600.812V602.604H843.446V603.581H842.065V608.168C842.065 608.464 842.127 608.688 842.25 608.838C842.373 608.984 842.583 609.057 842.879 609.057C843.025 609.057 843.225 609.029 843.48 608.975V610C843.148 610.091 842.824 610.137 842.51 610.137C841.945 610.137 841.519 609.966 841.231 609.624C840.944 609.282 840.801 608.797 840.801 608.168V603.581H839.454V602.604H840.801V600.812H842.065Z" fill="white"/>
<path d="M847.35 608.147L849.072 602.604H850.426L847.452 611.142C846.992 612.372 846.26 612.987 845.258 612.987L845.019 612.967L844.547 612.878V611.853L844.889 611.88C845.317 611.88 845.65 611.793 845.887 611.62C846.128 611.447 846.326 611.13 846.481 610.67L846.762 609.918L844.123 602.604H845.504L847.35 608.147Z" fill="white"/>
<path d="M852.976 607.19H851.834L851.745 600.047H853.071L852.976 607.19ZM851.697 609.364C851.697 609.159 851.759 608.988 851.882 608.852C852.009 608.71 852.196 608.64 852.442 608.64C852.688 608.64 852.875 608.71 853.003 608.852C853.131 608.988 853.194 609.159 853.194 609.364C853.194 609.569 853.131 609.74 853.003 609.877C852.875 610.009 852.688 610.075 852.442 610.075C852.196 610.075 852.009 610.009 851.882 609.877C851.759 609.74 851.697 609.569 851.697 609.364Z" fill="white"/>
</g>
<defs>
<radialGradient id="paint0_radial" cx="0" cy="0" r="1" gradientUnits="userSpaceOnUse" gradientTransform="translate(246.829 493) scale(698.164 698.164)">
<stop stop-color="white"/>
<stop offset="1" stop-color="#FFFAF2"/>
</radialGradient>
<clipPath id="clip0">
<rect width="1440" height="961" fill="white"/>
</clipPath>
</defs>
</svg>
