<svg width="375" height="537" viewBox="0 0 375 537" fill="none" xmlns="http://www.w3.org/2000/svg">
<path fill-rule="evenodd" clip-rule="evenodd" d="M394.128 317.47L224.504 54.237H-43.4068V317.47H394.128ZM422.733 312.708L255.938 54.2369L291.589 0L-217 2.47062V54.3535H-105.308V317.47H-217L-217 460.228H436.808L422.733 312.708Z" fill="#7E8CAC"/>
<path fill-rule="evenodd" clip-rule="evenodd" d="M-107.978 283.668C-111.326 266.663 -100.246 250.23 -83.2318 246.965C-66.2184 243.699 -49.7132 254.836 -46.3656 271.84L-3.21606 491.011C0.131823 508.016 -10.9477 524.449 -27.9624 527.714C-44.9757 530.979 -61.4809 519.842 -64.8285 502.839L-107.978 283.668Z" fill="#616A7F"/>
<path opacity="0.502162" d="M51.573 378.87H56.114C60.9773 378.87 63.4089 381.23 63.4089 385.95C63.4089 390.774 60.9773 393.186 56.114 393.186H51.573V378.87ZM53.4675 391.487H56.075C58.1518 391.487 59.5678 391.005 60.323 390.042C61.0782 389.072 61.4558 387.708 61.4558 385.95C61.4558 384.238 61.0782 382.913 60.323 381.975C59.5743 381.038 58.1583 380.569 56.075 380.569H53.4675V391.487ZM71.52 384.504C71.2596 384.426 70.8852 384.387 70.3969 384.387C69.4594 384.387 68.6554 384.879 67.9848 385.862V393.186H66.1391V382.825H67.9848V384.27C68.7596 383.15 69.658 382.59 70.6801 382.59C70.9406 382.59 71.2205 382.616 71.52 382.669V384.504ZM75.0021 393.186H73.1564V382.825H75.0021V393.186ZM75.0021 380.862H73.1564V378.87H75.0021V380.862ZM59.7078 405.825L55.7917 416.186H54.1511L50.2351 405.825H52.2273L54.9714 413.93L57.7156 405.825H59.7078ZM66.0903 416.43C64.5669 416.43 63.3429 415.955 62.4184 415.004C61.4939 414.047 61.0317 412.716 61.0317 411.01C61.0317 409.318 61.4777 407.993 62.3696 407.036C63.268 406.072 64.4399 405.59 65.8852 405.59C67.3631 405.59 68.5415 406.062 69.4204 407.006C70.3058 407.95 70.7485 409.285 70.7485 411.01V411.45H62.9458C63.0239 412.648 63.3527 413.536 63.9321 414.116C64.518 414.695 65.2374 414.985 66.0903 414.985C66.7348 414.985 67.3143 414.822 67.8286 414.497C68.3494 414.165 68.6228 413.696 68.6489 413.09H70.5532C70.41 414.158 69.9249 414.982 69.0981 415.561C68.2778 416.141 67.2752 416.43 66.0903 416.43ZM68.8051 410.004C68.6554 409.008 68.3201 408.263 67.7993 407.768C67.2784 407.273 66.6404 407.026 65.8852 407.026C65.1495 407.026 64.518 407.273 63.9907 407.768C63.4633 408.256 63.1281 409.002 62.9848 410.004H68.8051ZM56.7097 430.504C56.4493 430.426 56.075 430.387 55.5867 430.387C54.6492 430.387 53.8451 430.879 53.1746 431.862V439.186H51.3289V428.825H53.1746V430.27C53.9493 429.15 54.8477 428.59 55.8699 428.59C56.1303 428.59 56.4102 428.616 56.7097 428.669V430.504ZM60.768 439.186H58.7661V437.184H60.768V439.186ZM60.768 430.827H58.7661V428.825H60.768V430.827Z" fill="white"/>
<path fill-rule="evenodd" clip-rule="evenodd" d="M282.559 298.883L260.557 275.613L194.046 312.523C194.046 312.523 143.966 266.433 133.619 258.144C123.272 249.856 116.955 239.374 94.5033 238.975C88.9857 238.975 24.1376 240.878 7.11243 240.878C-9.91281 240.878 -6.6618 248.397 -3.86786 283.871C-1.07388 319.345 12.3613 495.471 12.3613 495.471L140.517 489.369L120.103 309.1L182.63 361.595C189.253 367.155 198.893 367.22 205.591 361.75L282.559 298.883Z" fill="white"/>
<path fill-rule="evenodd" clip-rule="evenodd" d="M73.0387 271.636L64.2403 271.788C64.2403 271.788 65.8917 298.611 66.1255 320.281C66.3593 341.952 64.7751 363.456 64.7751 363.456L91.1702 363C91.1702 363 88.4547 339.376 83.5762 315.394C78.6977 291.412 73.0387 271.636 73.0387 271.636Z" fill="#F58B44"/>
<rect width="18.0534" height="20.0818" rx="9.0267" transform="matrix(-0.987944 0.15481 0.158075 0.987427 75.8694 258.227)" fill="#F58B44"/>
<path fill-rule="evenodd" clip-rule="evenodd" d="M280.288 298.884L258.273 275.613L191.725 312.524C191.725 312.524 145.91 264.784 135.557 256.495C125.203 248.207 109.703 234.61 88.4875 238.975C91.1702 300.293 78.9645 357.714 78.9645 357.714C78.9645 357.714 54.9657 271.351 33.6176 240.429C28.1777 241.09 -1.58838 239.099 -7.69003 244.14C-16.8774 251.73 -8.81003 269.66 -7.69003 283.872C-4.89432 319.346 10.826 489.369 10.826 489.369H142.696L121.825 310.448L180.281 361.237C186.894 366.982 196.683 367.133 203.47 361.593L280.288 298.884Z" fill="#565D68"/>
<path fill-rule="evenodd" clip-rule="evenodd" d="M281.65 297.985L259.635 274.715L193.996 312.524C193.996 312.524 148.18 264.784 137.827 256.495C129.781 250.055 119.914 241.307 106.364 239.374C120.346 270.421 124.095 310.448 124.095 310.448L182.422 361.124C189.092 366.919 198.982 367.016 205.764 361.353L281.65 297.985Z" fill="#49515E"/>
<path fill-rule="evenodd" clip-rule="evenodd" d="M259.745 275.266C259.745 275.266 292.647 259.729 303.606 257.486C314.564 255.243 326.023 259.852 326.023 272.003C326.023 284.153 317.711 288.028 317.711 288.028C317.711 288.028 323.292 275.204 315.307 272.003C307.322 268.801 297.023 290.881 297.023 290.881L285.961 290.2L279.461 296.324L259.745 275.266Z" fill="#7E3F2E"/>
<path fill-rule="evenodd" clip-rule="evenodd" d="M4.67004 241.09C4.67004 241.09 23.347 242.055 36.084 277.547C48.8209 313.038 60.4873 384.055 60.4873 384.055L166.458 434.697L141.408 460.677C141.408 460.677 47.9082 428.25 32.2059 417.389C28.7123 414.973 17.8531 406.187 13.5804 395.354C-1.44777 357.254 -19.9499 284.794 -19.9499 268.495C-19.9499 241.09 4.67004 241.09 4.67004 241.09Z" fill="#49515E"/>
<path fill-rule="evenodd" clip-rule="evenodd" d="M165.934 434.288C165.934 434.288 166.743 435.994 183.259 439.868C199.774 443.742 207.148 435.994 218.78 442.973C230.412 449.953 232.911 459.893 232.911 459.893C232.911 459.893 197.745 459.893 183.259 459.893C168.773 459.893 148.461 452.287 148.461 452.287L165.934 434.288Z" fill="#7E3F2E"/>
<path fill-rule="evenodd" clip-rule="evenodd" d="M47.2473 218.762H79.9377V238.802C79.9377 247.829 72.6197 255.147 63.5925 255.147C54.5653 255.147 47.2473 247.829 47.2473 238.802V218.762Z" fill="#692F1D"/>
<path fill-rule="evenodd" clip-rule="evenodd" d="M3.20605 172.718C3.20605 166.888 7.93226 162.162 13.7623 162.162H112.515C118.345 162.162 123.071 166.888 123.071 172.718C123.071 178.549 118.345 183.275 112.515 183.275H13.7623C7.93225 183.275 3.20605 178.549 3.20605 172.718Z" fill="#692F1D"/>
<path fill-rule="evenodd" clip-rule="evenodd" d="M18.1621 164.408C18.1621 164.408 -3.96877 156.668 -1.46047 137.237C1.04783 117.805 18.0852 120.85 26.3924 123.162C34.6997 125.474 101.458 123.162 101.458 123.162C101.458 123.162 122.134 115.113 127.167 134.909C132.2 154.704 109.032 164.408 109.032 164.408H18.1621Z" fill="#FFFAF2"/>
<path fill-rule="evenodd" clip-rule="evenodd" d="M15.4648 142.259C15.4648 115.79 36.9224 94.3326 63.3916 94.3326H67.4254C93.8945 94.3326 115.352 115.79 115.352 142.259V182.743C115.352 210.327 92.9916 232.687 65.4085 232.687C37.8254 232.687 15.4648 210.327 15.4648 182.743L15.4648 142.259Z" fill="#7E3F2E"/>
<path fill-rule="evenodd" clip-rule="evenodd" d="M40.6638 164.409C45.0521 164.409 48.6094 160.889 48.6094 156.548C48.6094 152.206 45.0521 148.686 40.6638 148.686C36.2756 148.686 32.7183 152.206 32.7183 156.548C32.7183 160.889 36.2756 164.409 40.6638 164.409Z" fill="#FFFAF2"/>
<path fill-rule="evenodd" clip-rule="evenodd" d="M44.7501 160.365C46.8816 160.365 48.6094 158.656 48.6094 156.547C48.6094 154.438 46.8816 152.729 44.7501 152.729C42.6187 152.729 40.8909 154.438 40.8909 156.547C40.8909 158.656 42.6187 160.365 44.7501 160.365Z" fill="#49515E"/>
<path fill-rule="evenodd" clip-rule="evenodd" d="M96.0559 164.409C100.444 164.409 104.002 160.889 104.002 156.548C104.002 152.206 100.444 148.686 96.0559 148.686C91.6677 148.686 88.1104 152.206 88.1104 156.548C88.1104 160.889 91.6677 164.409 96.0559 164.409Z" fill="#FFFAF2"/>
<rect x="29.54" y="138.804" width="20.4315" height="5.39044" rx="2.69522" fill="#FFFAF2"/>
<rect x="86.2942" y="138.804" width="20.4315" height="5.39044" rx="2.69522" fill="#FFFAF2"/>
<path fill-rule="evenodd" clip-rule="evenodd" d="M100.142 160.365C102.274 160.365 104.002 158.656 104.002 156.547C104.002 154.438 102.274 152.729 100.142 152.729C98.0108 152.729 96.283 154.438 96.283 156.547C96.283 158.656 98.0108 160.365 100.142 160.365Z" fill="#49515E"/>
<path fill-rule="evenodd" clip-rule="evenodd" d="M41.9928 188.665H98.0989C98.0989 188.665 96.7128 179.758 91.196 176.097C85.6792 172.436 73.267 177.342 70.0459 177.342C66.8248 177.342 53.0182 172.001 46.9106 176.829C40.803 181.656 41.9928 188.665 41.9928 188.665Z" fill="#FFFAF2"/>
<path fill-rule="evenodd" clip-rule="evenodd" d="M78.1304 173.033C78.3687 175.389 76.519 177.435 74.1507 177.435H66.2053C63.8356 177.435 61.9854 175.387 62.226 173.029L63.5319 160.228C63.5319 160.228 63.6697 154.526 70.1761 154.526C76.6824 154.526 76.8352 160.228 76.8352 160.228L78.1304 173.033Z" fill="#692F1D"/>
<path fill-rule="evenodd" clip-rule="evenodd" d="M60.4143 192.708C60.4143 192.708 64.2448 195.198 69.0755 195.198C73.9061 195.198 77.6676 192.708 77.6676 192.708C77.6676 192.708 76.9942 201.243 69.0755 201.243C61.1567 201.243 60.4143 192.708 60.4143 192.708Z" fill="#692F1D"/>
<path fill-rule="evenodd" clip-rule="evenodd" d="M10.1367 106.984C10.1367 106.984 14.893 128.663 33.3064 134.644C51.7198 140.624 92.7091 142.612 107.132 133.745C121.555 124.878 121.555 118.74 119.295 106.984C117.036 95.2279 10.1367 106.984 10.1367 106.984Z" fill="#565D68"/>
<path fill-rule="evenodd" clip-rule="evenodd" d="M71.4611 65.5836C71.4611 65.5836 84.4779 74.2375 99.0205 76.1078C107.18 77.1571 106.102 76.9099 115.314 78.3968C124.526 79.8837 126.249 87.5187 126.249 94.7615C126.249 102.004 117.695 109.896 117.695 109.896H11.958C11.958 109.896 3.50299 103.762 1.83981 97.4852C0.176628 91.2089 3.66001 83.9976 6.84587 81.6519C10.0317 79.3062 14.3955 78.3968 18.6379 78.3968C20.6327 78.3968 34.5148 78.7923 49.1059 74.5429C55.2024 72.7675 71.4611 65.5836 71.4611 65.5836Z" fill="#F58B44"/>
<path fill-rule="evenodd" clip-rule="evenodd" d="M11.8164 109.896H117.639C117.639 109.896 116.528 116.543 71.7486 116.543C26.9694 116.543 11.8164 109.896 11.8164 109.896Z" fill="#49515E"/>
<rect x="44.9424" y="84.447" width="10.0783" height="9.41637" fill="#565D68"/>
<rect x="55.1267" y="94.9711" width="10.0783" height="9.41637" fill="#565D68"/>
<rect x="66.219" y="84.447" width="10.0783" height="9.41637" fill="#565D68"/>
<rect x="77.417" y="94.9711" width="10.0783" height="9.41637" fill="#565D68"/>
<rect x="88.0552" y="84.447" width="10.0783" height="9.41637" fill="#565D68"/>
<path fill-rule="evenodd" clip-rule="evenodd" d="M325.552 389.292C325.552 389.292 315.432 390.707 306.467 387.936C297.501 385.165 287.291 377.135 287.291 377.135L305.722 315.492C305.722 315.492 314.893 314.399 326.572 317.576C338.251 320.752 342.907 326.164 342.907 326.164L325.552 389.292Z" fill="#616A7F"/>
<path fill-rule="evenodd" clip-rule="evenodd" d="M301.518 276.211C303.229 271.182 308.656 268.413 313.766 269.961C319.091 271.574 322.017 277.238 320.234 282.478L276.809 410.088C275.098 415.118 269.671 417.887 264.561 416.339C259.236 414.726 256.31 409.062 258.093 403.822L301.518 276.211Z" fill="#616A7F"/>
<path fill-rule="evenodd" clip-rule="evenodd" d="M358.579 267.276L293.792 482.248H609.34V356.968L469.952 296.261L358.579 267.276Z" fill="#616A7F"/>
</svg>
