<svg width="2518" height="1024" viewBox="0 0 2518 1024" fill="none" xmlns="http://www.w3.org/2000/svg">
<mask id="mask0" mask-type="alpha" maskUnits="userSpaceOnUse" x="0" y="0" width="2518" height="1021">
<rect width="2518" height="1021" fill="#C4C4C4"/>
</mask>
<g mask="url(#mask0)">
<path fill-rule="evenodd" clip-rule="evenodd" d="M1409 696.141L1440 1024.54L3.35499e-06 1024.54L2.31431e-06 706.74L246 706.74L246 121L3.9623e-07 121L0 0L1120.16 -3.6681e-06L1041.64 120.74L1409 696.141ZM1346 706.74L972.405 120.74L382.336 120.74L382.336 706.74L1346 706.74Z" fill="#FADEB3"/>
<path d="M1325.45 1024L2522.5 1024L2453 933L1325.45 673L1325.45 1024Z" fill="#FADEB3"/>
<path fill-rule="evenodd" clip-rule="evenodd" d="M293.028 550.168L296.462 549.504C333.055 542.392 368.486 566.29 375.6 602.883L471.329 1095.26C478.443 1131.85 454.545 1167.28 417.951 1174.4C417.95 1174.4 417.949 1174.4 417.947 1174.4L414.512 1175.06C377.919 1182.17 342.489 1158.27 335.375 1121.68L239.645 629.306C232.531 592.712 256.429 557.279 293.023 550.165C293.025 550.164 293.026 550.164 293.027 550.164L293.028 550.168Z" fill="#616A7F"/>
<path fill-rule="evenodd" clip-rule="evenodd" d="M297.69 283.915L301.188 283.915C338.415 283.916 368.613 314.056 368.686 351.282L368.953 486.794C369.026 524.073 338.865 554.353 301.586 554.426C301.541 554.426 301.496 554.426 301.451 554.426L297.953 554.426C260.727 554.425 230.529 524.286 230.455 487.059L230.188 351.548C230.115 314.269 260.276 283.989 297.555 283.915C297.6 283.915 297.645 283.915 297.69 283.915Z" fill="#616A7F"/>
<path fill-rule="evenodd" clip-rule="evenodd" d="M1194.8 866.48C1179.91 868.614 1165.88 867.643 1152.71 863.566C1139.53 859.49 1125.45 851.518 1110.46 839.651L1151.45 702.481C1164.94 700.829 1180.27 702.336 1197.43 707.004C1214.6 711.671 1226.59 718.008 1233.42 726.015L1194.8 866.48Z" fill="#616A7F"/>
<path fill-rule="evenodd" clip-rule="evenodd" d="M1169.72 601.088C1180.83 604.481 1187.08 616.234 1183.69 627.339C1183.63 627.532 1183.57 627.723 1183.5 627.914L1087.52 912.548C1083.67 923.965 1071.43 930.249 1059.91 926.728C1048.8 923.335 1042.55 911.583 1045.94 900.478C1046 900.285 1046.07 900.093 1046.13 899.903L1142.12 615.269C1145.97 603.851 1158.2 597.567 1169.72 601.088Z" fill="#616A7F"/>
<path fill-rule="evenodd" clip-rule="evenodd" d="M1223.5 719.5L1125.01 1023.56H1460H1547.5V862L1325.5 674L1223.5 719.5Z" fill="#616A7F"/>
<g clip-path="url(#clip0)">
<path fill-rule="evenodd" clip-rule="evenodd" d="M1100.27 665.363L1051.81 613.559L905.322 695.728C831.788 627.324 787.425 586.972 772.232 574.671C749.443 556.22 735.529 532.885 686.081 531.996C673.928 531.996 531.102 536.233 493.604 536.233C456.106 536.233 463.266 552.972 469.42 631.944C473.522 684.591 485.437 841.61 505.165 1103L787.425 1089.42L742.465 688.107L893.834 816.558C900.482 822.199 910.217 822.265 916.94 816.715L1100.27 665.363Z" fill="white"/>
<path fill-rule="evenodd" clip-rule="evenodd" d="M638.805 604.706L619.427 605.044C621.852 644.852 623.236 680.837 623.579 712.998C623.923 745.159 622.931 777.197 620.605 809.112L678.74 808.098C674.753 773.037 669.177 737.71 662.014 702.118C654.851 666.526 647.115 634.055 638.805 604.706Z" fill="#F58B44"/>
<path d="M608.868 600.719C607.15 589.871 614.551 579.685 625.399 577.966C636.246 576.248 646.433 583.649 648.151 594.497L648.921 599.357C650.639 610.205 643.238 620.392 632.39 622.11C621.543 623.828 611.356 616.427 609.638 605.579L608.868 600.719Z" fill="#F58B44"/>
<path fill-rule="evenodd" clip-rule="evenodd" d="M1095.27 665.363L1046.78 613.559L900.211 695.728C832.939 624.877 791.702 583.301 776.5 571C753.696 552.548 719.559 522.279 672.831 531.996C676.77 622.999 669.779 711.11 651.857 796.33C616.619 668.158 583.327 581.125 551.981 535.233C540 536.704 474.441 532.273 461.002 543.494C440.767 560.39 458.535 600.307 461.002 631.944C465.107 684.591 478.701 837.082 501.783 1089.42H792.224L746.257 691.107L888.697 816.195C895.334 822.023 905.218 822.175 912.031 816.554L1095.27 665.363Z" fill="#565D68"/>
<path fill-rule="evenodd" clip-rule="evenodd" d="M1095.27 665.363L1046.78 613.559L900.211 695.728C832.939 624.877 791.702 583.301 776.5 571C753.696 552.548 719.559 522.279 672.831 531.996C676.77 622.999 669.779 711.11 651.857 796.33C616.619 668.158 583.327 581.125 551.981 535.233C540 536.704 474.441 532.273 461.002 543.494C440.767 560.39 458.535 600.307 461.002 631.944C465.107 684.591 478.701 837.082 501.783 1089.42H792.224L746.257 691.107L888.697 816.195C895.334 822.023 905.218 822.175 912.031 816.554L1095.27 665.363Z" fill="#565D68"/>
<path fill-rule="evenodd" clip-rule="evenodd" d="M1100.27 665.363L1051.78 613.559L905.211 695.728C837.939 624.877 796.702 583.301 781.5 571C763.78 556.662 742.047 537.188 712.204 532.886C732.735 578.962 745.752 631.702 751.257 691.107L893.697 816.195C900.334 822.023 910.218 822.175 917.031 816.554L1100.27 665.363Z" fill="#49515E"/>
<path fill-rule="evenodd" clip-rule="evenodd" d="M1051.02 612.787C1099.33 589.728 1131.53 576.534 1147.62 573.205C1171.76 568.213 1197 578.472 1197 605.522C1197 623.555 1190.9 635.446 1178.69 641.196C1186.89 622.164 1185.12 610.273 1173.4 605.522C1161.67 600.77 1148.25 614.779 1133.13 647.549L1108.76 646.031L1094.45 659.665L1051.02 612.787Z" fill="#7E3F2E"/>
<path fill-rule="evenodd" clip-rule="evenodd" d="M488.225 536.705C515.649 538.138 538.712 565.191 557.414 617.864C576.115 670.537 594.032 749.572 611.162 854.968L844.561 967.706L789.389 1025.54C652.1 977.418 571.928 945.295 548.872 929.176C541.178 923.797 517.26 904.238 507.85 880.124C474.751 795.306 434 633.997 434 597.715C434 557.042 452.075 536.705 488.225 536.705Z" fill="#49515E"/>
<path fill-rule="evenodd" clip-rule="evenodd" d="M844.851 966.797C845.991 969.229 858.196 973.206 881.466 978.727C916.371 987.009 931.954 970.445 956.538 985.367C972.928 995.315 982.883 1007.37 986.405 1021.54C936.856 1021.54 901.876 1021.54 881.466 1021.54C861.056 1021.54 836.541 1016.12 807.923 1005.28L844.851 966.797Z" fill="#7E3F2E"/>
</g>
<path fill-rule="evenodd" clip-rule="evenodd" d="M580.427 480.472H652.235V524.492C652.235 544.32 636.16 560.395 616.331 560.395C596.502 560.395 580.427 544.32 580.427 524.492V480.472Z" fill="#692F1D"/>
<path fill-rule="evenodd" clip-rule="evenodd" d="M483.686 379.331C483.686 366.525 494.067 356.144 506.874 356.144H723.795C736.601 356.144 746.982 366.525 746.982 379.331C746.982 392.139 736.601 402.521 723.795 402.521H506.874C494.067 402.521 483.686 392.139 483.686 379.331Z" fill="#692F1D"/>
<path fill-rule="evenodd" clip-rule="evenodd" d="M516.538 361.078C516.538 361.078 467.926 344.076 473.435 301.394C478.945 258.709 516.369 265.398 534.617 270.477C552.865 275.555 699.507 270.477 699.507 270.477C699.507 270.477 744.924 252.796 755.979 296.28C767.035 339.762 716.144 361.078 716.144 361.078H516.538Z" fill="#FFFAF2"/>
<path fill-rule="evenodd" clip-rule="evenodd" d="M510.614 312.426C510.614 254.284 557.747 207.15 615.89 207.15H624.751C682.893 207.15 730.027 254.284 730.027 312.426V401.353C730.027 461.945 680.91 511.061 620.32 511.061C559.731 511.061 510.614 461.945 510.614 401.353V312.426Z" fill="#7E3F2E"/>
<path fill-rule="evenodd" clip-rule="evenodd" d="M565.966 361.079C575.605 361.079 583.419 353.347 583.419 343.812C583.419 334.274 575.605 326.542 565.966 326.542C556.327 326.542 548.513 334.274 548.513 343.812C548.513 353.347 556.327 361.079 565.966 361.079Z" fill="#FFFAF2"/>
<path fill-rule="evenodd" clip-rule="evenodd" d="M574.942 352.196C579.624 352.196 583.419 348.442 583.419 343.809C583.419 339.177 579.624 335.423 574.942 335.423C570.26 335.423 566.465 339.177 566.465 343.809C566.465 348.442 570.26 352.196 574.942 352.196Z" fill="#49515E"/>
<path fill-rule="evenodd" clip-rule="evenodd" d="M687.641 361.079C697.279 361.079 705.095 353.347 705.095 343.812C705.095 334.274 697.279 326.542 687.641 326.542C678.001 326.542 670.187 334.274 670.187 343.812C670.187 353.347 678.001 361.079 687.641 361.079Z" fill="#FFFAF2"/>
<path d="M580.491 304.835H547.452C544.182 304.835 541.531 307.486 541.531 310.755C541.531 314.025 544.182 316.676 547.452 316.676H580.491C583.761 316.676 586.411 314.025 586.411 310.755C586.411 307.486 583.761 304.835 580.491 304.835Z" fill="#FFFAF2"/>
<path d="M705.158 304.835H672.118C668.849 304.835 666.198 307.486 666.198 310.755C666.198 314.025 668.849 316.676 672.118 316.676H705.158C708.427 316.676 711.078 314.025 711.078 310.755C711.078 307.486 708.427 304.835 705.158 304.835Z" fill="#FFFAF2"/>
<path fill-rule="evenodd" clip-rule="evenodd" d="M696.616 352.196C701.299 352.196 705.095 348.442 705.095 343.809C705.095 339.177 701.299 335.423 696.616 335.423C691.935 335.423 688.139 339.177 688.139 343.809C688.139 348.442 691.935 352.196 696.616 352.196Z" fill="#49515E"/>
<path fill-rule="evenodd" clip-rule="evenodd" d="M568.885 414.362H692.128C692.128 414.362 689.083 394.797 676.965 386.755C664.847 378.714 637.582 389.49 630.507 389.49C623.431 389.49 593.103 377.758 579.687 388.363C566.271 398.966 568.885 414.362 568.885 414.362Z" fill="#FFFAF2"/>
<path fill-rule="evenodd" clip-rule="evenodd" d="M648.265 380.024C648.789 385.199 644.726 389.693 639.523 389.693H622.07C616.865 389.693 612.801 385.195 613.329 380.015L616.198 351.896C616.198 351.896 616.501 339.371 630.793 339.371C645.085 339.371 645.42 351.896 645.42 351.896L648.265 380.024Z" fill="#692F1D"/>
<path fill-rule="evenodd" clip-rule="evenodd" d="M609.35 423.242C609.35 423.242 617.764 428.712 628.375 428.712C638.986 428.712 647.249 423.242 647.249 423.242C647.249 423.242 645.769 441.99 628.375 441.99C610.981 441.99 609.35 423.242 609.35 423.242Z" fill="#692F1D"/>
<path fill-rule="evenodd" clip-rule="evenodd" d="M498.91 234.939C498.91 234.939 509.357 282.559 549.804 295.697C590.251 308.833 680.289 313.2 711.97 293.722C743.652 274.245 743.652 260.762 738.688 234.939C733.725 209.116 498.91 234.939 498.91 234.939Z" fill="#565D68"/>
<path fill-rule="evenodd" clip-rule="evenodd" d="M633.615 144C633.615 144 662.208 163.009 694.153 167.118C712.076 169.422 709.708 168.879 729.943 172.146C750.178 175.412 753.963 192.183 753.963 208.092C753.963 224.001 735.173 241.337 735.173 241.337H502.91C502.91 241.337 484.338 227.863 480.685 214.075C477.031 200.289 484.683 184.448 491.681 179.296C498.679 174.143 508.265 172.146 517.583 172.146C521.965 172.146 552.459 173.014 584.51 163.68C597.901 159.78 633.615 144 633.615 144Z" fill="#F58B44"/>
<path fill-rule="evenodd" clip-rule="evenodd" d="M502.599 241.337H735.05C735.05 241.337 732.61 255.938 634.247 255.938C535.885 255.938 502.599 241.337 502.599 241.337Z" fill="#49515E"/>
<path d="M597.502 185.436H575.364V206.12H597.502V185.436Z" fill="#565D68"/>
<path d="M619.873 208.552H597.735V229.236H619.873V208.552Z" fill="#565D68"/>
<path d="M644.239 185.436H622.101V206.12H644.239V185.436Z" fill="#565D68"/>
<path d="M668.836 208.552H646.698V229.236H668.836V208.552Z" fill="#565D68"/>
<path d="M692.204 185.436H670.066V206.12H692.204V185.436Z" fill="#565D68"/>
</g>
<defs>
<clipPath id="clip0">
<rect width="764" height="494" fill="white" transform="translate(434 530)"/>
</clipPath>
</defs>
</svg>
