<svg width="259" height="311" viewBox="0 0 259 311" fill="none" xmlns="http://www.w3.org/2000/svg">
<g clip-path="url(#clip0)">
<path fill-rule="evenodd" clip-rule="evenodd" d="M0 310.298C0 310.298 15 236 19 224.5C19 224.5 20.549 222.242 28 221C36.5 219.583 46.363 214.085 61.473 210.568C76.582 207.051 86.724 203.327 86.724 203.327L166.826 199.81C166.826 199.81 170.965 204.362 192.284 210.361C192.284 210.361 228.712 220.292 231.403 221.119C234.094 221.947 234.715 222.981 236.164 226.912L259 310.298H0Z" fill="#3E93CC"/>
<path fill-rule="evenodd" clip-rule="evenodd" d="M158.557 186.353C158.557 186.353 154.418 180.005 146.692 154.885C138.966 129.765 94.54 170.619 94.54 170.619C94.54 170.619 93.437 184.697 90.677 192.702C87.918 200.708 94.54 230.796 102.542 233.005C110.544 235.213 138.966 234.661 147.795 214.786C156.625 194.911 158.557 186.353 158.557 186.353Z" fill="#FFDDAD"/>
<path fill-rule="evenodd" clip-rule="evenodd" d="M156.405 181.807C156.405 181.807 154.632 180.24 146.89 155.213C139.148 130.186 94.631 170.889 94.631 170.889C94.631 170.889 92.993 183.642 91.851 190.147C91.276 193.418 105.722 195.039 117.757 188.438C128.865 182.346 131.652 179.726 141.577 171.379C147.66 182.209 156.405 181.807 156.405 181.807Z" fill="#F8C37C"/>
<path fill-rule="evenodd" clip-rule="evenodd" d="M62.81 45.917C62.81 45.917 48.341 48.3965 49.994 72.3652C49.994 72.3652 51.93 91.3748 57.577 106.252C57.577 106.252 59.785 115.527 55.923 128.246C55.923 128.246 46.969 144.271 56.337 158.735C65.704 173.199 79.76 169.126 89.681 167.65L62.81 45.917Z" fill="#565D68"/>
<path fill-rule="evenodd" clip-rule="evenodd" d="M62.272 55.6025C62.272 55.6025 59.566 64.5766 58.848 69.8226C58.13 75.0691 54.265 104.614 54.54 115.935C54.817 127.256 58.407 137.197 69.728 153.764C81.049 170.331 86.848 179.124 103.14 174.59C119.431 170.055 129.924 164.533 140.693 153.488C151.462 142.443 155.328 87.2205 155.328 87.2205L62.272 55.6025Z" fill="#FFDDAD"/>
<path fill-rule="evenodd" clip-rule="evenodd" d="M59.41 40.3344C59.41 40.3344 53.895 55.7619 69.614 64.8532C86.097 74.3867 99.673 76.562 118.701 79.3167C118.701 79.3167 142.693 80.8321 145.344 98.9721C147.657 118.024 134.164 125.462 135.799 143.645C137.411 161.564 150.415 179.734 180.198 172.847C209.982 165.96 214.946 139.237 205.569 111.688C196.193 84.138 188.31 86.1918 173.028 45.8441C161.446 15.2642 144.733 -5.93589 104.913 1.48965C63.547 9.20364 59.41 40.3344 59.41 40.3344Z" fill="#49515E"/>
<path fill-rule="evenodd" clip-rule="evenodd" d="M85.8359 107.341C85.8359 103.382 84.7979 101.878 82.8239 101.878C80.3309 101.878 79.1879 105.28 78.5649 109.403C77.9419 113.526 76.7629 121.916 76.4679 125.458C76.0369 130.62 77.9419 130.637 82.7199 130.843C87.4979 131.05 88.1219 130.843 90.1989 130.843C92.2769 130.843 94.3259 128.341 93.9389 126.72C93.2729 123.937 91.2559 123.919 89.0559 121.154C85.9399 117.237 85.8359 107.341 85.8359 107.341Z" fill="#F8C37C"/>
<path fill-rule="evenodd" clip-rule="evenodd" d="M93.3129 92.1187C91.9659 94.1566 93.9889 97.1352 99.4719 95.0965C105.014 93.0357 114.758 92.1447 120.353 92.1447C125.948 92.1447 125.848 93.8509 128.231 93.4519C130.925 92.9338 127.609 88.2466 118.698 88.2466C109.788 88.2466 100.463 89.6732 98.5969 89.877C96.7319 90.0807 94.1979 90.7798 93.3129 92.1187Z" fill="#49515E"/>
<path fill-rule="evenodd" clip-rule="evenodd" d="M110.86 99.9985C107.064 99.2847 103.929 100.018 102.072 101.654C100.215 103.289 99.725 104.693 100.329 105.448C100.932 106.203 103.855 107.662 107.657 107.154C111.459 106.646 113.385 105.599 114.644 104.324C115.904 103.05 114.544 101.659 113.498 101.127C112.453 100.594 110.86 99.9985 110.86 99.9985Z" fill="#F3F1ED"/>
<path fill-rule="evenodd" clip-rule="evenodd" d="M110.313 132.231C110.313 132.231 106.984 139.941 113.122 143.025C119.26 146.109 124.241 142.614 125.704 138.81C127.166 135.007 125.918 128.428 120.612 127.297C115.306 126.166 112.914 128.428 111.873 129.559C110.833 130.689 110.313 132.231 110.313 132.231Z" fill="#FCF6ED"/>
<path fill-rule="evenodd" clip-rule="evenodd" d="M60.8 102.278C59.715 103.372 58.846 104.686 60.366 105.78C60.366 105.78 62.537 108.017 66.228 107.555C69.919 107.093 71.222 105.976 71.005 104.51C71.005 104.51 69.485 101.075 66.228 100.528C62.971 99.9805 60.8 102.278 60.8 102.278Z" fill="#F3F1ED"/>
<path fill-rule="evenodd" clip-rule="evenodd" d="M98.619 147.591C99.653 146.568 100.48 145.749 98.619 145.545C96.759 145.34 93.451 143.498 91.798 142.271C90.144 141.043 88.594 140.531 86.32 140.633C84.046 140.736 83.141 141.938 82.392 142.015C81.903 142.073 81.359 142.091 79.912 141.145C77.734 139.929 74.537 142.782 73.917 143.498C73.917 143.498 72.574 144.471 74.951 147.591C74.951 147.591 78.039 151.962 84.149 152.093C93.705 152.298 98.619 147.591 98.619 147.591Z" fill="#FA8F59"/>
<path fill-rule="evenodd" clip-rule="evenodd" d="M68.768 95.4117C69.938 96.0205 73.298 96.9337 73.812 94.8077C74.413 92.3283 71.754 90.8457 68.356 89.7296C64.959 88.6134 56.583 87.8877 56.583 87.8877L56.32 90.2377C56.32 90.2377 60.121 90.9269 62.9 92.1542C65.68 93.3811 67.598 94.8029 68.768 95.4117Z" fill="#49515E"/>
<path fill-rule="evenodd" clip-rule="evenodd" d="M116.166 242.182C119.391 237.891 122.684 232.834 122.684 232.834L108.47 228.295L99.668 225.997L92.571 230.407C92.571 230.407 93.154 240.252 94.006 246.585C94.859 252.918 94.72 254.641 94.72 254.641C94.72 254.641 96.926 254.095 100.406 254.228C105.807 254.435 106.639 255.054 106.639 255.054C106.639 255.054 112.942 246.473 116.166 242.182Z" fill="#49515E"/>
<path fill-rule="evenodd" clip-rule="evenodd" d="M126.195 244.22C120.787 239.538 113.624 231.404 107.618 227.89C107.618 227.89 121.08 228.304 136.821 213.421C152.561 198.538 159.189 185.102 159.189 185.102C159.189 185.102 166.231 193.784 168.095 198.538C168.536 199.663 168.09 204.894 165.382 210.205C161.544 217.732 154.415 226.671 149.633 235.108C143.528 245.879 140.134 252.902 140.134 252.902C140.134 252.902 134.493 251.403 126.195 244.22Z" fill="#6EB6E7"/>
<path fill-rule="evenodd" clip-rule="evenodd" d="M78.122 244.318C78.122 244.318 88.898 234.655 96.635 230.513C104.371 226.372 107.618 227.821 107.618 227.821C107.618 227.821 97.2101 216.918 93.7811 205.94C90.3511 194.961 91.9211 188.69 91.9211 188.69C91.9211 188.69 87.001 194.269 82.819 200.418C76.248 210.081 76.05 246.803 76.05 246.803" fill="#6EB6E7"/>
<path fill-rule="evenodd" clip-rule="evenodd" d="M106.9 310.298L106.491 254.905C106.491 254.905 104.091 254.086 100.824 253.771C97.269 253.429 94.875 253.771 94.875 253.771L84.301 310.298H106.9Z" fill="#565D68"/>
<path fill-rule="evenodd" clip-rule="evenodd" d="M254.87 294.873L238.852 236.759C238.852 236.759 231.299 252.974 233.337 270.369C235.375 287.764 254.87 294.873 254.87 294.873Z" fill="#F8C37C"/>
<mask id="mask0" mask-type="alpha" maskUnits="userSpaceOnUse" x="99" y="99" width="17" height="9">
<path fill-rule="evenodd" clip-rule="evenodd" d="M110.725 99.7164C110.725 99.7164 112.332 100.322 113.388 100.864C114.443 101.405 115.816 102.819 114.545 104.116C113.273 105.412 111.329 106.478 107.49 106.994C103.653 107.511 100.701 106.027 100.092 105.259C99.483 104.491 99.978 103.063 101.852 101.399C103.24 100.168 105.337 99.4385 107.889 99.439C108.782 99.439 109.731 99.5283 110.725 99.7164Z" fill="white"/>
</mask>
<g mask="url(#mask0)">
<path fill-rule="evenodd" clip-rule="evenodd" d="M106.2 102.023C106.2 103.872 107.705 105.371 109.561 105.371C111.416 105.371 112.921 103.872 112.921 102.023C112.921 100.174 111.416 98.6748 109.561 98.6748C107.705 98.6748 106.2 100.174 106.2 102.023Z" fill="#49515E"/>
</g>
<mask id="mask1" mask-type="alpha" maskUnits="userSpaceOnUse" x="59" y="100" width="13" height="8">
<path fill-rule="evenodd" clip-rule="evenodd" d="M66.35 100.616C69.57 101.166 71.072 104.621 71.072 104.621C71.288 106.095 69.999 107.218 66.35 107.683C62.701 108.147 60.554 105.898 60.554 105.898C59.051 104.797 59.91 103.477 60.983 102.376C60.983 102.376 62.697 100.531 65.36 100.531C65.677 100.531 66.007 100.557 66.35 100.616Z" fill="white"/>
</mask>
<g mask="url(#mask1)">
<path fill-rule="evenodd" clip-rule="evenodd" d="M65.012 103.329C65.012 105.053 66.375 106.45 68.056 106.45C69.737 106.45 71.1 105.053 71.1 103.329C71.1 101.606 69.737 100.208 68.056 100.208C66.375 100.208 65.012 101.606 65.012 103.329Z" fill="#49515E"/>
</g>
</g>
<defs>
<clipPath id="clip0">
<rect width="259" height="311" fill="white" transform="matrix(-1 0 0 1 259 0)"/>
</clipPath>
</defs>
</svg>
