<svg width="206" height="380" viewBox="0 0 206 380" fill="none" xmlns="http://www.w3.org/2000/svg">
<g clip-path="url(#clip0)">
<mask id="mask0" mask-type="alpha" maskUnits="userSpaceOnUse" x="0" y="0" width="213" height="371">
<rect width="213" height="371" fill="#C4C4C4"/>
</mask>
<g mask="url(#mask0)">
<path fill-rule="evenodd" clip-rule="evenodd" d="M195.955 225.688C195.955 225.688 193.323 273.961 195.229 295.034C195.947 302.974 198.101 313.895 199.588 327.796C201.821 348.683 202.647 376.184 202.647 376.184H173.99C173.99 376.184 159.063 289.172 159.063 274.273C159.063 259.375 164.703 225.688 164.703 225.688H195.955Z" fill="#FDC982"/>
<path fill-rule="evenodd" clip-rule="evenodd" d="M6.62776 205.573C6.62776 205.573 4.36607 259.186 6.16702 285.607C6.7971 294.85 4.06308 319.775 2.74786 336.809C1.79193 349.189 0.744934 371.341 0.744934 371.341H30.0834C30.0834 371.341 31.9368 317.974 31.9368 285.607C31.9368 253.239 35.7612 225.897 35.7612 225.897L6.62776 205.573Z" fill="#FDC982"/>
<path fill-rule="evenodd" clip-rule="evenodd" d="M37.209 144.485C37.209 144.485 28.2014 149.368 15.1694 163.336C2.13728 177.304 0 224.893 0 224.893C0 224.893 17.9703 233.892 37.209 234.81C56.4476 235.728 165.082 304.661 165.082 304.661C165.082 304.661 161.272 259.802 165.281 239.347C165.901 236.183 165.548 235.236 170.318 233.834C178.864 231.321 206 230.065 206 230.065C206 230.065 202.841 186.909 193.878 167.214C184.915 147.519 156.88 144.147 156.88 144.147L121.345 119.258L58.1209 116.914L37.209 144.485Z" fill="#616A7F"/>
<path fill-rule="evenodd" clip-rule="evenodd" d="M175.454 376.769C175.454 376.769 165.095 322.795 160.46 244.229C158.8 224.954 162.795 209.652 145.247 209.339C137.099 209.194 112.874 213.11 90.7084 213.985C65.1365 214.994 41.5652 213.063 36.5063 214.286C27.0623 216.568 26.4484 232.088 26.4484 253.187C26.4484 274.285 27.9195 357.587 29.9589 370.635C31.9983 383.683 175.454 376.769 175.454 376.769Z" fill="#73B5EC"/>
<path fill-rule="evenodd" clip-rule="evenodd" d="M31.241 206.325C35.2754 207.783 38.45 209.379 35.0586 215.366C31.6671 221.354 34.8981 225.688 40.5884 225.688C46.2787 225.688 48.4088 219.739 45.4787 215.366C42.5485 210.994 42.806 207.427 47.0904 206.011C51.3748 204.595 53.7142 199.285 48.0845 197.054C42.4549 194.824 30.2104 194.85 26.6809 198.238C23.1514 201.626 27.2065 204.867 31.241 206.325Z" fill="white"/>
<path fill-rule="evenodd" clip-rule="evenodd" d="M151.048 207.336C153.063 204.228 155.358 204.991 158.216 203.508C161.074 202.024 161.067 196.556 156.511 195.332C151.956 194.108 142.99 192.162 138.51 192.162C134.031 192.162 133.244 198.973 138.51 202.024C143.776 205.076 143.868 208.085 142.059 212.069C141.384 213.555 138.51 217.488 143.304 220.991C146.433 223.278 152.263 221.355 152.263 217.058C152.263 210.202 149.032 210.444 151.048 207.336Z" fill="white"/>
<path fill-rule="evenodd" clip-rule="evenodd" d="M29.801 202.965C29.801 202.965 30.3439 174.445 30.9968 169.584C32.6459 157.305 32.8728 149.291 32.8728 149.291C32.8728 149.291 34.5329 145.306 39.5495 143.931C44.5661 142.556 49.5442 140.083 49.5442 143.931C49.5442 147.778 48.131 163.021 47.1855 172.067C46.0233 183.184 47.1855 202.384 47.1855 202.384L29.801 202.965Z" fill="#73B5EC"/>
<path fill-rule="evenodd" clip-rule="evenodd" d="M155.816 201.102L139.32 199.468C139.32 199.468 143.495 172.368 143.495 160.139C143.495 147.91 143.495 137.635 143.495 137.635C143.495 137.635 142.79 134.512 147.036 136.044C151.282 137.577 159.01 140.52 160.314 144.341C161.618 148.162 155.816 201.102 155.816 201.102Z" fill="#73B5EC"/>
<path fill-rule="evenodd" clip-rule="evenodd" d="M118.087 159.082C118.087 159.082 103.375 192.162 87.35 192.162C71.3246 192.162 67.7327 167.006 67.7327 167.006L65.19 122.772L109.788 110.582L118.087 159.082Z" fill="#FDC982"/>
<path fill-rule="evenodd" clip-rule="evenodd" d="M109.878 111.106C109.878 111.106 105.398 131.26 107.692 145.196C109.987 159.132 120.217 174.692 138.209 172.808C156.201 170.924 171.365 155.516 162.338 126.829C153.311 98.1415 128.744 95.6638 128.744 69.89C128.744 44.1162 124.853 47.4899 124.853 47.4899L49.9143 43.1567L40.5772 58.2322C40.5772 58.2322 43.5638 80.9072 39.5655 97.0077C35.5671 113.108 17.2453 139.818 23.7247 158.671C30.2041 177.524 49.6592 178.224 60.8022 171.591C71.9453 164.957 76.7892 151.539 65.7006 127.179C54.612 102.82 109.878 111.106 109.878 111.106Z" fill="white"/>
<path fill-rule="evenodd" clip-rule="evenodd" d="M116.55 54.8747C116.55 54.8747 115.798 63.4928 117.055 66.7639C118.312 70.0349 118.932 74.8859 118.062 78.7025C117.191 82.5191 117.333 82.964 120.375 80.3064C123.418 77.6488 129.186 76.9815 129.248 83.0217C129.293 87.3253 128.714 88.414 127.848 91.6949C127.499 93.0189 127.483 94.8688 126.855 97.17C124.672 105.174 121.11 107.756 119.074 107.929C117.038 108.101 115.407 105.043 115.407 105.043C115.407 105.043 113.308 116.324 107.944 121.864C102.579 127.405 93.2459 135.7 76.5783 136.722C59.9107 137.744 50.4139 111.013 48.6713 104.002C46.9287 96.9907 46.1667 81.3976 45.5166 71.9465C44.8664 62.4953 44.0026 48.2443 44.0026 48.2443L78.5913 42.9375L116.55 54.8747Z" fill="#FFDDAD"/>
<path fill-rule="evenodd" clip-rule="evenodd" d="M126.437 60.2823C126.437 60.2823 127.585 64.3202 127.855 67.697C128.125 71.0738 127.308 75.1569 130.283 74.016C133.258 72.875 130.657 54.9467 127.466 43.7308C124.274 32.5148 117.725 21.4546 110.528 20.8523C103.332 20.2499 101.279 22.5942 95.624 18.5511C89.9692 14.5081 90.7604 14.6162 84.1927 14.5845C77.6249 14.5529 76.103 14.8204 73.5677 15.7926C71.0324 16.7648 68.3703 19.4103 61.6203 20.3741C54.8703 21.338 48.9272 22.4846 47.6174 27.4352C46.3076 32.3858 45.4262 42.2981 45.4262 42.2981L97.8941 46.6084L121.674 56.2454L126.437 60.2823Z" fill="#73B5EC"/>
<path fill-rule="evenodd" clip-rule="evenodd" d="M123.52 59.9724C126.27 61.1834 130.802 62.7592 127.222 58.5526C123.642 54.346 108.39 40.6391 92.0943 37.1654C75.799 33.6917 55.7775 33.8076 40.1552 36.115C24.5328 38.4224 17.2097 48.825 22.5162 54.0137C27.8226 59.2025 33.4404 61.6572 37.8427 61.9765C42.245 62.2958 42.7386 57.5657 46.3298 54.8647C49.921 52.1637 57.4741 45.1967 81.6697 47.2823C105.865 49.3679 120.769 58.7614 123.52 59.9724Z" fill="#5196D0"/>
<path fill-rule="evenodd" clip-rule="evenodd" d="M98.1355 65.9502C101.285 65.5624 104.932 66.0669 107.915 68.1554C110.897 70.2439 112.128 70.7486 112.423 70.2862C112.718 69.8239 109.852 67.7971 106.026 64.9733C102.2 62.1495 97.6736 62.5309 93.0672 62.3625C88.4608 62.1941 83.6318 63.3169 84.8058 66.3722C85.9798 69.4274 94.9858 66.338 98.1355 65.9502Z" fill="#F8C37C"/>
<path fill-rule="evenodd" clip-rule="evenodd" d="M63.0912 66.9507C65.0712 67.984 68.636 70.5739 70.3205 67.3954C72.0051 64.2168 59.8057 61.2206 56.8516 60.8352C53.8974 60.4498 52.1773 60.5476 49.6147 62.5703C47.0522 64.593 45.0873 66.2299 46.6621 65.626C48.2368 65.0221 50.1061 62.8402 53.6078 63.5912C57.1096 64.3422 61.1113 65.9175 63.0912 66.9507Z" fill="#F8C37C"/>
<path fill-rule="evenodd" clip-rule="evenodd" d="M76.0171 99.1189C76.0171 99.1189 77.5137 98.5446 78.5615 98.833C79.6094 99.1215 80.4466 99.8406 81.0614 99.3293C81.6762 98.8179 80.4377 97.325 78.8074 97.4086C77.1772 97.4921 76.0171 99.1189 76.0171 99.1189Z" fill="#F8C37C"/>
<path fill-rule="evenodd" clip-rule="evenodd" d="M71.5078 99.4215C71.5078 99.4215 70.4751 98.1827 69.6916 98.4832C68.908 98.7837 68.4256 99.3669 68.1527 98.6565C67.8797 97.9462 69.0479 96.9778 70.0288 97.4167C71.0096 97.8556 71.5078 99.4215 71.5078 99.4215Z" fill="#F8C37C"/>
<path fill-rule="evenodd" clip-rule="evenodd" d="M87.5411 114.943C87.5411 114.943 89.1476 112.648 85.9649 111.601C84.646 111.168 83.7739 110.74 82.5645 109.665C80.8555 108.146 78.8651 105.967 77.388 106.144C74.8658 106.445 75.0116 107.807 74.2245 108.109C73.4374 108.411 71.6821 103.868 68.8059 107.468C65.9297 111.067 63.5627 110.744 63.3625 111.573C63.1623 112.402 64.9099 120.922 72.4095 121.844C79.9091 122.766 87.5411 114.943 87.5411 114.943Z" fill="#FA8F59"/>
<path fill-rule="evenodd" clip-rule="evenodd" d="M90.457 79.2641C93.8306 81.0591 100.203 80.4719 102.45 79.342C104.698 78.2122 101.395 75.5341 97.9419 74.966C94.4883 74.3979 92.6478 75.6396 91.634 76.1561C90.6202 76.6725 87.0833 77.4692 90.457 79.2641Z" fill="#FFFAF2"/>
<path fill-rule="evenodd" clip-rule="evenodd" d="M65.2401 79.1497C61.9225 80.6025 55.992 79.5141 53.9778 78.241C51.9635 76.9679 55.2892 74.6584 58.5783 74.3943C61.8674 74.1301 63.4898 75.4775 64.3977 76.0583C65.3056 76.6391 68.5577 77.6969 65.2401 79.1497Z" fill="#FFFAF2"/>
<path fill-rule="evenodd" clip-rule="evenodd" d="M95.7361 79.6631C94.5017 79.6631 93.501 78.6624 93.501 77.428C93.501 76.1936 94.5017 75.1929 95.7361 75.1929C96.9705 75.1929 97.9712 76.1936 97.9712 77.428C97.9712 78.6624 96.9705 79.6631 95.7361 79.6631Z" fill="#616A7F"/>
<path fill-rule="evenodd" clip-rule="evenodd" d="M59.6021 79.2904C58.3677 79.2904 57.367 78.2897 57.367 77.0553C57.367 75.8209 58.3677 74.8203 59.6021 74.8203C60.8365 74.8203 61.8372 75.8209 61.8372 77.0553C61.8372 78.2897 60.8365 79.2904 59.6021 79.2904Z" fill="#616A7F"/>
</g>
</g>
<defs>
<clipPath id="clip0">
<rect width="206" height="380" fill="white"/>
</clipPath>
</defs>
</svg>
