<?xml version="1.0" encoding="UTF-8"?>
<svg width="345px" height="344px" viewBox="0 0 345 344" version="1.1" xmlns="http://www.w3.org/2000/svg" xmlns:xlink="http://www.w3.org/1999/xlink">
    <!-- Generator: Sketch 53 (72520) - https://sketchapp.com -->
    <title>Group 10 Copy</title>
    <desc>Created with Sketch.</desc>
    <defs>
        <circle id="path-1" cx="172.5" cy="172" r="172"></circle>
    </defs>
    <g id="Page-1" stroke="none" stroke-width="1" fill="none" fill-rule="evenodd">
        <g id="Landing" transform="translate(-279.000000, -2424.000000)">
            <g id="Group-10-Copy" transform="translate(279.000000, 2424.000000)">
                <g id="Group-15">
                    <mask id="mask-2" fill="white">
                        <use xlink:href="#path-1"></use>
                    </mask>
                    <use id="Mask" fill="#E5E8F2" xlink:href="#path-1"></use>
                    <g id="Group-14-Copy" mask="url(#mask-2)">
                        <g transform="translate(56.000000, 46.000000)">
                            <path d="M57.321097,31.1063538 C43.0013924,29.4277675 31.8878021,32.2969612 23.9803262,39.7139349 C16.0728503,47.1309086 13.9180596,58.0054548 17.5159541,72.3375737 C5.83865135,76.8560443 6.59503142e-16,85.4565982 0,98.1392354 C0,110.821873 4.06859436,118.726737 12.2057831,121.853827 C5.71745318,129.169112 3.48867522,135.830167 5.5194492,141.836992 C7.55022317,147.843817 12.4975043,153.490149 20.3612925,158.775986 C12.0578086,168.299208 10.0608573,177.248309 14.3704388,185.623291 C18.6800202,193.998273 24.5672917,197.969327 32.0322534,197.536453 C31.4445832,209.970328 34.9727183,217.94687 42.6166587,221.466077 C50.260599,224.985284 58.7804076,224.985284 68.1760843,221.466077 C79.7462816,235.745287 94.86223,242.884892 113.52393,242.884892 C132.185629,242.884892 147.341742,235.745287 158.992268,221.466077 C170.608972,225.482807 179.048452,225.482807 184.310707,221.466077 C189.572962,217.449346 193.543612,209.472805 196.222655,197.536453 C202.891373,195.720632 208.355155,190.694097 212.614003,182.456848 C216.87285,174.219599 215.247949,166.325978 207.7393,158.775986 C215.350827,154.382599 220.15577,148.736268 222.154131,141.836992 C224.152491,134.937716 222.085076,128.276661 215.951885,121.853827 C225.698473,115.624944 229.168827,105.815014 226.362949,92.4240376 C223.55707,79.0330617 217.349187,72.3375737 207.7393,72.3375737 C214.023284,62.2156374 212.643598,51.3410911 203.600241,39.7139349 C194.556885,28.0867787 178.558022,25.217585 155.603652,31.1063538 L57.321097,31.1063538 Z" id="Path-20" fill="#E9C2BE" fill-rule="evenodd"></path>
                            <path d="M49.5590166,98.8226836 C39.6108472,105.195906 34.6367626,112.415836 34.6367626,120.482474 C34.6367626,128.549112 37.1238049,134.473247 42.0978896,138.25488 C37.4584098,145.397965 36.238086,151.668962 38.4369183,157.06787 C40.6357505,162.466779 43.3470343,165.328384 46.5707698,165.652685 C40.6069295,172.83948 39.1159694,180.373841 42.0978896,188.255768 C45.0798097,196.137696 49.7874758,199.917214 56.2208877,199.594323 C57.0081934,210.44995 60.3907959,216.952188 66.3686953,219.101035 C72.3465947,221.249883 77.7178469,219.856093 82.482452,214.919666 C89.7397231,226.368905 100.120911,232.093525 113.626014,232.093525 C127.131118,232.093525 137.195977,226.368905 143.820592,214.919666 C153.593024,218.087947 160.170541,218.087947 163.553143,214.919666 C166.935746,211.751385 168.841447,206.642937 169.270248,199.594323 C177.146116,195.069617 181.08405,190.29675 181.08405,185.275723 C181.08405,180.254696 180.099215,174.881167 178.129545,169.155137 C184.560145,165.611795 187.775445,161.582706 187.775445,157.06787 C187.775445,152.553035 185.54498,147.302176 181.08405,141.315296 C187.362813,135.590676 190.502194,128.646402 190.502194,120.482474 C190.502194,112.318545 183.424879,103.838776 169.270248,95.0431655 L49.5590166,98.8226836 Z" id="Path-19" fill="#CFA9A5" fill-rule="evenodd"></path>
                            <path d="M112.028279,229.143885 L112.028279,229.143885 C139.227832,229.143885 161.277426,251.193479 161.277426,278.393032 L161.277426,313.760674 C143.496753,314.089503 126.621505,314.079479 110.65168,313.7306 C94.6818554,313.381722 78.7243394,312.674478 62.7791321,311.608869 L62.7791321,278.393032 C62.7791321,251.193479 84.8287262,229.143885 112.028279,229.143885 Z" id="Rectangle-17" fill="#898EB4" fill-rule="evenodd"></path>
                            <path d="M100.663091,190.798561 L124.475865,190.798561 L124.475865,241.127656 C124.475865,247.703372 119.145194,253.034043 112.569478,253.034043 L112.569478,253.034043 C105.993762,253.034043 100.663091,247.703372 100.663091,241.127656 L100.663091,190.798561 Z" id="Rectangle-16" fill="#AA7F6A" fill-rule="evenodd"></path>
                            <path d="M49.7903462,71.3021583 L174.266212,71.3021583 L174.266212,142.877175 C174.266212,177.250236 146.40134,205.115108 112.028279,205.115108 L112.028279,205.115108 C77.6552178,205.115108 49.7903462,177.250236 49.7903462,142.877175 L49.7903462,71.3021583 Z" id="Rectangle-15" fill="#AA7F6A" fill-rule="evenodd"></path>
                            <path d="M88.756704,134.28485 C88.756704,130.491988 85.8490653,127.417266 82.2623111,127.417266 C78.6755569,127.417266 75.7679181,130.491988 75.7679181,134.28485 C75.7679181,138.077712 88.756704,138.077712 88.756704,134.28485 Z" id="Oval-2" fill="#363C4C" fill-rule="evenodd"></path>
                            <path d="M151.535836,134.28485 C151.535836,130.491988 148.628197,127.417266 145.041443,127.417266 C141.454689,127.417266 138.54705,130.491988 138.54705,134.28485 C138.54705,138.077712 151.535836,138.077712 151.535836,134.28485 Z" id="Oval-2-Copy" fill="#363C4C" fill-rule="evenodd"></path>
                            <path d="M67.1446535,118.704711 C66.5925484,119.322344 65.6442877,119.375466 65.0266539,118.823361 C64.4090201,118.271256 64.3558987,117.322995 64.9080038,116.705361 C67.7984818,113.471816 72.2624282,111.888489 78.1961683,111.888489 C84.2372593,111.888489 88.277834,113.540046 90.0869398,117.011875 C90.4697623,117.746543 90.1845344,118.652449 89.4498655,119.035272 C88.7151965,119.418094 87.8092907,119.132866 87.4264683,118.398197 C86.2365431,116.11463 83.2367607,114.888489 78.1961683,114.888489 C73.048225,114.888489 69.3989449,116.18286 67.1446535,118.704711 Z" id="Path-24" fill="#363C4C" fill-rule="nonzero"></path>
                            <path d="M136.418179,118.704711 C135.866073,119.322344 134.917813,119.375466 134.300179,118.823361 C133.682545,118.271256 133.629424,117.322995 134.181529,116.705361 C137.072007,113.471816 141.535953,111.888489 147.469693,111.888489 C153.510784,111.888489 157.551359,113.540046 159.360465,117.011875 C159.743287,117.746543 159.45806,118.652449 158.723391,119.035272 C157.988722,119.418094 157.082816,119.132866 156.699993,118.398197 C155.510068,116.11463 152.510286,114.888489 147.469693,114.888489 C142.32175,114.888489 138.67247,116.18286 136.418179,118.704711 Z" id="Path-24-Copy" fill="#363C4C" fill-rule="nonzero"></path>
                            <path d="M86.079775,79.0371638 C82.6396279,94.0243783 73.2608119,101.517986 57.9433271,101.517986 C34.9670999,101.517986 27.5690176,84.8397513 31.1737549,70.0032078 C33.5769132,60.1121788 41.9208594,52.709675 56.2055937,47.7956963 C52.3797544,41.8823831 51.4232946,35.6467039 53.3362142,29.0886588 C55.2491338,22.5306136 61.6587123,18.5776357 72.5649495,17.2297251 C75.7826607,6.23942853 81.9808331,0.744280229 91.1594666,0.744280229 C100.3381,0.744280229 108.157901,2.48856046 114.618868,5.97712092 C124.530671,0.720424362 133.78163,-1.02385587 142.371744,0.744280229 C150.961857,2.51241633 155.256914,7.00756462 155.256914,14.2297251 C163.714955,14.7982804 169.312263,17.4169082 172.04884,22.0856084 C174.785417,26.7543086 174.785417,33.3845357 172.04884,41.9762897 C189.888158,50.734833 197.726325,61.8641678 195.563341,75.3642941 C192.318866,95.6144835 183.034707,101.517986 164.966517,101.517986 C152.921057,101.517986 145.389466,94.0243783 142.371744,79.0371638 C139.912074,81.9048194 135.12483,83.3386472 128.010012,83.3386472 C120.895194,83.3386472 115.926116,80.6805295 113.102777,75.3642941 C107.823757,80.6805295 102.846784,83.3386472 98.1718569,83.3386472 C93.4969301,83.3386472 89.4662361,81.9048194 86.079775,79.0371638 Z" id="Path-15" fill="#F4D1CD" fill-rule="evenodd"></path>
                            <path d="M119.464863,170.090461 C118.870689,170.667738 117.92104,170.654039 117.343763,170.059865 C116.766487,169.465691 116.780185,168.516042 117.37436,167.938765 C121.116882,164.302677 125.188301,162.607914 129.557009,162.607914 C134.389418,162.607914 139.831361,165.756111 142.310701,169.868882 C145.490603,175.143753 135.131875,183.662205 127.606897,181.955403 C124.59014,181.271147 120.560767,179.360909 115.538315,176.410985 C114.299398,175.68331 113.010046,174.89782 111.655784,174.0487 C109.991399,173.005132 108.316548,171.92187 106.334217,170.615472 C105.812214,170.271461 102.797955,168.273911 102.0947,167.814051 C97.6962562,164.937902 90.0363411,167.34208 87.6847234,171.39597 C87.0971408,172.408887 88.3580946,174.530687 91.073294,176.3402 C94.1040832,178.360035 97.6966878,179.168794 100.128465,178.241144 C101.846279,177.58585 103.558404,176.675119 105.258576,175.547279 C105.948918,175.089328 106.879794,175.277719 107.337745,175.968061 C107.795696,176.658403 107.607306,177.589279 106.916963,178.04723 C105.042128,179.290936 103.136892,180.304388 101.197718,181.044124 C93.9440747,183.811171 81.7346636,175.67435 85.0897304,169.890642 C88.2593355,164.426646 97.8112398,161.42864 103.736545,165.303206 C104.449015,165.769092 107.469845,167.770996 107.985035,168.110517 C109.950008,169.405476 111.607023,170.477202 113.249432,171.50699 C114.580346,172.341472 115.845267,173.112078 117.057668,173.824179 C121.829314,176.626792 125.638854,178.432813 128.270495,179.029717 C130.925515,179.631924 134.252638,178.528039 136.913988,176.33949 C139.235471,174.43043 140.271835,172.297546 139.741447,171.41773 C137.799058,168.195665 133.325898,165.607914 129.557009,165.607914 C125.978815,165.607914 122.654223,166.991804 119.464863,170.090461 Z" id="Path-31" fill="#363C4C" fill-rule="nonzero"></path>
                        </g>
                    </g>
                </g>
            </g>
        </g>
    </g>
</svg>