<?xml version="1.0" encoding="UTF-8"?>
<svg width="345px" height="344px" viewBox="0 0 345 344" version="1.1" xmlns="http://www.w3.org/2000/svg" xmlns:xlink="http://www.w3.org/1999/xlink">
    <!-- Generator: Sketch 53 (72520) - https://sketchapp.com -->
    <title>Group 10</title>
    <desc>Created with Sketch.</desc>
    <defs>
        <circle id="path-1" cx="172.5" cy="172" r="172"></circle>
    </defs>
    <g id="Page-1" stroke="none" stroke-width="1" fill="none" fill-rule="evenodd">
        <g id="Landing" transform="translate(-779.000000, -2035.000000)">
            <g id="Group-10" transform="translate(779.000000, 2035.000000)">
                <g id="Group-15">
                    <mask id="mask-2" fill="white">
                        <use xlink:href="#path-1"></use>
                    </mask>
                    <use id="Mask" fill="#E5E8F2" xlink:href="#path-1"></use>
                    <g mask="url(#mask-2)">
                        <g transform="translate(19.000000, 20.000000)">
                            <g id="Rectangle-14" stroke="none" stroke-width="1" fill="none" fill-rule="evenodd" transform="translate(187.000000, 0.000000)">
                                <rect stroke="#F2F5FB" stroke-width="5" fill="#D7E4FA" x="3.24710425" y="3.09773371" width="78.8416988" height="108.042493"></rect>
                                <path d="M39.663923,89.7491642 C35.4907787,87.6099703 34.9609879,80.5521416 38.0745507,68.5756781 C42.7448949,50.6109828 41.2532952,46.150207 39.663923,34.6463721 C38.0745507,23.1425372 34.6786602,20.9023601 38.0745507,14.9866026 C41.4704412,9.07084518 43.3815533,19.8544023 43.3815533,25.576437 C43.3815533,31.2984717 43.2144305,43.3772923 46.5978152,53.462211 C49.9811999,63.5471297 41.6414846,73.1024021 41.6414846,78.6502923 C41.6414846,82.3488859 40.9822974,86.0485098 39.663923,89.7491642 Z" id="Path-16" fill="#FA8F59" opacity="0.7"></path>
                            </g>
                            <path d="M66.7952478,254.04802 C72.4149967,240.351204 75.8279697,232.281312 77.0341668,229.838342 C78.8434625,226.173887 82.8935717,222.834393 89.1545885,226.77325 C93.3285998,229.399154 92.9103833,234.719125 87.8999392,242.733163 L75.6946802,259.124579 C73.4367513,262 71.0236015,262.718855 68.4552309,261.281145 C65.8868603,259.843434 65.3335326,257.432393 66.7952478,254.04802 Z" id="Path-10" stroke="none" fill="#D7DBEA" fill-rule="evenodd"></path>
                            <path d="M222.795248,254.04802 C228.414997,240.351204 231.82797,232.281312 233.034167,229.838342 C234.843463,226.173887 238.893572,222.834393 245.154589,226.77325 C249.3286,229.399154 248.910383,234.719125 243.899939,242.733163 L231.69468,259.124579 C229.436751,262 227.023602,262.718855 224.455231,261.281145 C221.88686,259.843434 221.333533,257.432393 222.795248,254.04802 Z" id="Path-10" stroke="none" fill="#D7DBEA" fill-rule="evenodd" transform="translate(235.000000, 243.500000) scale(-1, 1) translate(-235.000000, -243.500000) "></path>
                            <path d="M24.4542784,170.454681 C28.3415895,191.175019 31.4106528,204.728133 33.661468,211.114023 C37.0376909,220.692858 48.9770181,248 77.3224704,248 C96.2194387,248 148.468878,248 234.070789,248 C253.214752,246.595512 266.207288,238.625906 273.048399,224.091182 C279.889509,209.556457 285.492481,191.677624 289.857315,170.454681 L300.932161,170.454681 C305.644054,169.039988 308,165.940165 308,161.155213 C308,156.37026 305.644054,153.651856 300.932161,153 L14.623903,153 C8.87463432,153.257681 6,155.976085 6,161.155213 C6,166.33434 8.87463432,169.434163 14.623903,170.454681 L24.4542784,170.454681 Z" id="Path-9" stroke="none" fill="#F2F5FB" fill-rule="evenodd"></path>
                            <path d="M39.7952478,259.04802 C45.4149967,245.351204 48.8279697,237.281312 50.0341668,234.838342 C51.8434625,231.173887 55.8935717,227.834393 62.1545885,231.77325 C66.3285998,234.399154 65.9103833,239.719125 60.8999392,247.733163 L48.6946802,264.124579 C46.4367513,267 44.0236015,267.718855 41.4552309,266.281145 C38.8868603,264.843434 38.3335326,262.432393 39.7952478,259.04802 Z" id="Path-10" stroke="none" fill="#FFFFFF" fill-rule="evenodd"></path>
                            <path d="M247.795248,259.04802 C253.414997,245.351204 256.82797,237.281312 258.034167,234.838342 C259.843463,231.173887 263.893572,227.834393 270.154589,231.77325 C274.3286,234.399154 273.910383,239.719125 268.899939,247.733163 L256.69468,264.124579 C254.436751,267 252.023602,267.718855 249.455231,266.281145 C246.88686,264.843434 246.333533,262.432393 247.795248,259.04802 Z" id="Path-10-Copy" stroke="none" fill="#FFFFFF" fill-rule="evenodd" transform="translate(260.000000, 248.500000) scale(-1, 1) translate(-260.000000, -248.500000) "></path>
                            <path d="M188.437812,145.375063 C193.787464,157.619249 200.334602,166.027202 208.079224,170.598922 C219.696157,177.456501 245.686713,191.090994 253.898716,196.53549 C262.110718,201.979987 265.288146,205.004496 265.288146,207.63042 C265.288146,210.256343 260.146006,216.957335 265.288146,220.512343 C270.430285,224.067352 274.591021,220.1688 279.738872,222.118076 C284.886723,224.067352 289.128369,235 300.661536,235 C312.194702,235 315.11131,223.562476 313.653006,223.562476 C312.194702,223.562476 304.707092,226.612609 298.566413,223.562476 C292.425735,220.512343 275.366816,198.38512 265.288146,190.187532 C255.209476,181.989944 223.824528,152.491724 217.523932,143.889856 C211.223335,135.287987 197.888027,116.933379 186.326507,120.439705 C178.618828,122.777256 169.176659,133.669699 158,153.117034 L191.034314,153.117034 L188.437812,145.375063 Z" id="Path-12" stroke="none" fill="#FFFEEF" fill-rule="evenodd"></path>
                            <polygon id="Rectangle-12" stroke="none" fill="#898EB4" fill-rule="evenodd" transform="translate(133.152510, 100.484419) rotate(19.000000) translate(-133.152510, -100.484419) " points="131.204815 84.4046467 135.10426 84.4041552 135.100204 116.564192 131.20076 116.564683"></polygon>
                            <path d="M49.6848264,120.938897 C44.9979176,120.870935 42.6544632,119.427331 42.6544632,116.608087 C42.6544632,112.379221 42.6544632,107.020033 46.1696448,107.020033 C49.6848264,107.020033 51.1680068,110.203085 53.1449008,110.203085 C55.1217949,110.203085 53.1449008,108.219211 53.1449008,103.629965 C53.1449008,99.0407191 53.133991,93.4892699 55.5594392,90.8602008 C57.1764047,89.1074881 59.7007278,87.4874212 63.1324084,86 C63.1046752,91.4751407 63.9354651,95.1057599 65.624778,96.8918576 C68.1587474,99.5710041 73.5811886,102.348517 69.6029833,103.629965 C65.624778,104.911412 65.624778,109.473831 65.624778,110.825029 C65.624778,112.176228 65.624778,119.559977 63.1324084,119.559977 C60.6400388,119.559977 56.8353738,119.401697 56.8353738,123.5161 C56.8353738,124.960707 56.4440351,132.28302 63.1324084,134.253009 C66.7968806,135.33234 72.4293539,131.478605 77.4592483,132.900095 C79.8277451,133.569451 94.6043086,145.469626 108.187473,150.371696 C113.920795,152.440812 121.904516,119.052671 121.574439,116.608087 C121.244362,114.163503 119.037607,109.437757 122.656609,103.629965 C123.383348,102.942159 126.487211,102.942159 129.476863,102.942159 C129.754389,102.942159 129.817016,104.662772 128.642073,105.458666 C127.24331,106.406172 124.841327,105.570936 124.841327,106.64542 C124.841327,107.719905 126.861937,111.108581 128.114613,111.550327 C129.550723,112.056759 133.445953,111.025713 134.4266,107.920659 C135.003623,106.093612 134.356963,103.087377 134.172585,100.428726 C134.039648,98.5118391 135.232502,97.5020864 135.783873,97.4194124 C136.125295,97.3682188 137.737795,97.3734625 138.578038,99.3424231 C139.990601,102.652516 140,106.550877 140,107.920659 C140,109.290441 133.223663,119.61989 131.831714,120.938897 C129.353646,128.913029 126.671009,139.600063 123.7838,153 L33,153 L44.2325419,120.938897 L49.6848264,120.938897 Z" id="Path-22" stroke="none" fill="#FFFEEF" fill-rule="evenodd"></path>
                            <polygon id="Rectangle-12" stroke="none" fill="#8B8B8B" fill-rule="evenodd" transform="translate(130.227799, 108.767705) rotate(19.000000) translate(-130.227799, -108.767705) " points="128.278937 101.946125 132.176731 101.945634 132.176661 115.589286 128.278868 115.589777"></polygon>
                            <path d="M42.1879019,144.707382 C39.3960073,153.943903 36.7420933,161.693716 34.22616,167.956819 C31.7102266,174.219922 30.1914395,179.815279 29.6697987,184.742891 C44.3363991,173.735775 55.2957638,165.773127 62.5478929,160.854946 C73.4260866,153.477676 85.8690432,148.589362 89.0546912,148.589362 C92.2403392,148.589362 113.40887,149.673034 118.184964,152.256305 C122.961058,154.839576 105.451884,153.65593 99.2470526,153.65593 C93.0422207,153.65593 87.0999266,155.898726 76.7087594,163.235441 C66.3175923,170.572156 52.3650438,184.678757 41.9814864,191.779687 C31.597929,198.880616 25.4844146,204 19.837951,204 C14.1914874,204 12.4022358,199.926562 13.1679708,196.156817 C13.9337058,192.387071 18.2731881,173.61366 18.2731881,158.562164 C18.2731881,152.256305 19.5077697,144.396428 23.5928266,137.492333 C24.5554231,135.865463 30.7537815,138.270479 42.1879019,144.707382 Z" id="Path-14" stroke="none" fill="#FEFEF5" fill-rule="evenodd"></path>
                            <path d="M29.3465661,79.5528926 C37.4172593,78.3934623 45.0870725,77.7608358 50.3839217,71.9644496 C55.680771,66.1680634 68,69.133603 68,78.5766461 C68,88.0196893 64.9764184,88.8584587 61.0053203,88.8584587 C57.0342222,88.8584587 54.1611201,96.1007089 54.1611201,101.290977 C54.1611201,106.481245 56.8780252,111.392944 54.1611201,111.392944 C51.4442149,111.392944 47.8709192,107.004711 45.6102941,109.198827 C43.349669,111.392944 44.1206514,115.884493 44.1206514,120.997466 C44.1206514,126.110438 45.6102941,137.217245 48.1867757,142.987611 C50.7632574,148.757977 58.5138621,159.572439 58.5138621,177.745265 C58.5138621,195.918091 53.4789977,217.27752 28.210886,217.27752 C2.94277432,217.27752 -2.34687338,199.613749 1.94277432,179.618742 C6.23242202,159.623736 18.1842488,156.831132 18.1842488,133.01498 C18.1842488,109.198827 12.739123,105.054607 15.1097785,95.5893699 C17.480434,86.124133 21.2758729,80.7123229 29.3465661,79.5528926 Z" id="Path-23" stroke="none" fill="#898EB4" fill-rule="evenodd"></path>
                            <polygon id="Path-11" stroke="none" fill="#F4D1CD" fill-rule="evenodd" points="223.298397 109 216.933333 89.5714286 244 89.5714286 236.906959 109"></polygon>
                            <path d="M235.720054,90.0414841 C232.406942,88.6698144 231.986335,84.1442733 234.458231,76.4648608 C238.166076,64.9457422 236.981876,62.085454 235.720054,54.7090951 C234.458231,47.3327362 231.762191,45.8963152 234.458231,42.1030801 C237.154271,38.309845 238.671527,45.2243556 238.671527,48.8933739 C238.671527,52.5623923 238.538846,60.307437 241.224958,66.7739744 C243.91107,73.2405119 237.290065,79.3674356 237.290065,82.9247911 C237.290065,85.2963614 236.766728,87.6685924 235.720054,90.0414841 Z" id="Path-16" stroke="none" fill="#FA8F59" fill-rule="evenodd" opacity="0.7"></path>
                            <path d="M215,66.3126337 C220.063672,69.098534 223.411762,73.5749477 225.044271,79.7418748 C226.67678,85.9088018 227.31556,89.2461902 226.960612,89.7540399" id="Path-17" stroke="#FA8F59" stroke-width="1" fill="none" opacity="0.7"></path>
                            <path d="M226.996484,89.7872431 C228.465994,82.6880987 230.47768,76.1938837 233.031543,70.304598 C235.585406,64.4153123 238.822418,59.6081322 242.742578,55.8830578" id="Path-18" stroke="#FA8F59" stroke-width="1" fill="none" opacity="0.7"></path>
                        </g>
                    </g>
                </g>
                <g id="Group-9" transform="translate(46.000000, 21.000000)">
                    <path d="M56,42 L101,42 C104.865993,42 108,45.1340068 108,49 L108,61.4205755 C108,65.2865688 104.865993,68.4205755 101,68.4205755 L99.5973361,68.4205755 L99.5973361,77 L87.1161309,68.4205755 L56,68.4205755 C52.1340068,68.4205755 49,65.2865688 49,61.4205755 L49,49 C49,45.1340068 52.1340068,42 56,42 Z" id="Rectangle-11" fill="#FFFFFF"></path>
                    <path d="M7,0 L62,0 C65.8659932,-7.10171439e-16 69,3.13400675 69,7 L69,26.3897794 C69,30.2557727 65.8659932,33.3897794 62,33.3897794 L42.0924296,33.3897794 L42.0924296,42 L29.551634,33.3897794 L7,33.3897794 C3.13400675,33.3897794 9.87636975e-14,30.2557727 8.97060204e-14,26.3897794 L0,7 C-5.62398529e-15,3.13400675 3.13400675,-2.19240763e-15 7,-9.76996262e-15 Z" id="Rectangle-11-Copy" fill="#FFFFFF" transform="translate(34.500000, 21.000000) scale(-1, 1) translate(-34.500000, -21.000000) "></path>
                    <rect id="Rectangle-13" fill="#F2F5FB" x="8" y="8" width="53" height="5" rx="2.5"></rect>
                    <rect id="Rectangle-13" fill="#F2F5FB" x="8" y="18" width="39" height="5" rx="2.5"></rect>
                    <rect id="Rectangle-13-Copy" fill="#F2F5FB" x="59" y="52" width="39" height="5" rx="2.5"></rect>
                </g>
            </g>
        </g>
    </g>
</svg>