<?xml version="1.0" encoding="UTF-8"?>
<svg width="131px" height="117px" viewBox="0 0 131 117" version="1.1" xmlns="http://www.w3.org/2000/svg" xmlns:xlink="http://www.w3.org/1999/xlink">
    <!-- Generator: Sketch 53 (72520) - https://sketchapp.com -->
    <title>Group 6</title>
    <desc>Created with Sketch.</desc>
    <g id="Page-1" stroke="none" stroke-width="1" fill="none" fill-rule="evenodd">
        <g id="Landing" transform="translate(-349.000000, -2893.000000)">
            <g id="Group-6" transform="translate(349.000000, 2893.000000)">
                <path d="M74.9767882,3.19197988 L74.9767882,113.553755 C75.0424397,115.727697 76.1996374,116.814668 78.4483814,116.814668 C80.6971254,116.814668 82.0707566,115.727697 82.5692751,113.553755 L106.340165,55.6632364 L80.6148806,3.19197988 C80.0142777,1.55461214 78.9104669,0.735928273 77.3034482,0.735928273 C75.6964295,0.735928273 74.9208762,1.55461214 74.9767882,3.19197988 Z" id="Path-15" fill="#47A2DF"></path>
                <path d="M129.43886,57.5628054 C126.065401,60.4622833 118.857074,64.3028574 106.432819,64.3028574 C94.0085646,64.3028574 79.6436471,64.3028574 59.7819446,64.3028574 C39.9202422,64.3028574 12.2040288,62.6535245 10.7279424,60.1081649 C9.25185611,57.5628054 -1.47352658,36.7299172 0.487197548,36.7299172 C2.44792167,36.7299172 7.65645808,36.264198 10.7279424,37.8287571 C13.7994268,39.3933163 18.2086804,50.5097138 26.3841715,49.0543079 C34.5596625,47.598902 82.0129874,45.5810307 104.505882,46.7396618 C126.998777,47.8982929 132.812319,54.6633275 129.43886,57.5628054 Z" id="Path-14" fill="#47A2DF"></path>
                <path d="M122.023264,49.5626999 L122.023264,53.2477393 L129.403546,53.2477393 C128.365262,52.4556396 127.40927,51.8414664 126.535569,51.4052196 C125.661867,50.9689729 124.157766,50.3547996 122.023264,49.5626999 Z" id="Path-16" fill="#6EB6E7"></path>
                <rect id="Rectangle" fill="#6EB6E7" x="111.875377" y="49.5626999" width="3.69014085" height="6.4488189" rx="1.84507042"></rect>
                <rect id="Rectangle-Copy-3" fill="#6EB6E7" x="89.7345317" y="49.5626999" width="3.69014085" height="6.4488189" rx="1.84507042"></rect>
                <rect id="Rectangle-Copy-6" fill="#6EB6E7" x="66.6711514" y="49.5626999" width="3.69014085" height="6.4488189" rx="1.84507042"></rect>
                <rect id="Rectangle-Copy" fill="#6EB6E7" x="104.495095" y="49.5626999" width="3.69014085" height="6.4488189" rx="1.84507042"></rect>
                <rect id="Rectangle-Copy-4" fill="#6EB6E7" x="81.4317148" y="49.5626999" width="3.69014085" height="6.4488189" rx="1.84507042"></rect>
                <rect id="Rectangle-Copy-7" fill="#6EB6E7" x="59.2908697" y="49.5626999" width="3.69014085" height="6.4488189" rx="1.84507042"></rect>
                <rect id="Rectangle-Copy-2" fill="#6EB6E7" x="97.1148134" y="49.5626999" width="3.69014085" height="6.4488189" rx="1.84507042"></rect>
                <rect id="Rectangle-Copy-5" fill="#6EB6E7" x="74.0514331" y="49.5626999" width="3.69014085" height="6.4488189" rx="1.84507042"></rect>
                <rect id="Rectangle-Copy-8" fill="#6EB6E7" x="51.910588" y="49.5626999" width="3.69014085" height="6.4488189" rx="1.84507042"></rect>
                <rect id="Rectangle-Copy-9" fill="#6EB6E7" x="43.6077711" y="49.5626999" width="3.69014085" height="6.4488189" rx="1.84507042"></rect>
            </g>
        </g>
    </g>
</svg>