<?xml version="1.0" encoding="UTF-8"?>
<svg width="236px" height="76px" viewBox="0 0 236 76" version="1.1" xmlns="http://www.w3.org/2000/svg" xmlns:xlink="http://www.w3.org/1999/xlink">
    <!-- Generator: Sketch 53 (72520) - https://sketchapp.com -->
    <title>Path 328</title>
    <desc>Created with Sketch.</desc>
    <g id="Page-1" stroke="none" stroke-width="1" fill="none" fill-rule="evenodd">
        <g id="Landing" transform="translate(-279.000000, -3077.000000)" fill="#47A2DF">
            <path d="M413.118941,3114.66566 C413.186952,3123.72481 417.237852,3128.25439 425.271641,3128.25439 C433.305431,3128.25439 458.798661,3128.25439 501.751332,3128.25439 C510.583777,3129.54802 515,3133.89914 515,3141.30775 C515,3148.71635 510.583777,3152.61377 501.751332,3153 L311.697664,3153 C305.033539,3151.19357 301.701477,3147.29615 301.701477,3141.30775 C301.701477,3132.32514 305.827472,3128.25439 311.697664,3128.25439 C315.611126,3128.25439 336.025263,3128.25439 372.940076,3128.25439 C380.89263,3126.9924 384.868907,3122.46282 384.868907,3114.66566 C384.868907,3106.86849 380.89263,3102.88801 372.940076,3102.72422 L289.476515,3102.72422 C282.492172,3100.9941 279,3096.45661 279,3089.11175 C279,3081.7669 282.492172,3077.72965 289.476515,3077 L477.413343,3077 C485.8722,3077.50442 490.101629,3081.54168 490.101629,3089.11175 C490.101629,3096.68183 485.8722,3101.21932 477.413343,3102.72422 C450.754009,3102.72422 433.373442,3102.72422 425.271641,3102.72422 C417.169841,3102.72422 413.118941,3106.7047 413.118941,3114.66566 Z" id="Path-328"></path>
        </g>
    </g>
</svg>