<?xml version="1.0" encoding="UTF-8"?>
<svg width="284px" height="126px" viewBox="0 0 284 126" version="1.1" xmlns="http://www.w3.org/2000/svg" xmlns:xlink="http://www.w3.org/1999/xlink">
    <!-- Generator: Sketch 53 (72520) - https://sketchapp.com -->
    <title>Path 327</title>
    <desc>Created with Sketch.</desc>
    <g id="Page-1" stroke="none" stroke-width="1" fill="none" fill-rule="evenodd">
        <g id="Landing" transform="translate(-895.000000, -3052.000000)" fill="#47A2DF">
            <path d="M940.056274,3178 C932.165495,3176.47484 928.220105,3172.54033 928.220105,3166.19647 C928.220105,3159.85262 932.165495,3155.69094 940.056274,3153.71143 L1005.02476,3153.71143 C1013.73411,3152.10331 1018.08879,3147.90015 1018.08879,3141.10195 C1018.08879,3130.90466 1011.49013,3126.53277 1005.02476,3126.53277 C1000.71451,3126.53277 967.586096,3126.53277 905.639508,3126.53277 C898.546503,3127.36982 895,3123.8331 895,3115.9226 C895,3108.01211 898.546503,3104.05686 905.639508,3104.05686 C994.3571,3104.29253 1040.04621,3104.29253 1042.70683,3104.05686 C1046.69776,3103.70335 1054.82515,3100.64645 1054.82515,3090.84222 C1054.82515,3081.038 1049.98604,3078.40243 1042.70683,3078.40243 C1037.85402,3078.40243 1026.13458,3078.40243 1007.54853,3078.40243 C999.718242,3076.87161 995.803099,3072.43185 995.803099,3065.08316 C995.803099,3057.73447 999.718242,3053.37484 1007.54853,3052.00426 L1130.19494,3052.00426 C1138.93832,3051.84402 1143.31001,3056.20365 1143.31001,3065.08316 C1143.31001,3073.96267 1138.93832,3078.40243 1130.19494,3078.40243 C1105.92995,3078.40243 1092.31202,3078.40243 1089.34116,3078.40243 C1084.88487,3078.40243 1079.31416,3081.74214 1079.31416,3090.84222 C1079.31416,3099.94231 1084.40848,3104.05686 1089.34116,3104.05686 C1092.62962,3104.05686 1118.54971,3104.05686 1167.10145,3104.05686 C1175.03382,3104.89391 1179,3108.84916 1179,3115.9226 C1179,3122.99605 1175.03382,3126.53277 1167.10145,3126.53277 L1056.50671,3126.53277 C1047.85786,3127.83925 1043.53343,3132.69564 1043.53343,3141.10195 C1043.53343,3149.50827 1047.85786,3153.71143 1056.50671,3153.71143 L1116.70557,3153.71143 C1125.69848,3154.16577 1130.19494,3158.32745 1130.19494,3166.19647 C1130.19494,3174.06549 1125.69848,3178 1116.70557,3178 L940.056274,3178 Z" id="Path-327"></path>
        </g>
    </g>
</svg>