<svg width="501" height="501" viewBox="0 0 501 501" fill="none" xmlns="http://www.w3.org/2000/svg">
<g clip-path="url(#clip0)">
<path d="M227.5 363L192 367L200 544H331.5L309 363H280H227.5Z" fill="white"/>
<path fill-rule="evenodd" clip-rule="evenodd" d="M273.586 427.27L256.25 427.572C258.419 463.186 259.657 495.379 259.964 524.152C260.272 552.925 259.384 581.587 257.303 610.14L309.313 609.233C305.746 577.865 300.758 546.26 294.35 514.418C287.941 482.576 281.02 453.526 273.586 427.27Z" fill="#7FBEE7"/>
<path d="M246.803 423.703C245.266 413.998 251.887 404.885 261.592 403.348C271.297 401.811 280.41 408.432 281.947 418.137L282.636 422.485C284.173 432.19 277.552 441.303 267.847 442.84C258.143 444.377 249.029 437.756 247.492 428.051L246.803 423.703Z" fill="#7FBEE7"/>
<path fill-rule="evenodd" clip-rule="evenodd" d="M655.119 562.054L611.74 515.707L480.612 589.219C420.428 525.833 410.375 408.119 396.774 397.114C376.373 380.607 345.832 353.527 304.027 362.22C307.551 443.635 301.297 522.463 285.263 598.704C253.738 484.036 223.953 406.173 195.91 365.116C185.191 366.432 149.853 365.116 119.435 380.67C101.332 395.786 80.1003 486.563 82.3072 514.867C85.9798 561.967 130.35 635.163 151.001 860.912H410.842L342.878 585.085L470.311 696.994C476.249 702.208 485.092 702.344 491.187 697.316L655.119 562.054Z" fill="#565D68"/>
<path fill-rule="evenodd" clip-rule="evenodd" d="M220.977 309.546H285.391V356.068C285.391 370.397 273.775 382.012 259.446 382.012H246.921C232.592 382.012 220.977 370.397 220.977 356.068V309.546Z" fill="#EDC48B"/>
<path fill-rule="evenodd" clip-rule="evenodd" d="M152.536 194.138H352.042C362.171 194.138 370.382 202.349 370.382 212.478V217.846C370.382 227.975 362.171 236.186 352.042 236.186H152.536C142.407 236.186 134.196 227.975 134.196 217.846V212.478C134.196 202.349 142.407 194.138 152.536 194.138Z" fill="#EDC48B"/>
<path fill-rule="evenodd" clip-rule="evenodd" d="M163.666 198.61C134.595 188.334 121.706 170.295 125.001 144.494C129.944 105.794 163.515 111.859 179.884 116.464C190.796 119.534 240.1 119.534 327.796 116.464C354.956 105.777 371.842 113.575 378.453 139.858C385.064 166.142 373.153 185.726 342.719 198.61H163.666Z" fill="#49515E"/>
<path fill-rule="evenodd" clip-rule="evenodd" d="M205.768 59.0464H307.757C333.944 59.0464 355.173 80.2753 355.173 106.462V246.921C355.173 296.331 315.118 336.386 265.709 336.386H247.816C198.406 336.386 158.352 296.331 158.352 246.921V106.462C158.352 80.2753 179.58 59.0464 205.768 59.0464Z" fill="#FFDDAD"/>
<path d="M208.004 198.611C216.651 198.611 223.661 191.601 223.661 182.955C223.661 174.308 216.651 167.298 208.004 167.298C199.358 167.298 192.348 174.308 192.348 182.955C192.348 191.601 199.358 198.611 208.004 198.611Z" fill="#FFFAF2"/>
<path d="M208.899 190.559C213.099 190.559 216.503 187.154 216.503 182.955C216.503 178.755 213.099 175.35 208.899 175.35C204.699 175.35 201.294 178.755 201.294 182.955C201.294 187.154 204.699 190.559 208.899 190.559Z" fill="#49515E"/>
<path d="M317.151 198.611C325.798 198.611 332.807 191.601 332.807 182.955C332.807 174.308 325.798 167.298 317.151 167.298C308.504 167.298 301.495 174.308 301.495 182.955C301.495 191.601 308.504 198.611 317.151 198.611Z" fill="#FFFAF2"/>
<path d="M221.871 145.827H190.559C188.088 145.827 186.085 147.829 186.085 150.3V152.089C186.085 154.56 188.088 156.562 190.559 156.562H221.871C224.342 156.562 226.344 154.56 226.344 152.089V150.3C226.344 147.829 224.342 145.827 221.871 145.827Z" fill="#49515E"/>
<path d="M333.702 145.827H302.389C299.919 145.827 297.916 147.829 297.916 150.3V152.089C297.916 154.56 299.919 156.562 302.389 156.562H333.702C336.172 156.562 338.175 154.56 338.175 152.089V150.3C338.175 147.829 336.172 145.827 333.702 145.827Z" fill="#49515E"/>
<path d="M318.045 190.559C322.245 190.559 325.65 187.154 325.65 182.955C325.65 178.755 322.245 175.35 318.045 175.35C313.846 175.35 310.441 178.755 310.441 182.955C310.441 187.154 313.846 190.559 318.045 190.559Z" fill="#49515E"/>
<path fill-rule="evenodd" clip-rule="evenodd" d="M278.752 224.555H253.563C251.587 224.555 249.984 222.953 249.984 220.977C249.984 220.857 249.99 220.737 250.002 220.618L253.064 190.286C253.245 182.714 257.609 178.929 266.156 178.929C274.703 178.929 279.077 182.714 279.277 190.286L282.313 220.621C282.51 222.587 281.075 224.341 279.109 224.538C278.99 224.55 278.871 224.555 278.752 224.555Z" fill="#EDC48B"/>
<path fill-rule="evenodd" clip-rule="evenodd" d="M246.027 256.763H285.391C284.367 269.884 277.832 276.445 265.788 276.445C253.743 276.445 247.156 269.884 246.027 256.763Z" fill="#EDC48B"/>
</g>
<defs>
<clipPath id="clip0">
<rect width="501" height="501" fill="white"/>
</clipPath>
</defs>
</svg>
