<svg width="493" height="493" viewBox="0 0 493 493" fill="none" xmlns="http://www.w3.org/2000/svg">
<g clip-path="url(#clip0)">
<path fill-rule="evenodd" clip-rule="evenodd" d="M112.958 377.856C140.458 377.856 229.444 377.856 379.914 377.856C407.979 379.004 430.782 394.432 448.324 424.14C465.866 453.848 505.935 525.614 568.531 639.438C576.904 652.973 576.904 663.887 568.531 672.181C560.157 680.475 500.413 731.231 389.299 824.449V733.542C439.003 689.167 469.027 662.665 479.37 654.037C494.885 641.094 495.342 633.603 484.803 617.642C477.777 607.002 452.468 565.203 408.874 492.245V614.718H88.8119V492.245C50.4341 557.749 27.2172 597.284 19.1611 610.852C7.07692 631.204 3.1115 637.148 19.1611 654.037C29.8608 665.296 57.9978 691.798 103.572 733.542V824.449L-69.805 677.551C-81.5867 667.549 -83.1245 654.844 -74.4183 639.438C-65.7121 624.032 -25.9585 552.266 44.8424 424.14C62.7516 393.284 85.4566 377.856 112.958 377.856Z" fill="#EC7373"/>
<path d="M292 371.5V333.5C292 308.371 271.629 288 246.5 288C221.371 288 201 308.371 201 333.5V371.5C201 396.629 221.371 417 246.5 417C271.629 417 292 396.629 292 371.5Z" fill="#F8C37C"/>
<path d="M341.616 164.697H151.53C137.259 164.697 125.69 176.266 125.69 190.536V193.703C125.69 207.973 137.259 219.542 151.53 219.542H341.616C355.886 219.542 367.455 207.973 367.455 193.703V190.536C367.455 176.266 355.886 164.697 341.616 164.697Z" fill="#FFDDAD"/>
<path d="M257.08 68.4395H234.945C190.678 68.4395 154.792 104.326 154.792 148.593V260.271C154.792 304.538 190.678 340.424 234.945 340.424H257.08C301.348 340.424 337.234 304.538 337.234 260.271V148.593C337.234 104.326 301.348 68.4395 257.08 68.4395Z" fill="#FFDDAD"/>
<path fill-rule="evenodd" clip-rule="evenodd" d="M252.367 82.1406C252.456 78.4691 253.499 75.7261 255.498 73.9116C257.519 72.0765 260.56 71.1938 264.62 71.2635V71.2635C266.367 71.2934 267.808 69.9014 267.838 68.1542C267.838 68.1361 267.838 68.118 267.838 68.1V64.9355C267.838 63.188 266.422 61.7715 264.674 61.7715C264.627 61.7715 264.58 61.7726 264.532 61.7747C257.297 62.1005 251.748 63.983 247.887 67.422C244.071 70.8196 242.141 75.6929 242.096 82.0419H242.096C242.083 83.7892 243.49 85.2159 245.237 85.2283C245.245 85.2284 245.252 85.2284 245.26 85.2284H249.204C250.922 85.2284 252.326 83.8578 252.367 82.1406Z" fill="#49515E"/>
<path fill-rule="evenodd" clip-rule="evenodd" d="M238.474 185.557C234.604 193.527 224.187 217.824 224.187 227.146C224.187 236.468 234.79 237.45 245.283 237.45C255.775 237.45 265.6 234.261 265.6 227.146C265.6 220.031 255.046 191.343 252.442 185.557C249.839 179.772 242.343 177.588 238.474 185.557Z" fill="#F8C37C"/>
<path fill-rule="evenodd" clip-rule="evenodd" d="M183.893 190.441C187.718 185.499 192.948 183.028 199.582 183.028C206.215 183.028 211.432 185.499 215.233 190.441C213.464 180.74 208.24 175.89 199.563 175.89C190.886 175.89 185.662 180.74 183.893 190.441Z" fill="#F8C37C"/>
<path fill-rule="evenodd" clip-rule="evenodd" d="M276.792 190.441C280.618 185.499 285.847 183.028 292.481 183.028C299.115 183.028 304.332 185.499 308.132 190.441C306.363 180.74 301.14 175.89 292.462 175.89C283.785 175.89 278.562 180.74 276.792 190.441Z" fill="#F8C37C"/>
<path fill-rule="evenodd" clip-rule="evenodd" d="M224.187 284.461C227.673 292.669 235.37 296.773 247.279 296.773C259.189 296.773 266.788 292.669 270.077 284.461H224.187Z" fill="#F58B44"/>
<path fill-rule="evenodd" clip-rule="evenodd" d="M160.758 136.186C159.161 141.801 158.175 146.956 157.8 151.652C157.238 158.695 158.942 167.211 152.736 164.831C146.53 162.452 151.955 125.058 158.612 101.664C165.269 78.27 178.929 55.2012 193.94 53.9449C208.95 52.6885 213.232 57.5781 225.026 49.1453C236.821 40.7124 235.171 40.9378 248.869 40.8719C262.568 40.8059 265.743 41.3639 271.031 43.3917C276.319 45.4195 281.871 50.9372 295.95 52.9476C310.029 54.958 322.425 57.3495 325.157 67.6753C326.978 74.5591 328.501 84.8926 329.727 98.6757L220.292 107.666L170.692 127.767L160.758 136.186Z" fill="#EC7373"/>
<path fill-rule="evenodd" clip-rule="evenodd" d="M166.843 135.539C161.107 138.065 151.654 141.352 159.121 132.578C166.587 123.804 198.4 95.2146 232.389 87.9693C266.377 80.7241 308.137 80.9657 340.721 85.7784C373.306 90.5911 388.58 112.288 377.512 123.111C366.444 133.933 354.727 139.053 345.544 139.719C336.362 140.385 335.333 130.519 327.842 124.886C320.352 119.252 304.598 104.721 254.132 109.071C203.666 113.421 172.579 133.013 166.843 135.539Z" fill="#D05951"/>
</g>
<defs>
<clipPath id="clip0">
<rect width="493" height="493" fill="white"/>
</clipPath>
</defs>
</svg>
