<svg width="494" height="494" viewBox="0 0 494 494" fill="none" xmlns="http://www.w3.org/2000/svg">
<g clip-path="url(#clip0)">
<path d="M307.876 357.775C336.247 358.629 359.335 355.902 377.139 349.594C394.943 343.287 409.335 336.304 420.314 328.644C401.938 288.967 390.775 256.284 386.825 230.596C380.934 192.082 368.105 145.679 361.064 127.779C354.023 109.88 289.508 162.573 281.78 210.187C276.628 241.931 285.326 291.126 307.876 357.775Z" fill="#FBC63E"/>
<path d="M312.049 361.195L303.402 316.407C317.714 315.021 329.532 299.186 338.858 268.904C348.183 238.622 349.795 202.651 343.692 160.991L234.482 82.9482L169.573 177.954V353.048C189.375 377.012 204.992 395.57 216.424 408.723C227.856 421.877 242.797 441.896 261.248 468.781C277.901 442.073 290.038 421.264 297.657 406.352C305.027 392.245 309.897 376.966 312.049 361.195V361.195Z" fill="#FFDDAD"/>
<path d="M291.003 192.021C289.835 184.288 282.793 183.901 280.037 192.021C277.28 200.142 280.037 221.513 275.984 228.113C271.931 234.712 268.96 241.088 275.984 243.228C283.008 245.368 290.135 247.937 294.678 247.937C299.22 247.937 303.608 246.545 301.067 237.282C299.718 232.358 296.43 225.492 294.678 216.933C292.479 206.217 292.479 201.869 291.003 192.021Z" fill="#F8C37C"/>
<path d="M306.459 178.341C301.41 178.341 299.203 172.33 300.448 171.408C301.693 170.485 316.652 167.376 324.492 167.376C329.707 167.376 336.757 168.72 345.642 171.408L346.5 176.684C335.36 174.439 328.024 173.317 324.492 173.317C319.159 173.31 311.517 178.341 306.459 178.341Z" fill="#FBC63E"/>
<path d="M265.294 179.199C268.344 180.294 270.289 179.626 271.13 177.195C271.968 174.987 271.968 172.638 271.13 170.43C257.838 169.54 249.828 169.094 247.099 169.094C243.03 169.094 233.547 168.947 228.097 173.101C224.463 175.857 220.698 178.529 216.802 181.116C223.731 177.144 230.136 175.499 236.018 176.18C241.9 176.861 251.659 177.868 265.294 179.199Z" fill="#FBC63E"/>
<path d="M303.668 316.682C295.958 317.956 288.16 318.622 280.345 318.675C271.724 318.566 263.119 317.9 254.584 316.682C268.323 320.858 280.122 326.395 289.98 333.292C299.838 340.19 306.645 346.683 310.4 352.773L303.668 316.682Z" fill="#F8C37C"/>
<path d="M306.649 271.23C309.221 269.666 309.1 268.533 306.286 267.83C302.077 266.81 297.442 263.512 294.291 262.73C291.139 261.948 288.36 265.118 285.135 265.348C281.911 265.577 280.636 261.591 277.059 261.846C273.482 262.101 269.531 265.246 266.224 266.521C262.916 267.796 260.47 268.765 258.23 269.071C255.991 269.377 252.227 270.321 256.613 272.65C260.998 274.979 269.697 281.618 274.964 284.253C280.231 286.888 292.372 287.245 298.002 280.368C301.693 275.846 304.576 272.8 306.649 271.23Z" fill="#FA8F59"/>
<path d="M268.401 272.25C271.436 275.299 276.064 276.823 282.284 276.823C288.505 276.823 292.825 275.299 295.245 272.25C291.739 271.078 288.007 270.425 284.223 270.32C281.051 270.32 275.777 270.964 268.401 272.25Z" fill="#F47C30"/>
<path fill-rule="evenodd" clip-rule="evenodd" d="M311.873 192.683C310.442 194.311 311.618 196.17 314.305 198.212C316.992 200.255 327.854 204.754 337.366 198.212C346.878 191.671 332.086 187.985 324.484 187.985C316.883 187.985 313.304 191.055 311.873 192.683Z" fill="#FCF6ED"/>
<path fill-rule="evenodd" clip-rule="evenodd" d="M319.493 201.696C323.642 202.772 329.086 202.961 334.316 200.007C334.4 199.435 334.444 198.846 334.444 198.243C334.444 192.896 330.984 188.561 326.715 188.561C322.447 188.561 318.987 192.896 318.987 198.243C318.987 199.46 319.166 200.624 319.493 201.696Z" fill="#49515E"/>
<path fill-rule="evenodd" clip-rule="evenodd" d="M229.528 196.601C227.887 198.471 229.235 200.606 232.317 202.953C235.399 205.299 247.859 210.467 258.77 202.953C269.681 195.438 252.713 191.205 243.994 191.205C235.274 191.205 231.17 194.731 229.528 196.601Z" fill="#FCF6ED"/>
<path fill-rule="evenodd" clip-rule="evenodd" d="M239.612 206.079C243.995 207.167 249.653 207.44 255.217 204.952C255.588 203.825 255.792 202.601 255.792 201.321C255.792 196.754 253.199 192.897 249.644 191.66C248.517 191.491 247.405 191.368 246.352 191.293C241.998 191.788 238.595 196.089 238.595 201.321C238.595 203.042 238.963 204.662 239.612 206.079Z" fill="#49515E"/>
<path fill-rule="evenodd" clip-rule="evenodd" d="M229.527 195.646C228.655 196.672 228.629 197.775 229.257 198.947C229.81 199.978 229.307 192.068 245.525 192.068C257.932 192.068 262 199.054 262.226 198.161C263.449 193.343 251.534 190.084 243.954 190.084C235.258 190.084 231.164 193.718 229.527 195.646Z" fill="#49515E"/>
<path fill-rule="evenodd" clip-rule="evenodd" d="M311.872 192.548C311.112 193.389 311.089 194.294 311.637 195.256C312.119 196.101 311.68 189.613 325.819 189.613C336.635 189.613 340.182 195.344 340.379 194.611C341.445 190.659 331.058 187.985 324.45 187.985C316.868 187.985 313.299 190.967 311.872 192.548Z" fill="#49515E"/>
<path fill-rule="evenodd" clip-rule="evenodd" d="M477.417 589C477.417 589 458.283 439.282 455.992 425.922C455.992 425.922 450.685 420.262 436.937 417.972C416.315 414.537 391.874 411.483 363.997 404.994C336.119 398.505 317.406 391.634 317.406 391.634C303.624 420.923 290.029 436.057 276.623 437.038C257.294 438.453 221.625 421.155 169.616 385.145C169.616 385.145 161.978 393.543 122.644 404.612C122.644 404.612 55.4319 422.934 50.4673 424.461C45.5028 425.988 44.3572 427.897 41.6839 435.149L-0.450195 589H477.417Z" fill="#94BE6A"/>
<path fill-rule="evenodd" clip-rule="evenodd" d="M244.581 467.083C254.56 458.444 267.775 443.437 278.857 436.954C278.857 436.954 254.019 437.717 224.977 410.257C195.935 382.798 183.707 358.008 183.707 358.008C183.707 358.008 170.714 374.026 167.275 382.798C166.461 384.873 167.283 394.525 172.279 404.324C179.36 418.211 192.514 434.704 201.337 450.271C212.601 470.143 218.863 483.101 218.863 483.101C218.863 483.101 229.272 480.336 244.581 467.083Z" fill="white"/>
<path fill-rule="evenodd" clip-rule="evenodd" d="M333.278 467.265C333.278 467.265 313.396 449.435 299.122 441.794C284.848 434.152 278.857 436.827 278.857 436.827C278.857 436.827 298.06 416.71 304.387 396.454C310.715 376.199 307.818 364.627 307.818 364.627C307.818 364.627 316.896 374.92 324.612 386.266C336.737 404.095 337.102 471.85 337.102 471.85" fill="white"/>
<path d="M261.059 352.172C237.896 361.814 213.319 367.619 188.293 369.359C163.728 371.02 140.887 371.793 119.768 371.679C120.667 308.737 123.816 258.387 129.214 220.628C137.398 163.974 156.409 103.168 173.412 80.3708C184.746 65.1895 199.994 58.971 219.155 61.715C247.354 49.1633 269.873 44.7292 286.709 48.4128C311.963 53.9382 338.892 64.0953 354.606 108.651C365.088 138.349 370.962 156.79 372.227 163.974H346.912C318.592 161.046 298.525 158.182 286.709 155.38C268.977 151.178 255.864 148.454 244.34 132.746C236.658 122.274 231.085 111.753 227.621 101.183C233.403 138.581 230.581 162.53 219.155 173.031C207.728 183.532 197.441 192.595 188.293 200.22C197.452 238.516 207.74 268.386 219.155 289.829C231.033 311.943 245.07 332.826 261.059 352.172V352.172Z" fill="#FBC63E"/>
</g>
<defs>
<clipPath id="clip0">
<rect width="494" height="494" fill="white"/>
</clipPath>
</defs>
</svg>
