<svg width="60" height="104" viewBox="0 0 60 104" fill="none" xmlns="http://www.w3.org/2000/svg">
<path d="M46.7802 90.7942H15.1142C8.9655 90.7942 6.81348 93.5611 4.96884 97.2504C3.95476 99.2785 3.32918 102.272 3.43166 103.707H57.5405C57.438 102.579 56.9871 99.7099 56.0033 97.2504C55.0195 94.7909 52.6215 92.0239 46.7802 90.7942Z" fill="#3E92F4"/>
<path d="M5.89114 55.1313V26.5397C5.89114 25.105 5.64519 22.2356 3.43165 22.2356C1.2181 22.2356 0.767196 25.105 0.972154 26.5397V55.1313C0.972154 60.6652 4.66139 70.8106 12.3473 75.7296C18.496 79.6648 25.1572 81.0585 27.7191 81.2634V86.4899H32.9456V81.2634C34.6877 81.3659 40.0166 80.4026 47.3951 75.7296C54.7736 71.0565 58.8727 60.0503 60 55.1313V26.5397C59.8975 25.105 59.4466 22.2356 57.2331 22.2356C55.0195 22.2356 54.5686 25.105 54.7736 26.5397V55.1313C53.2364 62.3048 46.1039 76.6519 29.8712 76.6519C13.6385 76.6519 7.12089 62.3048 5.89114 55.1313Z" fill="#3E92F4"/>
<rect x="15.4216" y="0.715088" width="29.5139" height="65.1766" rx="14.757" fill="#101315"/>
</svg>
