<svg width="96" height="96" viewBox="0 0 96 96" fill="none" xmlns="http://www.w3.org/2000/svg">
<circle cx="48" cy="48" r="48" fill="#3E92F4"/>
<path d="M25.4694 21.5509L19.5918 15.6733L15.6735 19.5917L21.551 25.4693L25.4694 21.5509Z" fill="white"/>
<path d="M17.3293 32.3036L9.5219 29.7291L7.80557 34.934L15.6129 37.5085L17.3293 32.3036Z" fill="white"/>
<path d="M13.9732 45.0348L5.75557 44.8018L5.60027 50.2802L13.8179 50.5132L13.9732 45.0348Z" fill="white"/>
<path d="M15.1131 58.5872L7.6701 62.0779L9.99722 67.0398L17.4402 63.5492L15.1131 58.5872Z" fill="white"/>
<path d="M50.7327 13.9247L50.807 5.70415L45.3266 5.65464L45.2523 13.8752L50.7327 13.9247Z" fill="white"/>
<path d="M63.1036 17.2585L66.5967 9.81661L61.6354 7.48791L58.1424 14.9298L63.1036 17.2585Z" fill="white"/>
<path d="M37.3096 15.1772L33.6759 7.80299L28.7598 10.2255L32.3935 17.5997L37.3096 15.1772Z" fill="white"/>
<path d="M71.5099 74.8934L77.3874 80.771L81.3058 76.8526L75.4282 70.9751L71.5099 74.8934Z" fill="white"/>
<path d="M79.6501 64.141L87.4575 66.7155L89.1738 61.5106L81.3664 58.9361L79.6501 64.141Z" fill="white"/>
<path d="M83.0062 51.4098L91.2238 51.6427L91.3791 46.1644L83.1615 45.9314L83.0062 51.4098Z" fill="white"/>
<path d="M81.8662 37.8572L89.3092 34.3665L86.982 29.4045L79.539 32.8952L81.8662 37.8572Z" fill="white"/>
<path d="M46.2468 82.5204L46.1725 90.7409L51.6529 90.7904L51.7272 82.5699L46.2468 82.5204Z" fill="white"/>
<path d="M33.8756 79.1863L30.3826 86.6282L35.3438 88.9569L38.8369 81.515L33.8756 79.1863Z" fill="white"/>
<path d="M59.6697 81.2676L63.3035 88.6418L68.2196 86.2194L64.5859 78.8451L59.6697 81.2676Z" fill="white"/>
<path d="M43.6819 43.3949L71.5103 24.4897L52.3183 52.1203L24.4899 71.5102L43.6819 43.3949Z" fill="white"/>
<path d="M52.408 51.9183L43.5917 43.5918L71.51 24.4897L52.408 51.9183Z" fill="#101315"/>
</svg>
