<svg width="112" height="107" viewBox="0 0 112 107" fill="none" xmlns="http://www.w3.org/2000/svg">
<path d="M51.8208 4.61899C53.6673 3.09784 56.3327 3.09784 58.1792 4.61899L62.3985 8.09493C63.6568 9.13146 65.3413 9.48952 66.9124 9.05437L72.1808 7.59512C74.4863 6.95653 76.9212 8.04061 77.9894 10.1813L80.4302 15.0729C81.158 16.5316 82.5513 17.5438 84.1635 17.7853L89.57 18.5951C91.936 18.9495 93.7194 20.9302 93.8245 23.3202L94.0647 28.7817C94.1363 30.4103 94.9974 31.9018 96.372 32.7781L100.982 35.7169C102.999 37.0029 103.823 39.5378 102.947 41.764L100.945 46.851C100.348 48.3679 100.528 50.0807 101.427 51.4404L104.443 56C105.763 57.9954 105.484 60.6461 103.778 62.3235L99.8802 66.1564C98.7179 67.2994 98.1857 68.9373 98.4542 70.5452L99.3548 75.9373C99.7489 78.297 98.4162 80.6052 96.1756 81.4437L91.0557 83.3599C89.5289 83.9313 88.3766 85.2111 87.9679 86.7892L86.5974 92.0814C85.9977 94.3974 83.8414 95.964 81.4534 95.8187L75.9968 95.4867C74.3696 95.3877 72.7963 96.0882 71.7811 97.3637L68.3766 101.641C66.8867 103.513 64.2796 104.067 62.1572 102.963L57.3073 100.44C55.8611 99.6879 54.1389 99.6879 52.6927 100.44L47.8428 102.963C45.7204 104.067 43.1133 103.513 41.6234 101.641L38.2189 97.3637C37.2037 96.0882 35.6304 95.3877 34.0032 95.4867L28.5466 95.8187C26.1586 95.964 24.0023 94.3974 23.4026 92.0814L22.0321 86.7892C21.6234 85.2111 20.4711 83.9313 18.9443 83.3599L13.8244 81.4437C11.5838 80.6052 10.2511 78.297 10.6452 75.9373L11.5458 70.5452C11.8143 68.9373 11.2821 67.2994 10.1198 66.1564L6.22182 62.3235C4.51599 60.6461 4.23739 57.9954 5.55719 56L8.57304 51.4404C9.47237 50.0807 9.65239 48.3679 9.0554 46.851L7.05346 41.764C6.17736 39.5378 7.00099 37.0029 9.01828 35.7169L13.628 32.7781C15.0026 31.9018 15.8637 30.4103 15.9353 28.7817L16.1755 23.3202C16.2806 20.9302 18.064 18.9495 20.43 18.5951L25.8365 17.7853C27.4487 17.5438 28.842 16.5316 29.5698 15.0729L32.0106 10.1813C33.0788 8.04061 35.5137 6.95653 37.8192 7.59512L43.0876 9.05437C44.6587 9.48952 46.3432 9.13146 47.6014 8.09493L51.8208 4.61899Z" fill="#3E92F4"/>
<circle cx="55" cy="54" r="37" stroke="white" stroke-width="2"/>
<path d="M55 38.124C58.12 38.124 60.4947 39.0253 62.124 40.828C63.788 42.596 64.62 45.248 64.62 48.784V59.964C64.62 63.5 63.788 66.1693 62.124 67.972C60.4947 69.74 58.12 70.624 55 70.624C51.88 70.624 49.488 69.74 47.824 67.972C46.1947 66.1693 45.38 63.5 45.38 59.964V48.784C45.38 45.248 46.1947 42.596 47.824 40.828C49.488 39.0253 51.88 38.124 55 38.124ZM55 41.868C51.5333 41.868 49.8 44.0347 49.8 48.368V60.38C49.8 64.7133 51.5333 66.88 55 66.88C58.4667 66.88 60.2 64.7133 60.2 60.38V48.368C60.2 44.0347 58.4667 41.868 55 41.868Z" fill="black"/>
</svg>
