<?xml version="1.0" encoding="UTF-8"?>
<svg width="350px" height="491px" viewBox="0 0 350 491" version="1.1" xmlns="http://www.w3.org/2000/svg" xmlns:xlink="http://www.w3.org/1999/xlink">
    <!-- Generator: Sketch 53 (72520) - https://sketchapp.com -->
    <title>eyes-1</title>
    <desc>Created with Sketch.</desc>
    <g id="eyes-1" stroke="none" stroke-width="1" fill="none" fill-rule="evenodd">
        <g id="Group-26" transform="translate(94.000000, 165.000000)">
            <path d="M33.2848024,4.47596864 C34.9513823,6.02725029 33.5823323,7.79849725 30.4533698,9.74461415 C27.3244074,11.690731 14.6750044,15.9778001 3.5978173,9.74461415 C-7.47936977,3.51142822 9.74642444,-7.38964445e-13 18.598846,0 C27.4512675,7.38964445e-13 31.6182225,2.924687 33.2848024,4.47596864 Z" id="Path-89" fill="#FCF6ED"></path>
            <path d="M10.1871303,0.893267046 C13.240877,0.304284434 16.4691204,-2.23722618e-13 19.0095697,0 C22.7471387,3.29145995e-13 25.6516631,0.548570818 27.8867391,1.30623001 C27.9612765,1.78421343 28,2.27445091 28,2.7739599 C28,7.86936115 23.9705627,12 19,12 C14.0294373,12 10,7.86936115 10,2.7739599 C10,2.1294936 10.0644597,1.50046078 10.1871303,0.893267046 Z" id="Combined-Shape" fill="#49515E"></path>
            <g id="Group-25" transform="translate(91.000000, 2.000000)">
                <path d="M38.1796263,6.20829219 C40.0912914,7.99027725 38.5209106,10.0249404 34.9318066,12.2604798 C31.3427026,14.4960192 16.8330932,19.4206524 4.12690808,12.2604798 C-8.57927709,5.10030728 11.1797222,1.06666667 21.3339704,1.06666667 C31.4882186,1.06666667 36.2679611,4.42630712 38.1796263,6.20829219 Z" id="Path-89-Copy" fill="#FCF6ED"></path>
                <path d="M11.7630862,1.9436565 C15.0995832,1.36508107 18.5720633,1.06666667 21.3339704,1.06666667 C25.6399395,1.06666667 28.9794466,1.67080873 31.5436198,2.50259841 C31.5950999,2.89701655 31.6216216,3.29887227 31.6216216,3.70666667 C31.6216216,9.00860026 27.1384189,13.3066667 21.6081081,13.3066667 C16.0777973,13.3066667 11.5945946,9.00860026 11.5945946,3.70666667 C11.5945946,3.10443547 11.652437,2.5151562 11.7630862,1.9436565 Z" id="Combined-Shape" fill="#49515E"></path>
                <path d="M38.1817625,5.29971545 C39.1963534,6.27710499 39.2275558,7.32824127 38.4952781,8.44507917 C37.8514105,9.42707784 38.4375159,1.89017054 19.5507768,1.89017054 C5.102626,1.89017054 0.36541915,8.54698003 0.101553576,7.6962448 C-1.32241458,3.10519542 12.5528553,-7.62592416e-13 21.3799716,0 C31.5077788,8.74961734e-13 36.2750752,3.46293956 38.1817625,5.29971545 Z" id="Path-89-Copy-2" fill="#49515E"></path>
            </g>
            <path d="M33.2866647,4.34742283 C34.1711799,5.14918769 34.1983819,6.01144792 33.559986,6.92760401 C32.9986656,7.73314979 33.5096293,1.55053052 17.0442669,1.55053052 C4.44844318,1.55053052 0.318570541,7.01119456 0.0885338865,6.31332581 C-1.15287425,2.54723061 10.9435149,-6.25564091e-13 18.6389496,0 C27.46832,7.17742047e-13 31.6244245,2.84069261 33.2866647,4.34742283 Z" id="Path-89" fill="#49515E"></path>
        </g>
    </g>
</svg>