<?xml version="1.0" encoding="UTF-8"?>
<svg width="350px" height="491px" viewBox="0 0 350 491" version="1.1" xmlns="http://www.w3.org/2000/svg" xmlns:xlink="http://www.w3.org/1999/xlink">
    <!-- Generator: Sketch 53 (72520) - https://sketchapp.com -->
    <title>eyes-2</title>
    <desc>Created with Sketch.</desc>
    <g id="eyes-2" stroke="none" stroke-width="1" fill="none" fill-rule="evenodd">
        <g id="Group-26" transform="translate(94.000000, 165.000000)">
            <path d="M33.2848024,4.47596864 C34.9513823,6.02725029 33.5823323,7.79849725 30.4533698,9.74461415 C27.3244074,11.690731 14.6750044,15.9778001 3.5978173,9.74461415 C-7.47936977,3.51142822 9.74642444,-7.38964445e-13 18.598846,0 C27.4512675,7.38964445e-13 31.6182225,2.924687 33.2848024,4.47596864 Z" id="Path-89" fill="#FCF6ED"></path>
            <path d="M24.410995,13.0637528 C19.579122,14.0886083 13.2391288,14.2688216 7.14889972,11.4542152 C7.05110355,10.9093803 7,10.3477879 7,9.7739599 C7,4.67855865 11.0294373,0.547919795 16,0.547919795 C20.9705627,0.547919795 25,4.67855865 25,9.7739599 C25,10.9328823 24.7915527,12.0418965 24.410995,13.0637528 Z" id="Combined-Shape" fill="#49515E"></path>
            <g id="Group-25" transform="translate(91.000000, 2.000000)">
                <path d="M38.1796263,6.20829219 C40.0912914,7.99027725 38.5209106,10.0249404 34.9318066,12.2604798 C31.3427026,14.4960192 16.8330932,19.4206524 4.12690808,12.2604798 C-8.57927709,5.10030728 11.1797222,1.06666667 21.3339704,1.06666667 C31.4882186,1.06666667 36.2679611,4.42630712 38.1796263,6.20829219 Z" id="Path-89-Copy" fill="#FCF6ED"></path>
                <path d="M26.4367502,15.2405106 C21.333004,16.2776 14.7440063,16.5369071 8.26466066,14.166571 C7.83189813,13.0931503 7.59459459,11.9264767 7.59459459,10.7066667 C7.59459459,6.35539163 10.6142187,2.68026304 14.7540868,1.50222496 C16.0669771,1.34106412 17.3619995,1.22396468 18.5878527,1.15203282 C23.6583564,1.62407637 27.6216216,5.72164946 27.6216216,10.7066667 C27.6216216,12.3464589 27.1927795,13.8902259 26.4367502,15.2405106 Z" id="Combined-Shape" fill="#49515E"></path>
                <path d="M38.1817625,5.29971545 C39.1963534,6.27710499 39.2275558,7.32824127 38.4952781,8.44507917 C37.8514105,9.42707784 38.4375159,1.89017054 19.5507768,1.89017054 C5.102626,1.89017054 0.36541915,8.54698003 0.101553576,7.6962448 C-1.32241458,3.10519542 12.5528553,-7.62592416e-13 21.3799716,0 C31.5077788,8.74961734e-13 36.2750752,3.46293956 38.1817625,5.29971545 Z" id="Path-89-Copy-2" fill="#49515E"></path>
            </g>
            <path d="M33.2866647,4.34742283 C34.1711799,5.14918769 34.1983819,6.01144792 33.559986,6.92760401 C32.9986656,7.73314979 33.5096293,1.55053052 17.0442669,1.55053052 C4.44844318,1.55053052 0.318570541,7.01119456 0.0885338865,6.31332581 C-1.15287425,2.54723061 10.9435149,-6.25564091e-13 18.6389496,0 C27.46832,7.17742047e-13 31.6244245,2.84069261 33.2866647,4.34742283 Z" id="Path-89" fill="#49515E"></path>
        </g>
    </g>
</svg>