<svg width="744" height="421" viewBox="0 0 744 421" fill="none" xmlns="http://www.w3.org/2000/svg">
<path d="M443.7 7.3C516.8 32.4 572.6 62.2 611 96.6C649.4 131 693.8 239.1 744 421H0C44.9 270 78.7 177.3 101.3 142.9C123.9 108.5 181.5 60.9 273.9 0L443.7 7.3Z" fill="#FA8F59"/>
<path d="M337.3 178.8L336.9 178.3C320.7 159.1 305.3 136.7 291.3 111.6C277.2 86.4999 265.2 53.2999 255.5 13.0999L256.5 12.8999C266.2 52.9999 278.2 86.0999 292.2 111.1C306.1 136 321.3 158.2 337.3 177.2C371.1 132.8 396.5 99.0999 412.8 76.8999C429.2 54.5999 447.3 34.9999 466.7 18.6999L467.3 19.4999C448 35.6999 429.9 55.2999 413.6 77.4999C397.2 99.7999 371.7 133.7 337.7 178.3L337.3 178.8Z" fill="#E67B44"/>
<path d="M554.986 248.827L553.025 249.216L576.034 365.257L577.996 364.868L554.986 248.827Z" fill="#E67B44"/>
<path d="M163.023 234.777L133.061 364.775L135.01 365.225L164.972 235.226L163.023 234.777Z" fill="#E67B44"/>
</svg>
