<svg id="Layer_1" data-name="Layer 1" xmlns="http://www.w3.org/2000/svg" viewBox="0 0 350 490.65"><defs><style>.cls-1{fill:#49515e;}.cls-2{fill:#ffddad;}.cls-3{fill:#f8c37c;}.cls-4{fill:#fa8f59;}.cls-5{fill:#6eb6e7;}.cls-6{fill:#f47c30;}</style></defs><title>talk-5</title><g id="talk-5"><g id="Group-26"><g id="Path-97"><path class="cls-1" d="M130.94,361.82q-49.56,1.49-80.66-9.52T0,327.92q32.1-69.26,39-114.1C45.86,169,60.8,115,69,94.17s83.33,40.49,92.33,95.9Q170.33,245.48,130.94,361.82Z" transform="translate(0 -0.35)"/></g><g id="Path-86"><path class="cls-2" d="M126.08,365.8l10.07-52.12q-25-2.42-41.29-55.28T89.23,132.82L216.41,42,292,152.56V356.32q-34.59,41.83-54.56,64.79T185.24,491q-29.09-46.62-42.4-72.65A160.2,160.2,0,0,1,126.08,365.8Z" transform="translate(0 -0.35)"/></g><g id="Path-87"><path class="cls-3" d="M150.59,168.93c1.36-9,9.56-9.45,12.77,0s0,34.32,4.72,42,8.18,15.1,0,17.59S151.6,234,146.31,234s-10.4-1.62-7.44-12.4c1.57-5.73,5.4-13.72,7.44-23.68C148.87,185.45,148.87,180.39,150.59,168.93Z" transform="translate(0 -0.35)"/></g><g id="Path-88"><path class="cls-4" d="M134.91,256.6c5.06-1.44,8.27-4.67,11.24-5.77s5.9,2.4,9,2.46,4-4.71,7.49-4.65,6.28,2.52,9.81,4.76,6.73,2.55,8.9,1.49,5.88,1.06,1.85,4.09-6.22,7.52-12.53,13-21.5,5.44-27.65,0S129.85,258,134.91,256.6Z" transform="translate(0 -0.35)"/></g><g id="Path-94"><path class="cls-1" d="M132.59,153c5.88,0,8.45-9.32,7-10.75s-18.87-6.25-28-6.25q-9.11,0-24.63,6.25l-1,8.18q19.46-5.22,25.63-5.22C117.8,145.2,126.7,153,132.59,153Z" transform="translate(0 -0.35)"/></g><g id="Path-95"><path class="cls-1" d="M180.53,154.12q-5.33,2.46-6.8-3a17.88,17.88,0,0,1,0-10.13q23.23-2,28-2c4.74,0,15.79-.22,22.14,6q6.35,6.19,13.16,12-12.11-8.92-22.39-7.39T180.53,154.12Z" transform="translate(0 -0.35)"/></g><g id="Path-90"><path class="cls-5" d="M114.57,203a31.78,31.78,0,0,1-17.66-5.5c-8.14-5.41-13.63-13.92-14.69-22.75-1-8.08,1.19-15.56,6.07-21.07,5.62-6.33,14.21-9.68,24.85-9.68,9.81,0,18.18,2.9,24.19,8.39A26.06,26.06,0,0,1,146,171.82c0,14.06-3.92,24.55-23.07,30A30.44,30.44,0,0,1,114.57,203Zm-1.42-53c-8.87,0-15.91,2.65-20.36,7.66-3.78,4.26-5.37,9.93-4.6,16.37.84,7,5.46,14.09,12.05,18.47a25.12,25.12,0,0,0,21,3.55c15.82-4.51,18.71-11.7,18.71-24.24C140,161.31,131.6,150,113.15,150Z" transform="translate(0 -0.35)"/></g><g id="Path-91"><path class="cls-5" d="M206.18,206c-12,0-22.15-5.42-28.25-15.4h0c-8.09-13.22-6-27.94,5.36-37.51,11.11-9.37,34.78-13,48.11,2.3,5.88,6.77,7.22,16.86,3.66,27.7-3.65,11.12-11.61,20.09-19.34,21.82A43.71,43.71,0,0,1,206.18,206ZM183,187.48c3,4.92,12.09,15.89,31.36,11.58,5.59-1.25,12-8.92,14.95-17.83s2-16.76-2.48-21.89c-10.76-12.38-30.71-9.25-39.71-1.65s-10.66,19.08-4.11,29.79Z" transform="translate(0 -0.35)"/></g><g id="Path-92"><path class="cls-5" d="M174.19,174.39c-5.6-4.24-11-6.39-16.16-6.39A19,19,0,0,0,145,172.77l-4-4.52A25.08,25.08,0,0,1,158,162c6.46,0,13.12,2.56,19.78,7.61Z" transform="translate(0 -0.35)"/></g><g id="Path-93"><rect class="cls-5" x="251" y="158.14" width="6" height="42.72" transform="translate(-3.26 353.95) rotate(-69.44)"/></g><g id="Path-96"><path class="cls-3" d="M135.84,314A173.88,173.88,0,0,0,163,316.32,233.48,233.48,0,0,0,193,314q-24,7.29-41.22,19.33T128,356Z" transform="translate(0 -0.35)"/></g><g id="Path-98"><path class="cls-1" d="M185.46,355.3a269.24,269.24,0,0,0,84.74,20Q313.11,378.2,350,378q-1.57-109.87-11-175.78C329.47,136.29,307.33,65.53,287.53,39q-19.8-26.5-53.27-21.71Q185-4.62,155.59,1.81c-29.41,6.43-60.77,18.25-79.07,70.1Q58.21,123.75,56,136.29H85.48q49.47-5.11,70.11-10c20.65-4.89,35.92-8.06,49.34-26.34q13.42-18.28,19.47-36.73-10.1,65.28,9.86,83.61t35.94,31.64q-16,66.85-35.94,104.28A442.75,442.75,0,0,1,185.46,355.3Z" transform="translate(0 -0.35)"/></g><g id="Path"><path class="cls-6" d="M171.62,259.1q-4.87,6.79-13.86,7.42t-14-5.37A66.41,66.41,0,0,1,155.37,259Q159.94,258.69,171.62,259.1Z" transform="translate(0 -0.35)"/></g></g></g></svg>