<svg width="1445" height="596" viewBox="0 0 1445 596" fill="none" xmlns="http://www.w3.org/2000/svg">
<path d="M919.33 211.636H790C788.896 211.636 788 212.532 788 213.636V230.137H743.34V242.5L613.943 242.075V259.228H497.957C496.853 259.228 495.957 258.333 495.957 257.228V186.551C495.957 185.446 495.062 184.551 493.957 184.551H471.834C470.729 184.551 469.834 183.655 469.834 182.551V169.021C469.834 167.917 470.729 167.021 471.834 167.021H478.961C480.065 167.021 480.961 166.126 480.961 165.021V152.38C480.961 151.842 480.749 151.354 480.403 150.995C480.04 150.616 479.528 150.38 478.961 150.38H400.777C399.673 150.38 398.777 151.275 398.777 152.38V165.021C398.777 166.126 399.673 167.021 400.777 167.021H407.25C408.354 167.021 409.25 167.917 409.25 169.021V182.551C409.25 183.243 408.898 183.852 408.364 184.211C408.046 184.426 407.663 184.551 407.25 184.551H382.766C381.661 184.551 380.766 185.446 380.766 186.551V229.463C380.766 230.567 379.87 231.463 378.766 231.463H348.643C347.538 231.463 346.643 230.567 346.643 229.463V131.23C346.643 130.126 345.747 129.23 344.643 129.23H342.57C341.466 129.23 340.57 130.126 340.57 131.23V229.463C340.57 230.567 339.675 231.463 338.57 231.463H328.312C327.208 231.463 326.312 230.567 326.312 229.463V131.23C326.312 130.126 325.417 129.23 324.312 129.23H322.535C321.431 129.23 320.535 130.126 320.535 131.23V229.463C320.535 230.567 319.64 231.463 318.535 231.463H305.975C304.87 231.463 303.975 230.567 303.975 229.463V131.23C303.975 130.126 303.079 129.23 301.975 129.23H299.682C298.577 129.23 297.682 130.126 297.682 131.23V229.463C297.682 230.567 296.786 231.463 295.682 231.463H284.044C282.939 231.463 282.044 230.567 282.044 229.463V131.23C282.044 130.63 281.78 130.092 281.361 129.725C281.009 129.417 280.549 129.23 280.044 129.23H277.002C276.443 129.23 275.938 129.46 275.574 129.83C275.22 130.19 275.002 130.685 275.002 131.23V229.463C275.002 230.567 274.106 231.463 273.002 231.463H167.891C167.309 231.463 166.784 231.214 166.419 230.817C166.091 230.46 165.891 229.985 165.891 229.463V126.115C165.891 125.011 166.786 124.115 167.891 124.115H177.582C178.687 124.115 179.582 123.22 179.582 122.115V94.412C179.582 93.3075 178.687 92.412 177.582 92.412H168.748C168.515 92.412 168.283 92.371 168.063 92.2909C167.025 91.913 166.491 90.7651 166.869 89.7275L178.604 57.5224C178.684 57.3031 178.725 57.0712 178.725 56.8378C178.725 55.7333 177.829 54.8378 176.725 54.8378H158.301C157.196 54.8378 156.301 53.9423 156.301 52.8378V47.8573C156.301 46.7529 157.196 45.8573 158.301 45.8573H163.891C164.995 45.8573 165.891 44.9618 165.891 43.8573V43.5312C165.891 42.4267 164.995 41.5312 163.891 41.5312H85C83.8955 41.5312 83 42.4267 83 43.5312V43.8573C83 44.6435 83.4541 45.3237 84.1133 45.6503C84.3809 45.7826 84.6816 45.8573 85 45.8573H90.5C91.6045 45.8573 92.5 46.7529 92.5 47.8573V52.8378C92.5 53.9423 91.6045 54.8378 90.5 54.8378H72.8086C72.5859 54.8378 72.3643 54.8749 72.1543 54.9477C71.1104 55.309 70.5566 56.4477 70.918 57.4916L82.082 89.7582C82.1543 89.9687 82.1914 90.1894 82.1914 90.412C82.1914 91.5165 81.2959 92.412 80.1914 92.412H72C70.8955 92.412 70 93.3075 70 94.412V122.115C70 123.22 70.8955 124.115 72 124.115H81C82.1045 124.115 83 125.011 83 126.115V229.463C83 230.567 82.1045 231.463 81 231.463H43C41.8955 231.463 41 232.358 41 233.463V257.228C41 258.042 40.5146 258.742 39.8164 259.055C39.5674 259.166 39.291 259.228 39 259.228H2C1.30176 259.228 0.686523 259.587 0.329102 260.129C0.121094 260.445 0 260.823 0 261.228V595.146H613.943V595.636L1445 594.636V216.171H1418C1416.9 216.171 1416 215.275 1416 214.171V147.378C1416 146.273 1415.1 145.378 1414 145.378H1391.3C1390.19 145.378 1389.3 144.482 1389.3 143.378V134.262C1389.3 133.157 1390.19 132.262 1391.3 132.262H1406.28C1407.39 132.262 1408.28 131.367 1408.28 130.262V115.151C1408.28 114.047 1407.39 113.151 1406.28 113.151H1390.29C1389.67 113.151 1389.08 112.86 1388.7 112.364L1363.37 79.1415C1363.24 78.9687 1363.08 78.8183 1362.9 78.6962C1361.99 78.0785 1360.74 78.3197 1360.13 79.2353L1337.83 112.27C1337.46 112.821 1336.84 113.151 1336.17 113.151H1320.73C1319.63 113.151 1318.73 114.047 1318.73 115.151V130.169C1318.73 131.274 1319.63 132.169 1320.73 132.169H1335.23C1336.34 132.169 1337.23 133.065 1337.23 134.169V143.368L1337.23 143.378C1337.23 144.482 1336.33 145.373 1335.22 145.368L1311.89 145.259H1311.88C1310.78 145.259 1309.88 146.154 1309.88 147.259V213.137C1309.88 214.242 1308.99 215.137 1307.88 215.137H1266.41C1265.31 215.137 1264.41 216.032 1264.41 217.137V240.092C1264.41 241.19 1263.53 242.082 1262.43 242.092L1218.41 242.482C1217.31 242.492 1216.42 243.385 1216.42 244.482V282.378C1216.42 283.482 1215.53 284.378 1214.42 284.378H1132C1130.89 284.378 1130 283.482 1130 282.378V264.605C1130 263.5 1129.1 262.605 1128 262.605H1103.84C1102.74 262.605 1101.84 261.71 1101.84 260.605V184.705L1101.84 184.638C1101.81 183.534 1100.88 182.669 1099.78 182.706L1085.45 183.187L1085.38 183.188C1084.28 183.188 1083.38 182.292 1083.38 181.188V162.427C1083.38 161.322 1082.49 160.427 1081.38 160.427H1072.59C1071.48 160.427 1070.59 159.532 1070.59 158.427V115.151C1070.59 114.047 1069.69 113.151 1068.59 113.151H1049.07C1048.02 113.151 1047.15 112.339 1047.08 111.291L1039.42 1.86028C1039.38 1.23967 1039.05 0.699144 1038.58 0.363206C1038.28 0.15178 1037.91 0.0214092 1037.52 0.00236622C1036.42 -0.0508564 1035.48 0.800218 1035.43 1.90325L1030.14 111.248C1030.09 112.314 1029.21 113.151 1028.14 113.151H1008.23C1007.12 113.151 1006.23 114.047 1006.23 115.151V158.427C1006.23 159.532 1005.33 160.427 1004.23 160.427H996.451C995.347 160.427 994.451 161.322 994.451 162.427V180.256C994.451 181.36 993.556 182.256 992.451 182.256H976.797C975.692 182.256 974.797 183.151 974.797 184.256V260.605C974.797 261.71 973.901 262.605 972.797 262.605H945.987C944.882 262.605 943.987 261.71 943.987 260.605V232.137C943.987 231.032 943.091 230.137 941.987 230.137H923.33C922.225 230.137 921.33 229.242 921.33 228.137V213.636C921.33 212.923 920.956 212.296 920.394 211.942C920.085 211.748 919.721 211.636 919.33 211.636Z" fill="#F0E0CC"/>
</svg>
