<svg width="476" height="865" viewBox="0 0 476 865" fill="none" xmlns="http://www.w3.org/2000/svg">
<!-- <path d="M238 864.989C369.444 864.989 476 850.094 476 831.72C476 813.347 369.444 798.452 238 798.452C106.556 798.452 0 813.347 0 831.72C0 850.094 106.556 864.989 238 864.989Z" fill="#F4E6D4"/> -->
<path fill-rule="evenodd" clip-rule="evenodd" d="M173.198 340.366C175.268 358.963 170.179 392.259 157.933 440.253C139.565 512.243 141.646 666.426 141.646 693.408C141.646 720.39 147.085 792.352 126.97 798.923C106.856 805.494 84.8624 803.142 74.3519 811.534C67.3449 817.129 67.3449 823.005 74.3519 829.161H171.471C174.016 829.161 176.175 827.291 176.537 824.771L211.039 584.764L251.208 788.002C236.477 798.09 221.427 804.534 206.06 807.334C190.692 810.134 186.87 817.41 194.595 829.161H283.476C286.303 829.161 288.594 826.87 288.594 824.043C288.594 779.144 288.594 734.245 288.594 689.346C288.594 649.184 292.202 567.35 299.419 443.844V361.869L173.198 340.366Z" fill="#616A7F"/>
<path fill-rule="evenodd" clip-rule="evenodd" d="M194.834 133.075V105.38C194.834 101.14 191.397 97.703 187.157 97.703H183.148C176.694 97.703 171.462 92.4709 171.462 86.0169V53.742C171.462 45.2618 178.337 38.3872 186.817 38.3872H239.999L249.358 63.3232C244.24 76.1494 241.68 87.6093 241.68 97.703C241.68 107.797 243.013 119.587 245.677 133.075H194.834Z" fill="#F8C37C"/>
<path fill-rule="evenodd" clip-rule="evenodd" d="M181.778 43.7431C163.09 37.8387 148.43 37.3488 148.43 17.4895C148.43 -2.36974 165.066 -5.24516 181.778 8.49946C198.489 22.2441 210.077 12.2433 228.104 17.4814C246.13 22.7195 253.354 44.708 253.354 61.5233C253.354 72.7335 251.649 86.3476 248.237 102.366C239.258 99.6592 234.769 94.265 234.769 86.1831C234.769 74.0603 241.434 72.1612 234.769 66.2658C228.104 60.3704 221.733 72.3836 211.385 66.2658C201.037 60.148 225.953 56.2356 218.285 43.7431C210.617 31.2507 200.465 49.6476 181.778 43.7431Z" fill="#49515E"/>
<path fill-rule="evenodd" clip-rule="evenodd" d="M193.462 132.464L183.539 115.161H242.746L252.971 132.464L262.362 134.812L271.269 355.72L176.581 339.864V132.464H193.462Z" fill="#FCF6ED"/>
<path fill-rule="evenodd" clip-rule="evenodd" d="M212.711 112.602L226.909 130.049L221.778 140.079C230.886 156.501 235.441 181.672 235.441 215.59C235.441 266.467 235.441 349.818 235.441 356.463C235.441 360.893 232.597 367.47 226.909 376.193C217.444 369.015 212.711 360.567 212.711 350.85C212.711 336.274 212.711 223.918 212.711 205.401C212.711 193.057 212.711 171.283 212.711 140.079L207.29 130.049L212.711 112.602Z" fill="#808CAB"/>
<path fill-rule="evenodd" clip-rule="evenodd" d="M122.29 435.054C121.923 441.943 120.049 448.995 116.67 456.211C111.601 467.034 120.13 473.441 129.981 473.441C139.833 473.441 149.375 467.53 144.604 456.211C141.423 448.665 139.288 441.613 138.197 435.054H122.29Z" fill="#F8C37C"/>
<path fill-rule="evenodd" clip-rule="evenodd" d="M260.035 386.205C260.905 409.129 269.744 423.805 286.552 430.233C303.36 436.661 326.416 436.661 355.721 430.233V333.595L314.38 155.878C302.016 147.146 293.302 141.362 288.238 138.525C282.912 138.169 277.473 137.205 271.921 135.634L250.796 208.728L260.035 386.205Z" fill="#808CAB"/>
<path fill-rule="evenodd" clip-rule="evenodd" d="M278.947 508.053H325.332V483.677C325.332 478.024 329.915 473.441 335.568 473.441H378.186C383.84 473.441 388.423 478.024 388.423 483.677V508.053H432.495C438.148 508.053 442.731 512.636 442.731 518.289V629.548C442.731 635.202 438.148 639.785 432.495 639.785H278.947C273.293 639.785 268.71 635.202 268.71 629.548V518.289C268.71 512.636 273.293 508.053 278.947 508.053ZM336.334 483.845V508.318H377.362V483.845H336.334Z" fill="#49515E"/>
<path fill-rule="evenodd" clip-rule="evenodd" d="M343.821 450.409C341.495 463.597 343.697 474.805 350.424 484.033C357.152 493.262 363.182 496.026 368.516 492.325V458.176" fill="#F8C37C"/>
<path fill-rule="evenodd" clip-rule="evenodd" d="M166.435 325.652C162.723 344.263 158.208 365.729 152.889 390.051C147.57 414.373 144.911 431.017 144.911 439.984C130.095 440.94 120.665 438.247 116.621 431.903C110.556 422.388 125.348 360.514 125.348 285.791C125.348 211.068 124.139 200.646 129.086 174.904C132.384 157.742 140.318 145.506 152.889 138.193L171.462 182.722L166.435 325.652Z" fill="#808CAB"/>
<path fill-rule="evenodd" clip-rule="evenodd" d="M186.817 133.677C178.178 181.563 173.859 221.922 173.859 254.753C173.859 287.584 174.771 328.064 176.596 376.193C160.211 350.936 149.643 320.73 144.891 285.577C140.14 250.424 146.107 227.553 162.793 216.965C155.181 205.562 150.126 192.922 147.629 179.043C145.132 165.165 145.132 153.09 147.629 142.818C153.722 138.083 160.41 135.15 167.692 134.019C174.975 132.887 181.35 132.773 186.817 133.677Z" fill="#616A7F"/>
<path fill-rule="evenodd" clip-rule="evenodd" d="M249.232 130.516C245.156 153.597 243.118 175.983 243.118 197.673C243.118 219.363 248.376 283.989 258.893 391.548C276.012 341.095 284.572 299.448 284.572 266.607C284.572 233.766 276.012 214.188 258.893 207.873C277.38 192.387 286.624 177.588 286.624 163.476C286.624 149.364 286.624 140.177 286.624 135.916C282.626 134.65 277.176 133.493 270.272 132.446C263.368 131.398 256.354 130.755 249.232 130.516Z" fill="#616A7F"/>
<path fill-rule="evenodd" clip-rule="evenodd" d="M286.624 138.193C319.14 147.809 340.213 172.074 349.843 210.988C359.474 249.902 365.698 333.974 368.516 463.204L335.502 452.435C336.825 350.664 329.088 280.273 312.291 241.261C295.494 202.249 286.938 167.893 286.624 138.193Z" fill="#808CAB"/>
</svg>
