<?xml version="1.0" encoding="UTF-8"?>
<svg width="275px" height="425px" viewBox="0 0 275 425" version="1.1" xmlns="http://www.w3.org/2000/svg" xmlns:xlink="http://www.w3.org/1999/xlink">
    <!-- Generator: Sketch 53 (72520) - https://sketchapp.com -->
    <title>talk-3</title>
    <desc>Created with Sketch.</desc>
    <g id="talk-3" stroke="none" stroke-width="1" fill="none" fill-rule="evenodd">
        <path d="M101,344 L173,344 L173,396 C173,412.016258 160.016258,425 144,425 L130,425 C113.983742,425 101,412.016258 101,396 L101,344 Z" id="Rectangle" fill="#692F1D"></path>
        <g id="Group-3" transform="translate(-7.000000, 64.000000)">
            <path d="M31.5,151 L254.5,151 C265.821837,151 275,160.178163 275,171.5 L275,177.5 C275,188.821837 265.821837,198 254.5,198 L31.5,198 C20.1781626,198 11,188.821837 11,177.5 L11,171.5 C11,160.178163 20.1781626,151 31.5,151 Z" id="Rectangle" fill="#692F1D"></path>
            <path d="M43.9404193,156 C11.4451906,144.513039 -2.96092523,124.350076 0.722071717,95.5111113 C6.24656714,52.2526645 43.7710107,59.0323103 62.0675711,64.1795618 C74.2652781,67.6110629 129.375736,67.6110629 227.398945,64.1795618 C257.75787,52.2341409 276.632172,60.9506629 284.021851,90.3291279 C291.41153,119.707593 278.09725,141.597884 244.079013,156 L43.9404193,156 Z" id="Path-337" fill="#FFFAF2"></path>
            <path d="M91,0 L205,-7.10542736e-15 C234.271092,-1.24824397e-14 258,23.7289083 258,53 L258,213 C258,268.228475 213.228475,313 158,313 L138,313 C82.771525,313 38,268.228475 38,213 L38,53 C38,23.7289083 61.7289083,-1.72841504e-15 91,-7.10542736e-15 Z" id="Rectangle" fill="#7E3F2E"></path>
            <circle id="Oval" fill="#FFFAF2" cx="93.5" cy="138.5" r="17.5"></circle>
            <circle id="Oval" fill="#FFFAF2" cx="215.5" cy="138.5" r="17.5"></circle>
            <rect id="Rectangle" fill="#FFFAF2" x="69" y="93" width="45" height="12" rx="5"></rect>
            <rect id="Rectangle-Copy-15" fill="#FFFAF2" x="194" y="93" width="45" height="12" rx="5"></rect>
            <path d="M96.4272953,213 L220,213 C217.964739,199.781028 212.896901,190.454821 204.796486,185.021379 C192.645865,176.871216 165.308094,187.791252 158.213648,187.791252 C151.119201,187.791252 120.710481,175.903321 107.258571,186.649404 C98.2906314,193.81346 94.680206,202.596992 96.4272953,213 Z" id="Path-339" fill="#FFFAF2"></path>
            <path d="M172.621163,189 L144.382236,189 C142.173097,189 140.382236,187.209139 140.382236,185 C140.382236,184.878461 140.387775,184.756986 140.398837,184.635951 L143.866384,146.694234 C144.068682,138.231411 148.946554,134 158.5,134 C168.053446,134 172.942305,138.231411 173.166575,146.694234 L176.604842,184.639029 C176.804201,186.839155 175.182259,188.784321 172.982134,188.983679 C172.862117,188.994554 172.741671,189 172.621163,189 Z" id="Path-338" fill="#692F1D"></path>
            <path d="M131,228.413793 C139.890706,224.137931 148.419352,222 156.585938,222 C164.752523,222 172.890544,224.137931 181,228.413793 C179.699054,244.804598 171.399066,253 156.100036,253 C140.801006,253 132.434327,244.804598 131,228.413793 Z" id="Path-340" fill="#692F1D"></path>
        </g>
        <g id="Group-20-Copy">
            <path d="M19.2646053,92.163973 C26.2483308,124.337799 43.2586125,144.862816 70.2954503,153.739024 C110.850707,167.053337 201.128751,171.478049 232.89543,151.739024 C264.662109,132 264.662109,118.334703 259.684787,92.163973 C256.366571,74.71682 176.226511,74.71682 19.2646053,92.163973 Z" id="Path-61" fill="#565D68"></path>
            <path d="M154.330721,0 C173.443574,12.8433648 193.676638,20.6528739 215.029915,23.4285274 C233,25.7644091 230.627134,25.2141241 250.915837,28.524238 C271.20454,31.8343519 275,48.8311661 275,64.9548872 C275,75.7040346 268.720377,86.934611 256.161131,98.6466165 L23.2761381,98.6466165 C10.8614827,89.5424369 3.4331125,80.3329771 0.991027605,71.0182374 C-2.67209974,57.0461277 5,40.9924812 12.0167994,35.7705929 C19.0335988,30.5487046 28.644656,28.524238 37.9885063,28.524238 C42.3820357,28.524238 72.9571694,29.4046643 105.093861,19.944893 C114.045428,17.3099057 130.457715,10.661608 154.330721,0 Z" id="Path-57" fill="#F58B44"></path>
            <path d="M22.9641256,98.6466165 L256.035874,98.6466165 C254.404826,108.511278 220.71414,113.443609 154.963816,113.443609 C89.2134929,113.443609 45.2135959,108.511278 22.9641256,98.6466165 Z" id="Path-58" fill="#49515E"></path>
            <rect id="Rectangle" fill="#565D68" x="95.9237668" y="41.9924812" width="22.1973094" height="20.962406"></rect>
            <rect id="Rectangle-Copy-18" fill="#565D68" x="118.35426" y="65.4210526" width="22.1973094" height="20.962406"></rect>
            <rect id="Rectangle-Copy-16" fill="#565D68" x="142.784753" y="41.9924812" width="22.1973094" height="20.962406"></rect>
            <rect id="Rectangle-Copy-19" fill="#565D68" x="167.44843" y="65.4210526" width="22.1973094" height="20.962406"></rect>
            <rect id="Rectangle-Copy-17" fill="#565D68" x="190.878924" y="41.9924812" width="22.1973094" height="20.962406"></rect>
        </g>
        <circle id="Oval" fill="#49515E" cx="95.5" cy="202.5" r="8.5"></circle>
        <circle id="Oval" fill="#49515E" cx="217.5" cy="202.5" r="8.5"></circle>
    </g>
</svg>