<svg width="764" height="494" viewBox="0 0 764 494" fill="none" xmlns="http://www.w3.org/2000/svg">
<g clip-path="url(#clip0)">
<path fill-rule="evenodd" clip-rule="evenodd" d="M666.269 135.363L617.812 83.559L471.322 165.728C397.788 97.3246 353.425 56.9724 338.232 44.6715C315.443 26.2202 301.529 2.8856 252.081 1.99658C239.928 1.99658 97.1016 6.23353 59.6038 6.23353C22.106 6.23353 29.2663 22.9729 35.42 101.944C39.5224 154.591 51.4372 311.61 71.1645 573L353.425 559.416L308.465 158.107L459.834 286.558C466.482 292.199 476.217 292.265 482.94 286.715L666.269 135.363Z" fill="white"/>
<path fill-rule="evenodd" clip-rule="evenodd" d="M204.805 74.7061L185.427 75.0443C187.852 114.852 189.236 150.837 189.579 182.998C189.923 215.159 188.931 247.197 186.605 279.112L244.74 278.098C240.753 243.037 235.177 207.71 228.014 172.118C220.851 136.526 213.115 104.055 204.805 74.7061Z" fill="#F58B44"/>
<path d="M174.868 70.7193C173.15 59.8716 180.551 49.6851 191.399 47.967C202.246 46.2489 212.433 53.6498 214.151 64.4975L214.921 69.3579C216.639 80.2056 209.238 90.3922 198.39 92.1103C187.543 93.8284 177.356 86.4274 175.638 75.5797L174.868 70.7193Z" fill="#F58B44"/>
<path fill-rule="evenodd" clip-rule="evenodd" d="M661.269 135.363L612.781 83.5587L466.211 165.728C398.939 94.8767 357.702 53.3006 342.5 40.9997C319.696 22.5484 285.559 -7.72098 238.831 1.99621C242.77 92.9986 235.779 181.11 217.857 266.33C182.619 138.158 149.327 51.1252 117.981 5.23317C106 6.70443 40.4407 2.27272 27.0018 13.4941C6.76679 30.3902 24.5351 70.3072 27.0018 101.944C31.1069 154.591 44.7007 307.082 67.7832 559.416H358.224L312.257 161.107L454.697 286.195C461.334 292.023 471.218 292.175 478.031 286.554L661.269 135.363Z" fill="#565D68"/>
<path fill-rule="evenodd" clip-rule="evenodd" d="M666.269 135.363L617.781 83.5591L471.211 165.728C403.939 94.8771 362.702 53.301 347.5 41.0001C329.78 26.6622 308.047 7.1881 278.204 2.88574C298.735 48.962 311.752 101.702 317.257 161.107L459.697 286.195C466.334 292.023 476.218 292.175 483.031 286.554L666.269 135.363Z" fill="#49515E"/>
<path fill-rule="evenodd" clip-rule="evenodd" d="M617.023 82.7874C665.334 59.7281 697.535 46.5343 713.625 43.2059C737.761 38.2134 763 48.4723 763 75.5221C763 93.5553 756.897 105.447 744.692 111.197C752.886 92.165 751.121 80.2733 739.397 75.5221C727.673 70.7709 714.249 84.78 699.126 117.55L674.763 116.032L660.447 129.666L617.023 82.7874Z" fill="#7E3F2E"/>
<path fill-rule="evenodd" clip-rule="evenodd" d="M54.225 6.70459C81.6488 8.13756 104.712 35.1906 123.414 87.8638C142.115 140.537 160.032 219.572 177.162 324.968L410.561 437.706L355.389 495.543C218.1 447.418 137.928 415.295 114.872 399.176C107.178 393.797 83.2603 374.238 73.8499 350.124C40.7506 265.306 0 103.997 0 67.7144C0 27.0412 18.075 6.70459 54.225 6.70459Z" fill="#49515E"/>
<path fill-rule="evenodd" clip-rule="evenodd" d="M410.851 436.797C411.991 439.229 424.196 443.206 447.466 448.727C482.371 457.009 497.954 440.445 522.538 455.367C538.928 465.315 548.883 477.374 552.405 491.543C502.856 491.543 467.876 491.543 447.466 491.543C427.056 491.543 402.541 486.122 373.923 475.281L410.851 436.797Z" fill="#7E3F2E"/>
</g>
<defs>
<clipPath id="clip0">
<rect width="764" height="494" fill="white"/>
</clipPath>
</defs>
</svg>
