<?xml version="1.0" encoding="UTF-8"?>
<svg width="176px" height="177px" viewBox="0 0 176 177" version="1.1" xmlns="http://www.w3.org/2000/svg" xmlns:xlink="http://www.w3.org/1999/xlink">
    <!-- Generator: Sketch 53 (72520) - https://sketchapp.com -->
    <title>Group Copy 5</title>
    <desc>Created with Sketch.</desc>
    <defs>
        <circle id="path-1" cx="88" cy="88.5" r="88"></circle>
        <path d="M2.33803398,0.183288319 C2.33803398,0.183288319 1.48888083,0.501046189 0.931293745,0.785241158 L0.931293745,0.785241158 C0.373706665,1.06921818 -0.351464842,1.81130704 0.32019416,2.4917186 L0.32019416,2.4917186 C0.99207338,3.1716943 2.01872068,3.73114866 4.04647022,4.00204924 L4.04647022,4.00204924 C6.07377934,4.2729498 7.63268886,3.49446481 7.95464476,3.09127409 L7.95464476,3.09127409 C8.27638043,2.68830133 8.01498397,1.93902043 7.02489253,1.06638495 L7.02489253,1.06638495 C6.29157303,0.419972165 5.18388621,0.0374858394 3.83572344,0.0377037801 L3.83572344,0.0377037801 C3.36402064,0.0377037801 2.86280887,0.0845610794 2.33803398,0.183288319" id="path-3"></path>
        <path d="M2.66016011,0.0904719015 C0.95952926,0.379235373 0.165815281,2.19196729 0.165815281,2.19196729 L0.165815281,2.19196729 C0.0521811417,2.96537029 0.732692232,3.5547552 2.66016011,3.79850231 L2.66016011,3.79850231 C4.58784361,4.04224942 5.72202877,2.86194246 5.72202877,2.86194246 L5.72202877,2.86194246 C6.51574274,2.2846351 6.06206868,1.59160277 5.49519173,1.01429542 L5.49519173,1.01429542 C5.49519173,1.01429542 4.58978423,0.0458947267 3.18326528,0.0461143187 L3.18326528,0.0461143187 C3.01594062,0.0461143187 2.84128473,0.0597290223 2.66016011,0.0904719015" id="path-5"></path>
    </defs>
    <g id="Page-1" stroke="none" stroke-width="1" fill="none" fill-rule="evenodd">
        <g id="Group-Copy-5">
            <mask id="mask-2" fill="white">
                <use xlink:href="#path-1"></use>
            </mask>
            <use id="Mask" fill="#FBF4E9" xlink:href="#path-1"></use>
            <g id="pers" mask="url(#mask-2)">
                <g transform="translate(15.500000, 14.000000)">
                    <g>
                        <g id="Group-3" transform="translate(0.000000, 0.500000)">
                            <path d="M136.902243,162.831503 C136.902243,162.831503 131.424275,120.254591 130.768283,116.455301 C130.768283,116.455301 129.249006,114.845922 125.313056,114.194615 C119.409131,113.217655 112.411886,112.349246 104.430653,110.503876 C96.4494206,108.658507 91.092155,106.704586 91.092155,106.704586 L48.7806894,104.859217 C48.7806894,104.859217 46.5940504,107.247342 35.3328592,110.395325 C35.3328592,110.395325 16.0904356,115.60578 14.6691202,116.039985 C13.2478048,116.474189 12.9198089,117.016945 12.1544853,119.079417 L0.0917312586,162.831503 L136.902243,162.831503 Z" id="Fill-2" fill="#F4E6D4" fill-rule="nonzero"></path>
                            <path d="M53.1484394,97.7984513 C53.1484394,97.7984513 55.3347694,94.4672474 59.4159918,81.2869074 C63.4969953,68.1065674 86.9637502,89.5426794 86.9637502,89.5426794 C86.9637502,89.5426794 87.5466259,96.9294226 89.004252,101.129655 C90.4618782,105.330105 86.9637502,121.117314 82.7366997,122.276163 C78.5098679,123.434796 63.4969953,123.145192 58.8328974,112.716848 C54.1687997,102.288505 53.1484394,97.7984513 53.1484394,97.7984513" id="Fill-4" fill="#FFFFFF" fill-rule="nonzero"></path>
                            <path d="M54.2853689,95.4131076 C54.2853689,95.4131076 55.2217281,94.590597 59.3113435,81.4592146 C63.4007397,68.3278322 86.9157543,89.6843209 86.9157543,89.6843209 C86.9157543,89.6843209 87.7811306,96.3756614 88.3844843,99.7888643 C88.6879137,101.505314 81.0570467,102.35553 74.6999261,98.8923276 C68.8326743,95.6960079 67.3604391,94.3209 62.1175729,89.9414638 C58.9045069,95.62393 54.2853689,95.4131076 54.2853689,95.4131076" id="Fill-6" fill="#FBF4E9" fill-rule="nonzero"></path>
                            <path d="M103.724319,24.1121038 C103.724319,24.1121038 111.367316,25.4130955 110.49383,37.9893482 C110.49383,37.9893482 109.471416,47.9636179 106.488681,55.769568 C106.488681,55.769568 105.32236,60.6361442 107.362167,67.3097978 C107.362167,67.3097978 112.091872,75.7181069 107.143796,83.307225 C102.195719,90.8963432 94.7710942,88.7590307 89.5301822,87.9847239 L103.724319,24.1121038 Z" id="Fill-8" fill="#F4E6D4" fill-rule="nonzero"></path>
                            <path d="M104.00847,29.19409 C104.00847,29.19409 105.438255,33.902773 105.817198,36.6553544 C106.196359,39.4081531 108.238316,54.9102758 108.092602,60.8505144 C107.94667,66.7905354 106.050427,72.0062272 100.070271,80.699047 C94.090115,89.3918667 91.0270709,94.0051462 82.42123,91.6261388 C73.8156078,89.246914 68.2730295,86.3493799 62.5845193,80.5540942 C56.8960089,74.759026 54.8538336,45.7839017 54.8538336,45.7839017 L104.00847,29.19409 Z" id="Fill-10" fill="#FFFFFF" fill-rule="nonzero"></path>
                            <path d="M105.520262,21.1829801 C105.520262,21.1829801 108.433592,29.2777442 100.130395,34.0479154 C91.423619,39.0500907 84.2524974,40.1914626 74.201259,41.6368245 C74.201259,41.6368245 61.5279584,42.4319255 60.1279958,51.9499352 C58.9058963,61.9462629 66.0335352,65.8491306 65.1695658,75.3894733 C64.3180511,84.791698 57.4491222,94.325536 41.716749,90.7119143 C25.984376,87.098076 23.3623136,73.0765907 28.3151706,58.6216703 C33.2678091,44.1665333 37.4318623,45.2441583 45.5040994,24.0739208 C51.6222444,8.0287987 60.4502908,-3.09480739 81.4846923,0.801338528 C103.335211,4.84882897 105.520262,21.1829801 105.520262,21.1829801" id="Fill-12" fill="#F4E6D4" fill-rule="nonzero"></path>
                            <path d="M91.5612221,56.3411949 C91.5612221,54.2634659 92.1099191,53.4746904 93.1524432,53.4746904 C94.469316,53.4746904 95.0728827,55.2594951 95.4021009,57.4228949 C95.7313189,59.5862945 96.3537609,63.9881639 96.5100297,65.846957 C96.7374098,68.5551007 95.7313189,68.5644032 93.2073129,68.6725733 C90.683307,68.7807432 90.3540888,68.6725733 89.2566949,68.6725733 C88.1593008,68.6725733 87.0768314,67.3593896 87.2813857,66.5091735 C87.6329908,65.0488787 88.6983407,65.0393597 89.8602614,63.5885839 C91.5063524,61.5333542 91.5612221,56.3411949 91.5612221,56.3411949" id="Fill-14" fill="#FBF4E9" fill-rule="nonzero"></path>
                            <path d="M87.6118485,48.3539065 C88.3233554,49.4231914 87.2550002,50.986058 84.3588382,49.9163455 C81.430932,48.8350848 76.2842185,48.3675934 73.3287278,48.3675934 C70.373237,48.3675934 70.4262168,49.2627987 69.1673967,49.0534327 C67.7443827,48.7816204 69.4957846,46.3222655 74.2026773,46.3222655 C78.90957,46.3222655 83.8353879,47.0707649 84.8205515,47.1776933 C85.8057151,47.2846218 87.1444431,47.6513865 87.6118485,48.3539065" id="Fill-16" fill="#F4E6D4" fill-rule="nonzero"></path>
                            <path d="M78.3429575,52.4885316 C80.348174,52.1139894 82.0043917,52.4988166 82.9850784,53.356964 C83.9659832,54.214897 84.2246787,54.9515538 83.905999,55.3477374 C83.5871013,55.7439207 82.0432178,56.5092897 80.0349475,56.2429531 C78.0266774,55.9766168 77.009564,55.4268025 76.3440667,54.758069 C75.6787877,54.0893354 76.3970709,53.3595351 76.9493617,53.0803426 C77.5016523,52.8009358 78.3429575,52.4885316 78.3429575,52.4885316" id="Fill-18" fill="#F3F1ED" fill-rule="nonzero"></path>
                            <path d="M78.6322267,69.4009132 C78.6322267,69.4009132 80.3907592,73.4462263 77.1484648,75.0643514 C73.9061705,76.6824767 71.2751859,74.8486015 70.5023109,72.8529136 C69.7296557,70.8572259 70.3891053,67.4052255 73.1917666,66.8119128 C75.9944277,66.2186004 77.258373,67.4052255 77.8079145,67.998538 C78.3574558,68.5918506 78.6322267,69.4009132 78.6322267,69.4009132" id="Fill-24" fill="#FCF6ED" fill-rule="nonzero"></path>
                            <path d="M104.786092,53.6846568 C105.359458,54.2587312 105.818326,54.9478824 105.015526,55.5219567 C105.015526,55.5219567 103.868574,56.6956538 101.918822,56.4532717 C99.9690696,56.2108897 99.2809859,55.6250237 99.3957028,54.8557335 C99.3957028,54.8557335 100.198503,53.053153 101.918822,52.7660067 C103.63914,52.4788604 104.786092,53.6846568 104.786092,53.6846568" id="Fill-26" fill="#F3F1ED" fill-rule="nonzero"></path>
                            <path d="M84.8090238,77.4600723 C84.2630697,76.9231962 83.8263063,76.4936954 84.8090238,76.3863201 C85.7917411,76.2789451 87.5387941,75.3125682 88.4123207,74.6683169 C89.2858471,74.0240656 90.1047783,73.7556276 91.3058772,73.8093152 C92.5069763,73.8630028 92.9847952,74.4937247 93.3805027,74.5340979 C93.6388482,74.5648072 93.9264568,74.5742561 94.6907925,74.0777532 C95.8410085,73.4397296 97.5297537,74.9367549 97.8573262,75.3125682 C97.8573262,75.3125682 98.5670665,75.822815 97.3113721,77.4600723 C97.3113721,77.4600723 95.6800614,79.7536069 92.4523808,79.822327 C87.4047079,79.9297022 84.8090238,77.4600723 84.8090238,77.4600723" id="Fill-32" fill="#F4E6D4" fill-rule="nonzero"></path>
                            <path d="M100.577063,50.0818138 C99.9591184,50.4012471 98.1844593,50.8803971 97.9125726,49.764936 C97.595444,48.4639904 99.0001196,47.6860637 100.794572,47.100436 C102.589024,46.5148082 107.013383,46.1340438 107.013383,46.1340438 L107.152589,47.3670563 C107.152589,47.3670563 105.14476,47.7286549 103.676571,48.3726325 C102.208383,49.0163971 101.195007,49.7623805 100.577063,50.0818138" id="Fill-34" fill="#F4E6D4" fill-rule="nonzero"></path>
                            <path d="M75.5402013,127.091362 C73.8368625,124.839813 72.0972638,122.186712 72.0972638,122.186712 L79.6054915,119.804923 L84.2548967,118.599402 L88.0037365,120.913145 C88.0037365,120.913145 87.6958465,126.078923 87.2457835,129.401855 C86.7955007,132.72457 86.8688997,133.628657 86.8688997,133.628657 C86.8688997,133.628657 85.7035268,133.342174 83.8654768,133.411953 C81.0123678,133.520305 80.5728531,133.84536 80.5728531,133.84536 C80.5728531,133.84536 77.2433205,129.342911 75.5402013,127.091362 Z" id="Fill-36" fill="#FBF4E9" fill-rule="nonzero"></path>
                            <path d="M70.2426349,128.160835 C73.0995571,125.704067 76.8831138,121.4365 80.05577,119.59273 C80.05577,119.59273 72.944644,119.809644 64.6300966,112.000739 C56.3155493,104.191833 52.8146873,97.1421269 52.8146873,97.1421269 C52.8146873,97.1421269 49.0950214,101.697322 48.1104039,104.191833 C47.8773777,104.782056 48.1125919,107.52667 49.5431317,110.313365 C51.5703497,114.262501 55.3361831,118.952834 57.8622738,123.379833 C61.0870054,129.031094 62.8796656,132.71603 62.8796656,132.71603 C62.8796656,132.71603 65.8597745,131.929716 70.2426349,128.160835 Z" id="Fill-38" fill="#FBF4E9" fill-rule="nonzero"></path>
                            <path d="M95.6361035,128.212417 C95.6361035,128.212417 89.9440177,123.141984 85.857319,120.96891 C81.7708393,118.795837 80.05577,119.556413 80.05577,119.556413 C80.05577,119.556413 85.5532302,113.835579 87.364846,108.075196 C89.1764618,102.315029 88.3469497,99.024344 88.3469497,99.024344 C88.3469497,99.024344 90.9460438,101.951474 93.155011,105.177836 C96.6263075,110.248269 96.7307354,129.516261 96.7307354,129.516261" id="Fill-40" fill="#FBF4E9" fill-rule="nonzero"></path>
                            <path d="M80.4347465,162.831503 L80.6509653,133.767073 C80.6509653,133.767073 81.9188366,133.337421 83.6442858,133.172286 C85.5220442,132.992707 86.7868826,133.172286 86.7868826,133.172286 L92.3725058,162.831503 L80.4347465,162.831503 Z" id="Fill-42" fill="#FBF4E9" fill-rule="nonzero"></path>
                            <g id="Group-23" transform="translate(76.076517, 52.157138)">
                                <g id="Fill-21-Clipped">
                                    <mask id="mask-4" fill="white">
                                        <use xlink:href="#path-3"></use>
                                    </mask>
                                    <use id="path-1" fill="#FCF6ED" xlink:href="#path-3"></use>
                                    <path d="M4.72810502,1.39349249 C4.72810502,2.36376549 3.93334523,3.15031429 2.95294331,3.15031429 C1.97276159,3.15031429 1.1780018,2.36376549 1.1780018,1.39349249 C1.1780018,0.423219485 1.97276159,-0.363329319 2.95294331,-0.363329319 C3.93334523,-0.363329319 4.72810502,0.423219485 4.72810502,1.39349249" id="Fill-21" fill="#F4E6D4" fill-rule="nonzero" mask="url(#mask-4)"></path>
                                </g>
                            </g>
                            <g id="Group-31" transform="translate(99.194083, 52.721804)">
                                <g id="Fill-29-Clipped">
                                    <mask id="mask-6" fill="white">
                                        <use xlink:href="#path-5"></use>
                                    </mask>
                                    <use id="path-3" fill="#FCF6ED" xlink:href="#path-5"></use>
                                    <path d="M3.36684801,1.51432835 C3.36684801,2.41860817 2.64687763,3.15182584 1.75893573,3.15182584 C0.870993819,3.15182584 0.151023437,2.41860817 0.151023437,1.51432835 C0.151023437,0.610048519 0.870993819,-0.123169149 1.75893573,-0.123169149 C2.64687763,-0.123169149 3.36684801,0.610048519 3.36684801,1.51432835" id="Fill-29" fill="#F4E6D4" fill-rule="nonzero" mask="url(#mask-6)"></path>
                                </g>
                            </g>
                        </g>
                        <polygon id="Rectangle" fill="#FBF4E9" fill-rule="nonzero" transform="translate(110.444711, 147.175025) rotate(3.000000) translate(-110.444711, -147.175025) " points="102.479855 145.855078 118.410173 145.851444 118.409567 148.494972 102.47925 148.498606"></polygon>
                        <path d="M41.4407658,142.468029 C41.8049438,141.162329 41.2163377,139.932261 39.6749475,138.777825 L41.178264,137.058843 C42.5892981,137.414929 43.7904362,137.415203 44.7816781,137.059665 C45.7729201,136.704126 46.4838467,136.159577 46.9144579,135.426017 L48.8268515,135.426454 C49.3646803,136.515999 50.1777174,137.060896 51.2659631,137.061144 C52.3542089,137.061392 53.4071066,136.903665 54.4246562,136.587962 L55.8970083,138.195509 C54.9159556,139.372973 54.4255702,140.577102 54.4258522,141.807896 C54.4262752,143.654088 56.4600877,144.949545 56.460849,148.272243 C56.4613967,150.663117 55.215218,152.230949 51.1335454,153.797242 C49.5986904,154.386223 48.6787033,155.020528 48.3735841,155.700156 C47.7837917,154.925535 47.0113936,154.342644 46.0563904,153.951484 C43.8051767,153.029409 41.2677419,151.728474 40.3406387,150.426758 C38.2912774,147.549315 40.894499,144.426578 41.4407658,142.468029 Z" id="Path-45" fill="#FBF4E9" fill-rule="nonzero" transform="translate(48.013390, 145.563087) rotate(-3.000000) translate(-48.013390, -145.563087) "></path>
                    </g>
                </g>
            </g>
        </g>
    </g>
</svg>