<?xml version="1.0" encoding="UTF-8"?>
<svg width="176px" height="177px" viewBox="0 0 176 177" version="1.1" xmlns="http://www.w3.org/2000/svg" xmlns:xlink="http://www.w3.org/1999/xlink">
    <!-- Generator: Sketch 53 (72520) - https://sketchapp.com -->
    <title>Group Copy 4</title>
    <desc>Created with Sketch.</desc>
    <defs>
        <circle id="path-1" cx="88" cy="88.5" r="88"></circle>
    </defs>
    <g id="Page-1" stroke="none" stroke-width="1" fill="none" fill-rule="evenodd">
        <g id="Group-Copy-4">
            <mask id="mask-2" fill="white">
                <use xlink:href="#path-1"></use>
            </mask>
            <use id="Mask" fill="#F6914D" xlink:href="#path-1"></use>
            <g id="Group-43" mask="url(#mask-2)">
                <g transform="translate(78.500000, 136.000000) rotate(-1.000000) translate(-78.500000, -136.000000) translate(7.500000, 7.000000)">
                    <path d="M8.95305378,153 C10.1204697,174.811777 10.281515,190.478343 9.43618961,199.9997 C8.95841489,205.381135 7.52496888,212.782838 6.53603389,222.204809 C5.54547053,231.642294 4.86679257,242.574024 4.5,255 L23.5683683,255 C30.1894561,215.684402 33.5,192.660719 33.5,185.928953 C33.5,179.197187 32.2491052,168.220869 29.7473155,153 L8.95305378,153 Z" id="Path-148" fill="#FDC982"></path>
                    <path d="M137.467942,140 C138.501375,164.364592 138.606638,182.550291 137.783731,194.557096 C137.351871,200.858245 139.225759,217.848917 140.127206,229.460244 C140.564001,235.086494 141.021599,242.933079 141.5,253 L121.391535,253 C120.544681,228.747556 120.121254,209.266588 120.121254,194.557096 C120.121254,179.847604 119.247503,166.280043 117.5,153.854414 L137.467942,140 Z" id="Path-149" fill="#FDC982"></path>
                    <path d="M115.212359,99.6498701 C119.293437,101.852115 124.286225,106.102684 130.190724,112.401578 C136.095223,118.700471 139.531649,132.580536 140.5,154.041772 C132.358121,158.099738 123.928907,160.33573 115.212359,160.749748 C106.495811,161.163766 77.5278831,176.91385 28.3085766,208 C30.034432,187.770414 29.9893341,173.043263 28.1732829,163.818546 C27.7519891,161.678564 27.9914967,161.037677 24.7500467,160.089178 C20.8780293,158.956164 12.7946804,158.106404 0.5,157.539897 C1.93148141,138.078385 4.67763932,123.906732 8.73847373,115.024939 C12.7993081,106.143147 21.1806815,100.942012 33.8825938,99.4215337 L58.0323188,82.5855077 L101.000343,81 L115.212359,99.6498701 Z" id="Path-142" fill="#616A7F"></path>
                    <path d="M22.5,256.378613 C27.2273603,232.012472 30.6485492,202.095796 32.7635667,166.628583 C33.9002547,153.576372 31.1651562,143.214586 43.1778112,143.002668 C48.7555874,142.90427 65.3382615,145.556434 80.5115842,146.148558 C98.016498,146.831669 114.151988,145.524301 117.615,146.35216 C124.079764,147.897611 124.5,158.40749 124.5,172.694327 C124.5,186.981165 123.492964,243.389179 122.096923,252.224631 C121.166229,258.114932 87.9672548,259.499593 22.5,256.378613 Z" id="Path-143" fill="#73B5EC"></path>
                    <path d="M121.420426,140.165542 C118.635466,141.131986 116.444093,142.189415 118.78517,146.158396 C121.126247,150.127377 118.895903,153 114.967969,153 C111.040036,153 109.569615,149.056368 111.592275,146.158396 C113.614935,143.260424 113.437192,140.896086 110.479717,139.957256 C107.522242,139.018425 105.907346,135.499002 109.793457,134.020592 C113.679569,132.542183 122.131785,132.559384 124.568194,134.805064 C127.004603,137.050743 124.205386,139.199099 121.420426,140.165542 Z" id="Path-144" fill="#FFFFFF"></path>
                    <path d="M39.6293619,141.18358 C38.2766631,139.097515 36.7370359,139.610053 34.8189478,138.614385 C32.9008596,137.618718 32.9054637,133.948769 35.9626182,133.127243 C39.0197727,132.305717 45.0373946,131 48.043443,131 C51.0494915,131 51.5775873,135.570764 48.043443,137.618718 C44.5092987,139.666672 44.4480636,141.686309 45.6617171,144.359722 C46.114646,145.357426 48.043443,147.996355 44.8265246,150.347471 C42.7265232,151.882278 38.8135068,150.591908 38.8135068,147.708032 C38.8135068,143.10712 40.9820607,143.269646 39.6293619,141.18358 Z" id="Path-146" fill="#FFFFFF"></path>
                    <path d="M121.5,138 C121.243338,125.240054 120.960672,117.772494 120.652003,115.59732 C119.872437,110.103762 119.429014,105.564141 119.321735,101.978457 C118.536967,100.19557 116.958818,98.9965251 114.587287,98.3813236 C111.02999,97.4585214 107.5,95.7991799 107.5,98.3813236 C107.5,100.963467 108.502079,111.193294 109.172588,117.263784 C109.72199,122.237828 109.72199,129.019951 109.172588,137.610151 L121.5,138 Z" id="Path-145" fill="#73B5EC"></path>
                    <path d="M35.846536,136 L47.5,134.877882 C45.5336125,122.477653 44.5504188,113.479692 44.5504188,107.884 C44.5504188,102.288308 44.5504188,97.1397384 44.5504188,92.4382906 C44.8825546,91.0089426 44.0487893,90.6449404 42.049123,91.3462838 C39.0496236,92.398299 33.5902367,94.4182827 32.6690465,97.0407073 C32.0549197,98.7889904 33.1140828,111.775421 35.846536,136 Z" id="Path-147" fill="#73B5EC"></path>
                    <path d="M61.5,108.292861 C68.3602174,123.430954 75.5267717,131 82.9996628,131 C90.4725539,131 95.0464785,125.243911 96.7214366,113.731734 L98.5,83.3681472 L67.3049741,75 L61.5,108.292861 Z" id="Path-141" fill="#FDC982"></path>
                    <path d="M66.9924051,75.244073 C69.0228165,84.3881093 69.5180483,92.1216117 68.4781006,98.4445801 C66.918179,107.929033 59.9631529,118.518688 47.7308165,117.236723 C35.4984801,115.954758 25.1887246,105.468623 31.325992,85.9447633 C37.4632593,66.4209035 54.1658384,64.7346997 54.1658384,47.1938444 C54.1658384,35.4999409 55.0475727,30.4183367 56.8110412,31.9490317 L107.760153,29 L114.108214,39.2599108 C112.754534,49.5478361 112.983826,58.3443095 114.796092,65.649331 C117.514491,76.6068632 129.971082,94.7844078 125.56588,107.615233 C121.160678,120.446059 107.933572,120.922896 100.357682,116.408312 C92.781791,111.893728 89.4885239,102.761648 97.0273974,86.1831818 C102.053313,75.130871 92.0416489,71.4845014 66.9924051,75.244073 Z" id="Path-140" fill="#FFFFFF"></path>
                    <path d="M56.9055379,46.2920198 C58.6248743,49.8189974 59.4842523,52.3771836 59.4836719,53.9665784 C59.4828013,56.3506707 60.2712397,59.5831769 61.7549283,61.7950013 C63.2386169,64.0068257 63.25687,64.3239901 60.6762788,63.3778784 C58.0956877,62.4317667 54.2693876,63.4142281 55.702301,67.2660148 C56.7232125,70.0103074 57.3564159,70.5606937 58.7060104,72.4335681 C59.2506564,73.1893903 59.7120427,74.3603677 60.6717903,75.6689757 C64.009725,80.2202225 66.9018643,80.9916558 68.2374712,80.6049241 C69.1278758,80.347103 69.6698858,79.4380585 69.8635012,77.8777907 C72.5859702,82.3135596 75.5332674,85.2684102 78.7053927,86.7423426 C83.4635806,88.9532413 91.4146635,91.9461795 102.251182,88.5312547 C113.0877,85.1163299 112.602805,65.8226945 112.00027,60.9445414 C111.397734,56.0663883 108.079972,45.9765583 106.188638,39.8150441 C104.927749,35.707368 103.322001,30.5661055 101.371393,24.3912567 L78.1066088,29.4544679 L56.9055379,46.2920198 Z" id="Path-139" fill="#FFDDAD" transform="translate(83.826059, 57.234202) rotate(21.000000) translate(-83.826059, -57.234202) "></path>
                    <path d="M60.2927654,49.6907691 C60.4627364,51.5872956 60.7650566,53.2724033 61.199726,54.7460922 C61.8517302,56.9566254 63.3661986,59.3508808 61.1980441,59.3516719 C59.0298896,59.3524631 56.3110111,47.33096 55.6037313,39.4288177 C54.8964514,31.5266753 56.3598357,22.9048485 60.7843463,20.7674754 C65.2088569,18.6301022 67.0843962,19.6185574 69.6905551,15.6717643 C72.2967141,11.7249711 71.8205325,11.9865237 75.9846627,10.3650145 C80.1487929,8.74350533 81.1807748,8.54231899 83.0282314,8.54164488 C84.875688,8.54097076 87.2116984,9.5721222 91.7342997,8.53846812 C96.2569011,7.50481404 100.31159,6.7839603 102.350594,9.60899652 C103.70993,11.492354 105.381818,14.461021 107.366259,18.5149975 L75.0893205,34.0460482 L62.3336952,45.9654923 L60.2927654,49.6907691 Z" id="Path-133" fill="#73B5EC" transform="translate(81.400211, 33.487693) rotate(21.000000) translate(-81.400211, -33.487693) "></path>
                    <path d="M61.9974355,52.7306534 C60.5458031,54.1703974 58.0512944,56.2763159 59.2994587,52.7316378 C60.547623,49.1869598 66.8942969,36.761804 76.398224,30.5821543 C85.9021511,24.4025046 98.648146,19.5941912 109.134086,17.2505351 C119.620026,14.906879 126.808017,19.7285419 124.702423,24.3181164 C122.596829,28.9076909 119.626859,31.836605 116.908366,33.1128089 C114.189873,34.3890128 112.72304,31.5050478 109.783363,30.6651422 C106.843687,29.8252366 100.347292,27.2417735 85.4866653,34.4660977 C70.6260388,41.690422 63.4490678,51.2909093 61.9974355,52.7306534 Z" id="Path-132" fill="#5196D0" transform="translate(92.014978, 35.657909) rotate(21.000000) translate(-92.014978, -35.657909) "></path>
                    <path d="M74.8162223,44.9399166 C72.7209734,45.4615751 70.5275515,46.6711944 69.1421418,48.7249915 C67.7567321,50.7787886 67.0981622,51.3993963 66.7978862,51.1777296 C66.4976102,50.9560629 67.8240727,48.9698454 69.5659766,46.2433685 C71.3078805,43.5168917 74.2759225,42.6554948 77.1608656,41.4253559 C80.0458088,40.1952169 83.3869741,39.7308773 83.3861608,41.9577229 C83.3853476,44.1845685 76.9114712,44.418258 74.8162223,44.9399166 Z" id="Path-134" fill="#F8C37C" transform="translate(75.070736, 45.807633) rotate(21.000000) translate(-75.070736, -45.807633) "></path>
                    <path d="M99.4863315,46.7356911 C98.480586,47.8747566 96.8476392,50.388969 95.0026353,48.7808345 C93.1576314,47.1726999 100.176203,42.2950274 101.958731,41.3299309 C103.741258,40.3648345 104.857696,40.0075368 106.978626,40.667431 C109.099556,41.3273253 110.746768,41.88792 109.599218,41.8883388 C108.451669,41.8887575 106.732317,40.9586426 104.691095,42.2894985 C102.649874,43.6203545 100.492077,45.5966255 99.4863315,46.7356911 Z" id="Path-135" fill="#F8C37C" transform="translate(102.336069, 44.816962) rotate(21.000000) translate(-102.336069, -44.816962) "></path>
                    <path d="M90.1480015,66.8391891 C89.4208919,66.8392724 88.8589145,66.9855518 88.4620693,67.2780274 C87.8668015,67.7167408 87.5103146,68.3776742 86.9951237,68.2027942 C86.4799328,68.0279143 86.9026185,66.7777076 87.9585502,66.4332434 C88.6625047,66.2036005 89.3923218,66.3389158 90.1480015,66.8391891 Z" id="Path-136" fill="#F8C37C" transform="translate(88.462048, 67.278229) rotate(21.000000) translate(-88.462048, -67.278229) "></path>
                    <path d="M93.5365778,68.088502 C93.7725422,67.3960648 94.0808501,67.0497767 94.4615013,67.0496378 C95.0324783,67.0494295 95.4810772,67.3022582 95.4812663,66.784509 C95.4814554,66.2667598 94.5032914,65.9365494 93.9872647,66.4544868 C93.6432468,66.7997784 93.4930179,67.3444501 93.5365778,68.088502 Z" id="Path-137" fill="#F8C37C" transform="translate(94.505250, 67.141246) rotate(21.000000) translate(-94.505250, -67.141246) "></path>
                    <path d="M83.3169179,81.0320523 C82.2635478,80.3213301 82.3256773,79.4856626 83.5033063,78.5250498 C84.2353038,77.9279466 84.6849802,77.4436938 85.1910675,76.4659799 C85.9062615,75.0842916 86.6394378,73.2153021 87.6207232,72.9673373 C89.2963883,72.5439072 89.5358371,73.4444353 90.1093927,73.4442261 C90.6829482,73.4440168 90.6903091,70.1307211 93.3949154,71.7156384 C96.0995218,73.3005557 97.5242844,72.5183143 97.8535465,72.995991 C98.1828087,73.4736677 99.1500873,79.3113517 94.611117,81.7256372 C91.5851368,83.3351608 87.8204038,83.1039659 83.3169179,81.0320523 Z" id="Path-138" fill="#FA8F59" transform="translate(90.370732, 77.033731) rotate(21.000000) translate(-90.370732, -77.033731) "></path>
                    <path d="M80.492462,54.1811214 C78.1091946,55.4660378 73.6078379,55.0457024 72.0198666,54.2368815 C70.4318953,53.4280605 72.7651291,51.510948 75.204863,51.1042648 C77.6445968,50.6975815 78.9447558,51.5864568 79.6609511,51.9561715 C80.3771464,52.3258861 82.8757294,52.896205 80.492462,54.1811214 Z" id="Path-150" fill="#FFFAF2"></path>
                    <path d="M104.662487,53.5748334 C102.499938,54.7562124 98.4157093,54.3702009 96.9749482,53.6268194 C95.5341871,52.8834378 97.6513929,51.1209096 99.8650991,50.7468517 C102.078805,50.3727938 103.258415,51.189791 103.908217,51.529594 C104.558018,51.8693969 106.825035,52.3934544 104.662487,53.5748334 Z" id="Path-150-Copy" fill="#FFFAF2" transform="translate(101.040033, 52.489426) scale(-1, 1) rotate(5.000000) translate(-101.040033, -52.489426) "></path>
                    <circle id="Oval" fill="#616A7F" cx="76" cy="52.5" r="1.5"></circle>
                    <circle id="Oval-Copy-7" fill="#616A7F" cx="101" cy="52.5" r="1.5"></circle>
                </g>
            </g>
        </g>
    </g>
</svg>