<?xml version="1.0" encoding="UTF-8"?>
<svg width="176px" height="177px" viewBox="0 0 176 177" version="1.1" xmlns="http://www.w3.org/2000/svg" xmlns:xlink="http://www.w3.org/1999/xlink">
    <!-- Generator: Sketch 53 (72520) - https://sketchapp.com -->
    <title>Group Copy 4</title>
    <desc>Created with Sketch.</desc>
    <defs>
        <circle id="path-1" cx="88" cy="88.5" r="88"></circle>
        <path d="M9.40146703,0.550321691 C10.7439847,0.998391544 12.2131067,2.52701547 9.06129776,4.16877298 C5.9094888,5.81053048 1.77809464,4.67184699 0.591594453,3.70433134 C-0.594905733,2.7368157 -0.112915209,1.37207031 3.1032202,0.550321691 C6.3193556,-0.27142693 8.05894936,0.102251838 9.40146703,0.550321691 Z" id="path-3"></path>
        <path d="M4.95188643,4.72521114 C2.3433689,4.72521114 1.79077125e-12,3.97660757 1.79056769e-12,2.44765038 C1.79056769e-12,0.918693181 2.99287824,0.0100418682 4.95188643,0.0100418682 C6.91089463,0.0100418682 10.5074314,-0.219362559 10.9617473,1.51476192 C11.4160633,3.2488864 7.56040396,4.72521114 4.95188643,4.72521114 Z" id="path-5"></path>
    </defs>
    <g id="Page-1" stroke="none" stroke-width="1" fill="none" fill-rule="evenodd">
        <g id="Group-Copy-4">
            <mask id="mask-2" fill="white">
                <use xlink:href="#path-1"></use>
            </mask>
            <use id="Mask" fill="#F8C37C" xlink:href="#path-1"></use>
            <g id="Group-41" mask="url(#mask-2)">
                <g transform="translate(26.000000, -6.000000)">
                    <g id="Group-40" stroke="none" stroke-width="1" fill="none" fill-rule="evenodd" transform="translate(0.000000, 121.000000)">
                        <path d="M0,61.1537762 C6.82983757,36.9383349 11.0674231,22.9802251 12.7127565,19.2794468 C15.1807566,13.7282793 14.8393451,12.7368258 19.9296557,13.2325525 C21.9834531,13.4325644 26.6692721,13.6943686 32.3248219,12.4847561 C34.7843256,11.9587159 38.9628555,10.6142037 44.8604114,8.45121951 L81.3056077,8.45121951 C86.7426146,11.0282012 91.9525156,12.6219789 96.9353108,13.2325525 C102.989878,13.9744572 104.686477,12.9816172 106.655894,13.4629613 C108.249522,13.8524589 108.575428,14.7214414 109.326427,16.5908582 C110.445819,19.3772961 114.33701,34.2316021 121,61.1537762 L102.424417,61.1537762 L100.271789,46.3981295 C99.9757057,54.2079317 98.8635465,59.1264806 96.9353108,61.1537762 C95.0070752,63.1810718 71.6155647,63.5387726 26.7607792,62.2268788 C25.9181011,60.3038136 25.1992366,58.0357648 24.604186,55.4227322 C24.0091353,52.8096997 23.6124649,50.179126 23.4141749,47.5310109 L18.6720269,61.1537762 L0,61.1537762 Z" id="Path-129" fill="#808CAB"></path>
                        <path d="M12.710084,61.1573533 C18.5988527,53.3740009 21.543237,45.9495967 21.543237,38.8841404 C21.543237,28.2859561 18.6751171,13.3289781 19.933962,13.3289781 C21.0563061,13.3289781 21.4676306,44.8488407 30.5414685,52.8321834 C36.6491968,58.2058839 48.5864492,59.8934546 61.4412863,59.9358748 C71.5648079,59.9692819 81.8423033,59.8237984 90.7048939,54.4081594 C100.353786,48.5120372 103.221913,13.891128 104.23265,13.3289781 C105.243388,12.7668281 101.410386,32.2324446 105.746836,46.430296 C108.637803,55.8955303 110.332835,60.8045494 110.831933,61.1573533 L102.508496,61.1573533 L100.353786,46.430296 C100.057417,54.2249666 98.9441822,59.1339857 97.014082,61.1573533 C95.0839817,63.1807209 71.6698515,63.5377287 26.7716912,62.2283767 C25.9281982,60.3090375 25.2086387,58.0453831 24.6130126,55.4374134 C24.0173865,52.8294437 23.6203325,50.2039667 23.4218507,47.5609825 L18.6751171,61.1573533 L12.710084,61.1573533 Z" id="Path-129" fill="#697591"></path>
                        <path d="M42.4516807,4.09661094 C48.1837093,1.36553698 54.6604415,1.86458389e-16 61.8818772,0 C69.1033129,0 75.8450681,1.57495927 82.1071429,4.7248778 L82.1071429,17.1585366 L42.4516807,17.1585366 L42.4516807,4.09661094 Z" id="Path-131" fill="#FFFFFF"></path>
                    </g>
                    <rect id="Rectangle" stroke="none" fill="#FFFFFF" fill-rule="evenodd" x="74" y="163" width="21" height="12" rx="5"></rect>
                    <rect id="Rectangle" stroke="none" fill="#D8D8D8" fill-rule="evenodd" x="76" y="166" width="9" height="1"></rect>
                    <rect id="Rectangle" stroke="none" fill="#D8D8D8" fill-rule="evenodd" x="76" y="169" width="7" height="1"></rect>
                    <path d="M45.358673,108.84314 C42.9212709,106.779811 39.6024468,104.366384 35.4022007,101.602858 C29.1018315,97.4575691 26.8910451,91.4736316 25.8141861,85.2869936 C24.7373272,79.1003555 22.9548031,70.3108131 24.7978695,61.0180569 C26.6409359,51.7253006 30.9645495,44.5722319 38.1616113,39.7952086 C42.9596525,36.6105265 46.772735,34.1071602 49.6008588,32.2851098 C44.3798342,27.1513889 42.3675471,20.9788233 43.5639975,13.767413 C45.358673,2.95029769 53.4730848,-1.76289893 64.0173699,0.593699378 C74.5616551,2.95029769 75.1695593,18.4865934 73.7815527,23.0616652 C72.8562149,26.1117131 72.0998497,28.6041092 71.512457,30.5388535 C81.0753284,33.6806521 87.2955535,37.2419778 90.1731323,41.2228305 C94.4895005,47.1941096 97.2575739,55.5045343 98.9989094,61.0180569 C100.740245,66.5315794 100.367066,77.1926016 96.628331,85.2869936 C92.8895958,93.3813855 90.7147971,95.77686 87.3420354,99.5379178 C83.9692737,103.298976 80.27794,105.259376 76.4670007,107.38161 C73.9263745,108.796434 63.5569319,109.28361 45.358673,108.84314 Z" id="Path-127" stroke="none" fill="#F6914D" fill-rule="evenodd"></path>
                    <path d="M32,70.6574384 C41.5884116,71.1118437 49.5764983,70.4740179 55.96426,68.7439611 C62.3520216,67.0139043 68.0032673,64.4325839 72.9179969,61 C73.417923,61.5831009 73.417923,62.5454782 72.9179969,63.8871318 C72.4180708,65.2287854 71.9358104,66.2009473 71.4712159,66.8036175 C73.6805989,66.0924899 75.2868675,65.428627 76.2900218,64.8120289 C77.2931761,64.1954308 78.4396382,63.3819791 79.729408,62.3716737 C79.729408,63.9985772 79.504045,65.1745567 79.053319,65.8996122 C78.602593,66.6246678 78.1147192,67.3754329 77.5896977,68.1519076 C78.8401734,68.0255392 80.4433052,67.66102 82.3990928,67.0583498 C83.1564626,66.8249685 85.356765,66.0761949 89,64.8120289 C87.92222,66.0555072 87.38333,68.2270337 87.38333,71.3266082 C87.38333,75.9759701 88.7118995,82.1482529 87.38333,89.2364773 C86.0547605,96.3247018 83.9285894,100.694953 80.4144125,104.959728 C78.0716278,107.802912 76.1467141,109.696986 74.6396712,110.64195 C73.7943535,114.148311 73.3716947,118.465658 73.3716947,123.593993 C73.3716947,128.722327 76.3303065,134.099235 82.24753,139.724716 L61.1837662,168 L39.9223764,139.724716 C46.6849176,134.099235 50.0661882,128.883027 50.0661882,124.076093 C50.0661882,119.26916 49.6435293,115.31799 48.7982117,112.222584 C45.1801861,109.762162 41.4878651,105.653774 37.7212485,99.8974217 C33.954632,94.141069 32.0475491,84.3944079 32,70.6574384 Z" id="Path-122" stroke="none" fill="#FFDDAD" fill-rule="evenodd"></path>
                    <path d="M61.697627,167.277463 C58.4556674,162.325082 55.1126327,156.116887 51.6685229,148.652878 C48.2244131,141.188868 45.218576,133.637909 42.6510117,126 C41.9658252,126.266106 41.2910542,127.465333 40.6266989,129.59768 C39.6301659,132.7962 35.0729384,147.821187 33.4216645,151.001586 C32.3208152,153.121852 30.846927,156.138199 29,160.050628 C32.816598,157.483037 35.5483706,155.649384 37.1953181,154.549669 C38.8422655,153.449954 40.66083,151.960935 42.6510117,150.082613 L61.697627,169 L80.8586537,150.082613 C84.54065,152.969602 87.1022477,154.843791 88.5434469,155.70518 C89.9846461,156.56657 92.1368305,158.015053 95,160.050628 C91.9801157,153.751191 89.8279313,147.946928 88.5434469,142.637839 C87.2589625,137.328749 86.0355296,132.98203 84.8731481,129.59768 C84.5619619,128.02139 83.6511574,127.027704 82.1407345,126.616622 C81.1222748,126.339435 79.6965273,135.0787 73.855041,147.5 C71.9739019,151.500043 67.9214305,158.09253 61.697627,167.277463 Z" id="Path-130" stroke="none" fill="#FFFFFF" fill-rule="evenodd"></path>
                    <path d="M61.6279286,96 C59.6637773,96 58.3472996,96 57.6784953,96 C56.675289,96 56.8780433,94.9425881 57.6784953,92.9123984 C58.21213,91.5589386 58.21213,85.4110867 57.6784953,74.4688427 C60.4261605,73.8437191 62.2437383,73.8437191 63.1312288,74.4688427 C64.4624646,75.4065282 64.7311266,91.4622629 65.3962414,92.9123984 C66.0613561,94.3625339 66.3300182,96 65.3962414,96 C64.7737235,96 63.5176192,96 61.6279286,96 Z" id="Path-123" stroke="none" fill="#F8C37C" fill-rule="evenodd"></path>
                    <path d="M57,101.289146 C58.4119837,101.895929 59.4375506,101.953295 60.0767005,101.461241 C60.7158504,100.969188 61.3497167,101.215215 61.9782994,102.199321 C62.5287181,101.129771 63.1752903,100.775586 63.9180159,101.136768 C64.6607415,101.49795 65.6880695,101.495401 67,101.129122 C66.1436347,103.709707 64.5509596,105 62.2219748,105 C59.89299,105 58.1523317,103.763049 57,101.289146 Z" id="Path-124" stroke="none" fill="#FA8F59" fill-rule="evenodd"></path>
                    <path d="M45.4021145,94.8573193 C43.7064126,95.9576865 41.535667,96.7530423 39.256908,94.8573193 C36.978149,92.9615962 38.0658057,89.0158351 40.3837934,88.3370556 C42.7017811,87.6582761 45.6006763,87.9054711 46.5040118,89.9988504 C47.4073472,92.0922298 47.0978164,93.7569521 45.4021145,94.8573193 Z" id="Path-125" stroke="none" fill="#FCF6ED" fill-rule="evenodd"></path>
                    <path d="M76.035951,90.2663223 C75.5609188,86.4131269 79.9076647,85.136203 82.3267163,86.5732968 C84.7457679,88.0103906 85.3701342,89.5068705 84.8073214,91.1102946 C84.5434544,91.8620377 83.3554747,93.655755 80.5726252,93.9751185 C78.3150093,94.2342055 76.3031422,92.4336272 76.035951,90.2663223 Z" id="Path-126" stroke="none" fill="#FCF6ED" fill-rule="evenodd"></path>
                    <g id="Oval" stroke="none" stroke-width="1" fill="none" fill-rule="evenodd" transform="translate(40.000000, 77.000000)">
                        <mask id="mask-4" fill="white">
                            <use xlink:href="#path-3"></use>
                        </mask>
                        <use id="Mask" fill="#FCF6ED" xlink:href="#path-3"></use>
                        <ellipse fill="#49515E" mask="url(#mask-4)" cx="5.35242965" cy="2.35294118" rx="1.70238095" ry="2.05882353"></ellipse>
                    </g>
                    <g id="Oval" stroke="none" stroke-width="1" fill="none" fill-rule="evenodd" transform="translate(72.000000, 76.000000)">
                        <mask id="mask-6" fill="white">
                            <use xlink:href="#path-5"></use>
                        </mask>
                        <use id="Mask" fill="#FCF6ED" xlink:href="#path-5"></use>
                        <ellipse fill="#49515E" mask="url(#mask-6)" cx="5.23196932" cy="1.96913475" rx="1.74390244" ry="1.94444444"></ellipse>
                    </g>
                    <path d="M48,32 L72.9965456,29.9169545" id="Path-2" stroke="#FFFAF2" stroke-width="3" fill="none"></path>
                </g>
            </g>
        </g>
    </g>
</svg>