<?xml version="1.0" encoding="UTF-8"?>
<svg width="176px" height="177px" viewBox="0 0 176 177" version="1.1" xmlns="http://www.w3.org/2000/svg" xmlns:xlink="http://www.w3.org/1999/xlink">
    <!-- Generator: Sketch 53 (72520) - https://sketchapp.com -->
    <title>Group Copy 4</title>
    <desc>Created with Sketch.</desc>
    <defs>
        <circle id="path-1" cx="88" cy="88.5" r="88"></circle>
    </defs>
    <g id="Page-1" stroke="none" stroke-width="1" fill="none" fill-rule="evenodd">
        <g id="home-screen" transform="translate(-464.000000, -1123.000000)">
            <g id="Group-Copy-4" transform="translate(464.000000, 1123.000000)">
                <mask id="mask-2" fill="white">
                    <use xlink:href="#path-1"></use>
                </mask>
                <use id="Mask" fill="#FBF4E9" xlink:href="#path-1"></use>
                <g id="Group-26" mask="url(#mask-2)">
                    <g transform="translate(-3.000000, 18.500000)">
                        <path d="M120.778652,96.21175 C140.664806,103.099047 155.841377,111.251581 166.308363,120.66935 C176.775349,130.087119 188.839228,159.707753 202.5,209.53125 L0,209.53125 C12.2337613,168.164678 21.4264438,142.772508 27.5780476,133.354738 C33.7296515,123.936969 49.3898068,110.89164 74.5585136,94.21875 L120.778652,96.21175 Z" id="Path-99" fill="#F4E6D4" fill-rule="evenodd"></path>
                        <path d="M112.30479,115.187231 C116.859222,109.054858 121.82424,103.747978 127.199879,99.2674039 L127.800121,99.9875537 C122.482802,104.419518 117.568557,109.67213 113.057423,115.746202 C108.522713,121.85202 101.548962,131.021208 92.1355542,143.254611 L91.7831948,143.712527 L91.4077526,143.273338 C86.9074203,138.008879 82.7076943,131.925483 78.8080893,125.023491 C74.8994172,118.10545 71.6045643,109.124674 68.9195155,98.0794767 L69.8304845,97.8580233 C72.4965853,108.825276 75.7625353,117.727271 79.6243191,124.562323 C83.3866605,131.22137 87.4273719,137.108327 91.7460075,142.223508 C100.97772,130.223595 107.830844,121.211232 112.30479,115.187231 Z" id="Path-100" fill="#FBF4E9" fill-rule="nonzero"></path>
                        <path d="M77.5837719,98.8579049 C68.6522988,99.1283436 61.3840926,98.2641726 55.7791536,96.265392 C50.1742145,94.2666114 45.6436633,92.0537958 42.1875,89.6269451 C47.9725516,77.0543749 51.4849307,66.6985174 52.7246375,58.5593726 C54.5841976,46.3506554 58.6239699,31.657078 60.8374678,25.9789872 C63.0509656,20.3008964 83.3632759,37.0029103 85.7971527,52.090697 C87.4197373,62.1492214 84.6819437,77.7382907 77.5837719,98.8579049 Z" id="Path-97" fill="#F4E6D4" fill-rule="evenodd"></path>
                        <path d="M74.9130431,100.546419 L77.6491495,86.3982451 C73.1251848,85.9604639 69.3852047,80.9585844 66.4292092,71.3926065 C63.4732138,61.8266286 62.9632505,50.4652166 64.8993192,37.3083704 L99.4584823,12.65625 L120,42.6675271 L120,97.9740234 C113.733866,105.543815 108.791609,111.405921 105.173229,115.560341 C101.554848,119.714761 96.8263942,126.038397 90.9878665,134.53125 C85.7187431,126.09436 81.8779649,119.52063 79.4655322,114.810059 C77.0530994,110.099488 75.5356031,105.344941 74.9130431,100.546419 Z" id="Path-86" fill="#FFFFFF" fill-rule="evenodd"></path>
                        <path d="M82.4601866,45.398759 C82.8607659,43.0482701 85.2779754,42.9365389 86.2231444,45.398759 C87.1683134,47.860979 86.2231444,54.3355482 87.6130988,56.3417227 C89.0030531,58.3478973 90.0221494,60.2731863 87.6130988,60.9229314 C85.2040482,61.5726765 82.7558956,62.34375 81.1991467,62.34375 C79.6423978,62.34375 78.1342185,61.9230595 79.0063791,59.1147136 C79.4701046,57.6215238 80.5982113,55.5409049 81.1991467,52.947922 C81.9517805,49.7003735 81.9517805,48.3819459 82.4601866,45.398759 Z" id="Path-87" fill="#F4E6D4" fill-rule="evenodd"></path>
                        <path d="M77.4681927,70.354881 C76.6772691,69.9224585 76.6772691,69.5682705 77.4681927,69.2923171 C78.6545781,68.8783869 79.9158562,68.0040942 80.8026711,67.6959122 C81.6894861,67.3877303 82.59009,68.3122761 83.5284571,68.3122761 C84.4668243,68.3122761 84.7116867,67.03125 85.7545055,67.03125 C86.7973242,67.03125 87.8094559,67.8684749 89.3557043,68.3122761 C90.3865366,68.6081436 91.2575894,68.7560773 91.9688626,68.7560773 C93.0937125,68.6174135 93.0937125,68.9341368 91.9688626,69.7062472 C90.2815878,70.8644128 88.4646986,72.8152188 87.0249761,73.7613549 C85.5852536,74.7074911 82.086729,75.0935581 80.2489525,73.060229 C79.0237682,71.7046763 78.0968483,70.8028937 77.4681927,70.354881 Z" id="Path-88" fill="#F4E6D4" fill-rule="evenodd"></path>
                        <path d="M75.7402948,45.8223948 C76.1998297,46.2698799 75.8223343,46.7808165 74.9595689,47.3421964 C74.0968035,47.9035763 70.6089166,49.1402308 67.5545452,47.3421964 C64.5001738,45.544162 69.2499332,44.53125 71.6908583,44.53125 C74.1317833,44.53125 75.2807599,45.3749097 75.7402948,45.8223948 Z" id="Path-89" fill="#FCF6ED" fill-rule="evenodd"></path>
                        <path d="M68.466736,44.8684643 C69.5167353,44.646811 70.7560101,44.53125 71.6776548,44.53125 C72.6389884,44.53125 73.4069493,44.6359696 74.0158097,44.7869225 C74.0464747,44.9148261 74.0625,45.0466726 74.0625,45.1813969 C74.0625,46.3756315 72.8033009,47.463913 71.25,47.463913 C69.6966991,47.463913 68.4375,46.3756315 68.4375,45.1813969 C68.4375,45.075121 68.447472,44.9706358 68.466736,44.8684643 Z" id="Combined-Shape" fill="#F4E6D4" fill-rule="evenodd"></path>
                        <g id="Group-25" stroke-width="1" fill="none" fill-rule="evenodd" transform="translate(90.937500, 44.531250)">
                            <path d="M11.0133537,1.8188356 C11.5647956,2.34090154 11.1118011,2.93699427 10.0764827,3.59193745 C9.04116421,4.24688064 4.85569997,5.68964426 1.19045425,3.59193745 C-2.47479147,1.49423065 3.22491985,0.3125 6.15402992,0.3125 C9.08313998,0.3125 10.4619119,1.29676966 11.0133537,1.8188356 Z" id="Path-89-Copy" fill="#FCF6ED"></path>
                            <path d="M3.39319794,0.569430616 C4.355649,0.399926095 5.35732595,0.3125 6.15402992,0.3125 C7.39613639,0.3125 8.35945575,0.489494744 9.0991211,0.733183129 C9.11397111,0.848735318 9.12162162,0.966466485 9.12162162,1.0859375 C9.12162162,2.63923836 7.82839007,3.8984375 6.23310811,3.8984375 C4.63782615,3.8984375 3.34459459,2.63923836 3.34459459,1.0859375 C3.34459459,0.909502579 3.3612799,0.736862167 3.39319794,0.569430616 Z" id="Combined-Shape" fill="#F4E6D4"></path>
                            <path d="M11.0139699,1.55265101 C11.3066404,1.8389956 11.3156411,2.14694569 11.1044071,2.47414429 C10.9186761,2.76183921 11.087745,0.5537609 5.63964715,0.5537609 C1.47191135,0.5537609 0.10540937,2.50399806 0.0292943007,2.25475922 C-0.381465745,0.909725219 3.62101597,-2.23415747e-13 6.16729951,0 C9.08878235,2.56336445e-13 10.463964,1.01453307 11.0139699,1.55265101 Z" id="Path-89-Copy-2" fill="#F4E6D4"></path>
                        </g>
                        <path d="M75.7408083,45.6957383 C75.9847003,45.9104967 75.9922009,46.1414593 75.8161726,46.3868582 C75.6613968,46.6026294 75.8022875,44.9465707 71.262206,44.9465707 C67.7890928,44.9465707 66.6503411,46.4092485 66.5869119,46.2223194 C66.2446119,45.2135439 69.5800133,44.53125 71.7019163,44.53125 C74.1364853,44.53125 75.28247,45.2921498 75.7408083,45.6957383 Z" id="Path-89" fill="#F4E6D4" fill-rule="evenodd"></path>
                        <path d="M75.8815374,41.71875 C77.4130639,41.71875 78.082719,38.6365204 77.7127135,38.160527 C77.3427081,37.6845337 72.7985824,36.09375 70.4250021,36.09375 C68.8426153,36.09375 66.7044201,36.7826757 64.0104167,38.160527 L63.75,40.8657561 C67.1288908,39.7146339 69.3538916,39.1390728 70.4250021,39.1390728 C72.031668,39.1390728 74.3500109,41.71875 75.8815374,41.71875 Z" id="Path-94" fill="#F4E6D4" fill-rule="evenodd"></path>
                        <path d="M91.0476904,41.7548159 C90.1102586,42.2677113 89.5128665,41.9589222 89.2555142,40.8284485 C88.9981619,39.6979748 88.9981619,38.6424658 89.2555142,37.6619215 C93.3393983,37.2416785 95.7976771,37.031557 96.6303506,37.031557 C97.8793608,37.031557 100.794804,36.962511 102.468027,38.8954797 C103.583509,40.1841256 104.74,41.4377157 105.9375,42.65625 C103.80847,40.7975483 101.840489,40.0282393 100.033557,40.348323 C98.2266249,40.6684067 95.231336,41.1372377 91.0476904,41.7548159 Z" id="Path-95" fill="#F4E6D4" fill-rule="evenodd"></path>
                        <path d="M71.9674067,40.78125 C67.6769802,40.78125 65.2448211,43.3408757 65.6727016,47.0030662 C66.1180208,50.8145121 70.2219944,53.8380967 74.0218932,52.7263754 C77.7368831,51.6394956 78.75,50.0586298 78.75,46.4304265 C78.75,43.2417007 76.1202763,40.78125 71.9674067,40.78125 Z M74.5483846,54.5259397 C69.5891323,55.9768484 64.385494,52.1430906 63.8103699,47.220656 C63.2488835,42.4149456 66.5828498,38.90625 71.9674067,38.90625 C77.1289552,38.90625 80.625,42.1772575 80.625,46.4304265 C80.625,50.8417407 79.1213406,53.1880482 74.5483846,54.5259397 Z" id="Path-90" fill="#F4E6D4" fill-rule="nonzero"></path>
                        <path d="M91.0199957,50.7833698 C92.6609762,53.4351408 95.6238374,54.408999 98.9607395,53.6716239 C102.060805,52.9865839 104.532558,46.5642856 102.098951,43.7980363 C99.6482862,41.0123986 94.721966,41.1631665 92.0473154,43.3937786 C89.787644,45.2783054 89.330096,48.0525472 91.0199957,50.7833698 Z M89.4255892,51.7700274 C87.2431978,48.2433541 87.871295,44.4350246 90.846418,41.9538237 C94.2419149,39.1220382 100.318936,38.9360536 103.506713,42.5595575 C106.919539,46.4388718 103.809171,54.5204699 99.3653095,55.5024565 C95.3025743,56.4002233 91.5218706,55.1575497 89.4255892,51.7700274 Z" id="Path-91" fill="#F4E6D4" fill-rule="nonzero"></path>
                        <path d="M80.2840504,45.7935001 L79.0909496,44.3470785 C80.4553929,43.2215985 82.0902077,42.65625 83.9571998,42.65625 C85.8210019,42.65625 87.7074099,43.3490623 89.6073228,44.705812 L88.5176772,46.231688 C86.9167363,45.0884377 85.3996108,44.53125 83.9571998,44.53125 C82.5179787,44.53125 81.306327,44.950261 80.2840504,45.7935001 Z" id="Path-92" fill="#F4E6D4" fill-rule="nonzero"></path>
                        <polygon id="Path-93" fill="#F4E6D4" fill-rule="nonzero" points="103.725957 46.3437615 104.399043 44.5937385 116.586543 49.2812385 115.913457 51.0312615"></polygon>
                        <path d="M77.6491495,86.3982451 C80.1829286,86.8477752 82.5312957,87.0725402 84.6942506,87.0725402 C86.8572055,87.0725402 89.4550298,86.8477752 92.4877237,86.3982451 C88.334302,87.8092066 84.7669661,89.6788854 81.7857161,92.0072815 C78.8044661,94.3356776 76.6450998,96.6353338 75.3076172,98.90625 L77.6491495,86.3982451 Z" id="Path-96" fill="#FBF4E9" fill-rule="evenodd"></path>
                        <path d="M92.6898737,97.394127 C100.337897,100.520709 108.084194,102.344828 115.928765,102.866486 C123.773335,103.388143 131.067913,103.629167 137.8125,103.589557 C137.526136,83.5873562 136.516346,67.5869706 134.783129,55.5884001 C132.183305,37.5905444 126.111599,18.2671707 120.681393,11.0308548 C117.061255,6.20664418 112.191654,4.23043676 106.07259,5.10223253 C97.0667136,1.10845071 89.8753604,-0.303532249 84.4985302,0.866283654 C76.433285,2.62100751 67.8342661,5.84996649 62.8144402,20.0081465 C59.4678896,29.4469331 57.5922428,35.3077324 57.1875,37.5905444 L65.2710827,38.5280444 C74.3147161,36.9729545 80.7238653,35.7503565 84.4985302,34.8602504 C90.1605277,33.5250913 94.3488684,32.6579665 98.0293225,27.6665341 C100.482959,24.3389124 102.262775,20.9954094 103.368771,17.6360249 C101.521769,29.5207349 102.423042,37.1308244 106.07259,40.4662933 C109.722137,43.8017622 113.007529,46.681388 115.928765,49.1051707 C113.007529,61.2756527 109.722137,70.7679224 106.07259,77.5819797 C102.423042,84.3960371 97.9621368,91.0000862 92.6898737,97.394127 Z" id="Path-98" fill="#F4E6D4" fill-rule="evenodd"></path>
                    </g>
                </g>
            </g>
        </g>
    </g>
</svg>