<?xml version="1.0" encoding="UTF-8"?>
<svg width="176px" height="177px" viewBox="0 0 176 177" version="1.1" xmlns="http://www.w3.org/2000/svg" xmlns:xlink="http://www.w3.org/1999/xlink">
    <!-- Generator: Sketch 53 (72520) - https://sketchapp.com -->
    <title>Group Copy 6</title>
    <desc>Created with Sketch.</desc>
    <defs>
        <circle id="path-1" cx="88" cy="88.5" r="88"></circle>
    </defs>
    <g id="Page-1" stroke="none" stroke-width="1" fill="none" fill-rule="evenodd">
        <g id="Group-Copy-6">
            <mask id="mask-2" fill="white">
                <use xlink:href="#path-1"></use>
            </mask>
            <use id="Mask" fill="#F8C37C" xlink:href="#path-1"></use>
            <g id="Group-26" mask="url(#mask-2)">
                <g transform="translate(-9.000000, 27.500000)">
                    <path d="M128.830562,102.625867 C150.04246,109.972317 166.230802,118.668353 177.395587,128.713973 C188.560372,138.759594 201.42851,170.354936 216,223.5 L0,223.5 C13.0493454,179.375657 22.8548734,152.290675 29.4165842,142.245054 C35.9782949,132.199434 52.6824606,118.284416 79.5290812,100.5 L128.830562,102.625867 Z" id="Path-99" fill="#FA8F59" fill-rule="evenodd"></path>
                    <path d="M119.791776,122.86638 C124.649837,116.325182 129.945855,110.66451 135.679871,105.885231 L136.320129,106.653391 C130.648322,111.380819 125.40646,116.983606 120.594585,123.462616 C115.757561,129.975488 108.318892,139.755955 98.2779245,152.804918 L97.9020745,153.293363 L97.5016028,152.824893 C92.7012484,147.209471 88.2215406,140.720515 84.061962,133.35839 C79.8927117,125.979147 76.3782019,116.399652 73.5141498,104.618108 L74.4858502,104.381892 C77.329691,116.080294 80.8133709,125.575756 84.932607,132.866478 C88.9457713,139.969461 93.2558633,146.248882 97.862408,151.705075 C107.709568,138.905168 115.019567,129.291981 119.791776,122.86638 Z" id="Path-100" fill="#E67B44" fill-rule="nonzero"></path>
                    <path d="M82.7560234,105.448432 C73.2291187,105.7369 65.4763655,104.815117 59.4977638,102.683085 C53.5191622,100.551052 48.6865742,98.1907155 45,95.6020748 C51.1707217,82.1913333 54.9172595,71.1450852 56.2396133,62.4633308 C58.2231441,49.440699 62.5322346,33.7675499 64.893299,27.7109197 C67.2543634,21.6542895 88.9208276,39.469771 91.5169629,55.5634101 C93.2477197,66.2925028 90.3274066,82.9208434 82.7560234,105.448432 Z" id="Path-97" fill="#49515E" fill-rule="evenodd"></path>
                    <path d="M79.9072459,107.249513 L82.8257594,92.1581281 C78.0001971,91.6911615 74.010885,86.3558234 70.8578232,76.1521136 C67.7047614,65.9484039 67.1608005,53.8295644 69.2259405,39.7955951 L106.089048,13.5 L128,45.5120289 L128,104.505625 C121.316124,112.580069 116.044383,118.832982 112.184777,123.264363 C108.325171,127.695745 103.281487,134.440957 97.0537243,143.5 C91.4333259,134.500651 87.3364959,127.488672 84.7632343,122.464063 C82.1899727,117.439454 80.5713099,112.367937 79.9072459,107.249513 Z" id="Path-86" fill="#FFDDAD" fill-rule="evenodd"></path>
                    <path d="M87.9575324,48.4253429 C88.384817,45.9181548 90.9631738,45.7989748 91.971354,48.4253429 C92.9795343,51.051711 91.971354,57.9579181 93.453972,60.0978376 C94.93659,62.2377571 96.023626,64.2913987 93.453972,64.9844602 C90.8843181,65.6775216 88.2729553,66.5 86.6124231,66.5 C84.951891,66.5 83.3431664,66.0512635 84.2734711,63.0556945 C84.7681115,61.4629587 85.9714254,59.2436319 86.6124231,56.4777834 C87.4152326,53.0137318 87.4152326,51.6074089 87.9575324,48.4253429 Z" id="Path-87" fill="#F8C37C" fill-rule="evenodd"></path>
                    <path d="M82.6327389,75.0452064 C81.789087,74.5839557 81.789087,74.2061552 82.6327389,73.9118049 C83.8982167,73.4702794 85.2435799,72.5377004 86.1895159,72.2089731 C87.1354519,71.8802457 88.096096,72.8664278 89.0970209,72.8664278 C90.0979459,72.8664278 90.3591325,71.5 91.4714725,71.5 C92.5838125,71.5 93.6634196,72.3930399 95.3127513,72.8664278 C96.4123057,73.1820198 97.3414287,73.3398158 98.1001201,73.3398158 C99.29996,73.1919078 99.29996,73.529746 98.1001201,74.3533303 C96.3003604,75.5887069 94.3623452,77.6695667 92.8266412,78.6787786 C91.2909371,79.6879905 87.5591776,80.0997953 85.5988827,77.930911 C84.2920194,76.4849881 83.3033048,75.5230866 82.6327389,75.0452064 Z" id="Path-88" fill="#FA8F59" fill-rule="evenodd"></path>
                    <path d="M80.7896478,48.8772211 C81.2798183,49.3545386 80.8771566,49.8995376 79.9568735,50.4983428 C79.0365904,51.097148 75.3161778,52.4162462 72.0581816,50.4983428 C68.8001854,48.5804395 73.8665954,47.5 76.4702488,47.5 C79.0739022,47.5 80.2994772,48.3999037 80.7896478,48.8772211 Z" id="Path-89" fill="#FCF6ED" fill-rule="evenodd"></path>
                    <path d="M73.0311851,47.8596952 C74.1511843,47.6232651 75.4730774,47.5 76.4561651,47.5 C77.4815876,47.5 78.3007459,47.6117009 78.950197,47.7727173 C78.9829063,47.9091478 79,48.0497841 79,48.19349 C79,49.4673403 77.6568542,50.6281738 76,50.6281738 C74.3431458,50.6281738 73,49.4673403 73,48.19349 C73,48.0801291 73.0106369,47.9686782 73.0311851,47.8596952 Z" id="Combined-Shape" fill="#49515E" fill-rule="evenodd"></path>
                    <g id="Group-25" stroke-width="1" fill="none" fill-rule="evenodd" transform="translate(97.000000, 47.500000)">
                        <path d="M11.7475773,1.94009131 C12.335782,2.49696164 11.8525879,3.13279389 10.7482482,3.83139995 C9.64390849,4.53000602 5.17941331,6.06895388 1.26981787,3.83139995 C-2.63977757,1.59384603 3.43991451,0.333333333 6.56429858,0.333333333 C9.68868265,0.333333333 11.1593727,1.38322097 11.7475773,1.94009131 Z" id="Path-89-Copy" fill="#FCF6ED"></path>
                        <path d="M3.61941113,0.607392657 C4.6460256,0.426587835 5.71448101,0.333333333 6.56429858,0.333333333 C7.88921215,0.333333333 8.9167528,0.522127727 9.70572917,0.782062004 C9.72156919,0.905317672 9.72972973,1.03089758 9.72972973,1.15833333 C9.72972973,2.81518758 8.35028274,4.15833333 6.64864865,4.15833333 C4.94701455,4.15833333 3.56756757,2.81518758 3.56756757,1.15833333 C3.56756757,0.970136085 3.58536523,0.785986311 3.61941113,0.607392657 Z" id="Combined-Shape" fill="#49515E"></path>
                        <path d="M11.7482346,1.65616108 C12.0604164,1.96159531 12.0700172,2.2900754 11.8447009,2.63908724 C11.6465879,2.94596182 11.826928,0.590678293 6.01562363,0.590678293 C1.57003877,0.590678293 0.112436661,2.67093126 0.031247254,2.4050765 C-0.406896795,0.970373567 3.86241703,-2.3831013e-13 6.57845281,0 C9.69470118,2.73425542e-13 11.1615616,1.08216861 11.7482346,1.65616108 Z" id="Path-89-Copy-2" fill="#49515E"></path>
                    </g>
                    <path d="M80.7901955,48.7421208 C81.050347,48.9711965 81.0583476,49.2175565 80.8705841,49.4793154 C80.7054899,49.7094714 80.8557733,47.9430087 76.0130197,47.9430087 C72.3083656,47.9430087 71.0936972,49.5031984 71.0260394,49.3038074 C70.6609193,48.2277802 74.2186809,47.5 76.482044,47.5 C79.0789176,47.5 80.3013013,48.3116265 80.7901955,48.7421208 Z" id="Path-89" fill="#49515E" fill-rule="evenodd"></path>
                    <path d="M80.9403066,44.5 C82.5739348,44.5 83.2882336,41.2122884 82.8935611,40.7045622 C82.4988886,40.1968359 77.6518212,38.5 75.1200023,38.5 C73.432123,38.5 71.1513815,39.2348541 68.2777778,40.7045622 L68,43.5901398 C71.6041502,42.3622762 73.9774843,41.7483444 75.1200023,41.7483444 C76.8337792,41.7483444 79.3066783,44.5 80.9403066,44.5 Z" id="Path-94" fill="#49515E" fill-rule="evenodd"></path>
                    <path d="M97.1175365,44.5384703 C96.1176092,45.0855588 95.480391,44.7561837 95.2058818,43.5503451 C94.9313727,42.3445065 94.9313727,41.2186302 95.2058818,40.1727163 C99.5620249,39.724457 102.184189,39.5003274 103.072374,39.5003274 C104.404652,39.5003274 107.514458,39.4266783 109.299229,41.4885117 C110.489076,42.8630673 111.722667,44.2002301 113,45.5 C110.729035,43.5173849 108.629855,42.6967886 106.702461,43.0382112 C104.775067,43.3796338 101.580092,43.8797202 97.1175365,44.5384703 Z" id="Path-95" fill="#49515E" fill-rule="evenodd"></path>
                    <path d="M76.7652338,43.5 C72.1887788,43.5 69.5944758,46.2302674 70.0508818,50.1366039 C70.5258889,54.2021462 74.9034607,57.4273031 78.9566861,56.2414671 C82.919342,55.0821286 84,53.3958718 84,49.5257883 C84,46.1244808 81.1949614,43.5 76.7652338,43.5 Z M79.5182769,58.1610024 C74.2284078,59.7086383 68.6778602,55.6192967 68.0643945,50.3686998 C67.4654758,45.2426086 71.0217065,41.5 76.7652338,41.5 C82.2708855,41.5 86,44.9890747 86,49.5257883 C86,54.23119 84.3960966,56.7339181 79.5182769,58.1610024 Z" id="Path-90" fill="#6EB6E7" fill-rule="nonzero"></path>
                    <path d="M97.0879954,54.1689278 C98.8383746,56.9974836 101.99876,58.0362656 105.558122,57.2497321 C108.864859,56.5190228 111.501395,49.6685713 108.905547,46.7179054 C106.291505,43.7465585 101.036764,43.9073776 98.1838031,46.2866972 C95.7734869,48.296859 95.2854358,51.2560503 97.0879954,54.1689278 Z M95.3872952,55.2213626 C93.059411,51.4595777 93.7293813,47.3973595 96.9028458,44.7507452 C100.524709,41.7301741 107.006865,41.5317905 110.407161,45.3968613 C114.047509,49.5347966 110.729782,58.1551679 105.989663,59.2026203 C101.656079,60.1602382 97.6233287,58.8347197 95.3872952,55.2213626 Z" id="Path-91" fill="#6EB6E7" fill-rule="nonzero"></path>
                    <path d="M85.6363205,48.8464001 L84.3636795,47.3035504 C85.8190858,46.1030384 87.5628883,45.5 89.5543464,45.5 C91.542402,45.5 93.5545705,46.2389998 95.5811443,47.6861995 L94.4188557,49.3138005 C92.7111853,48.0943335 91.0929182,47.5 89.5543464,47.5 C88.0191773,47.5 86.7267488,47.9469451 85.6363205,48.8464001 Z" id="Path-92" fill="#6EB6E7" fill-rule="nonzero"></path>
                    <polygon id="Path-93" fill="#6EB6E7" fill-rule="nonzero" points="110.641021 49.4333456 111.358979 47.5666544 124.358979 52.5666544 123.641021 54.4333456"></polygon>
                    <path d="M82.8257594,92.1581281 C85.5284572,92.6376269 88.033382,92.8773763 90.3405339,92.8773763 C92.6476858,92.8773763 95.4186985,92.6376269 98.6535719,92.1581281 C94.2232554,93.6631537 90.4180972,95.6574778 87.2380972,98.1411003 C84.0580972,100.624723 81.7547731,103.077689 80.328125,105.5 L82.8257594,92.1581281 Z" id="Path-96" fill="#F8C37C" fill-rule="evenodd"></path>
                    <path d="M98.8691986,103.887069 C107.027091,107.222089 115.289807,109.167817 123.657349,109.724252 C132.024891,110.280686 139.805774,110.537778 147,110.495527 C146.694545,89.1598466 145.617436,72.0927686 143.768671,59.2942934 C140.995525,40.0965807 134.519038,19.4849821 128.726819,11.7662451 C124.865339,6.62042046 119.671098,4.51246588 113.144096,5.44238136 C103.537828,1.18234742 95.8670511,-0.323767732 90.1317656,0.924035897 C81.5288373,2.79574134 72.3565506,6.23996425 67.0020696,21.3420229 C63.4324156,31.410062 61.4317257,37.6615812 61,40.0965807 L69.6224882,41.0965807 C79.2690305,39.4378181 86.1054563,38.1337136 90.1317656,37.1842671 C96.1712295,35.7600974 100.638793,34.8351643 104.564611,29.5109697 C107.181822,25.9615066 109.080293,22.3951033 110.260023,18.8117599 C108.289887,31.4887839 109.251245,39.6062127 113.144096,43.1640462 C117.036946,46.7218797 120.541364,49.7934806 123.657349,52.3788487 C120.541364,65.3606962 117.036946,75.4857839 113.144096,82.7541117 C109.251245,90.0224396 104.492946,97.0667586 98.8691986,103.887069 Z" id="Path-98" fill="#49515E" fill-rule="evenodd"></path>
                </g>
            </g>
        </g>
    </g>
</svg>