<?xml version="1.0" encoding="UTF-8"?>
<svg width="176px" height="177px" viewBox="0 0 176 177" version="1.1" xmlns="http://www.w3.org/2000/svg" xmlns:xlink="http://www.w3.org/1999/xlink">
    <!-- Generator: Sketch 53 (72520) - https://sketchapp.com -->
    <title>Group Copy 8</title>
    <desc>Created with Sketch.</desc>
    <defs>
        <circle id="path-1" cx="88" cy="88.5" r="88"></circle>
    </defs>
    <g id="Page-1" stroke="none" stroke-width="1" fill="none" fill-rule="evenodd">
        <g id="home-screen" transform="translate(-1118.000000, -1171.000000)">
            <g id="Group-Copy-8" transform="translate(1118.000000, 1171.000000)">
                <mask id="mask-2" fill="white">
                    <use xlink:href="#path-1"></use>
                </mask>
                <use id="Mask" fill="#6E7CA0" xlink:href="#path-1"></use>
                <g id="ofic" mask="url(#mask-2)">
                    <g transform="translate(-11.500000, 17.000000)">
                        <path d="M60.043852,110.422535 C68.5326548,110.422535 96.0000941,110.422535 142.446171,110.422535 C151.108976,110.77459 158.147755,115.508799 163.562509,124.625163 C168.977262,133.741527 181.34546,155.763805 200.667103,190.691998 C203.251811,194.845185 203.251811,198.194337 200.667103,200.739454 C198.082395,203.284571 179.641099,218.859683 145.343217,247.464789 L145.343217,219.568756 C160.685463,205.951783 169.952945,197.819452 173.145662,195.171762 C177.934739,191.200228 178.075741,188.901284 174.822689,184.003621 C172.653988,180.738512 164.841529,167.912008 151.385314,145.524109 L151.385314,183.106279 L52.5907328,183.106279 L52.5907328,145.524109 C40.7445433,165.624645 33.5780951,177.756635 31.0913887,181.920079 C27.361329,188.165245 26.1373095,189.989212 31.0913887,195.171762 C34.3941081,198.626795 43.0792473,206.759126 57.1468059,219.568756 L57.1468059,247.464789 L3.62994923,202.387229 C-0.00677563485,199.318 -0.4814499,195.41959 2.20592644,190.691998 C4.89330279,185.964407 17.1641658,163.942128 39.0185155,124.625163 C44.5466042,115.156744 51.5550495,110.422535 60.043852,110.422535 Z" id="Path-341" fill="#FFFFFF" fill-rule="nonzero"></path>
                        <path d="M87.1393443,110.422535 C87.1042462,124.078264 87.1042462,132.188799 87.1393443,134.75414 C87.1919912,138.602151 87.8486429,149.269735 101.056338,149.269735 C114.264033,149.269735 115.733363,139.060768 115.733363,134.75414 C115.733363,131.883054 115.733363,123.772519 115.733363,110.422535 L140.30898,110.422535 C140.30898,122.552192 140.30898,131.172081 140.30898,136.282202 C140.30898,143.947384 142.134395,163.924608 150.352113,163.924608 C150.352113,176.091736 150.352113,197.297246 150.352113,227.541138 L120.800158,243.521127 L101.643113,215.851861 L81.411351,243.521127 L51.7605634,227.541138 L51.7605634,163.924608 C59.5848642,158.169835 63.4970144,148.9557 63.4970144,136.282202 C63.4970144,123.608704 63.4970144,114.988815 63.4970144,110.422535 L87.1393443,110.422535 Z" id="Path-342" fill="#49515E" fill-rule="nonzero"></path>
                        <circle id="Oval" fill="#414A57" fill-rule="nonzero" cx="114.859155" cy="161.690141" r="3.94366197"></circle>
                        <path d="M102.220417,121.267606 C104.073472,125.260194 105,129.889468 105,135.155427 C105,140.421387 104.073472,144.336714 102.220417,146.901408 C100.12981,142.844061 99.084507,138.928734 99.084507,135.155427 C99.084507,131.38212 100.12981,126.752847 102.220417,121.267606 Z" id="Path-343" fill="#F8F1E7" fill-rule="nonzero"></path>
                        <path d="M102.220417,155.774648 C104.073472,164.374069 105,174.344813 105,185.686879 C105,197.028945 104.073472,205.461958 102.220417,210.985915 C100.12981,202.247014 99.084507,193.814002 99.084507,185.686879 C99.084507,177.559757 100.12981,167.589013 102.220417,155.774648 Z" id="Path-343-Copy" fill="#414A57" fill-rule="nonzero"></path>
                        <g id="Group-7" stroke-width="1" fill="none" fill-rule="evenodd" transform="translate(64.577465, 0.000000)">
                            <rect id="Rectangle" fill="#F8C37C" fill-rule="nonzero" x="22.9819171" y="81.9430574" width="28.7166168" height="27.8462348"></rect>
                            <path d="M11.5819855,19.3429096 L63.0984656,19.3429096 C67.776483,19.3429096 71.5687657,23.0650646 71.5687657,27.6565754 L71.5687657,45.4728049 L3.11168546,45.4728049 L3.11168546,27.6565754 C3.11168546,23.0650646 6.90396797,19.3429096 11.5819855,19.3429096 Z" id="Rectangle" fill="#49515E" fill-rule="nonzero"></path>
                            <rect id="Rectangle" fill="#FFDDAD" fill-rule="nonzero" x="1.70530257e-12" y="36.9890729" width="74.680451" height="16.6281153" rx="8.31405764"></rect>
                            <rect id="Rectangle" fill="#FFDDAD" fill-rule="nonzero" x="8.98931356" y="7.80503369" width="56.356081" height="82.4618778" rx="28.1780405"></rect>
                            <path d="M32.728696,11.9339438 C32.723106,9.37913032 33.5520151,7.35045172 35.215423,5.84790797 C36.912171,4.31524813 39.2701892,3.47458815 42.2894772,3.32592807 L42.2894772,3.32592846 C42.8095618,3.30032115 43.2178537,2.87897279 43.2178537,2.36786364 L43.217854,1.00034098 C43.217854,0.470551085 42.7802829,0.0410715151 42.2405114,0.0410715151 C42.220899,0.0410715151 42.2012909,0.0416509418 42.1817141,0.0428090079 C38.0848518,0.28515839 34.947021,1.37158247 32.7682207,3.30208125 C30.5913825,5.23084183 29.4659893,8.10273449 29.392041,11.9177592 L29.3920431,11.9177593 C29.3817758,12.447452 29.8109436,12.8850221 30.350616,12.8950995 C30.3568122,12.8952152 30.3630093,12.8952731 30.3692065,12.8952731 L31.7513576,12.8952716 C32.2911281,12.8952716 32.7286983,12.4657928 32.7286983,11.9360039 C32.7286983,11.9353172 32.7286977,11.9346305 32.728696,11.9339438 Z" id="Path-344" fill="#49515E" fill-rule="nonzero"></path>
                            <path d="M39.1303123,11.9590918 C39.1576163,10.8459457 39.4799467,10.0143105 40.0973029,9.46418622 C40.7216768,8.90780862 41.6609852,8.6401811 42.9152278,8.6613037 L42.9152278,8.66130571 C43.4549208,8.67039463 43.8999353,8.24834553 43.9091953,7.7186327 C43.9092914,7.71314757 43.9093393,7.7076617 43.9093393,7.70217574 L43.9093403,6.74274622 C43.9093403,6.21295589 43.4717688,5.78347594 42.931997,5.78347594 C42.9173349,5.78347594 42.9026748,5.78379979 42.8880277,5.7844472 C40.653051,5.88323584 38.9391249,6.45396158 37.7462493,7.49662451 C36.5677426,8.52672786 35.9714947,10.004241 35.9575063,11.929164 L35.9575083,11.929164 C35.9536585,12.4589391 36.3880963,12.8914699 36.9278528,12.8952487 C36.9301763,12.8952649 36.9325001,12.8952731 36.9348236,12.8952731 L38.1532534,12.8952727 C38.6838601,12.8952727 39.1175417,12.4797355 39.1303123,11.9590918 Z" id="Path-344-Copy" fill="#49515E" fill-rule="nonzero"></path>
                            <path d="M11.4095133,58.9980779 C14.7119895,61.4299585 18.361175,62.6458989 22.3570698,62.6458989 C26.3529646,62.6458989 31.3473498,60.3150271 37.3402255,55.6532839 C42.9361165,60.3150271 47.7637057,62.6458989 51.8229928,62.6458989 C55.8822801,62.6458989 59.6982617,61.4299585 63.2709376,58.9980779 C59.7657896,66.0437625 55.4045963,69.5666049 50.187358,69.5666049 C44.9701196,69.5666049 40.6877421,67.5750637 37.3402255,63.5919819 C33.6009809,67.5750637 29.0713252,69.5666049 23.7512586,69.5666049 C18.4311921,69.5666049 14.317277,66.0437625 11.4095133,58.9980779 Z" id="Path-346" fill="#49515E" fill-rule="nonzero"></path>
                            <path d="M34.8386224,43.3135211 C33.6434441,45.7296755 30.4253689,53.0964592 30.4253689,55.9226307 C30.4253689,58.7488019 33.7007223,59.0467768 36.9418764,59.0467768 C40.1830305,59.0467768 43.2178537,58.0799285 43.2178537,55.9226307 C43.2178537,53.7653326 39.9578349,45.0675633 39.1535457,43.3135211 C38.3492565,41.559479 36.0338006,40.8973668 34.8386224,43.3135211 Z" id="Path-345" fill="#F8C37C" fill-rule="nonzero"></path>
                            <path d="M17.9786271,44.7941064 C19.1602881,43.2958783 20.7756686,42.5467642 22.8247686,42.5467642 C24.8738686,42.5467642 26.4854211,43.2958783 27.6594263,44.7941064 C27.1128665,41.8530793 25.4994,40.3825658 22.8190267,40.3825658 C20.1386534,40.3825658 18.5251869,41.8530793 17.9786271,44.7941064 Z" id="Path-347" fill="#F8C37C" fill-rule="nonzero"></path>
                            <path d="M46.6752819,44.7941064 C47.8569429,43.2958783 49.4723232,42.5467642 51.5214234,42.5467642 C53.5705235,42.5467642 55.182076,43.2958783 56.356081,44.7941064 C55.8095212,41.8530793 54.1960548,40.3825658 51.5156815,40.3825658 C48.8353081,40.3825658 47.2218417,41.8530793 46.6752819,44.7941064 Z" id="Path-347-Copy" fill="#F8C37C" fill-rule="nonzero"></path>
                            <rect id="Rectangle" fill="#49515E" fill-rule="nonzero" x="14.5211988" y="29.5233884" width="15.9041701" height="4.41154078" rx="2.20577039"></rect>
                            <rect id="Rectangle-Copy-454" fill="#49515E" fill-rule="nonzero" x="43.5635963" y="29.5233884" width="15.9041701" height="4.41154078" rx="2.20577039"></rect>
                            <path d="M30.4253689,73.2994469 C31.5022215,75.7880084 33.8800079,77.0322892 37.5587276,77.0322892 C41.2374477,77.0322892 43.5848135,75.7880084 44.600825,73.2994469 L30.4253689,73.2994469 Z" id="Path-348" fill="#49515E" fill-rule="nonzero"></path>
                            <path d="M33.5370542,107.627987 L19.6370561,102.644293 C19.1300531,102.462512 18.5689074,102.718557 18.3837021,103.216184 C18.3444521,103.321645 18.3243699,103.43305 18.3243699,103.545327 L18.3243699,117.062414 C18.3243699,117.592204 18.761941,118.021683 19.3017122,118.021683 C19.4276817,118.021683 19.5524634,117.997781 19.6691894,117.951293 L33.5370542,112.428169 L33.5370542,107.627987 Z" id="Path-84" fill="#FA8F59" fill-rule="nonzero"></path>
                            <path d="M56.0103381,107.627987 L42.1103398,102.644293 C41.6033366,102.462512 41.042191,102.718557 40.8569856,103.216184 C40.8177358,103.321645 40.7976534,103.43305 40.7976534,103.545327 L40.7976534,117.062414 C40.7976534,117.592204 41.2352245,118.021683 41.7749957,118.021683 C41.9009654,118.021683 42.0257469,117.997781 42.1424728,117.951293 L56.0103381,112.428169 L56.0103381,107.627987 Z" id="Path-84-Copy" fill="#FA8F59" fill-rule="nonzero" transform="translate(48.403996, 110.303740) scale(-1, 1) translate(-48.403996, -110.303740) "></path>
                            <ellipse id="Oval" fill="#ED8653" fill-rule="nonzero" cx="37.5130968" cy="110.118845" rx="7.087728" ry="6.95666049"></ellipse>
                        </g>
                    </g>
                </g>
            </g>
        </g>
    </g>
</svg>