<?xml version="1.0" encoding="UTF-8"?>
<svg width="176px" height="177px" viewBox="0 0 176 177" version="1.1" xmlns="http://www.w3.org/2000/svg" xmlns:xlink="http://www.w3.org/1999/xlink">
    <!-- Generator: Sketch 53 (72520) - https://sketchapp.com -->
    <title>Group Copy</title>
    <desc>Created with Sketch.</desc>
    <defs>
        <circle id="path-1" cx="88" cy="88.5" r="88"></circle>
    </defs>
    <g id="Page-1" stroke="none" stroke-width="1" fill="none" fill-rule="evenodd">
        <g id="home-screen" transform="translate(-464.000000, -596.000000)">
            <g id="Group-Copy" transform="translate(464.000000, 596.000000)">
                <mask id="mask-2" fill="white">
                    <use xlink:href="#path-1"></use>
                </mask>
                <use id="Mask" fill="#F0E0CC" xlink:href="#path-1"></use>
                <g id="Group-3" mask="url(#mask-2)">
                    <g transform="translate(9.000000, 18.000000)">
                        <g id="Group-2" stroke-width="1" fill="none" transform="translate(81.500000, 173.500000) scale(-1, 1) translate(-81.500000, -173.500000) translate(5.500000, 98.500000)">
                            <path d="M37.1407644,20.4832879 C43.0360167,15.6936691 46.4125561,5.36328125 59.426995,1.77784402 C62.5706385,1.77784402 99.5181148,2.61809923 109.218313,2.61809923 C118.918512,2.61809923 117.066241,7.22292523 115.474368,27.7223648 C114.413119,41.3886579 112.365649,82.1478696 109.331959,150 L33.210405,146.473826 L42.513031,43.0799982 C35.0013517,31.2086039 33.2105962,23.6763671 37.1407644,20.4832879 Z" id="Path-53" fill="#FFFFFF"></path>
                            <polygon id="Rectangle" fill="#F58B44" transform="translate(70.601054, 47.097715) rotate(1.000000) translate(-70.601054, -47.097715) " points="72.7466997 20.6105047 77.7603701 20.6108072 78.1215598 73.5849247 63.0805488 73.5840171"></polygon>
                            <path d="M75.7721462,13.639518 L75.7721462,13.639518 C79.042007,13.6397153 81.6927035,16.2904123 81.6929001,19.5602732 L81.6929013,19.580231 C81.693098,22.8495825 79.0429242,25.500075 75.7735727,25.5002716 C75.7733349,25.5002716 75.7730972,25.5002716 75.7728594,25.5002716 L75.7728594,25.5002716 C72.5029986,25.5000743 69.8523021,22.8493773 69.8521055,19.5795164 L69.8521043,19.5595586 C69.8519076,16.2902071 72.5020814,13.6397146 75.7714329,13.639518 C75.7716707,13.639518 75.7719084,13.639518 75.7721462,13.639518 Z" id="Rectangle" fill="#F58B44" transform="translate(75.772503, 19.569895) rotate(1.000000) translate(-75.772503, -19.569895) "></path>
                            <path d="M34.7432432,17.902439 C39.6755186,8.9624712 44,1.77784402 61.3023313,1.77784402 C65.0127747,18.0676355 68.0285664,40.9396997 70.3497064,70.3940365 L94.8928805,2.61809923 C109.472597,2.10578045 117.921275,2.82057366 120.238914,4.76247885 C125.473461,9.14840549 120.877035,19.5101263 120.238914,27.7223648 C119.176993,41.3886579 118.660453,80.9724784 118.689293,146.473826 L39.6755186,146.473826 L42.5668536,43.0799982 C34.0629298,32.2549373 31.4550597,23.8624176 34.7432432,17.902439 Z" id="Path-53" fill="#565D68"></path>
                            <path d="M124.972689,10.0000113 C117.878491,10.3719835 111.91242,17.3944664 107.074475,31.0674599 C102.236529,44.7404535 97.6018886,65.2564381 93.1705522,92.6154138 L32.7930253,121.880137 L45.7720604,136.893593 C82.1490785,124.401152 103.319733,116.0628 109.284023,111.878538 C111.274513,110.482105 117.461617,105.404965 119.895976,99.145337 C128.45834,77.1283605 139,35.2553621 139,25.8370498 C139,15.2790241 134.32423,10.0000113 124.972689,10.0000113 Z" id="Path-55" fill="#49515E" transform="translate(85.896513, 73.446802) rotate(-12.000000) translate(-85.896513, -73.446802) "></path>
                            <path d="M48,3.92382813 C36.3299539,9.30794271 30.4949309,17.8590495 30.4949309,29.5771484 C30.4949309,41.2952474 29.7196024,61.5784505 28.1689453,90.4267578 L0.0439453125,131.641602 L15.0966797,141.205078 L41.671875,107.5 C42.7499824,60.6596405 43.5260241,33.3605384 44,25.6026936 C44.4739759,17.8448488 45.8073093,10.6185603 48,3.92382813 Z" id="Path-3" fill="#49515E"></path>
                        </g>
                        <path d="M51.3793069,30.5 L109.195828,30.5 L109.195828,51.3880364 C112.065276,53.1983621 113.5,55.8497776 113.5,59.3422828 C113.5,62.8347881 112.065276,65.4415402 109.195828,67.1625392 L109.195828,68.5917392 C109.195828,84.5573308 96.2531593,97.5 80.2875677,97.5 L80.2875677,97.5 C64.3219761,97.5 51.3793069,84.5573308 51.3793069,68.5917392 L51.3793069,67.068621 C48.7931023,65.7015893 47.5,63.116334 47.5,59.3128551 C47.5,55.5093762 48.7931023,52.9852721 51.3793069,51.7405428 L51.3793069,30.5 Z" id="Rectangle" fill="#FFDDAD"></path>
                        <path d="M71.5,89.5 L90.5,89.5 L90.5,101 C90.5,106.246705 86.2467051,110.5 81,110.5 L81,110.5 C75.7532949,110.5 71.5,106.246705 71.5,101 L71.5,89.5 Z" id="Rectangle" fill="#FFDDAD"></path>
                        <path d="M51.5,30.5 L109.5,30.5 L109.5,68.5 C109.5,84.5162577 96.5162577,97.5 80.5,97.5 C64.4837423,97.5 51.5,84.5162577 51.5,68.5 L51.5,30.5 Z M55.582506,32.3245178 L55.562191,32.4342328 C54.4502665,38.4393732 53.8907977,44.5337494 53.8907977,50.6409653 C53.8907977,54.055158 53.8907977,57.4693507 53.8907977,60.8835434 C53.8907977,65.7630511 56.3911214,71.2166754 64.37964,71.2166754 C72.3681587,71.2166754 92.8595477,71.2166754 96.6485238,71.2166754 C100.4375,71.2166754 107.224361,68.1799865 107.224361,60.8835434 C107.224361,57.5151463 107.224361,54.1467492 107.224361,50.7783521 C107.224361,44.581871 106.612003,38.4005556 105.396215,32.3245178 L55.582506,32.3245178 Z" id="Combined-Shape" fill="#49515E"></path>
                        <circle id="Oval" fill="#FFFAF2" cx="65" cy="53" r="4.5"></circle>
                        <circle id="Oval" fill="#49515E" cx="65.5" cy="53.5" r="2"></circle>
                        <circle id="Oval" fill="#FFFAF2" cx="96" cy="53" r="4.5"></circle>
                        <rect id="Rectangle" fill="#49515E" x="58.5" y="43.5" width="12" height="3" rx="1.5"></rect>
                        <rect id="Rectangle-Copy-15" fill="#49515E" x="90.5" y="43.5" width="12" height="3" rx="1.5"></rect>
                        <circle id="Oval" fill="#49515E" cx="96.5" cy="53.5" r="2"></circle>
                        <path d="M72.5,75.5 C74.8721048,76.3450937 77.433393,76.7676405 80.1838646,76.7676405 C82.9343362,76.7676405 85.7063813,76.3450937 88.5,75.5 C88.2024128,78.8333333 85.4613493,80.5 80.2768096,80.5 C75.0922699,80.5 72.5,78.8333333 72.5,75.5 Z" id="Path-60" fill="#F58B44"></path>
                        <path d="M80.7340867,52.5 L80.7340867,52.5 C81.5531093,52.5 82.2648034,53.0627716 82.4536322,53.8597294 L85.2846992,65.8083387 C85.6666932,67.4205566 84.6693997,69.0371848 83.0571818,69.4191788 C82.830547,69.4728769 82.5984299,69.5 82.3655205,69.5 L78.6553203,69.5 C76.9984661,69.5 75.6553203,68.1568542 75.6553203,66.5 C75.6553203,66.235281 75.6903577,65.9717264 75.7595198,65.7162019 L78.9716248,53.84884 C79.1870868,53.0527997 79.9094026,52.5 80.7340867,52.5 Z" id="Rectangle" fill="#F8C37C"></path>
                        <g id="Group-20" stroke-width="1" fill="none" transform="translate(45.500000, 0.500000)">
                            <path d="M4.45740719,23.6029687 C4.71138724,31.842607 8.32858723,37.0990138 15.3090072,39.3721892 C25.7796371,42.7819522 49.3260066,42.968678 56.2566384,39.3721892 C63.1872702,35.7757003 65.6155009,34.1773272 66.5295267,23.6029687 C67.1388773,16.5533964 46.4481707,16.5533964 4.45740719,23.6029687 Z" id="Path-61" fill="#565D68"></path>
                            <path d="M35.714477,0 C40.1904144,3.07466597 46.0166481,5.07466221 53.1931781,5.99998872 C63.9579731,7.3879785 61.4028342,7.20225081 65.0400889,7.30498778 C68.6773435,7.40772474 70.2458206,11.2305091 70.7930906,13.6002551 C71.3403606,15.9700011 70.7930906,19.1843881 69.2570376,21.0946782 C68.2330023,22.3682049 67.0205841,23.7576982 65.619783,25.2631579 L5.49311202,25.2631579 C2.63211613,22.9315997 0.886367227,20.5730795 0.255865309,18.1875974 C-0.689887568,14.6093742 1.1691941,10.5043403 2.8443373,8.90466403 C4.51948049,7.30498778 6.87916574,7.30498778 9.29157799,7.30498778 C10.4259074,7.30498778 15.479851,7.53046281 23.7769606,5.10783845 C26.0880924,4.43302462 30.0672645,2.7304118 35.714477,0 Z" id="Path-57" fill="#F58B44"></path>
                            <path d="M5.41255605,25.2631579 L65.5874439,25.2631579 C62.9287611,27.7894737 53.1116507,29.0526316 36.1361126,29.0526316 C19.1605745,29.0526316 8.919389,27.7894737 5.41255605,25.2631579 Z" id="Path-58" fill="#49515E"></path>
                            <rect id="Rectangle" fill="#565D68" x="20.3766816" y="10.754172" width="5.7309417" height="5.36842105"></rect>
                            <rect id="Rectangle-Copy-18" fill="#565D68" x="26.1678272" y="16.754172" width="5.7309417" height="5.36842105"></rect>
                            <rect id="Rectangle-Copy-16" fill="#565D68" x="32.4753363" y="10.754172" width="5.7309417" height="5.36842105"></rect>
                            <rect id="Rectangle-Copy-19" fill="#565D68" x="38.8430493" y="16.754172" width="5.7309417" height="5.36842105"></rect>
                            <rect id="Rectangle-Copy-17" fill="#565D68" x="44.8923767" y="10.754172" width="5.7309417" height="5.36842105"></rect>
                        </g>
                    </g>
                </g>
            </g>
        </g>
    </g>
</svg>