<svg width="1440" height="1024" viewBox="0 0 1440 1024" fill="none" xmlns="http://www.w3.org/2000/svg">
<g clip-path="url(#clip0)">
<path d="M1440 0H0V1043H1440V0Z" fill="white"/>
<path d="M1440 0H0V1024H1440V0Z" fill="#FBF4EB"/>
<path d="M53 0H10V1024H53V0Z" fill="#FFFAF2"/>
<path d="M474 0H431V1024H474V0Z" fill="#FFFAF2"/>
<path d="M895 0H852V1024H895V0Z" fill="#FFFAF2"/>
<path d="M106 0H63V1024H106V0Z" fill="#FFFAF2"/>
<path d="M527 0H484V1024H527V0Z" fill="#FFFAF2"/>
<path d="M948 0H905V1024H948V0Z" fill="#FFFAF2"/>
<path d="M158 0H115V1024H158V0Z" fill="#FFFAF2"/>
<path d="M579 0H536V1024H579V0Z" fill="#FFFAF2"/>
<path d="M1000 0H957V1024H1000V0Z" fill="#FFFAF2"/>
<path d="M211 0H168V1024H211V0Z" fill="#FFFAF2"/>
<path d="M632 0H589V1024H632V0Z" fill="#FFFAF2"/>
<path d="M1053 0H1010V1024H1053V0Z" fill="#FFFAF2"/>
<path d="M263 0H220V1024H263V0Z" fill="#FFFAF2"/>
<path d="M684 0H641V1024H684V0Z" fill="#FFFAF2"/>
<path d="M1105 0H1062V1024H1105V0Z" fill="#FFFAF2"/>
<path d="M316 0H273V1024H316V0Z" fill="#FFFAF2"/>
<path d="M737 0H694V1024H737V0Z" fill="#FFFAF2"/>
<path d="M1158 0H1115V1024H1158V0Z" fill="#FFFAF2"/>
<path d="M1316 0H1273V1024H1316V0Z" fill="#FFFAF2"/>
<path d="M368 0H325V1024H368V0Z" fill="#FFFAF2"/>
<path d="M789 0H746V1024H789V0Z" fill="#FFFAF2"/>
<path d="M1210 0H1167V1024H1210V0Z" fill="#FFFAF2"/>
<path d="M1368 0H1325V1024H1368V0Z" fill="#FFFAF2"/>
<path d="M421 0H378V1024H421V0Z" fill="#FFFAF2"/>
<path d="M842 0H799V1024H842V0Z" fill="#FFFAF2"/>
<path d="M1263 0H1220V1024H1263V0Z" fill="#FFFAF2"/>
<path d="M1421 0H1378V1024H1421V0Z" fill="#FFFAF2"/>
<path d="M1474 0H1431V1024H1474V0Z" fill="#FFFAF2"/>
<path d="M203.231 287.517C245.036 287.517 278.926 253.653 278.926 211.879C278.926 170.106 245.036 136.241 203.231 136.241C161.427 136.241 127.537 170.106 127.537 211.879C127.537 253.653 161.427 287.517 203.231 287.517Z" fill="white"/>
<path fill-rule="evenodd" clip-rule="evenodd" d="M205 293.879C160.265 293.879 124 257.641 124 212.94C124 168.238 160.265 132 205 132C249.735 132 286 168.238 286 212.94C286 257.641 249.735 293.879 205 293.879ZM205 280.161C242.153 280.161 272.271 250.065 272.271 212.94C272.271 175.814 242.153 145.719 205 145.719C167.847 145.719 137.729 175.814 137.729 212.94C137.729 250.065 167.847 280.161 205 280.161Z" fill="#808CAB"/>
<path d="M158.847 188.592L154.914 198.838L208.54 219.423L212.473 209.178L158.847 188.592Z" fill="#808CAB"/>
<path fill-rule="evenodd" clip-rule="evenodd" d="M212.363 248.532H201.397V209.861H212.363V248.532Z" fill="#808CAB"/>
<path d="M258.41 308.017H152.297V337H258.41V308.017Z" fill="#808CAB"/>
<path d="M896.231 287.517C938.036 287.517 971.926 253.653 971.926 211.879C971.926 170.106 938.036 136.241 896.231 136.241C854.427 136.241 820.537 170.106 820.537 211.879C820.537 253.653 854.427 287.517 896.231 287.517Z" fill="white"/>
<path fill-rule="evenodd" clip-rule="evenodd" d="M898 293.879C853.265 293.879 817 257.641 817 212.94C817 168.238 853.265 132 898 132C942.735 132 979 168.238 979 212.94C979 257.641 942.735 293.879 898 293.879ZM898 280.161C935.153 280.161 965.271 250.065 965.271 212.94C965.271 175.814 935.153 145.719 898 145.719C860.847 145.719 830.729 175.814 830.729 212.94C830.729 250.065 860.847 280.161 898 280.161Z" fill="#808CAB"/>
<path d="M902.18 162.287H891.206V219.728H902.18V162.287Z" fill="#808CAB"/>
<path fill-rule="evenodd" clip-rule="evenodd" d="M929.902 229.426L924.419 238.922L890.929 219.587L896.412 210.09L929.902 229.426Z" fill="#808CAB"/>
<path d="M951.41 308.017H845.297V337H951.41V308.017Z" fill="#808CAB"/>
<path d="M540.231 287.517C582.036 287.517 615.926 253.653 615.926 211.879C615.926 170.106 582.036 136.241 540.231 136.241C498.427 136.241 464.537 170.106 464.537 211.879C464.537 253.653 498.427 287.517 540.231 287.517Z" fill="white"/>
<path fill-rule="evenodd" clip-rule="evenodd" d="M542 293.879C497.265 293.879 461 257.641 461 212.94C461 168.238 497.265 132 542 132C586.735 132 623 168.238 623 212.94C623 257.641 586.735 293.879 542 293.879ZM542 280.161C579.153 280.161 609.271 250.065 609.271 212.94C609.271 175.814 579.153 145.719 542 145.719C504.847 145.719 474.729 175.814 474.729 212.94C474.729 250.065 504.847 280.161 542 280.161Z" fill="#808CAB"/>
<path d="M531.544 161.938L521.049 165.146L537.843 220.078L548.338 216.869L531.544 161.938Z" fill="#808CAB"/>
<path fill-rule="evenodd" clip-rule="evenodd" d="M562.963 186.316L571.239 193.511L545.869 222.696L537.592 215.502L562.963 186.316Z" fill="#808CAB"/>
<path fill-rule="evenodd" clip-rule="evenodd" d="M545.869 222.696L537.593 220.077L545.869 215.295V222.696Z" fill="#808CAB"/>
<path d="M595.41 308.017H489.297V337H595.41V308.017Z" fill="#808CAB"/>
<path d="M1225.23 287.517C1267.04 287.517 1300.93 253.653 1300.93 211.879C1300.93 170.106 1267.04 136.241 1225.23 136.241C1183.43 136.241 1149.54 170.106 1149.54 211.879C1149.54 253.653 1183.43 287.517 1225.23 287.517Z" fill="white"/>
<path fill-rule="evenodd" clip-rule="evenodd" d="M1227 293.879C1182.26 293.879 1146 257.641 1146 212.94C1146 168.238 1182.26 132 1227 132C1271.74 132 1308 168.238 1308 212.94C1308 257.641 1271.74 293.879 1227 293.879ZM1227 280.161C1264.15 280.161 1294.27 250.065 1294.27 212.94C1294.27 175.814 1264.15 145.719 1227 145.719C1189.85 145.719 1159.73 175.814 1159.73 212.94C1159.73 250.065 1189.85 280.161 1227 280.161Z" fill="#808CAB"/>
<path d="M1183.95 246.582L1191.43 254.608L1233.44 215.433L1225.96 207.407L1183.95 246.582Z" fill="#808CAB"/>
<path fill-rule="evenodd" clip-rule="evenodd" d="M1222.93 172.171H1233.9V214.842H1222.93V172.171Z" fill="#808CAB"/>
<path d="M1280.41 308.017H1174.3V337H1280.41V308.017Z" fill="#808CAB"/>
<path d="M1441 52H-1V74.3509H1441V52Z" fill="#808CAB"/>
<path fill-rule="evenodd" clip-rule="evenodd" d="M186.979 73.4912H222.032L228.604 101H180.406L186.979 73.4912Z" fill="#808CAB"/>
<path fill-rule="evenodd" clip-rule="evenodd" d="M525.568 73.4912H560.621L567.193 101H518.995L525.568 73.4912Z" fill="#808CAB"/>
<path fill-rule="evenodd" clip-rule="evenodd" d="M879.721 73.4912H914.774L921.346 101H873.148L879.721 73.4912Z" fill="#808CAB"/>
<path fill-rule="evenodd" clip-rule="evenodd" d="M1210.04 73.4912H1245.09L1251.66 101H1203.46L1210.04 73.4912Z" fill="#808CAB"/>
</g>
<defs>
<clipPath id="clip0">
<rect width="1440" height="1024" fill="white"/>
</clipPath>
</defs>
</svg>
