<svg width="1390" height="403" viewBox="0 0 1390 403" fill="none" xmlns="http://www.w3.org/2000/svg">
<path d="M1383 234H97C93.134 234 90 236.351 90 239.25V381.75C90 384.649 93.134 387 97 387H1383C1386.87 387 1390 384.649 1390 381.75V239.25C1390 236.351 1386.87 234 1383 234Z" fill="#FFFAF2"/>
<path d="M1383 189.078H97C93.134 189.078 90 192.212 90 196.078V228.078C90 231.944 93.134 235.078 97 235.078H1383C1386.87 235.078 1390 231.944 1390 228.078V196.078C1390 192.212 1386.87 189.078 1383 189.078Z" fill="#49515E"/>
<path fill-rule="evenodd" clip-rule="evenodd" d="M1029.05 26.09L1037.23 24.046L1060.2 116.275L1052.01 118.319L1029.05 26.09Z" fill="#49515E"/>
<path fill-rule="evenodd" clip-rule="evenodd" d="M1056.43 0.73639L1064.83 1.71797e-06L1073.11 94.6907L1064.7 95.4271L1056.43 0.73639Z" fill="#49515E"/>
<path fill-rule="evenodd" clip-rule="evenodd" d="M1095.18 37.8297L1103.43 39.5863L1083.69 132.562L1075.44 130.805L1095.18 37.8297Z" fill="#49515E"/>
<path fill-rule="evenodd" clip-rule="evenodd" d="M1036 84.0777H1102L1092.57 185.078H1045.43L1036 84.0777Z" fill="#49515E"/>
<path fill-rule="evenodd" clip-rule="evenodd" d="M1179 61.0778H1330.98C1325.76 65.512 1323.15 71.5717 1323.15 79.2569C1323.15 86.9421 1325.76 93.8188 1330.98 99.8869H1179C1173.48 99.8869 1169 95.4098 1169 89.8869V71.0778C1169 65.5549 1173.48 61.0778 1179 61.0778Z" fill="#49515E"/>
<path fill-rule="evenodd" clip-rule="evenodd" d="M1179 146.269H1330.98C1325.76 150.703 1323.15 156.763 1323.15 164.448C1323.15 172.133 1325.76 179.01 1330.98 185.078H1179C1173.48 185.078 1169 180.601 1169 175.078V156.269C1169 150.746 1173.48 146.269 1179 146.269Z" fill="#49515E"/>
<path fill-rule="evenodd" clip-rule="evenodd" d="M1211.02 103.673H1363C1357.78 108.107 1355.16 114.167 1355.16 121.852C1355.16 129.538 1357.78 136.414 1363 142.482H1211.02C1205.5 142.482 1201.02 138.005 1201.02 132.482V113.673C1201.02 108.15 1205.5 103.673 1211.02 103.673Z" fill="#49515E"/>
<path d="M304.8 289.478L308 282.678C302.2 279.378 296.1 277.578 290 277.578C267.8 277.578 259.1 297.778 259.1 316.978C259.1 335.578 267.9 354.778 288.2 354.778C296.8 354.778 305.3 351.278 311.5 345.978V318.278H288.4V323.878L302.9 325.678V343.578C299.1 346.078 294.6 347.378 290.2 347.378C273.4 347.378 269 329.678 269 316.878C269 303.778 274.6 284.978 290.3 284.978C296.4 284.978 300.7 287.078 304.8 289.478ZM374.877 353.078C368.877 341.778 362.477 330.978 356.877 319.978C366.677 316.078 371.777 308.778 371.777 299.678C371.777 289.078 366.477 279.278 345.577 279.278H327.977V353.078H337.677V321.878H347.477L364.077 353.078H374.877ZM346.577 314.978H337.677V286.378H344.177C355.277 286.378 361.877 291.278 361.877 300.478C361.877 309.378 355.277 314.978 346.577 314.978ZM432.975 353.078C425.575 329.178 416.775 301.778 409.375 277.878H400.375C392.975 301.778 384.275 329.278 376.875 353.078H384.675L391.575 331.278H415.875L422.775 353.078H432.975ZM413.775 324.778H393.675L403.775 292.078L413.775 324.778ZM493.03 353.078V279.278H485.03V335.078H484.43L451.83 279.278H442.43V353.078H450.33V295.778H450.93L484.43 353.078H493.03ZM564.559 315.278C564.559 295.278 554.459 279.278 532.959 279.278H512.059V353.078H532.959C554.559 353.078 564.559 334.778 564.559 315.278ZM554.759 315.078C554.759 328.178 548.359 345.578 532.759 345.578H521.759V286.378H532.759C548.359 286.378 554.759 301.478 554.759 315.078ZM650.174 331.878C650.174 321.878 642.374 315.578 633.074 313.978L632.974 313.778C640.774 311.678 646.774 305.878 646.774 297.478C646.774 285.378 636.074 279.278 625.374 279.278H603.074V353.078H625.374C637.974 353.078 650.174 345.878 650.174 331.878ZM637.074 298.778C637.074 305.978 631.474 310.778 623.974 310.778H612.774V286.378H623.974C630.974 286.378 637.074 291.078 637.074 298.778ZM640.374 331.778C640.374 340.978 632.874 345.978 624.274 345.978H612.774V317.678H624.274C632.874 317.678 640.374 322.678 640.374 331.778ZM705.319 353.078V345.578H673.419V318.078H699.319V310.678H673.419V286.778H705.319V279.278H663.719V353.078H705.319ZM763.255 353.078C757.255 341.778 750.855 330.978 745.255 319.978C755.055 316.078 760.155 308.778 760.155 299.678C760.155 289.078 754.855 279.278 733.955 279.278H716.355V353.078H726.055V321.878H735.855L752.455 353.078H763.255ZM734.955 314.978H726.055V286.378H732.555C743.655 286.378 750.255 291.278 750.255 300.478C750.255 309.378 743.655 314.978 734.955 314.978ZM821.654 353.078C815.654 341.778 809.254 330.978 803.654 319.978C813.454 316.078 818.554 308.778 818.554 299.678C818.554 289.078 813.254 279.278 792.354 279.278H774.754V353.078H784.454V321.878H794.254L810.854 353.078H821.654ZM793.354 314.978H784.454V286.378H790.954C802.054 286.378 808.654 291.278 808.654 300.478C808.654 309.378 802.054 314.978 793.354 314.978ZM876.613 279.278H867.913L850.613 312.678H850.213L832.913 279.278H822.113C829.113 292.878 837.513 308.778 844.513 322.378V353.078H854.313V322.178L876.613 279.278ZM964.545 353.078V279.278H954.845V310.678H922.345V279.278H912.645V353.078H922.345V318.078H954.845V353.078H964.545ZM978.043 316.078C978.043 333.678 985.643 354.778 1007.94 354.778C1030.24 354.778 1037.84 333.678 1037.84 316.078C1037.84 298.478 1030.24 277.578 1007.94 277.578C985.643 277.578 978.043 298.478 978.043 316.078ZM987.743 316.078C987.743 302.578 992.643 284.978 1007.94 284.978C1023.24 284.978 1028.14 302.578 1028.14 316.078C1028.14 329.578 1023.24 347.378 1007.94 347.378C992.643 347.378 987.743 329.578 987.743 316.078ZM1092.02 286.778V279.278H1038.32V286.778H1060.22V353.078H1070.12V286.778H1092.02ZM1144.09 353.078V345.578H1112.19V318.078H1138.09V310.678H1112.19V286.778H1144.09V279.278H1102.49V353.078H1144.09ZM1196.63 353.078V345.578H1164.83V279.278H1155.13V353.078H1196.63Z" fill="#F8F1E7"/>
<path fill-rule="evenodd" clip-rule="evenodd" d="M290 166.078H389C381.936 139.411 365.436 126.078 339.5 126.078C313.564 126.078 297.064 139.411 290 166.078Z" fill="#F8C37C"/>
<path fill-rule="evenodd" clip-rule="evenodd" d="M289.039 171.078H389.961L392 184.078H287L289.039 171.078Z" fill="#F8C37C"/>
<path fill-rule="evenodd" clip-rule="evenodd" d="M331 108.078H349C354.523 108.078 359 112.555 359 118.078H321C321 112.555 325.477 108.078 331 108.078Z" fill="#F8C37C"/>
<path d="M345 117.078H335V127.078H345V117.078Z" fill="#F8C37C"/>
<path d="M345 165.078H335V172.078H345V165.078Z" fill="#F8C37C"/>
<path fill-rule="evenodd" clip-rule="evenodd" d="M58 388.078C67.0771 332.191 100.639 285.515 158.687 248.05C216.734 210.584 292.505 193.772 386 197.614C322.946 218.51 276.284 246.019 246.013 280.141C215.742 314.262 193.633 350.241 179.686 388.078H58Z" fill="#F47C30"/>
<path d="M104 388.078C122.009 339.923 153.872 299.348 199.589 266.352C245.305 233.357 305.776 210.265 381 197.078" stroke="#E86D1F" stroke-width="2"/>
<path d="M147 315.078L154 262.078" stroke="#E86D1F" stroke-width="2"/>
<path d="M176 287.078L222 290.078" stroke="#E86D1F" stroke-width="2"/>
<path d="M242 242.078L247 220.078" stroke="#E86D1F" stroke-width="2"/>
<path fill-rule="evenodd" clip-rule="evenodd" d="M281.693 337.078C290.855 340.572 293.909 350.808 290.855 367.785C287.801 384.761 281.586 396.192 272.211 402.078C266.865 385.59 257.771 371.867 244.928 360.908C232.086 349.949 244.341 342.006 281.693 337.078Z" fill="#F47C30"/>
<path fill-rule="evenodd" clip-rule="evenodd" d="M137 387.078C147.572 366.762 160.362 350.103 175.369 337.1C190.377 324.096 203.339 316.756 214.255 315.078L281 337.1C265.826 340.616 252.757 348.717 241.792 361.405C230.828 374.093 224.208 382.65 221.933 387.078H137Z" fill="#F6914D"/>
<path fill-rule="evenodd" clip-rule="evenodd" d="M110.468 388.078C104.521 365.703 100.394 320.442 98.0868 252.296C95.7793 184.149 101.75 125.409 116 76.0778C73.0257 142.775 43.9319 199.328 28.7185 245.737C13.5051 292.145 3.93231 339.592 0 388.078H110.468Z" fill="#F6914D"/>
</svg>
