<svg id="Layer_1" data-name="Layer 1" xmlns="http://www.w3.org/2000/svg" viewBox="0 0 1974 1025"><defs><style>.cls-1{fill:#f4eadc;}.cls-2{fill:#f9f2e8;}.cls-3{fill:#fffaf2;}.cls-4{fill:#f47c30;}.cls-5{fill:#f6914d;}.cls-6{fill:#ffddad;}</style></defs><title>background</title><g id="Page-1"><g id="Group-73"><g id="Rectangle"><rect class="cls-1" width="1974" height="1024"/></g><g id="Rectangle-Copy-433"><polygon class="cls-2" points="0 671 1974 671 1974 689 0 689 0 671"/></g><g id="Rectangle-Copy-491"><polygon class="cls-2" points="1 304 1970 304 1970 322 1 322 1 304"/></g><g id="Rectangle-2" data-name="Rectangle"><rect class="cls-3" x="627" y="680" width="134" height="25"/></g><g id="Rectangle-Copy-489"><rect class="cls-3" x="346" y="680" width="134" height="25"/></g><g id="Rectangle-Copy-530"><rect class="cls-3" x="63" y="680" width="134" height="25"/></g><g id="Rectangle-Copy-492"><rect class="cls-3" x="783" y="313" width="134" height="25"/></g><g id="Rectangle-Copy-493"><rect class="cls-3" x="503" y="313" width="134" height="25"/></g><g id="Rectangle-Copy-528"><rect class="cls-3" x="217" y="313" width="134" height="25"/></g><g id="Rectangle-Copy-434"><rect class="cls-3" x="1210" y="680" width="134" height="25"/></g><g id="Rectangle-Copy-487"><rect class="cls-3" x="1491" y="680" width="134" height="25"/></g><g id="Rectangle-Copy-531"><rect class="cls-3" x="1772" y="680" width="134" height="25"/></g><g id="Rectangle-Copy-494"><rect class="cls-3" x="1062" y="313" width="134" height="25"/></g><g id="Rectangle-Copy-495"><rect class="cls-3" x="1345" y="313" width="134" height="25"/></g><g id="Rectangle-Copy-529"><rect class="cls-3" x="1623" y="313" width="134" height="25"/></g><g id="Rectangle-3" data-name="Rectangle"><rect class="cls-1" x="570" y="473" width="249" height="184"/></g><g id="Rectangle-Copy-471"><rect class="cls-1" x="639" y="841" width="248" height="184"/></g><g id="Rectangle-Copy-496"><rect class="cls-1" x="731" y="106" width="245" height="184"/></g><g id="Rectangle-Copy-504"><rect class="cls-1" x="1289" y="106" width="245" height="184"/></g><g id="Rectangle-Copy-516"><rect class="cls-1" x="1565" y="106" width="249" height="184"/></g><g id="Rectangle-Copy-464"><rect class="cls-1" x="292" y="473" width="249" height="184"/></g><g id="Rectangle-Copy-472"><rect class="cls-1" x="357" y="841" width="246" height="184"/></g><g id="Rectangle-Copy-520"><rect class="cls-1" x="75" y="841" width="246" height="184"/></g><g id="Rectangle-Copy-497"><rect class="cls-1" x="448" y="106" width="249" height="184"/></g><g id="Rectangle-Copy-512"><rect class="cls-1" x="165" y="106" width="253" height="184"/></g><g id="Rectangle-Copy-505"><rect class="cls-1" x="1011" y="106" width="250" height="184"/></g><g id="Rectangle-Copy-435"><rect class="cls-1" x="1157" y="473" width="250" height="184"/></g><g id="Rectangle-Copy-473"><rect class="cls-1" x="1102" y="841" width="249" height="184"/></g><g id="Rectangle-Copy-460"><rect class="cls-1" x="1438" y="473" width="250" height="183"/></g><g id="Rectangle-Copy-474"><rect class="cls-1" x="1388" y="841" width="241" height="183"/></g><g id="Rectangle-Copy-524"><rect class="cls-1" x="1668.91" y="841" width="241" height="183"/></g><g id="Path-185"><path class="cls-4" d="M770.68,608.58q7.87-13.7,12.74-14.91c4.87-1.21,8.26-8.37,2.4-11.13s-2.67-9.36,2-11.3-7.93-5.83-12.38-9.5-1.46-13.21-9.47-16-13.84-7-25.3-1.32-11.46,10-21.8,17.77-5.55,20.73,3.35,26.4q8.9,5.67,14.73,5.92.88,7.79.4,10.66T770.68,608.58Z"/></g><g id="Path-187"><path class="cls-4" d="M575.45,548.13q10.44-2.15,14.39-9.44c3.94-7.29,12.42-13.69,17.32-10.06q4.9,3.63,22.84,6.55.51,10.63-3.49,16c-4,5.36,10.38-5.37,17.87,6.17,2.09,3.21-3.7,8.87-3.27,11.57a12.48,12.48,0,0,0,6,9.29q-7.9,9.87-11,18.44c-3.11,8.57-17.49,15.89-26.43,13.79s-17.57-.91-19.9-11.75q-2.34-10.84-14.51-28Z"/></g><g id="Combined-Shape"><path class="cls-3" d="M564,608H828v49H564Zm95.06,18.27a7.06,7.06,0,1,0,0,14.12h68a7.06,7.06,0,1,0,0-14.12Z"/></g><g id="Combined-Shape-Copy-32"><path class="cls-3" d="M722,241H986v49H722Zm95.06,18.27a7.06,7.06,0,1,0,0,14.12h68a7.06,7.06,0,1,0,0-14.12Z"/></g><g id="Combined-Shape-Copy-36"><path class="cls-3" d="M1283,241h264v49H1283Zm95.06,18.27a7.06,7.06,0,0,0,0,14.12h68a7.06,7.06,0,0,0,0-14.12Z"/></g><g id="Combined-Shape-Copy-42"><path class="cls-3" d="M1563,241h264v49H1563Zm95.06,18.27a7.06,7.06,0,0,0,0,14.12h68a7.06,7.06,0,0,0,0-14.12Z"/></g><g id="Combined-Shape-Copy-22"><path class="cls-3" d="M283,608H547v49H283Zm95.06,18.27a7.06,7.06,0,1,0,0,14.12h68a7.06,7.06,0,1,0,0-14.12Z"/></g><g id="Combined-Shape-Copy-37"><path class="cls-3" d="M1003,241h264v49H1003Zm95.06,18.27a7.06,7.06,0,0,0,0,14.12h68a7.06,7.06,0,0,0,0-14.12Z"/></g><g id="Combined-Shape-Copy-17"><path class="cls-2" d="M564,424H828v49H564Zm95.06,18.27a7.06,7.06,0,1,0,0,14.12h68a7.06,7.06,0,1,0,0-14.12Z"/></g><g id="Combined-Shape-Copy-26"><path class="cls-2" d="M630,792H894v49H630Zm95.06,18.27a7.06,7.06,0,1,0,0,14.12h68a7.06,7.06,0,1,0,0-14.12Z"/></g><g id="Group-70"><g id="Path-270"><path class="cls-4" d="M656.77,808.57q-3.29-3.83-2.35-5.34c.94-1.51,1.93,3.3,4.27,2.67q2.34-.63,4.59-4.23,1.78,5.13-1.19,7.87T656.77,808.57Z"/></g><g id="Path-269"><path class="cls-5" d="M646.42,890.6q-1.1-16.7,1.36-28.76c2.45-12.07.82-17.21,2-29.49s3-26.37,8.69-26,8.55,10.88,10.68,27.66,1.23,26,.61,35.09-1.63,32.18-13.81,43.79Q643.8,924.49,646.42,890.6Z"/></g></g><g id="Group-70-Copy-10"><g id="Path-270-2" data-name="Path-270"><path class="cls-4" d="M374.77,808.57q-3.29-3.83-2.35-5.34c.94-1.51,1.93,3.3,4.27,2.67q2.34-.63,4.59-4.23,1.78,5.13-1.19,7.87T374.77,808.57Z"/></g></g><g id="Group-70-Copy"><g id="Path-270-3" data-name="Path-270"><path class="cls-4" d="M702.6,806q-3.45-3.81-2.58-5.21c.87-1.4,2.07,3.24,4.38,2.74q2.31-.5,4.41-3.85,2,5-.84,7.48T702.6,806Z"/></g><g id="Path-269-2" data-name="Path-269"><path class="cls-5" d="M695.89,883.93q-1.8-15.93.13-27.31c1.92-11.37.08-16.34.77-28s1.88-25,7.52-24.39,9,10.72,11.78,26.77,2.32,24.79,2.09,33.41-.25,30.54-11.85,41.08Q694.73,916.06,695.89,883.93Z"/></g></g><g id="Group-70-Copy-6"><g id="Path-270-4" data-name="Path-270"><path class="cls-4" d="M722.6,883q-3-3.53-2.13-4.93c.87-1.4,1.75,3,3.91,2.44q2.16-.6,4.25-3.95,1.61,4.74-1.14,7.3T722.6,883Z"/></g><g id="Path-269-3" data-name="Path-269"><path class="cls-5" d="M712.67,958.91q-.89-15.37,1.43-26.49c2.32-11.13.86-15.85,2-27.16s2.93-24.3,8.11-24,7.75,10,9.59,25.4,1,23.94.33,32.3-1.7,29.64-12.91,40.42Q710.06,990.13,712.67,958.91Z"/></g></g><g id="Group-70-Copy-2"><g id="Path-270-5" data-name="Path-270"><path class="cls-4" d="M745,809q-3.62-4.06-2.67-5.59c1-1.53,2.15,3.47,4.62,2.89q2.47-.58,4.76-4.23,2.06,5.36-1,8.1T745,809Z"/></g><g id="Path-269-4" data-name="Path-269"><path class="cls-5" d="M735.37,895.48q-1.49-17.66.92-30.36c2.41-12.7.55-18.17,1.63-31.11s2.75-27.8,8.85-27.33,9.4,11.66,12,29.43,1.81,27.5,1.31,37.08-1.14,34-14,46Q733.2,931.24,735.37,895.48Z"/></g></g><g id="Group-70-Copy-5"><g id="Path-270-6" data-name="Path-270"><path class="cls-4" d="M675,879.73q-3.84-4.2-2.89-5.73c1-1.53,2.31,3.57,4.86,3q2.55-.53,4.83-4.19,2.25,5.48-.87,8.19T675,879.73Z"/></g><g id="Path-269-5" data-name="Path-269"><path class="cls-5" d="M667.08,967.22q-1.95-17.95.26-30.77c2.21-12.83.16-18.42,1-31.52s2.22-28.13,8.55-27.51,10,12,13.11,30.12,2.5,27.93,2.21,37.64-.41,34.42-13.48,46.34Q665.63,1003.44,667.08,967.22Z"/></g></g><g id="Group-70-Copy-7"><g id="Path-270-7" data-name="Path-270"><path class="cls-4" d="M766.19,880.1q-3.73-4.13-2.78-5.66c1-1.53,2.23,3.52,4.74,3q2.51-.55,4.8-4.21,2.16,5.42-.94,8.14T766.19,880.1Z"/></g><g id="Path-269-6" data-name="Path-269"><path class="cls-5" d="M757.42,967.08q-1.72-17.8.59-30.57c2.31-12.76.36-18.29,1.3-31.32s2.48-28,8.7-27.42,9.7,11.85,12.56,29.77,2.16,27.71,1.76,37.36-.78,34.19-13.75,46.18Q755.61,1003.07,757.42,967.08Z"/></g></g><g id="Group-70-Copy-9"><g id="Path-270-8" data-name="Path-270"><path class="cls-4" d="M862,879.73q-3.84-4.2-2.89-5.73c1-1.53,2.31,3.57,4.86,3q2.55-.53,4.83-4.19,2.25,5.48-.87,8.19T862,879.73Z"/></g><g id="Path-269-7" data-name="Path-269"><path class="cls-5" d="M854.08,967.22q-1.95-17.95.26-30.77c2.21-12.83.16-18.42,1-31.52s2.22-28.13,8.55-27.51,10,12,13.11,30.12,2.5,27.93,2.21,37.64-.41,34.42-13.48,46.34Q852.64,1003.44,854.08,967.22Z"/></g></g><g id="Group-70-Copy-4"><g id="Path-270-9" data-name="Path-270"><path class="cls-4" d="M838.06,809q-3.62-4.06-2.67-5.59c1-1.53,2.15,3.47,4.62,2.89q2.47-.58,4.76-4.23,2.06,5.36-1,8.1T838.06,809Z"/></g><g id="Path-269-8" data-name="Path-269"><path class="cls-5" d="M828.48,895.48q-1.49-17.66.92-30.36c2.41-12.7.55-18.17,1.63-31.11s2.75-27.8,8.85-27.33,9.4,11.66,12,29.43,1.81,27.5,1.31,37.08-1.14,34-14,46Q826.3,931.24,828.48,895.48Z"/></g></g><g id="Group-70-Copy-3"><g id="Path-270-10" data-name="Path-270"><path class="cls-4" d="M790.88,807q-3.74-4-2.86-5.39c.87-1.4,2.27,3.36,4.68,2.92q2.41-.44,4.5-3.79,2.26,5.14-.66,7.6T790.88,807Z"/></g><g id="Path-269-9" data-name="Path-269"><path class="cls-5" d="M786.47,885.88Q784,869.56,785.7,858c1.65-11.55-.46-16.68-.12-28.52s1.15-25.41,7.11-24.64,9.78,11.23,13.29,27.71,3.27,25.38,3.31,34.17.75,31.16-11.12,41.54Q786.31,918.64,786.47,885.88Z"/></g></g><g id="Group-70-Copy-8"><g id="Path-270-11" data-name="Path-270"><path class="cls-4" d="M810.35,892.72q-3.35-3.74-2.47-5.14c.87-1.4,2,3.19,4.27,2.67q2.28-.52,4.37-3.88,1.91,4.93-.91,7.44T810.35,892.72Z"/></g><g id="Path-269-10" data-name="Path-269"><path class="cls-5" d="M803.11,969.86q-1.62-15.83.37-27.15c2-11.33.23-16.25,1-27.81s2.08-24.83,7.63-24.32,8.73,10.57,11.36,26.51,2.06,24.63,1.76,33.2-.53,30.37-12.05,41Q801.67,1001.82,803.11,969.86Z"/></g></g><g id="Combined-Shape-Copy-24"><path class="cls-3" d="M630,976H894v49H630Zm95.06,18.27a7.06,7.06,0,0,0,0,14.12h68a7.06,7.06,0,0,0,0-14.12Z"/></g><g id="Combined-Shape-Copy-34"><path class="cls-2" d="M722,57H986v49H722Zm95.06,18.27a7.06,7.06,0,1,0,0,14.12h68a7.06,7.06,0,1,0,0-14.12Z"/></g><g id="Path-239"><path class="cls-4" d="M856.36,85.9a18.64,18.64,0,0,0,9.16-8.31c2.91-5.48,2-11,2.46-13.24s-11.05,6.48-12.7,10.76a13.52,13.52,0,0,0-1.12,7.13q-5.33-7.13-11.64-7.13A33.63,33.63,0,0,0,830,77.6q6.07,6.11,10.35,8.31T856.36,85.9Z"/></g><g id="Group-42"><g id="Path-243"><path class="cls-4" d="M912.37,88.73q1-11-2.48-18.22a25.86,25.86,0,0,0-11.32-11.46q1.08,10.68,3.14,15.46t11.57,18.06q10.24,1.9,17-5t5.67-10.23q-9.95-2.92-13.46,3.43T914.69,90Z"/></g><g id="Path-244"><path class="cls-5" d="M926.4,100.18c-4.2-4-7.61-12.46-14.07-11.11s-8,6.46-11.14,12.21-6.89,17.15,2.56,24.16q9.45,7,12.1,11.74,7.17-4.61,13.05-15.22C934.79,111.34,930.6,104.22,926.4,100.18Z"/></g></g><g id="Group-63"><g id="Path-242"><path class="cls-4" d="M783.76,84.66q10.33,2.46,15.74-1.52a54.91,54.91,0,0,0,9.93-9.51q-10-2.87-16.3-.23a21,21,0,0,0-9.44,7.11q-1.28-11.3-6.66-15.06a56.09,56.09,0,0,0-11.74-6.26q4,16,6.17,19.88T783.76,84.66Z"/></g><g id="Path-241"><path class="cls-5" d="M795.5,94.8c-4.82-3.37-7.68-9.37-9.31-10.51s-2.62-4.81-7.36,4.5-10.32,25.6-2.42,33.27,11.76,12.06,14.7,13.28,9-7.46,11.93-11.63,2.13-13.69-.05-19.44S800.32,98.17,795.5,94.8Z"/></g></g><g id="Group-63-Copy"><g id="Path-242-2" data-name="Path-242"><path class="cls-4" d="M947,132.17q10.33,2.46,15.74-1.52a54.91,54.91,0,0,0,9.93-9.51q-10-2.87-16.3-.23a21,21,0,0,0-9.44,7.11q-1.28-11.3-6.66-15.06a56.09,56.09,0,0,0-11.74-6.26q4,16,6.17,19.88T947,132.17Z"/></g><g id="Path-241-2" data-name="Path-241"><path class="cls-5" d="M958.7,142.31c-4.82-3.37-7.68-9.37-9.31-10.51s-2.62-4.81-7.36,4.5-10.32,25.6-2.42,33.27,11.76,12.06,14.7,13.28,9-7.46,11.93-11.63,2.13-13.69-.05-19.44S963.51,145.68,958.7,142.31Z"/></g></g><g id="Group-66"><g id="Path-245"><path class="cls-4" d="M893.13,137.13q5.23-9.84,6.5-17.62t-3.28-13a81.72,81.72,0,0,0-4.51,10.59,56,56,0,0,0-1.77,9.95q-5-6-9.14-7.24t-12.24-1.19q1.36,6.37,9.15,11.29A63.8,63.8,0,0,0,893.13,137.13Z"/></g><g id="Path-246"><path class="cls-5" d="M898.21,135.37c-.88-2.82-4.85-8.27-13.59,1.33s-13.91,24.29-3.83,36.18,7.67,12.82,11.9,14.11,1.72-3.19,7.15-8.29,11.66-16.7,7.84-25.65S899.09,138.19,898.21,135.37Z"/></g></g><g id="Group-65"><g id="Path-247"><path class="cls-4" d="M819.35,137.53a13.76,13.76,0,0,0,10.82-6.33c3.62-5.61,2.19-7.8,4.2-9.94s-.66-3.69-6.82,2.35a74.7,74.7,0,0,0-10.07,12q-2.12-6.8-9.13-11.1t-10.1-2.07q1.07,8,6.21,11.19T819.35,137.53Z"/></g><g id="Path-248"><path class="cls-5" d="M829.24,142c-4.5-5.85-3.94-8.78-6.82-9.6s-12.18,3.86-16.67,11.38-1.37,20.29,4.5,28.3,8,11.37,13.38,7.47,16.53-13.84,13.17-23.6S833.75,147.82,829.24,142Z"/></g></g><g id="Group-64"><g id="Path-249"><path class="cls-4" d="M760,139.89q3.91,1.72,10.47.5t9.22-8.77q-6.3-4-11.71-2.92t-10,7.42q.86-5.68-4.22-13.87T743.76,113q-1,9.19,1.83,15.56a30.37,30.37,0,0,0,8.32,9.85A11.11,11.11,0,0,0,760,139.89Z"/></g><g id="Path-250"><path class="cls-5" d="M771,144.56q-7-11.24-12-11.25c-5,0-14.49,11.62-16.66,20.32s-1.43,14.57,8.6,22.9q10,8.34,11.07,9.26,4.37-5.2,8.06-9.14c4.07-4.35,10-9.42,6.9-21.27Q775.78,151.22,771,144.56Z"/></g></g><g id="Group-68"><g id="Path-252"><path class="cls-4" d="M927.28,190.7q7.09,4.76,13,.28a15,15,0,0,0,6.06-12.34,14.49,14.49,0,0,0-13,1.68,34.29,34.29,0,0,0-8.27,7.15,49.93,49.93,0,0,0-5.64-15q-3.71-6.21-14.57-9.91-.26,11.29,3.87,17.38T927.28,190.7Z"/></g><g id="Path-251"><path class="cls-5" d="M923.13,231.72c2.39,2.82,4.62,5.15,8,.05s12.28-11.44,9.73-25.83c-.95-5.34-5.07-8.53-7.11-11.89-3.45-5.69-5.49-9.8-9.17-10.65-5.85-1.35-13.95,10.79-14.52,22S920.74,228.9,923.13,231.72Z"/></g></g><g id="Group-67"><g id="Path-254"><path class="cls-4" d="M862.3,186.9q9.48.61,12.1-3a55.65,55.65,0,0,0,5.76-11.28q-7.66,0-12.29,4.18a37.11,37.11,0,0,0-6.6,7.24q-1.19-8.16-7.31-10.51a14.82,14.82,0,0,0-12,.4q7.37,5.25,8.63,8.44T862.3,186.9Z"/></g><g id="Path-253"><path class="cls-5" d="M867,192.65c-2.25-4.29-2.38-7.11-5-8.09s-3.56.36-7.16,3.44S841,199.12,846,211.16s7.8,22.54,12.79,23.27,15.14-9,15.92-19.4S869.25,196.93,867,192.65Z"/></g></g><g id="Path-256"><path class="cls-4" d="M794,192.6q8.11,1.42,13.69-2.23a17.11,17.11,0,0,0,7.31-8.83q-7.6-3.7-12.92,0T792.39,189a40.94,40.94,0,0,0-4.53-11.72q-2.6-4.08-11.86-6.24,0,10.54,4.63,14.25A56.73,56.73,0,0,0,794,192.6Z"/></g><g id="Path-240"><path class="cls-5" d="M853.5,84c-3.62.63-14.39,12-16.76,20.07s1.16,18.8,7.69,24.41S851,137,853.2,137s2.2-2.3,7.56-5.39,15-19.59,7.49-32.95a47.67,47.67,0,0,0-4.93-7.25C859.42,86.25,856,83.61,853.5,84Z"/></g><g id="Path-255"><path class="cls-5" d="M803.27,198.2c-4.58-7.66-5.65-11.2-10.31-11.2s-14.61,8.24-16.73,18.84q-2.12,10.6,15.13,30.16a32.82,32.82,0,0,0,15.94-13.84C813.42,212.24,807.85,205.86,803.27,198.2Z"/></g><g id="Combined-Shape-Copy-38"><path class="cls-2" d="M1283,57h264v49H1283Zm95.06,18.27a7.06,7.06,0,1,0,0,14.12h68a7.06,7.06,0,1,0,0-14.12Z"/></g><g id="Combined-Shape-Copy-43"><path class="cls-2" d="M1563,57h264v49H1563Zm95.06,18.27a7.06,7.06,0,1,0,0,14.12h68a7.06,7.06,0,1,0,0-14.12Z"/></g><g id="Group-69"><g id="Path-263"><path class="cls-5" d="M1399.91,148.65c-11.3,6.07-27.85,7.66-49.22-7.78s-14.1-50.71-2.65-61.14,27.46-20.83,54.15-10.41,22.7,34.91,22.45,49.14S1411.22,142.59,1399.91,148.65Z"/></g><g id="Oval"><ellipse class="cls-4" cx="1381.84" cy="76.31" rx="7.96" ry="5.45"/></g><g id="Path-264"><path class="cls-4" d="M1408.08,142.11c0-15-2.29-27.73-6.68-37.73a65.67,65.67,0,0,0-18.92-25l-.37-.3V65.84h2V78.13a67.71,67.71,0,0,1,19.13,25.44c4.5,10.26,6.81,23.22,6.85,38.53Z"/></g><g id="Path-265"><path class="cls-4" d="M1344.7,132.14l-2-.19a75.15,75.15,0,0,1,8.49-27.87c7.74-14.79,18.79-21.62,28.67-26.28.53-3.77,5.62-6.91,15.54-9.58l.52,1.93c-11.66,3.14-14.11,6.25-14.11,8.31v.64l-.58.27c-9.71,4.52-20.67,11.11-28.28,25.64A73.13,73.13,0,0,0,1344.7,132.14Z"/></g><g id="Path-266"><path class="cls-4" d="M1369.45,148.93a121.84,121.84,0,0,1,.88-33.38,241.79,241.79,0,0,1,10.14-39.13l1.89.64a239.91,239.91,0,0,0-10.06,38.8,119.89,119.89,0,0,0-.87,32.83Z"/></g><g id="Path-267"><path class="cls-4" d="M1423.3,104.05A88.62,88.62,0,0,0,1404.07,81c-11.76-10-30.73-8-40.09-5.14-6.58,2-14,8.32-22,18.83l-1.59-1.21c8.28-10.86,16-17.43,23-19.54,9.74-2.93,29.55-5.07,42,5.54A90.59,90.59,0,0,1,1425,103.05Z"/></g><g id="Path-268"><path class="cls-4" d="M1380.61,74c-2.17-3-6.7-4.52-13.46-4.62l0-2c7.42.11,12.48,1.94,15,5.44Z"/></g></g><g id="Group-69-Copy-4"><g id="Path-263-2" data-name="Path-263"><path class="cls-5" d="M1661.91,148.65c-11.3,6.07-27.85,7.66-49.22-7.78s-14.1-50.71-2.65-61.14,27.46-20.83,54.15-10.41,22.7,34.91,22.45,49.14S1673.22,142.59,1661.91,148.65Z"/></g><g id="Oval-2" data-name="Oval"><ellipse class="cls-4" cx="1643.84" cy="76.31" rx="7.96" ry="5.45"/></g><g id="Path-264-2" data-name="Path-264"><path class="cls-4" d="M1670.08,142.11c0-15-2.29-27.73-6.68-37.73a65.67,65.67,0,0,0-18.92-25l-.37-.3V65.84h2V78.13a67.71,67.71,0,0,1,19.13,25.44c4.5,10.26,6.81,23.22,6.85,38.53Z"/></g><g id="Path-265-2" data-name="Path-265"><path class="cls-4" d="M1606.7,132.14l-2-.19a75.15,75.15,0,0,1,8.49-27.87c7.74-14.79,18.79-21.62,28.67-26.28.53-3.77,5.62-6.91,15.54-9.58l.52,1.93c-11.66,3.14-14.11,6.25-14.11,8.31v.64l-.58.27c-9.71,4.52-20.67,11.11-28.28,25.64A73.13,73.13,0,0,0,1606.7,132.14Z"/></g><g id="Path-266-2" data-name="Path-266"><path class="cls-4" d="M1631.45,148.93a121.84,121.84,0,0,1,.88-33.38,241.79,241.79,0,0,1,10.14-39.13l1.89.64a239.91,239.91,0,0,0-10.06,38.8,119.89,119.89,0,0,0-.87,32.83Z"/></g><g id="Path-267-2" data-name="Path-267"><path class="cls-4" d="M1685.3,104.05A88.62,88.62,0,0,0,1666.07,81c-11.76-10-30.73-8-40.09-5.14-6.58,2-14,8.32-22,18.83l-1.59-1.21c8.28-10.86,16-17.43,23-19.54,9.74-2.93,29.55-5.07,42,5.54A90.59,90.59,0,0,1,1687,103.05Z"/></g><g id="Path-268-2" data-name="Path-268"><path class="cls-4" d="M1642.61,74c-2.17-3-6.7-4.52-13.46-4.62l0-2c7.42.11,12.48,1.94,15,5.44Z"/></g></g><g id="Group-69-Copy-2"><g id="Path-263-3" data-name="Path-263"><path class="cls-5" d="M1462.91,232.65c-11.3,6.07-27.85,7.66-49.22-7.78s-14.1-50.71-2.65-61.14,27.46-20.83,54.15-10.41,22.7,34.91,22.45,49.14S1474.22,226.59,1462.91,232.65Z"/></g><g id="Oval-3" data-name="Oval"><ellipse class="cls-4" cx="1444.84" cy="160.31" rx="7.96" ry="5.45"/></g><g id="Path-264-3" data-name="Path-264"><path class="cls-4" d="M1471.08,226.11c0-15-2.29-27.73-6.68-37.73a65.67,65.67,0,0,0-18.92-25l-.37-.3V149.84h2v12.29a67.71,67.71,0,0,1,19.13,25.44c4.5,10.26,6.81,23.22,6.85,38.53Z"/></g><g id="Path-265-3" data-name="Path-265"><path class="cls-4" d="M1407.7,216.14l-2-.19a75.15,75.15,0,0,1,8.49-27.87c7.74-14.79,18.79-21.62,28.67-26.28.53-3.77,5.62-6.91,15.54-9.58l.52,1.93c-11.66,3.14-14.11,6.25-14.11,8.31v.64l-.58.27c-9.71,4.52-20.67,11.11-28.28,25.64A73.13,73.13,0,0,0,1407.7,216.14Z"/></g><g id="Path-266-3" data-name="Path-266"><path class="cls-4" d="M1432.45,232.93a121.84,121.84,0,0,1,.88-33.38,241.79,241.79,0,0,1,10.14-39.13l1.89.64a239.91,239.91,0,0,0-10.06,38.8,119.89,119.89,0,0,0-.87,32.83Z"/></g><g id="Path-267-3" data-name="Path-267"><path class="cls-4" d="M1486.3,188.05A88.62,88.62,0,0,0,1467.07,165c-11.76-10-30.73-8-40.09-5.14-6.58,2-14,8.32-22,18.83l-1.59-1.21c8.28-10.86,16-17.43,23-19.54,9.74-2.93,29.55-5.07,42,5.54A90.59,90.59,0,0,1,1488,187.05Z"/></g><g id="Path-268-3" data-name="Path-268"><path class="cls-4" d="M1443.61,158c-2.17-3-6.7-4.52-13.46-4.62l0-2c7.42.11,12.48,1.94,15,5.44Z"/></g></g><g id="Group-69-Copy-5"><g id="Path-263-4" data-name="Path-263"><path class="cls-5" d="M1724.91,232.65c-11.3,6.07-27.85,7.66-49.22-7.78s-14.1-50.71-2.65-61.14,27.46-20.83,54.15-10.41,22.7,34.91,22.45,49.14S1736.22,226.59,1724.91,232.65Z"/></g><g id="Oval-4" data-name="Oval"><ellipse class="cls-4" cx="1706.84" cy="160.31" rx="7.96" ry="5.45"/></g><g id="Path-264-4" data-name="Path-264"><path class="cls-4" d="M1733.08,226.11c0-15-2.29-27.73-6.68-37.73a65.67,65.67,0,0,0-18.92-25l-.37-.3V149.84h2v12.29a67.71,67.71,0,0,1,19.13,25.44c4.5,10.26,6.81,23.22,6.85,38.53Z"/></g><g id="Path-265-4" data-name="Path-265"><path class="cls-4" d="M1669.7,216.14l-2-.19a75.15,75.15,0,0,1,8.49-27.87c7.74-14.79,18.79-21.62,28.67-26.28.53-3.77,5.62-6.91,15.54-9.58l.52,1.93c-11.66,3.14-14.11,6.25-14.11,8.31v.64l-.58.27c-9.71,4.52-20.67,11.11-28.28,25.64A73.13,73.13,0,0,0,1669.7,216.14Z"/></g><g id="Path-266-4" data-name="Path-266"><path class="cls-4" d="M1694.45,232.93a121.84,121.84,0,0,1,.88-33.38,241.79,241.79,0,0,1,10.14-39.13l1.89.64a239.91,239.91,0,0,0-10.06,38.8,119.89,119.89,0,0,0-.87,32.83Z"/></g><g id="Path-267-4" data-name="Path-267"><path class="cls-4" d="M1748.3,188.05A88.62,88.62,0,0,0,1729.07,165c-11.76-10-30.73-8-40.09-5.14-6.58,2-14,8.32-22,18.83l-1.59-1.21c8.28-10.86,16-17.43,23-19.54,9.74-2.93,29.55-5.07,42,5.54A90.59,90.59,0,0,1,1750,187.05Z"/></g><g id="Path-268-4" data-name="Path-268"><path class="cls-4" d="M1705.61,158c-2.17-3-6.7-4.52-13.46-4.62l0-2c7.42.11,12.48,1.94,15,5.44Z"/></g></g><g id="Group-69-Copy-3"><g id="Path-263-5" data-name="Path-263"><path class="cls-5" d="M1361.91,232.65c-11.3,6.07-27.85,7.66-49.22-7.78s-14.1-50.71-2.65-61.14,27.46-20.83,54.15-10.41,22.7,34.91,22.45,49.14S1373.22,226.59,1361.91,232.65Z"/></g><g id="Oval-5" data-name="Oval"><ellipse class="cls-4" cx="1343.84" cy="160.31" rx="7.96" ry="5.45"/></g><g id="Path-264-5" data-name="Path-264"><path class="cls-4" d="M1370.08,226.11c0-15-2.29-27.73-6.68-37.73a65.67,65.67,0,0,0-18.92-25l-.37-.3V149.84h2v12.29a67.71,67.71,0,0,1,19.13,25.44c4.5,10.26,6.81,23.22,6.85,38.53Z"/></g><g id="Path-265-5" data-name="Path-265"><path class="cls-4" d="M1306.7,216.14l-2-.19a75.15,75.15,0,0,1,8.49-27.87c7.74-14.79,18.79-21.62,28.67-26.28.53-3.77,5.62-6.91,15.54-9.58l.52,1.93c-11.66,3.14-14.11,6.25-14.11,8.31v.64l-.58.27c-9.71,4.52-20.67,11.11-28.28,25.64A73.13,73.13,0,0,0,1306.7,216.14Z"/></g><g id="Path-266-5" data-name="Path-266"><path class="cls-4" d="M1331.45,232.93a121.84,121.84,0,0,1,.88-33.38,241.79,241.79,0,0,1,10.14-39.13l1.89.64a239.91,239.91,0,0,0-10.06,38.8,119.89,119.89,0,0,0-.87,32.83Z"/></g><g id="Path-267-5" data-name="Path-267"><path class="cls-4" d="M1385.3,188.05A88.62,88.62,0,0,0,1366.07,165c-11.76-10-30.73-8-40.09-5.14-6.58,2-14,8.32-22,18.83l-1.59-1.21c8.28-10.86,16-17.43,23-19.54,9.74-2.93,29.55-5.07,42,5.54A90.59,90.59,0,0,1,1387,187.05Z"/></g><g id="Path-268-5" data-name="Path-268"><path class="cls-4" d="M1342.61,158c-2.17-3-6.7-4.52-13.46-4.62l0-2c7.42.11,12.48,1.94,15,5.44Z"/></g></g><g id="Group-69-Copy"><g id="Path-263-6" data-name="Path-263"><path class="cls-5" d="M1504.91,149.65c-11.3,6.07-27.85,7.66-49.22-7.78s-14.1-50.71-2.65-61.14,27.46-20.83,54.15-10.41,22.7,34.91,22.45,49.14S1516.22,143.59,1504.91,149.65Z"/></g><g id="Oval-6" data-name="Oval"><ellipse class="cls-4" cx="1486.84" cy="77.31" rx="7.96" ry="5.45"/></g><g id="Path-264-6" data-name="Path-264"><path class="cls-4" d="M1513.08,143.11c0-15-2.29-27.73-6.68-37.73a65.67,65.67,0,0,0-18.92-25l-.37-.3V66.84h2V79.13a67.71,67.71,0,0,1,19.13,25.44c4.5,10.26,6.81,23.22,6.85,38.53Z"/></g><g id="Path-265-6" data-name="Path-265"><path class="cls-4" d="M1449.7,133.14l-2-.19a75.15,75.15,0,0,1,8.49-27.87c7.74-14.79,18.79-21.62,28.67-26.28.53-3.77,5.62-6.91,15.54-9.58l.52,1.93c-11.66,3.14-14.11,6.25-14.11,8.31v.64l-.58.27c-9.71,4.52-20.67,11.11-28.28,25.64A73.13,73.13,0,0,0,1449.7,133.14Z"/></g><g id="Path-266-6" data-name="Path-266"><path class="cls-4" d="M1474.45,149.93a121.84,121.84,0,0,1,.88-33.38,241.79,241.79,0,0,1,10.14-39.13l1.89.64a239.91,239.91,0,0,0-10.06,38.8,119.89,119.89,0,0,0-.87,32.83Z"/></g><g id="Path-267-6" data-name="Path-267"><path class="cls-4" d="M1528.3,105.05A88.62,88.62,0,0,0,1509.07,82c-11.76-10-30.73-8-40.09-5.14-6.58,2-14,8.32-22,18.83l-1.59-1.21c8.28-10.86,16-17.43,23-19.54,9.74-2.93,29.55-5.07,42,5.54A90.59,90.59,0,0,1,1530,104.05Z"/></g><g id="Path-268-6" data-name="Path-268"><path class="cls-4" d="M1485.61,75c-2.17-3-6.7-4.52-13.46-4.62l0-2c7.42.11,12.48,1.94,15,5.44Z"/></g></g><g id="Combined-Shape-Copy-23"><path class="cls-2" d="M283,424H547v49H283Zm95.06,18.27a7.06,7.06,0,1,0,0,14.12h68a7.06,7.06,0,1,0,0-14.12Z"/></g><g id="Group-45"><g id="Group-62"><g id="Path-210"><path class="cls-4" d="M423.58,459.17q.75-17.52,2.88-22.5t8.14-12.15a42.78,42.78,0,0,0-10.53,3.18,21.38,21.38,0,0,0-9.86,8.91q-.91-4.34-8.58-8a35.59,35.59,0,0,0-14.13-3.86,75.08,75.08,0,0,1,11.31,11.95q4,5.52,5,18.35Z"/></g><g id="Path-210-2" data-name="Path-210"><path class="cls-4" d="M423.8,471.71q-.48-9,9.23-18.37t14.72-8a24.39,24.39,0,0,0-18.58-2,25.62,25.62,0,0,0-15.49,11.39q-9.42-14.09-18.38-13a27.83,27.83,0,0,0-15.72,7.27q12.06-.23,18.82,6.39A33.78,33.78,0,0,1,407.58,471Z"/></g><g id="Path-210-3" data-name="Path-210"><path class="cls-4" d="M407,493.86q-2.62-13.71-17.67-21.75t-20.94-4.91q10.08-9.49,22-9.22t24.24,12.9q8.22-11.4,19.84-12.83a60.12,60.12,0,0,1,21.65,1q-15.25,3.4-21.75,13.23t-7.14,15.83Z"/></g></g><g id="Path-211"><path class="cls-5" d="M415.09,490.23q3-4.06,10.6-3.66a12.15,12.15,0,0,1,11,7.43q3.2.17,5.68,3.58a12.88,12.88,0,0,1,2.14,8.66l8.93,6.31.09,19.69,4.25,13.28-5.69,14.36L450,577l-9.46,3.81q.21,4.18-5.21,5.72a29.6,29.6,0,0,1-9.16,1.36Q419.11,593.37,413,593t-10.05-6.33q-9.44,0-13.94-2.57a28.31,28.31,0,0,1-7.75-6.39l-8.51-3.26,2.51-16.71-6.61-12,6.16-10.47-5.21-7.5,5.9-5.55-1.41-12,8.34-5.88,3.08-7.56,8.18-1.83q4.37-5.68,9.47-7.53T415.09,490.23Z"/></g><g id="Path-212"><path class="cls-4" d="M451.28,561.61l-2-.17c.38-4.48.07-7.62-.92-9.33a10.13,10.13,0,0,0-4.14-4l-.35-.19-.13-.38c-1.7-5-3.46-8.41-5.24-10.18a50.6,50.6,0,0,0-9.78-6.77l-.3-.17-.13-.32a40.36,40.36,0,0,0-5-9c-1.95-2.63-5.63-4.52-10.93-5.62l-.27-.06-12.59-11.6-6.54-7.7,1.52-1.29,6.5,7.65L413,513.57c5.65,1.21,9.64,3.34,11.85,6.33a42.37,42.37,0,0,1,5.16,9.16c4.71,2.72,7.95,5,9.89,6.91s3.82,5.44,5.6,10.58a12.1,12.1,0,0,1,4.59,4.55C451.31,553.21,451.7,556.64,451.28,561.61Z"/></g><g id="Path-213"><path class="cls-4" d="M404.56,586.86l-2-.26a13.94,13.94,0,0,1,3.24-7.57,12.31,12.31,0,0,1,7.22-3.71,21.14,21.14,0,0,1,3.72-8.32c2.22-3.21,6.19-5.62,11.82-7.16a15.17,15.17,0,0,1,5-9.18,20.19,20.19,0,0,1,10.57-4.59,17.53,17.53,0,0,1,3-7.57,20,20,0,0,1,5.75-6.08l1.06,1.7a18.12,18.12,0,0,0-5.14,5.48,15,15,0,0,0-2.72,7.4l0,.84-.83.1a18.66,18.66,0,0,0-10.3,4.21,13.14,13.14,0,0,0-4.46,8.6l-.08.68-.66.17c-5.49,1.41-9.3,3.61-11.32,6.53a18.16,18.16,0,0,0-3.48,8.15l-.08.77-.77.12c-3,.45-5.3,1.52-6.76,3.18A12,12,0,0,0,404.56,586.86Z"/></g><g id="Path-214"><path class="cls-4" d="M426.44,588.85a44,44,0,0,0-4-6c-1.46-1.87-4.28-3.65-8.39-5.29l-.43-.17-.15-.44c-1.5-4.43-3.22-7.58-5.13-9.39a45,45,0,0,0-9.83-6.33l-.45-.23-.08-.5a18.77,18.77,0,0,0-3.1-8c-1.48-2-4.35-3.76-8.52-5.11l-.53-.17-.14-.54a32.22,32.22,0,0,0-3-7.65,10.72,10.72,0,0,0-4.23-4.66l-.44-.22-2.32-11.28,2-.4,2.13,10.34a13.18,13.18,0,0,1,4.66,5.25,34.26,34.26,0,0,1,3.07,7.59c4.36,1.48,7.31,3.33,9,5.66a20.39,20.39,0,0,1,3.37,8.38,45.51,45.51,0,0,1,9.85,6.43c2.11,2,3.91,5.19,5.5,9.77,4.26,1.76,7.14,3.64,8.79,5.74a46.07,46.07,0,0,1,4.17,6.31Z"/></g><g id="Path-215"><path class="cls-4" d="M451.91,534.15c-.63-4.61-1.57-7.83-2.8-9.56s-3.64-3.35-7.23-4.86l-.48-.2-.11-.5c-1-4.32-2.35-7.6-4.14-9.73s-5.17-3.59-10.2-4.5l-.49-.09-.23-.44a40.92,40.92,0,0,0-4-6.37c-1.43-1.84-4-3.88-7.62-6.05l1-1.72c3.9,2.33,6.57,4.47,8.18,6.54a42.61,42.61,0,0,1,4,6.25c5.31,1,8.88,2.69,10.9,5.1s3.42,5.69,4.45,10.08c3.73,1.63,6.23,3.38,7.62,5.35s2.46,5.45,3.14,10.45Z"/></g><g id="Path-216"><path class="cls-4" d="M378.28,558.52l-2-.12a13.88,13.88,0,0,1,4.09-8.57c2.23-2.4,4.28-3.8,6.22-4.23a17,17,0,0,1,3.06-9.95,19.36,19.36,0,0,1,8.87-6.49,24.17,24.17,0,0,1,5.71-9.27,29.46,29.46,0,0,1,9.82-6,20.42,20.42,0,0,1,6.37-7,25.24,25.24,0,0,1,8.16-4,27,27,0,0,1,4.14-6,12.79,12.79,0,0,1,4.64-3.31l.69,1.88a10.86,10.86,0,0,0-3.89,2.81,25.69,25.69,0,0,0-4,5.91l-.21.41-.45.1a22.74,22.74,0,0,0-7.9,3.83,18.2,18.2,0,0,0-5.92,6.56l-.17.35-.36.14a27.84,27.84,0,0,0-9.5,5.73,22.44,22.44,0,0,0-5.37,8.93l-.15.45-.44.17a17.64,17.64,0,0,0-8.39,6,15.35,15.35,0,0,0-2.67,9.61l0,1-1,.06c-1.67.11-3.63,1.37-5.83,3.74A12,12,0,0,0,378.28,558.52Z"/></g><g id="Path-217"><path class="cls-4" d="M441.08,582.93l-1.88-5.41c-.52-4.31-1.4-7.27-2.62-8.79s-4-3.37-8.24-5.38l-.55-.27v-.61c-.1-4.26-1.45-7.67-4-10.12a36.11,36.11,0,0,0-10.23-6.63l-.25-.11-.16-.23a45.34,45.34,0,0,0-7.49-8.7,34.85,34.85,0,0,0-8.32-5.09l-.34-.15-.16-.34a70.81,70.81,0,0,0-4.73-8.58,13.3,13.3,0,0,0-5.49-5.08l-.39-.17L382,505.74l1.88-.68,3.86,10.73a15.51,15.51,0,0,1,6,5.63,72.43,72.43,0,0,1,4.71,8.49,36.59,36.59,0,0,1,8.46,5.23,46.71,46.71,0,0,1,7.68,8.86,37.92,37.92,0,0,1,10.54,6.89,15.54,15.54,0,0,1,4.63,10.91c4.25,2.08,7,3.93,8.39,5.68s2.46,5,3,9.69l1.79,5.1Z"/></g><g id="Path-218"><path class="cls-4" d="M375.85,522.63l-1.48-1.35a33.41,33.41,0,0,1,5.53-4.6,13.07,13.07,0,0,1,6.27-2.58,82.65,82.65,0,0,1,4.92-7.93c1.63-2.26,4.54-3.9,8.91-5a29.75,29.75,0,0,1,3.79-7.16c1.65-2.23,5.52-4.16,11.83-5.9l.53,1.93c-7.21,2-9.83,3.91-10.76,5.17a28.3,28.3,0,0,0-3.71,7.16l-.18.5L401,503c-4.12,1-6.9,2.47-8.28,4.38a83,83,0,0,0-5.06,8.22l-.29.52h-.6a10.54,10.54,0,0,0-5.72,2.25A31.53,31.53,0,0,0,375.85,522.63Z"/></g><g id="Path-219"><polygon class="cls-4" points="403.24 587.39 389.8 578.85 383.29 579.67 383.04 577.68 390.27 576.77 404.31 585.7 403.24 587.39"/></g><g id="Path-220"><path class="cls-4" d="M428.17,587.91l-1.73-1a43.61,43.61,0,0,1,5.7-8,13.41,13.41,0,0,1,7.16-3.76c1.82-4.6,3.37-7.53,4.7-8.94a70,70,0,0,1,6-5.41l1.27,1.55a68.2,68.2,0,0,0-5.86,5.24c-1.19,1.25-2.7,4.21-4.49,8.8l-.2.52-.55.1a11.72,11.72,0,0,0-6.62,3.28A41.73,41.73,0,0,0,428.17,587.91Z"/></g><g id="Path-221"><path class="cls-4" d="M389.48,577.71c-.46-5.78.17-9.9,1.91-12.58a36,36,0,0,1,6.19-7.1c1.25-5.33,3.94-9.29,8-11.76a42.09,42.09,0,0,1,8.08-4.14,23.64,23.64,0,0,1,7.74-9.66c3.46-2.66,6.11-4.07,8.05-4.28,1.58-3.73,3.7-6.42,6.29-8a24.61,24.61,0,0,1,5.77-2.76,19,19,0,0,1,.49-5.72,13.5,13.5,0,0,1,2.06-4.92l1.6,1.2a11.8,11.8,0,0,0-1.71,4.19,17.15,17.15,0,0,0-.37,5.91l.1.91-.9.18a20.08,20.08,0,0,0-6,2.72c-2.36,1.44-4.28,4-5.73,7.65l-.27.67-.72,0c-1,0-3.13.57-7.46,3.9a21.44,21.44,0,0,0-7.27,9.26l-.19.49-.51.12c-1.51.36-4.21,1.72-8,4-3.66,2.23-6.07,5.86-7.17,10.8l-.07.32-.24.22a34.27,34.27,0,0,0-6.08,6.91c-1.47,2.26-2,6.08-1.59,11.33Z"/></g><g id="Path-222"><path class="cls-4" d="M388.51,577.52c-.86-5.17-2.4-9-4.56-11.52a61.58,61.58,0,0,0-8.06-7.57l1.24-1.57a63.58,63.58,0,0,1,8.32,7.82c2.41,2.75,4.11,7,5,12.51Z"/></g><g id="Path-223"><rect class="cls-4" x="374.38" y="532.5" width="4.24" height="2" transform="translate(-260.25 388.86) rotate(-41.99)"/></g></g><g id="Combined-Shape-Copy-27"><path class="cls-2" d="M349,792H613v49H349Zm95.06,18.27a7.06,7.06,0,1,0,0,14.12h68a7.06,7.06,0,1,0,0-14.12Z"/></g><g id="Combined-Shape-Copy-44"><path class="cls-2" d="M67,792H331v49H67Zm95.06,18.27a7.06,7.06,0,1,0,0,14.12h68a7.06,7.06,0,1,0,0-14.12Z"/></g><g id="Group-71"><g id="Path-272"><path class="cls-4" d="M401.47,833.19c1.35,1.08,4.31,3.14,4.92,9.15s-.72,14.34-10.89,17.1-18.28-1.64-21.08-7.38-4.31-13.79,2.07-19.74c2-1.83,8.44-4,12.77-3.73C398.61,829.25,400.12,832.11,401.47,833.19Z"/></g><g id="Path-271"><path class="cls-5" d="M394.51,836.09a8.48,8.48,0,0,1,3,4.84,10,10,0,0,1,0,4.66,12.12,12.12,0,0,0,1.73-6.22q0-3.27-2.36-4.4a4,4,0,0,1,2.36-2.49,6,6,0,0,1,4.89,0q-2.85-2.76-5.51-2.06a9.41,9.41,0,0,0-4.11,2.06,6.33,6.33,0,0,0,0-4.69,5.9,5.9,0,0,0-2.73-2.78q.95.75.95,3.73t-.95,3q-1.28-1.32-4.82-1.32T382,831.73a9.25,9.25,0,0,1,4.93.74,9.9,9.9,0,0,1,3.76,2.49,7,7,0,0,0-4.53,4.4,14.22,14.22,0,0,0-.79,4.83,10,10,0,0,1,5.32-5.69Q394.51,836.75,394.51,836.09Z"/></g></g><g id="Group-71-Copy-5"><g id="Path-272-2" data-name="Path-272"><path class="cls-4" d="M469.85,864.37c-1.69-.37-5.18-1.39-10.24,1.93s-11.09,10.22-6.79,19.92,14.53,11.58,20.77,10.16,12.16-4.27,12.76-13c.18-2.69-2.2-9.14-5.18-12.34C474.73,864.12,471.55,864.74,469.85,864.37Z"/></g><g id="Path-271-2" data-name="Path-271"><path class="cls-5" d="M472,871.64a8.5,8.5,0,0,0-5.66.71,10,10,0,0,0-3.63,2.94,12.1,12.1,0,0,1,3.75-5.28q2.55-2.06,4.92-.93a4,4,0,0,0,.45-3.42,6.09,6.09,0,0,0-3.1-3.82q4,.49,5.09,3a9.48,9.48,0,0,1,1,4.51,6.32,6.32,0,0,1,3.65-3,5.92,5.92,0,0,1,3.9.38q-1.18-.27-3.5,1.61T477.12,871q1.84.17,4.08,2.94t2.09,4.69a9.34,9.34,0,0,0-3.7-3.39,10,10,0,0,0-4.32-1.37,7,7,0,0,1-.56,6.31,14.19,14.19,0,0,1-3.26,3.66,10,10,0,0,0,1.07-7.75Q471.49,872.06,472,871.64Z"/></g></g><g id="Group-71-Copy-12"><g id="Path-272-3" data-name="Path-272"><path class="cls-4" d="M463.49,943.23c1.69-.37,5.18-1.39,10.24,1.93s11.09,10.22,6.79,19.92S466,976.66,459.75,975.24s-12.16-4.27-12.76-13c-.18-2.69,2.2-9.14,5.18-12.34C458.61,943,461.8,943.6,463.49,943.23Z"/></g><g id="Path-271-3" data-name="Path-271"><path class="cls-5" d="M461.34,950.5a8.5,8.5,0,0,1,5.66.71,10,10,0,0,1,3.63,2.94,12.1,12.1,0,0,0-3.75-5.28q-2.55-2.06-4.92-.93a4,4,0,0,1-.45-3.42,6.09,6.09,0,0,1,3.1-3.82q-4,.49-5.09,3a9.48,9.48,0,0,0-1,4.51,6.32,6.32,0,0,0-3.65-3,5.92,5.92,0,0,0-3.9.38q1.18-.27,3.5,1.61t1.74,2.63q-1.84.17-4.08,2.94T450,957.51a9.34,9.34,0,0,1,3.7-3.39,10,10,0,0,1,4.32-1.37,7,7,0,0,0,.56,6.31,14.19,14.19,0,0,0,3.26,3.66,10,10,0,0,1-1.07-7.75Q461.86,950.92,461.34,950.5Z"/></g></g><g id="Group-71-Copy-9"><g id="Path-272-4" data-name="Path-272"><path class="cls-4" d="M555.85,904.64c-1.69-.37-5.18-1.39-10.24,1.93s-11.09,10.22-6.79,19.92,14.53,11.58,20.77,10.16,12.16-4.27,12.76-13c.18-2.69-2.2-9.14-5.18-12.34C560.73,904.39,557.55,905,555.85,904.64Z"/></g><g id="Path-271-4" data-name="Path-271"><path class="cls-5" d="M558,911.91a8.5,8.5,0,0,0-5.66.71,10,10,0,0,0-3.63,2.94,12.1,12.1,0,0,1,3.75-5.28q2.55-2.06,4.92-.93a4,4,0,0,0,.45-3.42,6.09,6.09,0,0,0-3.1-3.82q4,.49,5.09,3a9.48,9.48,0,0,1,1,4.51,6.32,6.32,0,0,1,3.65-3,5.92,5.92,0,0,1,3.9.38q-1.18-.27-3.5,1.61t-1.74,2.63q1.84.17,4.08,2.94t2.09,4.69a9.34,9.34,0,0,0-3.7-3.39,10,10,0,0,0-4.32-1.37,7,7,0,0,1-.56,6.31,14.19,14.19,0,0,1-3.26,3.66,10,10,0,0,0,1.07-7.75Q557.49,912.33,558,911.91Z"/></g></g><g id="Group-71-Copy-18"><g id="Path-272-5" data-name="Path-272"><path class="cls-4" d="M270,898.32c-1.69-.37-5.18-1.39-10.24,1.93s-11.09,10.22-6.79,19.92,14.53,11.58,20.77,10.16,12.16-4.27,12.76-13c.18-2.69-2.2-9.14-5.18-12.34C274.84,898.07,271.66,898.69,270,898.32Z"/></g><g id="Path-271-5" data-name="Path-271"><path class="cls-5" d="M272.11,905.59a8.5,8.5,0,0,0-5.66.71,10,10,0,0,0-3.63,2.94,12.1,12.1,0,0,1,3.75-5.28q2.55-2.06,4.92-.93a4,4,0,0,0,.45-3.42,6.09,6.09,0,0,0-3.1-3.82q4,.49,5.09,3a9.48,9.48,0,0,1,1,4.51,6.32,6.32,0,0,1,3.65-3,5.92,5.92,0,0,1,3.9.38q-1.18-.27-3.5,1.61T277.23,905q1.84.17,4.08,2.94t2.09,4.69a9.34,9.34,0,0,0-3.7-3.39,10,10,0,0,0-4.32-1.37,7,7,0,0,1-.56,6.31,14.19,14.19,0,0,1-3.26,3.66,10,10,0,0,0,1.07-7.75Q271.6,906,272.11,905.59Z"/></g></g><g id="Group-71-Copy-10"><g id="Path-272-6" data-name="Path-272"><path class="cls-4" d="M382.15,904.64c1.69-.37,5.18-1.39,10.24,1.93s11.09,10.22,6.79,19.92-14.53,11.58-20.77,10.16-12.16-4.27-12.76-13c-.18-2.69,2.2-9.14,5.18-12.34C377.27,904.39,380.45,905,382.15,904.64Z"/></g><g id="Path-271-6" data-name="Path-271"><path class="cls-5" d="M380,911.91a8.5,8.5,0,0,1,5.66.71,10,10,0,0,1,3.63,2.94,12.1,12.1,0,0,0-3.75-5.28q-2.55-2.06-4.92-.93a4,4,0,0,1-.45-3.42,6.09,6.09,0,0,1,3.1-3.82q-4,.49-5.09,3a9.48,9.48,0,0,0-1,4.51,6.32,6.32,0,0,0-3.65-3,5.92,5.92,0,0,0-3.9.38q1.18-.27,3.5,1.61t1.74,2.63q-1.84.17-4.08,2.94t-2.09,4.69a9.34,9.34,0,0,1,3.7-3.39,10,10,0,0,1,4.32-1.37,7,7,0,0,0,.56,6.31,14.19,14.19,0,0,0,3.26,3.66,10,10,0,0,1-1.07-7.75Q380.51,912.33,380,911.91Z"/></g></g><g id="Group-71-Copy-14"><g id="Path-272-7" data-name="Path-272"><path class="cls-4" d="M577.54,944.91c1.69-.37,5.18-1.39,10.24,1.93s11.09,10.22,6.79,19.92S580,978.34,573.8,976.91s-12.16-4.27-12.76-13c-.18-2.69,2.2-9.14,5.18-12.34C572.66,944.66,575.84,945.28,577.54,944.91Z"/></g><g id="Path-271-7" data-name="Path-271"><path class="cls-5" d="M575.39,952.18a8.5,8.5,0,0,1,5.66.71,10,10,0,0,1,3.63,2.94,12.1,12.1,0,0,0-3.75-5.28q-2.55-2.06-4.92-.93a4,4,0,0,1-.45-3.42,6.09,6.09,0,0,1,3.1-3.82q-4,.49-5.09,3a9.48,9.48,0,0,0-1,4.51,6.32,6.32,0,0,0-3.65-3,5.92,5.92,0,0,0-3.9.38q1.18-.27,3.5,1.61t1.74,2.63q-1.84.17-4.08,2.94t-2.09,4.69a9.34,9.34,0,0,1,3.7-3.39,10,10,0,0,1,4.32-1.37,7,7,0,0,0,.56,6.31,14.19,14.19,0,0,0,3.26,3.66,10,10,0,0,1-1.07-7.75Q575.9,952.6,575.39,952.18Z"/></g></g><g id="Group-71-Copy-2"><g id="Path-272-8" data-name="Path-272"><path class="cls-4" d="M485.92,839.52c-.89,1.66-3,5-1.06,11.28s7.79,13.23,19.2,11.65,17.7-9.45,18.08-16.4S519.66,831.22,510.7,828c-2.75-1-10.21-.44-14.44,1.72C487.12,834.35,486.81,837.86,485.92,839.52Z"/></g><g id="Path-271-8" data-name="Path-271"><path class="cls-5" d="M494.82,840a9.34,9.34,0,0,0-.95,6.19,11,11,0,0,0,2,4.72,13.33,13.33,0,0,1-4.43-5.56q-1.41-3.31.5-5.47a4.37,4.37,0,0,0-3.46-1.51,6.64,6.64,0,0,0-5,2.1q1.7-4,4.7-4.45a10.36,10.36,0,0,1,5,.32,7,7,0,0,1-2-4.75,6.49,6.49,0,0,1,1.57-4q-.64,1.17.65,4.19t2.25,2.63q.73-1.89,4.32-3.41t5.56-.78a10.18,10.18,0,0,0-4.68,2.87,10.89,10.89,0,0,0-2.73,4.14q4.28-.11,6.48,2.51a15.65,15.65,0,0,1,2.88,4.56,11,11,0,0,0-7.83-3.48Q495.1,840.71,494.82,840Z"/></g></g><g id="Group-71-Copy-21"><g id="Path-272-9" data-name="Path-272"><path class="cls-4" d="M209.51,864c-.89,1.66-3,5-1.06,11.28s7.79,13.23,19.2,11.65,17.7-9.45,18.08-16.4-2.49-14.82-11.45-18.06c-2.75-1-10.21-.44-14.44,1.72C210.71,858.88,210.41,862.39,209.51,864Z"/></g><g id="Path-271-9" data-name="Path-271"><path class="cls-5" d="M218.41,864.56a9.34,9.34,0,0,0-.95,6.19,11,11,0,0,0,2,4.72,13.33,13.33,0,0,1-4.43-5.56q-1.41-3.31.5-5.47a4.37,4.37,0,0,0-3.46-1.51,6.64,6.64,0,0,0-5,2.1q1.7-4,4.7-4.45a10.36,10.36,0,0,1,5,.32,7,7,0,0,1-2-4.75,6.49,6.49,0,0,1,1.57-4q-.64,1.17.65,4.19T219.3,859q.73-1.89,4.32-3.41t5.56-.78a10.18,10.18,0,0,0-4.68,2.87,10.89,10.89,0,0,0-2.73,4.14q4.28-.11,6.48,2.51a15.65,15.65,0,0,1,2.88,4.56,11,11,0,0,0-7.83-3.48Q218.69,865.23,218.41,864.56Z"/></g></g><g id="Group-71-Copy"><g id="Path-272-10" data-name="Path-272"><path class="cls-4" d="M428.26,831.84c-1.82,1-5.76,2.72-7.85,9.67s-2.06,15.09,9.2,20.65,21.74,2.22,26.33-3.9,7.81-13.3,1.72-21.76c-1.87-2.6-8.94-6.67-14.07-7.3C432.5,827.85,430.08,830.87,428.26,831.84Z"/></g><g id="Path-271-10" data-name="Path-271"><path class="cls-5" d="M435.66,836.7a10,10,0,0,0-4.66,4.92A11.5,11.5,0,0,0,430,847a14,14,0,0,1-.66-7.62q.74-3.8,3.81-4.55-.06-1.77-2.25-3.44a7.51,7.51,0,0,0-5.83-1.13q4-2.54,7-1.11a11.54,11.54,0,0,1,4.43,3.34,7.3,7.3,0,0,1,1.06-5.44,7.06,7.06,0,0,1,3.88-2.6q-1.3.65-2,4.11t.45,3.7q1.83-1.23,6-.41t5.58,2.67a11.51,11.51,0,0,0-6-.28,12,12,0,0,0-5,2q4,2.5,4.41,6.15a16.4,16.4,0,0,1-.15,5.79,11.93,11.93,0,0,0-5.05-7.84Q435.51,837.47,435.66,836.7Z"/></g></g><g id="Group-71-Copy-22"><g id="Path-272-11" data-name="Path-272"><path class="cls-4" d="M167.75,829.89c-1.82,1-5.76,2.72-7.85,9.67s-2.06,15.09,9.2,20.65,21.74,2.22,26.33-3.9,7.81-13.3,1.72-21.76c-1.87-2.6-8.94-6.67-14.07-7.3C172,825.9,169.57,828.92,167.75,829.89Z"/></g><g id="Path-271-11" data-name="Path-271"><path class="cls-5" d="M175.15,834.75a10,10,0,0,0-4.66,4.92,11.5,11.5,0,0,0-1.05,5.4,14,14,0,0,1-.66-7.62q.74-3.8,3.81-4.55-.06-1.77-2.25-3.44a7.51,7.51,0,0,0-5.83-1.13q4-2.54,7-1.11a11.54,11.54,0,0,1,4.43,3.34,7.3,7.3,0,0,1,1.06-5.44,7.06,7.06,0,0,1,3.88-2.6q-1.3.65-2,4.11t.45,3.7q1.83-1.23,6-.41t5.58,2.67a11.51,11.51,0,0,0-6-.28,12,12,0,0,0-5,2q4,2.5,4.41,6.15a16.4,16.4,0,0,1-.15,5.79,11.93,11.93,0,0,0-5.05-7.84Q175,835.52,175.15,834.75Z"/></g></g><g id="Group-71-Copy-13"><g id="Path-272-12" data-name="Path-272"><path class="cls-4" d="M513.09,940.59c-2.12,1.12-6.7,3.16-9.13,11.24s-2.4,17.54,10.7,24,25.28,2.59,30.63-4.54,9.09-15.46,2-25.31c-2.18-3-10.39-7.76-16.37-8.48C518,935.95,515.21,939.46,513.09,940.59Z"/></g><g id="Path-271-12" data-name="Path-271"><path class="cls-5" d="M522.22,946.18a11.73,11.73,0,0,0-5.4,5.78,13.66,13.66,0,0,0-1.23,6.33,16.62,16.62,0,0,1-.74-8.93q.86-4.45,4.42-5.35-.06-2.08-2.6-4t-6.74-1.31q4.66-3,8.14-1.32a13.28,13.28,0,0,1,5.12,3.9q-.48-4.09,1.24-6.37a8.23,8.23,0,0,1,4.5-3.06q-1.5.77-2.29,4.82t.51,4.33q2.12-1.45,7-.5t6.45,3.11a13.15,13.15,0,0,0-7-.32,13.91,13.91,0,0,0-5.84,2.38q4.61,2.92,5.08,7.19a19.47,19.47,0,0,1-.19,6.79,13.91,13.91,0,0,0-5.82-9.17Q522,947.08,522.22,946.18Z"/></g></g><g id="Group-71-Copy-23"><g id="Path-272-13" data-name="Path-272"><path class="cls-4" d="M209.63,943.65c-2.12,1.12-6.7,3.16-9.13,11.24s-2.4,17.54,10.7,24,25.28,2.59,30.63-4.54,9.09-15.46,2-25.31c-2.18-3-10.39-7.76-16.37-8.48C214.57,939,211.75,942.53,209.63,943.65Z"/></g><g id="Path-271-13" data-name="Path-271"><path class="cls-5" d="M218.77,949.24a11.73,11.73,0,0,0-5.4,5.78,13.66,13.66,0,0,0-1.23,6.33,16.62,16.62,0,0,1-.74-8.93q.86-4.45,4.42-5.35-.06-2.08-2.6-4t-6.74-1.31q4.66-3,8.14-1.32a13.28,13.28,0,0,1,5.12,3.9q-.48-4.09,1.24-6.37a8.23,8.23,0,0,1,4.5-3.06q-1.5.77-2.29,4.82t.51,4.33q2.12-1.45,7-.5t6.45,3.11a13.15,13.15,0,0,0-7-.32,13.91,13.91,0,0,0-5.84,2.38q4.61,2.92,5.08,7.19a19.47,19.47,0,0,1-.19,6.79,13.91,13.91,0,0,0-5.82-9.17Q218.59,950.15,218.77,949.24Z"/></g></g><g id="Group-71-Copy-6"><g id="Path-272-14" data-name="Path-272"><path class="cls-4" d="M577.19,833.89c2,1.08,6.46,3,8.79,10.79s2.3,16.84-10.34,23.07-24.4,2.51-29.55-4.33-8.75-14.84-1.9-24.3c2.1-2.91,10-7.46,15.8-8.16C572.43,829.44,575.15,832.81,577.19,833.89Z"/></g><g id="Path-271-14" data-name="Path-271"><path class="cls-5" d="M568.89,839.19a11.38,11.38,0,0,1,5.25,5.61,13.23,13.23,0,0,1,1.19,6.15,16.11,16.11,0,0,0,.73-8.67q-.84-4.32-4.29-5.19.06-2,2.53-3.91t6.56-1.28q-4.53-2.9-7.91-1.28a12.93,12.93,0,0,0-5,3.79q.47-4-1.2-6.19a8,8,0,0,0-4.38-3q1.46.75,2.23,4.68t-.5,4.21q-2.06-1.41-6.81-.48t-6.27,3a12.82,12.82,0,0,1,6.8-.31,13.54,13.54,0,0,1,5.68,2.31q-4.49,2.84-4.94,7a18.85,18.85,0,0,0,.18,6.59,13.51,13.51,0,0,1,5.67-8.9Q569.06,840.07,568.89,839.19Z"/></g></g><g id="Group-71-Copy-11"><g id="Path-272-15" data-name="Path-272"><path class="cls-4" d="M417.16,943.89c2,1.08,6.46,3,8.79,10.79s2.3,16.84-10.34,23.07-24.4,2.51-29.55-4.33-8.75-14.84-1.9-24.3c2.1-2.91,10-7.46,15.8-8.16C412.41,939.44,415.12,942.82,417.16,943.89Z"/></g><g id="Path-271-15" data-name="Path-271"><path class="cls-5" d="M408.86,949.2a11.38,11.38,0,0,1,5.25,5.61,13.23,13.23,0,0,1,1.19,6.15,16.11,16.11,0,0,0,.73-8.67q-.84-4.32-4.29-5.19.06-2,2.53-3.91t6.56-1.28q-4.53-2.9-7.91-1.28a12.93,12.93,0,0,0-5,3.79q.47-4-1.2-6.19a8,8,0,0,0-4.38-3q1.46.75,2.23,4.68t-.5,4.21q-2.06-1.41-6.81-.48t-6.27,3a12.82,12.82,0,0,1,6.8-.31,13.54,13.54,0,0,1,5.68,2.31q-4.49,2.84-4.94,7a18.85,18.85,0,0,0,.18,6.59,13.51,13.51,0,0,1,5.67-8.9Q409,950.08,408.86,949.2Z"/></g></g><g id="Group-71-Copy-25"><g id="Path-272-16" data-name="Path-272"><path class="cls-4" d="M131.6,921.68c2,1.08,6.46,3,8.79,10.79s2.3,16.84-10.34,23.07-24.4,2.51-29.55-4.33-8.75-14.84-1.9-24.3c2.1-2.91,10-7.46,15.8-8.16C126.85,917.23,129.56,920.6,131.6,921.68Z"/></g><g id="Path-271-16" data-name="Path-271"><path class="cls-5" d="M123.3,927a11.38,11.38,0,0,1,5.25,5.61,13.23,13.23,0,0,1,1.19,6.15,16.11,16.11,0,0,0,.73-8.67q-.84-4.32-4.29-5.19.06-2,2.53-3.91t6.56-1.28q-4.53-2.9-7.91-1.28a12.93,12.93,0,0,0-5,3.79q.47-4-1.2-6.19a8,8,0,0,0-4.38-3q1.46.75,2.23,4.68t-.5,4.21q-2.06-1.41-6.81-.48t-6.27,3a12.82,12.82,0,0,1,6.8-.31,13.54,13.54,0,0,1,5.68,2.31q-4.49,2.84-4.94,7a18.85,18.85,0,0,0,.18,6.59,13.51,13.51,0,0,1,5.67-8.9Q123.47,927.86,123.3,927Z"/></g></g><g id="Group-71-Copy-8"><g id="Path-272-17" data-name="Path-272"><path class="cls-4" d="M448.76,907.54c1.82,1,5.76,2.72,7.85,9.67s2.06,15.09-9.2,20.65-21.74,2.22-26.33-3.9-7.81-13.3-1.72-21.76c1.87-2.6,8.94-6.67,14.07-7.3C444.52,903.55,446.94,906.57,448.76,907.54Z"/></g><g id="Path-271-17" data-name="Path-271"><path class="cls-5" d="M441.36,912.4a10,10,0,0,1,4.66,4.92,11.5,11.5,0,0,1,1.05,5.4,14,14,0,0,0,.66-7.62q-.74-3.8-3.81-4.55.06-1.77,2.25-3.44A7.51,7.51,0,0,1,452,906q-4-2.54-7-1.11a11.54,11.54,0,0,0-4.43,3.34,7.3,7.3,0,0,0-1.06-5.44,7.06,7.06,0,0,0-3.88-2.6q1.3.65,2,4.11t-.45,3.7q-1.83-1.23-6-.41t-5.58,2.67a11.51,11.51,0,0,1,6-.28,12,12,0,0,1,5,2q-4,2.5-4.41,6.15a16.4,16.4,0,0,0,.15,5.79,11.93,11.93,0,0,1,5.05-7.84Q441.51,913.17,441.36,912.4Z"/></g></g><g id="Group-71-Copy-26"><g id="Path-272-18" data-name="Path-272"><path class="cls-4" d="M198.3,893.89c1.82,1,5.76,2.72,7.85,9.67s2.06,15.09-9.2,20.65-21.74,2.22-26.33-3.9-7.81-13.3-1.72-21.76c1.87-2.6,8.94-6.67,14.07-7.3C194.06,889.9,196.48,892.92,198.3,893.89Z"/></g><g id="Path-271-18" data-name="Path-271"><path class="cls-5" d="M190.91,898.75a10,10,0,0,1,4.66,4.92,11.5,11.5,0,0,1,1.05,5.4,14,14,0,0,0,.66-7.62q-.74-3.8-3.81-4.55.06-1.77,2.25-3.44a7.51,7.51,0,0,1,5.83-1.13q-4-2.54-7-1.11a11.54,11.54,0,0,0-4.43,3.34,7.3,7.3,0,0,0-1.06-5.44,7.06,7.06,0,0,0-3.88-2.6q1.3.65,2,4.11t-.45,3.7q-1.83-1.23-6-.41T175,896.58a11.51,11.51,0,0,1,6-.28,12,12,0,0,1,5,2q-4,2.5-4.41,6.15a16.4,16.4,0,0,0,.15,5.79,11.93,11.93,0,0,1,5.05-7.84Q191.06,899.52,190.91,898.75Z"/></g></g><g id="Group-71-Copy-4"><g id="Path-272-19" data-name="Path-272"><path class="cls-4" d="M427.38,877.31c1.46,1.7,4.76,5,4.15,12.93s-3.8,16.21-17.33,17.5-22.81-6.2-25.06-14.25-2.71-16.62,6.74-22.89c2.9-1.92,11.62-3.33,17-2C424.66,871.58,425.92,875.61,427.38,877.31Z"/></g><g id="Path-271-19" data-name="Path-271"><path class="cls-5" d="M417.94,879.27a10.65,10.65,0,0,1,2.85,6.71,12,12,0,0,1-1,5.79,14.75,14.75,0,0,0,3.63-7.35q.72-4.07-2.12-6,.75-1.74,3.64-2.56a8.39,8.39,0,0,1,6.4,1.13q-3.12-4.09-6.75-3.83a12.74,12.74,0,0,0-5.82,1.61q1.79-3.32,1-5.83a7.64,7.64,0,0,0-3-4.09q1.07,1.15.42,4.86t-1.9,3.51q-1.39-1.94-6-2.75t-6.74.5a12.86,12.86,0,0,1,6.29,2.06,13.2,13.2,0,0,1,4.37,4q-5.05.95-6.89,4.43a17.17,17.17,0,0,0-2.09,5.83,12.89,12.89,0,0,1,8.2-5.86Q417.79,880.09,417.94,879.27Z"/></g></g><g id="Group-71-Copy-27"><g id="Path-272-20" data-name="Path-272"><path class="cls-4" d="M146,863.25c1.46,1.7,4.76,5,4.15,12.93s-3.8,16.21-17.33,17.5-22.81-6.2-25.06-14.25-2.71-16.62,6.74-22.89c2.9-1.92,11.62-3.33,17-2C143.24,857.53,144.51,861.56,146,863.25Z"/></g><g id="Path-271-20" data-name="Path-271"><path class="cls-5" d="M136.52,865.21a10.65,10.65,0,0,1,2.85,6.71,12,12,0,0,1-1,5.79,14.75,14.75,0,0,0,3.63-7.35q.72-4.07-2.12-6,.75-1.74,3.64-2.56a8.39,8.39,0,0,1,6.4,1.13q-3.12-4.09-6.75-3.83a12.74,12.74,0,0,0-5.82,1.61q1.79-3.32,1-5.83a7.64,7.64,0,0,0-3-4.09q1.07,1.15.42,4.86t-1.9,3.51q-1.39-1.94-6-2.75t-6.74.5a12.86,12.86,0,0,1,6.29,2.06,13.2,13.2,0,0,1,4.37,4q-5.05.95-6.89,4.43a17.17,17.17,0,0,0-2.09,5.83,12.89,12.89,0,0,1,8.2-5.86Q136.37,866,136.52,865.21Z"/></g></g><g id="Group-71-Copy-7"><g id="Path-272-21" data-name="Path-272"><path class="cls-4" d="M511,910.08c1.49,1.7,4.86,5,4.27,13s-3.81,16.2-17.59,17.45-23.24-6.28-25.56-14.34-2.81-16.64,6.79-22.88c2.95-1.92,11.82-3.29,17.35-1.91C508.21,904.34,509.51,908.37,511,910.08Z"/></g><g id="Path-271-21" data-name="Path-271"><path class="cls-5" d="M501.68,912.44a11,11,0,0,1,2.81,6.91,12.8,12.8,0,0,1-1.05,6,15.59,15.59,0,0,0,3.68-7.6q.74-4.2-2.09-6.19.76-1.8,3.65-2.66a8.15,8.15,0,0,1,6.4,1.13q-3.1-4.2-6.74-3.91a12.58,12.58,0,0,0-5.84,1.7q1.81-3.43,1.06-6a7.76,7.76,0,0,0-2.94-4.21q1.07,1.18.39,5t-1.92,3.64q-1.38-2-6-2.81t-6.75.56a12.49,12.49,0,0,1,6.28,2.09,13.16,13.16,0,0,1,4.35,4.07q-5.06,1-6.92,4.6a18.24,18.24,0,0,0-2.13,6,13.12,13.12,0,0,1,8.24-6.09Q501.53,913.29,501.68,912.44Z"/></g></g><g id="Group-71-Copy-3"><g id="Path-272-22" data-name="Path-272"><path class="cls-4" d="M515.58,873.14c-1.82,1-5.76,2.72-7.85,9.67s-2.06,15.09,9.2,20.65,21.74,2.22,26.33-3.9,7.81-13.3,1.72-21.76c-1.87-2.6-8.94-6.67-14.07-7.3C519.82,869.15,517.4,872.18,515.58,873.14Z"/></g><g id="Path-271-22" data-name="Path-271"><path class="cls-5" d="M523,878a10,10,0,0,0-4.66,4.92,11.5,11.5,0,0,0-1.05,5.4,14,14,0,0,1-.66-7.62q.74-3.8,3.81-4.55-.06-1.77-2.25-3.44a7.51,7.51,0,0,0-5.83-1.13q4-2.54,7-1.11a11.54,11.54,0,0,1,4.43,3.34,7.3,7.3,0,0,1,1.06-5.44,7.06,7.06,0,0,1,3.88-2.6q-1.3.65-2,4.11t.45,3.7q1.83-1.23,6-.41t5.58,2.67a11.51,11.51,0,0,0-6-.28,12,12,0,0,0-5,2q4,2.5,4.41,6.15a16.4,16.4,0,0,1-.15,5.79,11.93,11.93,0,0,0-5.05-7.84Q522.83,878.77,523,878Z"/></g></g><g id="Group-71-Copy-29"><g id="Path-272-23" data-name="Path-272"><path class="cls-4" d="M268.75,841.89c-1.82,1-5.76,2.72-7.85,9.67s-2.06,15.09,9.2,20.65,21.74,2.22,26.33-3.9,7.81-13.3,1.72-21.76c-1.87-2.6-8.94-6.67-14.07-7.3C273,837.9,270.57,840.92,268.75,841.89Z"/></g><g id="Path-271-23" data-name="Path-271"><path class="cls-5" d="M276.15,846.75a10,10,0,0,0-4.66,4.92,11.5,11.5,0,0,0-1.05,5.4,14,14,0,0,1-.66-7.62q.74-3.8,3.81-4.55-.06-1.77-2.25-3.44a7.51,7.51,0,0,0-5.83-1.13q4-2.54,7-1.11a11.54,11.54,0,0,1,4.43,3.34,7.3,7.3,0,0,1,1.06-5.44,7.06,7.06,0,0,1,3.88-2.6q-1.3.65-2,4.11t.45,3.7q1.83-1.23,6-.41t5.58,2.67a11.51,11.51,0,0,0-6-.28,12,12,0,0,0-5,2q4,2.5,4.41,6.15a16.4,16.4,0,0,1-.15,5.79,11.93,11.93,0,0,0-5.05-7.84Q276,847.52,276.15,846.75Z"/></g></g><g id="Combined-Shape-Copy-25"><path class="cls-3" d="M349,976H613v49H349Zm95.06,18.27a7.06,7.06,0,0,0,0,14.12h68a7.06,7.06,0,0,0,0-14.12Z"/></g><g id="Combined-Shape-Copy-45"><path class="cls-3" d="M67,976H331v49H67Zm95.06,18.27a7.06,7.06,0,0,0,0,14.12h68a7.06,7.06,0,0,0,0-14.12Z"/></g><g id="Combined-Shape-Copy-35"><path class="cls-2" d="M441,57H705v49H441Zm95.06,18.27a7.06,7.06,0,1,0,0,14.12h68a7.06,7.06,0,1,0,0-14.12Z"/></g><g id="Combined-Shape-Copy-40"><path class="cls-2" d="M159,57H423v49H159Zm95.06,18.27a7.06,7.06,0,1,0,0,14.12h68a7.06,7.06,0,1,0,0-14.12Z"/></g><g id="Path-273"><path class="cls-5" d="M518.29,148.31c-8,10.13-14.59,16.69-27.83,16.69s-8.72-10.64-8.72-19-1.35-26,11.13-26,27,3.55,29.13,9.87S526.33,138.18,518.29,148.31Z"/></g><g id="Path-273-Copy-2"><path class="cls-5" d="M501.55,214c6.54-11.23,12.12-18.68,25.25-20.53s10.13,9.4,11.31,17.75,5,25.75-7.39,27.49-27.22.22-30.26-5.79S495,225.19,501.55,214Z"/></g><g id="Path-273-Copy-5"><path class="cls-5" d="M188.71,178.55c12.72-2.65,22-3.49,32.15,5s-.2,13.82-5.62,20.28-15.8,20.94-25.38,12.9-18.38-20.09-15.95-26.36S176,181.2,188.71,178.55Z"/></g><g id="Path-273-Copy"><path class="cls-5" d="M573.41,134.21c13-.17,22.25.77,30.59,11.08s-2.83,13.53-9.38,18.83-19.5,17.54-27.36,7.82S553.05,148.71,556.64,143,560.42,134.38,573.41,134.21Z"/></g><g id="Path-273-Copy-6"><path class="cls-5" d="M324,191.68c-12.93,1.3-22.23,1.17-31.44-8.37s1.64-13.73,7.7-19.58,17.9-19.17,26.58-10.18S343,175.46,340,181.44,337,190.37,324,191.68Z"/></g><g id="Path-273-Copy-3"><path class="cls-5" d="M673.55,148.11c5.85,11.61,9.06,20.35,3.46,32.36s-13.4,3.38-21-.18-24.3-9.84-19-21.18,14.65-23,21.33-22.24S667.7,136.5,673.55,148.11Z"/></g><g id="Path-273-Copy-7"><path class="cls-5" d="M354.47,211.81c-5-12-7.62-20.93-1.19-32.53s13.6-2.44,21,1.65,23.56,11.51,17.5,22.45-16.21,21.88-22.83,20.69S359.5,223.8,354.47,211.81Z"/></g><g id="Path-274"><path class="cls-5" d="M467,84.64c8.14-2.4,13.06,2.18,20.88,10.07S503,103.82,503,112.11,499,125,485,125s-23.61-10.71-23.61-20.5S458.83,87,467,84.64Z"/></g><g id="Path-274-Copy-5"><path class="cls-5" d="M223,118.64c8.14-2.4,13.06,2.18,20.88,10.07S259,137.82,259,146.11,255,159,241,159s-23.61-10.71-23.61-20.5S214.83,121,223,118.64Z"/></g><g id="Path-274-Copy-3"><path class="cls-5" d="M609.22,119.35c-5.07,6.8-11.72,6.14-22.66,4.62s-17.51,1.92-22.44-4.62-4.51-12.56,6.72-21,25.22-5.75,31,2S614.29,112.56,609.22,119.35Z"/></g><g id="Path-274-Copy-2"><path class="cls-5" d="M614,163.64c8.14-2.4,13.06,2.18,20.88,10.07S650,182.82,650,191.11,646,204,632,204s-23.61-10.71-23.61-20.5S605.83,166,614,163.64Z"/></g><g id="Path-274-Copy-7"><path class="cls-5" d="M252,189.64c8.14-2.4,13.06,2.18,20.88,10.07S288,208.82,288,217.11,284,230,270,230s-23.61-10.71-23.61-20.5S243.83,192,252,189.64Z"/></g><g id="Path-274-Copy"><path class="cls-5" d="M509.45,183.91c-.41,8.47-6.28,11.65-16.21,16.51s-13.44,11.39-21.18,8.72-10.75-7.89-6.18-21.18,17.7-18.88,26.84-15.73S509.86,175.44,509.45,183.91Z"/></g><g id="Path-274-Copy-4"><path class="cls-5" d="M633.58,107.64c3.14-7.88,9.73-9,20.7-10.33s16.41-6.39,22.87-1.35,7.6,11-1.05,22-22.87,12.09-30.49,6.13S630.44,115.52,633.58,107.64Z"/></g><g id="Path-275"><path class="cls-5" d="M517.49,130.18c-7.78-5.44-19-29.69-7.72-41.75s20.59-13.08,24.89,0,5.56,16.44,9.87,21.1,10.83,8.5,5.41,20.65S525.27,135.62,517.49,130.18Z"/></g><g id="Path-275-Copy-2"><path class="cls-5" d="M276,123.76c2.14-9.25,20.41-28.73,35.82-22.79s19.84,14.19,9.32,23.08S308,135.35,305.28,141.09s-3.83,13.22-17.12,12.75S273.87,133,276,123.76Z"/></g><g id="Path-275-Copy"><path class="cls-5" d="M603.75,227.7c-6.24,7.19-31.59,15.83-42.42,3.32s-10.88-21.91,2.61-24.82,17-3.82,22.07-7.63,9.61-9.91,21.15-3.23S610,220.52,603.75,227.7Z"/></g><g id="Path-276"><path class="cls-5" d="M551.3,205.8C540.87,207,530.5,203,523.68,179.91s0-40.2,13.81-31.67,9.38,17.48,20,27.67S561.72,204.57,551.3,205.8Z"/></g><g id="Path-276-Copy-2"><path class="cls-5" d="M656,137.35c-3,10.12-10.69,18.15-34.63,15.43s-36.94-15.69-23.69-25.13,19.75-1.85,33.29-7.74S659,127.23,656,137.35Z"/></g><g id="Path-276-Copy-4"><path class="cls-5" d="M392.84,121.15c-3,10.12-10.69,18.15-34.63,15.43s-36.94-15.69-23.69-25.13,19.75-1.85,33.29-7.74S395.8,111,392.84,121.15Z"/></g><g id="Path-276-Copy"><path class="cls-5" d="M631.85,197.39c10.19-2.68,21.06-.19,31.06,21.75s5.59,39.76-9.33,33.26-11.76-16-23.78-24.56S621.66,200.06,631.85,197.39Z"/></g><g id="Path-276-Copy-5"><path class="cls-5" d="M312.67,204.43c10.19-2.68,21.06-.19,31.06,21.75s5.59,39.76-9.33,33.26-11.76-16-23.78-24.56S302.48,207.11,312.67,204.43Z"/></g><g id="Combined-Shape-Copy-33"><path class="cls-3" d="M441,241H705v49H441Zm95.06,18.27a7.06,7.06,0,1,0,0,14.12h68a7.06,7.06,0,1,0,0-14.12Z"/></g><g id="Combined-Shape-Copy-41"><path class="cls-3" d="M159,241H423v49H159Zm95.06,18.27a7.06,7.06,0,1,0,0,14.12h68a7.06,7.06,0,1,0,0-14.12Z"/></g><g id="Combined-Shape-Copy-39"><path class="cls-2" d="M1003,57h264v49H1003Zm95.06,18.27a7.06,7.06,0,1,0,0,14.12h68a7.06,7.06,0,1,0,0-14.12Z"/></g><g id="Path-238"><path class="cls-4" d="M1056.78,67.82c12.74-5.6,15.66-8.71,18.11-6.09s-11.86,5.7-9.72,13.3-7.2,23.41-2.53,40.89,10.14,21.93,33.78,36.88,26.26,16.27,24.22,18.38,1.22,4.64-13.34,1.88-72.19-26.08-77-58.39S1044,73.42,1056.78,67.82Z"/></g><g id="Path-238-2" data-name="Path-238"><path class="cls-5" d="M1041.21,119.56c2.37-5.89,9.37-17.49,13.55-13.36s-6.92,5.83-7.58,14.81,3.09,9.55-.84,29.23,11.34,43.83,35,58.77,26.26,24.66,24.22,26.77,1.22,4.64-13.34,1.88-65.92-27-71.46-66.46S1038.84,125.45,1041.21,119.56Z"/></g><g id="Path-238-Copy-3"><path class="cls-4" d="M1113.74,67.12c12.74-5.6,15.66-8.71,18.11-6.09s-13.14,6.17-10.15,14.48-6.49,28.26-2.09,41.92,10.13,19.72,33.77,34.66,26.26,16.27,24.22,18.38,1.22,4.64-13.34,1.88-72.19-26.08-77-58.39S1101,72.72,1113.74,67.12Z"/></g><g id="Path-238-Copy-4"><path class="cls-4" d="M1181.66,71.31c12.74-5.6,15.66-8.71,18.11-6.09s-15,7.65-12.74,17.41-3,23.86,0,37.31,10.64,21.39,34.27,36.34,26.26,16.27,24.22,18.38,1.22,4.64-13.34,1.88-72.19-26.08-77-58.39S1168.92,76.91,1181.66,71.31Z"/></g><g id="Path-238-3" data-name="Path-238"><path class="cls-5" d="M1106.73,122.45c3.15-5.49,6.48-14.79,11.09-11.91s-4.33,5.26-6.23,14,2.32,13.83,1.22,26.19S1111.2,191,1120.64,204,1149,229.63,1149,231.76s-.39,8.22-14.37,3.47S1084,213.57,1084,173.81,1103.58,127.94,1106.73,122.45Z"/></g><g id="Path-238-Copy-2"><path class="cls-5" d="M1216.38,126.63c3.17-5.49,11.18-18.52,16.71-15.05s-8.23,9.24-10.14,18-7.8,28.25-8.91,40.62c-.7,7.82,2.56,25.11,7.35,30.74,10,11.76,18,19.83,27.42,24.49s1.85,13.69-11.95,7.38-51.86-16.25-51.86-56S1213.21,132.12,1216.38,126.63Z"/></g><g id="Path-238-Copy"><path class="cls-5" d="M1154.93,130.41c5.26-5.8,6.75-17.45,12.85-13.66s-4,5.25-5.81,13.66,1.81,14.38-1.06,32,7.84,38.73,15.57,46.67S1204,231.86,1204,233.9s.26,8-13.17,3.42S1131,211.94,1131,177.58,1149.67,136.21,1154.93,130.41Z"/></g><g id="Combined-Shape-Copy-19"><path class="cls-2" d="M1149,424h264v49H1149Zm95.06,18.27a7.06,7.06,0,0,0,0,14.12h68a7.06,7.06,0,0,0,0-14.12Z"/></g><g id="Path-198"><path class="cls-4" d="M1169.9,457.35c2.16-7.34,4.08-13.63,14-11.09s11,7.4,11.18,11.09-1.93,13.47-1.56,21.34-2.08,28-2.42,34.58.19,17.27-2.77,23.93-.63,14.94,1.25,18.4-2.33-4.12-8.07-8.82-8.85-12.29-10.05-23.36-.84-14.59-.84-33.34S1167.74,464.69,1169.9,457.35Z"/></g><g id="Path-199"><path class="cls-4" d="M1180.93,449.67a11.89,11.89,0,0,0-2.63-9.06q-3.09-3.66-8.62-9.43a21.39,21.39,0,0,1,6.69,4.7q3,3.06,4.83,5,.72-8.15-.27-10.6c-1-2.45-6.84-7.81-10.85-11.06s4.77,2.62,5.88,2.62q1.11,0,.27-5.41l2.18,7.42,3.61,4a36.27,36.27,0,0,1,0-8.48,35.36,35.36,0,0,1,2-8.15q-1.31-7-4.25-10.64c-2.93-3.68,1.6,0,2.93,1.3q1.32,1.28,2.93-3.67a26.67,26.67,0,0,0-.84,7.26q.06,3.88.68,2.48,4.39-7.13,7.86-10.24c3.47-3.11-7.06,11.18-7.93,17.81a30.16,30.16,0,0,0,10.15-3.08,35.88,35.88,0,0,1-4.27,3.55c-1.85,1.19-4.84,1.47-5.89,2.18q-2.8,1.9-.85,15.18a15.64,15.64,0,0,0,5.22-2c1.7-1.2,2.63-3.29,3.47-7.81s1.15,3.28-.07,6q-1.22,2.75,6.62-5.86-5.93,9-10.35,10.43t-4.56,2.32q-.57,1.27-.1,6.08t.58,7.15Z"/></g><g id="Path-200"><path class="cls-4" d="M1246.37,566.39q-3.67-8.62-3.64-12.16c0-3.54,6.15-16.49,5.76-26.21s-2.12-14.7,1.22-35.67,4.57-30.62,1.11-38.08-9.86-10.44-21.33-9.5-12.41,22.54-10.22,30.48,7.38,26,5.3,38,0,22.33,4.73,29.72c2,3.07,6.77,6.32,10.72,11.65A75.17,75.17,0,0,1,1246.37,566.39Z"/></g><g id="Path-204"><path class="cls-4" d="M1342.89,456c1.5-3.48,5-10.34,14-8.94s14.14,7.23,13.67,15.55-5.67,25.56-3,38.8,7.52,32.66,2,40.48-9.29,5.9-10.2,11.16a42.48,42.48,0,0,0-.75,8.77,25.29,25.29,0,0,1-2-10c.15-4.55-2.42-9.79-7.34-20.31s-1.28-24.29-5.56-40.72S1341.39,459.44,1342.89,456Z"/></g><g id="Path-205"><path class="cls-4" d="M1359.86,452.33q-2.84-7-1.81-9.34c1-2.32,7.37-7,8.79-6.33l4.05,1.81-3.51-3,3.38-3q-12.24,5.22-12.86,6.62c-.62,1.4-1.55-2.71-.27-10.71q1.28-8,12.89-9l-6.44-.68,7.15-5.28a20,20,0,0,0-8.93,4.48,29.65,29.65,0,0,0-5.24,6q4.08-13.62,7.39-16.62c3.32-3-4.7,5.21-5.47,6.93q-.77,1.73,0-14.84-3.24,13.08-3,18.06c.2,5-2.07-.92-7.58-3.38q-5.5-2.45-6.77-1.17a28,28,0,0,1,8.94,5.45,19,19,0,0,1,4.22,5.43,30.92,30.92,0,0,0-.44,12.11c1,5.88-3.52-3.56-10.2-6.53q-6.67-3-9-2,8.24,2.09,9.49,4.22t-6.31,5q9.66-1.94,8.44-2.48c-1.22-.54,4.61,3.53,5.51,6.32a127.9,127.9,0,0,1,2.67,14Z"/></g><g id="Path-207"><path class="cls-6" d="M1283.47,483.94q-5.88-6.84-9.59-11.23a47.28,47.28,0,0,1-6-8.79q7.15,5,8.53,8.32t2.41-4q-.3,5,1.44,7.29a9.44,9.44,0,0,0,3.45,3.06q1.79-8.82-1.34-10.79c-3.13-2-6.31-3.36-8.05-8.92s3,2.29,5.89,4.77q2.9,2.48,4.14-.3-8.33-8.21-8.71-12.14c-.38-3.93,1.75,3,5.19,5.77q3.44,2.81,5-1.25l1-6.81q.56,3.41,1.13,11.2t-1.15,11.65a10,10,0,0,0,7.56-6.13l-4.92,11q-1.65,3.7-1.93,11Z"/></g><g id="Path-197"><path class="cls-4" d="M1234,447.56q.63-4.72,1.06-9.17a86.35,86.35,0,0,0,.37-9.59q-3.07-1.25-6.45-5.87t-4-8q3.42,3.77,5,5.82a27.44,27.44,0,0,0,1.74,2.2l1.87-4.2-.34,4.88,2.21,2.18,1.65-8.79a22.38,22.38,0,0,1-5.07-7.24l-2.49-5.06,4.84,6.1-.27-5.73,2.1,7.74,1,1.86,2.3-9.29q-4.77-7.08-5.36-11a16.69,16.69,0,0,1,0-6.19q.93,6.58,1.91,7t3.67-8.25a45.29,45.29,0,0,0-2,10.19,7,7,0,0,0,2.81,6.13,18.45,18.45,0,0,1,1.8-6.1,41.92,41.92,0,0,1,4.13-7.23,111.68,111.68,0,0,0-3.85,11.39,45.29,45.29,0,0,0-1.44,8.74q2.69-.43,6.62-3.56c3.93-3.13-.29.59-3.29,3.21q-3,2.61-3.76,3.36a21.06,21.06,0,0,0-1.4,8.24q.21,3.7,6.75-5.28l3.82-8.58-2.08,7.47,7.92-7.74q-7,8.45-9.59,11.48a53.2,53.2,0,0,1-6.6,6.35q-.27,7-.21,12.14t.55,11.85Z"/></g><g id="Path-202"><path class="cls-4" d="M1288.82,450.7c2.14-4,7.21-8.83,17.94-4.63s13.79,10.82,9.49,25.39-5.11,40.48-5.79,49.44-4,18.75-4,24.88a25.73,25.73,0,0,0,1.69,10.25q-2-4.86-7.79-9.9c-5.78-5-13.19-18.51-10.92-33.74s-2.15-23.66-4.07-37.68S1286.69,454.72,1288.82,450.7Z"/></g><g id="Path-198-2" data-name="Path-198"><path class="cls-5" d="M1194.68,511.17c2.41-6.68,5.31-11.73,15-8.39s10.56,8,10.57,11.48-2.41,12.46-2.36,19.89-3.13,26.08-3.72,32.24-.48,16.24-3.65,22.2-1.2,14,.52,17.4-2.13-4.09-7.6-9.05-9-14-9.74-24.56-.2-15.21-.28-31S1192.27,517.85,1194.68,511.17Z"/></g><g id="Path-200-2" data-name="Path-200"><path class="cls-5" d="M1270,618.28q-2.93-8.45-2.64-11.68c.29-3.23,7.2-14.09,7.53-23s-1-13.75,3.82-32.37,6.7-27.23,3.9-34.59-8.8-11.08-20-12-13.72,18.62-12.18,26.22,5.25,24.86,2.34,35.52-1.62,20.39,2.39,27.87c1.67,3.11,6.11,6.84,9.55,12.32A74.94,74.94,0,0,1,1270,618.28Z"/></g><g id="Path-201"><path class="cls-4" d="M1299.09,448.55q-1.75-10.62-6.77-14.74c-5-4.12-5.13-6.06.7-1.57q5.83,4.48,7.08,8.05l.65-7.13a40.43,40.43,0,0,1,1.5-7.75,14.6,14.6,0,0,1-6-5.94q-2.69-4.39-4.45-13.92,2.5,6.56,4.2,8.6t3.14-7.06q-1.52,7.9-.3,11.45t3.89,3.82l1.42-4.47a17.13,17.13,0,0,1,3-5.49,18.56,18.56,0,0,1-3.54-4.59,15.64,15.64,0,0,1-1-5.36q1.38,6,2.43,2.95a22.82,22.82,0,0,1,2.11-4.73,8.14,8.14,0,0,0-1.3,6.67q.84,3.47,3.23,2.89a52.26,52.26,0,0,1,7.78-7.42c2.65-1.79-8.08,7.07-10,16.16q-1.94,9.08,11.42-3.38-10.08,9.39-12.39,9.88t-2.51,23.61Z"/></g><g id="Path-204-2" data-name="Path-204"><path class="cls-5" d="M1312.31,510.63c1.5-3.48,5-10.34,14-8.94s14.15,7.23,13.67,15.55-5.67,25.56-3,38.8,7.52,32.66,2,40.48-9.29,5.9-10.2,11.16a42.49,42.49,0,0,0-.75,8.77,25.29,25.29,0,0,1-2-10c.15-4.55-2.42-9.79-7.34-20.31s-1.28-24.29-5.56-40.72S1310.81,514.1,1312.31,510.63Z"/></g><g id="Path-203"><path class="cls-5" d="M1323.52,505.22q-.42-11.26.4-13.09c.82-1.84-6.81-8.9-11.64-10.1a51.38,51.38,0,0,0-7.2-1.4q4.59-2.1,8.07-.55l4.3,1.92a23.62,23.62,0,0,1-1.93-7.25c-.23-3.18,2.76,5.29,4.76,8.51a10.18,10.18,0,0,0,4,4.13,21.13,21.13,0,0,1,.75-5.9,22.63,22.63,0,0,1,2.39-5.6q-2.82-.9-6.12-8.32t-1.39-12.1a55.31,55.31,0,0,0,1.15,6,11.3,11.3,0,0,0,1.48,3.25q-.18-1.31,1.88-3a11.12,11.12,0,0,1,4.55-2.27q-5.71,4.61-5.11,7.37t5.12,5.72q1.69-5.27,9.68-11.66t7.47-4.66q-9.16,6.39-11.36,11.35t10.47-.88q-9.29,5.74-11.28,6.46c-2,.72-5.74,8.29-6,13.49q-.26,5.2.47,19.51Z"/></g><g id="Path-206"><path class="cls-5" d="M1372,508.63c3.79-4.49,8.86-5.6,16.59-2.16s9.33,17.57,7.41,32.7-2.82,36.07-1.26,43.48-1.67,15.81.58,18.87a11.56,11.56,0,0,1,1.91,7.89q-3.34-8.52-9.41-11.22c-6.07-2.7-9.66-6.64-9.85-14.22s-3.15-28.19-6.91-44.7S1368.21,513.12,1372,508.63Z"/></g><g id="Path-205-2" data-name="Path-205"><path class="cls-5" d="M1383.91,506q-2.84-7-1.81-9.34c1-2.32,7.37-7,8.79-6.33l4.05,1.81-3.51-3,3.38-3q-12.24,5.22-12.86,6.62c-.62,1.4-1.55-2.71-.27-10.71q1.28-8,12.89-9l-6.44-.68,7.15-5.28a20,20,0,0,0-8.93,4.48,29.65,29.65,0,0,0-5.24,6q4.08-13.62,7.39-16.62c3.32-3-4.7,5.21-5.47,6.93q-.77,1.73,0-14.84-3.24,13.08-3,18.06c.2,5-2.07-.92-7.58-3.38q-5.5-2.45-6.77-1.17a28,28,0,0,1,8.94,5.45,19,19,0,0,1,4.22,5.43,30.92,30.92,0,0,0-.44,12.11c1,5.88-3.52-3.56-10.2-6.53q-6.67-3-9-2,8.24,2.09,9.49,4.23t-6.31,5q9.66-1.94,8.44-2.48c-1.22-.54,4.61,3.53,5.51,6.32a127.87,127.87,0,0,1,2.67,14Z"/></g><g id="Path-201-2" data-name="Path-201"><path class="cls-5" d="M1206.22,508.8q-1.75-10.62-6.77-14.74c-5-4.12-5.13-6.06.7-1.57q5.83,4.48,7.08,8.05l.65-7.13a40.44,40.44,0,0,1,1.5-7.75,14.6,14.6,0,0,1-6-5.94q-2.69-4.39-4.45-13.92,2.5,6.56,4.2,8.6t3.14-7.06q-1.52,7.9-.3,11.45t3.89,3.82l1.42-4.47a17.13,17.13,0,0,1,3-5.49,18.55,18.55,0,0,1-3.54-4.59,15.64,15.64,0,0,1-1-5.36q1.38,6,2.43,2.94a22.82,22.82,0,0,1,2.11-4.73,8.14,8.14,0,0,0-1.3,6.67q.84,3.47,3.23,2.89a52.26,52.26,0,0,1,7.78-7.42c2.65-1.79-8.08,7.07-10,16.16q-1.94,9.08,11.42-3.38-10.08,9.39-12.39,9.88t-2.51,23.61Z"/></g><g id="Path-199-2" data-name="Path-199"><path class="cls-5" d="M1265.26,510.44a10.24,10.24,0,0,0-2.74-7.64q-3.09-3.66-8.62-9.43a21.39,21.39,0,0,1,6.69,4.7q3,3.06,4.83,5,.72-8.15-.27-10.6c-1-2.45-6.84-7.81-10.85-11.06s3.07,1.37,5.88,2.62q2.8,1.25.27-5.41l2.18,7.42,3.61,4a36.27,36.27,0,0,1,0-8.48,35.36,35.36,0,0,1,2-8.15q-1.31-7-4.25-10.64c-2.93-3.68-.85-2.53,2.93,1.3q3.77,3.83,3.77-3.67a15.17,15.17,0,0,0-1.68,7.26q.06,3.88.68,2.48,4.39-7.13,7.86-10.24c3.47-3.11-7.06,11.18-7.93,17.81a30.16,30.16,0,0,0,10.15-3.09,35.87,35.87,0,0,1-4.27,3.55c-1.85,1.19-4.84,1.47-5.89,2.18q-2.8,1.9-.85,15.18a15.64,15.64,0,0,0,5.22-2c1.7-1.2,2.63-3.29,3.47-7.81s1.15,3.28-.07,6q-1.22,2.75,6.62-5.86-5.93,9-10.35,10.43t-4.56,2.32q-.57,1.27-.1,6.08t.58,7.15Z"/></g><g id="Combined-Shape-Copy-28"><path class="cls-2" d="M1096,792h264v49H1096Zm95.06,18.27a7.06,7.06,0,0,0,0,14.12h68a7.06,7.06,0,0,0,0-14.12Z"/></g><g id="Combined-Shape-Copy-20"><path class="cls-2" d="M1430,424h264v49H1430Zm95.06,18.27a7.06,7.06,0,0,0,0,14.12h68a7.06,7.06,0,0,0,0-14.12Z"/></g><g id="Path-228-Copy"><path class="cls-5" d="M1638.12,601.91q-6.39,2.73-11-1.36-9.49,3.83-14.6,0c-5.11-3.83-10.88-26.65-1.66-37s17.16-.17,23.82,1.42,10.12-4.3,17.36,4.13S1644.52,599.18,1638.12,601.91Z"/></g><g id="Path-229-Copy"><path class="cls-4" d="M1632.27,551a28.09,28.09,0,0,1,3.36,7.92c1,3.94,0,11.08-1.68,11.08s-4.65-.38-1.68-6.67A13.54,13.54,0,0,0,1632.27,551Z"/></g><g id="Path-236"><path class="cls-5" d="M1548.28,602.21c-4.43,4-13.63,4.78-18.83-5.1s-13.52-22.1-7.15-33.1,15.25-3.19,22.34-3.19,19.1-10.43,25.37,3.19,4.69,30.61-1.58,36.83S1552.71,598.2,1548.28,602.21Z"/></g><g id="Path-237"><path class="cls-4" d="M1541,548a63.83,63.83,0,0,1,3.29,9.88,9.41,9.41,0,0,1-.84,5.84c-1.31,2.85,2.13,7.41,5.72,1.09Q1552.75,558.49,1541,548Z"/></g><g id="Path-226"><path class="cls-5" d="M1510.59,553.78c-2.62-1.47-2.62,1.35-5.37,3.21s-13.45,3.56-19.38-18.19-2.13-30.07,7.32-31.69c3.44-.59,7.9,1.64,12.42,1.28,7.9-.64,10.1-8.67,19.77-1.28,9.93,7.6,7.1,36.94,2.11,44-2.65,3.75-5,6.22-9.13,5.88C1514.73,556.69,1512.51,554.85,1510.59,553.78Z"/></g><g id="Path-228"><path class="cls-5" d="M1480.46,497.91q-6.26,2.73-10.76-1.36-9.29,3.83-14.3,0c-5-3.83-10.65-26.65-1.63-37s16.8-.17,23.32,1.42,9.91-4.3,17,4.13S1486.71,495.18,1480.46,497.91Z"/></g><g id="Path-229"><path class="cls-4" d="M1474.27,447a28.09,28.09,0,0,1,3.36,7.92c1,3.94,0,11.08-1.68,11.08s-4.65-.38-1.68-6.67A13.54,13.54,0,0,0,1474.27,447Z"/></g><g id="Path-230"><path class="cls-5" d="M1634.15,491.16c-3.32,8.62-9,2.21-13.36,3.78s-5.6,5.06-13.22,5.06-17.82-10.88-16.45-31.85,22-10.56,26.33-10.56,8.26-3.83,13.53,0S1637.47,482.54,1634.15,491.16Z"/></g><g id="Path-230-Copy-2"><path class="cls-5" d="M1491.15,595.16c-3.32,8.62-9,2.21-13.36,3.78s-5.6,5.06-13.22,5.06-17.82-10.88-16.45-31.85,22-10.56,26.33-10.56,8.26-3.83,13.53,0S1494.47,586.54,1491.15,595.16Z"/></g><g id="Path-231"><path class="cls-4" d="M1620,445.08c0,.67-2,1.64-3.23,6.18s.13,5.88,1.37,7,1.61,3.83-1.62,4.67-4.11-4.86-3.15-9.82S1620,444.41,1620,445.08Z"/></g><g id="Path-231-Copy-2"><path class="cls-4" d="M1477,549.08c0,.67-2,1.64-3.23,6.18s.13,5.88,1.37,7,1.61,3.83-1.62,4.67-4.11-4.86-3.15-9.82S1477,548.41,1477,549.08Z"/></g><g id="Path-232"><path class="cls-5" d="M1563.58,508.76c7-6.9,12.66-2.69,19.41,0s9.31.54,14.68-1.09,15.42,3.28,11.42,19.08c-1.62,6.41-3.36,21.67-9.46,26.34q-3.92,3-16.64-1.76-7.5,6.7-14.88,1.17C1560.73,547,1556.61,515.66,1563.58,508.76Z"/></g><g id="Path-233"><path class="cls-4" d="M1591,497q-2,1.65-2,7.47c0,5.82,3.11,9-1.73,10.3s-5.12-3.37-3.11-8.91A18,18,0,0,1,1591,497Z"/></g><g id="Path-234"><path class="cls-5" d="M1656,548.66q-4.47,7.29-12.45,4.63c-8-2.66-19-18.81-12.7-33.86s16-7.81,22.87-7.81,9.6-5.89,18.89,0,5.35,34.75-3.1,39Q1661.09,554.89,1656,548.66Z"/></g><g id="Path-235"><path class="cls-4" d="M1652.93,514.1c1.15,3.92,5.07,3.83,5.07,0s-1.7-14.36-10.08-15,3.86.59,5,5.27S1651.78,510.18,1652.93,514.1Z"/></g><g id="Path-224"><path class="cls-5" d="M1548.13,498.57q-6.16,7.24-15.48,4.83c-9.32-2.41-25.57-21-19.22-37.47,5.67-14.73,13.63-7.52,21.54-9.09,10.76-2.15,10.62-9.72,20.28,0,9,9.07,8.1,36.9,2.54,41.73Q1552.23,503.4,1548.13,498.57Z"/></g><g id="Path-225"><path class="cls-4" d="M1531.32,440c-1.23.7,1.49,6.86,2.1,10.58s0,5.1-.7,7.92.87,5.42,3.83,4.12,3-4.53,1.48-8.32S1532.55,439.34,1531.32,440Z"/></g><g id="Path-227"><path class="cls-4" d="M1500,500q3.18,1.83,2.12,6c-1.06,4.18-.81,5.92,1.49,5.92s4.52.64,2.76-5.92Q1504.61,499.5,1500,500Z"/></g><g id="Combined-Shape-Copy-29"><path class="cls-2" d="M1377,792h264v49H1377Zm95.06,18.27a7.06,7.06,0,0,0,0,14.12h68a7.06,7.06,0,0,0,0-14.12Z"/></g><g id="Combined-Shape-Copy-46"><path class="cls-2" d="M1657.91,792h264v49h-264ZM1753,810.27a7.06,7.06,0,0,0,0,14.12h68a7.06,7.06,0,1,0,0-14.12Z"/></g><g id="Group-54-Copy"><g id="Path-258"><path class="cls-4" d="M1404.7,866.25a109.59,109.59,0,0,1-3.11-11.5c-5.21-27.25-8.36-46.58-10.7-54.72q-4-14.07-2.76-14.55,2.62-1.81,4.58,4.84t16.09,60.73Q1397.19,782.58,1394,774c-3.24-8.6-2.26-14.56,1.64-8q3.9,6.61,19,77.74-3.65-53.09-8.18-73.59t-6.24-26.8q2.89-2.77,3.89-2.38c1,.39,6.68,25.87,9.7,37.79q3,11.92,6.48,52.49,3.75-87.17,5.15-90.82c1.4-3.66,5.44-4.32,4.69,3.86-.47,5.13-1.42,42-5,111.75q-.22,4.39-1.76,14.07Z"/></g><g id="Path-257"><path class="cls-5" d="M1403.36,862.77q11.09,38.62,11.59,55.61t5.19,10.71q1.13-29.94,2.41-44.16t1.19-19.21q-5.32.12-9.14.06T1403.36,862.77Z"/></g></g><g id="Group-54-Copy-2"><g id="Path-258-2" data-name="Path-258"><path class="cls-4" d="M1685.61,866.25a109.59,109.59,0,0,1-3.11-11.5c-5.21-27.25-8.36-46.58-10.7-54.72q-4-14.07-2.76-14.55,2.62-1.81,4.58,4.84t16.09,60.73q-11.61-68.47-14.85-77.07c-3.24-8.6-2.26-14.56,1.64-8q3.9,6.61,19,77.74-3.65-53.09-8.18-73.59t-6.24-26.8q2.89-2.77,3.89-2.38c1,.39,6.68,25.87,9.7,37.79q3,11.92,6.48,52.49,3.75-87.17,5.15-90.82c1.4-3.66,5.44-4.32,4.69,3.86-.47,5.13-1.42,42-5,111.75q-.22,4.39-1.76,14.07Z"/></g><g id="Path-257-2" data-name="Path-257"><path class="cls-5" d="M1684.26,862.77q11.09,38.62,11.59,55.61t5.19,10.71q1.13-29.94,2.41-44.16t1.19-19.21q-5.32.12-9.14.06T1684.26,862.77Z"/></g></g><g id="Group-55-Copy"><g id="Path-258-3" data-name="Path-258"><path class="cls-4" d="M1484.3,865a100.34,100.34,0,0,0,2.28-10.75c3.41-25.37,5.32-43.34,7.05-51q3-13.16,1.8-13.54-2.52-1.55-4,4.67T1479.64,848q10.59-84.72,13.14-92.79c2.55-8.08,1.33-13.53-1.93-7.26q-3.27,6.27-15.51,80.63-1-29.23,2.16-48.35t2.7-22.09q-2.82-2.43-3.73-2c-.91.4-3.16,21.26-5.33,32.39q-2.18,11.13-2.32,56.41-5.69-59.74-7.18-63.06c-1.49-3.31-5.26-3.74-4.14,3.77.7,4.71.46,6.77,7.4,70.93q.44,4,2.36,12.9Z"/></g><g id="Path-257-3" data-name="Path-257"><path class="cls-5" d="M1485.42,861.5q-5.61,23.55-5.24,41.53c.13,6.23.93,17,.32,20.46q-.57,3.24-3.71.37a122.14,122.14,0,0,0-5-30.5,120.2,120.2,0,0,1-5.07-28.12q4.92-.16,8.43-.4T1485.42,861.5Z"/></g></g><g id="Group-52-Copy-3"><g id="Path-258-4" data-name="Path-258"><path class="cls-4" d="M1538.3,871.62a93.47,93.47,0,0,1-3.16-9.67c-5.65-23-9.19-39.35-11.55-46.19q-4.07-11.82-3-12.28,2.16-1.66,4.12,3.92t16.42,51.07q-12.93-57.88-16.07-65.07c-3.14-7.19-2.57-12.31,1-6.86q3.62,5.46,19.63,65.45-5.46-45.12-10.23-62.4T1529,767q2.34-2.49,3.22-2.21c.87.28,6.84,21.76,9.94,31.8q3.1,10,7.85,44.48-.65-74.52.39-77.7c1-3.18,4.45-3.93,4.17,3.08-.18,4.39.64,35.91.68,95.54q0,3.75-.88,12.08Z"/></g><g id="Path-257-4" data-name="Path-257"><path class="cls-5" d="M1537,868.71q11.17,32.44,12.35,46.91t4.9,8.9q-.36-25.59.11-37.78t.17-16.44q-4.54.34-7.79.47T1537,868.71Z"/></g></g><g id="Group-52-Copy-6"><g id="Path-258-5" data-name="Path-258"><path class="cls-4" d="M1819.21,871.62a93.47,93.47,0,0,1-3.16-9.67c-5.65-23-9.19-39.35-11.55-46.19q-4.07-11.82-3-12.28,2.16-1.66,4.12,3.92T1822,858.47Q1809.1,800.59,1806,793.4c-3.14-7.19-2.57-12.31,1-6.86q3.62,5.46,19.63,65.45-5.46-45.12-10.23-62.4T1809.9,767q2.34-2.49,3.22-2.21c.87.28,6.84,21.76,9.94,31.8q3.1,10,7.85,44.48-.65-74.52.39-77.7c1-3.18,4.45-3.93,4.17,3.08-.18,4.39.64,35.91.68,95.54q0,3.75-.88,12.08Z"/></g><g id="Path-257-5" data-name="Path-257"><path class="cls-5" d="M1817.91,868.71q11.17,32.44,12.35,46.91t4.9,8.9q-.36-25.59.11-37.78t.17-16.44q-4.54.34-7.79.47T1817.91,868.71Z"/></g></g><g id="Group-53-Copy-2"><g id="Path-258-Copy"><path class="cls-4" d="M1497.6,916.15q-4.28-14.1-4.19-23.37c.3-29.21.47-27.82.21-39.07q-.42-17.76-2.33-22.18,3-4.75,5.13,1.87t3.28,59.42q8.1-71.22,8.66-79.62t4.54-2.33l-5.4,78.07q2.59-12.72,5.29-28.25a153.89,153.89,0,0,1,8.49-30.2q6.87-7.82,5.06,1.09c-.82,4-5.54,13.68-8.05,31.18q-2.52,17.5-4.84,37.32,4.46-21.64,5.93-26.94a176.39,176.39,0,0,1,6.23-18.72c1.34-3.68,7.79-4.49,4.78,3.78a224,224,0,0,0-11.75,47.69q-.55,4.54-1.5,14.11Z"/></g><g id="Path-257-Copy"><path class="cls-5" d="M1497,914.52q11.76,38.42,12.56,55.4t5.38,10.62q.61-30,1.64-44.2t.86-19.23q-5.32.21-9.13.22T1497,914.52Z"/></g></g><g id="Group-53-Copy-4"><g id="Path-258-Copy-2" data-name="Path-258-Copy"><path class="cls-4" d="M1778.5,916.15q-4.28-14.1-4.19-23.37c.3-29.21.47-27.82.21-39.07q-.42-17.76-2.33-22.18,3-4.75,5.13,1.87t3.28,59.42q8.1-71.22,8.66-79.62t4.54-2.33l-5.4,78.07q2.59-12.72,5.29-28.25a153.89,153.89,0,0,1,8.49-30.2q6.87-7.82,5.06,1.09c-.82,4-5.54,13.68-8.05,31.18q-2.52,17.5-4.84,37.32,4.46-21.64,5.93-26.94a176.39,176.39,0,0,1,6.23-18.72c1.34-3.68,7.79-4.49,4.78,3.78a224,224,0,0,0-11.75,47.69q-.55,4.54-1.5,14.11Z"/></g><g id="Path-257-Copy-2" data-name="Path-257-Copy"><path class="cls-5" d="M1777.93,914.52q11.76,38.42,12.56,55.4t5.38,10.62q.61-30,1.64-44.2t.86-19.23q-5.32.21-9.13.22T1777.93,914.52Z"/></g></g><g id="Group-52-Copy-4"><g id="Path-258-6" data-name="Path-258"><path class="cls-4" d="M1600.11,871.24a93.47,93.47,0,0,1-2.13-9.95c-3.22-23.47-5-40.1-6.66-47.14q-2.81-12.18-1.7-12.53,2.32-1.43,3.69,4.33t11,52.51q-6.81-58.92-9.19-66.39c-2.37-7.48-1.27-12.52,1.76-6.71q3,5.81,12.68,67.15-.72-45.44-3.65-63.13t-4.11-23.13q2.59-2.24,3.43-1.86c.84.37,4.53,22.36,6.57,32.66q2,10.3,3.16,45.06,7.14-74.18,8.51-77.24c1.36-3.06,4.84-3.44,3.83,3.5-.63,4.35-3.11,35.78-9.31,95.09q-.39,3.73-2.14,11.92Z"/></g><g id="Path-257-6" data-name="Path-257"><path class="cls-5" d="M1599.12,868.21q7.72,33.43,7.38,47.95t3.95,9.36q2.32-25.49,4.06-37.56t1.89-16.33q-4.55-.13-7.8-.35T1599.12,868.21Z"/></g></g><g id="Group-52-Copy-7"><g id="Path-258-7" data-name="Path-258"><path class="cls-4" d="M1881,871.24a93.47,93.47,0,0,1-2.13-9.95c-3.22-23.47-5-40.1-6.66-47.14q-2.81-12.18-1.7-12.53,2.32-1.43,3.69,4.33t11,52.51q-6.81-58.92-9.19-66.39c-2.37-7.48-1.27-12.52,1.76-6.71q3,5.81,12.68,67.15-.72-45.44-3.65-63.13t-4.11-23.13q2.59-2.24,3.43-1.86c.84.37,4.53,22.36,6.57,32.66q2,10.3,3.16,45.06,7.14-74.18,8.51-77.24c1.36-3.06,4.84-3.44,3.83,3.5-.63,4.35-3.11,35.78-9.31,95.09q-.39,3.73-2.14,11.92Z"/></g><g id="Path-257-7" data-name="Path-257"><path class="cls-5" d="M1880,868.21q7.72,33.43,7.38,47.95t3.95,9.36q2.32-25.49,4.06-37.56t1.89-16.33q-4.55-.13-7.8-.35T1880,868.21Z"/></g></g><g id="Group-52-Copy-5"><g id="Path-258-8" data-name="Path-258"><path class="cls-4" d="M1432.16,924.46a93.47,93.47,0,0,1-1.79-10c-2.4-23.57-3.63-40.25-5-47.35q-2.38-12.27-1.26-12.58,2.37-1.35,3.53,4.45t9.15,52.86q-4.75-59.12-6.86-66.67c-2.11-7.55-.83-12.55,2-6.64q2.82,5.91,10.33,67.55.87-45.44-1.44-63.22t-3.3-23.26q2.67-2.14,3.49-1.74c.83.4,3.74,22.5,5.42,32.87q1.68,10.37,1.59,45.14,9.73-73.88,11.2-76.89c1.47-3,5-3.27,3.7,3.63-.78,4.33-4.36,35.65-12.62,94.71q-.52,3.72-2.55,11.84Z"/></g><g id="Path-257-8" data-name="Path-257"><path class="cls-5" d="M1431.28,921.4q6.55,33.68,5.7,48.17t3.62,9.5q3.2-25.39,5.37-37.39t2.46-16.26q-4.54-.29-7.78-.62T1431.28,921.4Z"/></g></g><g id="Group-53-Copy-3"><g id="Path-258-Copy-3" data-name="Path-258-Copy"><path class="cls-4" d="M1593.66,929.17q3.54-14.3,3-23.55c-1.83-29.15-1.93-27.76-2.25-39q-.51-17.75,1.17-22.27-3.29-4.59-5,2.13t-.16,59.51q-11.81-70.7-12.81-79.06t-4.66-2.09l9.48,77.68q-3.25-12.57-6.76-27.93a153.89,153.89,0,0,0-10.06-29.72q-7.27-7.45-5,1.35c1,4,6.24,13.37,9.67,30.72q3.43,17.35,6.79,37-5.59-21.37-7.33-26.6a176.39,176.39,0,0,0-7.2-18.37c-1.53-3.61-8-4.07-4.57,4a224,224,0,0,1,14.23,47q.79,4.51,2.24,14Z"/></g><g id="Path-257-Copy-3" data-name="Path-257-Copy"><path class="cls-5" d="M1594.14,927.51q-9.74,39-9.64,56t-4.81,10.88q-2.17-29.88-4-44t-1.86-19.16q5.32-.07,9.13-.26T1594.14,927.51Z"/></g></g><g id="Group-59-Copy-3"><g id="Path-261"><path class="cls-4" d="M1245.7,894.94a32.14,32.14,0,0,1-7.94,1.11,30.82,30.82,0,0,1-7.63-1.88q-4.26,1.63-6.37-1.27c-2.11-2.9-4.26.66-7.54-1.57s-1.46-1.6-4.25-3.61-7.88-5-8-8.06,5.67-1.68,10.43-1.85,4.65-1.64,7-.25,3,5.68,6.51,3.41,3.44-2.63,7.95-.28q4.51,2.35,9.58,8.52Z"/></g><g id="Path-262"><path class="cls-4" d="M1253.37,894.91a41.37,41.37,0,0,0,9.06-7.53c4.5-4.84,10.06-7.07,8.66-11s5.68-4.55,5.54-8.73l-.19-5.39a8.45,8.45,0,0,0-6.93,3.74c-2.54,3.58-5,2-5.75,3.11s-1.62,4.43-4.42,4.53q-2.8.1-7.59,16.86Z"/></g><g id="Group-56"><g id="Path-260-Copy"><path class="cls-5" d="M1230.24,865.46l11.86,16-4.29-21.9,11,1.88,2.5,18.24,9.51-24.78,5.27,1.31L1252.33,889l2.24,11.35a6.17,6.17,0,0,1-4.32,1.92,10.27,10.27,0,0,1-5.38-1.74l-2.32-14-17.44-22.36Z"/></g><g id="Path-259-Copy"><path class="cls-4" d="M1253.85,857.57q-4.58,9-10.68,7.44c-6.1-1.52-7.33-2.29-11.72-.51s-8.83,1.29-9.59-4.81-8.26,1.2-10-9.57q-1.73-10.76,2.83-11.36-2.7-11.46,3.56-14.28t11.65,2.91q6.44-13.14,13.61-11.35t9.24,10.47q12.24-3.53,17.34,4.32t-2.77,11.1q10.47,11.42,4.16,17.57T1253.85,857.57Z"/></g></g></g><g id="Rectangle-Copy-462"><rect class="cls-3" x="1430" y="367" width="264" height="26"/></g><g id="Rectangle-Copy-475"><rect class="cls-3" x="1377" y="735" width="264" height="26"/></g><g id="Rectangle-Copy-525"><rect class="cls-3" x="1657.91" y="735" width="264" height="26"/></g><g id="Group-59-Copy-4"><g id="Path-262-2" data-name="Path-262"><path class="cls-4" d="M1147.49,907.33a43.18,43.18,0,0,0,10.24-6.73c5.2-4.46,11.23-6.14,10.19-10.28s6.4-4,6.7-8.34l.39-5.53a8.88,8.88,0,0,0-7.61,3.07c-3,3.39-5.38,1.5-6.32,2.56s-2.16,4.36-5.09,4.15q-2.92-.2-9.72,16.43Z"/></g><g id="Group-56-2" data-name="Group-56"><g id="Path-260-Copy-2" data-name="Path-260-Copy"><path class="cls-5" d="M1127.38,874.66l10.44,17.57-2.06-22.81,11.07,3.11.62,18.88,12.37-24.25,5.25,1.91-17.59,32,1.09,11.83a6.35,6.35,0,0,1-4.62,1.49,10.61,10.61,0,0,1-5.32-2.36l-.89-14.5-15.47-24.71Z"/></g><g id="Path-259-Copy-2" data-name="Path-259-Copy"><path class="cls-4" d="M1152.38,869.17q-5.64,8.64-11.72,6.43c-6.08-2.21-7.26-3.14-11.94-1.79s-9.18.36-9.3-5.94-8.58.33-9.21-10.84q-.63-11.17,4.11-11.29-1.54-12,5.16-14.18t11.62,4.23q8-12.71,15.14-10.11t8.34,11.68q12.9-2.28,17.28,6.29t-4,11q9.5,12.78,2.39,18.38T1152.38,869.17Z"/></g></g></g><g id="Group-62-Copy"><g id="Path-260-Copy-2-2" data-name="Path-260-Copy-2"><path class="cls-5" d="M1279.61,870.59l10.6,29.32L1287,866l13.15,4.41-.5,20.16,16.67-26.26,5.69,1.57-22,33.56.79,23.85a7.7,7.7,0,0,1-5.72,1.64,12.29,12.29,0,0,1-6.25-3.19l.61-14.43L1273.57,868Z"/></g><g id="Path-259-Copy-2-2" data-name="Path-259-Copy-2"><path class="cls-4" d="M1311.36,870q-7.46,10.4-14.58,7.38c-7.12-3-8.46-4.22-14.19-2.78s-11,0-10.69-7.78-10.33,0-10.19-13.83q.14-13.82,5.83-13.74-.9-14.87,7.33-17.26t13.61,5.78q10.61-15.31,19-11.75t9.08,14.82q15.66-2.19,20.24,8.59t-5.7,13.42q10.38,16.24,1.4,22.81T1311.36,870Z"/></g></g><g id="Group-58-Copy"><g id="Path-260-Copy-3"><path class="cls-5" d="M1179.87,850l8.5,26-1.88-29.8,11.45,4.29-1,17.63,15.41-22.44,5,1.56L1197,875.9l0,20.9a6.78,6.78,0,0,1-5.08,1.25,10.91,10.91,0,0,1-5.4-3l.94-12.62-12.82-34.9Z"/></g><g id="Path-259-Copy-3"><path class="cls-4" d="M1207.85,851.21q-6.92,9-13.11,6.1c-6.19-2.89-7.34-4-12.44-2.88s-9.75-.33-9.19-7.21-9.12-.31-8.55-12.54q.57-12.23,5.59-12-.32-13.19,7-15.06t11.83,5.52q9.86-13.23,17.14-9.84t7.54,13.39q13.9-1.47,17.6,8.21t-5.46,11.71q8.65,14.68.51,20.23T1207.85,851.21Z"/></g></g><g id="Group-59-Copy-5"><g id="Group-56-3" data-name="Group-56"><g id="Path-261-2" data-name="Path-261"><path class="cls-4" d="M1232.15,973a32.14,32.14,0,0,1-7.67-2.35,30.82,30.82,0,0,1-6.12-4.93q-4.55-.32-5.23-3.84c-.69-3.52-4.14-1.2-6.17-4.61s-.65-2.06-2.32-5.07-5-7.86-3.83-10.68,5.85.87,10.24,2.74,4.91.48,6.49,2.76.31,6.41,4.46,5.84,4.23-.93,7.32,3.11q3.09,4,5.08,11.77Z"/></g><g id="Path-262-3" data-name="Path-262"><path class="cls-4" d="M1234.76,970.48a41.37,41.37,0,0,0,11.39-3c6.12-2.48,12.11-2.16,12.48-6.28s7.07-1.72,8.71-5.57l2.11-5a8.45,8.45,0,0,0-7.86.46c-3.82,2.17-5.35-.3-6.53.39s-3.34,3.33-5.92,2.23q-2.58-1.09-14,12.07Z"/></g><g id="Path-260-Copy-3-2" data-name="Path-260-Copy"><path class="cls-5" d="M1222.79,938.53l9,19.28L1231,935.5l10.58,3.58-.39,18.4,13.27-23,5,2.12-18.74,30.25.44,11.57a6.17,6.17,0,0,1-4.56,1.22,10.27,10.27,0,0,1-5-2.56l-.1-14.16-13.52-26.48Z"/></g><g id="Path-259-Copy-3-2" data-name="Path-259-Copy"><path class="cls-4" d="M1247.14,936.09q-5.93,8.13-11.71,5.67c-5.79-2.46-6.88-3.41-11.5-2.33s-8.93-.11-8.72-6.25-8.35-.11-8.37-11q0-10.9,4.58-10.78-.87-11.74,5.75-13.54t11.06,4.69q8.42-12,15.22-9.08t7.49,11.78q12.64-1.57,16.45,7t-4.47,10.53q8.55,12.91,1.36,18T1247.14,936.09Z"/></g></g></g><g id="Group-60-Copy"><g id="Path-260"><path class="cls-5" d="M1296.21,938.79l8.91,17.77-.42-22.32,10.52,3.76-.71,18.39,13.67-22.75,5,2.21-19.27,29.92.24,11.57a6.17,6.17,0,0,1-4.59,1.14,10.27,10.27,0,0,1-5-2.65l.14-14.16-13.29-25Z"/></g><g id="Path-259"><path class="cls-4" d="M1320.82,935.12q-6.07,8-11.81,5.47c-5.74-2.56-6.82-3.53-11.45-2.53s-8.92-.27-8.61-6.4-8.35-.25-8.18-11.16q.17-10.9,4.76-10.7-.67-11.75,6-13.44t11,4.89q8.63-11.82,15.38-8.81t7.28,11.91q12.66-1.35,16.32,7.27t-4.65,10.45q8.33,13.06,1,18T1320.82,935.12Z"/></g></g><g id="Group-57-Copy-2"><g id="Path-260-Copy-2-3" data-name="Path-260-Copy-2"><path class="cls-5" d="M1154.6,943.75l10.85,16.93-2.93-22.7,10.88,2.42,1.37,18.86,11-25,5.18,1.58-15.79,33.12,1.53,11.77a6.19,6.19,0,0,1-4.43,1.78,9.92,9.92,0,0,1-5.26-2L1165.58,966l-16-23.76Z"/></g><g id="Path-259-Copy-2-3" data-name="Path-259-Copy-2"><path class="cls-4" d="M1178.36,937.11q-5.13,9-11.11,7.18c-6-1.83-7.16-2.68-11.65-1s-8.88.94-9.25-5.36-8.31.87-9.36-10.27q-1-11.15,3.54-11.56-2-11.9,4.44-14.53T1156.4,905q7.24-13.23,14.28-11.08t8.55,11.17q12.41-3.1,17,5.2t-3.45,11.29q9.71,12.2,3,18.26T1178.36,937.11Z"/></g></g><g id="Combined-Shape-Copy-18"><path class="cls-3" d="M1149,608h264v49H1149Zm95.06,18.27a7.06,7.06,0,0,0,0,14.12h68a7.06,7.06,0,0,0,0-14.12Z"/></g><g id="Combined-Shape-Copy-30"><path class="cls-3" d="M1096,976h264v49H1096Zm95.06,18.27a7.06,7.06,0,0,0,0,14.12h68a7.06,7.06,0,0,0,0-14.12Z"/></g><g id="Combined-Shape-Copy-21"><path class="cls-3" d="M1430,608h264v49H1430Zm95.06,18.27a7.06,7.06,0,0,0,0,14.12h68a7.06,7.06,0,0,0,0-14.12Z"/></g><g id="Combined-Shape-Copy-31"><path class="cls-3" d="M1377,976h264v49H1377Zm95.06,18.27a7.06,7.06,0,0,0,0,14.12h68a7.06,7.06,0,0,0,0-14.12Z"/></g><g id="Combined-Shape-Copy-47"><path class="cls-3" d="M1657.91,976h264v49h-264ZM1753,994.27a7.06,7.06,0,0,0,0,14.12h68a7.06,7.06,0,1,0,0-14.12Z"/></g><g id="Rectangle-4" data-name="Rectangle"><rect class="cls-3" x="564" y="393" width="13" height="215"/></g><g id="Rectangle-Copy-476"><rect class="cls-3" x="630" y="760" width="13" height="224"/></g><g id="Rectangle-Copy-498"><rect class="cls-3" x="722" y="26" width="13" height="215"/></g><g id="Rectangle-Copy-506"><rect class="cls-3" x="1283" y="26" width="13" height="215"/></g><g id="Rectangle-Copy-517"><rect class="cls-3" x="1563" y="26" width="13" height="215"/></g><g id="Rectangle-Copy-465"><rect class="cls-3" x="283" y="393" width="13" height="215"/></g><g id="Rectangle-Copy-477"><rect class="cls-3" x="349" y="760" width="13" height="224"/></g><g id="Rectangle-Copy-521"><rect class="cls-3" x="67" y="760" width="13" height="224"/></g><g id="Rectangle-Copy-499"><rect class="cls-3" x="441" y="26" width="13" height="215"/></g><g id="Rectangle-Copy-513"><rect class="cls-3" x="159" y="26" width="13" height="215"/></g><g id="Rectangle-Copy-507"><rect class="cls-3" x="1003" y="26" width="13" height="215"/></g><g id="Rectangle-Copy-457"><rect class="cls-3" x="1149" y="393" width="13" height="215"/></g><g id="Rectangle-Copy-478"><rect class="cls-3" x="1096" y="760" width="13" height="216"/></g><g id="Rectangle-Copy-461"><rect class="cls-3" x="1430" y="393" width="13" height="215"/></g><g id="Rectangle-Copy-479"><rect class="cls-3" x="1377" y="760" width="13" height="216"/></g><g id="Rectangle-Copy-526"><rect class="cls-3" x="1657.91" y="760" width="13" height="216"/></g><g id="Rectangle-5" data-name="Rectangle"><rect class="cls-3" x="564" y="367" width="264" height="26"/></g><g id="Rectangle-Copy-480"><rect class="cls-3" x="630" y="735" width="264" height="26"/></g><g id="Rectangle-Copy-500"><rect class="cls-3" x="722" width="264" height="26"/></g><g id="Rectangle-Copy-508"><rect class="cls-3" x="1283" width="264" height="26"/></g><g id="Rectangle-Copy-518"><rect class="cls-3" x="1563" width="264" height="26"/></g><g id="Rectangle-Copy-466"><rect class="cls-3" x="283" y="367" width="264" height="26"/></g><g id="Rectangle-Copy-481"><rect class="cls-3" x="349" y="735" width="264" height="26"/></g><g id="Rectangle-Copy-522"><rect class="cls-3" x="67" y="735" width="264" height="26"/></g><g id="Rectangle-Copy-501"><rect class="cls-3" x="441" width="264" height="26"/></g><g id="Rectangle-Copy-514"><rect class="cls-3" x="159" width="264" height="26"/></g><g id="Rectangle-Copy-509"><rect class="cls-3" x="1003" width="264" height="26"/></g><g id="Rectangle-Copy-458"><rect class="cls-3" x="1149" y="367" width="264" height="26"/></g><g id="Rectangle-Copy-482"><rect class="cls-3" x="1096" y="735" width="264" height="26"/></g><g id="Rectangle-Copy-432"><rect class="cls-3" x="815" y="393" width="13" height="215"/></g><g id="Rectangle-Copy-483"><rect class="cls-3" x="881" y="760" width="13" height="224"/></g><g id="Rectangle-Copy-502"><rect class="cls-3" x="973" y="26" width="13" height="215"/></g><g id="Rectangle-Copy-510"><rect class="cls-3" x="1534" y="26" width="13" height="215"/></g><g id="Rectangle-Copy-519"><rect class="cls-3" x="1814" y="26" width="13" height="215"/></g><g id="Rectangle-Copy-467"><rect class="cls-3" x="534" y="393" width="13" height="215"/></g><g id="Rectangle-Copy-464-2" data-name="Rectangle-Copy-464"><rect class="cls-1" x="9" y="473" width="249" height="184"/></g><g id="Combined-Shape-Copy-22-2" data-name="Combined-Shape-Copy-22"><path class="cls-3" d="M0,608H264v49H0Zm95.06,18.27a7.06,7.06,0,0,0,0,14.12h68a7.06,7.06,0,1,0,0-14.12Z"/></g><g id="Combined-Shape-Copy-23-2" data-name="Combined-Shape-Copy-23"><path class="cls-2" d="M0,424H264v49H0Zm95.06,18.27a7.06,7.06,0,0,0,0,14.12h68a7.06,7.06,0,1,0,0-14.12Z"/></g><g id="Rectangle-Copy-465-2" data-name="Rectangle-Copy-465"><rect class="cls-3" y="393" width="13" height="215"/></g><g id="Rectangle-Copy-466-2" data-name="Rectangle-Copy-466"><rect class="cls-3" y="367" width="264" height="26"/></g><g id="Rectangle-Copy-467-2" data-name="Rectangle-Copy-467"><rect class="cls-3" x="251" y="393" width="13" height="215"/></g><g id="Rectangle-Copy-484"><rect class="cls-3" x="600" y="760" width="13" height="224"/></g><g id="Rectangle-Copy-523"><rect class="cls-3" x="318" y="760" width="13" height="224"/></g><g id="Rectangle-Copy-503"><rect class="cls-3" x="692" y="26" width="13" height="215"/></g><g id="Rectangle-Copy-515"><rect class="cls-3" x="410" y="26" width="13" height="215"/></g><g id="Rectangle-Copy-511"><rect class="cls-3" x="1254" y="26" width="13" height="215"/></g><g id="Rectangle-Copy-459"><rect class="cls-3" x="1400" y="393" width="13" height="215"/></g><g id="Rectangle-Copy-485"><rect class="cls-3" x="1347" y="760" width="13" height="220"/></g><g id="Rectangle-Copy-463"><rect class="cls-3" x="1681" y="393" width="13" height="215"/></g><g id="Rectangle-Copy-460-2" data-name="Rectangle-Copy-460"><rect class="cls-1" x="1718" y="473" width="250" height="183"/></g><g id="Combined-Shape-Copy-20-2" data-name="Combined-Shape-Copy-20"><path class="cls-2" d="M1710,424h264v49H1710Zm95.06,18.27a7.06,7.06,0,0,0,0,14.12h68a7.06,7.06,0,0,0,0-14.12Z"/></g><g id="Path-228-Copy-2" data-name="Path-228-Copy"><path class="cls-5" d="M1918.12,601.91q-6.39,2.73-11-1.36-9.49,3.83-14.6,0c-5.11-3.83-10.88-26.65-1.66-37s17.16-.17,23.82,1.42,10.12-4.3,17.36,4.13S1924.52,599.18,1918.12,601.91Z"/></g><g id="Path-229-Copy-2" data-name="Path-229-Copy"><path class="cls-4" d="M1912.27,551a28.09,28.09,0,0,1,3.36,7.92c1,3.94,0,11.08-1.68,11.08s-4.65-.38-1.68-6.67A13.54,13.54,0,0,0,1912.27,551Z"/></g><g id="Path-230-Copy-2-2" data-name="Path-230-Copy-2"><path class="cls-5" d="M1801.15,548.16c-3.32,8.62-9,2.21-13.36,3.78s-5.6,5.06-13.22,5.06-17.82-10.88-16.45-31.85,22-10.56,26.33-10.56,8.26-3.83,13.53,0S1804.47,539.54,1801.15,548.16Z"/></g><g id="Path-231-Copy-2-2" data-name="Path-231-Copy-2"><path class="cls-4" d="M1787,502.08c0,.67-2,1.64-3.23,6.18s.13,5.88,1.37,7,1.61,3.83-1.62,4.67-4.11-4.86-3.15-9.82S1787,501.41,1787,502.08Z"/></g><g id="Path-224-2" data-name="Path-224"><path class="cls-5" d="M1828.13,498.57q-6.16,7.24-15.48,4.83c-9.32-2.41-25.57-21-19.22-37.47,5.67-14.73,13.63-7.52,21.54-9.09,10.76-2.15,10.62-9.72,20.28,0,9,9.07,8.1,36.9,2.54,41.73Q1832.23,503.4,1828.13,498.57Z"/></g><g id="Path-225-2" data-name="Path-225"><path class="cls-4" d="M1811.32,440c-1.23.7,1.49,6.86,2.1,10.58s0,5.1-.7,7.92.87,5.42,3.83,4.12,3-4.53,1.48-8.32S1812.55,439.34,1811.32,440Z"/></g><g id="Rectangle-Copy-462-2" data-name="Rectangle-Copy-462"><rect class="cls-3" x="1710" y="367" width="264" height="26"/></g><g id="Combined-Shape-Copy-21-2" data-name="Combined-Shape-Copy-21"><path class="cls-3" d="M1710,608h264v49H1710Zm95.06,18.27a7.06,7.06,0,0,0,0,14.12h68a7.06,7.06,0,0,0,0-14.12Z"/></g><g id="Rectangle-Copy-461-2" data-name="Rectangle-Copy-461"><rect class="cls-3" x="1710" y="393" width="13" height="215"/></g><g id="Rectangle-Copy-463-2" data-name="Rectangle-Copy-463"><rect class="cls-3" x="1961" y="393" width="13" height="215"/></g><g id="Rectangle-Copy-486"><rect class="cls-3" x="1628" y="760" width="13" height="219"/></g><g id="Rectangle-Copy-527"><rect class="cls-3" x="1908.91" y="760" width="13" height="219"/></g><g id="Path-170"><path class="cls-4" d="M690,489c3.16,0,7-14.12,10.37-11.69S707,483.41,707,489s4.72,4.76,7.9,9.15S724,512.42,724,515.58s-6,11-6,16-1.81,10-6.45,10S696,540,690,547.14s-21.82,3.51-28.79-4.06-7.46-11.87-6.54-22.32-7.14-22.64-4-22.64,16-2.15,18.84-9.15a25.64,25.64,0,0,1,9.74-11.69Q686.88,489,690,489Z"/></g><g id="Path-173"><path class="cls-4" d="M699.56,540q-.88,11.49,2.66,11.49t11.26-5.74q2.95,9,0,16.48c-2.95,7.45,3.53,11.55,3.53,17.25s-2.48,11-8.81,14.73a18.45,18.45,0,0,0-8.52,10.53l-10.41-7.81Q681.9,607,677.83,607c-4.07,0-4.33-6.19-11.19-6.19q-6.86,0-6.86,3.93,2.5-5.59-5.47-15.43c-8-9.84.59-40.47,3.3-35q2.71,5.45,5.64-5.22,6.43-5.76,10.51-5.76c4.07,0,5,2.43,10.24,2.43Q689.26,545.74,699.56,540Z"/></g><g id="Path-181"><path class="cls-4" d="M712.61,495.67q-11.1-.54-7.89-13.75c3.2-13.21,3.88-15.76,7.89-23.07s4.65-15.94,13.19-13.39,11.35,6.84,20,2.28,8.57-3.5,11,3.8,8.83,3.55,12.78,7.31-1.73,20.49,0,30.49-10.14,6.64-15.19,17q-5,10.41-13.6,4.46Z"/></g><g id="Path-183"><path class="cls-4" d="M604.23,457c8.55,0,8.74.47,15.36-6.84s13.23-5.62,20.26-2.68,10.77,8.16,11.52,15.19,12.13,8.87,10.44,14.38,3.15,9.35-3.27,16.08a25.15,25.15,0,0,0-7.17,15.59q-16.18-6.4-15.34-2.47c.84,3.93.26,13.69-10.84,11.18s-13.11,2.53-17,2.53-11.93-3.06-11.93-5.5,2.62-5.16-2.76-11.59-8.28-16.33-5.25-22.6q3-6.28,8-6.28-3.64-7.22-.84-11.26C598.19,458.73,595.69,457,604.23,457Z"/></g><g id="Path-180"><path class="cls-5" d="M723.92,495.65Q713,487.8,713,475.16c0-12.64,14.57-22.22,28.17-19.78S764,461.11,764,475.16s-2.87,21.35-20.29,24Q726.29,501.87,723.92,495.65Z"/></g><g id="Path-182"><path class="cls-5" d="M625.5,460.7c8.44-1.78,16.06-.72,23.09,9.62s3.54,29.14-13.48,36.77-40-8.9-35.55-26.43S617.06,462.48,625.5,460.7Z"/></g><g id="Path-184"><path class="cls-5" d="M772.37,590.32q-11.2,11.52-29.11,5.76c-17.9-5.76-20.83-23.63-4.66-36.09s34.15-3.07,38.86,6.54Q782.19,576.14,772.37,590.32Z"/></g><g id="Path-171"><path class="cls-5" d="M708.57,503c5.75,5.93,6.6,16.87-1.62,30.59s-31.54,12.19-40.8-3-6.15-27.22,10.41-33.9S702.81,497.08,708.57,503Z"/></g><g id="Path-172"><path class="cls-5" d="M709,581.12c-6.21,9.29-15.43,23-35,11.49s-17.89-33,0-38.51c7.88-2.45,18.42-5.55,26,0C712.48,563.12,712.48,575.93,709,581.12Z"/></g><g id="Group-51"><g id="Path-186"><path class="cls-5" d="M608.74,543.35c18.25-1.28,30.64,5.25,29.53,21.37s-7.08,30-24.31,31.23-30.21-9-31.26-24S590.48,544.63,608.74,543.35Z"/></g><g id="Path-196"><path class="cls-4" d="M615.42,597.47l-2.28-1.95c6.33-7.43,8.87-13.73,7.53-18.74s-6.9-8.12-16.64-9.62l-4.4-.68,3.91-2.12c6.8-3.69,9.22-8.37,7.39-14.31-1.89-6.13-5.06-9.48-9.69-10.26l.49-3c5.78,1,9.84,5.12,12.07,12.33,1.94,6.3.08,11.58-5.53,15.74,8.72,2,13.86,5.71,15.29,11.1C625.17,582,622.42,589.25,615.42,597.47Z"/></g></g><g id="Group-61"><g id="Path-170-Copy-2"><path class="cls-4" d="M757.14,513.21c.87-3-11.6-10.57-8.34-13.16s7.68-4.61,13-3.09,5.85-3.23,10.93-5.08,16.21-4.84,19.23-4,8.86,8.73,13.66,10.1,9.08,4.49,7.81,8.94-5.81,14.5-.6,22.23-2.64,21.9-11.81,26.52-13.42,3.9-23.17.15-23.65.64-22.77-2.42,2.35-16-3.57-20.6A25.55,25.55,0,0,1,743,520.28Q756.27,516.24,757.14,513.21Z"/></g><g id="Path-171-Copy-2"><path class="cls-5" d="M758.34,525.86c-1.72-8,3.34-17.71,17.5-25s33,6.33,32.83,24S799.49,551.12,782,548,760.06,533.9,758.34,525.86Z"/></g><g id="Path-188-Copy-2"><path class="cls-4" d="M791.28,549.78c-.95-1.71-3.5-3.22-5.36-4.33-2.22-1.32-3.68-2.19-3.33-3.78s2.27-1.87,4.38-2.07c3.72-.36,6.06-3.64,7-6.59,1.18-3.7.59-7.38-1.47-9.17a12.65,12.65,0,0,0-10.92-3.14l-1-2.77c3.07-1.83,3.85-5.29,2.41-10.57s-5.92-7.65-13.69-7.34l-.12-3c9.24-.36,14.86,2.84,16.7,9.54,1.27,4.62,1,8.29-.65,11a15.8,15.8,0,0,1,9.25,4c3,2.56,3.9,7.53,2.36,12.35s-5.25,8.25-9.58,8.67l-.24,0,.43.26c2.15,1.28,5.11,3,6.45,5.45Z"/></g></g><g id="Path-189"><path class="cls-4" d="M745.69,581.64a26.82,26.82,0,0,1-9.68-2c-4.55-1.76-8.45-5.67-11.6-11.6l2.65-1.41c2.8,5.28,6.18,8.71,10,10.21a23.06,23.06,0,0,0,9.71,1.74l.26-8.51,2.29,1.63a28.66,28.66,0,0,0,12.35,4.64c4.81.76,10.65-1.28,17.35-6l1.74,2.45c-7.36,5.22-13.94,7.42-19.55,6.55a33.8,33.8,0,0,1-11.35-3.71l-.17,5.65-1.25.18A19.89,19.89,0,0,1,745.69,581.64Z"/></g><g id="Path-190"><path class="cls-4" d="M745.19,487.49a13.8,13.8,0,0,1-7.76-2.68c-4.85-3.3-7.81-6.75-8.84-10.28-2,1.86-3.94,2.74-5.86,2.72s-3.82-1.11-5.4-3.19c-3.5-4.62-2-11.33,4.59-20l2.39,1.82c-5.64,7.42-7.19,12.92-4.59,16.33,1,1.33,2,2,3.07,2,1.54,0,3.56-1.37,5.75-4l2.95-3.61-.29,4.65c-.23,3.63,2.44,7.36,7.93,11.09s10,2.74,14.56-2.84l1.26-1.53,1.13,1.63a9,9,0,0,0,7.92,4v3a12,12,0,0,1-9.21-3.85C751.79,485.91,748.56,487.49,745.19,487.49Z"/></g><g id="Path-188"><path class="cls-4" d="M666.06,534.06l-2.12-2.12c1.36-1.37,2.11-4.2,2.65-6.27.65-2.48,1.08-4.11,2.7-4.21s2.41,1.66,3.18,3.62c1.35,3.44,5.11,4.76,8.17,4.85,3.82.11,7.17-1.45,8.3-3.89a12.5,12.5,0,0,0,0-11.23l2.38-1.74c2.57,2.41,6.07,2.22,10.69-.59s5.65-7.7,3.24-15l2.85-.94c2.87,8.7,1.35,14.93-4.53,18.51-4,2.46-7.59,3.26-10.6,2.38a15.66,15.66,0,0,1-1.31,9.88c-1.63,3.52-6.09,5.78-11.12,5.63s-9.29-2.74-10.87-6.76l-.07-.17-.11.43C668.86,528.83,668,532.12,666.06,534.06Z"/></g><g id="Path-194"><path class="cls-4" d="M704.54,590.36c-1.35-5.44-3.21-8.95-5.39-10.14-1.47-.81-4.64-1.09-11.35,2.18l-4,2,2.06-4c2.12-4.13,1.6-9.85-1.55-17-1.48-3.37-3.4-5.51-5.72-6.37s-5.38-.5-8.9,1.17l-1.28-2.71c4.28-2,8.06-2.45,11.23-1.27s5.6,3.84,7.42,8c2.77,6.29,3.67,11.7,2.7,16.14,4.76-1.86,8.34-2.09,10.88-.69,3,1.66,5.27,5.6,6.86,12.05Z"/></g><g id="Path-195"><path class="cls-4" d="M630.56,513.43c-2.5-.77-4.09-2.12-4.71-4-.78-2.38,0-5.41,2.48-9.22-9-1.21-14.51-4.77-16.33-10.62-1.68-5.4.81-10.15,7.42-14.16a9.35,9.35,0,0,1-3.91-2.07c-2.38-2.15-3.58-5.62-3.58-10.33h3c0,3.82.87,6.55,2.59,8.1s4,2,7.28,1.65l.75,2.87c-8.74,3.83-12.24,8.1-10.7,13.05s7.06,8,16.26,8.79l2.7.22-1.61,2.17c-3.63,4.89-3.91,7.39-3.51,8.62.31.94,1.21,1.63,2.74,2.1Z"/></g></g></g></svg>