<?xml version="1.0" encoding="UTF-8"?>
<svg width="723px" height="866px" viewBox="0 0 723 866" version="1.1" xmlns="http://www.w3.org/2000/svg" xmlns:xlink="http://www.w3.org/1999/xlink">
    <!-- Generator: Sketch 53 (72520) - https://sketchapp.com -->
    <title>eyes-2</title>
    <desc>Created with Sketch.</desc>
    <defs>
        <path d="M12.3386757,0.973789474 C12.3386757,0.973789474 7.85737838,2.662 4.91478378,4.17189474 L4.91478378,4.17189474 C1.97218919,5.68063158 -1.85481081,9.62326316 1.68978378,13.2382105 L1.68978378,13.2382105 C5.23554054,16.8508421 10.6535405,19.8231579 21.3547297,21.2624211 L21.3547297,21.2624211 C32.0535946,22.7016842 40.2805405,18.5656842 41.9796216,16.4235789 L41.9796216,16.4235789 C43.6775405,14.2826316 42.2980541,10.3017895 37.072973,5.66557895 L37.072973,5.66557895 C33.202973,2.23126316 27.3572973,0.199157895 20.2425405,0.200315789 L20.2425405,0.200315789 C17.7531892,0.200315789 15.1081081,0.449263158 12.3386757,0.973789474" id="path-1"></path>
        <path d="M14.0386552,0.480666667 C5.0637931,2.01483333 0.875068966,11.6456667 0.875068966,11.6456667 L0.875068966,11.6456667 C0.27537931,15.7546667 3.86668966,18.886 14.0386552,20.181 L14.0386552,20.181 C24.2117586,21.476 30.1972759,15.2051667 30.1972759,15.2051667 L30.1972759,15.2051667 C34.386,12.138 31.9917931,8.456 29.0001724,5.38883333 L29.0001724,5.38883333 C29.0001724,5.38883333 24.222,0.243833333 16.7992759,0.245 L16.7992759,0.245 C15.9162414,0.245 14.9945172,0.317333333 14.0386552,0.480666667" id="path-3"></path>
    </defs>
    <g id="eyes-2" stroke="none" stroke-width="1" fill="none" fill-rule="evenodd">
        <g id="Group-3-Copy" transform="translate(401.000000, 277.000000)">
            <path d="M12.4449514,1.86545015 C23.027225,-0.124449062 31.7677018,1.92009269 36.9431507,6.47932972 C42.1197507,11.0374284 43.4849826,14.9512004 41.8031919,17.0560766 C40.1202501,19.1609528 31.9726017,23.2272686 21.3742124,21.8122545 C10.7758231,20.3972403 5.40813663,17.4761411 1.89606042,13.9232376 C-1.61486467,10.370334 2.1757833,6.49299035 5.09042669,5.00967304 C8.00507008,3.52521733 12.4449514,1.86545015 12.4449514,1.86545015" id="Fill-18" fill="#F3F1ED"></path>
            <path d="M151.995213,8.22032367 C155.021083,11.2703138 157.442699,14.9316942 153.206022,17.9816844 C153.206022,17.9816844 147.153131,24.2174003 136.863563,22.9296524 C126.573995,21.6419046 122.942721,18.5292672 123.548125,14.442118 C123.548125,14.442118 127.784803,4.86521847 136.863563,3.33964332 C145.942323,1.81406818 151.995213,8.22032367 151.995213,8.22032367" id="Fill-26" fill="#F3F1ED"></path>
            <g id="Group-23" transform="translate(0.484100, 0.104797)">
                <mask id="mask-2" fill="white">
                    <use xlink:href="#path-1"></use>
                </mask>
                <g id="Clip-22"></g>
                <path d="M31.9519703,16.4034632 C31.9519703,21.5584105 27.757727,25.7372526 22.5837811,25.7372526 C17.4109973,25.7372526 13.2167541,21.5584105 13.2167541,16.4034632 C13.2167541,11.2485158 17.4109973,7.06967368 22.5837811,7.06967368 C27.757727,7.06967368 31.9519703,11.2485158 31.9519703,16.4034632" id="Fill-21" fill="#49515E" mask="url(#mask-2)"></path>
            </g>
            <g id="Group-31" transform="translate(122.484100, 3.104797)">
                <mask id="mask-4" fill="white">
                    <use xlink:href="#path-3"></use>
                </mask>
                <g id="Clip-30"></g>
                <path d="M24.7681103,16.04545 C24.7681103,20.8497833 20.9685586,24.7452833 16.2825586,24.7452833 C11.5965586,24.7452833 7.7970069,20.8497833 7.7970069,16.04545 C7.7970069,11.2411167 11.5965586,7.34561667 16.2825586,7.34561667 C20.9685586,7.34561667 24.7681103,11.2411167 24.7681103,16.04545" id="Fill-29" fill="#49515E" mask="url(#mask-4)"></path>
            </g>
        </g>
    </g>
</svg>