<svg width="723" height="866" viewBox="0 0 723 866" fill="none" xmlns="http://www.w3.org/2000/svg">
<path fill-rule="evenodd" clip-rule="evenodd" d="M280.484 519.592C280.484 519.592 292.022 501.893 313.56 431.868C335.097 361.842 458.94 475.73 458.94 475.73C458.94 475.73 462.016 514.975 469.708 537.29C477.401 559.607 458.94 643.482 436.632 649.639C414.326 655.795 335.097 654.256 310.483 598.851C285.869 543.447 280.484 519.592 280.484 519.592Z" fill="#FFDDAD"/>
<path fill-rule="evenodd" clip-rule="evenodd" d="M286.484 506.919C286.484 506.919 291.425 502.549 313.008 432.783C334.589 363.018 458.687 476.482 458.687 476.482C458.687 476.482 463.253 512.033 466.438 530.167C468.039 539.286 427.768 543.803 394.219 525.403C363.255 508.422 355.486 501.116 327.817 477.848C310.861 508.039 286.484 506.919 286.484 506.919Z" fill="#F8C37C"/>
<path fill-rule="evenodd" clip-rule="evenodd" d="M547.392 128.105C547.392 128.105 587.727 135.017 583.117 201.833C583.117 201.833 577.721 254.825 561.98 296.297C561.98 296.297 555.825 322.153 566.59 357.609C566.59 357.609 591.55 402.281 565.437 442.602C539.325 482.922 500.142 471.566 472.484 467.453L547.392 128.105Z" fill="#565D68"/>
<path fill-rule="evenodd" clip-rule="evenodd" d="M548.891 155.105C548.891 155.105 556.437 180.121 558.437 194.746C560.437 209.371 571.214 291.732 570.445 323.292C569.675 354.85 559.667 382.561 528.108 428.745C496.548 474.929 480.384 499.438 434.967 486.799C389.552 474.158 360.302 458.764 330.282 427.974C300.261 397.186 289.484 243.244 289.484 243.244L548.891 155.105Z" fill="#FFDDAD"/>
<path fill-rule="evenodd" clip-rule="evenodd" d="M483.202 299.334C483.202 288.295 486.098 284.105 491.6 284.105C498.55 284.105 501.735 293.587 503.472 305.081C505.21 316.575 508.494 339.962 509.319 349.837C510.519 364.225 505.21 364.275 491.889 364.849C478.569 365.424 476.832 364.849 471.041 364.849C465.249 364.849 459.537 357.873 460.616 353.355C462.472 345.597 468.094 345.546 474.226 337.839C482.913 326.919 483.202 299.334 483.202 299.334Z" fill="#F8C37C"/>
<path fill-rule="evenodd" clip-rule="evenodd" d="M414.971 368.719C414.971 368.719 424.252 390.211 407.141 398.808C390.03 407.405 376.145 397.662 372.067 387.059C367.989 376.456 371.469 358.116 386.26 354.964C401.051 351.812 407.721 358.116 410.621 361.268C413.521 364.42 414.971 368.719 414.971 368.719Z" fill="#FCF6ED"/>
<path fill-rule="evenodd" clip-rule="evenodd" d="M447.569 411.536C444.687 408.684 442.382 406.402 447.569 405.832C452.755 405.261 461.975 400.127 466.585 396.704C471.194 393.281 475.516 391.855 481.855 392.14C488.194 392.425 490.715 395.776 492.803 395.991C494.167 396.154 495.685 396.204 499.718 393.566C505.788 390.177 514.701 398.13 516.429 400.127C516.429 400.127 520.175 402.838 513.548 411.536C513.548 411.536 504.939 423.722 487.905 424.087C461.267 424.657 447.569 411.536 447.569 411.536Z" fill="#FA8F59"/>
<path fill-rule="evenodd" clip-rule="evenodd" d="M530.782 266.079C527.521 267.776 518.156 270.322 516.721 264.395C515.047 257.483 522.46 253.35 531.93 250.239C541.4 247.128 564.749 245.105 564.749 245.105L565.484 251.656C565.484 251.656 554.888 253.577 547.14 256.998C539.391 260.418 534.043 264.382 530.782 266.079Z" fill="#49515E"/>
<path fill-rule="evenodd" clip-rule="evenodd" d="M462.36 256.899C466.115 262.58 460.477 270.883 445.193 265.2C429.741 259.455 402.58 256.971 386.983 256.971C371.386 256.971 371.665 261.727 365.022 260.615C357.512 259.171 366.755 246.105 391.595 246.105C416.435 246.105 442.43 250.081 447.629 250.65C452.828 251.218 459.893 253.166 462.36 256.899Z" fill="#49515E"/>
</svg>
