<svg width="723" height="866" viewBox="0 0 723 866" fill="none" xmlns="http://www.w3.org/2000/svg">
<path fill-rule="evenodd" clip-rule="evenodd" d="M280.484 519.592C280.484 519.592 292.022 501.893 313.56 431.868C335.097 361.842 458.94 475.73 458.94 475.73C458.94 475.73 462.016 514.975 469.709 537.29C477.401 559.607 458.94 643.482 436.632 649.639C414.326 655.795 335.097 654.256 310.483 598.851C285.869 543.447 280.484 519.592 280.484 519.592Z" fill="#FFDDAD"/>
<path fill-rule="evenodd" clip-rule="evenodd" d="M286.484 506.919C286.484 506.919 291.426 502.549 313.008 432.783C334.589 363.018 458.687 476.482 458.687 476.482C458.687 476.482 463.254 512.033 466.438 530.167C468.039 539.286 427.768 543.803 394.219 525.403C363.256 508.422 355.486 501.116 327.818 477.848C310.861 508.039 286.484 506.919 286.484 506.919Z" fill="#F8C37C"/>
<path fill-rule="evenodd" clip-rule="evenodd" d="M547.392 128.105C547.392 128.105 587.727 135.017 583.117 201.833C583.117 201.833 577.721 254.825 561.98 296.297C561.98 296.297 555.825 322.153 566.59 357.609C566.59 357.609 591.551 402.281 565.438 442.602C539.325 482.922 500.142 471.566 472.484 467.453L547.392 128.105Z" fill="#565D68"/>
<path fill-rule="evenodd" clip-rule="evenodd" d="M548.891 155.105C548.891 155.105 556.437 180.121 558.437 194.746C560.438 209.371 571.214 291.732 570.445 323.292C569.675 354.85 560.668 383.561 529.108 429.745C497.549 475.929 489.384 500.438 443.968 487.799C398.552 475.158 360.302 458.764 330.282 427.974C300.261 397.186 289.484 243.244 289.484 243.244L548.891 155.105Z" fill="#FFDDAD"/>
<path fill-rule="evenodd" clip-rule="evenodd" d="M483.203 299.334C483.203 288.295 486.098 284.105 491.6 284.105C498.55 284.105 501.735 293.587 503.472 305.081C505.21 316.575 508.495 339.962 509.319 349.837C510.519 364.225 505.21 364.275 491.89 364.849C478.57 365.424 476.832 364.849 471.041 364.849C465.249 364.849 459.537 357.873 460.616 353.355C462.472 345.597 468.094 345.546 474.226 337.839C482.913 326.919 483.203 299.334 483.203 299.334Z" fill="#F8C37C"/>
<path fill-rule="evenodd" clip-rule="evenodd" d="M414.972 368.719C414.972 368.719 424.252 390.211 407.141 398.808C390.03 407.405 376.146 397.662 372.067 387.059C367.989 376.456 371.47 358.116 386.26 354.964C401.051 351.812 407.721 358.116 410.621 361.268C413.521 364.42 414.972 368.719 414.972 368.719Z" fill="#FCF6ED"/>
<path fill-rule="evenodd" clip-rule="evenodd" d="M448.326 400.685C452.138 398.09 456.6 396.266 460.829 392.989C465.058 389.712 468.145 388.393 473.786 388.875C479.427 389.358 487.774 393.93 495.21 391.05C509.23 390.2 507.307 400.599 515.954 406.685C516.519 407.083 516.608 408.478 516.051 408.823C503.876 416.389 502.55 428.85 482.186 428.139C452.651 427.107 450.596 409.327 448.126 406.386C445.657 403.446 444.513 403.28 448.326 400.685Z" fill="#FA8F59"/>
<path fill-rule="evenodd" clip-rule="evenodd" d="M530.783 266.079C527.521 267.776 518.156 270.322 516.721 264.395C515.048 257.483 522.461 253.35 531.931 250.239C541.401 247.128 564.749 245.105 564.749 245.105L565.484 251.656C565.484 251.656 554.888 253.577 547.14 256.998C539.392 260.418 534.044 264.382 530.783 266.079Z" fill="#49515E"/>
<path fill-rule="evenodd" clip-rule="evenodd" d="M458.04 405.772C462.531 402.266 472.105 400.768 486.763 401.28C501.421 401.792 507.4 404.499 504.702 409.402C500.659 414.84 493.992 417.495 484.7 417.365C475.409 417.236 466.522 413.371 458.04 405.772Z" fill="#F47C30"/>
<path fill-rule="evenodd" clip-rule="evenodd" d="M462.36 256.899C466.115 262.58 460.477 270.883 445.193 265.2C429.741 259.455 402.58 256.971 386.983 256.971C371.386 256.971 371.665 261.727 365.022 260.615C357.512 259.171 366.755 246.105 391.595 246.105C416.435 246.105 442.431 250.081 447.63 250.65C452.829 251.218 459.894 253.166 462.36 256.899Z" fill="#49515E"/>
</svg>
