<svg width="1440" height="1024" viewBox="0 0 1440 1024" fill="none" xmlns="http://www.w3.org/2000/svg">
<g clip-path="url(#clip0)">
<path d="M1440 0H0V1024H1440V0Z" fill="#808CAB"/>
<path d="M1440 0H0V1024H1440V0Z" fill="#808CAB"/>
<path fill-rule="evenodd" clip-rule="evenodd" d="M995.827 942.609V869.892C995.827 867.683 997.618 865.892 999.827 865.892C999.848 865.892 999.869 865.893 999.89 865.893C1083.41 867.103 1090 861.436 1090 850C1090 838.634 1083.49 832.174 1070.46 830.62V830.62C1070.3 830.601 1070.15 830.592 1069.99 830.592H1057.64C1055.43 830.592 1053.64 828.801 1053.64 826.592C1053.64 826.512 1053.65 826.431 1053.65 826.351C1054.94 804.918 1045.94 791.106 1026.64 784.914C995.827 775.027 979.528 784.784 972.041 794.805C967.359 801.072 960.261 806.132 950.746 809.988C949.556 810.47 948.207 810.352 947.119 809.67L925.866 796.346C924.441 795.452 923.727 793.763 924.079 792.118C925.867 783.779 923.748 779.609 917.723 779.609C912.1 779.609 908.997 781.867 908.416 786.382C908.212 787.962 907.09 789.27 905.56 789.713C898.74 791.686 896.468 795.505 898.743 801.171C901.099 807.04 906.644 807.509 915.379 802.576V802.576C916.825 801.759 918.625 801.921 919.902 802.982L941.229 820.702C942.144 821.462 942.673 822.589 942.673 823.778V826.592C942.673 828.801 940.882 830.592 938.673 830.592C887.581 831.266 882 836.854 882 847.356C882 857.749 887.465 863.887 898.395 865.771V865.771C898.62 865.809 898.847 865.829 899.075 865.829H968.041C970.25 865.829 972.041 867.62 972.041 869.829V942.609C972.041 944.819 973.832 946.609 976.041 946.609H991.827C994.036 946.609 995.827 944.819 995.827 942.609Z" fill="#6E7A9A"/>
<path d="M277 173H73C70.7909 173 69 174.791 69 177V466C69 468.209 70.7909 470 73 470H277C279.209 470 281 468.209 281 466V177C281 174.791 279.209 173 277 173Z" fill="#6E7A9A"/>
<path d="M567 210H363C360.791 210 359 211.791 359 214V366C359 368.209 360.791 370 363 370H567C569.209 370 571 368.209 571 366V214C571 211.791 569.209 210 567 210Z" fill="#6E7A9A"/>
<path d="M253 198H96C93.7909 198 92 199.791 92 202V441C92 443.209 93.7909 445 96 445H253C255.209 445 257 443.209 257 441V202C257 199.791 255.209 198 253 198Z" fill="#808CAB"/>
<path d="M543 235H386C383.791 235 382 236.791 382 239V342C382 344.209 383.791 346 386 346H543C545.209 346 547 344.209 547 342V239C547 236.791 545.209 235 543 235Z" fill="#808CAB"/>
<path fill-rule="evenodd" clip-rule="evenodd" d="M381 309.737C400.849 294.228 416.461 285.47 427.836 283.463C444.899 280.452 462.816 299.821 484.176 309.737C498.416 316.347 520.024 317.616 549 313.543V347.143H381V309.737Z" fill="#6E7A9A"/>
<path fill-rule="evenodd" clip-rule="evenodd" d="M92.9434 289H122.539C124.196 289 125.539 290.343 125.539 292V351.961C125.539 353.618 126.882 354.961 128.539 354.961H144.027C145.684 354.961 147.027 353.618 147.027 351.961V238C147.027 236.343 148.37 235 150.027 235H165.676C167.333 235 168.676 236.343 168.676 238V281.448C168.676 282.503 169.23 283.48 170.135 284.022L199.541 301.627C200.446 302.168 201 303.146 201 304.201V383.684C201 385.34 202.343 386.684 204 386.684H219.93C221.587 386.684 222.93 385.34 222.93 383.684V327.5C222.93 325.843 224.273 324.5 225.93 324.5H257C258.657 324.5 260 325.843 260 327.5V458H86.7812L89.944 291.943C89.9751 290.309 91.3088 289 92.9434 289Z" fill="#6E7A9A"/>
<path fill-rule="evenodd" clip-rule="evenodd" d="M720 703H951.487V-13.2661H971.766V703H1192.72V-13.2661H1254.22V703H1442V-14H720V703Z" fill="#939EBC"/>
<path fill-rule="evenodd" clip-rule="evenodd" d="M1251.26 703C1248.93 663.961 1247.56 637.911 1247.16 624.849C1247.03 620.735 1206.86 638.461 1186.19 641.659C1170.67 644.06 1173.15 632.562 1173.14 629.032C1173.13 624.728 1179.43 612.013 1198.54 612.013C1219.57 612.013 1247 591.502 1247.16 588.977C1247.93 576.538 1249.3 568.952 1251.26 559.803C1253.32 550.206 1252.32 543.712 1258.75 515.984C1263.74 494.519 1304.83 466.887 1308.63 456.546C1312.44 446.205 1301.62 433.08 1287.52 430.929C1273.42 428.777 1257.15 405.488 1257.15 380.099C1257.15 354.71 1281.82 335 1303.65 335C1325.49 335 1348.14 350.155 1358.13 386.307C1364.79 410.409 1356.78 425.283 1334.09 430.929C1329.77 438.568 1335.79 450.674 1352.15 467.249C1376.68 492.111 1349.71 561.774 1347.64 582.742C1345.56 603.709 1358.97 617.162 1363.78 634.652C1370.74 650.887 1370.74 673.67 1363.78 703H1251.26Z" fill="#808CAB"/>
<path fill-rule="evenodd" clip-rule="evenodd" d="M1077.02 703C1077.02 657.014 1077.02 623.781 1077.02 603.301C1077.02 582.821 1078.33 560.774 1080.93 537.158C1090.35 564.877 1101.06 586.925 1113.06 603.301C1131.06 627.866 1146.93 641.068 1172.61 645.379C1198.29 649.689 1208.09 627.105 1196.76 617.352C1185.43 607.6 1185.55 615.352 1169.61 615.352C1161.32 615.352 1136.44 582.918 1119.18 540.962C1103.26 502.27 1103.26 464.994 1087.89 448.76C1073.35 433.397 1043.17 424.395 1065.53 415.13C1087.89 405.866 1097.97 380.383 1097.97 361.134C1097.97 341.885 1082.11 311.313 1046.77 319.304C1011.43 327.295 1024.92 380.628 1028.46 392.263C1031.99 403.897 1021.48 418.899 1006.32 426.541C991.161 434.183 962.678 468.429 958.219 509.907C955.246 537.559 957.711 601.924 965.612 703H1077.02Z" fill="#808CAB"/>
<path fill-rule="evenodd" clip-rule="evenodd" d="M-36 696.505H60.3094C61.9662 696.505 63.3094 697.849 63.3094 699.505C63.3094 699.971 63.2012 700.43 62.9933 700.846L56.524 713.799C55.7837 715.281 56.3852 717.083 57.8675 717.823C58.2837 718.031 58.7427 718.139 59.2079 718.139H102.373C103.347 718.139 104.261 717.666 104.823 716.87C108.419 711.78 112.229 707.87 116.255 705.142C120.353 702.364 130.478 701.207 146.631 701.668V701.668C148.287 701.716 149.668 700.412 149.716 698.755C149.716 698.727 149.717 698.698 149.717 698.67C149.717 695.347 149.717 690.554 149.717 684.291C136.338 684.291 133.877 665.724 142.333 628.591C142.644 627.226 143.858 626.258 145.258 626.258H162.229C163.648 626.258 164.873 627.252 165.164 628.64C172.963 665.741 170.395 684.291 157.461 684.291C157.461 688.864 157.461 693.437 157.461 698.01C157.461 699.667 158.804 701.01 160.461 701.01C160.686 701.01 160.91 700.985 161.129 700.935L200.527 691.931C201.78 691.645 202.711 690.593 202.843 689.314L215.214 569.456C215.31 568.528 214.969 567.608 214.29 566.967C206.956 560.039 201.429 554.748 197.709 551.096C193.877 547.332 192.569 536.91 193.787 519.828C193.829 519.242 193.698 518.657 193.41 518.145C189.612 511.381 186.754 503.837 184.835 495.512C183.115 488.049 182.478 481.186 182.922 474.923C183.038 473.291 181.825 471.867 180.196 471.722L172.506 471.038C170.855 470.891 169.637 469.434 169.784 467.784C169.832 467.243 170.026 466.725 170.345 466.286C184.751 446.461 202.29 432.974 222.961 425.826C256.156 414.347 273.107 439.969 278.229 464.382C283.35 488.794 287.805 502.775 294.055 508.328C300.305 513.881 327.746 504.584 368.276 543.189C394.893 568.542 428.83 632.769 470.088 735.872H470.088C471.214 738.686 470.411 741.905 468.095 743.86L465.005 746.469C464.499 746.896 464.149 747.477 464.009 748.123C462.117 756.806 459.96 762.252 457.537 764.462C453.767 767.901 489.068 762.082 502.612 769.956C516.156 777.83 512.704 788.486 508.914 794.584C506.69 798.16 502.433 800.834 496.141 802.606C494.632 803.032 493.704 804.547 494.013 806.085L545.279 1061.41C545.605 1063.03 544.553 1064.62 542.928 1064.94C542.734 1064.98 542.536 1065 542.338 1065H525.32C523.872 1065 522.63 1063.97 522.369 1062.54L503.794 961.178C503.533 959.754 502.291 958.719 500.843 958.719H368.538C367.099 958.719 365.863 959.74 365.592 961.153L346.099 1062.57C345.828 1063.98 344.591 1065 343.153 1065H326.97C325.313 1065 323.97 1063.66 323.97 1062C323.97 1061.81 323.988 1061.62 324.023 1061.43L371.538 813.764C372.456 808.98 369.322 804.358 364.538 803.44C363.99 803.335 363.434 803.282 362.876 803.282C352.004 803.282 346.362 792.368 346.362 784.756C329.221 784.756 308.484 786.213 284.152 789.127V789.127C282.507 789.324 281.333 790.817 281.53 792.462C281.559 792.711 281.62 792.955 281.711 793.189L344.427 955.108C344.649 955.683 344.689 956.312 344.542 956.91C341.073 970.978 338.286 982.64 336.182 991.896C332.958 1006.08 301.996 1022 294.566 1012.55C287.136 1003.09 301.58 983.781 301.58 967.256C301.58 957.124 291.52 936.831 271.402 906.374C270.489 904.992 268.628 904.611 267.246 905.525C266.405 906.08 265.899 907.02 265.899 908.028V1022C265.899 1023.66 264.556 1025 262.899 1025H-36C-37.6569 1025 -39 1023.66 -39 1022V699.505C-39 697.849 -37.6569 696.505 -36 696.505ZM243.5 575.289L242 665L268.949 556.047C261.591 547.671 256.743 543.42 254.404 543.293C252.065 543.166 248.431 553.831 243.5 575.289ZM372.873 942.273C372.829 942.513 372.807 942.756 372.807 943C372.807 945.209 374.598 947 376.807 947H492.162C492.414 947 492.666 946.976 492.914 946.929C495.084 946.513 496.506 944.418 496.09 942.248L470.252 807.248C469.891 805.363 468.242 804 466.323 804H401.75C399.821 804 398.167 805.377 397.817 807.273L372.873 942.273ZM260 719C270.985 719 287.359 716.346 309.122 711.037C341.766 703.075 335.218 694.508 328.559 681.5C324.12 672.828 313.921 660.328 297.962 644L260 719Z" fill="#6E7A9A"/>
<path d="M309.5 260C328.554 260 344 244.554 344 225.5C344 206.446 328.554 191 309.5 191C290.446 191 275 206.446 275 225.5C275 244.554 290.446 260 309.5 260Z" fill="#FFDDAD"/>
<path d="M316 -20H304V110H316V-20Z" fill="#49515E"/>
<path fill-rule="evenodd" clip-rule="evenodd" d="M198 217H418C405.885 145 369.219 109 308 109C246.781 109 210.115 145 198 217Z" fill="#6E7A9A"/>
<path d="M1083.5 165C1095.93 165 1106 154.703 1106 142C1106 129.297 1095.93 119 1083.5 119C1071.07 119 1061 129.297 1061 142C1061 154.703 1071.07 165 1083.5 165Z" fill="#808CAB"/>
<path d="M1089 -20H1077V66H1089V-20Z" fill="#808CAB"/>
<path fill-rule="evenodd" clip-rule="evenodd" d="M1010 136H1155C1147.02 88.6667 1122.85 65 1082.5 65C1042.15 65 1017.98 88.6667 1010 136Z" fill="#808CAB"/>
</g>
<defs>
<clipPath id="clip0">
<rect width="1440" height="1024" fill="white"/>
</clipPath>
</defs>
</svg>
