<svg width="1250" height="279" viewBox="0 0 1250 279" fill="none" xmlns="http://www.w3.org/2000/svg">
<path fill-rule="evenodd" clip-rule="evenodd" d="M40 199H1210C1232.09 199 1250 216.909 1250 239V279H0V239C0 216.909 17.9086 199 40 199Z" fill="#49515E"/>
<path fill-rule="evenodd" clip-rule="evenodd" d="M221 107.385C226.58 100.462 231.88 97 236.899 97C244.428 97 251.104 103.72 257.406 111.422C261.607 116.557 285.138 145.416 328 198H264.142L221 107.385Z" fill="#F8F1E7"/>
<path fill-rule="evenodd" clip-rule="evenodd" d="M293 198L221.913 107.385C217.41 100.462 212.399 97 206.879 97C201.36 97 196.1 100.462 191.1 107.385L122 198H293Z" fill="white"/>
<path fill-rule="evenodd" clip-rule="evenodd" d="M156 199C160.237 177.667 177.581 167 208.033 167C238.484 167 255.806 177.667 260 199H156Z" fill="#414A57"/>
<path fill-rule="evenodd" clip-rule="evenodd" d="M987.601 199C991.331 189.139 999.144 184.209 1011.04 184.209C1011.04 164.915 1011.04 142.089 1011.04 130.191C1011.04 118.293 995 115.449 987.601 99.5C980.203 83.5508 988.178 58.593 993.196 32.4936C996.541 15.0939 998.575 4.26276 999.298 0L1040.54 0C1041.64 6.0555 1043.36 16.8867 1045.71 32.4936C1049.22 55.9039 1058.03 83.2532 1051.87 99.5C1045.71 115.747 1028.7 116.982 1028.7 130.191C1028.7 143.4 1028.7 167.857 1028.7 184.209C1041.97 184.209 1049.69 189.139 1051.87 199H987.601Z" fill="white"/>
<path fill-rule="evenodd" clip-rule="evenodd" d="M998.816 49H1040.23C1049.16 86.3333 1042.24 105 1019.48 105C996.715 105 989.828 86.3333 998.816 49Z" fill="#F8F1E7"/>
</svg>
