<svg width="1440" height="1024" viewBox="0 0 1440 1024" fill="none" xmlns="http://www.w3.org/2000/svg">
<g clip-path="url(#clip0)">
<path d="M1440 0H0V845H1440V0Z" fill="#ECEAE0"/>
<path d="M1440 814H0V1024H1440V814Z" fill="#ECEAE0"/>
<path d="M1440 322.096H1165.79V448.396H1440V322.096Z" fill="#FFFAF2"/>
<path d="M1440 456.458H933.427V582.758H1440V456.458Z" fill="#FFFAF2"/>
<path d="M1372.34 590.82H865.765V717.121H1372.34V590.82Z" fill="#FFFAF2"/>
<path d="M857.752 590.82H708.184V717.121H857.752V590.82Z" fill="#FFFAF2"/>
<path d="M1440 725.182H1019.78V851.483H1440V725.182Z" fill="#FFFAF2"/>
<path d="M1168.46 859.545H888.021V985.846H1168.46V859.545Z" fill="#FFFAF2"/>
<path d="M879.119 859.545H708.184V985.846H879.119V859.545Z" fill="#FFFAF2"/>
<path d="M879.119 995.699H708.184V1122H879.119V995.699Z" fill="#FFFAF2"/>
<path d="M1440 859.545H1176.47V985.846H1440V859.545Z" fill="#FFFAF2"/>
<path d="M1011.77 725.182H708.184V851.483H1011.77V725.182Z" fill="#FFFAF2"/>
<path d="M1440 590.82H1380.35V717.121H1440V590.82Z" fill="#FFFAF2"/>
<path d="M1157.78 322.096H883.57V448.396H1157.78V322.096Z" fill="#FFFAF2"/>
<path d="M874.667 322.096H708.184V448.396H874.667V322.096Z" fill="#FFFAF2"/>
<path d="M1331.39 187.733H934.317V314.034H1331.39V187.733Z" fill="#FFFAF2"/>
<path d="M1440 187.733H1338.51V314.034H1440V187.733Z" fill="#FFFAF2"/>
<path d="M926.304 187.733H708.184V314.034H926.304V187.733Z" fill="#FFFAF2"/>
<path d="M924.523 456.458H708.184V582.758H924.523V456.458Z" fill="#FFFAF2"/>
<path d="M0.000488281 322.096H274.209V448.396H0.000488281V322.096Z" fill="#FFFAF2"/>
<path d="M-0.000274658 456.458H506.573V582.758H-0.000274658V456.458Z" fill="#FFFAF2"/>
<path d="M67.6618 590.82H574.235V717.121H67.6618V590.82Z" fill="#FFFAF2"/>
<path d="M582.248 590.82H731.816V717.121H582.248V590.82Z" fill="#FFFAF2"/>
<path d="M0.000671387 725.182H420.216V851.483H0.000671387V725.182Z" fill="#FFFAF2"/>
<path d="M271.538 859.545H551.979V985.846H271.538V859.545Z" fill="#FFFAF2"/>
<path d="M560.881 859.545H731.816V985.846H560.881V859.545Z" fill="#FFFAF2"/>
<path d="M560.881 995.699H731.816V1122H560.881V995.699Z" fill="#FFFAF2"/>
<path d="M0.000305176 859.545H263.525V985.846H0.000305176V859.545Z" fill="#FFFAF2"/>
<path d="M428.228 725.182H731.816V851.483H428.228V725.182Z" fill="#FFFAF2"/>
<path d="M0.000652313 590.82H59.6499V717.121H0.000652313V590.82Z" fill="#FFFAF2"/>
<path d="M282.222 322.096H556.43V448.396H282.222V322.096Z" fill="#FFFAF2"/>
<path d="M565.333 322.096H731.816V448.396H565.333V322.096Z" fill="#FFFAF2"/>
<path d="M108.615 187.733H505.683V314.034H108.615V187.733Z" fill="#FFFAF2"/>
<path d="M0.000396729 187.733H101.493V314.034H0.000396729V187.733Z" fill="#FFFAF2"/>
<path d="M513.696 187.733H731.816V314.034H513.696V187.733Z" fill="#FFFAF2"/>
<path d="M515.477 456.458H731.816V582.758H515.477V456.458Z" fill="#FFFAF2"/>
<path d="M1072 844.02C1064.4 799.52 1060.5 755.72 1060.5 712.62C1060.5 669.52 1079 629.22 1116 591.72L1108.4 585.22C1068.8 627.02 1049 672.42 1049 721.42C1049 770.42 1050.6 811.32 1053.9 844.02H1072Z" fill="#F47C30"/>
<path d="M967 838.02H1118L1104.3 994.02H983.9L967 838.02Z" fill="#73B5EC"/>
<path d="M1239.7 727.72C1242.7 721.32 1246 711.92 1249.6 699.72C1255.1 681.42 1256.8 670.22 1256.8 670.22C1256.8 670.22 1222 656.12 1213.7 643.52C1205.4 631.02 1218.1 627.22 1231.5 635.32C1240.4 640.72 1248.9 647.02 1256.8 654.02C1261.3 641.42 1263.5 632.22 1263.5 626.42C1263.5 617.72 1217.5 613.02 1207.1 603.82C1196.7 594.72 1206.4 582.52 1228.4 593.22C1243.1 600.32 1255.8 607.72 1266.7 615.62C1269 598.92 1268 586.72 1263.5 579.02C1256.8 567.52 1202 570.72 1187.9 563.52C1173.8 556.32 1175 540.32 1196.1 540.32C1210.2 540.32 1232.6 546.52 1263.5 558.92C1249.6 529.02 1233 507.52 1213.6 494.42C1184.6 474.82 1154.2 478.32 1137.2 494.42C1125.9 505.12 1121.4 517.52 1123.8 531.42C1087.4 499.72 1059.2 498.32 1039 527.12C1018.8 555.92 1017.6 588.12 1035.2 623.52C1050.1 585.62 1064.1 564.12 1077.2 559.02C1096.7 551.32 1112.8 560.92 1089.1 582.42C1073.3 596.82 1057.7 614.42 1042.5 635.42L1077.2 680.42C1080.6 652.22 1087.2 630.62 1096.8 615.72C1111.3 593.32 1130 599.12 1117.3 623.52C1104.6 647.92 1087.2 680.32 1092 691.42C1095.2 698.82 1105.8 706.12 1123.7 713.52C1121.3 680.92 1124.3 661.12 1132.7 654.12C1145.3 643.62 1160.8 654.82 1148.9 670.32C1141 680.62 1135.6 696.52 1132.7 717.92C1141.4 722.12 1149.8 725.42 1157.8 727.72C1165.8 730.02 1172.1 731.82 1176.6 733.02C1165.2 702.42 1162.9 684.92 1169.6 680.32C1179.7 673.52 1188.1 691.32 1188.1 706.42C1188.1 716.52 1186.5 725.32 1183.4 733.02C1193.1 733.42 1202.7 733.22 1211.9 732.32C1221.4 731.42 1230.6 729.92 1239.7 727.72Z" fill="#F58B44"/>
<path d="M904 658.62C908.9 635.32 908.9 619.22 904 610.12C896.7 596.62 884.1 600.72 887.7 616.22C891.3 631.62 896 656.42 887.7 665.72C882.2 671.92 874.5 673.92 864.7 671.72C872.6 654.02 876.6 642.52 876.6 637.22C876.6 629.32 865.6 615.92 860.9 637.22C856.3 658.52 858.6 671.72 850 671.72C844.3 671.72 839 671.72 834.1 671.72C846.5 652.72 850.5 641.22 846 637.22C839.3 631.32 828.8 639.72 828.8 652.72C828.8 661.42 827.4 667.72 824.6 671.72H781C805.8 630.32 837.7 598.32 876.6 575.82C935 542.12 1000.3 567.82 1016.4 629.52C1027.1 670.72 1030.4 742.12 1026.3 843.82H1016.4C1020.1 732.62 1016.4 661.22 1005.4 629.52C994.4 597.82 974.6 579.92 946.2 575.82C945.4 602.32 942.6 620.22 937.8 629.52C933 639.02 921.7 648.72 904 658.62Z" fill="#F47C30"/>
<path d="M1068.4 826.42C1079.3 795.62 1080.9 772.42 1073.2 756.62C1061.5 733.02 1049.2 733.02 1037.2 733.02C1029.2 733.02 1021.8 736.02 1015 741.92C1010.2 712.02 998.3 697.02 979.2 697.02C960.1 697.02 941.4 712.02 923.1 741.92C942.5 733.72 957.4 729.62 967.8 729.62C983.4 729.62 994.7 741.92 979.2 747.52C968.9 751.22 950.2 752.42 923.1 750.92C917.7 758.12 915 766.12 915 775.02C915 783.92 915 789.82 915 792.72C928.4 776.92 942.3 769.12 956.6 769.12C978 769.12 984 779.62 962.5 786.22C941 792.82 915 799.62 915 807.02C915 811.92 916.7 821.32 920.1 835.32C936.9 813.32 949.1 803.92 956.6 807.02C967.8 811.82 967.9 819.22 956.6 822.82C949.1 825.22 936.9 832.32 920.1 844.12C925.3 853.12 929.4 859.32 932.4 862.62C936.9 867.62 948.6 852.02 954.5 843.12C960.4 834.22 972.5 843.32 962.4 852.92C955.7 859.32 948.8 865.72 941.7 871.92C952 882.42 958.9 889.52 962.4 893.22C965.9 896.92 969.9 899.82 974.1 902.02L1011.2 879.92C999.3 853.22 997 839.92 1004.1 839.92C1011.2 839.92 1016.8 850.62 1021 871.92C1031.7 868.92 1037 865.82 1037 862.62C1037 857.72 1027.2 832.82 1021 822.82C1014.8 812.82 1032.6 810.42 1037 822.82C1039.9 831.12 1043.3 841.12 1047.1 852.92C1055.2 847.02 1059.2 841.12 1059.2 835.22C1059.2 826.42 1021.9 797.22 1029.5 786.12C1037 775.02 1047.1 789.72 1050.3 792.62C1052.5 794.62 1058.5 805.92 1068.4 826.42Z" fill="#F6914D"/>
<path d="M1440 -82.5508H1019.78V43.7499H1440V-82.5508Z" fill="#FFFAF2"/>
<path d="M1168.46 51.812H888.021V178.113H1168.46V51.812Z" fill="#FFFAF2"/>
<path d="M879.119 51.812H708.184V178.113H879.119V51.812Z" fill="#FFFAF2"/>
<path d="M1440 51.812H1176.47V178.113H1440V51.812Z" fill="#FFFAF2"/>
<path d="M1011.77 -82.5508H708.184V43.7499H1011.77V-82.5508Z" fill="#FFFAF2"/>
<path d="M0.000671387 -82.5508H420.216V43.7499H0.000671387V-82.5508Z" fill="#FFFAF2"/>
<path d="M271.538 51.812H551.979V178.113H271.538V51.812Z" fill="#FFFAF2"/>
<path d="M560.881 51.812H731.816V178.113H560.881V51.812Z" fill="#FFFAF2"/>
<path d="M0.000305176 51.812H263.525V178.113H0.000305176V51.812Z" fill="#FFFAF2"/>
<path d="M428.228 -82.5508H731.816V43.7499H428.228V-82.5508Z" fill="#FFFAF2"/>
</g>
<defs>
<clipPath id="clip0">
<rect width="1440" height="1024" fill="white"/>
</clipPath>
</defs>
</svg>
