<svg width="1441" height="1028" viewBox="0 0 1441 1028" fill="none" xmlns="http://www.w3.org/2000/svg">
<rect width="312" height="988" fill="#F8F1E7"/>
<rect x="1129" width="312" height="988" fill="#F8F1E7"/>
<rect x="86" y="512.11" width="133" height="185.795" fill="white"/>
<path d="M109.61 562.992H196.571" stroke="#C7C7C7" stroke-width="2"/>
<path d="M109.61 593.058H196.571" stroke="#C7C7C7" stroke-width="2"/>
<path d="M109.61 623.125H196.571" stroke="#C7C7C7" stroke-width="2"/>
<path d="M109.61 653.191H196.571" stroke="#C7C7C7" stroke-width="2"/>
<ellipse cx="93.8701" cy="519.82" rx="3.14793" ry="3.08374" fill="#C7C7C7"/>
<ellipse cx="211.13" cy="519.82" rx="3.14793" ry="3.08374" fill="#C7C7C7"/>
<ellipse cx="93.8701" cy="688.273" rx="3.14793" ry="3.08374" fill="#C7C7C7"/>
<ellipse cx="211.13" cy="688.273" rx="3.14793" ry="3.08374" fill="#C7C7C7"/>
<path d="M89 807.895L153.55 770L216 807.895L213.613 810L153.55 774.211L91.3872 810L89 807.895Z" fill="#E0DDD8"/>
<path d="M154.099 779.03C156.663 779.03 158.742 777.162 158.742 774.858C158.742 772.555 156.663 770.687 154.099 770.687C151.535 770.687 149.457 772.555 149.457 774.858C149.457 777.162 151.535 779.03 154.099 779.03Z" fill="#C7C7C7"/>
<path d="M90.1421 809.5H214.5V884.901H90.1421V809.5Z" fill="white" stroke="#E0DDD8" stroke-width="3"/>
<path d="M109.533 833.257H100.248V841.6H109.533V833.257Z" fill="#E0DDD8"/>
<path d="M109.533 845.771H100.248V854.113H109.533V845.771Z" fill="#E0DDD8"/>
<path d="M109.533 858.285H100.248V866.627H109.533V858.285Z" fill="#E0DDD8"/>
<path d="M109.533 870.799H100.248V879.141H109.533V870.799Z" fill="#E0DDD8"/>
<path d="M165.705 833.257H156.42V841.6H165.705V833.257Z" fill="#E0DDD8"/>
<path d="M165.705 845.771H156.42V854.113H165.705V845.771Z" fill="#E0DDD8"/>
<path d="M165.705 858.285H156.42V866.627H165.705V858.285Z" fill="#E0DDD8"/>
<path d="M137.387 833.257H128.103V841.6H137.387V833.257Z" fill="#E0DDD8"/>
<path d="M191.239 818.657H116.497V824.914H191.239V818.657Z" fill="#E0DDD8"/>
<path d="M137.387 845.771H128.103V854.113H137.387V845.771Z" fill="#E0DDD8"/>
<path d="M137.387 858.285H128.103V866.627H137.387V858.285Z" fill="#E0DDD8"/>
<path d="M137.387 870.799H128.103V879.141H137.387V870.799Z" fill="#E0DDD8"/>
<path d="M193.56 833.257H184.275V841.6H193.56V833.257Z" fill="#E0DDD8"/>
<path d="M193.56 845.771H184.275V854.113H193.56V845.771Z" fill="#E0DDD8"/>
<path d="M193.56 858.285H184.275V866.627H193.56V858.285Z" fill="#E0DDD8"/>
<path d="M123.46 833.257H114.175V841.6H123.46V833.257Z" fill="#E0DDD8"/>
<path d="M123.46 845.771H114.175V854.113H123.46V845.771Z" fill="#E0DDD8"/>
<path d="M123.46 858.285H114.175V866.627H123.46V858.285Z" fill="#E0DDD8"/>
<path d="M123.46 870.799H114.175V879.141H123.46V870.799Z" fill="#E0DDD8"/>
<path d="M179.632 833.257H170.348V841.6H179.632V833.257Z" fill="#E0DDD8"/>
<path d="M179.632 845.771H170.348V854.113H179.632V845.771Z" fill="#E0DDD8"/>
<path d="M179.632 858.285H170.348V866.627H179.632V858.285Z" fill="#E0DDD8"/>
<path d="M151.778 833.257H142.494V841.6H151.778V833.257Z" fill="#E0DDD8"/>
<path d="M151.778 845.771H142.494V854.113H151.778V845.771Z" fill="#E0DDD8"/>
<path d="M151.778 858.285H142.494V866.627H151.778V858.285Z" fill="#E0DDD8"/>
<path d="M151.778 870.799H142.494V879.141H151.778V870.799Z" fill="#E0DDD8"/>
<path d="M207.487 833.257H198.202V841.6H207.487V833.257Z" fill="#E0DDD8"/>
<path d="M207.487 845.771H198.202V854.113H207.487V845.771Z" fill="#E0DDD8"/>
<path d="M207.487 858.285H198.202V866.627H207.487V858.285Z" fill="#E0DDD8"/>
<rect x="1220.26" y="678" width="141.63" height="211" fill="white"/>
<path d="M1245.4 722H1338.01" stroke="#C7C7C7" stroke-width="2"/>
<path d="M1245.4 747.449H1338.01" stroke="#C7C7C7" stroke-width="2"/>
<path d="M1245.4 772.9H1338.01" stroke="#C7C7C7" stroke-width="2"/>
<path d="M1245.4 798.35H1338.01" stroke="#C7C7C7" stroke-width="2"/>
<ellipse cx="1228.64" cy="686.756" rx="3.3522" ry="3.50207" fill="#C7C7C7"/>
<ellipse cx="1353.51" cy="686.756" rx="3.3522" ry="3.50207" fill="#C7C7C7"/>
<ellipse cx="1321.25" cy="841.045" rx="17.3408" ry="18.1162" fill="#FCE183"/>
<rect y="988" width="1440" height="40" fill="#BAB09E"/>
</svg>
