<svg width="133" height="33" viewBox="0 0 133 33" fill="none" xmlns="http://www.w3.org/2000/svg">
<path fill-rule="evenodd" clip-rule="evenodd" d="M85.4425 4.62C86.2561 4.62 86.877 5.26201 86.877 6.14754V20.2497C86.877 21.1131 86.2775 21.7551 85.4639 21.7551C84.7145 21.7551 84.0936 21.1352 84.0508 20.3604C83.3229 21.2459 82.1881 21.7551 80.8178 21.7551C77.8418 21.7551 75.6793 19.342 75.6793 16.0213C75.6793 12.7005 77.8418 10.2874 80.8178 10.2874C82.1453 10.2874 83.2586 10.7745 83.9866 11.5936V6.14754C83.9866 5.28415 84.6075 4.62 85.4425 4.62ZM43.5373 10.2874C46.4491 10.2874 48.1191 11.9921 48.1191 14.9807V20.2497C48.1191 21.1131 47.5196 21.7329 46.7274 21.7329C46.0209 21.7329 45.4642 21.2459 45.3358 20.5817C44.565 21.3344 43.4945 21.7551 42.2312 21.7551C40.0474 21.7551 38.5701 20.4268 38.5701 18.4786C38.5701 16.5083 40.0902 15.2907 42.5738 15.2907H45.2287V14.8036C45.2287 13.586 44.5222 12.8776 43.2375 12.8776C42.4882 12.8776 41.8245 13.1433 41.2035 13.6967C40.861 13.9624 40.6255 14.0509 40.3471 14.0509C39.6406 14.0509 39.1053 13.4975 39.1053 12.8333C39.1053 12.4127 39.3194 12.0142 39.7048 11.6378C40.6041 10.7745 41.9957 10.2874 43.5373 10.2874ZM43.002 19.5634C44.2652 19.5634 45.2287 18.6336 45.2287 17.3938V17.261H42.9592C41.9957 17.261 41.4819 17.6373 41.4819 18.3679C41.4819 19.0985 42.06 19.5634 43.002 19.5634ZM50.9327 15.9991C50.9327 19.2092 53.4163 21.7551 56.6065 21.7551C58.4906 21.7551 60.0321 20.9138 60.91 19.5191C61.0812 19.2534 61.1455 19.0321 61.1455 18.7664C61.1455 18.0358 60.5674 17.4381 59.8608 17.4381C59.4755 17.4381 59.1757 17.5488 58.876 17.903C58.2979 18.5672 57.5699 19.0099 56.6493 19.0099C55.0221 19.0099 53.8659 17.7702 53.8659 15.9991C53.8659 14.2502 55.0221 13.0104 56.6493 13.0104C57.5913 13.0104 58.3407 13.4532 58.876 14.1173C59.1329 14.4494 59.454 14.5822 59.8608 14.5822C60.5674 14.5822 61.1455 13.9845 61.1455 13.2539C61.1455 13.0104 61.0812 12.7669 60.8885 12.457C60.0749 11.1729 58.4049 10.2874 56.6065 10.2874C53.4163 10.2874 50.9327 12.789 50.9327 15.9991ZM68.2839 10.2874C71.1958 10.2874 72.8658 11.9921 72.8658 14.9807V20.2497C72.8658 21.1131 72.2663 21.7329 71.4741 21.7329C70.7676 21.7329 70.2109 21.2459 70.0824 20.5817C69.3116 21.3344 68.2411 21.7551 66.9779 21.7551C64.7941 21.7551 63.3167 20.4268 63.3167 18.4786C63.3167 16.5083 64.8369 15.2907 67.3205 15.2907H69.9754V14.8036C69.9754 13.586 69.2688 12.8776 67.9842 12.8776C67.2348 12.8776 66.5711 13.1433 65.9502 13.6967C65.6076 13.9624 65.3721 14.0509 65.0938 14.0509C64.3873 14.0509 63.852 13.4975 63.852 12.8333C63.852 12.4127 64.0661 12.0142 64.4515 11.6378C65.3507 10.7745 66.7424 10.2874 68.2839 10.2874ZM69.9754 17.3938C69.9754 18.6336 69.0119 19.5634 67.7487 19.5634C66.8066 19.5634 66.2285 19.0985 66.2285 18.3679C66.2285 17.6373 66.7424 17.261 67.7059 17.261H69.9754V17.3938ZM84.0294 16.0213C84.0294 17.8145 82.9589 19.0321 81.3531 19.0321C79.7473 19.0321 78.6126 17.7702 78.6126 15.9991C78.6126 14.2723 79.7688 12.9883 81.3531 12.9883C82.9375 12.9883 84.0294 14.2281 84.0294 16.0213ZM95.2787 10.2874C98.1691 10.2874 100.31 12.457 100.31 15.4235V15.4899C100.31 16.4197 99.6678 17.0175 98.7258 17.0175H92.688C93.0306 18.39 94.1011 19.187 95.6641 19.187C96.4349 19.187 97.227 18.9656 97.8694 18.545C98.0835 18.4122 98.2762 18.3458 98.4903 18.3458C99.154 18.3458 99.6678 18.855 99.6678 19.5412C99.6678 20.0283 99.4537 20.3825 98.9399 20.7367C97.9764 21.4009 96.8203 21.7551 95.5784 21.7551C92.2384 21.7551 89.7762 19.2977 89.7762 16.0212C89.7762 12.7669 92.1528 10.2874 95.2787 10.2874ZM92.688 14.9143C93.0092 13.5639 93.9513 12.7005 95.2145 12.7005C96.5633 12.7005 97.4626 13.6082 97.5054 14.9143H92.688ZM115.52 10.2874C117.983 10.2874 119.524 11.9921 119.524 14.6929V20.2275C119.524 21.1131 118.903 21.7551 118.09 21.7551C117.255 21.7551 116.634 21.0909 116.634 20.2275V15.1136C116.634 13.8074 115.906 12.9883 114.75 12.9883C113.593 12.9883 112.801 13.8295 112.801 15.0472V20.2275C112.801 21.1131 112.18 21.7551 111.367 21.7551C110.532 21.7551 109.911 21.0909 109.911 20.2275V15.1136C109.911 13.8074 109.161 12.9883 108.027 12.9883C106.849 12.9883 106.078 13.8295 106.078 15.1136V20.2275C106.078 21.1131 105.457 21.7551 104.644 21.7551C103.809 21.7551 103.188 21.0909 103.188 20.2275V11.7928C103.188 10.9294 103.809 10.2874 104.622 10.2874C105.286 10.2874 105.8 10.7302 105.971 11.3943C106.699 10.6859 107.684 10.2874 108.84 10.2874C110.211 10.2874 111.303 10.8409 111.988 11.8592C112.823 10.8851 114.107 10.2874 115.52 10.2874ZM133 11.7264C133 10.9516 132.358 10.2874 131.608 10.2874C131.03 10.2874 130.538 10.6195 130.324 11.1287L127.455 17.6152L124.65 11.1287C124.436 10.5973 123.943 10.2874 123.387 10.2874C122.616 10.2874 121.974 10.9516 121.974 11.7264C121.974 11.9478 122.038 12.1692 122.166 12.4348L125.828 20.781L125.442 21.6665C124.971 22.6628 124.35 23.0612 123.43 23.0612C123.402 23.0612 123.369 23.057 123.333 23.0523C123.287 23.0461 123.233 23.0391 123.173 23.0391C122.445 23.0391 121.867 23.5926 121.867 24.3231C121.867 24.8323 122.145 25.2972 122.595 25.4965C122.916 25.6514 123.344 25.74 123.815 25.74C125.742 25.74 127.027 24.7216 128.161 22.3085L132.829 12.4127C132.957 12.1692 133 11.9478 133 11.7264Z" fill="#F57D30"/>
<path fill-rule="evenodd" clip-rule="evenodd" d="M24.7986 5.45294C25.8161 5.45294 26.6979 6.26078 26.6979 7.29302C26.6979 8.30282 25.8161 9.11066 24.7986 9.11066C23.7359 9.11066 22.8768 8.30282 22.8768 7.29302C22.8768 6.26078 23.7359 5.45294 24.7986 5.45294ZM8.32923 22.7093C7.44744 22.7093 6.79175 22.0361 6.79175 21.1385V8.93114C6.79175 8.03354 7.42483 7.36034 8.32923 7.36034C9.21102 7.36034 9.8441 8.03354 9.8441 8.93114V13.3069H16.4462V8.9087C16.4462 8.0111 17.0793 7.36034 17.9837 7.36034C18.8655 7.36034 19.4986 8.0111 19.4986 8.9087V21.1385C19.4986 22.0361 18.8429 22.7093 17.9837 22.7093C17.1019 22.7093 16.4462 22.0361 16.4462 21.1385V16.0446H9.8441V21.1385C9.8441 22.0361 9.18841 22.7093 8.32923 22.7093ZM23.2611 21.1609C23.2611 22.0361 23.9168 22.7093 24.776 22.7093C25.6578 22.7093 26.3135 22.0361 26.3135 21.1609V12.6113C26.3135 11.7361 25.6578 11.0854 24.7986 11.0854C23.9168 11.0854 23.2611 11.7361 23.2611 12.6113V21.1609Z" fill="#F57D30"/>
<path fill-rule="evenodd" clip-rule="evenodd" d="M20.0359 29.8705C20.5826 29.1036 20.7391 28.8914 20.9591 28.6347C21.0355 28.5455 21.1016 28.475 21.1543 28.4243C29.7755 27.4772 33.915 22.7789 33.915 14.4169C33.915 5.54329 27.0638 0.226868 16.9575 0.226868C6.85121 0.226868 0 5.54329 0 14.4169C0 22.8074 4.17317 27.5102 12.8538 28.4344C12.9022 28.483 12.9617 28.5487 13.0299 28.6301C13.2443 28.8862 13.3999 29.1022 13.9298 29.8637C14.0104 29.9795 14.0708 30.0659 14.1304 30.1506C15.3006 31.8129 15.8588 32.4035 16.9575 32.4035C18.0551 32.4035 18.643 31.8012 19.8142 30.1798C19.88 30.0886 19.9465 29.9958 20.0359 29.8705ZM17.8645 28.3456C17.778 28.4669 17.7144 28.5557 17.6523 28.6416C17.3692 29.0335 17.154 29.3127 16.973 29.5174C16.7971 29.3114 16.5878 29.0319 16.3109 28.6386C16.2545 28.5585 16.1966 28.4756 16.1185 28.3633C15.5331 27.5222 15.3629 27.2859 15.0759 26.943C14.5203 26.2793 14.0477 25.8991 13.3552 25.8316C5.87955 25.1028 2.66 21.5338 2.66 14.4169C2.66 7.16335 8.19683 2.86687 16.9575 2.86687C25.7182 2.86687 31.255 7.16335 31.255 14.4169C31.255 21.5058 28.0669 25.0697 20.6616 25.8215C19.9747 25.8912 19.4945 26.269 18.933 26.9242C18.639 27.2672 18.468 27.499 17.8645 28.3456Z" fill="#F57D30"/>
</svg>
