<svg width="236" height="76" viewBox="0 0 236 76" fill="none" xmlns="http://www.w3.org/2000/svg">
<path fill-rule="evenodd" clip-rule="evenodd" d="M134.119 37.6656C134.187 46.7248 138.238 51.2544 146.272 51.2544C154.305 51.2544 179.799 51.2544 222.751 51.2544C231.584 52.548 236 56.8991 236 64.3077C236 71.7163 231.584 75.6138 222.751 76H32.6977C26.0335 74.1936 22.7015 70.2961 22.7015 64.3077C22.7015 55.3251 26.8275 51.2544 32.6977 51.2544C36.6111 51.2544 57.0252 51.2544 93.9401 51.2544C101.893 49.9924 105.869 45.4628 105.869 37.6656C105.869 29.8685 101.893 25.888 93.9401 25.7242H10.4765C3.49217 23.9941 0 19.4566 0 12.1118C0 4.7669 3.49217 0.729646 10.4765 0H198.413C206.872 0.504424 211.102 4.54168 211.102 12.1118C211.102 19.6818 206.872 24.2193 198.413 25.7242C171.754 25.7242 154.373 25.7242 146.272 25.7242C138.17 25.7242 134.119 29.7047 134.119 37.6656Z" fill="#FAF0E4"/>
</svg>
