<svg width="284" height="126" viewBox="0 0 284 126" fill="none" xmlns="http://www.w3.org/2000/svg">
<path fill-rule="evenodd" clip-rule="evenodd" d="M45.0563 126C37.1655 124.475 33.2201 120.54 33.2201 114.196C33.2201 107.853 37.1655 103.691 45.0563 101.711H110.025C118.734 100.103 123.089 95.9002 123.089 89.102C123.089 78.9047 116.49 74.5328 110.025 74.5328C105.715 74.5328 72.5861 74.5328 10.6395 74.5328C3.54652 75.3698 0 71.8331 0 63.9226C0 56.0121 3.54652 52.0569 10.6395 52.0569C99.3571 52.2925 145.046 52.2925 147.707 52.0569C151.698 51.7033 159.825 48.6465 159.825 38.8422C159.825 29.038 154.986 26.4024 147.707 26.4024C142.854 26.4024 131.135 26.4024 112.549 26.4024C104.718 24.8716 100.803 20.4319 100.803 13.0832C100.803 5.73447 104.718 1.37484 112.549 0.00426097H235.195C243.938 -0.155985 248.31 4.20365 248.31 13.0832C248.31 21.9627 243.938 26.4024 235.195 26.4024C210.93 26.4024 197.312 26.4024 194.341 26.4024C189.885 26.4024 184.314 29.7421 184.314 38.8422C184.314 47.9423 189.409 52.0569 194.341 52.0569C197.63 52.0569 223.55 52.0569 272.101 52.0569C280.034 52.8939 284 56.8492 284 63.9226C284 70.9961 280.034 74.5328 272.101 74.5328H161.507C152.858 75.8392 148.533 80.6956 148.533 89.102C148.533 97.5083 152.858 101.711 161.507 101.711H221.706C230.698 102.166 235.195 106.327 235.195 114.196C235.195 122.065 230.698 126 221.706 126H45.0563Z" fill="#FAF0E4"/>
</svg>
