<svg width="1440" height="1024" viewBox="0 0 1440 1024" fill="none" xmlns="http://www.w3.org/2000/svg">
<path d="M1440 0H0V745H1440V0Z" fill="#FFFAF2"/>
<path fill-rule="evenodd" clip-rule="evenodd" d="M787.266 504.49H916.148C917.249 504.49 918.141 505.386 918.141 506.49V520.991C918.141 522.095 919.034 522.991 920.135 522.991H938.727C939.828 522.991 940.72 523.886 940.72 524.991V553.459C940.72 554.564 941.613 555.459 942.713 555.459H969.431C970.531 555.459 971.424 554.564 971.424 553.459V477.11C971.424 476.005 972.316 475.11 973.417 475.11H989.017C990.118 475.11 991.01 474.214 991.01 473.11V455.281C991.01 454.176 991.902 453.281 993.003 453.281H1000.75C1001.86 453.281 1002.75 452.385 1002.75 451.281V408.005C1002.75 406.901 1003.64 406.005 1004.74 406.005H1024.58C1025.65 406.005 1026.52 405.168 1026.57 404.102L1031.85 294.757C1031.9 293.654 1032.83 292.803 1033.93 292.856C1034.94 292.905 1035.75 293.703 1035.82 294.714L1043.46 404.145C1043.53 405.193 1044.4 406.005 1045.44 406.005H1064.89C1065.99 406.005 1066.88 406.901 1066.88 408.005V451.281C1066.88 452.385 1067.77 453.281 1068.87 453.281H1077.64C1078.74 453.281 1079.63 454.176 1079.63 455.281V474.042C1079.63 475.146 1080.52 476.042 1081.62 476.042C1081.65 476.042 1081.67 476.041 1081.69 476.041L1095.97 475.56C1097.07 475.523 1097.99 476.387 1098.03 477.491C1098.03 477.514 1098.03 477.536 1098.03 477.558V553.459C1098.03 554.564 1098.92 555.459 1100.02 555.459H1124.09C1125.19 555.459 1126.09 556.354 1126.09 557.459V575.231C1126.09 576.336 1126.98 577.231 1128.08 577.231H1210.22C1211.32 577.231 1212.21 576.336 1212.21 575.231V537.336C1212.21 536.239 1213.1 535.346 1214.19 535.336L1258.06 534.946C1259.16 534.936 1260.04 534.044 1260.04 532.946V509.991C1260.04 508.886 1260.93 507.991 1262.03 507.991H1303.36C1304.46 507.991 1305.35 507.095 1305.35 505.991V440.113C1305.35 439.008 1306.24 438.113 1307.34 438.113C1307.34 438.113 1307.35 438.113 1307.35 438.113L1330.6 438.222C1331.71 438.227 1332.6 437.336 1332.61 436.232C1332.61 436.228 1332.61 436.225 1332.61 436.222V427.023C1332.61 425.919 1331.71 425.023 1330.61 425.023H1316.16C1315.06 425.023 1314.17 424.128 1314.17 423.023V408.005C1314.17 406.901 1315.06 406.005 1316.16 406.005H1331.55C1332.21 406.005 1332.83 405.675 1333.2 405.124L1355.42 372.089C1356.04 371.173 1357.27 370.932 1358.19 371.55C1358.37 371.672 1358.53 371.822 1358.66 371.995L1383.89 405.218C1384.27 405.714 1384.86 406.005 1385.48 406.005H1401.42C1402.52 406.005 1403.41 406.901 1403.41 408.005V423.116C1403.41 424.22 1402.52 425.116 1401.42 425.116H1386.48C1385.38 425.116 1384.49 426.011 1384.49 427.116V436.232C1384.49 437.336 1385.38 438.232 1386.48 438.232H1409.11C1410.21 438.232 1411.1 439.127 1411.1 440.232V507.025C1411.1 508.129 1411.99 509.025 1413.09 509.025H1440V887.49L611.819 888.49V534.928L740.768 535.354V522.991H785.273V506.49C785.273 505.386 786.166 504.49 787.266 504.49Z" fill="#F0E0CC"/>
<path d="M38.8651 552.082H1.99308C0.892332 552.082 0 552.977 0 554.082V749H788.884V552.082H496.234C495.133 552.082 494.241 551.187 494.241 550.082V479.404C494.241 478.3 493.349 477.404 492.248 477.404H470.201C469.101 477.404 468.208 476.509 468.208 475.404V461.875C468.208 460.77 469.101 459.875 470.201 459.875H477.304C478.404 459.875 479.297 458.98 479.297 457.875V445.233C479.297 444.129 478.404 443.233 477.304 443.233H399.391C398.29 443.233 397.397 444.129 397.397 445.233V457.875C397.397 458.98 398.29 459.875 399.391 459.875H405.841C406.942 459.875 407.834 460.77 407.834 461.875V475.404C407.834 476.509 406.942 477.404 405.841 477.404H381.441C380.34 477.404 379.448 478.3 379.448 479.404V522.316C379.448 523.421 378.556 524.316 377.455 524.316H167.31C166.209 524.316 165.317 523.421 165.317 522.316V328H82.7128V522.316C82.7128 523.421 81.8205 524.316 80.7197 524.316H42.8512C41.7505 524.316 40.8581 525.212 40.8581 526.316V550.082C40.8581 551.187 39.9658 552.082 38.8651 552.082Z" fill="#F0E0CC"/>
<path d="M1440 747H0V1024H1440V747Z" fill="#FCF6EC"/>
<path d="M1438 0H0V293H1438V0Z" fill="#FCF6EC"/>
<path fill-rule="evenodd" clip-rule="evenodd" d="M1.9618 818.378H106.918C108.002 818.378 108.88 817.482 108.88 816.376V684.452C108.88 683.346 108.002 682.45 106.918 682.45H1.9618C0.878328 682.45 0 681.553 0 680.448V673.599C0 672.493 0.878328 671.597 1.9618 671.597H106.918C108.002 671.597 108.88 670.7 108.88 669.594V371.082C108.88 369.977 108.002 369.08 106.918 369.08H1.9618C0.878328 369.08 0 368.184 0 367.078V358.503C0 357.397 0.878328 356.501 1.9618 356.501H106.918C108.002 356.501 108.88 355.605 108.88 354.499V67.002C108.88 65.8963 109.758 65 110.842 65H138.599C139.682 65 140.561 65.8963 140.561 67.002V354.499C140.561 355.605 141.439 356.501 142.522 356.501H488.193C489.277 356.501 490.155 355.605 490.155 354.499V67.002C490.155 65.8963 491.033 65 492.117 65H502.056C503.14 65 504.018 65.8963 504.018 67.002V354.499C504.018 355.605 504.896 356.501 505.98 356.501H876.186C877.27 356.501 878.148 355.605 878.148 354.499V67.002C878.148 65.8963 879.026 65 880.11 65H890.005C891.088 65 891.966 65.8963 891.966 67.002V354.499C891.966 355.605 892.845 356.501 893.928 356.501H1234.08C1235.17 356.501 1236.05 355.605 1236.05 354.499V67.002C1236.05 65.8963 1236.92 65 1238.01 65H1263.33C1264.42 65 1265.3 65.8963 1265.3 67.002V354.499C1265.3 355.605 1266.17 356.501 1267.26 356.501H1436.04C1437.12 356.501 1438 357.397 1438 358.503V367.078C1438 368.184 1437.12 369.08 1436.04 369.08H1267.26C1266.17 369.08 1265.3 369.977 1265.3 371.082V669.594C1265.3 670.7 1266.17 671.597 1267.26 671.597H1436.04C1437.12 671.597 1438 672.493 1438 673.599V680.448C1438 681.553 1437.12 682.45 1436.04 682.45H1267.26C1266.17 682.45 1265.3 683.346 1265.3 684.452V816.376C1265.3 817.482 1266.17 818.378 1267.26 818.378H1436.04C1437.12 818.378 1438 819.275 1438 820.38V827.998C1438 829.104 1437.12 830 1436.04 830C1436.04 830 1436.04 830 1436.04 830L1.9596 828.361C0.87699 828.359 0 827.463 0 826.358V820.38C0 819.275 0.878328 818.378 1.9618 818.378ZM142.51 369.581C141.427 369.581 140.548 370.477 140.548 371.583V669.731C140.548 670.837 141.427 671.733 142.51 671.733H487.787C488.871 671.733 489.749 670.837 489.749 669.731V371.583C489.749 370.477 488.871 369.581 487.787 369.581H142.51ZM506.145 369.581C505.061 369.581 504.183 370.477 504.183 371.583V669.731C504.183 670.837 505.061 671.733 506.145 671.733H876.925C878.008 671.733 878.887 670.837 878.887 669.731V371.583C878.887 370.477 878.008 369.581 876.925 369.581H506.145ZM893.6 369.581C892.517 369.581 891.638 370.477 891.638 371.583V669.731C891.638 670.837 892.517 671.733 893.6 671.733H1233.97C1235.06 671.733 1235.93 670.837 1235.93 669.731V371.583C1235.93 370.477 1235.06 369.581 1233.97 369.581H893.6ZM142.51 682.209C141.427 682.209 140.548 683.105 140.548 684.211V816.346C140.548 817.452 141.427 818.348 142.51 818.348H487.783C488.867 818.348 489.745 817.452 489.745 816.346V684.211C489.745 683.105 488.867 682.209 487.783 682.209H142.51ZM506.145 682.209C505.061 682.209 504.183 683.105 504.183 684.211V816.346C504.183 817.452 505.061 818.348 506.145 818.348H876.925C878.008 818.348 878.887 817.452 878.887 816.346V684.211C878.887 683.105 878.008 682.209 876.925 682.209H506.145ZM893.6 682.209C892.517 682.209 891.638 683.105 891.638 684.211V816.346C891.638 817.452 892.517 818.348 893.6 818.348H1233.97C1235.06 818.348 1235.93 817.452 1235.93 816.346V684.211C1235.93 683.105 1235.06 682.209 1233.97 682.209H893.6Z" fill="#FCF6EC"/>
</svg>
