<svg width="1440" height="246" viewBox="0 0 1440 246" fill="none" xmlns="http://www.w3.org/2000/svg">
<rect x="-2" y="180" width="1443" height="78" fill="#808CAB"/>
<path fill-rule="evenodd" clip-rule="evenodd" d="M24.2577 54H180.156C174.797 58.5485 172.118 64.7644 172.118 72.6477C172.118 80.531 174.797 87.5849 180.156 93.8094H24.2577C18.5925 93.8094 14 89.2169 14 83.5517V64.2577C14 58.5925 18.5925 54 24.2577 54Z" fill="#808CAB"/>
<path fill-rule="evenodd" clip-rule="evenodd" d="M24.2577 141.387H180.156C174.797 145.936 172.118 152.151 172.118 160.035C172.118 167.918 174.797 174.972 180.156 181.196H24.2577C18.5925 181.196 14 176.604 14 170.939V151.645C14 145.98 18.5925 141.387 24.2577 141.387Z" fill="#808CAB"/>
<path fill-rule="evenodd" clip-rule="evenodd" d="M57.102 97.6931H213C207.642 102.242 204.962 108.458 204.962 116.341C204.962 124.224 207.642 131.278 213 137.503H57.102C51.4368 137.503 46.8442 132.91 46.8442 127.245V107.951C46.8442 102.286 51.4368 97.6931 57.102 97.6931Z" fill="#808CAB"/>
<path fill-rule="evenodd" clip-rule="evenodd" d="M1297.03 26.09L1305.22 24.046L1328.18 116.275L1319.99 118.319L1297.03 26.09Z" fill="#808CAB"/>
<path fill-rule="evenodd" clip-rule="evenodd" d="M1324.41 0.736344L1332.82 -4.40584e-05L1341.09 94.6907L1332.68 95.427L1324.41 0.736344Z" fill="#808CAB"/>
<path fill-rule="evenodd" clip-rule="evenodd" d="M1363.16 37.8296L1371.41 39.5863L1351.68 132.562L1343.42 130.805L1363.16 37.8296Z" fill="#808CAB"/>
<path fill-rule="evenodd" clip-rule="evenodd" d="M1303.98 84.0776H1369.98L1360.55 185.078H1313.41L1303.98 84.0776Z" fill="#808CAB"/>
</svg>
