<svg width="722" height="866" viewBox="0 0 722 866" fill="none" xmlns="http://www.w3.org/2000/svg">
<path fill-rule="evenodd" clip-rule="evenodd" d="M722 865.105C722 865.105 693.091 638.899 689.629 618.714C689.629 618.714 681.611 610.163 660.84 606.703C629.682 601.512 592.755 596.899 550.635 587.094C508.515 577.29 480.243 566.909 480.243 566.909C459.419 611.161 438.88 634.027 418.624 635.51C389.42 637.647 335.529 611.512 256.95 557.105C256.95 557.105 245.41 569.793 185.981 586.518C185.981 586.518 84.4311 614.2 76.9303 616.507C69.4295 618.814 67.6985 621.698 63.6596 632.655L0 865.105H722Z" fill="#DBDBDC"/>
<path fill-rule="evenodd" clip-rule="evenodd" d="M556.386 112.543C556.386 112.543 571.76 155.549 527.941 180.893C481.992 207.469 444.148 213.533 391.104 221.212C391.104 221.212 324.222 225.436 316.834 276.004C310.384 329.113 347.999 349.849 343.44 400.536C338.946 450.489 302.696 501.141 219.671 481.942C136.645 462.742 122.808 388.248 148.946 311.45C175.083 234.652 197.058 240.377 239.658 127.902C271.946 42.6562 318.535 -16.4422 429.541 4.2576C544.854 25.7614 556.386 112.543 556.386 112.543Z" fill="#5E5249"/>
<path fill-rule="evenodd" clip-rule="evenodd" d="M398.17 675.222C389.181 663.26 380 649.164 380 649.164L419.624 636.51L444.16 630.105L463.944 642.398C463.944 642.398 462.32 669.843 459.944 687.497C457.568 705.15 457.955 709.954 457.955 709.954C457.955 709.954 451.805 708.432 442.105 708.802C427.048 709.378 424.729 711.105 424.729 711.105C424.729 711.105 407.158 687.184 398.17 675.222Z" fill="#49515E"/>
<path fill-rule="evenodd" clip-rule="evenodd" d="M370.212 680.904C385.289 667.851 405.257 645.178 422 635.382C422 635.382 384.472 636.535 340.593 595.047C296.714 553.559 278.239 516.105 278.239 516.105C278.239 516.105 258.609 540.306 253.412 553.559C252.183 556.695 253.424 571.277 260.973 586.082C271.672 607.064 291.546 631.983 304.877 655.503C321.895 685.527 331.355 705.105 331.355 705.105C331.355 705.105 347.082 700.927 370.212 680.904Z" fill="#FCFCFC"/>
<path fill-rule="evenodd" clip-rule="evenodd" d="M504.223 681.178C504.223 681.178 474.184 654.239 452.617 642.694C431.051 631.149 422 635.189 422 635.189C422 635.189 451.012 604.795 460.573 574.191C470.133 543.588 465.756 526.105 465.756 526.105C465.756 526.105 479.472 541.657 491.13 558.798C509.449 585.736 510 688.105 510 688.105" fill="#FCFCFC"/>
<path fill-rule="evenodd" clip-rule="evenodd" d="M424 865.105L425.141 710.689C425.141 710.689 431.832 708.406 440.938 707.529C450.848 706.575 457.523 707.529 457.523 707.529L487 865.105H424Z" fill="#565D68"/>
<path fill-rule="evenodd" clip-rule="evenodd" d="M540.917 767.706L624.801 772.103L624.069 786.083L540.184 781.687L540.917 767.706Z" fill="#565D68"/>
</svg>
