<svg width="723" height="866" viewBox="0 0 723 866" fill="none" xmlns="http://www.w3.org/2000/svg">
<path fill-rule="evenodd" clip-rule="evenodd" d="M280.484 519.592C280.484 519.592 292.022 501.893 313.56 431.868C335.097 361.842 458.94 475.73 458.94 475.73C458.94 475.73 462.016 514.975 469.709 537.29C477.401 559.607 458.94 643.482 436.632 649.639C414.326 655.795 335.097 654.256 310.483 598.851C285.869 543.447 280.484 519.592 280.484 519.592Z" fill="#FFDDAD"/>
<path fill-rule="evenodd" clip-rule="evenodd" d="M286.484 506.919C286.484 506.919 291.426 502.549 313.008 432.783C334.589 363.018 458.687 476.482 458.687 476.482C458.687 476.482 463.254 512.033 466.438 530.167C468.039 539.286 427.768 543.803 394.219 525.403C363.256 508.422 355.486 501.116 327.818 477.848C310.861 508.039 286.484 506.919 286.484 506.919Z" fill="#F8C37C"/>
<path fill-rule="evenodd" clip-rule="evenodd" d="M547.392 128.105C547.392 128.105 587.727 135.017 583.117 201.833C583.117 201.833 577.721 254.825 561.98 296.297C561.98 296.297 555.825 322.153 566.59 357.609C566.59 357.609 591.551 402.281 565.438 442.602C539.325 482.922 500.142 471.566 472.484 467.453L547.392 128.105Z" fill="#5E5249"/>
<path fill-rule="evenodd" clip-rule="evenodd" d="M548.891 155.105C548.891 155.105 556.437 180.121 558.437 194.746C560.438 209.371 571.214 291.732 570.445 323.292C569.675 354.85 563.668 383.561 532.108 429.745C500.549 475.929 489.384 497.438 443.968 484.799C398.552 472.158 360.302 458.764 330.282 427.974C300.261 397.186 289.484 243.244 289.484 243.244L548.891 155.105Z" fill="#FFDDAD"/>
<path fill-rule="evenodd" clip-rule="evenodd" d="M491.6 284.105C498.55 284.105 501.735 293.587 503.472 305.081C505.21 316.575 508.495 338.962 509.319 348.837C510.519 363.225 505.21 363.275 491.89 363.849C478.57 364.424 476.832 363.849 471.041 363.849C465.249 363.849 459.537 356.873 460.616 352.355C462.472 344.597 468.094 344.546 474.226 336.839C482.913 325.919 483.203 299.334 483.203 299.334C483.203 288.295 486.098 284.105 491.6 284.105Z" fill="#F8C37C"/>
<path fill-rule="evenodd" clip-rule="evenodd" d="M448.667 403.458C452.182 400.407 452.531 397.435 456.388 393.644C460.246 389.854 467.069 388.823 472.73 388.721C478.391 388.618 484.84 391.566 494.197 387.684C506.648 384.131 511.287 396.522 516.541 401.451C516.988 401.87 517.275 403.177 516.865 403.623C506.816 414.544 505.586 426.484 485.259 427.906C460.388 429.645 451.843 412.038 449.075 409.297C446.307 406.557 445.151 406.509 448.667 403.458Z" fill="#FA8F59"/>
<path fill-rule="evenodd" clip-rule="evenodd" d="M530.783 266.079C527.521 267.776 518.156 270.322 516.721 264.395C515.048 257.483 522.461 253.35 531.931 250.239C541.401 247.128 564.749 245.105 564.749 245.105L565.484 251.656C565.484 251.656 554.888 253.577 547.14 256.998C539.392 260.418 534.044 264.382 530.783 266.079Z" fill="#5E5249"/>
<path fill-rule="evenodd" clip-rule="evenodd" d="M458.772 406.738C468.479 401.046 477.814 398.121 486.776 397.965C495.739 397.808 502.999 399.785 508.555 403.894C503.219 412.417 495.926 417.123 486.675 418.011C477.423 418.9 468.122 415.142 458.772 406.738Z" fill="#F47C30"/>
<path fill-rule="evenodd" clip-rule="evenodd" d="M455.198 241.594C459.434 246.926 454.541 255.689 438.82 251.36C422.926 246.984 395.652 246.877 380.114 248.236C364.576 249.596 365.269 254.309 358.554 253.78C350.947 252.996 359.016 239.174 383.762 237.009C408.507 234.844 434.75 236.54 439.979 236.653C445.208 236.766 452.416 238.091 455.198 241.594Z" fill="#5E5249"/>
</svg>
