<svg width="723" height="866" viewBox="0 0 723 866" fill="none" xmlns="http://www.w3.org/2000/svg">
<path fill-rule="evenodd" clip-rule="evenodd" d="M280.484 519.592C280.484 519.592 292.022 501.893 313.56 431.868C335.097 361.842 458.94 475.73 458.94 475.73C458.94 475.73 462.016 514.975 469.708 537.29C477.401 559.607 458.94 643.482 436.632 649.639C414.326 655.795 335.097 654.256 310.483 598.851C285.869 543.447 280.484 519.592 280.484 519.592Z" fill="#FFDDAD"/>
<path fill-rule="evenodd" clip-rule="evenodd" d="M313.008 432.783C334.589 363.018 458.687 476.482 458.687 476.482C458.687 476.482 464.253 516.033 467.438 534.167C469.039 543.286 427.768 548.803 394.219 530.403C363.255 513.422 355.486 501.116 327.817 477.848C310.861 508.039 286.484 506.919 286.484 506.919C286.484 506.919 291.425 502.549 313.008 432.783Z" fill="#F8C37C"/>
<path fill-rule="evenodd" clip-rule="evenodd" d="M547.392 128.105C547.392 128.105 587.727 135.017 583.117 201.833C583.117 201.833 577.721 254.825 561.98 296.297C561.98 296.297 555.825 322.153 566.59 357.609C566.59 357.609 591.55 402.281 565.437 442.602C539.325 482.922 500.142 471.566 472.484 467.453L547.392 128.105Z" fill="#5E5249"/>
<path fill-rule="evenodd" clip-rule="evenodd" d="M548.891 155.105C548.891 155.105 556.437 180.121 558.437 194.746C560.437 209.371 571.214 293.732 570.445 325.292C569.675 356.85 559.667 385.561 528.108 431.745C496.548 477.929 486.384 509.438 440.967 496.799C395.552 484.158 360.302 458.764 330.282 427.974C300.261 397.186 289.484 243.244 289.484 243.244L548.891 155.105Z" fill="#FFDDAD"/>
<path fill-rule="evenodd" clip-rule="evenodd" d="M483.202 299.71C483.202 288.399 486.098 284.105 491.6 284.105C498.55 284.105 501.735 293.821 503.472 305.599C505.21 317.377 508.494 341.341 509.319 351.46C510.519 366.203 505.21 366.254 491.889 366.843C478.569 367.432 476.832 366.843 471.041 366.843C465.249 366.843 459.537 359.694 460.616 355.065C462.472 347.115 468.094 347.064 474.226 339.165C482.913 327.977 483.202 299.71 483.202 299.71Z" fill="#F8C37C"/>
<path fill-rule="evenodd" clip-rule="evenodd" d="M458.77 410.215C463.737 405.397 464.518 398.283 467.928 394.793C471.338 391.304 475.517 389.85 480.205 390.141C484.894 390.432 484.603 391.226 490.268 395.086C493.381 395.599 494.363 394.284 497.347 391.595C506.595 386.975 510.69 396.832 510.69 401.341C510.69 401.341 511.497 406.144 506.595 415.012C504.632 415.012 513.825 442.494 486.645 442.494C452.899 442.494 466.307 420.862 462.698 418.07C459.088 415.278 453.803 415.034 458.77 410.215Z" fill="#FA8F59"/>
<path fill-rule="evenodd" clip-rule="evenodd" d="M530.782 266.079C527.521 267.776 518.156 270.322 516.721 264.395C515.047 257.483 522.46 253.35 531.93 250.239C541.4 247.128 564.749 245.105 564.749 245.105L565.484 251.656C565.484 251.656 554.888 253.577 547.14 256.998C539.391 260.418 534.043 264.382 530.782 266.079Z" fill="#5E5249"/>
<path fill-rule="evenodd" clip-rule="evenodd" d="M472.484 414.534C474.117 406.248 479.117 402.105 487.484 402.105C495.851 402.105 498.656 406.232 495.898 414.486C495.898 423.928 492.61 428.796 486.034 429.09C479.459 429.384 474.942 424.532 472.484 414.534Z" fill="#F47C30"/>
<path fill-rule="evenodd" clip-rule="evenodd" d="M462.36 256.899C466.115 262.58 460.477 270.883 445.193 265.2C429.741 259.455 402.58 256.971 386.983 256.971C371.386 256.971 371.665 261.727 365.022 260.615C357.512 259.171 366.755 246.105 391.595 246.105C416.435 246.105 442.43 250.081 447.629 250.65C452.828 251.218 459.893 253.166 462.36 256.899Z" fill="#5E5249"/>
</svg>
