<svg width="350" height="250" viewBox="0 0 350 250" fill="none" xmlns="http://www.w3.org/2000/svg">
<rect width="350" height="250" fill="#F58B44"/>
<mask id="mask0" mask-type="alpha" maskUnits="userSpaceOnUse" x="0" y="0" width="350" height="250">
<rect width="350" height="250" fill="white"/>
</mask>
<g mask="url(#mask0)">
<rect x="32" y="40" width="139" height="201" fill="#FC9149"/>
<rect x="180" y="40" width="139" height="201" fill="#FC9149"/>
<path fill-rule="evenodd" clip-rule="evenodd" d="M36 45H164.06L168 52H40.3411L36 45Z" fill="#F58B44"/>
<path fill-rule="evenodd" clip-rule="evenodd" d="M184 45H312.06L316 52H188.341L184 45Z" fill="#F58B44"/>
<path fill-rule="evenodd" clip-rule="evenodd" d="M184 66H312.06L316 73H188.341L184 66Z" fill="#F58B44"/>
<path fill-rule="evenodd" clip-rule="evenodd" d="M36 55H164.06L168 62H40.3411L36 55Z" fill="#F58B44"/>
<path fill-rule="evenodd" clip-rule="evenodd" d="M184 55H312.06L316 62H188.341L184 55Z" fill="#F58B44"/>
<path fill-rule="evenodd" clip-rule="evenodd" d="M184 76H312.06L316 83H188.341L184 76Z" fill="#F58B44"/>
<path fill-rule="evenodd" clip-rule="evenodd" d="M184 87H312.06L316 94H188.341L184 87Z" fill="#F58B44"/>
<rect x="21" y="16" width="305" height="18" fill="#FC9149"/>
<path fill-rule="evenodd" clip-rule="evenodd" d="M85.1627 119V112.042C85.1627 112.042 101 110.664 101 96.0376C101 81.4108 101 69 101 69H59V119H85.1627Z" fill="#FF9E5C"/>
<path fill-rule="evenodd" clip-rule="evenodd" d="M59 96H67.5835C67.5835 96 76.917 94.2578 76.917 84.9848C76.917 75.7119 76.917 73.6649 76.917 73.6649H101.166C101.166 73.6649 110 73.1818 110 64.2433C110 55.3048 110 55 110 55L67.5835 55C67.5835 55 59 55.8465 59 67.1032C59 78.3599 59 96 59 96Z" fill="#E77F39"/>
<path fill-rule="evenodd" clip-rule="evenodd" d="M101 98.5645C101 98.5645 95.7109 97.9833 95.7109 94.6327C95.7109 91.2822 95.7109 92.2214 95.7109 92.2214H101V90H95.7109C95.7109 90 92.0774 90.0332 92.0774 95.4189C92.0774 100.805 92.0774 105.385 92.0774 105.385C92.0774 105.385 91.6399 108.372 93.6754 109.85C94.6496 110.557 97.4674 108.765 99.5595 104.579C100.382 102.934 101 98.5645 101 98.5645Z" fill="#E77F39"/>
<path fill-rule="evenodd" clip-rule="evenodd" d="M101 80.8885H98.114C98.114 80.8885 98.114 82.2174 98.114 83.328C98.114 84.4385 97.2217 85.3621 96 84.8594C94.7783 84.3568 95.2388 80.8885 95.2388 80.8885H93.1712C93.1712 80.8885 91 80.696 91 78.925C91 77.1541 91 77 91 77C91 77 95.5067 77 98.114 77C100.721 77 101 80.8885 101 80.8885Z" fill="#E77F39"/>
<path fill-rule="evenodd" clip-rule="evenodd" d="M56.4665 123.59C56.4665 120.348 56.4665 117 56.4665 117H89.9583V123.59C89.9583 123.59 109 125.355 109 142.871C109 160.386 109 227 109 227H48L48 135.711C48 135.711 48 124.981 56.4665 123.59Z" fill="#F58B44"/>
<path fill-rule="evenodd" clip-rule="evenodd" d="M176.68 185L157 165.935L159.048 164L181 185H176.68Z" stroke="#979797"/>
<path fill-rule="evenodd" clip-rule="evenodd" d="M160.215 113H209L187.445 188C187.445 188 139 188 139 188C139 188 160.215 113 160.215 113Z" fill="#F58B44"/>
<path fill-rule="evenodd" clip-rule="evenodd" d="M110.673 227H141.202C141.202 227 154 228.506 154 242.385C154 256.263 154 266 154 266H82V227" fill="#F58B44"/>
<path fill-rule="evenodd" clip-rule="evenodd" d="M92.498 131C94.2647 131 98.7617 131.158 98.7617 140.624C98.7617 150.089 98.7617 154.204 98.7617 160.361C98.7617 166.519 101.181 183.231 123.764 183.231C146.348 183.231 170 183.231 170 183.231V197C170 197 130.675 197 123.764 197C116.854 197 106.243 197 94.2647 186.18C82.2864 175.361 85.4701 149.596 85.1741 140.624C84.8782 131.652 90.7313 131 92.498 131Z" fill="#E77F39"/>
<path fill-rule="evenodd" clip-rule="evenodd" d="M170 185H184.464C184.464 185 192 185 192 191C192 197 192 197 192 197H170V185Z" fill="#FF9E5C"/>
<path fill-rule="evenodd" clip-rule="evenodd" d="M140.064 183L142.346 175.688H148.523C148.523 175.688 152 175.644 152 173.095C152 170.546 152 170.001 152 170.001H138.242C138.242 170.001 135 169.947 135 173.095C135 176.243 135 183 135 183H140.064Z" fill="#FF9E5C"/>
<path fill-rule="evenodd" clip-rule="evenodd" d="M127.835 266C127.835 266 137 264.615 137 257.605C137 250.595 127.835 249.649 127.835 249.649H88.2045V191.191C88.2045 191.191 83.5896 158 55.0055 158C26.4213 158 21 158 21 158V256.677C21 256.677 21.3171 257.446 34.4097 257.446C36.5866 257.446 40.8638 257.446 40.8638 257.446V266H127.835Z" fill="#E77F39"/>
<path fill-rule="evenodd" clip-rule="evenodd" d="M245 75V104.495C245 104.495 246.766 118.268 258.671 118.268C270.576 118.268 270.041 118.268 270.041 118.268V122H287V75H245Z" fill="#FF9E5C"/>
<path fill-rule="evenodd" clip-rule="evenodd" d="M108 214.017H153.714V266H320.465V206.989H336V197L108 197V214.017Z" fill="#F58B44"/>
<path fill-rule="evenodd" clip-rule="evenodd" d="M229 208H321V266H229V208Z" fill="#E77F39"/>
<rect x="108" y="197" width="108" height="11" fill="#F58B44"/>
<rect x="213" y="197" width="121" height="11" fill="#E77F39"/>
<rect x="161" y="214" width="61" height="17" fill="#E77F39"/>
<rect x="179" y="218" width="22" height="3" fill="#F58B44"/>
<rect x="161" y="235" width="61" height="25" fill="#E77F39"/>
<rect x="179" y="239" width="22" height="3" fill="#F58B44"/>
<path fill-rule="evenodd" clip-rule="evenodd" d="M265.877 119H270.652V120.977H273.163V119H290.006V122.91C290.006 122.91 302 123.524 302 134.969C302 146.415 302 197 302 197H243V140.54C243 140.54 243 122.91 265.877 122.91C265.877 120.977 265.877 119 265.877 119Z" fill="#F58B44"/>
<path fill-rule="evenodd" clip-rule="evenodd" d="M268.431 123.701V122H273V123.701C273 123.701 257.109 129.761 257.109 142.752C257.109 155.743 257.109 198 257.109 198H251C251 198 251 157.976 251 142.752C251 127.529 268.431 123.701 268.431 123.701Z" fill="#E77F39"/>
<path fill-rule="evenodd" clip-rule="evenodd" d="M284.027 136.566C284.027 136.566 283.587 129 290.252 129C296.918 129 297 136.566 297 136.566V197L284.027 196.666V136.566Z" fill="#E77F39"/>
<path fill-rule="evenodd" clip-rule="evenodd" d="M267.579 75.2411V93H270.626C270.626 93 273.894 92.4753 273.894 89.7237C273.894 86.9721 273.323 86.3052 277.303 86.3052C281.284 86.3052 286.849 86.3052 286.849 86.3052V75.2411C286.849 75.2411 297 74.7191 297 65.0635C297 61.8356 297 56.4303 297 56.4303H272.318C272.318 56.4303 272.877 54.3877 274.531 53.6546C276.185 52.9215 278.318 52.906 278.318 52.906C278.318 52.906 275.492 52.1574 272.318 52.906C269.143 53.6546 265.484 56.4303 265.484 56.4303H263.321C263.321 56.4303 263.121 55.2184 264.24 54.3765C265.359 53.5346 268.993 52.0905 268.993 52.0905C268.993 52.0905 262.643 52.906 260.057 53.6546C257.47 54.4032 255.03 56.4303 255.03 56.4303H252.594C252.594 56.4303 255.02 53.3859 259.366 52.0905C263.711 50.7951 265.924 51.2057 265.924 51.2057C265.924 51.2057 259.307 50.5264 253.939 52.0905C248.57 53.6546 245 57.5215 245 64.4015C245 71.2815 245 75.2411 245 75.2411H267.579Z" fill="#E77F39"/>
<path fill-rule="evenodd" clip-rule="evenodd" d="M248.103 97H256.897C256.897 97 257.68 105 252.5 105C247.32 105 248.103 97 248.103 97Z" fill="#E77F39"/>
<path fill-rule="evenodd" clip-rule="evenodd" d="M254.193 82C254.193 82 253.256 79 256.863 79C260.47 79 262 79 262 79C262 79 261.798 82 259.33 82C256.863 82 254.193 82 254.193 82Z" fill="#E77F39"/>
<path fill-rule="evenodd" clip-rule="evenodd" d="M248.365 79.0286C248.365 79.0286 251 78.7929 251 80.5C251 82.2071 251 81.9714 251 81.9714H246.603C246.603 81.9714 244 81.9408 244 79.0286C247.248 79.0286 248.365 79.0286 248.365 79.0286Z" fill="#E77F39"/>
<path fill-rule="evenodd" clip-rule="evenodd" d="M257.5 88C258.328 88 259 87.1046 259 86C259 84.8954 258.328 84 257.5 84C256.672 84 256 84.8954 256 86C256 87.1046 256.672 88 257.5 88Z" fill="#E77F39"/>
<path fill-rule="evenodd" clip-rule="evenodd" d="M247.5 88C248.328 88 249 87.1046 249 86C249 84.8954 248.328 84 247.5 84C246.672 84 246 84.8954 246 86C246 87.1046 246.672 88 247.5 88Z" fill="#E77F39"/>
<rect x="249" y="84" width="5" height="10" fill="#E77F39"/>
</g>
</svg>
