<svg width="350" height="250" viewBox="0 0 350 250" fill="none" xmlns="http://www.w3.org/2000/svg">
<rect width="350" height="250" rx="20" fill="#808CAB"/>
<mask id="mask0" mask-type="alpha" maskUnits="userSpaceOnUse" x="0" y="0" width="350" height="250">
<rect width="350" height="250" rx="20" fill="white"/>
</mask>
<g mask="url(#mask0)">
<rect x="1" y="-6" width="82" height="90" fill="#7583A5"/>
<path fill-rule="evenodd" clip-rule="evenodd" d="M42 84.3563C66.506 84.3563 86.372 65.5523 86.372 42.3563C86.372 19.1604 66.506 0.356323 42 0.356323C17.4941 0.356323 -2.37195 19.1604 -2.37195 42.3563C-2.37195 65.5523 17.4941 84.3563 42 84.3563Z" fill="#808CAB"/>
<path fill-rule="evenodd" clip-rule="evenodd" d="M172 0H349.892L350 251H262.437V139.584H172V0Z" fill="#6E7CA0"/>
<path fill-rule="evenodd" clip-rule="evenodd" d="M320.695 36C320.695 36 315.492 40.2146 314.497 44.6085C313.503 49.0024 314.497 51.6014 314.497 51.6014H320.695C320.695 51.6014 320.756 58.1965 325.753 65.0982C330.751 72 332.656 72 332.656 72C332.656 72 341.568 67.1586 344.412 55.8836C347.257 44.6085 336.331 36 336.331 36H320.695Z" fill="#7583A5"/>
<path fill-rule="evenodd" clip-rule="evenodd" d="M187.788 79.0641L185.041 80.2851C181.6 81.8148 178.144 78.1753 179.85 74.818L181.033 72.489L178.626 71.6474C175.021 70.387 175.064 65.2735 178.69 64.074L181.118 63.271L179.972 60.9132C178.328 57.5276 181.844 53.9514 185.257 55.5384L187.991 56.8097L189.087 53.941C190.41 50.4778 195.325 50.5221 196.585 54.0087L197.627 56.8901L200.373 55.6691C203.815 54.1394 207.27 57.7789 205.564 61.1362L204.381 63.4652L206.788 64.3068C210.393 65.5672 210.35 70.6807 206.724 71.8802L204.297 72.6832L205.442 75.041C207.087 78.4266 203.57 82.0028 200.157 80.4158L197.424 79.1445L196.328 82.0133C195.005 85.4765 190.09 85.4321 188.829 81.9456L187.788 79.0641Z" fill="#808CAB"/>
<path fill-rule="evenodd" clip-rule="evenodd" d="M242.974 79.0641L240.227 80.2851C236.786 81.8148 233.331 78.1753 235.037 74.818L236.22 72.489L233.813 71.6474C230.208 70.387 230.251 65.2735 233.877 64.074L236.304 63.271L235.159 60.9132C233.514 57.5276 237.03 53.9514 240.443 55.5384L243.177 56.8097L244.273 53.941C245.596 50.4778 250.511 50.5221 251.771 54.0087L252.813 56.8901L255.56 55.6691C259.001 54.1394 262.457 57.7789 260.751 61.1362L259.567 63.4652L261.974 64.3068C265.58 65.5672 265.536 70.6807 261.911 71.8802L259.483 72.6832L260.629 75.041C262.273 78.4266 258.757 82.0028 255.344 80.4158L252.61 79.1445L251.514 82.0133C250.191 85.4765 245.276 85.4321 244.016 81.9456L242.974 79.0641Z" fill="#808CAB"/>
<path fill-rule="evenodd" clip-rule="evenodd" d="M192.5 73C195.538 73 198 70.5376 198 67.5C198 64.4624 195.538 62 192.5 62C189.462 62 187 64.4624 187 67.5C187 70.5376 189.462 73 192.5 73Z" fill="#7583A5"/>
<path fill-rule="evenodd" clip-rule="evenodd" d="M248.5 73C251.538 73 254 70.5376 254 67.5C254 64.4624 251.538 62 248.5 62C245.462 62 243 64.4624 243 67.5C243 70.5376 245.462 73 248.5 73Z" fill="#7583A5"/>
<path fill-rule="evenodd" clip-rule="evenodd" d="M319.235 41.5322L312.243 44.6062C307.071 46.8801 301.91 41.3971 304.492 36.3716L307.597 30.3274L301.178 28.108C295.745 26.2292 295.809 18.5226 301.273 16.7348L307.742 14.6185L304.74 8.50636C302.251 3.43837 307.502 -1.94911 312.632 0.410045L319.585 3.60757L322.338 -3.5203C324.335 -8.68765 331.669 -8.62088 333.571 -3.41805L336.189 3.74466L343.181 0.670648C348.353 -1.60327 353.514 3.87975 350.932 8.90522L347.827 14.9495L354.246 17.1689C359.679 19.0476 359.615 26.7543 354.151 28.542L347.682 30.6584L350.684 36.7705C353.173 41.8385 347.922 47.226 342.792 44.8668L335.839 41.6693L333.085 48.7972C331.089 53.9645 323.755 53.8977 321.853 48.6949L319.235 41.5322Z" fill="#808CAB"/>
<path fill-rule="evenodd" clip-rule="evenodd" d="M328.5 31C333.747 31 338 26.9706 338 22C338 17.0294 333.747 13 328.5 13C323.253 13 319 17.0294 319 22C319 26.9706 323.253 31 328.5 31Z" fill="#6E7CA0"/>
<rect x="1" y="140" width="82" height="109" fill="#7583A5"/>
<path fill-rule="evenodd" clip-rule="evenodd" d="M28.3555 60H56.2783L65 35.0711L42.3282 19L20 35.0711L28.3555 60Z" fill="#7583A5"/>
<path fill-rule="evenodd" clip-rule="evenodd" d="M10 71.5512L20.8577 70L22 81C22 81 18.8391 79.2796 15.755 76.8511C12.6709 74.4227 10 71.5512 10 71.5512Z" fill="#7583A5"/>
<path fill-rule="evenodd" clip-rule="evenodd" d="M74 71.5512L63.1423 70L62 81C62 81 65.1609 79.2796 68.245 76.8511C71.3291 74.4227 74 71.5512 74 71.5512Z" fill="#7583A5"/>
<path fill-rule="evenodd" clip-rule="evenodd" d="M0 31L8 27.084L5.67511 18C5.67511 18 3.53656 21.2537 2.1977 24.3206C0.858835 27.3876 0 31 0 31Z" fill="#7583A5"/>
<path fill-rule="evenodd" clip-rule="evenodd" d="M85 31L77 27.084L79.3249 18C79.3249 18 81.4634 21.2537 82.8023 24.3206C84.1412 27.3876 85 31 85 31Z" fill="#7583A5"/>
<path fill-rule="evenodd" clip-rule="evenodd" d="M33 1.45455L42.5265 8L52 1.45455C52 1.45455 47.1963 0 42.4628 0C37.7292 0 33 1.45455 33 1.45455Z" fill="#7583A5"/>
<path fill-rule="evenodd" clip-rule="evenodd" d="M5 101H78V122H5V101Z" fill="#7583A5"/>
<path fill-rule="evenodd" clip-rule="evenodd" d="M1 106.043C1 106.043 6.58978 108.291 11.5585 110C16.5272 111.709 26.3961 111.897 39.6925 107.021C52.989 102.146 64.2833 101.986 69.6185 102.066C74.9536 102.146 83 104.787 83 104.787C83 104.787 78.8532 83.1135 56.6928 83.1135C34.5324 83.1135 49.7486 83.1135 28.448 83.0005C7.14729 82.8876 1 106.043 1 106.043Z" fill="#6E7CA0"/>
<path fill-rule="evenodd" clip-rule="evenodd" d="M83 116.957C83 116.957 75.4102 115.709 70.4415 114C65.4728 112.291 54.6039 112.103 41.3075 116.979C28.011 121.854 19.7167 121.014 14.3815 120.934C9.04637 120.854 1 118.213 1 118.213C1 118.213 5.14679 139.887 27.3072 139.887C49.4676 139.887 34.2514 139.887 55.552 139.999C76.8527 140.112 83 116.957 83 116.957Z" fill="#6E7CA0"/>
<path fill-rule="evenodd" clip-rule="evenodd" d="M103.172 75.922C100.268 66.6491 98.6883 65.8149 89.6941 53.6124C80.6999 41.41 81.5031 23.8167 87.76 11.3844C94.0169 -1.04793 117.627 -6.31489 129.928 11.3844C142.23 29.0837 128.556 49.6044 126.44 53.6124C124.323 57.6205 115.87 68.2468 113.71 76.1075C111.551 83.9682 116.802 122.474 116.802 125.953C116.802 129.432 114.766 139 109 139C103.234 139 100.143 133.437 100.143 125.953C100.143 118.469 106.077 85.1949 103.172 75.922Z" fill="#6E7CA0"/>
<path fill-rule="evenodd" clip-rule="evenodd" d="M140.172 63.078C137.268 72.3509 135.688 73.1851 126.694 85.3876C117.7 97.59 118.503 115.183 124.76 127.616C131.017 140.048 154.627 145.315 166.928 127.616C179.23 109.916 165.556 89.3956 163.44 85.3876C161.323 81.3795 152.87 70.7532 150.71 62.8925C148.551 55.0318 153.802 16.5263 153.802 13.047C153.802 9.56771 151.766 0 146 0C140.234 0 137.143 5.56342 137.143 13.047C137.143 20.5306 143.077 53.8051 140.172 63.078Z" fill="#6E7CA0"/>
<path fill-rule="evenodd" clip-rule="evenodd" d="M259.08 9.03929C259.08 9.03929 268 10.0956 268 17.4983C268 24.901 268 40.6811 268 40.6811C268 40.6811 267.237 48.0629 259.08 48.0629C250.923 48.0629 181.972 48.0629 181.972 48.0629L176 52C176 52 179.584 30.4833 200.361 19.4217C221.138 8.36012 259.08 9.03929 259.08 9.03929Z" fill="#7583A5"/>
<path fill-rule="evenodd" clip-rule="evenodd" d="M203 48.052H181.971L176 52C176 52 179.583 30.4236 200.356 19.3314C201.215 18.8725 202.097 18.4287 203 18C203 27.9478 203 48.052 203 48.052Z" fill="#808CAB"/>
<path fill-rule="evenodd" clip-rule="evenodd" d="M264.628 10.7829C264.628 10.7829 265.44 9.2882 277.584 9.2882C289.728 9.2882 293.976 12.4796 293.976 21.0659C293.976 29.6521 290.572 37.2225 282.277 44.6192C273.982 52.0159 258.782 66.1522 262.606 87.315C266.43 108.478 273.795 115.764 288.181 129.266C302.567 142.767 324.649 151.91 324.649 151.91L315.985 228.27C315.985 228.27 315.67 249 333.617 249C351.564 249 350.893 228.27 350.893 228.27V151.91C350.893 151.91 352.099 122.591 339.739 91.055C327.38 59.5188 304.236 54.4746 304.236 33.0319C304.236 11.5893 304.236 15.6263 304.236 15.6263C304.236 15.6263 302.617 1 287.063 1C286.58 1 279.676 1 278.7 1C266.134 1 264.628 10.7829 264.628 10.7829Z" fill="#7583A5"/>
<path fill-rule="evenodd" clip-rule="evenodd" d="M280 28C283.866 28 287 25.0899 287 21.5C287 17.9101 283.866 15 280 15C276.134 15 273 17.9101 273 21.5C273 25.0899 276.134 28 280 28Z" fill="#808CAB"/>
<path fill-rule="evenodd" clip-rule="evenodd" d="M284.878 64C284.878 64 284.393 74.1823 288.387 79.3555C292.381 84.5286 301 87.9952 301 87.9952C301 87.9952 290.634 88.1678 284.878 82.0827C279.122 75.9976 284.878 64 284.878 64Z" fill="#808CAB"/>
<path fill-rule="evenodd" clip-rule="evenodd" d="M302.878 51C302.878 51 302.393 61.1823 306.387 66.3555C310.381 71.5286 319 74.9952 319 74.9952C319 74.9952 308.634 75.1678 302.878 69.0827C297.122 62.9976 302.878 51 302.878 51Z" fill="#808CAB"/>
<path fill-rule="evenodd" clip-rule="evenodd" d="M321.423 86C321.423 86 321.015 94.9095 324.379 99.436C327.742 103.963 335 106.996 335 106.996C335 106.996 326.27 107.147 321.423 101.822C316.577 96.4979 321.423 86 321.423 86Z" fill="#808CAB"/>
<path fill-rule="evenodd" clip-rule="evenodd" d="M307.423 94C307.423 94 307.015 102.91 310.379 107.436C313.742 111.963 321 114.996 321 114.996C321 114.996 312.27 115.147 307.423 109.822C302.577 104.498 307.423 94 307.423 94Z" fill="#808CAB"/>
<path fill-rule="evenodd" clip-rule="evenodd" d="M323.969 125C323.969 125 323.638 131.364 326.37 134.597C329.103 137.83 335 139.997 335 139.997C335 139.997 327.907 140.105 323.969 136.302C320.031 132.499 323.969 125 323.969 125Z" fill="#808CAB"/>
<path fill-rule="evenodd" clip-rule="evenodd" d="M333.969 117C333.969 117 333.638 123.364 336.37 126.597C339.103 129.83 345 131.997 345 131.997C345 131.997 337.907 132.105 333.969 128.302C330.031 124.499 333.969 117 333.969 117Z" fill="#808CAB"/>
<path fill-rule="evenodd" clip-rule="evenodd" d="M220.39 110C220.39 110 207 97.7635 207 82.0667C207 66.3698 220.39 51 220.39 51C220.39 51 234 64.2862 234 82.0667C234 99.8471 220.39 110 220.39 110Z" fill="#7583A5"/>
<path fill-rule="evenodd" clip-rule="evenodd" d="M213.59 122.597C213.59 122.597 198.541 122.807 189.031 113.81C179.521 104.812 177.845 88.778 177.845 88.778C177.845 88.778 193.656 89.0501 204.429 99.2418C215.201 109.434 213.59 122.597 213.59 122.597Z" fill="#7583A5"/>
<path fill-rule="evenodd" clip-rule="evenodd" d="M226.967 122.597C226.967 122.597 242.016 122.807 251.526 113.81C261.036 104.812 262.712 88.778 262.712 88.778C262.712 88.778 246.901 89.0501 236.128 99.2418C225.356 109.434 226.967 122.597 226.967 122.597Z" fill="#7583A5"/>
<path d="M220.5 140V109" stroke="#7583A5" stroke-width="3"/>
<path d="M213 123L219.711 128L227 123" stroke="#979797" stroke-width="3"/>
<path fill-rule="evenodd" clip-rule="evenodd" d="M291 153.008C291 153.008 300.385 152.772 307.795 159.423C315.206 166.074 314.994 176 314.994 176C314.994 176 304.311 174.529 298.688 169.515C293.064 164.5 291 153.008 291 153.008Z" fill="#7583A5"/>
<path fill-rule="evenodd" clip-rule="evenodd" d="M291 178.008C291 178.008 300.385 177.772 307.795 184.423C315.206 191.074 314.994 201 314.994 201C314.994 201 304.311 199.529 298.688 194.515C293.064 189.5 291 178.008 291 178.008Z" fill="#7583A5"/>
<path fill-rule="evenodd" clip-rule="evenodd" d="M291 202.008C291 202.008 300.385 201.772 307.795 208.423C315.206 215.074 314.994 225 314.994 225C314.994 225 304.311 223.529 298.688 218.515C293.064 213.5 291 202.008 291 202.008Z" fill="#7583A5"/>
<path fill-rule="evenodd" clip-rule="evenodd" d="M288 153.008C288 153.008 278.615 152.772 271.205 159.423C263.794 166.074 264.006 176 264.006 176C264.006 176 274.689 174.529 280.312 169.515C285.936 164.5 288 153.008 288 153.008Z" fill="#7583A5"/>
<path fill-rule="evenodd" clip-rule="evenodd" d="M288 178.008C288 178.008 278.615 177.772 271.205 184.423C263.794 191.074 264.006 201 264.006 201C264.006 201 274.689 199.529 280.312 194.515C285.936 189.5 288 178.008 288 178.008Z" fill="#7583A5"/>
<path fill-rule="evenodd" clip-rule="evenodd" d="M288 202.008C288 202.008 278.615 201.772 271.205 208.423C263.794 215.074 264.006 225 264.006 225C264.006 225 274.689 223.529 280.312 218.515C285.936 213.5 288 202.008 288 202.008Z" fill="#7583A5"/>
<path fill-rule="evenodd" clip-rule="evenodd" d="M290.273 218C290.273 218 283 225.116 283 234.482C283 243.848 290.273 249 290.273 249C290.273 249 297 240.694 297 234.482C297 228.271 290.273 218 290.273 218Z" fill="#7583A5"/>
<path d="M289.5 139V223" stroke="#7583A5" stroke-width="3"/>
<path fill-rule="evenodd" clip-rule="evenodd" d="M1 161.104H37.4788V146.391C37.4788 146.391 38.8257 141 42.7387 141C46.6517 141 48.3428 146.391 48.3428 146.391V161.104H83C83 161.104 82.4135 165.584 79.3063 165.584C76.1991 165.584 74.5564 163.885 74.5564 163.885L70.352 175.647H54.4428V227.518H56.5876V231.758H59.1083V249H26.1571V231.758H28.856V227.518H31.2215V175.647H15.3022L10.4875 163.885C10.4875 163.885 8.38739 165.584 4.69369 165.584C1 165.584 1 161.104 1 161.104Z" fill="#808CAB"/>
<path fill-rule="evenodd" clip-rule="evenodd" d="M165.513 207.073C165.513 207.073 164.554 205.239 165.513 203.415C166.471 201.592 162.314 200.948 162.314 197.02C162.314 193.093 171.34 196.408 161.428 192.208C151.516 188.008 150.124 191.883 137.577 186.537C125.029 181.192 126.082 167.144 126.082 167.144C126.082 167.144 129.977 173.226 136.073 174.467C142.17 175.709 145.828 176.229 145.828 176.229C145.828 176.229 137.264 170.847 136.073 164.975C134.882 159.102 137.577 151.895 137.577 151.895C137.577 151.895 144.956 160.184 150.213 161.19C155.471 162.196 167.34 172.234 167.34 172.234C167.34 172.234 163.842 164.029 163.842 155.017C163.842 146.005 172.755 138.5 172.755 138.5C172.755 138.5 182.168 146.527 182.168 155.017C182.168 163.507 178.179 172.234 178.179 172.234C178.179 172.234 183.775 165.957 189.414 163.573C195.053 161.19 198.745 160.55 202.126 157.231C205.507 153.912 207.791 151.895 207.791 151.895C207.791 151.895 210.676 159.788 209.635 164.975C208.593 170.162 198.515 176.229 198.515 176.229C198.515 176.229 206.898 176.7 211.115 174.467C215.332 172.234 219.987 167.144 219.987 167.144C219.987 167.144 220.301 176.328 212.904 182.899C205.507 189.469 187.939 190.672 184.81 192.208C181.68 193.744 183.906 194.811 182.168 197.981C180.43 201.151 179.686 202.116 179.686 202.116C179.686 202.116 181.706 204.918 180.696 207.073C179.686 209.229 174.092 212.5 174.092 212.5L165.513 207.073Z" fill="#7583A5"/>
<path fill-rule="evenodd" clip-rule="evenodd" d="M173.088 239.536C167.034 239.536 162.109 242.102 153.422 246.032C144.736 249.963 126.554 252.529 114.76 246.032C102.966 239.536 88.9754 227.04 85.1361 210.478C81.2969 193.915 84.3578 182 84.3578 182C84.3578 182 91.5969 192.939 107.674 191.043C123.75 189.146 132.424 186.145 148.029 191.043C163.633 195.94 173.088 202.467 173.088 202.467C173.088 202.467 183.309 194.909 200.121 191.043C216.933 187.177 237.032 191.043 245.327 191.043C253.622 191.043 260.316 182 260.316 182C260.316 182 264.421 202.087 258.519 216C252.617 229.913 238.832 247.509 219.434 249.408C200.036 251.306 195.296 247.736 189.049 244.746C182.801 241.756 179.142 239.536 173.088 239.536Z" fill="#6E7CA0"/>
<path fill-rule="evenodd" clip-rule="evenodd" d="M156 229.524C156 229.524 138.625 233.148 127.868 227.873C117.111 222.598 114 204.523 114 204.523C114 204.523 132.874 202.647 142.754 207.496C152.634 212.345 156 229.524 156 229.524Z" fill="#808CAB"/>
<path fill-rule="evenodd" clip-rule="evenodd" d="M196 229.524C196 229.524 213.375 233.148 224.132 227.873C234.889 222.598 238 204.523 238 204.523C238 204.523 219.126 202.647 209.246 207.496C199.366 212.345 196 229.524 196 229.524Z" fill="#808CAB"/>
<path d="M81.3719 42L95.443 27.5L107.873 42.5L123.098 27.5L135.372 43" stroke="#808CAB" stroke-width="7"/>
<path d="M116 96L130.071 110.5L142.501 95.5L157.726 110.5L170 95" stroke="#808CAB" stroke-width="7"/>
</g>
</svg>
