<?xml version="1.0" encoding="UTF-8"?>
<svg width="1464px" height="1024px" viewBox="0 0 1464 1024" version="1.1" xmlns="http://www.w3.org/2000/svg" xmlns:xlink="http://www.w3.org/1999/xlink">
    <!-- Generator: Sketch 53 (72520) - https://sketchapp.com -->
    <title>background</title>
    <desc>Created with Sketch.</desc>
    <g id="background" stroke="none" stroke-width="1" fill="none" fill-rule="evenodd">
        <g id="Group-24" transform="translate(4.000000, 168.000000)">
            <polygon id="Rectangle-Copy-144" fill="#F0E0CC" points="697 0 948 0 948 855 697 855 697 681.83023 700.861538 681.602684 700.861538 670.362681 697 670.362681 697 481.570303 700.861538 481.502603 700.861538 469.948549 697 469.948549 697 304.318815 704.723077 304.318815 704.723077 292.72903 697 292.72903"></polygon>
            <path d="M852,520.348949 C852,507.782007 856.880441,481 886.5,481 C916.119559,481 921,507.782007 921,520.348949 C921,528.72691 921,569.610594 921,643 L852,643 C852,569.610594 852,528.72691 852,520.348949 Z" id="Rectangle-Copy-145" fill="#FFFAF2"></path>
            <path d="M859,520 C859,508.861911 862.890206,489 886.5,489 C910.109794,489 914,508.861911 914,520 C899.175781,520 870.458333,520 859,520 Z" id="Rectangle-Copy-146" fill="#F0E0CC"></path>
            <rect id="Rectangle-Copy-147" fill="#F0E0CC" x="868" y="532" width="38" height="15"></rect>
            <path d="M846,623 L861.318182,623 C862.422751,623 863.318182,623.895431 863.318182,625 L863.318182,636.389831 C863.318182,637.4944 864.213612,638.389831 865.318182,638.389831 L907.681818,638.389831 C908.786388,638.389831 909.681818,637.4944 909.681818,636.389831 L909.681818,625 C909.681818,623.895431 910.577249,623 911.681818,623 L927,623 C928.104569,623 929,623.895431 929,625 L929,850 L921.273438,850 L844,850 L844,625 C844,623.895431 844.895431,623 846,623 Z" id="Rectangle-Copy-148" fill="#FFFAF2"></path>
            <path d="M950,101 L1193.67188,101 C1194.77645,101 1195.67188,101.895431 1195.67188,103 C1195.67188,103.327346 1195.59153,103.649689 1195.43789,103.938737 L1179.60093,133.732129 C1179.44728,134.021176 1179.36693,134.343519 1179.36693,134.670865 L1179.36693,853 C1179.36693,854.104569 1178.4715,855 1177.36693,855 L950,855 C948.895431,855 948,854.104569 948,853 L948,103 C948,101.895431 948.895431,101 950,101 Z" id="Rectangle-Copy-149" fill="#FFFAF2"></path>
            <polygon id="Rectangle-Copy-150" fill="#F0E0CC" points="945 131 1180 131 1180 278 945 278"></polygon>
            <rect id="Rectangle-Copy-151" fill="#FFFAF2" x="979" y="192" width="38" height="31" rx="2"></rect>
            <rect id="Rectangle-Copy-152" fill="#F0E0CC" x="979" y="316" width="38" height="43" rx="2"></rect>
            <rect id="Rectangle-Copy-153" fill="#F0E0CC" x="979" y="443" width="38" height="43" rx="2"></rect>
            <rect id="Rectangle-Copy-154" fill="#FFFAF2" x="1048" y="192" width="38" height="31" rx="2"></rect>
            <rect id="Rectangle-Copy-155" fill="#F0E0CC" x="1048" y="316" width="38" height="43" rx="2"></rect>
            <rect id="Rectangle-Copy-156" fill="#F0E0CC" x="1048" y="443" width="38" height="43" rx="2"></rect>
            <rect id="Rectangle-Copy-157" fill="#F0E0CC" x="1048" y="570" width="38" height="43" rx="2"></rect>
            <rect id="Rectangle-Copy-158" fill="#F0E0CC" x="1048" y="713" width="38" height="43" rx="2"></rect>
            <rect id="Rectangle-Copy-159" fill="#FFFAF2" x="1117" y="192" width="38" height="31" rx="2"></rect>
            <rect id="Rectangle-Copy-160" fill="#F0E0CC" x="1117" y="316" width="38" height="43" rx="2"></rect>
            <rect id="Rectangle-Copy-161" fill="#F0E0CC" x="1117" y="443" width="38" height="43" rx="2"></rect>
            <rect id="Rectangle-Copy-162" fill="#F0E0CC" x="1117" y="570" width="38" height="43" rx="2"></rect>
            <rect id="Rectangle-Copy-163" fill="#F0E0CC" x="1117" y="713" width="38" height="43" rx="2"></rect>
            <rect id="Rectangle-Copy-164" fill="#FFFAF2" x="979" y="227" width="38" height="31" rx="2"></rect>
            <rect id="Rectangle-Copy-165" fill="#F0E0CC" x="979" y="362" width="38" height="43" rx="2"></rect>
            <rect id="Rectangle-Copy-166" fill="#F0E0CC" x="979" y="489" width="38" height="43" rx="2"></rect>
            <rect id="Rectangle-Copy-167" fill="#FFFAF2" x="1048" y="227" width="38" height="31" rx="2"></rect>
            <rect id="Rectangle-Copy-168" fill="#F0E0CC" x="1048" y="362" width="38" height="43" rx="2"></rect>
            <rect id="Rectangle-Copy-169" fill="#F0E0CC" x="1048" y="489" width="38" height="43" rx="2"></rect>
            <rect id="Rectangle-Copy-170" fill="#F0E0CC" x="1048" y="616" width="38" height="43" rx="2"></rect>
            <rect id="Rectangle-Copy-171" fill="#F0E0CC" x="1048" y="759" width="38" height="43" rx="2"></rect>
            <rect id="Rectangle-Copy-172" fill="#FFFAF2" x="1117" y="227" width="38" height="31" rx="2"></rect>
            <rect id="Rectangle-Copy-173" fill="#F0E0CC" x="1117" y="362" width="38" height="43" rx="2"></rect>
            <rect id="Rectangle-Copy-174" fill="#F0E0CC" x="1117" y="489" width="38" height="43" rx="2"></rect>
            <rect id="Rectangle-Copy-175" fill="#F0E0CC" x="1117" y="616" width="38" height="43" rx="2"></rect>
            <rect id="Rectangle-Copy-176" fill="#F0E0CC" x="1117" y="759" width="38" height="43" rx="2"></rect>
            <rect id="Rectangle-Copy-177" fill="#F0E0CC" x="859" y="654" width="55" height="12" rx="2"></rect>
            <rect id="Rectangle-Copy-178" fill="#F0E0CC" x="859" y="678" width="55" height="12" rx="2"></rect>
            <rect id="Rectangle-Copy-179" fill="#F0E0CC" x="859" y="700" width="55" height="12" rx="2"></rect>
            <rect id="Rectangle-Copy-180" fill="#F0E0CC" x="859" y="724" width="55" height="12" rx="2"></rect>
            <rect id="Rectangle-Copy-181" fill="#F0E0CC" x="859" y="747" width="55" height="12" rx="2"></rect>
            <rect id="Rectangle-Copy-182" fill="#F0E0CC" x="859" y="770" width="55" height="12" rx="2"></rect>
            <rect id="Rectangle-Copy-183" fill="#F0E0CC" x="859" y="794" width="55" height="12" rx="2"></rect>
            <rect id="Rectangle-Copy-184" fill="#F0E0CC" x="859" y="817" width="55" height="12" rx="2"></rect>
            <rect id="Rectangle-Copy-185" fill="#F0E0CC" x="859" y="840" width="55" height="12" rx="2"></rect>
            <path d="M725,230.697945 C727.107422,218.232648 731.440755,212 738,212 C744.559245,212 748.892578,218.232648 751,230.697945 L751,244 C751,245.104569 750.104569,246 749,246 L727,246 C725.895431,246 725,245.104569 725,244 L725,230.697945 Z" id="Rectangle-Copy-186" fill="#FFFAF2"></path>
            <path d="M727,250 L749,250 C750.104569,250 751,250.895431 751,252 L751,274 C751,275.104569 750.104569,276 749,276 L727,276 C725.895431,276 725,275.104569 725,274 L725,252 C725,250.895431 725.895431,250 727,250 Z" id="Rectangle-Copy-187" fill="#FFFAF2"></path>
            <path d="M809,230.697945 C811.107422,218.232648 815.440755,212 822,212 C828.559245,212 832.892578,218.232648 835,230.697945 L835,244 C835,245.104569 834.104569,246 833,246 L811,246 C809.895431,246 809,245.104569 809,244 L809,230.697945 Z" id="Rectangle-Copy-188" fill="#FFFAF2"></path>
            <path d="M811,250 L833,250 C834.104569,250 835,250.895431 835,252 L835,274 C835,275.104569 834.104569,276 833,276 L811,276 C809.895431,276 809,275.104569 809,274 L809,252 C809,250.895431 809.895431,250 811,250 Z" id="Rectangle-Copy-189" fill="#FFFAF2"></path>
            <path d="M897,230.697945 C899.107422,218.232648 903.440755,212 910,212 C916.559245,212 920.892578,218.232648 923,230.697945 L923,244 C923,245.104569 922.104569,246 921,246 L899,246 C897.895431,246 897,245.104569 897,244 L897,230.697945 Z" id="Rectangle-Copy-190" fill="#FFFAF2"></path>
            <g id="Group-21-Copy" transform="translate(720.000000, 327.000000)">
                <path d="M150.428571,35.6362132 C150.428571,18.333993 155.118164,2.3769892e-15 169.714286,0 C184.310407,0 189,25.7557961 189,35.6362132 C189,41.071201 189,46.5061887 189,51.9411765 L189,51.9411765 C189,53.045746 188.104569,53.9411765 187,53.9411765 L152.428571,53.9411765 C151.324002,53.9411765 150.428571,53.045746 150.428571,51.9411765 C150.428571,46.5061887 150.428571,41.071201 150.428571,35.6362132 Z" id="Rectangle-Copy-26" fill="#FFFAF2"></path>
                <rect id="Rectangle" fill="#FFFAF2" x="81" y="7.70588235" width="15.4285714" height="46.2352941" rx="2"></rect>
                <rect id="Rectangle-Copy-29" fill="#FFFAF2" x="0" y="7.70588235" width="15.4285714" height="46.2352941" rx="2"></rect>
                <rect id="Rectangle-Copy-31" fill="#FFFAF2" x="30.8571429" y="7.70588235" width="34.7142857" height="46.2352941" rx="2"></rect>
                <rect id="Rectangle-Copy-28" fill="#FFFAF2" x="81" y="61.6470588" width="15.4285714" height="46.2352941" rx="2"></rect>
                <rect id="Rectangle-Copy-30" fill="#FFFAF2" x="0" y="61.6470588" width="15.4285714" height="46.2352941" rx="2"></rect>
                <rect id="Rectangle-Copy-32" fill="#FFFAF2" x="30.8571429" y="61.6470588" width="34.7142857" height="46.2352941" rx="2"></rect>
                <rect id="Rectangle" fill="#FFFAF2" x="81" y="184.941176" width="15.4285714" height="46.2352941" rx="2"></rect>
                <path d="M34.7142857,427.676471 C34.7142857,417.807071 38.5337612,396.773926 61.7142857,396.773926 C84.8948103,396.773926 88.7142857,417.807071 88.7142857,427.676471 C88.7142857,434.25607 88.7142857,466.363913 88.7142857,524 L34.7142857,524 C34.7142857,466.363913 34.7142857,434.25607 34.7142857,427.676471 Z" id="Rectangle" fill="#FFFAF2"></path>
                <path d="M38.5714286,430.66862 C38.5714286,421.702011 41.8452647,402.592845 61.7142857,402.592845 C81.5833068,402.592845 84.8571429,421.702011 84.8571429,430.66862 C72.3816964,430.66862 48.2142857,430.66862 38.5714286,430.66862 Z" id="Rectangle" fill="#F0E0CC"></path>
                <g id="Group-22" transform="translate(146.571429, 204.126867)"></g>
                <rect id="Rectangle-Copy-29" fill="#FFFAF2" x="0" y="184.941176" width="15.4285714" height="46.2352941" rx="2"></rect>
                <rect id="Rectangle-Copy-31" fill="#FFFAF2" x="30.8571429" y="184.941176" width="34.7142857" height="46.2352941" rx="2"></rect>
                <rect id="Rectangle-Copy-28" fill="#FFFAF2" x="81" y="238.882353" width="15.4285714" height="46.2352941" rx="2"></rect>
                <rect id="Rectangle-Copy-30" fill="#FFFAF2" x="0" y="238.882353" width="15.4285714" height="46.2352941" rx="2"></rect>
                <rect id="Rectangle-Copy-32" fill="#FFFAF2" x="30.8571429" y="238.882353" width="34.7142857" height="46.2352941" rx="2"></rect>
                <path d="M152.428571,61.6470588 L187,61.6470588 C188.104569,61.6470588 189,62.5424893 189,63.6470588 L189,105.882353 C189,106.986922 188.104569,107.882353 187,107.882353 L152.428571,107.882353 C151.324002,107.882353 150.428571,106.986922 150.428571,105.882353 L150.428571,63.6470588 C150.428571,62.5424893 151.324002,61.6470588 152.428571,61.6470588 Z" id="Rectangle-Copy-27" fill="#FFFAF2"></path>
            </g>
            <path d="M899,250 L921,250 C922.104569,250 923,250.895431 923,252 L923,274 C923,275.104569 922.104569,276 921,276 L899,276 C897.895431,276 897,275.104569 897,274 L897,252 C897,250.895431 897.895431,250 899,250 Z" id="Rectangle-Copy-191" fill="#FFFAF2"></path>
            <path d="M822.5,0 L724.025652,141.85105 C723.651911,142.389421 723.038113,142.710519 722.382732,142.710519 L703,142.710519 C701.895431,142.710519 701,143.60595 701,144.710519 L701,165 C701,166.104569 701.895431,167 703,167 L942,167 C943.104569,167 944,166.104569 944,165 L944,144.710519 C944,143.60595 943.104569,142.710519 942,142.710519 L925.046211,142.710519 C924.398926,142.710519 923.791664,142.397259 923.41647,141.869805 L822.5,0 Z" id="Path-69-Copy" fill="#FFFAF2"></path>
            <rect id="Rectangle-Copy-192" fill="#F0E0CC" x="790" y="78" width="23" height="23" rx="2"></rect>
            <path d="M703,288 L846,288 C847.104569,288 848,288.895431 848,290 L848,306 C848,307.104569 847.104569,308 846,308 L703,308 C701.895431,308 701,307.104569 701,306 L701,290 C701,288.895431 701.895431,288 703,288 Z" id="Rectangle-Copy-193" fill="#FFFAF2"></path>
            <path d="M703,466 L846,466 C847.104569,466 848,466.895431 848,468 L848,484 C848,485.104569 847.104569,486 846,486 L703,486 C701.895431,486 701,485.104569 701,484 L701,468 C701,466.895431 701.895431,466 703,466 Z" id="Rectangle-Copy-194" fill="#FFFAF2"></path>
            <path d="M703,666 L846,666 C847.104569,666 848,666.895431 848,668 L848,684 C848,685.104569 847.104569,686 846,686 L703,686 C701.895431,686 701,685.104569 701,684 L701,668 C701,666.895431 701.895431,666 703,666 Z" id="Rectangle-Copy-195" fill="#FFFAF2"></path>
            <rect id="Rectangle-Copy-196" fill="#F0E0CC" x="790" y="104" width="23" height="23" rx="2"></rect>
            <rect id="Rectangle-Copy-197" fill="#F0E0CC" x="828" y="78" width="23" height="23" rx="2"></rect>
            <rect id="Rectangle-Copy-198" fill="#FFFAF2" x="713" y="166" width="8" height="23" rx="2"></rect>
            <rect id="Rectangle-Copy-199" fill="#FFFAF2" x="732" y="166" width="8" height="23" rx="2"></rect>
            <rect id="Rectangle-Copy-200" fill="#FFFAF2" x="751" y="166" width="8" height="23" rx="2"></rect>
            <rect id="Rectangle-Copy-201" fill="#FFFAF2" x="771" y="166" width="8" height="23" rx="2"></rect>
            <rect id="Rectangle-Copy-202" fill="#FFFAF2" x="790" y="166" width="8" height="23" rx="2"></rect>
            <rect id="Rectangle-Copy-203" fill="#FFFAF2" x="808" y="166" width="8" height="23" rx="2"></rect>
            <rect id="Rectangle-Copy-204" fill="#FFFAF2" x="828" y="166" width="8" height="23" rx="2"></rect>
            <path d="M452,0 L699,0 C700.104569,-2.02906125e-16 701,0.8954305 701,2 L701,853 C701,854.104569 700.104569,855 699,855 L452,855 C450.895431,855 450,854.104569 450,853 L450,683.715847 C450,682.656973 450.825312,681.781597 451.882352,681.71931 L451.979187,681.713604 C453.036227,681.651317 453.861538,680.775941 453.861538,679.717067 L453.861538,672.29345 C453.861538,671.227116 452.997104,670.362681 451.930769,670.362681 L451.930769,670.362681 C450.864435,670.362681 450,669.498246 450,668.431912 L450,483.501369 C450,482.429438 450.859004,481.555243 451.930769,481.536453 L451.930769,481.536453 C453.002535,481.517663 453.861538,480.643468 453.861538,479.571537 L453.861538,471.879318 C453.861538,470.812984 452.997104,469.948549 451.930769,469.948549 L451.930769,469.948549 C450.864435,469.948549 450,469.084114 450,468.01778 L450,306.318815 C450,305.214245 450.895431,304.318815 452,304.318815 L455.723077,304.318815 C456.827646,304.318815 457.723077,303.423384 457.723077,302.318815 L457.723077,294.72903 C457.723077,293.624461 456.827646,292.72903 455.723077,292.72903 L452,292.72903 C450.895431,292.72903 450,291.8336 450,290.72903 L450,2 C450,0.8954305 450.895431,-4.33166618e-14 452,-9.74775816e-14 Z" id="Rectangle-Copy-205" fill="#F0E0CC"></path>
            <rect id="Rectangle-Copy-206" fill="#FFFAF2" x="847" y="166" width="8" height="23" rx="2"></rect>
            <rect id="Rectangle-Copy-207" fill="#FFFAF2" x="866" y="166" width="8" height="23" rx="2"></rect>
            <rect id="Rectangle-Copy-208" fill="#FFFAF2" x="886" y="166" width="8" height="23" rx="2"></rect>
            <rect id="Rectangle-Copy-209" fill="#FFFAF2" x="904" y="166" width="8" height="23" rx="2"></rect>
            <rect id="Rectangle-Copy-210" fill="#FFFAF2" x="924" y="166" width="8" height="23" rx="2"></rect>
            <rect id="Rectangle-Copy-211" fill="#F0E0CC" x="828" y="104" width="23" height="23" rx="2"></rect>
            <polygon id="Rectangle-Copy-212" fill="#FFFAF2" points="450 157 701 157 701 855 450 855"></polygon>
            <path d="M480,250 L502,250 C503.104569,250 504,250.895431 504,252 L504,274 C504,275.104569 503.104569,276 502,276 L480,276 C478.895431,276 478,275.104569 478,274 L478,252 C478,250.895431 478.895431,250 480,250 Z" id="Rectangle-Copy-213" fill="#F0E0CC"></path>
            <path d="M564,250 L586,250 C587.104569,250 588,250.895431 588,252 L588,274 C588,275.104569 587.104569,276 586,276 L564,276 C562.895431,276 562,275.104569 562,274 L562,252 C562,250.895431 562.895431,250 564,250 Z" id="Rectangle-Copy-214" fill="#F0E0CC"></path>
            <g id="Group-21-Copy-2" transform="translate(474.000000, 327.000000)">
                <path d="M150.124481,35.6362132 C150.53644,11.8787377 156.952016,2.13126806e-15 169.37121,0 C181.790403,0 188.205979,11.8787377 188.617938,35.6362132 L188.617938,51.9412545 C188.617938,53.045824 187.722508,53.9412545 186.617938,53.9412545 L152.124457,53.9412572 C151.019887,53.9412572 150.124457,53.0458267 150.124457,51.9412572 C150.124457,51.9412563 150.124457,51.9412554 150.124457,51.9412545 Z" id="Rectangle-Copy-26" fill="#F0E0CC"></path>
                <rect id="Rectangle" fill="#F0E0CC" x="80.8362592" y="7.70588235" width="15.3973827" height="46.2352941" rx="2"></rect>
                <rect id="Rectangle-Copy-29" fill="#F0E0CC" x="0" y="7.70588235" width="15.3973827" height="46.2352941" rx="2"></rect>
                <rect id="Rectangle-Copy-31" fill="#F0E0CC" x="30.7947654" y="7.70588235" width="34.6441111" height="46.2352941" rx="2"></rect>
                <rect id="Rectangle-Copy-28" fill="#F0E0CC" x="80.8362592" y="61.6470588" width="15.3973827" height="46.2352941" rx="2"></rect>
                <rect id="Rectangle-Copy-30" fill="#F0E0CC" x="0" y="61.6470588" width="15.3973827" height="46.2352941" rx="2"></rect>
                <rect id="Rectangle-Copy-32" fill="#F0E0CC" x="30.7947654" y="61.6470588" width="34.6441111" height="46.2352941" rx="2"></rect>
                <rect id="Rectangle" fill="#F0E0CC" x="80.8362592" y="184.941176" width="15.3973827" height="46.2352941" rx="2"></rect>
                <path d="M34.6441111,427.676471 C34.6441111,417.807071 38.4558655,396.773926 61.5895308,396.773926 C84.7231961,396.773926 88.5349505,417.807071 88.5349505,427.676471 C88.5349505,434.25607 88.5349505,466.363913 88.5349505,524 L34.6441111,524 C34.6441111,466.363913 34.6441111,434.25607 34.6441111,427.676471 Z" id="Rectangle" fill="#F0E0CC"></path>
                <path d="M40.1862239,423.412388 C42.2784,409.532693 49.4128356,402.592845 61.5895308,402.592845 C73.7636189,402.592845 80.9282699,409.529721 83.0834837,423.403474 L83.0834951,423.403472 C83.2530514,424.494956 82.505681,425.517232 81.4141964,425.686788 C81.3126213,425.702568 81.2099809,425.710492 81.1071875,425.710492 L42.1638773,425.710487 C41.0593106,425.710487 40.1638825,424.815059 40.1638825,423.710492 C40.1638825,423.610706 40.1713505,423.51106 40.1862239,423.412388 Z" id="Rectangle" fill="#FFFAF2"></path>
                <g id="Group-22" transform="translate(130.877753, 154.038632)">
                    <path d="M0,39.3851002 C0,26.831848 4.9008271,0.0790153952 34.6441111,0.0790153952 C64.3873951,0.0790153952 69.2882222,26.831848 69.2882222,39.3851002 C69.2882222,47.7539351 69.2882222,88.5930833 69.2882222,161.902545 L0,161.902545 C2.19413629e-16,88.5930833 2.19413629e-16,47.7539351 0,39.3851002 Z" id="Rectangle" fill="#F0E0CC"></path>
                    <path d="M7.69869135,38.6084272 C7.69869135,27.5337428 11.5104458,7.78489775 34.6441111,7.78489775 C57.7777764,7.78489775 61.5895308,27.5337428 61.5895308,38.6084272 C47.0642655,38.6084272 18.9259496,38.6084272 7.69869135,38.6084272 Z" id="Rectangle" fill="#FFFAF2"></path>
                    <rect id="Rectangle" fill="#FFFAF2" x="15.3973827" y="50.0882353" width="15.3973827" height="19.2647059" rx="2"></rect>
                    <rect id="Rectangle-Copy-33" fill="#FFFAF2" x="38.4934568" y="50.0882353" width="15.3973827" height="19.2647059" rx="2"></rect>
                    <rect id="Rectangle" fill="#FFFAF2" x="15.3973827" y="77.0588235" width="15.3973827" height="19.2647059" rx="2"></rect>
                    <rect id="Rectangle-Copy-33" fill="#FFFAF2" x="38.4934568" y="77.0588235" width="15.3973827" height="19.2647059" rx="2"></rect>
                </g>
                <rect id="Rectangle-Copy-29" fill="#F0E0CC" x="0" y="184.941176" width="15.3973827" height="46.2352941" rx="2"></rect>
                <rect id="Rectangle-Copy-31" fill="#F0E0CC" x="30.7947654" y="184.941176" width="34.6441111" height="46.2352941" rx="2"></rect>
                <rect id="Rectangle-Copy-28" fill="#F0E0CC" x="80.8362592" y="238.882353" width="15.3973827" height="46.2352941" rx="2"></rect>
                <rect id="Rectangle-Copy-30" fill="#F0E0CC" x="0" y="238.882353" width="15.3973827" height="46.2352941" rx="2"></rect>
                <rect id="Rectangle-Copy-32" fill="#F0E0CC" x="30.7947654" y="238.882353" width="34.6441111" height="46.2352941" rx="2"></rect>
                <path d="M152.124481,61.6470588 L186.617938,61.6470588 C187.722508,61.6470588 188.617938,62.5424893 188.617938,63.6470588 L188.617938,105.882353 C188.617938,106.986922 187.722508,107.882353 186.617938,107.882353 L152.124481,107.882353 C151.019912,107.882353 150.124481,106.986922 150.124481,105.882353 L150.124481,63.6470588 C150.124481,62.5424893 151.019912,61.6470588 152.124481,61.6470588 Z" id="Rectangle-Copy-27" fill="#F0E0CC"></path>
            </g>
            <path d="M599,623 L614.318182,623 C615.422751,623 616.318182,623.895431 616.318182,625 L616.318182,636.389831 C616.318182,637.4944 617.213612,638.389831 618.318182,638.389831 L660.681818,638.389831 C661.786388,638.389831 662.681818,637.4944 662.681818,636.389831 L662.681818,625 C662.681818,623.895431 663.577249,623 664.681818,623 L680,623 C681.104569,623 682,623.895431 682,625 L682,848 C682,849.104569 681.104569,850 680,850 L599,850 C597.895431,850 597,849.104569 597,848 L597,625 C597,623.895431 597.895431,623 599,623 Z" id="Rectangle-Copy-215" fill="#F0E0CC"></path>
            <rect id="Rectangle-Copy-216" fill="#FCF6ED" x="611" y="654" width="55" height="12" rx="2"></rect>
            <rect id="Rectangle-Copy-217" fill="#FCF6ED" x="611" y="678" width="55" height="12" rx="2"></rect>
            <rect id="Rectangle-Copy-218" fill="#FCF6ED" x="611" y="700" width="55" height="12" rx="2"></rect>
            <rect id="Rectangle-Copy-219" fill="#FCF6ED" x="611" y="724" width="55" height="12" rx="2"></rect>
            <rect id="Rectangle-Copy-220" fill="#FCF6ED" x="611" y="747" width="55" height="12" rx="2"></rect>
            <rect id="Rectangle-Copy-221" fill="#FCF6ED" x="611" y="770" width="55" height="12" rx="2"></rect>
            <rect id="Rectangle-Copy-222" fill="#FCF6ED" x="611" y="794" width="55" height="12" rx="2"></rect>
            <rect id="Rectangle-Copy-223" fill="#FCF6ED" x="611" y="817" width="55" height="12" rx="2"></rect>
            <rect id="Rectangle-Copy-224" fill="#FCF6ED" x="611" y="840" width="55" height="12" rx="2"></rect>
            <path d="M653,250 L675,250 C676.104569,250 677,250.895431 677,252 L677,274 C677,275.104569 676.104569,276 675,276 L653,276 C651.895431,276 651,275.104569 651,274 L651,252 C651,250.895431 651.895431,250 653,250 Z" id="Rectangle-Copy-225" fill="#F0E0CC"></path>
            <path d="M480,220 L502,220 C503.104569,220 504,220.895431 504,222 L504,244 C504,245.104569 503.104569,246 502,246 L480,246 C478.895431,246 478,245.104569 478,244 L478,222 C478,220.895431 478.895431,220 480,220 Z" id="Rectangle-Copy-226" fill="#F0E0CC"></path>
            <path d="M564,220 L586,220 C587.104569,220 588,220.895431 588,222 L588,244 C588,245.104569 587.104569,246 586,246 L564,246 C562.895431,246 562,245.104569 562,244 L562,222 C562,220.895431 562.895431,220 564,220 Z" id="Rectangle-Copy-227" fill="#F0E0CC"></path>
            <path d="M653,220 L675,220 C676.104569,220 677,220.895431 677,222 L677,244 C677,245.104569 676.104569,246 675,246 L653,246 C651.895431,246 651,245.104569 651,244 L651,222 C651,220.895431 651.895431,220 653,220 Z" id="Rectangle-Copy-228" fill="#F0E0CC"></path>
            <path d="M573.569231,0 L477.26767,141.833978 C476.895408,142.382249 476.275734,142.710519 475.613028,142.710519 L452,142.710519 C450.895431,142.710519 450,143.60595 450,144.710519 L450,165 C450,166.104569 450.895431,167 452,167 L699,167 C700.104569,167 701,166.104569 701,165 L701,144.710519 C701,143.60595 700.104569,142.710519 699,142.710519 L681.673725,142.710519 C681.044438,142.710519 680.451848,142.414344 680.074113,141.911036 L573.569231,0 Z" id="Path-69-Copy-2" fill="#FFFAF2"></path>
            <rect id="Rectangle-Copy-229" fill="#F0E0CC" x="543" y="78" width="23" height="23" rx="2"></rect>
            <path d="M457,288 L600,288 C601.104569,288 602,288.895431 602,290 L602,306 C602,307.104569 601.104569,308 600,308 L457,308 C455.895431,308 455,307.104569 455,306 L455,290 C455,288.895431 455.895431,288 457,288 Z" id="Rectangle-Copy-230" fill="#F0E0CC"></path>
            <path d="M452,466 L595,466 C596.104569,466 597,466.895431 597,468 L597,484 C597,485.104569 596.104569,486 595,486 L452,486 C450.895431,486 450,485.104569 450,484 L450,468 C450,466.895431 450.895431,466 452,466 Z" id="Rectangle-Copy-231" fill="#F0E0CC"></path>
            <path d="M452,666 L595,666 C596.104569,666 597,666.895431 597,668 L597,684 C597,685.104569 596.104569,686 595,686 L452,686 C450.895431,686 450,685.104569 450,684 L450,668 C450,666.895431 450.895431,666 452,666 Z" id="Rectangle-Copy-232" fill="#F0E0CC"></path>
            <rect id="Rectangle-Copy-233" fill="#F0E0CC" x="543" y="104" width="23" height="23" rx="2"></rect>
            <rect id="Rectangle-Copy-234" fill="#F0E0CC" x="582" y="78" width="23" height="23" rx="2"></rect>
            <rect id="Rectangle-Copy-235" fill="#F0E0CC" x="466" y="169" width="8" height="20" rx="2"></rect>
            <rect id="Rectangle-Copy-236" fill="#F0E0CC" x="484" y="169" width="8" height="20" rx="2"></rect>
            <rect id="Rectangle-Copy-237" fill="#F0E0CC" x="505" y="169" width="8" height="20" rx="2"></rect>
            <rect id="Rectangle-Copy-238" fill="#F0E0CC" x="524" y="169" width="8" height="20" rx="2"></rect>
            <rect id="Rectangle-Copy-239" fill="#F0E0CC" x="544" y="169" width="8" height="20" rx="2"></rect>
            <rect id="Rectangle-Copy-240" fill="#F0E0CC" x="562" y="169" width="8" height="20" rx="2"></rect>
            <rect id="Rectangle-Copy-241" fill="#F0E0CC" x="582" y="169" width="8" height="20" rx="2"></rect>
            <rect id="Rectangle-Copy-242" fill="#F0E0CC" x="601" y="169" width="8" height="20" rx="2"></rect>
            <rect id="Rectangle-Copy-243" fill="#F0E0CC" x="620" y="169" width="8" height="20" rx="2"></rect>
            <rect id="Rectangle-Copy-244" fill="#F0E0CC" x="640" y="169" width="8" height="20" rx="2"></rect>
            <rect id="Rectangle-Copy-245" fill="#F0E0CC" x="658" y="169" width="8" height="20" rx="2"></rect>
            <rect id="Rectangle-Copy-246" fill="#F0E0CC" x="677" y="169" width="8" height="20" rx="2"></rect>
            <rect id="Rectangle-Copy-247" fill="#F0E0CC" x="582" y="104" width="23" height="23" rx="2"></rect>
            <path d="M968.75242,673 L968.75242,559.578995 C968.75242,558.474425 967.85699,557.578995 966.75242,557.578995 L963,557.578995 C961.895431,557.578995 961,556.683564 961,555.578995 L961,548 C961,546.895431 961.895431,546 963,546 L1028,546 C1029.10457,546 1030,546.895431 1030,548 L1030,555.578995 C1030,556.683564 1029.10457,557.578995 1028,557.578995 L1024.56284,557.578995 C1023.45827,557.578995 1022.56284,558.474425 1022.56284,559.578995 L1022.56284,673 L968.75242,673 Z" id="Path-70-Copy" fill="#F0E0CC"></path>
            <rect id="Rectangle-Copy-248" fill="#FFFAF2" x="979" y="562" width="15" height="20" rx="2"></rect>
            <rect id="Rectangle-Copy-249" fill="#FFFAF2" x="979" y="589" width="15" height="20" rx="2"></rect>
            <rect id="Rectangle-Copy-250" fill="#FFFAF2" x="998" y="562" width="15" height="20" rx="2"></rect>
            <rect id="Rectangle-Copy-251" fill="#FFFAF2" x="998" y="589" width="15" height="20" rx="2"></rect>
            <path d="M961,663 L974.094866,663 C975.199435,663 976.094866,663.895431 976.094866,665 L976.094866,670.73607 C976.094866,671.840639 976.990296,672.73607 978.094866,672.73607 L1011.97282,672.73607 C1013.07739,672.73607 1013.97282,671.840639 1013.97282,670.73607 L1013.97282,665 C1013.97282,663.895431 1014.86825,663 1015.97282,663 L1029,663 C1030.10457,663 1031,663.895431 1031,665 L1031,853 L959,853 L959,665 C959,663.895431 959.895431,663 961,663 Z" id="Path-71-Copy" fill="#F0E0CC"></path>
            <rect id="Rectangle-Copy-252" fill="#FFFAF2" x="975" y="681" width="43" height="12" rx="2"></rect>
            <rect id="Rectangle-Copy-253" fill="#FFFAF2" x="975" y="728" width="43" height="12" rx="2"></rect>
            <rect id="Rectangle-Copy-254" fill="#FFFAF2" x="975" y="774" width="43" height="12" rx="2"></rect>
            <rect id="Rectangle-Copy-255" fill="#FFFAF2" x="975" y="705" width="43" height="12" rx="2"></rect>
            <rect id="Rectangle-Copy-256" fill="#FFFAF2" x="975" y="751" width="43" height="12" rx="2"></rect>
            <rect id="Rectangle-Copy-257" fill="#FFFAF2" x="975" y="797" width="43" height="12" rx="2"></rect>
            <rect id="Rectangle-Copy-258" fill="#FFFAF2" x="975" y="820" width="43" height="12" rx="2"></rect>
            <rect id="Rectangle-Copy-259" fill="#FFFAF2" x="975" y="843" width="43" height="12" rx="2"></rect>
            <rect id="Rectangle-Copy-260" fill="#F0E0CC" x="1179" y="192" width="281" height="663"></rect>
            <path d="M1209,420 L1290,420 C1291.10457,420 1292,419.104569 1292,418 L1292,409.74894 C1292,408.64437 1291.10457,407.74894 1290,407.74894 L1284.40382,407.74894 C1283.29925,407.74894 1282.40382,406.853509 1282.40382,405.74894 C1282.40382,389.775864 1282.40382,373.802788 1282.40382,357.829712 C1282.40382,344.84085 1277.278,319 1249.31091,319 C1221.34381,319 1216.23497,344.974911 1216.23497,357.829712 C1216.23497,373.802788 1216.23497,389.775864 1216.23497,405.74894 L1216.23497,405.74894 C1216.23497,406.853509 1215.33954,407.74894 1214.23497,407.74894 L1209,407.74894 C1207.89543,407.74894 1207,408.64437 1207,409.74894 L1207,418 C1207,419.104569 1207.89543,420 1209,420 Z" id="Path-75-Copy" fill="#FFFAF2"></path>
            <path d="M1211,767 L1292,767 C1293.10457,767 1294,766.104569 1294,765 L1294,756.74894 C1294,755.64437 1293.10457,754.74894 1292,754.74894 L1286.40382,754.74894 C1285.29925,754.74894 1284.40382,753.853509 1284.40382,752.74894 C1284.40382,736.775864 1284.40382,720.802788 1284.40382,704.829712 C1284.40382,691.84085 1279.278,666 1251.31091,666 C1223.34381,666 1218.23497,691.974911 1218.23497,704.829712 C1218.23497,720.802788 1218.23497,736.775864 1218.23497,752.74894 L1218.23497,752.74894 C1218.23497,753.853509 1217.33954,754.74894 1216.23497,754.74894 L1211,754.74894 C1209.89543,754.74894 1209,755.64437 1209,756.74894 L1209,765 C1209,766.104569 1209.89543,767 1211,767 Z" id="Path-75-Copy-2" fill="#FFFAF2"></path>
            <path d="M1329,420 L1410,420 C1411.10457,420 1412,419.104569 1412,418 L1412,409.74894 C1412,408.64437 1411.10457,407.74894 1410,407.74894 L1404.40382,407.74894 C1403.29925,407.74894 1402.40382,406.853509 1402.40382,405.74894 C1402.40382,389.775864 1402.40382,373.802788 1402.40382,357.829712 C1402.40382,344.84085 1397.278,319 1369.31091,319 C1341.34381,319 1336.23497,344.974911 1336.23497,357.829712 C1336.23497,373.802788 1336.23497,389.775864 1336.23497,405.74894 L1336.23497,405.74894 C1336.23497,406.853509 1335.33954,407.74894 1334.23497,407.74894 L1329,407.74894 C1327.89543,407.74894 1327,408.64437 1327,409.74894 L1327,418 C1327,419.104569 1327.89543,420 1329,420 Z" id="Path-75-Copy-3" fill="#FFFAF2"></path>
            <path d="M1329,606 L1410,606 C1411.10457,606 1412,605.104569 1412,604 L1412,595.654088 C1412,594.549518 1411.10457,593.654088 1410,593.654088 L1404.40382,593.654088 C1403.29925,593.654088 1402.40382,592.758657 1402.40382,591.654088 C1402.40382,571.682511 1402.40382,551.710934 1402.40382,531.739357 C1402.40382,518.649931 1399.47357,481 1369.31091,481 C1339.14825,481 1336.23497,518.785029 1336.23497,531.739357 C1336.23497,551.710934 1336.23497,571.682511 1336.23497,591.654088 L1336.23497,591.654088 C1336.23497,592.758657 1335.33954,593.654088 1334.23497,593.654088 L1329,593.654088 C1327.89543,593.654088 1327,594.549518 1327,595.654088 L1327,604 C1327,605.104569 1327.89543,606 1329,606 Z" id="Path-75-Copy-4" fill="#FFFAF2"></path>
            <path d="M1209,606 L1290,606 C1291.10457,606 1292,605.104569 1292,604 L1292,595.654088 C1292,594.549518 1291.10457,593.654088 1290,593.654088 L1284.40382,593.654088 C1283.29925,593.654088 1282.40382,592.758657 1282.40382,591.654088 C1282.40382,571.682511 1282.40382,551.710934 1282.40382,531.739357 C1282.40382,518.649931 1279.47357,481 1249.31091,481 C1219.14825,481 1216.23497,518.785029 1216.23497,531.739357 C1216.23497,551.710934 1216.23497,571.682511 1216.23497,591.654088 L1216.23497,591.654088 C1216.23497,592.758657 1215.33954,593.654088 1214.23497,593.654088 L1209,593.654088 C1207.89543,593.654088 1207,594.549518 1207,595.654088 L1207,604 C1207,605.104569 1207.89543,606 1209,606 Z" id="Path-75-Copy-5" fill="#FFFAF2"></path>
            <rect id="Rectangle-Copy-261" fill="#FFFAF2" x="1179" y="192" width="281" height="43"></rect>
            <rect id="Rectangle-Copy-262" fill="#F0E0CC" x="1225" y="382" width="50" height="26" rx="2"></rect>
            <path d="M1225,357.69955 C1225,342.3991 1231.84533,329 1249.79342,329 C1267.74151,329 1275,346.224213 1275,357.69955 C1275,362.133033 1275,366.566517 1275,371 L1275,371 C1275,372.104569 1274.10457,373 1273,373 L1227,373 C1225.89543,373 1225,372.104569 1225,371 C1225,366.566517 1225,362.133033 1225,357.69955 Z" id="Rectangle-Copy-263" fill="#F0E0CC"></path>
            <path d="M1334.47359,771 L1334.47359,662.695233 C1334.47359,661.590663 1333.57816,660.695233 1332.47359,660.695233 L1329,660.695233 C1327.89543,660.695233 1327,659.799802 1327,658.695233 L1327,647 C1327,645.895431 1327.89543,645 1329,645 L1414,645 C1415.10457,645 1416,645.895431 1416,647 L1416,658.695233 C1416,659.799802 1415.10457,660.695233 1414,660.695233 L1410.35302,660.695233 C1409.24845,660.695233 1408.35302,661.590663 1408.35302,662.695233 L1408.35302,771 L1334.47359,771 Z" id="Path-73-Copy" fill="#FFFAF2"></path>
            <polygon id="Path-74-Copy" fill="#FFFAF2" points="1336 853 1336 746 1350.86047 746 1350.86047 759.373124 1392.92837 759.373124 1392.92837 746 1408 746 1408 853"></polygon>
            <polygon id="Path-72-Copy" fill="#F0E0CC" points="1347 761 1347 668 1397 668 1397 761"></polygon>
            <path d="M1357,678 L1365,678 C1366.10457,678 1367,678.895431 1367,680 L1367,692 C1367,693.104569 1366.10457,694 1365,694 L1357,694 C1355.89543,694 1355,693.104569 1355,692 L1355,680 C1355,678.895431 1355.89543,678 1357,678 Z" id="Rectangle-Copy-264" fill="#FFFAF2"></path>
            <path d="M1377,678 L1385,678 C1386.10457,678 1387,678.895431 1387,680 L1387,692 C1387,693.104569 1386.10457,694 1385,694 L1377,694 C1375.89543,694 1375,693.104569 1375,692 L1375,680 C1375,678.895431 1375.89543,678 1377,678 Z" id="Rectangle-Copy-265" fill="#FFFAF2"></path>
            <path d="M1357,704 L1365,704 C1366.10457,704 1367,704.895431 1367,706 L1367,718 C1367,719.104569 1366.10457,720 1365,720 L1357,720 C1355.89543,720 1355,719.104569 1355,718 L1355,706 C1355,704.895431 1355.89543,704 1357,704 Z" id="Rectangle-Copy-266" fill="#FFFAF2"></path>
            <path d="M1377,704 L1385,704 C1386.10457,704 1387,704.895431 1387,706 L1387,718 C1387,719.104569 1386.10457,720 1385,720 L1377,720 C1375.89543,720 1375,719.104569 1375,718 L1375,706 C1375,704.895431 1375.89543,704 1377,704 Z" id="Rectangle-Copy-267" fill="#FFFAF2"></path>
            <rect id="Rectangle-Copy-268" fill="#F0E0CC" x="1348" y="774" width="46" height="12" rx="2"></rect>
            <rect id="Rectangle-Copy-269" fill="#F0E0CC" x="1348" y="797" width="46" height="12" rx="2"></rect>
            <rect id="Rectangle-Copy-270" fill="#F0E0CC" x="1348" y="820" width="46" height="12" rx="2"></rect>
            <rect id="Rectangle-Copy-271" fill="#F0E0CC" x="1348" y="843" width="46" height="12"></rect>
            <rect id="Rectangle-Copy-272" fill="#FFFAF2" x="1190" y="432" width="23" height="8" rx="2"></rect>
            <rect id="Rectangle-Copy-273" fill="#FFFAF2" x="1344" y="432" width="23" height="8" rx="2"></rect>
            <rect id="Rectangle-Copy-274" fill="#FFFAF2" x="1233" y="778" width="23" height="8" rx="2"></rect>
            <rect id="Rectangle-Copy-275" fill="#F0E0CC" x="251" y="177" width="200" height="678"></rect>
            <rect id="Rectangle-Copy-276" fill="#FFFAF2" x="1221" y="432" width="23" height="8" rx="2"></rect>
            <rect id="Rectangle-Copy-277" fill="#FFFAF2" x="1375" y="432" width="23" height="8" rx="2"></rect>
            <rect id="Rectangle-Copy-278" fill="#FFFAF2" x="1263" y="778" width="23" height="8" rx="2"></rect>
            <rect id="Rectangle-Copy-279" fill="#FFFAF2" x="1205" y="443" width="23" height="8" rx="2"></rect>
            <rect id="Rectangle-Copy-280" fill="#FFFAF2" x="1359" y="443" width="23" height="8" rx="2"></rect>
            <rect id="Rectangle-Copy-281" fill="#FFFAF2" x="16" y="270" width="238" height="585"></rect>
            <rect id="Rectangle-Copy-282" fill="#FFFAF2" x="1248" y="789" width="23" height="8" rx="2"></rect>
            <rect id="Rectangle-Copy-283" fill="#FFFAF2" x="1251" y="432" width="23" height="8" rx="2"></rect>
            <rect id="Rectangle-Copy-284" fill="#FFFAF2" x="1407" y="432" width="23" height="8" rx="2"></rect>
            <rect id="Rectangle-Copy-285" fill="#FFFAF2" x="1294" y="778" width="23" height="8" rx="2"></rect>
            <rect id="Rectangle-Copy-286" fill="#FFFAF2" x="1236" y="443" width="23" height="8" rx="2"></rect>
            <rect id="Rectangle-Copy-287" fill="#FFFAF2" x="1390" y="443" width="23" height="8" rx="2"></rect>
            <rect id="Rectangle-Copy-288" fill="#FFFAF2" x="1279" y="789" width="23" height="8" rx="2"></rect>
            <rect id="Rectangle-Copy-289" fill="#F0E0CC" x="1226" y="728" width="50" height="26" rx="2"></rect>
            <path d="M1226,705.69955 C1226,690.3991 1232.84533,677 1250.79342,677 C1268.74151,677 1276,694.224213 1276,705.69955 C1276,710.133033 1276,714.566517 1276,719 L1276,719 C1276,720.104569 1275.10457,721 1274,721 L1228,721 C1226.89543,721 1226,720.104569 1226,719 C1226,714.566517 1226,710.133033 1226,705.69955 Z" id="Rectangle-Copy-290" fill="#F0E0CC"></path>
            <rect id="Rectangle-Copy-291" fill="#F0E0CC" x="1345" y="382" width="50" height="26" rx="2"></rect>
            <path d="M1345,357.69955 C1345,342.3991 1351.84533,329 1369.79342,329 C1387.74151,329 1395,346.224213 1395,357.69955 C1395,362.133033 1395,366.566517 1395,371 L1395,371 C1395,372.104569 1394.10457,373 1393,373 L1347,373 C1345.89543,373 1345,372.104569 1345,371 C1345,366.566517 1345,362.133033 1345,357.69955 Z" id="Rectangle-Copy-292" fill="#F0E0CC"></path>
            <rect id="Rectangle-Copy-293" fill="#F0E0CC" x="1345" y="554" width="50" height="38" rx="2"></rect>
            <path d="M1345,527.693556 C1345,512.248401 1349.55604,491 1369.79342,491 C1390.0308,491 1395,516.10969 1395,527.693556 C1395,533.462371 1395,539.231185 1395,545 L1395,545 C1395,546.104569 1394.10457,547 1393,547 L1347,547 C1345.89543,547 1345,546.104569 1345,545 C1345,539.231185 1345,533.462371 1345,527.693556 Z" id="Rectangle-Copy-294" fill="#F0E0CC"></path>
            <rect id="Rectangle-Copy-295" fill="#F0E0CC" x="1225" y="554" width="50" height="38" rx="2"></rect>
            <path d="M1225,527.693556 C1225,512.248401 1229.55604,491 1249.79342,491 C1270.0308,491 1275,516.10969 1275,527.693556 C1275,533.462371 1275,539.231185 1275,545 L1275,545 C1275,546.104569 1274.10457,547 1273,547 L1227,547 C1225.89543,547 1225,546.104569 1225,545 C1225,539.231185 1225,533.462371 1225,527.693556 Z" id="Rectangle-Copy-296" fill="#F0E0CC"></path>
            <polygon id="Path-76-Copy" fill="#FFFAF2" points="264 854 264 689 275.543976 689 275.543976 698.579208 321.461658 698.579208 321.461658 689 333 689 333 854"></polygon>
            <rect id="Rectangle-Copy-297" fill="#F0E0CC" x="274" y="705" width="50" height="12" rx="2"></rect>
            <rect id="Rectangle-Copy-298" fill="#F0E0CC" x="274" y="742" width="50" height="12" rx="2"></rect>
            <rect id="Rectangle-Copy-299" fill="#F0E0CC" x="274" y="781" width="50" height="12" rx="2"></rect>
            <rect id="Rectangle-Copy-300" fill="#F0E0CC" x="274" y="820" width="50" height="12" rx="2"></rect>
            <path d="M267.846114,687 L267.846114,607.425428 C267.846114,606.363353 266.985132,605.502371 265.923057,605.502371 L265.923057,605.502371 C264.860982,605.502371 264,604.641389 264,603.579314 L264,590 C264,588.895431 264.895431,588 266,588 L331,588 C332.104569,588 333,588.895431 333,590 L333,603.637532 C333,604.667454 332.165083,605.502371 331.135161,605.502371 L331.135161,605.502371 C330.105238,605.502371 329.270321,606.337288 329.270321,607.367211 L329.270321,687 C329.270321,688.104569 328.374891,689 327.270321,689 L269.846114,689 C268.741545,689 267.846114,688.104569 267.846114,687 Z" id="Path-77-Copy" fill="#FFFAF2"></path>
            <path d="M276,605 L322,605 C323.104569,605 324,605.895431 324,607 L324,696 C324,697.104569 323.104569,698 322,698 L276,698 C274.895431,698 274,697.104569 274,696 L274,607 C274,605.895431 274.895431,605 276,605 Z" id="Rectangle-Copy-301" fill="#F0E0CC"></path>
            <rect id="Rectangle-Copy-302" fill="#F0E0CC" x="274" y="724" width="50" height="12" rx="2"></rect>
            <rect id="Rectangle-Copy-303" fill="#F0E0CC" x="274" y="762" width="50" height="12" rx="2"></rect>
            <rect id="Rectangle-Copy-304" fill="#F0E0CC" x="274" y="800" width="50" height="12" rx="2"></rect>
            <rect id="Rectangle-Copy-305" fill="#F0E0CC" x="274" y="840" width="50" height="12" rx="2"></rect>
            <polygon id="Path-76-Copy-2" fill="#F0E0CC" points="168 853 168 668 179.543976 668 179.543976 677.618173 225.461658 677.618173 225.461658 668 237 668 237 853"></polygon>
            <rect id="Rectangle-Copy-306" fill="#FFFAF2" x="177" y="690" width="50" height="12" rx="3"></rect>
            <path d="M171.846114,678 L171.846114,568.274344 C171.846114,567.212269 170.985132,566.351287 169.923057,566.351287 L169.923057,566.351287 C168.860982,566.351287 168,565.490305 168,564.42823 L168,551 C168,549.895431 168.895431,549 170,549 L235,549 C236.104569,549 237,549.895431 237,551 L237,564.486447 C237,565.51637 236.165083,566.351287 235.135161,566.351287 L235.135161,566.351287 C234.105238,566.351287 233.270321,567.186204 233.270321,568.216126 L233.270321,678 C233.270321,679.104569 232.374891,680 231.270321,680 L173.846114,680 C172.741545,680 171.846114,679.104569 171.846114,678 Z" id="Path-77-Copy-2" fill="#F0E0CC"></path>
            <rect id="Rectangle-Copy-307" fill="#FFFAF2" x="177" y="558" width="50" height="124" rx="2"></rect>
            <rect id="Rectangle-Copy-308" fill="#F0E0CC" x="188" y="579" width="12" height="15" rx="2"></rect>
            <rect id="Rectangle-Copy-309" fill="#F0E0CC" x="188" y="605" width="12" height="15" rx="2"></rect>
            <rect id="Rectangle-Copy-310" fill="#F0E0CC" x="203" y="579" width="12" height="15" rx="2"></rect>
            <rect id="Rectangle-Copy-311" fill="#F0E0CC" x="203" y="605" width="12" height="15" rx="2"></rect>
            <rect id="Rectangle-Copy-312" fill="#FFFAF2" x="177" y="710" width="50" height="12" rx="3"></rect>
            <rect id="Rectangle-Copy-313" fill="#FFFAF2" x="177" y="729" width="50" height="12" rx="3"></rect>
            <rect id="Rectangle-Copy-314" fill="#FFFAF2" x="177" y="748" width="50" height="12" rx="3"></rect>
            <rect id="Rectangle-Copy-315" fill="#FFFAF2" x="177" y="767" width="50" height="12" rx="3"></rect>
            <rect id="Rectangle-Copy-316" fill="#FFFAF2" x="177" y="787" width="50" height="12" rx="3"></rect>
            <rect id="Rectangle-Copy-317" fill="#FFFAF2" x="177" y="806" width="50" height="12" rx="3"></rect>
            <rect id="Rectangle-Copy-318" fill="#FFFAF2" x="177" y="824" width="50" height="12" rx="3"></rect>
            <rect id="Rectangle-Copy-319" fill="#FFFAF2" x="177" y="844" width="50" height="12" rx="3"></rect>
            <path d="M255,246.975337 L262.567628,246.975337 C263.672197,246.975337 264.567628,246.079907 264.567628,244.975337 L264.567628,228 C264.567628,226.895431 265.463058,226 266.567628,226 L277.86451,226 C278.969079,226 279.86451,226.895431 279.86451,228 L279.86451,244.975337 C279.86451,246.079907 280.75994,246.975337 281.86451,246.975337 L289.531559,246.975337 C290.636129,246.975337 291.531559,246.079907 291.531559,244.975337 L291.531559,228 C291.531559,226.895431 292.42699,226 293.531559,226 L304.884718,226 C305.989287,226 306.884718,226.895431 306.884718,228 L306.884718,244.975337 C306.884718,246.079907 307.780148,246.975337 308.884718,246.975337 L316.50956,246.975337 C317.614129,246.975337 318.50956,246.079907 318.50956,244.975337 L318.50956,228 C318.50956,226.895431 319.40499,226 320.50956,226 L331.96214,226 C333.06671,226 333.96214,226.895431 333.96214,228 L333.96214,244.975337 C333.96214,246.079907 334.857571,246.975337 335.96214,246.975337 L343.431284,246.975337 C344.535854,246.975337 345.431284,246.079907 345.431284,244.975337 L345.431284,228 C345.431284,226.895431 346.326715,226 347.431284,226 L358.798511,226 C359.903081,226 360.798511,226.895431 360.798511,228 L360.798511,244.975337 C360.798511,246.079907 361.693942,246.975337 362.798511,246.975337 L370.153227,246.975337 C371.257796,246.975337 372.153227,246.079907 372.153227,244.975337 L372.153227,228 C372.153227,226.895431 373.048657,226 374.153227,226 L385.691159,226 C386.795729,226 387.691159,226.895431 387.691159,228 L387.691159,244.975337 C387.691159,246.079907 388.58659,246.975337 389.691159,246.975337 L397.290677,246.975337 C398.395247,246.975337 399.290677,246.079907 399.290677,244.975337 L399.290677,228 C399.290677,226.895431 400.186108,226 401.290677,226 L412.572552,226 C413.677122,226 414.572552,226.895431 414.572552,228 L414.572552,244.975337 C414.572552,246.079907 415.467983,246.975337 416.572552,246.975337 L424.111104,246.975337 C425.215673,246.975337 426.111104,246.079907 426.111104,244.975337 L426.111104,228 C426.111104,226.895431 427.006534,226 428.111104,226 L439.478331,226 C440.582901,226 441.478331,226.895431 441.478331,228 L441.478331,244.879918 C441.478331,245.984488 442.373762,246.879918 443.478331,246.879918 L451,246.879918 C452.104569,246.879918 453,247.775349 453,248.879918 L453,356 C453,357.104569 452.104569,358 451,358 L255,358 C253.895431,358 253,357.104569 253,356 L253,248.975337 C253,247.870768 253.895431,246.975337 255,246.975337 Z" id="Path-78-Copy" fill="#FFFAF2"></path>
            <rect id="Rectangle-Copy-320" fill="#F0E0CC" x="281" y="284" width="35" height="23" rx="2"></rect>
            <rect id="Rectangle-Copy-321" fill="#F0E0CC" x="339" y="284" width="35" height="23" rx="2"></rect>
            <rect id="Rectangle-Copy-322" fill="#F0E0CC" x="396" y="284" width="35" height="23" rx="2"></rect>
            <rect id="Rectangle-Copy-323" fill="#F0E0CC" x="281" y="312" width="35" height="23" rx="2"></rect>
            <rect id="Rectangle-Copy-324" fill="#F0E0CC" x="339" y="312" width="35" height="23" rx="2"></rect>
            <rect id="Rectangle-Copy-325" fill="#F0E0CC" x="396" y="312" width="35" height="23" rx="2"></rect>
            <rect id="Rectangle-Copy-326" fill="#FFFAF2" x="281" y="392" width="35" height="35" rx="2"></rect>
            <rect id="Rectangle-Copy-327" fill="#FFFAF2" x="281" y="500" width="35" height="35" rx="2"></rect>
            <rect id="Rectangle-Copy-328" fill="#FFFAF2" x="339" y="392" width="35" height="35" rx="2"></rect>
            <rect id="Rectangle-Copy-329" fill="#FFFAF2" x="339" y="500" width="35" height="35" rx="2"></rect>
            <rect id="Rectangle-Copy-330" fill="#FFFAF2" x="339" y="612" width="35" height="35" rx="2"></rect>
            <rect id="Rectangle-Copy-331" fill="#FFFAF2" x="339" y="719" width="35" height="35" rx="2"></rect>
            <rect id="Rectangle-Copy-332" fill="#FFFAF2" x="396" y="392" width="35" height="35" rx="2"></rect>
            <rect id="Rectangle-Copy-333" fill="#FFFAF2" x="396" y="500" width="35" height="35" rx="2"></rect>
            <rect id="Rectangle-Copy-334" fill="#FFFAF2" x="396" y="612" width="35" height="35" rx="2"></rect>
            <rect id="Rectangle-Copy-335" fill="#FFFAF2" x="396" y="719" width="35" height="35" rx="2"></rect>
            <rect id="Rectangle-Copy-336" fill="#FFFAF2" x="281" y="431" width="35" height="35" rx="2"></rect>
            <rect id="Rectangle-Copy-337" fill="#FFFAF2" x="281" y="539" width="35" height="35" rx="2"></rect>
            <rect id="Rectangle-Copy-338" fill="#FFFAF2" x="339" y="431" width="35" height="35" rx="2"></rect>
            <rect id="Rectangle-Copy-339" fill="#FFFAF2" x="339" y="539" width="35" height="35" rx="2"></rect>
            <rect id="Rectangle-Copy-340" fill="#FFFAF2" x="339" y="651" width="35" height="35" rx="2"></rect>
            <rect id="Rectangle-Copy-341" fill="#FFFAF2" x="339" y="758" width="35" height="35" rx="2"></rect>
            <rect id="Rectangle-Copy-342" fill="#FFFAF2" x="396" y="431" width="35" height="35" rx="2"></rect>
            <rect id="Rectangle-Copy-343" fill="#FFFAF2" x="396" y="539" width="35" height="35" rx="2"></rect>
            <rect id="Rectangle-Copy-344" fill="#FFFAF2" x="396" y="651" width="35" height="35" rx="2"></rect>
            <rect id="Rectangle-Copy-345" fill="#FFFAF2" x="396" y="758" width="35" height="35" rx="2"></rect>
            <polygon id="Path-79-Copy" fill="#F0E0CC" points="268 91 268 115.766775 260.053341 115.766775 260.053341 137.973929 252.996874 137.973929 252.996874 272 15.4410978 272 15.4410978 137.973929 8.65149979 137.973929 8.65149979 115.766775 1 115.766775 1 91"></polygon>
            <rect id="Rectangle-Copy-346" fill="#FFFAF2" x="42" y="185" width="43" height="31" rx="2"></rect>
            <rect id="Rectangle-Copy-347" fill="#F0E0CC" x="42" y="308" width="43" height="43" rx="2"></rect>
            <rect id="Rectangle-Copy-348" fill="#F0E0CC" x="42" y="439" width="43" height="43" rx="2"></rect>
            <rect id="Rectangle-Copy-349" fill="#F0E0CC" x="42" y="566" width="43" height="43" rx="2"></rect>
            <rect id="Rectangle-Copy-350" fill="#F0E0CC" x="42" y="712" width="43" height="43" rx="2"></rect>
            <rect id="Rectangle-Copy-351" fill="#FFFAF2" x="111" y="185" width="43" height="31" rx="2"></rect>
            <rect id="Rectangle-Copy-352" fill="#F0E0CC" x="111" y="308" width="43" height="43" rx="2"></rect>
            <rect id="Rectangle-Copy-353" fill="#F0E0CC" x="111" y="439" width="43" height="43" rx="2"></rect>
            <rect id="Rectangle-Copy-354" fill="#F0E0CC" x="111" y="566" width="43" height="43" rx="2"></rect>
            <rect id="Rectangle-Copy-355" fill="#F0E0CC" x="111" y="712" width="43" height="43" rx="2"></rect>
            <rect id="Rectangle-Copy-356" fill="#FFFAF2" x="180" y="185" width="43" height="31" rx="2"></rect>
            <rect id="Rectangle-Copy-357" fill="#F0E0CC" x="180" y="308" width="43" height="43" rx="2"></rect>
            <rect id="Rectangle-Copy-358" fill="#F0E0CC" x="180" y="439" width="43" height="43" rx="2"></rect>
            <rect id="Rectangle-Copy-359" fill="#FFFAF2" x="42" y="220" width="43" height="31" rx="2"></rect>
            <rect id="Rectangle-Copy-360" fill="#F0E0CC" x="42" y="354" width="43" height="43" rx="2"></rect>
            <rect id="Rectangle-Copy-361" fill="#F0E0CC" x="42" y="485" width="43" height="43" rx="2"></rect>
            <rect id="Rectangle-Copy-362" fill="#F0E0CC" x="42" y="612" width="43" height="43" rx="2"></rect>
            <rect id="Rectangle-Copy-363" fill="#F0E0CC" x="42" y="759" width="43" height="43" rx="2"></rect>
            <rect id="Rectangle-Copy-364" fill="#FFFAF2" x="111" y="220" width="43" height="31" rx="2"></rect>
            <rect id="Rectangle-Copy-365" fill="#F0E0CC" x="111" y="354" width="43" height="43" rx="2"></rect>
            <rect id="Rectangle-Copy-366" fill="#F0E0CC" x="111" y="485" width="43" height="43" rx="2"></rect>
            <rect id="Rectangle-Copy-367" fill="#F0E0CC" x="111" y="612" width="43" height="43" rx="2"></rect>
            <rect id="Rectangle-Copy-368" fill="#F0E0CC" x="111" y="759" width="43" height="43" rx="2"></rect>
            <rect id="Rectangle-Copy-369" fill="#FFFAF2" x="180" y="220" width="43" height="31" rx="2"></rect>
            <rect id="Rectangle-Copy-370" fill="#F0E0CC" x="180" y="354" width="43" height="43" rx="2"></rect>
            <rect id="Rectangle-Copy-371" fill="#F0E0CC" x="180" y="485" width="43" height="43" rx="2"></rect>
            <path d="M269,91 L269,115.712925 C269,116.817494 268.104569,117.712925 267,117.712925 L263.04268,117.712925 C261.93811,117.712925 261.04268,118.608355 261.04268,119.712925 L261.04268,138 C261.04268,139.104569 260.147249,140 259.04268,140 L251.945035,140 C250.840466,140 249.945035,139.104569 249.945035,138 L249.945035,119.712925 C249.945035,118.608355 249.049605,117.712925 247.945035,117.712925 L239.90849,117.712925 C238.803921,117.712925 237.90849,118.608355 237.90849,119.712925 L237.90849,138 C237.90849,139.104569 237.01306,140 235.90849,140 L228.09007,140 C226.985501,140 226.09007,139.104569 226.09007,138 L226.09007,119.712925 C226.09007,118.608355 225.19464,117.712925 224.09007,117.712925 L213.034711,117.712925 C211.930141,117.712925 211.034711,118.608355 211.034711,119.712925 L211.034711,138 C211.034711,139.104569 210.13928,140 209.034711,140 L201.027438,140 C199.922868,140 199.027438,139.104569 199.027438,138 L199.027438,119.712925 C199.027438,118.608355 198.132007,117.712925 197.027438,117.712925 L185.856878,117.712925 C184.752308,117.712925 183.856878,118.608355 183.856878,119.712925 L183.856878,138 C183.856878,139.104569 182.961447,140 181.856878,140 L174.546473,140 C173.441903,140 172.546473,139.104569 172.546473,138 L172.546473,119.712925 C172.546473,118.608355 171.651042,117.712925 170.546473,117.712925 L158.946272,117.712925 C157.841702,117.712925 156.946272,118.608355 156.946272,119.712925 L156.946272,138 C156.946272,139.104569 156.050841,140 154.946272,140 L147.416797,140 C146.312228,140 145.416797,139.104569 145.416797,138 L145.416797,119.712925 C145.416797,118.608355 144.521367,117.712925 143.416797,117.712925 L131.64474,117.712925 C130.540171,117.712925 129.64474,118.608355 129.64474,119.712925 L129.64474,138 C129.64474,139.104569 128.74931,140 127.64474,140 L119.875422,140 C118.770853,140 117.875422,139.104569 117.875422,138 L117.875422,119.712925 C117.875422,118.608355 116.979992,117.712925 115.875422,117.712925 L104.750187,117.712925 C103.645617,117.712925 102.750187,118.608355 102.750187,119.712925 L102.750187,138 C102.750187,139.104569 101.854756,140 100.750187,140 L92.9515968,140 C91.8470273,140 90.9515968,139.104569 90.9515968,138 L90.9515968,119.712925 C90.9515968,118.608355 90.0561663,117.712925 88.9515968,117.712925 L77.6809446,117.712925 C76.5763751,117.712925 75.6809446,118.608355 75.6809446,119.712925 L75.6809446,138 C75.6809446,139.104569 74.7855141,140 73.6809446,140 L65.6122947,140 C64.5077252,140 63.6122947,139.104569 63.6122947,138 L63.6122947,119.712925 C63.6122947,118.608355 62.7168642,117.712925 61.6122947,117.712925 L50.614535,117.712925 C49.5099655,117.712925 48.614535,118.608355 48.614535,119.712925 L48.614535,138 C48.614535,139.104569 47.7191045,140 46.614535,140 L38.9113156,140 C37.8067461,140 36.9113156,139.104569 36.9113156,138 L36.9113156,119.712925 C36.9113156,118.608355 36.0158851,117.712925 34.9113156,117.712925 L23.6406634,117.712925 C22.5360939,117.712925 21.6406634,118.608355 21.6406634,119.712925 L21.6406634,138 C21.6406634,139.104569 20.7452329,140 19.6406634,140 L9.66176554,140 C8.55719604,140 7.66176554,139.104569 7.66176554,138 L7.66176554,119.712925 C7.66176554,118.608355 6.76633504,117.712925 5.66176554,117.712925 L2,117.712925 C0.8954305,117.712925 2.09738034e-15,116.817494 0,115.712925 L0,91 C-1.3527075e-16,89.8954305 0.8954305,89 2,89 L267,89 C268.104569,89 269,89.8954305 269,91 Z" id="Path-79-Copy-2" fill="#FFFAF2"></path>
        </g>
    </g>
</svg>