<svg width="1440" height="1024" viewBox="0 0 1440 1024" fill="none" xmlns="http://www.w3.org/2000/svg">
<g clip-path="url(#clip0)">
<path fill-rule="evenodd" clip-rule="evenodd" d="M1409 696.141L1440 1024.54H0L0 706.74H246V121H0L0 0H1120.16L1041.64 120.74L1409 696.141ZM1346 706.74L972.405 120.74H382.336V706.74H1346Z" fill="#F0E0CC"/>
<path fill-rule="evenodd" clip-rule="evenodd" d="M293.028 550.167L296.462 549.503C333.055 542.391 368.486 566.289 375.6 602.882L471.329 1095.26C478.443 1131.85 454.545 1167.28 417.951 1174.4C417.95 1174.4 417.949 1174.4 417.947 1174.4L414.512 1175.06C377.919 1182.17 342.489 1158.27 335.375 1121.68L239.645 629.305C232.531 592.711 256.429 557.278 293.023 550.164C293.025 550.164 293.026 550.163 293.027 550.163L293.028 550.167Z" fill="#616A7F"/>
<path fill-rule="evenodd" clip-rule="evenodd" d="M297.69 283.915L301.188 283.915C338.415 283.916 368.613 314.056 368.686 351.282L368.953 486.794C369.026 524.073 338.865 554.353 301.586 554.426C301.541 554.426 301.496 554.426 301.451 554.426L297.953 554.426C260.727 554.425 230.529 524.286 230.455 487.059L230.188 351.548C230.115 314.269 260.276 283.989 297.555 283.915C297.6 283.915 297.645 283.915 297.69 283.915Z" fill="#616A7F"/>
<path fill-rule="evenodd" clip-rule="evenodd" d="M1194.8 866.481C1179.91 868.615 1165.88 867.643 1152.71 863.567C1139.53 859.49 1125.45 851.519 1110.46 839.651L1151.45 702.481C1164.94 700.829 1180.27 702.337 1197.43 707.004C1214.6 711.672 1226.59 718.009 1233.42 726.016L1194.8 866.481Z" fill="#616A7F"/>
<path fill-rule="evenodd" clip-rule="evenodd" d="M1169.72 601.089C1180.83 604.482 1187.08 616.235 1183.69 627.34C1183.63 627.532 1183.57 627.724 1183.5 627.915L1087.52 912.548C1083.67 923.966 1071.43 930.25 1059.91 926.729C1048.8 923.336 1042.55 911.583 1045.94 900.478C1046 900.286 1046.07 900.094 1046.13 899.903L1142.12 615.27C1145.97 603.852 1158.2 597.568 1169.72 601.089Z" fill="#616A7F"/>
<path fill-rule="evenodd" clip-rule="evenodd" d="M1267.7 595L1125.01 1073.56H1820V794.67L1513 659.525L1267.7 595Z" fill="#616A7F"/>
</g>
<defs>
<clipPath id="clip0">
<rect width="1440" height="1024" fill="white"/>
</clipPath>
</defs>
</svg>
