<svg width="476" height="223" viewBox="0 0 476 223" fill="none" xmlns="http://www.w3.org/2000/svg">
<path fill-rule="evenodd" clip-rule="evenodd" d="M0 215.791C26.8678 121.235 43.538 66.7323 50.0105 52.2817C59.7193 30.6057 58.3763 26.7343 78.401 28.67C86.4804 29.451 104.914 30.4732 127.162 25.75C136.838 23.6959 153.275 18.4459 176.476 10C194.534 3.33333 217.635 0 245.781 0C273.927 0 298.616 3.33333 319.847 10C341.235 20.0625 361.731 26.2858 381.332 28.67C405.15 31.5669 411.824 27.6901 419.572 29.5697C425.841 31.0906 427.123 34.4837 430.078 41.7834C434.481 52.6637 449.789 110.666 476 215.791H402.926L394.458 158.174C393.293 188.669 388.918 207.875 381.332 215.791C373.747 223.707 281.727 225.104 105.274 219.981C101.959 212.472 99.1309 203.616 96.79 193.413C94.4492 183.209 92.8887 172.938 92.1087 162.597L73.4536 215.791H0Z" fill="#808CAB"/>
<path fill-rule="evenodd" clip-rule="evenodd" d="M50 215.805C73.1657 185.413 84.7486 156.422 84.7486 128.833C84.7486 87.4499 73.4657 29.0465 78.4179 29.0465C82.8331 29.0465 84.4512 152.124 120.147 183.297C144.174 204.28 191.133 210.87 241.703 211.035C281.528 211.166 321.958 210.598 356.823 189.451C394.78 166.428 406.063 31.2415 410.039 29.0465C414.015 26.8514 398.937 102.86 415.996 158.299C427.369 195.259 434.037 214.427 436 215.805H403.257L394.78 158.299C393.614 188.736 389.235 207.904 381.642 215.805C374.049 223.706 281.941 225.1 105.317 219.987C101.999 212.492 99.1679 203.653 96.8247 193.47C94.4816 183.286 92.9197 173.035 92.1388 162.714L73.4658 215.805H50Z" fill="#697591"/>
<path d="M365 142H293C290.239 142 288 144.239 288 147V182C288 184.761 290.239 187 293 187H365C367.761 187 370 184.761 370 182V147C370 144.239 367.761 142 365 142Z" fill="white"/>
<path d="M335 153.782H300V158.782H335V153.782Z" fill="#D8D8D8"/>
<path d="M325 163.782H300V168.782H325V163.782Z" fill="#D8D8D8"/>
</svg>
