<?xml version="1.0" encoding="UTF-8"?>
<svg width="302px" height="662px" viewBox="0 0 302 662" version="1.1" xmlns="http://www.w3.org/2000/svg" xmlns:xlink="http://www.w3.org/1999/xlink">
    <!-- Generator: Sketch 53 (72520) - https://sketchapp.com -->
    <title>talk-5</title>
    <desc>Created with Sketch.</desc>
    <g id="talk-5" stroke="none" stroke-width="1" fill="none" fill-rule="evenodd">
        <g id="Group-41" transform="translate(2.000000, 0.000000)">
            <g id="Group-40" transform="translate(18.000000, 476.218016)" fill="#FFFFFF">
                <path d="M127.999464,184.781984 L203,110.069093 C213.95894,119.140793 222.686479,125.958502 229.182617,130.522218 C235.678755,135.085934 245.617883,141.382074 259,149.410638 C246.062279,120.984534 237.616586,97.9024641 233.66292,80.1644282 C229.82599,62.9501224 224.770734,40.2599062 218.328125,26.5710463 C214.812805,19.101909 211.586925,17.3055748 206.262695,15.28589 C189.381821,8.88232542 158.999464,0.459718126 129,0.459718126 C99.0005359,0.459718126 60.5,9.98071156 54.8203125,14 C49.140625,18.0192884 48.2744055,20.9248838 46.9501953,24.6159681 C45.6259851,28.3070525 32.0701918,77.0648372 24.7109375,95.2448744 C19.804768,107.364899 11.5677888,125.420154 0,149.410638 C18,137.529296 30,129.561281 36,125.506593 C42,121.451906 47.8566264,116.206505 53.5698792,109.770393 L127.999464,184.781984 Z" id="Path-4"></path>
            </g>
            <path d="M84.0634504,426.323485 C74.4703689,418.241711 61.4082031,408.788651 44.8769531,397.964303 C20.0800781,381.727782 11.3789063,358.289529 7.140625,334.057325 C2.90234375,309.825122 -4.11328125,275.397704 3.140625,238.999266 C10.3945312,202.600829 27.4113286,174.583251 55.7373895,155.872313 C74.6214301,143.398355 89.6288888,133.593016 100.759766,126.456297 C80.2109549,106.348225 72.291033,82.1711412 77,53.9250475 C84.0634504,11.5559069 116,-6.90503063 157.5,2.32543812 C199,11.5559069 201.392578,72.4094225 195.929688,90.3293444 C192.28776,102.275959 189.310872,112.038329 186.999023,119.616454 C224.636393,131.922443 249.117839,145.871662 260.443359,161.46411 C277.431641,184.852782 288.326172,217.403563 295.179688,238.999266 C302.033203,260.594969 300.564453,302.352715 285.849609,334.057325 C271.134766,365.761936 262.575234,375.144677 249.300781,389.876219 C236.026329,404.607761 221.498047,412.286376 206.499023,420.598876 C196.499674,426.140542 155.687817,428.048745 84.0634504,426.323485 Z" id="Path-127" fill="#F6914D"></path>
            <path d="M31.1621094,276.911376 C68.9720052,278.69523 100.471354,276.191324 125.660156,269.399657 C150.848958,262.60799 173.133464,252.474527 192.513672,238.999266 C194.485026,241.28834 194.485026,245.066334 192.513672,250.333251 C190.542318,255.600167 188.640625,259.416573 186.808594,261.782469 C195.520833,258.990803 201.854818,256.384683 205.810547,253.96411 C209.766276,251.543537 214.287109,248.350178 219.373047,244.384032 C219.373047,250.770751 218.484375,255.387282 216.707031,258.233625 C214.929688,261.079968 213.005859,264.027239 210.935547,267.075438 C215.866536,266.579355 222.188151,265.148366 229.900391,262.782469 C232.88692,261.866287 241.563352,258.926834 255.929688,253.96411 C251.679688,258.84562 249.554688,267.37036 249.554688,279.538329 C249.554688,297.790282 254.793624,322.020751 249.554688,349.846922 C244.315751,377.673094 235.931641,395.829344 222.074219,412.571532 C212.835938,423.73299 206.578776,431.50187 203.302734,435.878172 C197.302734,448.309724 194.302734,464.591625 194.302734,484.723876 C194.302734,499.125902 200.273216,514.027311 212.214179,529.428103 C203.606549,560.288045 181.615885,603.494709 146.242188,659.048094 C113.682292,600.049886 93.3160547,555.661302 85.1434765,525.882345 C96.649388,512.100477 102.402344,499.011846 102.402344,486.616454 C102.402344,467.745922 102.06901,452.901521 101.402344,442.083251 C84.46875,431.75773 68.5755208,415.296141 53.7226563,392.698485 C38.8697917,370.100829 31.3496094,331.505126 31.1621094,276.911376 Z" id="Path-122" fill="#FFDDAD"></path>
            <path d="M146.496094,372.716063 C138.871094,374.049396 133.760417,374.716063 131.164063,374.716063 C127.269531,374.716063 128.056641,370.71411 131.164063,363.030516 C133.235677,357.90812 133.235677,333.973876 131.164063,291.227782 C141.830729,288.861896 148.886719,288.861896 152.332031,291.227782 C157.5,294.77661 158.542969,353.542235 161.125,359.030516 C163.707031,364.518797 164.75,370.716063 161.125,370.716063 C158.708333,370.716063 153.832031,371.38273 146.496094,372.716063 Z" id="Path-123" fill="#F8C37C"></path>
            <path d="M128.879617,395.575204 C135.284348,396.589614 139.432037,395.847437 141.322683,393.348673 C143.213329,390.849908 146.002845,391.797642 149.69123,396.191875 C152.025159,391.386342 154.534762,390.097036 157.220039,392.323955 C159.905316,394.550874 163.895748,396.367399 169.191334,397.77353 C163.677557,408.519854 156.400811,413.893016 147.361097,413.893016 C138.321384,413.893016 132.16089,407.787079 128.879617,395.575204 Z" id="Path-124" fill="#FA8F59" transform="translate(149.035476, 402.579598) rotate(-9.000000) translate(-149.035476, -402.579598) "></path>
            <path d="M82.640625,369.49536 C76.4775391,373.652587 68.5878906,376.657469 60.3056641,369.49536 C52.0234375,362.333251 55.9765625,347.426024 64.4013672,344.861571 C72.8261719,342.297118 83.3623047,343.231029 86.6455078,351.139891 C89.9287109,359.048753 88.8037109,365.338133 82.640625,369.49536 Z" id="Path-125" fill="#FCF6ED"></path>
            <path d="M203.316406,354.965087 C201.583008,339.694579 217.444336,334.634032 226.271484,340.329344 C235.098633,346.024657 237.376953,351.955321 235.323242,358.309813 C234.360388,361.289028 230.025436,368.397667 219.870785,369.663329 C211.632717,370.69011 204.29139,363.554281 203.316406,354.965087 Z" id="Path-126" fill="#FCF6ED"></path>
        </g>
        <rect id="Rectangle" fill="#FFFAF2" transform="translate(144.500000, 121.500000) rotate(-5.000000) translate(-144.500000, -121.500000) " x="98" y="119" width="93" height="5"></rect>
    </g>
</svg>