<svg width="395" height="220" viewBox="0 0 395 220" fill="none" xmlns="http://www.w3.org/2000/svg">
<path fill-rule="evenodd" clip-rule="evenodd" d="M101.842 0H275V10H102.059C86.8234 10.6787 63.7644 16.8362 44.5895 33.0924C25.5612 49.2243 10 75.5922 10 117.536C10 159.471 25.5302 183.001 44.1862 195.81C63.1444 208.826 86.0827 211.282 101.363 209.476L101.655 209.441H394.091V219.441H102.239C85.2041 221.39 59.8393 218.687 38.5261 204.054C16.7864 189.128 0 162.294 0 117.536C0 72.785 16.7554 43.5797 38.1228 25.4647C59.2995 7.5114 84.6531 0.738989 101.735 0.00461435L101.842 0Z" fill="#FFF1D6"/>
</svg>
