<svg width="150" height="39" viewBox="0 0 150 39" fill="none" xmlns="http://www.w3.org/2000/svg">
<path d="M80.5 0.5H145C147.761 0.5 150 2.73858 150 5.5V6.5C150 9.26142 147.761 11.5 145 11.5H84.0394C83.3881 11.5 82.0955 11.7851 81.0563 12.6759C80.2205 13.3923 79.0394 14.9223 79.0394 18.5V18.6831L79.0272 18.8659C78.9016 20.7501 79.1896 23.469 80.1625 25.4736C80.6181 26.4124 81.1312 27.0059 81.6382 27.3631C82.0933 27.6837 82.7985 28 84.0394 28H118C120.761 28 123 30.2386 123 33V34C123 36.7614 120.761 39 118 39H22.5C19.7386 39 17.5 36.7614 17.5 34V33C17.5 30.2386 19.7386 28 22.5 28H61C62.2409 28 62.9461 27.6837 63.4012 27.3631C63.9082 27.0059 64.4213 26.4124 64.877 25.4736C65.8499 23.469 66.1378 20.7501 66.0122 18.8659L66 18.6831V18.5C66 14.9223 64.819 13.3923 63.9831 12.6759C62.9439 11.7851 61.6513 11.5 61 11.5H5C2.23858 11.5 0 9.26142 0 6.5V5.5C0 2.73858 2.23858 0.5 5 0.5H80.5Z" fill="#FFF1D6"/>
</svg>
