<svg width="150" height="66" viewBox="0 0 150 66" fill="none" xmlns="http://www.w3.org/2000/svg">
<path fill-rule="evenodd" clip-rule="evenodd" d="M80.5 11H58.5C55.7386 11 53.5 8.76142 53.5 6V5C53.5 2.23858 55.7386 0 58.5 0H124C126.761 0 129 2.23858 129 5V6C129 8.76142 126.761 11 124 11H103.539C102.888 11 101.596 11.2851 100.556 12.1759C99.7205 12.8923 98.5394 14.4223 98.5394 18V18.1831L98.5272 18.3659C98.4016 20.2501 98.6896 22.969 99.6625 24.9736C100.118 25.9124 100.631 26.5059 101.138 26.8631C101.593 27.1837 102.299 27.5 103.539 27.5H145C147.761 27.5 150 29.7386 150 32.5V33.5C150 36.2614 147.761 38.5 145 38.5H84.0394C83.3881 38.5 82.0955 38.7851 81.0563 39.6759C80.2205 40.3923 79.0394 41.9223 79.0394 45.5V45.6831L79.0272 45.8659C78.9016 47.7501 79.1896 50.469 80.1625 52.4736C80.6181 53.4124 81.1312 54.0059 81.6382 54.3631C82.0933 54.6837 82.7985 55 84.0394 55H118C120.761 55 123 57.2386 123 60V61C123 63.7614 120.761 66 118 66H22.5C19.7386 66 17.5 63.7614 17.5 61V60C17.5 57.2386 19.7386 55 22.5 55H61C62.2409 55 62.9461 54.6837 63.4012 54.3631C63.9082 54.0059 64.4213 53.4124 64.877 52.4736C65.8499 50.469 66.1378 47.7501 66.0122 45.8659L66 45.6831V45.5C66 41.9223 64.819 40.3923 63.9831 39.6759C62.9439 38.7851 61.6513 38.5 61 38.5H5C2.23858 38.5 0 36.2614 0 33.5V32.5C0 29.7386 2.23858 27.5 5 27.5H80.5C81.7409 27.5 82.4461 27.1837 82.9012 26.8631C83.4082 26.5059 83.9213 25.9124 84.377 24.9736C85.3499 22.969 85.6378 20.2501 85.5122 18.3659L85.5 18.1831V18C85.5 14.4223 84.319 12.8923 83.4831 12.1759C82.4439 11.2851 81.1513 11 80.5 11Z" fill="#FFF1D6"/>
</svg>
