<?xml version="1.0" encoding="UTF-8"?>
<svg width="11px" height="21px" viewBox="0 0 11 21" version="1.1" xmlns="http://www.w3.org/2000/svg" xmlns:xlink="http://www.w3.org/1999/xlink">
    <!-- Generator: Sketch 53 (72520) - https://sketchapp.com -->
    <title>Path</title>
    <desc>Created with Sketch.</desc>
    <g id="Page-1" stroke="none" stroke-width="1" fill="none" fill-rule="evenodd">
        <g id="Landing-sign-up" transform="translate(-869.000000, -580.000000)" fill="#FFFFFF" fill-rule="nonzero">
            <g id="Group-2" transform="translate(832.000000, 158.000000)">
                <g id="facebook-logo" transform="translate(37.000000, 422.000000)">
                    <path d="M6.75629566,6.88096559 L6.75629566,5.07152649 C6.75629566,4.79989416 6.76926164,4.58949738 6.79561037,4.44087173 C6.82186648,4.29202293 6.88160262,4.1456289 6.97430939,4.00110943 C7.06687725,3.85667923 7.21677327,3.75697061 7.42376592,3.70171579 C7.63103641,3.64637171 7.90647092,3.61878893 8.2503473,3.61878893 L10.12759,3.61878893 L10.12759,0 L7.12647446,0 C5.38995894,0 4.14277034,0.397093798 3.38472343,1.19128139 C2.62676914,1.98564752 2.2478383,3.15572856 2.2478383,4.70197084 L2.2478383,6.88092096 L0,6.88092096 L0,10.4999777 L2.24769938,10.4999777 L2.24769938,21 L6.75624935,21 L6.75624935,10.5000223 L9.7571797,10.5000223 L10.1538462,6.88096559 L6.75629566,6.88096559 Z" id="Path"></path>
                </g>
            </g>
        </g>
    </g>
</svg>