<?xml version="1.0" encoding="UTF-8"?>
<svg width="21px" height="21px" viewBox="0 0 21 21" version="1.1" xmlns="http://www.w3.org/2000/svg" xmlns:xlink="http://www.w3.org/1999/xlink">
    <!-- Generator: Sketch 53 (72520) - https://sketchapp.com -->
    <title>search</title>
    <desc>Created with Sketch.</desc>
    <g id="Page-1" stroke="none" stroke-width="1" fill="none" fill-rule="evenodd">
        <g id="Landing-sign-up" transform="translate(-1055.000000, -580.000000)" fill-rule="nonzero">
            <g id="Group-2" transform="translate(832.000000, 158.000000)">
                <g id="search" transform="translate(223.000000, 422.000000)">
                    <path d="M5.13719029,13.125 L4.31309017,15.8037465 L1.75,15.7647582 C0.892196175,14.254321 0.357543945,12.622822 0.357543945,10.7863861 C0.357543945,9.01056518 0.943619459,7.33211053 1.75,5.85756546 L3.91571641,6.30615188 L5.03513124,8.71753025 C4.80084024,9.365972 4.67314128,10.0620607 4.67314128,10.7863861 C4.67322941,11.5724978 4.86200742,12.4301245 5.13719029,13.125 Z" id="Path" fill="#FBBB00"></path>
                    <path d="M20.5028377,11.443726 C20.5028377,12.156591 20.4287584,12.8519533 20.2876349,13.5226952 C19.8085608,15.8051623 18.556748,17.7982127 16.8226318,19.2086182 L14.014078,19.0631125 L13.6166563,16.5530327 C14.7673261,15.8702723 15.66658,14.8017916 16.1402722,13.5226952 L10.8778377,13.5226952 L10.8778377,9.58361816 L16.2170425,9.58361816 L20.3308831,9.58361816 C20.4439049,10.185944 20.5028377,10.8079895 20.5028377,11.443726 Z" id="Path" fill="#518EF8"></path>
                    <path d="M17.4994284,18.8085848 L17.5,18.809129 C15.7088038,20.1798519 13.43342,21 10.9565058,21 C6.97607438,21 3.51539242,18.8818574 1.75,15.7647582 L5.13719029,13.125 C6.01986608,15.3678032 8.29235103,16.9643691 10.9565058,16.9643691 C12.1016285,16.9643691 13.1744436,16.669646 14.0950084,16.1551439 L17.4994284,18.8085848 Z" id="Path" fill="#28B446"></path>
                    <path d="M17.5,2.49675614 L14.1574678,5.37309242 C13.2169737,4.75517323 12.105228,4.39821539 10.914164,4.39821539 C8.22471787,4.39821539 5.93948065,6.2180395 5.11179756,8.75 L1.75056426,5.85756546 L1.75,5.85756546 C3.46719254,2.37758662 6.92648549,0 10.914164,0 C13.4176474,0 15.7130815,0.937342649 17.5,2.49675614 Z" id="Path" fill="#F14336"></path>
                </g>
            </g>
        </g>
    </g>
</svg>