<svg width="130" height="130" viewBox="0 0 130 130" fill="none" xmlns="http://www.w3.org/2000/svg">
<g clip-path="url(#clip0)">
<path d="M65 67.0201H117.595C118.175 70.2604 118.465 73.3556 118.465 76.3058C118.465 86.8006 116.265 96.1709 111.864 104.417C107.463 112.663 101.188 119.107 93.0385 123.75C84.8893 128.393 75.5432 130.714 65 130.714C57.407 130.714 50.1767 129.251 43.3091 126.325C36.4416 123.399 30.5171 119.446 25.5357 114.464C20.5543 109.483 16.6006 103.558 13.6747 96.6908C10.7487 89.8233 9.28571 82.593 9.28571 75C9.28571 67.407 10.7487 60.1767 13.6747 53.3091C16.6006 46.4416 20.5543 40.5171 25.5357 35.5357C30.5171 30.5543 36.4416 26.6006 43.3091 23.6747C50.1767 20.7487 57.407 19.2857 65 19.2857C79.5089 19.2857 91.9624 24.1462 102.36 33.8672L87.1987 48.4487C81.25 42.6934 73.8504 39.8158 65 39.8158C58.7612 39.8158 52.9939 41.3876 47.6981 44.5312C42.4023 47.6748 38.2068 51.9429 35.1116 57.3354C32.0164 62.7279 30.4687 68.6161 30.4687 75C30.4687 81.3839 32.0164 87.2721 35.1116 92.6646C38.2068 98.0571 42.4023 102.325 47.6981 105.469C52.9939 108.612 58.7612 110.184 65 110.184C69.2076 110.184 73.0766 109.604 76.6071 108.443C80.1376 107.282 83.0394 105.831 85.3125 104.09C87.5856 102.349 89.5685 100.366 91.2612 98.1417C92.9539 95.917 94.1992 93.8132 94.9972 91.8303C95.7952 89.8475 96.3393 87.9613 96.6295 86.1719H65V67.0201Z" fill="white"/>
</g>
<defs>
<clipPath id="clip0">
<rect width="130" height="130" fill="white"/>
</clipPath>
</defs>
</svg>
