<svg width="129" height="76" viewBox="0 0 129 76" fill="none" xmlns="http://www.w3.org/2000/svg">
<path fill-rule="evenodd" clip-rule="evenodd" d="M125.234 5.14622C126.124 2.17977 125.234 0 121 0H107C103.441 0 101.799 1.88301 100.909 3.9594C100.909 3.9594 93.7899 21.3129 83.7042 32.5852C80.4412 35.8482 78.9579 36.8864 77.178 36.8864C76.2882 36.8864 75 35.8482 75 32.882V5.14622C75 1.58648 73.9669 0 71.0002 0H49.0002C46.7757 0 45.4379 1.65215 45.4379 3.21796C45.4379 6.59253 50.4805 7.37075 51.0002 16.8634V37.4799C51.0002 42 50.1839 42.8195 48.4041 42.8195C43.658 42.8195 32.1132 25.3884 25.266 5.44274C23.9241 1.56599 22.5783 0 19.0002 0H5.00024C1.00024 0 0.200195 1.88301 0.200195 3.9594C0.200195 7.66752 4.94651 26.0593 22.2998 50.3836C33.8686 66.9953 50.1682 76 65.0002 76C73.8993 76 75.0002 74 75.0002 70.555V58C75.0002 54 75.8433 53.2017 78.6614 53.2017C80.7377 53.2017 84.2975 54.2399 92.6035 62.2492C102.096 71.7416 103.661 76 109 76H123C127 76 129 74 127.846 70.0531C126.584 66.1194 122.052 60.4121 116.038 53.6466C112.775 49.7904 107.88 45.6376 106.397 43.5607C104.321 40.8913 104.914 39.7044 106.397 37.3315C106.397 37.3315 123.454 13.3036 125.234 5.14622Z" fill="white"/>
</svg>
