<?xml version="1.0" encoding="UTF-8"?>
<svg width="230px" height="369px" viewBox="0 0 230 369" version="1.1" xmlns="http://www.w3.org/2000/svg" xmlns:xlink="http://www.w3.org/1999/xlink">
    <!-- Generator: Sketch 53 (72520) - https://sketchapp.com -->
    <title>talk-2</title>
    <desc>Created with Sketch.</desc>
    <g id="talk-2" stroke="none" stroke-width="1" fill="none" fill-rule="evenodd">
        <g id="Group-7">
            <rect id="Rectangle" fill="#F8C37C" x="70.0441176" y="255.767157" width="89.1470588" height="88.0857843"></rect>
            <path d="M35.5514706,60.4926471 L193.683824,60.4926471 C208.043227,60.4926471 219.683824,72.1332436 219.683824,86.4926471 L219.683824,142.210784 L9.55147059,142.210784 L9.55147059,86.4926471 C9.55147059,72.1332436 21.1920671,60.4926471 35.5514706,60.4926471 Z" id="Rectangle" fill="#49515E"></path>
            <rect id="Rectangle" fill="#FFDDAD" x="1.70530257e-12" y="115.678922" width="229.235294" height="52.002451" rx="24.5"></rect>
            <path d="M103.593137,24.4093137 L124.580882,24.4093137 C166.554523,24.4093137 200.580882,58.4356727 200.580882,100.409314 L200.580882,210.29902 C200.580882,252.272661 166.554523,286.29902 124.580882,286.29902 L103.593137,286.29902 C61.6194963,286.29902 27.5931373,252.272661 27.5931373,210.29902 L27.5931373,100.409314 C27.5931373,58.4356727 61.6194963,24.4093137 103.593137,24.4093137 Z" id="Rectangle" fill="#FFDDAD"></path>
            <path d="M100.462332,37.3219885 C100.445173,29.3321135 102.98955,22.9876627 108.095462,18.288636 C113.303713,13.4954248 120.541765,10.8663608 129.809617,10.4014441 L129.809617,10.4014453 C131.406042,10.3213615 132.659314,9.00364466 132.659314,7.40521165 L132.659315,3.12844734 C132.659315,1.4715925 131.316169,0.128446274 129.659314,0.128446274 C129.599113,0.128446274 129.538925,0.130258362 129.478833,0.133880076 C116.903314,0.891798918 107.271589,4.28946088 100.583655,10.326866 C93.9017438,16.3588351 90.4472941,25.3403375 90.2203064,37.2713731 L90.2203128,37.2713733 C90.1887969,38.9279242 91.5061482,40.2963727 93.1626991,40.3278886 C93.1817185,40.3282504 93.2007408,40.3284314 93.2197636,40.3284314 L97.462344,40.3284267 C99.1191957,40.3284267 100.462339,38.985283 100.462339,37.3284314 C100.462339,37.3262838 100.462337,37.3241362 100.462332,37.3219885 Z" id="Path-344" fill="#49515E"></path>
            <path d="M120.112406,37.400636 C120.196217,33.9194041 121.185626,31.318564 123.080631,29.5981157 C124.997177,27.858111 127.88043,27.0211378 131.730389,27.0871962 L131.730389,27.0872025 C133.387003,27.115627 134.752997,25.7957187 134.781421,24.1391049 C134.781716,24.1219508 134.781863,24.1047944 134.781863,24.0876377 L134.781866,21.0871361 C134.781866,19.4302799 133.438719,18.0871325 131.781863,18.0871325 C131.736857,18.0871325 131.691857,18.0881453 131.646897,18.09017 C124.786527,18.3991197 119.525547,20.1839965 115.863957,23.4448007 C112.246473,26.6663263 110.416261,31.2870728 110.373323,37.3070402 L110.373329,37.3070402 C110.361512,38.9638488 111.69504,40.3165375 113.351849,40.3283551 C113.358981,40.3284059 113.366114,40.3284314 113.373246,40.3284314 L117.113276,40.3284303 C118.741999,40.3284303 120.073206,39.0288872 120.112406,37.400636 Z" id="Path-344-Copy" fill="#49515E"></path>
            <path d="M114.5,230.116051 C126.926407,230.116051 137,220.137978 137,207.829402 C137,201.615729 125.542506,214.297052 114.185007,214.35701 C103.044601,214.415822 92,201.734499 92,207.829402 C92,220.137978 102.073593,230.116051 114.5,230.116051 Z" id="Oval" fill="#F8C37C"></path>
            <path d="M35.0220588,184.509465 C45.1591709,192.114882 56.3605241,195.917591 68.6261184,195.917591 C80.8917127,195.917591 96.2222222,188.628067 114.617647,174.04902 C131.794508,188.628067 146.613029,195.917591 159.073209,195.917591 C171.53339,195.917591 183.246732,192.114882 194.213235,184.509465 C183.454012,206.544005 170.067116,217.561275 154.052548,217.561275 C138.03798,217.561275 124.893013,211.332967 114.617647,198.876353 C103.139853,211.332967 89.2358534,217.561275 72.9056491,217.561275 C56.5754448,217.561275 43.9475814,206.544005 35.0220588,184.509465 Z" id="Path-346" fill="#49515E"></path>
            <path d="M106.938854,135.457881 C103.270196,143.014116 93.3921569,166.052855 93.3921569,174.89137 C93.3921569,183.729884 103.446014,184.661765 113.394895,184.661765 C123.343776,184.661765 132.659314,181.638062 132.659314,174.89137 C132.659314,168.144677 122.652527,140.943439 120.183722,135.457881 C117.714917,129.972323 110.607512,127.901646 106.938854,135.457881 Z" id="Path-345" fill="#F8C37C"></path>
            <path d="M55.1862745,140.088235 C58.8134406,135.402705 63.77193,133.05994 70.0617426,133.05994 C76.3515552,133.05994 81.2982946,135.402705 84.9019608,140.088235 C83.2242687,130.890523 78.2716544,126.291667 70.0441176,126.291667 C61.8165809,126.291667 56.8639666,130.890523 55.1862745,140.088235 Z" id="Path-347" fill="#F8C37C"></path>
            <path d="M143.272059,140.088235 C146.899225,135.402705 151.857714,133.05994 158.147527,133.05994 C164.43734,133.05994 169.384079,135.402705 172.987745,140.088235 C171.310053,130.890523 166.357439,126.291667 158.129902,126.291667 C149.902365,126.291667 144.949751,130.890523 143.272059,140.088235 Z" id="Path-347-Copy" fill="#F8C37C"></path>
            <rect id="Rectangle" fill="#49515E" x="44.5735294" y="90.3308824" width="48.8186275" height="13.7965686" rx="6.5"></rect>
            <rect id="Rectangle-Copy-454" fill="#49515E" x="133.720588" y="90.3308824" width="48.8186275" height="13.7965686" rx="6.5"></rect>
            <path d="M93.3921569,239.235294 C96.6976085,247.017974 103.99634,250.909314 115.28835,250.909314 C126.580361,250.909314 133.785715,247.017974 136.904412,239.235294 L93.3921569,239.235294 Z" id="Path-348" fill="#49515E"></path>
            <path d="M102.943627,336.593718 L60.2769034,321.007806 C58.720633,320.439309 56.9981689,321.240058 56.4296722,322.796329 C56.3091924,323.126144 56.247549,323.474551 56.247549,323.825683 L56.247549,366.098764 C56.247549,367.755618 57.5906948,369.098764 59.247549,369.098764 C59.6342186,369.098764 60.017242,369.024014 60.3755382,368.878627 L102.943627,351.605713 L102.943627,336.593718 Z" id="Path-84" fill="#FA8F59"></path>
            <path d="M171.926471,336.593718 L129.259747,321.007806 C127.703476,320.439309 125.981012,321.240058 125.412515,322.796329 C125.292036,323.126144 125.230392,323.474551 125.230392,323.825683 L125.230392,366.098764 C125.230392,367.755618 126.573538,369.098764 128.230392,369.098764 C128.617062,369.098764 129.000085,369.024014 129.358381,368.878627 L171.926471,351.605713 L171.926471,336.593718 Z" id="Path-84-Copy" fill="#FA8F59" transform="translate(148.578431, 344.914216) scale(-1, 1) translate(-148.578431, -344.914216) "></path>
            <circle id="Oval" fill="#ED8653" cx="115.148284" cy="344.383578" r="21.7561275"></circle>
        </g>
    </g>
</svg>