<svg width="621" height="523" viewBox="0 0 621 523" fill="none" xmlns="http://www.w3.org/2000/svg">
<path fill-rule="evenodd" clip-rule="evenodd" d="M182.927 0C209.003 0 293.377 0 436.049 0C462.659 1.08782 484.281 15.7161 500.914 43.8849C517.547 72.0536 555.539 140.101 614.891 248.026C622.831 260.859 622.831 271.207 614.891 279.071C606.951 286.936 550.304 335.061 444.948 423.449V337.252C492.076 295.177 520.544 270.049 530.351 261.868C545.062 249.596 545.495 242.492 535.503 227.359C528.841 217.27 504.843 177.637 463.508 108.461V224.586H160.033V108.461C123.644 170.57 101.63 208.056 93.9916 220.921C82.5337 240.218 78.7738 245.854 93.9916 261.868C104.137 272.543 130.816 297.672 174.028 337.252V423.449L9.63615 284.163C-1.53507 274.679 -2.99317 262.633 5.26186 248.026C13.5169 233.418 51.2103 165.371 118.342 43.8849C135.323 14.6283 156.851 0 182.927 0Z" fill="white"/>
<path d="M463.777 308.831H159.191V522.147H463.777V308.831Z" fill="white"/>
<path fill-rule="evenodd" clip-rule="evenodd" d="M268.489 0C268.381 42.1386 268.381 67.1659 268.489 75.082C268.652 86.9561 270.681 119.874 311.484 119.874C352.288 119.874 356.827 88.3713 356.827 75.082C356.827 66.2225 356.827 41.1951 356.827 0H432.75C432.75 37.4295 432.75 64.0286 432.75 79.7973C432.75 103.45 438.389 165.096 463.777 165.096C463.777 202.641 463.777 268.076 463.777 361.402L372.48 410.713L313.297 325.332L250.793 410.713L159.191 361.402V165.096C183.363 147.338 195.449 118.905 195.449 79.7973C195.449 40.6896 195.449 14.0905 195.449 0H268.489Z" fill="#49515E"/>
<path d="M348.629 169.804C355.369 169.804 360.833 164.34 360.833 157.599C360.833 150.859 355.369 145.395 348.629 145.395C341.888 145.395 336.424 150.859 336.424 157.599C336.424 164.34 341.888 169.804 348.629 169.804Z" fill="#414A57"/>
<path d="M348.629 231.358C355.369 231.358 360.833 225.894 360.833 219.153C360.833 212.413 355.369 206.949 348.629 206.949C341.888 206.949 336.424 212.413 336.424 219.153C336.424 225.894 341.888 231.358 348.629 231.358Z" fill="#414A57"/>
<path d="M348.629 426.632C355.369 426.632 360.833 421.168 360.833 414.428C360.833 407.687 355.369 402.223 348.629 402.223C341.888 402.223 336.424 407.687 336.424 414.428C336.424 421.168 341.888 426.632 348.629 426.632Z" fill="#F8F1E7"/>
<path d="M348.629 291.851C355.369 291.851 360.833 286.387 360.833 279.646C360.833 272.906 355.369 267.441 348.629 267.441C341.888 267.441 336.424 272.906 336.424 279.646C336.424 286.387 341.888 291.851 348.629 291.851Z" fill="#414A57"/>
<path d="M348.629 472.267C355.369 472.267 360.833 466.803 360.833 460.063C360.833 453.322 355.369 447.858 348.629 447.858C341.888 447.858 336.424 453.322 336.424 460.063C336.424 466.803 341.888 472.267 348.629 472.267Z" fill="#F8F1E7"/>
<path fill-rule="evenodd" clip-rule="evenodd" d="M310.902 29.7158C315.889 42.4438 318.382 57.2015 318.382 73.9889C318.382 90.7763 315.889 103.258 310.902 111.434C305.276 98.4995 302.463 86.0178 302.463 73.9889C302.463 61.9599 305.276 47.2022 310.902 29.7158Z" fill="#F8F1E7"/>
<path fill-rule="evenodd" clip-rule="evenodd" d="M310.902 137.966C315.889 164.579 318.382 195.436 318.382 230.537C318.382 265.638 315.889 291.736 310.902 308.831C305.276 281.786 302.463 255.688 302.463 230.537C302.463 205.385 305.276 174.528 310.902 137.966Z" fill="#414A57"/>
<path fill-rule="evenodd" clip-rule="evenodd" d="M310.902 357.649C315.889 377.155 318.382 399.77 318.382 425.496C318.382 451.223 315.889 470.35 310.902 482.88C305.276 463.058 302.463 443.93 302.463 425.496C302.463 407.062 305.276 384.447 310.902 357.649Z" fill="#F8F1E7"/>
</svg>
